<svg width="197" height="232" viewBox="0 0 197 232" fill="none" xmlns="http://www.w3.org/2000/svg">
<path d="M98.3549 87.4604C87.6734 87.0422 78.1603 96.3515 76.3362 106.783C74.2117 118.94 88.3501 129.705 99.559 130.107C128.609 131.145 124.522 81.8832 98.3549 87.4604ZM99.5611 126.339C88.2387 125.773 76.1009 114.34 81.5562 102.637C84.4498 96.4292 89.5983 92.3146 95.8542 90.7218C96.1211 91.0034 96.5036 91.1778 97.01 91.1357C106.979 90.3015 115.66 95.6433 116.536 106.369C117.362 116.456 110.449 126.883 99.5611 126.339Z" fill="white"/>
<path d="M177.906 119.415C175.868 116.08 173.737 112.799 171.52 109.576C180.325 93.0166 186.074 74.9087 187.957 55.9119C188.006 55.4243 187.861 55.0629 187.642 54.7729C190.513 52.8816 192.862 50.1477 194.135 46.9619C197.302 39.0522 193.217 30.4616 185.269 27.7234C184.576 27.4839 184.028 27.6793 183.639 28.0513C179.501 26.927 175.809 27.7403 172.852 29.6862C172.756 29.6295 172.676 29.5622 172.556 29.5244C160.981 25.8364 149.671 26.0045 138.765 28.5956C136.542 21.726 133.526 15.2725 129.033 10.0232C107.776 -14.8134 79.2068 11.925 66.737 31.7204C66.0645 32.79 65.4551 33.8848 64.8205 34.9712C54.7484 32.7732 44.422 31.546 33.9549 31.4073C32.5469 31.3884 31.9817 32.6429 32.2086 33.7104C30.8448 28.8372 26.3414 25.0295 20.9303 25.4645C20.5815 25.4918 20.3104 25.62 20.075 25.7797C14.2667 24.1574 7.93514 27.8685 6.43473 33.8932C5.69923 36.8478 6.13212 39.7772 7.37406 42.301C6.80458 41.7483 5.85473 41.637 5.39242 42.5574C-9.00228 71.3132 7.83428 99.0266 27.5624 120.322C23.7735 128.043 20.9009 136.239 19.2345 144.951C16.8641 157.343 16.0571 172.788 24.5594 183.195C33.1353 193.695 48.0281 194.29 60.4306 192.668C62.427 192.407 64.417 192.082 66.4029 191.699C72.1544 201.193 79.751 209.259 89.9786 214.567C89.4239 222.748 95.5159 229.979 103.766 231.065C111.907 232.137 119.575 226.211 120.766 218.087C121.035 216.248 120.916 214.472 120.508 212.797C121.286 213.1 122.235 212.997 122.826 212.114C126.961 205.932 130.568 199.491 133.728 192.867C147.971 198.474 166.128 204.104 179.923 197.587C190.872 192.416 196.413 180.047 196.514 168.39C196.668 150.976 186.713 133.818 177.906 119.415ZM183.101 29.8501C183.214 30.449 183.572 31.0101 184.294 31.2707C201.041 37.3144 184.4 62.3128 172.508 51.377C169.223 48.3573 168.256 43.2004 169.517 39.0249C171.327 33.038 177.187 29.932 183.101 29.8501ZM170.255 31.8864C163.768 38.7391 163.051 51.7552 173.483 56.3637C176.975 57.9061 180.73 57.8053 184.122 56.5675C182.3 74.0681 177.051 90.787 169.101 106.165C162.999 97.6628 156.276 89.6017 148.932 82.1501C147.98 74.0092 146.715 65.902 145.177 57.8578C143.651 49.8682 142.285 40.8867 139.896 32.3277C149.688 29.9972 159.844 29.5727 170.255 31.8864ZM62.9839 147.5C60.0293 145.182 56.9129 142.696 53.7229 140.069C52.6974 132.841 52.0355 125.62 51.5921 118.61C51.0436 109.933 51.0793 100.96 51.8085 91.9743C54.6538 88.8516 57.6126 85.8339 60.6618 82.9298C72.7953 71.3804 86.2676 60.8166 100.252 51.4295C116.255 59.3246 131.03 69.8422 143.964 82.5095C144.456 82.9928 144.926 83.4972 145.412 83.9847C145.967 89.0218 146.395 94.0715 146.675 99.1275C147.436 112.879 146.998 126.667 145.166 140.198C143.199 142.337 141.194 144.442 139.112 146.479C128.166 157.179 115.776 166.383 102.373 173.77C88.5959 166.039 75.4011 157.244 62.9839 147.5ZM98.2288 175.949C97.6951 176.224 97.1697 176.521 96.6317 176.79C88.556 180.843 78.7172 185.17 68.5988 187.738C61.3321 175.052 57.0936 160.43 54.5824 145.609C68.1954 156.929 82.8338 167.186 98.2288 175.949ZM49.1061 132.176C49.2889 133.664 49.4864 135.177 49.6945 136.701C43.7307 131.643 37.6219 126.099 31.8745 120.156C36.1929 111.734 41.5956 103.906 47.7044 96.6478C47.095 108.521 47.6666 120.484 49.1061 132.176ZM136.983 37.7787C140.255 51.003 142.905 64.4394 144.672 77.9746C144.494 77.8044 144.321 77.6258 144.141 77.4556C132.083 66.0554 118.514 56.4583 103.907 49.0234C105.029 48.29 106.147 47.5483 107.275 46.8317C116.32 41.0822 125.894 36.3098 135.865 33.3931C136.258 34.8683 136.626 36.3351 136.983 37.7787ZM149.581 88.2737C155.932 95.0465 161.767 102.29 167.115 109.878C162.162 118.83 156.276 127.286 149.621 135.148C150.411 127.742 150.806 120.278 150.808 112.803C150.813 104.61 150.363 96.4272 149.581 88.2737ZM86.7698 13.5305C96.0581 5.50728 109.015 -0.359842 120.508 7.15903C128.355 12.2928 132.196 20.8792 134.81 29.6379C122.574 33.2187 110.879 39.7058 99.9331 47.0775C89.8084 42.2569 79.2215 38.4554 68.311 35.8118C73.2073 27.5364 79.2972 19.986 86.7698 13.5305ZM66.3945 39.2098C76.7082 41.6348 86.7214 45.1316 96.3228 49.5551C90.0858 53.9197 84.1073 58.5008 78.4272 62.9117C69.3848 69.9325 60.4958 77.609 52.4032 86.002C54.3239 69.6446 58.6865 53.4658 66.3945 39.2098ZM9.78859 34.8178C10.8561 30.0939 15.1724 27.9757 19.5707 27.982C19.8166 28.4148 20.2515 28.751 20.9303 28.7742C26.1397 28.9549 30.2017 33.4814 28.8253 38.7874C27.451 44.0809 21.7814 47.1216 16.5636 45.7578C11.8774 44.5327 8.70216 39.6217 9.78859 34.8178ZM7.70398 43.9086C7.83427 43.6186 7.83637 43.3433 7.79014 43.0848C9.67931 46.3378 12.968 48.7796 16.8851 49.4521C24.1014 50.6898 31.3302 45.8313 32.5028 38.5184C32.7487 36.9844 32.6457 35.463 32.2864 34.0214C32.528 34.656 33.0786 35.1646 33.9591 35.1751C43.7706 35.3054 53.4329 36.4359 62.8725 38.4218C54.202 54.5754 49.6924 72.4101 48.1205 90.6084C40.7635 98.8018 34.2638 107.672 29.1636 117.29C9.76967 96.3494 -4.34765 70.7773 7.70398 43.9086ZM36.2412 187.047C15.1367 178.004 20.6382 148.406 26.9277 131.359C27.9469 128.6 29.0985 125.906 30.3467 123.26C32.2149 125.2 34.0957 127.085 35.968 128.902C40.65 133.446 45.5001 137.867 50.4867 142.154C52.9097 157.81 56.9045 174.581 64.6104 188.648C54.7904 190.646 44.8886 190.753 36.2412 187.047ZM105.638 227.551C99.5317 227.463 94.4526 222.911 93.6708 216.912C92.7147 209.578 98.7605 204.121 105.657 204.425C105.865 204.701 106.153 204.917 106.576 204.976C112.239 205.76 117.366 210.095 117.251 216.218C117.137 222.331 111.743 227.64 105.638 227.551ZM119.594 210.187C117.369 205.432 112.565 201.996 107.046 201.494C106.395 201.435 105.926 201.782 105.636 202.261C98.8214 200.79 92.059 205.009 90.3674 212.083C82.0857 206.249 75.5734 198.987 70.4334 190.816C81.5078 188.24 92.3259 183.894 102.581 178.336C110.797 182.821 119.199 186.918 127.794 190.468C128.586 190.795 129.408 191.132 130.238 191.47C127.159 197.898 123.629 204.154 119.594 210.187ZM131.629 188.4C125.007 185.542 118.942 182.474 114.12 180.04C111.59 178.765 109.083 177.445 106.59 176.098C120.489 168.027 133.236 157.822 143.97 146.937C144.035 146.872 144.096 146.802 144.162 146.735C141.711 161.094 137.637 175.106 131.629 188.4ZM181.06 192.676C168.956 200.691 150.865 196.247 135.142 189.871C142.029 174.629 146.469 158.411 148.806 141.807C156.755 133.036 163.694 123.464 169.477 113.274C172.875 118.303 176.061 123.477 179.022 128.776C188.84 146.357 203.552 177.781 181.06 192.676Z" fill="white"/>
</svg>
