<svg width="170" height="85" viewBox="0 0 170 85" fill="none" xmlns="http://www.w3.org/2000/svg">
<path d="M13.8331 71.1716C13.5484 71.1522 13.254 71.1348 12.9674 71.1155C12.8279 64.1814 12.6071 57.2435 12.4231 50.3231C12.3979 49.403 11.0169 49.4011 10.9937 50.3231C10.8097 57.1912 10.5908 64.0749 10.4514 70.9566C8.22201 70.8269 5.97329 70.7533 3.7575 70.7939C4.05191 64.9213 4.21848 59.0468 4.11389 53.1606C4.09452 52.0275 2.40363 52.0314 2.35714 53.1606C2.1131 59.1455 1.77995 65.1169 1.28798 71.0767C1.01101 71.3614 0.95097 71.8379 1.19889 72.1187C0.877369 75.853 0.507427 79.5835 0.0115862 83.3081C-0.184038 84.7782 2.15377 85.3166 2.77939 84.0577C3.08154 83.4495 3.38563 82.8413 3.68779 82.2331C4.07322 81.4584 3.7362 80.7495 3.18419 80.3911C3.36626 77.8073 3.52702 75.2236 3.66841 72.6378C5.88807 72.9361 8.15228 73.1298 10.4029 73.2634C10.3506 76.254 10.3138 79.2426 10.3119 82.2292C10.31 84.0247 13.1049 84.0286 13.1029 82.2292C13.101 79.291 13.0642 76.3489 13.0158 73.4068C13.2869 73.4203 13.5639 73.4358 13.8331 73.4494C15.3013 73.5191 15.2839 71.2704 13.8331 71.1716Z" fill="white"/>
<path d="M39.9655 68.3365C37.9531 63.4885 32.5434 61.141 27.6741 62.1637C28.7277 61.0403 29.8879 60.0099 31.0675 59.1034C31.972 58.4081 31.1295 56.845 30.1455 57.5268C24.8637 61.1933 20.1028 66.6727 21.1352 73.5545C22.0397 79.582 27.3932 83.909 33.508 82.2181C39.5142 80.5582 42.3169 73.998 39.9655 68.3365ZM30.3508 79.6111C25.8922 79.4426 23.4401 74.9548 23.5466 70.9474C23.5911 69.2837 24.0502 67.7438 24.7475 66.3086C24.9334 66.3241 25.1348 66.3028 25.3537 66.2176C29.9809 64.3814 35.7818 64.9102 37.3623 70.5426C38.6542 75.1485 35.2666 79.797 30.3508 79.6111Z" fill="white"/>
<path d="M78.461 37.5653C78.3312 35.5819 75.3329 35.5374 75.3426 37.5653C75.3755 44.5071 77.2117 59.7522 70.6457 63.4788C64.4225 67.0117 56.8725 68.5709 50.5002 72.1541C49.4291 72.7564 50.3704 74.2808 51.4492 73.7772C59.0379 70.2385 66.8242 66.7831 75.0985 65.2336C75.6021 65.1387 76.0902 64.6274 76.1967 64.1335C78.091 55.4078 79.044 46.4943 78.461 37.5653Z" fill="white"/>
<path d="M130.495 61.7048C130.354 61.6235 130.212 61.5421 130.069 61.4588C129.43 61.0908 128.533 61.1799 128.012 61.7242C127.919 61.821 127.828 61.9179 127.735 62.0128C126.943 62.8437 127.175 63.787 127.805 64.3293C126.344 64.5036 125.078 65.104 124.045 66.2158C122.002 67.9454 119.9 69.5995 117.739 71.1839C114.611 73.4985 113.085 75.1351 108.998 74.6587C103.89 74.064 99.9816 68.5556 95.8813 65.412C90.1036 60.9824 85.2265 59.2702 85.8986 50.9126C86.3305 45.528 87.6786 40.1726 88.1376 34.757C88.2383 33.5775 86.2453 33.2908 86.0516 34.4743C85.1916 39.7213 84.3452 44.9721 83.1657 50.1591C82.6679 52.3478 80.4211 56.8878 81.4941 59.2585C82.1372 60.6763 83.6383 61.2497 84.843 62.0825C90.0668 65.6909 95.2053 68.9642 99.9022 73.3222C103.966 77.0933 105.649 81.2518 111.103 79.9212C115.957 78.7377 128.707 68.5478 131.113 64.0698C131.557 63.2524 131.328 62.1852 130.495 61.7048Z" fill="white"/>
<path d="M101.277 7.50305C99.7162 3.64672 95.6856 1.51422 91.8757 1.94227C91.9087 1.92871 91.9416 1.91322 91.9726 1.9016C93.0882 1.45418 92.6737 -0.318079 91.4612 0.0499276C85.4492 1.8764 78.5113 6.4242 79.6502 13.7011C80.6593 20.1586 88.0698 23.3719 93.9095 21.6732C99.8964 19.932 103.702 13.488 101.277 7.50305ZM91.1204 18.9074C86.7023 19.2735 81.9763 16.1183 82.4354 11.3167C82.7162 8.38238 84.4788 6.26925 86.7198 4.66745C86.0748 5.93804 87.5507 7.7587 88.9104 6.77864C92.3503 4.30525 97.2544 5.06064 98.4398 9.63167C99.6697 14.3693 95.6778 18.5278 91.1204 18.9074Z" fill="white"/>
<path d="M169.568 74.4262C167.408 70.3762 164.377 67.2133 160.598 64.829C164.414 62.1813 168.462 58.6039 168.973 54.0464C169.479 49.5354 165.818 46.5604 161.528 46.9148C154.39 47.5056 152.111 54.5558 151.737 62.1251C150.908 58.5942 150.127 55.0497 149.353 51.5033C149.078 50.2443 147.286 50.8099 147.462 52.0243C148.762 60.9591 151.009 69.6828 153.044 78.4685C153.513 80.4906 156.362 79.5803 156.081 77.6318C155.117 70.9631 154.385 63.2756 156.151 56.665C156.612 54.9393 157.174 53.5544 158.419 52.249C159.227 50.9028 160.464 50.2424 162.132 50.2714C162.971 52.1967 163.809 54.12 164.648 56.0453C164.212 58.8266 158.458 62.1619 156.434 63.4402C155.4 64.0949 155.225 65.8149 156.434 66.4269C160.982 68.7299 164.059 71.7572 166.63 76.1423C167.737 78.0404 170.598 76.3573 169.568 74.4262Z" fill="white"/>
</svg>
