<svg width="327" height="112" viewBox="0 0 327 112" fill="none" xmlns="http://www.w3.org/2000/svg">
<path d="M25.1723 29.286C25.3873 26.8672 22.2495 26.6745 21.1006 28.1841C16.8511 33.7677 13.3675 39.6677 10.415 45.9456C7.6232 40.4187 5.60223 34.7486 4.28538 28.5818C3.79371 26.2866 0.27302 26.8524 0.258196 29.1278C0.171723 43.8134 -0.268007 58.5533 0.243418 73.2315C0.300243 74.8646 2.64734 74.8399 2.76346 73.2315C3.50465 62.8375 3.76902 52.3965 4.02103 41.9629C5.34283 45.318 6.88448 48.5917 8.71277 51.8035C9.43173 53.0635 11.7369 53.3106 12.3792 51.8035C14.5707 46.6695 17.16 41.8641 20.1223 37.2415C19.2328 48.3594 18.756 59.47 20.0679 70.6101C20.3916 73.3624 24.7375 73.4291 24.4459 70.6101C23.0105 56.7695 23.937 43.1068 25.1723 29.286Z" fill="white"/>
<path d="M54.1061 67.6547C50.5088 70.0883 46.6348 71.9833 42.1728 70.79C38.8078 69.8906 35.9863 67.1112 34.9981 63.7708C40.7003 64.2996 48.2482 60.643 48.641 54.2316C49.1277 46.2514 37.155 49.9994 34.1383 53.2137C29.1426 58.538 30.2593 66.6566 35.4749 71.4076C41.3007 76.7146 50.8769 76.05 56.3568 70.575C57.8121 69.1223 55.8973 66.4441 54.1061 67.6547ZM37.5725 54.9382C38.7386 53.9302 45.0832 50.6047 45.1524 54.9827C45.2241 59.5435 37.8616 61.357 34.6052 61.1272C34.6052 61.0951 34.5978 61.0655 34.5978 61.0358C34.6596 58.6689 35.7961 56.475 37.5725 54.9382Z" fill="white"/>
<path d="M78.904 62.1996C73.4637 62.5282 68.1814 61.7672 62.9806 60.1835C61.4315 59.7116 60.7942 62.0958 62.3161 62.5949C67.7219 64.3713 73.229 65.1619 78.9065 65.2904C80.9053 65.3373 80.8855 62.081 78.904 62.1996Z" fill="white"/>
<path d="M82.0468 55.3315C75.7046 54.4247 69.3377 53.6736 62.9956 52.7546C61.397 52.5248 60.6855 54.9535 62.3161 55.2178C68.6163 56.2357 74.8918 57.4192 81.1895 58.447C83.2352 58.7805 84.0851 55.623 82.0468 55.3315Z" fill="white"/>
<path d="M118.682 68.6559C112.666 68.4113 106.615 68.4558 100.586 68.5077C102.785 56.5324 104.184 44.7277 103.062 32.4781C102.914 30.8599 100.468 30.7956 100.49 32.4781C100.663 45.1032 99.9836 57.7258 96.4555 69.9209C96.1022 71.1389 97.0757 72.31 98.2962 72.3372C105.078 72.5003 111.897 72.6831 118.679 72.5102C121.167 72.4509 121.16 68.7572 118.682 68.6559Z" fill="white"/>
<path d="M142.195 59.0344C140.208 59.1999 138.237 59.2296 136.273 59.1876C136.159 56.9195 136.008 54.6539 135.724 52.4032C135.573 51.2024 133.854 51.1283 133.797 52.4032C133.693 54.6243 133.659 56.8479 133.632 59.0715C131.774 58.9504 129.918 58.775 128.053 58.5032C126.556 58.2858 125.859 60.5119 127.41 60.833C129.456 61.2555 131.517 61.5421 133.585 61.7571C133.57 62.691 133.565 63.6274 133.535 64.5613C132.824 64.8553 132.265 65.5792 132.527 66.439C132.794 67.316 133.051 68.1536 133.402 69.001C134.057 70.5798 136.767 70.607 136.663 68.5588C136.554 66.3747 136.485 64.1808 136.404 61.9868C138.331 62.1079 140.26 62.1746 142.197 62.1598C144.226 62.145 144.184 58.8689 142.195 59.0344Z" fill="white"/>
<path d="M171.156 64.48C168.816 64.685 166.509 65.1124 164.176 65.3817C164.268 54.4516 164.821 43.4547 164.203 32.5566C164.117 31.0372 162.034 31.0841 161.876 32.5566C160.702 43.5115 160.707 54.6245 160.236 65.6461C158.135 65.6881 156.028 65.651 153.958 65.8932C152.945 66.0118 152.572 67.4818 153.701 67.7857C155.645 68.3119 157.844 68.6059 160.112 68.7171C160.112 68.7221 160.112 68.7245 160.112 68.7295C159.976 71.3088 164.149 71.3385 164.142 68.7295C164.142 68.7245 164.142 68.7171 164.142 68.7122C166.77 68.5936 169.35 68.265 171.601 67.7536C173.399 67.3459 173.051 64.3144 171.156 64.48Z" fill="white"/>
<path d="M173.268 29.5079C168.221 27.9465 163.121 26.6469 157.883 25.9205C156.554 25.7352 155.922 27.6994 157.31 27.9983C162.479 29.1052 167.546 30.4566 172.478 32.3739C174.237 33.0558 175.119 30.0811 173.268 29.5079Z" fill="white"/>
<path d="M204.594 98.2097C200.151 98.1948 193.473 99.4475 189.238 98.1602C183.971 96.5593 185.221 93.9725 185.599 88.6062C186.316 78.4617 187.195 68.3271 188.277 58.2147C189.426 47.4995 190.778 36.804 192.349 26.1431C192.744 23.4526 192.532 14.4026 194.506 12.216C197.557 8.83372 200.27 10.3507 204.591 10.4495C206.348 10.4915 206.264 7.95664 204.591 7.77382C200.88 7.61569 197.345 6.79791 193.98 5.32046C193.108 5.00174 191.892 5.68117 191.724 6.60025C186.133 37.5847 182.447 68.8978 180.48 100.317C180.406 101.498 181.54 102.491 182.659 102.496L204.594 102.602C207.423 102.62 207.425 98.2195 204.594 98.2097Z" fill="white"/>
<path d="M221.626 20.0261C218.12 20.1891 215.393 23.0922 213.579 26.4794C213.382 24.7821 213.157 23.0922 212.789 21.4294C212.52 20.2114 210.746 20.5499 210.691 21.7135C210.494 25.8321 211.089 29.9828 211.087 34.1088C211.084 36.0804 213.928 36.4362 214.486 34.5684C215.465 31.3021 216.964 26.9587 219.956 24.9501C225.35 21.3306 225.866 30.1508 225.708 33.3281C225.574 35.9989 229.728 35.9914 229.861 33.3281C230.13 27.9223 228.836 19.6901 221.626 20.0261Z" fill="white"/>
<path d="M225.426 43.1435C218.849 42.4937 212.102 42.5555 205.493 42.3232C203.956 42.2689 203.998 44.5592 205.493 44.6852C212.097 45.246 218.802 46.1132 225.426 46.2516C227.46 46.296 227.378 43.3362 225.426 43.1435Z" fill="white"/>
<path d="M227.282 61.0607C223.949 61.4462 220.722 61.3992 217.52 60.957C218.785 58.8001 219.366 56.2726 218.847 53.7402C218.585 52.4653 217.812 50.6173 216.164 50.8965C214.758 51.1361 214.454 52.4159 214.958 53.4906C215.316 54.2565 216.492 53.7081 216.292 52.9273C216.952 55.4968 215.912 58.2887 214.133 60.3195C213.238 60.1046 212.347 59.902 211.45 59.6129C210.355 59.2572 209.132 60.2158 209.169 61.3498C209.204 62.4072 209.256 63.4597 209.32 64.5147C209.404 65.9082 210.701 66.5481 211.917 66.0045C212.902 65.5647 213.817 64.9594 214.664 64.2627C218.961 65.2139 223.356 65.3868 227.783 64.7445C229.851 64.4455 229.384 60.8161 227.282 61.0607Z" fill="white"/>
<path d="M303.788 73.1049C269.32 75.6398 235.324 74.3205 200.937 71.3582C199.479 71.2322 199.124 73.7004 200.589 73.9351C233.229 79.1753 266.666 79.8004 299.635 77.7251C300.07 78.7084 301.157 79.3606 302.407 78.6318C303.235 78.1475 304.065 77.6658 304.892 77.1815C306.679 76.1389 306.016 72.9394 303.788 73.1049Z" fill="white"/>
<path d="M257.068 92.641C256.29 96.7077 255.331 100.621 254.022 104.488C252.939 102.566 251.909 100.616 250.993 98.6003C249.567 95.4675 248.65 92.0777 247.027 89.0512C246.6 88.2532 245.184 88.5842 245.263 89.528C245.831 96.4187 249.673 103.529 252.831 109.58C253.441 110.751 255.319 110.748 255.931 109.58C258.615 104.453 260.388 98.9338 260.944 93.1648C261.152 90.9684 257.485 90.4619 257.068 92.641Z" fill="white"/>
<path d="M258.854 42.6817C254.647 42.5729 250.402 42.8422 246.192 42.9411C244.426 42.9831 244.423 45.644 246.192 45.686C250.4 45.7848 254.647 46.0541 258.854 45.9454C260.954 45.8935 260.959 42.736 258.854 42.6817Z" fill="white"/>
<path d="M289.562 39.6298C286.839 44.245 284.391 49.1468 281.913 53.9547C279.111 48.7268 276.398 43.4519 273.658 38.1919C272.93 36.796 270.936 38.0214 271.573 39.4099C274.523 45.8534 277.55 52.2647 280.364 58.77C280.957 60.1387 282.81 59.7508 283.499 58.77C287.237 53.4432 290.921 47.274 293.231 41.1764C294.051 39.0072 290.689 37.72 289.562 39.6298Z" fill="white"/>
<path d="M322.014 88.2898C323.422 59.897 325.031 31.5067 326.103 3.10161C326.145 1.9997 325.144 1.10285 324.087 1.08556C313.789 0.91014 303.494 0.361657 293.201 0.000941187C291.64 -0.0534132 291.687 2.26406 293.201 2.39747C299.084 2.91631 304.967 3.4228 310.849 3.91446C319.254 4.61612 320.957 3.84033 321.495 12.5667C322.162 23.3758 320.319 34.8891 319.773 45.6957C319.215 56.7395 318.654 67.7809 318.096 78.8247C317.809 84.4874 318.795 92.359 317.137 97.7549C318.256 102.938 315.729 105.718 309.555 106.098C307.022 105.394 304.539 104.539 302.113 103.531C299.978 102.721 298.503 106.217 300.554 107.23C304.398 109.13 315.069 114.227 319.37 110.899C323.852 107.435 321.774 93.1026 322.014 88.2898Z" fill="white"/>
</svg>
