<svg width="271" height="63" viewBox="0 0 271 63" fill="none" xmlns="http://www.w3.org/2000/svg">
<path d="M38.4691 13.9649C33.6835 3.39709 15.2492 -3.41108 4.29182 1.77703C4.29182 1.72184 4.28857 1.66664 4.28857 1.61469C4.25935 -0.515098 1.00623 -0.518345 0.977012 1.61469C0.967273 2.41011 0.938057 3.20876 0.92507 4.00418C0.749752 4.29963 0.765984 4.62428 0.905589 4.91323C0.629625 19.6529 -0.130088 34.4219 0.019257 49.1518C0.0517233 52.5153 5.21386 52.5218 5.24633 49.1518C5.39567 34.3342 4.62623 19.4776 4.35351 4.6535C13.1811 1.29649 26.8104 5.94892 32.2615 13.2701C40.1249 23.8281 25.9338 29.224 15.8011 30.6168C15.9245 29.0325 14.5317 27.2533 12.6616 27.8085C9.58383 28.7208 8.33712 30.0584 7.1456 32.9998C6.43135 34.7627 8.2105 36.451 9.82407 36.5159C21.1386 36.9705 45.7513 30.0584 38.4691 13.9649Z" fill="white"/>
<path d="M73.854 4.94488C68.2211 17.2691 63.4291 30.0575 59.4162 43.0343C56.5982 30.3757 54.4814 17.61 52.5366 4.76307C52.2379 2.78263 48.842 3.22737 49.0173 5.24028C50.4426 21.7007 53.3418 37.9988 56.5332 54.1929C57.0722 56.9331 60.9649 56.5532 61.7084 54.1929C66.7698 38.1741 72.5488 22.626 78.9837 7.10713C80.1946 4.19491 75.1754 2.05538 73.854 4.94488Z" fill="white"/>
<path d="M105.992 35.0739C99.1778 35.8077 92.704 36.6842 85.8179 36.6875C83.5128 36.6875 83.6102 39.9828 85.8179 40.2036C92.454 40.8659 100.051 40.7847 106.535 39.0867C108.694 38.5218 108.333 34.8207 105.992 35.0739Z" fill="white"/>
<path d="M111.934 25.764C104.807 25.0595 97.7006 24.2316 90.5807 23.4687C88.5548 23.2512 88.0581 26.7608 90.0937 27.0562C97.1779 28.0789 104.268 29.0334 111.343 30.1145C114.505 30.595 115.154 26.0822 111.934 25.764Z" fill="white"/>
<path d="M160.633 19.2378C150.695 19.9164 144.186 28.4875 140.101 37.4254C138.959 30.403 137.871 23.3675 136.689 16.3548C136.361 14.4101 132.998 14.8386 133.212 16.8256C134.322 27.1109 135.65 37.4027 136.443 47.7172C136.676 50.7821 140.634 51.2885 141.702 48.4282C144.478 41.0097 147.413 33.0295 153.955 28.0654C155.406 26.9648 158.023 24.9908 159.87 25.0882C162.169 26.5817 164.471 28.0752 166.769 29.5686C167.162 30.9257 167.415 32.3088 167.526 33.7178C168.266 39.2371 167.503 44.1946 166.552 49.6587C165.958 53.0741 170.649 54.4572 171.792 51.1035C175.042 41.5454 176.022 18.1859 160.633 19.2378Z" fill="white"/>
<path d="M225.923 52.5704C222.803 47.0122 218.855 42.5351 213.969 38.7755C219.313 34.8244 223.55 29.0032 223.942 22.208C224.351 15.1855 220.092 10.2831 212.917 11.2051C208.203 11.809 202.583 13.8511 198.554 17.2309C197.752 16.442 196.06 16.7829 195.982 18.2536C195.95 18.825 195.956 19.3931 195.93 19.9645C195.168 20.971 194.492 22.0294 194.047 23.2014C192.56 27.1201 193.369 31.3277 193.84 35.3601C194.642 42.2461 195.512 49.1257 196.372 56.0053C196.827 59.6318 201.638 59.239 201.722 56.0053H201.82C201.729 55.1742 201.583 54.2197 201.421 53.21C200.025 44.8012 199.434 36.2334 199.177 27.6818C199.609 25.526 200.372 23.6819 201.645 22.3833C205.294 18.6627 216.485 13.9128 218.014 21.2632C219.293 27.4123 211.839 33.7627 207.391 36.1425C205.404 37.2074 205.635 40.0157 207.391 41.1326C213.206 44.8337 217.547 49.4829 220.913 55.4924C222.741 58.752 227.754 55.83 225.923 52.5704Z" fill="white"/>
<path d="M268.437 18.3119C264.123 17.8412 259.639 17.6561 255.136 17.5717C255.129 17.4029 255.139 17.2373 255.133 17.0685C255.045 15.0783 252.36 15.192 252.12 17.0685C252.1 17.2114 252.091 17.3542 252.071 17.4971C246.536 17.4614 240.994 17.5945 235.669 17.6789C233.429 17.7146 233.51 20.8963 235.669 21.104C240.942 21.6105 246.234 21.8995 251.522 22.2371C250.123 34.4282 249.159 46.6485 246.779 58.726C246.192 61.7096 250.049 63.5148 251.753 60.8233C253.509 58.0507 254.009 55.9761 253.626 52.7295C253.561 52.1938 253.35 51.7717 253.084 51.4016C254.224 41.8045 255.185 32.1653 255.181 22.5098C259.685 22.9741 264.83 24.1721 269.109 23.289C272.126 22.6689 271.067 18.6009 268.437 18.3119Z" fill="white"/>
</svg>
