<svg width="411" height="135" viewBox="0 0 411 135" fill="none" xmlns="http://www.w3.org/2000/svg">
<path d="M58.0266 51.2909C51.685 51.5717 40.9903 51.3675 40.3475 42.7194C39.6676 33.5422 53.2674 29.9897 57.4882 37.8814C58.0869 38.9998 59.7019 38.2039 59.456 37.0507C56.9523 25.2143 40.8766 29.5442 37.1686 38.1923C35.2635 42.6382 36.8414 47.5644 40.1874 50.8709C44.8073 55.4351 51.9124 55.9944 58.022 55.2704C60.5001 54.978 60.6463 51.1749 58.0266 51.2909Z" fill="white"/>
<path d="M122.42 47.3011C118.253 47.3104 110.475 48.8279 109.124 43.0385C107.88 37.7086 119.71 31.2811 120.71 37.7527C120.886 38.8897 122.457 38.6391 122.77 37.7527C124.16 33.8173 119.798 31.1674 116.343 31.5456C112.359 31.9795 107.776 35.0982 105.978 38.6901C104.066 42.5095 105.657 46.6653 108.913 49.1435C112.781 52.0881 118.38 52.109 122.926 51.0346C125.028 50.5381 124.55 47.2965 122.42 47.3011Z" fill="white"/>
<path d="M212.549 53.3695C208.778 53.1885 194.213 54.2883 198.081 46.7958C200.281 42.5356 205.787 41.7513 209.743 43.7259C210.889 44.2991 212.286 42.7862 211.196 41.8418C205.949 37.3008 196.765 39.7256 194.248 46.1832C190.136 56.741 206.198 58.8224 213.045 57.038C215.14 56.4927 214.614 53.4692 212.549 53.3695Z" fill="white"/>
<path d="M302.195 38.2664C294.298 35.6536 282.207 38.9765 279.299 47.7359C276.111 57.3377 292.918 60.8462 299.183 60.4378C301.143 60.3101 301.8 57.3122 299.67 56.8319C295.54 55.8991 280.638 55.5394 283.269 48.149C285.62 41.5451 295.691 39.4382 301.608 40.4058C302.995 40.6332 303.575 38.7235 302.195 38.2664Z" fill="white"/>
<path d="M375.647 52.2817C371.145 54.5046 356.42 55.7089 358.293 46.8891C359.527 41.0835 367.173 39.2202 371.962 41.0348C373.183 41.4988 374.029 39.494 372.855 38.9186C365.657 35.38 354.32 39.023 354.271 48.3394C354.213 59.5677 370.818 59.1779 377.707 55.8041C380.06 54.6508 377.995 51.1215 375.647 52.2817Z" fill="white"/>
<path d="M21.0349 38.4173C14.6121 36.7327 7.69501 35.9182 1.06332 36.3336C-0.349796 36.4217 -0.359078 38.4637 1.06332 38.5356C7.63468 38.8721 13.8417 39.7422 20.1926 41.4709C22.1626 42.0046 23.0073 38.9347 21.0349 38.4173Z" fill="white"/>
<path d="M91.0946 40.8956C85.5095 40.3108 79.7247 40.3433 74.107 40.276C72.2438 40.2528 72.3041 42.9723 74.107 43.1301C79.7085 43.622 85.47 44.2346 91.0946 44.2068C93.2688 44.1975 93.1714 41.1114 91.0946 40.8956Z" fill="white"/>
<path d="M170.932 44.32C164.419 43.7608 157.929 43.7075 151.404 42.9626C149.995 42.8025 149.726 45.0858 151.072 45.413C157.286 46.9328 164.54 48.1441 170.932 47.6637C173.088 47.5013 173.076 44.5034 170.932 44.32Z" fill="white"/>
<path d="M249.909 49.1141C243.605 49.6339 237.734 49.432 231.467 48.5479C229.914 48.3298 229.23 50.4483 230.803 50.9542C236.822 52.8963 243.633 53.502 249.909 52.7664C252.195 52.4996 252.283 48.9169 249.909 49.1141Z" fill="white"/>
<path d="M336.186 50.0543C331.237 49.3187 326.271 48.5112 321.303 47.9009C319.939 47.7339 319.66 49.9846 320.981 50.2886C325.723 51.3838 330.534 52.2911 335.302 53.2634C337.425 53.6973 338.267 50.3629 336.186 50.0543Z" fill="white"/>
<path d="M408.446 49.2443C403.703 50.2514 399.431 49.8825 394.778 48.6248C393.433 48.2605 392.456 50.3256 393.797 50.9498C398.63 53.2029 404.171 53.6461 409.383 52.6414C411.599 52.2168 410.671 48.7733 408.446 49.2443Z" fill="white"/>
<path d="M372.855 11.6774C370.957 16.3832 370.096 21.8825 369.01 26.8435C368.637 28.549 371.073 29.2219 371.621 27.5628C373.215 22.7457 375.28 17.5735 376.048 12.5569C376.373 10.443 373.656 9.68885 372.855 11.6774Z" fill="white"/>
<path d="M297.039 8.78309C295.106 13.4076 294.148 18.8582 294.554 23.861C294.658 25.1604 296.811 25.6964 297.023 24.1951C297.73 19.1274 298.812 14.5562 300.626 9.77158C301.485 7.50455 297.939 6.62744 297.039 8.78309Z" fill="white"/>
<path d="M204.065 15.3684C204.149 18.7632 204.365 22.1718 204.58 25.5596C204.675 27.0702 206.833 27.0725 206.929 25.5596C207.144 22.1695 207.358 18.7609 207.441 15.3684C207.497 13.1966 204.012 13.1919 204.065 15.3684Z" fill="white"/>
<path d="M117.535 6.02655C117.357 3.6992 114.092 3.69456 113.913 6.02655C113.561 10.6349 113.626 16.2456 114.647 20.7634C114.888 21.8284 116.561 21.8284 116.802 20.7634C117.826 16.2386 117.888 10.6349 117.535 6.02655Z" fill="white"/>
<path d="M52.1491 0.875423C49.9726 5.62991 49.0537 11.3566 50.1675 16.501C50.432 17.7215 52.2419 17.3943 52.2837 16.2155C52.4485 11.3195 53.1075 7.09176 55.0357 2.56467C55.8641 0.622502 53.0541 -1.10155 52.1491 0.875423Z" fill="white"/>
<path d="M47.1603 67.6728C46.2948 72.1628 45.6103 76.7247 44.9559 81.2495C44.6264 83.5188 47.8077 83.9806 48.0791 81.6718C48.6175 77.1308 49.1373 72.5457 49.4668 67.9838C49.5619 66.6751 47.4109 66.3688 47.1603 67.6728Z" fill="white"/>
<path d="M117.266 61.2434C116.742 66.8866 116.255 72.5646 115.923 78.224C115.804 80.2358 118.944 80.2335 119.055 78.224C119.369 72.5785 119.529 66.8958 119.647 61.2434C119.682 59.6887 117.406 59.7444 117.266 61.2434Z" fill="white"/>
<path d="M201.877 69.3948C201.666 67.9956 199.383 68.339 199.424 69.7266C199.566 74.3373 199.714 79.217 200.387 83.7766C200.647 85.5401 203.538 85.1085 203.48 83.3589C203.325 78.7692 202.562 73.9405 201.877 69.3948Z" fill="white"/>
<path d="M296.907 78.2258C296.828 77.1909 295.143 76.7779 294.953 77.9613C294.152 82.9292 293.5 88.4634 293.653 93.487C293.718 95.6125 296.651 95.5104 296.883 93.487C297.447 88.591 297.282 83.1404 296.907 78.2258Z" fill="white"/>
<path d="M361.455 77.882C361.114 76.0048 358.39 76.8424 358.638 78.6593C359.446 84.5531 358.759 89.9759 357.717 95.7815C357.32 97.9905 360.497 98.9511 361.13 96.7236C362.859 90.6534 362.574 84.0287 361.455 77.882Z" fill="white"/>
<path d="M47.1486 110.328C47.6498 107.372 47.6916 104.288 47.0186 101.738C46.7843 100.849 45.2552 100.733 45.0997 101.738C44.7447 104.026 44.8096 106.318 44.3479 108.606C44.2458 109.114 44.1135 109.611 43.9766 110.105C39.9322 110.425 35.8854 110.711 31.8387 111.003C31.8572 110.622 31.885 110.244 31.8943 109.861C31.95 106.831 31.6855 103.814 30.9499 100.874C30.6552 99.6933 28.7015 99.9091 28.7873 101.167C29.0194 104.559 29.1493 107.873 28.8012 111.223C28.6179 111.237 28.4323 111.249 28.249 111.263C26.8753 111.372 26.8335 113.46 28.249 113.432C28.3418 113.43 28.4323 113.428 28.5251 113.425C28.5228 113.435 28.5228 113.444 28.5205 113.451C28.0657 116.057 26.5597 118.611 27.7895 121.106C28.1214 121.779 29.1308 122.194 29.8431 121.941C30.8966 121.568 31.3908 121.162 31.6414 120.032C31.827 119.187 31.4674 118.528 30.8153 118.113C30.9267 116.897 31.4465 115.226 31.537 114.535C31.5904 114.138 31.6205 113.739 31.6623 113.342C35.4515 113.242 39.2407 113.138 43.0299 113.056C42.7723 113.797 42.5171 114.539 42.2804 115.296C41.7375 117.043 44.4964 118.282 45.2923 116.565C45.8074 115.453 46.246 114.193 46.6033 112.869C47.6336 112.472 47.8076 111.033 47.1486 110.328Z" fill="white"/>
<path d="M119.677 94.0119C119.436 92.7983 117.401 93.0559 117.498 94.3066C117.754 97.6155 117.74 100.78 117.528 103.941C114.927 103.758 112.261 103.86 109.621 103.971C109.674 101.395 109.389 98.8406 108.627 96.5574C108.265 95.4691 106.574 95.6153 106.576 96.8358C106.581 99.2606 106.813 101.646 106.634 104.071C106.548 104.073 106.463 104.078 106.379 104.08C104.711 104.108 104.687 106.586 106.295 106.704C105.929 108.7 105.365 110.619 104.766 112.596C104.156 114.61 107.18 115.383 107.88 113.454C108.618 111.422 109.152 109.148 109.428 106.82C112.041 106.93 114.681 107.032 117.262 106.872C117.062 108.749 116.821 110.635 116.494 112.568C116.15 114.601 119.176 115.515 119.64 113.436C121.046 107.155 120.923 100.309 119.677 94.0119Z" fill="white"/>
<path d="M207.919 102.007C208.003 100.385 205.618 100.459 205.439 102.007C205.068 105.235 204.397 108.391 203.726 111.539C200.199 111.53 196.663 111.595 193.129 111.706C193.173 108.92 192.997 106.133 192.568 103.388C192.377 102.167 190.37 102.46 190.419 103.678C190.535 106.446 190.472 109.133 190.259 111.799C189.479 111.829 188.695 111.843 187.918 111.876C186.416 111.938 186.414 114.145 187.918 114.21C188.607 114.24 189.305 114.252 189.997 114.277C189.716 116.602 189.34 118.927 188.783 121.287C188.451 122.693 189.927 123.863 191.21 123.153C192.243 122.582 192.512 122.236 192.777 121.092C192.897 120.573 192.705 120.104 192.384 119.749C192.686 117.971 192.865 116.175 192.988 114.375C196.362 114.482 199.733 114.542 203.102 114.542C202.766 116.206 202.453 117.874 202.218 119.556C201.954 121.45 204.418 122.197 205.114 120.355C205.836 118.44 206.351 116.336 206.738 114.164C207.233 113.697 207.33 112.92 207.033 112.317C207.534 108.824 207.752 105.237 207.919 102.007Z" fill="white"/>
<path d="M298.016 115.596C291.294 112.971 282.337 112.394 278.469 119.909C275.886 124.928 278.664 131.904 284.548 132.644C290.718 133.421 298.684 127.465 297.798 120.801C297.607 119.371 296.886 118.1 295.886 117.106C296.424 117.246 296.955 117.396 297.473 117.564C298.744 117.972 299.213 116.065 298.016 115.596ZM292.006 125.857C289.479 128.486 284.3 130.713 281.861 126.813C279.724 123.392 282.028 119.536 285.179 117.786C285.715 117.489 286.274 117.26 286.843 117.067C285.662 118.812 287.973 121.114 289.528 119.443C290.764 118.111 292.857 118.84 293.656 120.311C294.707 122.253 293.322 124.488 292.006 125.857Z" fill="white"/>
<path d="M317.031 120.301C316.672 120.345 316.319 120.382 315.962 120.424C315.66 117.568 315.347 114.713 314.952 111.871C314.773 110.592 312.701 110.92 312.725 112.173C312.776 115.034 312.91 117.897 313.059 120.76C310.917 120.988 308.778 121.148 306.636 121.252C306.761 118.201 306.782 115.131 306.747 112.163C306.731 110.901 304.666 110.511 304.457 111.852C303.974 114.941 303.531 118.148 303.206 121.347C302.153 121.354 301.102 121.361 300.037 121.317C298.714 121.264 298.744 123.253 300.037 123.357C301.021 123.436 302.011 123.482 303.002 123.533C302.872 125.148 302.77 126.756 302.738 128.336C302.689 130.555 305.842 130.423 306.098 128.336C306.285 126.796 306.413 125.22 306.515 123.633C308.747 123.656 310.98 123.61 313.198 123.41C313.314 125.617 313.428 127.824 313.507 130.03C313.588 132.325 317.279 132.225 317.015 130.03C316.732 127.698 316.495 125.359 316.252 123.023C316.627 122.967 317.008 122.942 317.384 122.879C318.823 122.638 318.502 120.118 317.031 120.301Z" fill="white"/>
<path d="M381.566 124.219C380.668 124.209 379.772 124.191 378.874 124.179C378.951 120.752 378.782 117.327 378.519 113.893C378.403 112.359 376.218 112.343 376.122 113.893C375.934 116.893 376.062 119.905 375.83 122.905C375.802 123.265 375.781 123.687 375.758 124.133C373.001 124.089 370.245 124.056 367.486 124.012C367.583 120.647 367.6 117.281 367.44 113.893C367.372 112.452 365.207 112.436 365.189 113.893C365.142 117.246 365.008 120.617 364.725 123.975C363.26 123.954 361.796 123.926 360.332 123.915C358.912 123.903 358.942 126.003 360.332 126.1C361.715 126.198 363.098 126.279 364.481 126.37C364.247 128.527 363.968 130.678 363.564 132.806C363.137 135.064 366.205 135.906 366.994 133.753C367.3 132.948 367.586 132.136 367.853 131.317C368.092 130.609 367.769 130.008 367.261 129.641C367.314 128.613 367.358 127.588 367.402 126.56C370.113 126.731 372.823 126.912 375.533 127.082C375.387 128.298 375.15 129.49 374.698 130.386C373.519 131.233 373.797 133.261 375.624 133.444C378.104 133.693 378.431 130.607 378.612 128.838C378.666 128.321 378.679 127.804 378.719 127.286C379.668 127.349 380.617 127.404 381.568 127.467C383.636 127.606 383.671 124.242 381.566 124.219Z" fill="white"/>
</svg>
