<svg width="218" height="177" viewBox="0 0 218 177" fill="none" xmlns="http://www.w3.org/2000/svg">
<path d="M216.324 143.787C215.25 143.854 214.179 143.9 213.105 143.965C208.892 140.982 204.533 138.713 199.662 136.934C197.583 136.174 196.686 139.483 198.748 140.238C201.855 141.373 204.616 142.711 207.294 144.286C193.768 145.065 180.247 145.679 166.725 146.179C166.759 146.028 166.775 145.868 166.75 145.694C164.634 130.905 162.573 116.214 162.949 101.23C163.313 86.7299 166.169 72.4686 165.055 57.9358C165.329 57.6836 165.446 57.2995 165.374 56.9479C173.292 44.7886 179.397 31.5419 183.153 17.5862C183.622 15.8416 181.042 15.167 180.461 16.8467C175.546 31.0909 168.92 44.3662 160.817 56.4377C133.122 57.9473 105.671 57.2612 77.9875 55.7325C78.6564 38.8015 79.2909 21.863 79.6992 4.90525C79.7721 4.83263 79.8487 4.76577 79.9216 4.69315C81.1522 10.0572 83.1937 15.4231 86.5003 19.7953C87.6676 21.3393 90.1308 20.0342 89.1647 18.2417C86.1686 12.6809 83.6403 7.40473 82.4173 1.16168C82.1988 0.047605 80.51 -0.424379 79.7701 0.464209C76.2757 4.66064 72.4285 8.56662 69.1794 12.9618C68.499 13.8829 69.9558 14.9243 70.736 14.1581C73.1436 11.7904 75.4188 9.29084 77.7632 6.86203C73.224 44.7656 71.727 83.3074 71.3129 121.715C66.1738 123.183 60.9216 124.421 55.5563 125.402C54.6266 125.572 54.8298 127.188 55.7825 127.064C60.9906 126.39 66.1661 125.4 71.2861 124.137C71.2094 132.029 71.1615 139.917 71.1577 147.788C47.7949 147.769 24.4206 147.509 1.02721 147.058C-0.351016 147.032 -0.333764 149.105 1.02721 149.181C24.3631 150.492 47.7527 151.19 71.1577 151.406C71.1615 159.403 71.1903 167.389 71.2305 175.352C71.242 177.547 74.6598 177.551 74.6541 175.352C74.6311 167.377 74.7 159.409 74.815 151.446C114.832 151.725 154.89 150.569 194.811 148.44C194.889 149.193 195.424 149.915 196.438 150.015C201.93 150.557 206.508 150.034 211.539 148.214C213.284 147.897 215.03 147.544 216.784 147.148C218.647 146.73 218.271 143.665 216.324 143.787ZM77.9299 57.2555C104.885 60.2289 132.317 60.2309 159.381 58.5301C139.159 87.6797 110.16 109.52 75.5607 120.429C76.2048 99.3651 77.0942 78.3141 77.9299 57.2555ZM74.8841 147.804C75.024 139.541 75.2387 131.284 75.4821 123.026C110.806 113.181 143.019 89.8524 163.737 59.3556C163.714 74.5094 160.625 89.4167 160.478 104.561C160.344 118.448 161.624 132.65 164.409 146.263C134.57 147.335 104.735 147.792 74.8841 147.804Z" fill="white"/>
</svg>
