<svg width="153" height="137" viewBox="0 0 153 137" fill="none" xmlns="http://www.w3.org/2000/svg">
<path d="M144.064 59.4839C130.576 41.4477 107.562 40.9375 88.7909 49.8213C71.6141 26.9661 40.5684 31.7486 19.7077 48.0734C-0.608629 63.971 -6.53361 93.5129 8.16287 115.155C22.2979 135.969 50.9804 141.503 70.7963 126.385C73.4573 132.639 88.8617 134.968 93.112 135.544C106.366 137.341 120.12 134.614 131.22 127.022C153.209 111.984 160.452 81.3943 144.064 59.4839ZM87.3091 55.3996C88.1122 56.6422 88.8764 57.9215 89.5917 59.2349C90.4461 60.8022 91.1663 62.328 91.823 63.8343C88.9154 61.7323 85.8028 59.9062 82.5779 58.3585C84.1037 57.3112 85.671 56.3078 87.3091 55.3996ZM63.1819 96.2129C68.9043 100.964 75.0685 105.607 81.2962 109.706C80.3368 110.724 79.3481 111.735 78.3203 112.74C73.8015 109.996 69.4145 107.345 65.3498 103.861C64.9103 103.485 64.3806 103.593 64.0388 103.891C62.4813 97.7655 62.3299 91.4549 63.6165 85.3639C71.0184 90.786 78.1689 96.479 85.4805 102.028C86.5254 102.821 87.8681 101.071 86.8843 100.209C79.9169 94.1036 71.9485 88.684 63.9875 83.8283C64.5075 81.7752 65.2106 79.7538 66.0626 77.7739C73.5525 83.9577 81.804 89.226 89.5184 95.1241C90.6658 96.0029 92.4186 94.2526 91.5373 93.1052C90.9856 92.385 90.4437 91.6916 89.8724 90.9886C89.4452 90.4612 88.8226 90.471 88.3124 90.7396C81.1644 85.8765 74.2433 80.6107 66.8365 76.1749C66.8194 76.1651 66.8023 76.1652 66.7877 76.1578C67.9131 73.824 69.2998 71.5658 70.9061 69.4004C70.9427 69.4663 70.972 69.5346 71.0331 69.5981C77.0215 76.0992 84.7848 82.7029 92.4919 87.0874C94.0592 87.9785 95.2408 85.7569 93.8688 84.7316C90.4241 82.1512 86.6963 79.9467 83.2468 77.3467C79.4604 74.4904 75.94 71.3485 72.2464 68.3848C72.1194 68.2847 71.9876 68.231 71.8558 68.1993C72.9983 66.7662 74.214 65.365 75.5836 64.0345C77.1997 62.4623 78.9648 60.9755 80.8397 59.5816C80.9178 59.6743 81.0155 59.7597 81.1497 59.8281C85.6075 62.096 89.5892 64.8694 93.4293 68.0235C98.683 83.8064 93.2658 96.3105 83.01 107.824C77.0459 103.219 70.5912 98.8495 64.156 94.9508C63.3967 94.4821 62.4642 95.6148 63.1819 96.2129ZM70.579 123.135C49.8428 136.074 22.8594 132.117 9.99871 109.94C-2.37612 88.5985 6.22694 61.7177 26.3968 48.7105C35.9666 42.5414 48.9639 37.61 60.4745 38.1422C70.8744 38.6232 78.8671 44.1746 84.8165 51.8842C81.865 53.5467 79.0478 55.4387 76.4356 57.5357C57.3253 72.8743 49.8477 105.251 70.4227 122.855C70.4838 122.906 70.5448 122.923 70.6058 122.964C70.5912 123.021 70.5936 123.074 70.579 123.135ZM71.2601 119.21C68.1597 114.942 65.9015 110.348 64.4856 105.617C68.1914 108.861 72.2293 112.032 76.5796 114.413C74.8756 116.021 73.0959 117.616 71.2601 119.21ZM136.388 116.92C128.2 125.352 117.405 130.508 105.653 131.541C102.379 131.829 73.0422 129.7 74.8512 123.985C75.0978 123.206 74.8927 122.579 74.4948 122.112C84.8043 113.626 95.7193 103.625 99.4886 90.4002C103.065 77.8569 98.2142 64.1418 91.2761 53.3905C106.563 46.3645 125.127 45.7713 137.331 58.2389C153.238 74.4929 151.895 100.949 136.388 116.92Z" fill="white"/>
<path d="M93.9225 73.9247C88.8666 70.1846 83.2444 66.4348 77.6807 63.5028C76.9068 63.0951 75.9791 64.1425 76.7018 64.7699C81.5355 68.9542 87.1333 72.8749 92.5457 76.2805C94.0641 77.235 95.3019 74.9427 93.9225 73.9247Z" fill="white"/>
<path d="M56.2439 1.34744C55.6189 -0.193002 53.7757 -0.50548 52.7895 0.895813C49.7208 5.25105 47.1281 9.84798 45.1165 14.7232C44.9774 14.7598 44.8309 14.7891 44.6942 14.8257C43.913 15.043 43.8544 16.1441 44.3988 16.5371C43.8398 18.0287 43.3051 19.5325 42.8681 21.0803C42.4043 22.7208 44.8138 23.3263 45.3826 21.7736C46.054 19.95 46.8132 18.18 47.6164 16.4345C50.6607 16.1464 53.6976 15.9267 56.7541 15.7534C57.6598 18.6122 58.6461 21.4196 59.8838 24.044C60.6382 25.6455 63.5067 24.9131 63.3065 23.1163C62.4935 15.8315 58.9879 8.1049 56.2439 1.34744ZM48.8468 13.8639C50.2774 11.0784 51.896 8.39785 53.7562 5.8516C54.4886 8.1879 55.1795 10.5755 55.8899 12.9533C53.5512 13.09 51.1733 13.4049 48.8468 13.8639Z" fill="white"/>
<path d="M129.26 15.8224C130.61 13.7205 131.518 11.4037 130.935 8.80372C130.239 5.70574 127.529 3.53788 124.309 3.97243C122.256 4.24829 120.767 5.17352 119.678 6.47472C119.632 6.2843 119.595 6.09386 119.549 5.90344C119.163 4.32882 116.868 5.01236 117.149 6.56502C117.378 7.83692 117.586 9.10887 117.784 10.3808C116.541 15.2633 117.725 21.6912 119.173 25.2384C120.11 27.5307 123.189 26.6616 122.852 24.2252C122.39 20.8904 121.885 17.5703 121.292 14.2672C121.367 12.905 121.575 10.6518 122.371 9.93891C126.487 9.60933 127.807 10.4882 126.33 12.5779C125.835 13.8376 125.095 14.9459 124.109 15.9029C122.976 17.2823 123.687 19.3402 125.569 19.4281C128.833 19.5819 136.115 21.9353 131.923 25.9488C129.546 28.2289 125.657 27.8212 122.461 28.456C120.237 28.8978 120.718 32.5842 122.998 32.4353C128.474 32.0764 137.336 31.991 137.472 24.6085C137.57 19.5258 133.605 16.8673 129.26 15.8224Z" fill="white"/>
</svg>
