<svg width="196" height="95" viewBox="0 0 196 95" fill="none" xmlns="http://www.w3.org/2000/svg">
<path d="M193.594 48.4763C193.531 48.4713 193.469 48.468 193.406 48.463C193.834 44.6012 193.659 40.7029 193.439 38.1734C193.274 36.2733 190.287 36.2567 190.453 38.1734C190.715 41.1708 191.103 45.0143 190.563 48.2748C185.917 47.9684 181.266 47.7735 176.612 47.6803C176.61 47.5687 176.6 47.4688 176.6 47.3539C175.884 42.4581 176.106 38.19 174.126 33.5357C173.831 32.8446 172.673 32.5648 172.082 32.9994C167.623 36.2817 164.086 40.1917 162.028 45.4139C161.823 45.9351 161.668 46.7911 161.496 47.6637C157.849 47.7203 154.201 47.8085 150.552 47.9234C149.913 43.2191 149.323 38.5064 148.709 33.7988C148.532 32.4499 147.235 31.9137 146.159 32.743C140.193 37.3558 134.881 42.6046 130.429 48.6978C126.001 48.8793 121.574 49.0542 117.149 49.2007C117.209 48.478 117.316 47.6986 117.509 46.8177C117.249 43.8552 117.655 40.976 116.556 38.1434C115.374 35.0943 112.989 32.4033 109.679 32.017C109.749 31.8871 109.792 31.7388 109.77 31.5523C109.657 30.5399 109.589 29.5208 109.501 28.5049C109.424 27.6174 108.195 27.6157 108.118 28.5049C108.032 29.5208 107.962 30.5399 107.849 31.5523C107.827 31.7472 107.877 31.9004 107.953 32.0336C106.443 32.3017 105.399 33.1577 103.847 33.8371C95.4874 37.4923 94.9196 31.6972 94.5066 24.4534C94.2102 19.2412 95.9554 -0.105737 85.1362 4.37545C73.228 9.30959 72.5036 31.8537 71.0415 42.1883L70.059 49.1358C66.1224 49.0209 62.1874 48.8843 58.2524 48.7244C58.3407 47.4938 58.4239 46.2599 58.5222 45.0359C59.3132 35.1393 62.2091 25.0695 62.5205 15.2179C62.8135 5.94745 56.0826 7.73427 52.3108 13.9157C45.9978 24.2619 42.1944 36.0086 39.2136 47.7985C34.2895 47.5188 29.367 47.214 24.4461 46.8793C24.6543 42.6846 24.9308 38.4931 25.3171 34.31C26.3312 23.296 28.506 12.4219 27.1089 1.34969C26.9623 0.184015 25.2838 -0.646932 24.6243 0.676943C17.4937 14.9831 13.0775 30.1852 11.8718 45.9668C8.24493 45.6887 4.61636 45.4006 0.991104 45.0992C-0.352753 44.9876 -0.307791 47.0192 0.991104 47.1724C4.5614 47.5904 8.13502 47.9717 11.7103 48.3364C11.5688 50.8559 11.5055 53.3871 11.5321 55.9349C11.5421 56.9857 13.1158 56.979 13.1591 55.9349C13.264 53.4554 13.4355 50.9892 13.6637 48.5396C16.2764 48.7994 18.8909 49.0308 21.5053 49.264C21.3355 53.134 21.2139 57.0074 21.1956 60.8824C21.1523 70.028 20.7859 79.9895 22.4012 89.0185C22.9175 91.901 23.89 95.5379 27.6801 94.9335C31.5668 94.314 32.6891 89.0351 33.5301 86.0344C36.0263 77.1386 37.6033 67.9514 39.6366 58.9441C40.2511 56.2214 40.8988 53.5037 41.5699 50.7927C45.9146 51.0674 50.2609 51.3089 54.6088 51.5154C54.0343 59.8433 54.0427 68.1546 55.15 76.1028C55.8295 80.977 61.7228 96.4189 67.2947 85.9494C69.3297 82.126 69.1398 76.8022 69.7277 72.6457C70.3488 68.2528 70.9699 63.8582 71.5911 59.4653C71.9324 57.049 72.2538 54.6244 72.5719 52.1998C80.9631 52.4263 89.3576 52.5395 97.7538 52.5412C103.504 52.5412 109.259 52.4229 115.019 52.2481C115.432 54.0982 116.153 55.7834 117.595 57.2538C120.939 60.6643 124.854 60.5743 128.173 57.407C129.838 55.8184 131.16 53.7169 132.464 51.597C137.575 51.3872 142.686 51.179 147.795 51.0025C147.974 51.975 148.171 52.9408 148.401 53.89C149.05 56.5677 150.211 59.6302 153.105 60.5827C156.381 61.6601 159.516 59.5785 161.298 56.9824C162.495 55.2372 162.812 53.2023 163.445 51.2356C163.511 51.0308 163.566 50.8226 163.629 50.6161C167.275 50.5745 170.92 50.5812 174.56 50.6328C174.868 52.6511 175.36 54.6028 176.484 56.1981C178.269 58.7343 180.945 61.0023 184.229 60.9324C189.453 60.8208 191.877 56.4861 192.933 51.4221C193.153 51.4388 193.373 51.4488 193.591 51.4654C195.509 51.612 195.501 48.6245 193.594 48.4763ZM21.6236 46.6761C19.0541 46.4963 16.4846 46.3164 13.9168 46.1216C15.4438 32.3683 18.9825 19.1079 24.7909 6.47033C25.0173 14.2321 23.8583 21.8539 22.9991 29.6373C22.3729 35.3042 21.9233 40.986 21.6236 46.6761ZM36.7607 58.1447C34.8723 66.5059 34.3111 77.465 30.6542 85.235C29.9465 86.7404 29.8832 92.9868 25.5569 90.2891C24.4428 89.5947 24.7059 80.8521 24.631 79.6514C24.3096 74.4442 24.1248 69.227 24.0798 64.0097C24.0382 59.1788 24.1198 54.3463 24.3146 49.5204C29.0472 49.9251 33.7832 50.2814 38.5225 50.5995C37.9097 53.1224 37.3269 55.6418 36.7607 58.1447ZM54.8336 48.5795C50.6489 48.3964 46.4641 48.1916 42.281 47.9651C43.4134 43.5938 44.654 39.2508 46.1144 34.9778C47.8363 29.9387 49.8379 24.9729 52.2625 20.2286C52.8703 19.0413 53.9977 16.1355 54.8919 15.4261C62.2623 9.57937 58.752 19.6008 58.3573 22.0454C56.9835 30.5665 55.598 39.5589 54.8336 48.5795ZM67.0832 70.1978C66.6603 73.1886 67.0799 80.9337 65.0766 83.4599C62.0725 87.2467 59.8361 82.8288 59.0634 80.4208C58.0326 77.2052 57.8777 73.7698 57.7245 70.4226C57.4398 64.2079 57.6496 57.9149 58.0476 51.6702C61.9126 51.8384 65.7777 51.98 69.6444 52.0965C68.7901 58.1297 67.9358 64.1646 67.0832 70.1978ZM97.7555 49.567C89.4892 49.5687 81.2262 49.4488 72.9682 49.2306C73.8791 42.2782 74.805 35.3208 76.1039 28.45C76.9199 24.137 77.9823 19.9356 79.8041 15.9256C80.9581 13.3828 85.2944 3.50285 90.525 9.85412C91.4359 10.9598 91.266 15.5809 91.3759 17.5892C91.6923 23.4009 90.3435 33.1127 95.0761 37.7188C99.3158 41.8453 101.276 37.2975 105.359 36.4149C111.342 35.1227 113.942 38.4748 114.516 43.8269C114.709 45.627 114.521 47.4655 114.621 49.2823C108.993 49.4505 103.371 49.5653 97.7555 49.567ZM127.067 53.7018L122.889 53.7502C119.888 54.6244 118.067 54.0849 117.394 52.1648C121.106 52.0433 124.817 51.9017 128.533 51.7518C127.971 52.6777 127.417 53.512 127.067 53.7018ZM134.406 48.5379C134.912 47.7869 135.432 47.0575 135.991 46.3931C139.032 42.7911 142.429 39.6072 146.056 36.6413C146.464 40.4065 146.775 44.2615 147.315 48.035C143.014 48.1865 138.711 48.3597 134.406 48.5379ZM151.283 53.0924C151.178 52.3596 151.074 51.6253 150.969 50.8909C153.891 50.801 156.812 50.7294 159.731 50.6761C156.915 51.4821 154.099 52.2864 151.283 53.0924ZM164.507 47.627C164.853 46.488 165.246 45.3639 165.808 44.2848C167.321 41.3723 168.387 37.0976 171.644 40.2316C173.449 41.9685 173.851 44.7295 174.187 47.6436C170.96 47.6003 167.734 47.5954 164.507 47.627ZM189.426 52.6794C182.219 56.4329 178.061 55.7518 176.93 50.6727C181.226 50.7627 185.519 50.9392 189.807 51.2106C189.679 51.7002 189.552 52.1898 189.426 52.6794Z" fill="white"/>
<path d="M84.5001 12.658C84.4535 11.7854 83.1879 11.7837 83.1413 12.658C83.033 14.6846 82.9281 16.7245 83.0131 18.7528C83.0564 19.7919 84.5867 19.7936 84.6283 18.7528C84.7133 16.7229 84.6083 14.6846 84.5001 12.658Z" fill="white"/>
<path d="M84.4651 23.4509C84.227 22.7598 83.2211 23.0346 83.3694 23.7523C83.8173 25.9072 83.809 28.1386 83.6658 30.3284C83.6142 31.1294 84.9247 31.3192 85.0796 30.5199C85.5542 28.0786 85.2677 25.7906 84.4651 23.4509Z" fill="white"/>
<path d="M84.4601 35.2111C84.4385 34.3901 83.2062 34.3884 83.1845 35.2111C83.1412 36.828 83.008 38.4716 83.0963 40.0869C83.1479 41.0211 84.4967 41.0228 84.5484 40.0869C84.635 38.4716 84.5034 36.828 84.4601 35.2111Z" fill="white"/>
<path d="M84.7299 43.7438C84.6833 43.3608 84.1787 43.3608 84.1321 43.7438C83.9589 45.1676 83.7741 46.588 83.5942 48.0101C83.4577 49.0859 85.4043 49.0876 85.2678 48.0101C85.088 46.588 84.9031 45.1676 84.7299 43.7438Z" fill="white"/>
<path d="M84.9497 55.7502C84.5684 57.4121 84.2237 59.104 84.0138 60.7975C83.8856 61.8217 85.6807 62.0748 85.8306 61.044C86.0754 59.3554 86.1903 57.6319 86.2619 55.9283C86.2919 55.1806 85.1196 55.0141 84.9497 55.7502Z" fill="white"/>
<path d="M86.2537 67.5164C86.1954 66.7421 85.1063 66.7404 85.048 67.5164C84.9265 69.1284 84.72 70.777 84.8315 72.3923C84.9031 73.4464 86.3985 73.448 86.4701 72.3923C86.58 70.7753 86.3752 69.1284 86.2537 67.5164Z" fill="white"/>
<path d="M86.9097 76.8438C87.1162 76.1111 86.0238 75.8263 85.7807 76.5324C84.8465 79.2318 84.282 82.7055 85.3227 85.4515C85.7107 86.4739 87.0912 86.0676 86.9364 85.0069C86.515 82.101 86.0904 79.758 86.9097 76.8438Z" fill="white"/>
<path d="M108.355 4.52839C108.12 3.65913 106.898 4.04215 107.034 4.89309C107.481 7.69571 107.464 10.4384 107.301 13.261C107.246 14.2068 108.836 14.4483 108.979 13.4891C109.427 10.4833 109.146 7.4559 108.355 4.52839Z" fill="white"/>
<path d="M108.245 17.9668C108.025 17.1858 106.914 17.5222 107.048 18.2965C107.334 19.9501 107.409 21.657 107.955 23.254C108.238 24.0816 109.704 24.02 109.589 23.0325C109.382 21.2807 108.72 19.657 108.245 17.9668Z" fill="white"/>
<path d="M109.597 45.1507C109.464 44.3563 109.467 43.5287 109.575 42.7327C109.699 41.8318 108.395 41.4005 108.165 42.343C107.747 44.0549 107.542 46.3363 108.523 47.8966C109.076 48.7776 110.223 48.1598 110.097 47.2339C109.998 46.5212 109.717 45.8584 109.597 45.1507Z" fill="white"/>
<path d="M110.688 56.5439C110.595 55.703 109.471 55.7013 109.376 56.5439C109.219 57.9427 109.116 59.4065 109.217 60.8103C109.292 61.8561 110.769 61.8578 110.844 60.8103C110.946 59.4065 110.843 57.9427 110.688 56.5439Z" fill="white"/>
<path d="M112.113 72.156C111.655 70.171 111.317 68.3442 111.207 66.301C111.174 65.6998 110.331 65.5633 110.15 66.1578C109.537 68.1627 109.545 70.6806 110.308 72.6539C110.734 73.7613 112.39 73.3549 112.113 72.156Z" fill="white"/>
<path d="M112.678 83.1481C112.183 81.3497 112.018 79.746 112.075 77.8876C112.102 76.9984 110.808 76.8635 110.556 77.6828C109.98 79.5628 110.077 81.8392 110.791 83.6694C111.239 84.8134 113.019 84.3904 112.678 83.1481Z" fill="white"/>
<path d="M111.7 86.5705C111.003 88.0509 110.671 89.6479 110.808 91.2848C110.936 92.8219 113.191 92.5471 112.913 91.0001C112.681 89.7112 112.861 88.4706 113.337 87.2616C113.707 86.3241 112.132 85.6546 111.7 86.5705Z" fill="white"/>
</svg>
