<svg width="400" height="162" viewBox="0 0 400 162" fill="none" xmlns="http://www.w3.org/2000/svg">
<path d="M45.3391 78.1185C47.7557 75.5094 44.0402 71.7863 41.4348 74.2142C35.6992 79.5571 30.0655 84.9114 24.3752 90.1977C24.2431 90.0202 24.111 89.8427 23.9788 89.6652C19.0475 83.046 14.1576 76.3967 9.0903 69.8832C7.71964 68.1237 4.7178 70.4308 5.98273 72.281C10.8574 79.391 15.9323 86.3613 20.9656 93.3618C14.4182 99.3618 7.74612 105.23 0.666282 110.776C-1.22167 112.256 1.30443 115.583 3.25658 114.133C10.2269 108.945 17.2803 103.568 24.0996 97.9194C28.0001 103.976 31.8628 111.233 36.7753 115.832C40.5021 119.325 47.6046 116.621 44.0855 111.414C43.0169 109.836 41.3329 109.715 40.1057 110.41C39.7772 109.719 39.1465 109.073 38.1875 108.469C36.1975 105.913 34.219 103.349 32.248 100.778C30.7451 98.7954 29.2726 96.7941 27.7924 94.7967C33.9698 89.5066 39.9131 83.9863 45.3391 78.1185Z" fill="white"/>
<path d="M78.1668 97.3301C70.9246 100.022 64.1129 101.823 56.3081 101.733C53.4988 101.699 53.5101 105.992 56.3081 106.086C64.3432 106.355 72.6917 105.158 80.017 101.722C82.4562 100.577 80.7269 96.3785 78.1668 97.3301Z" fill="white"/>
<path d="M81.8219 86.7391C73.3902 85.4553 64.8039 85.1608 56.293 85.6328C53.6649 85.7763 53.6309 89.8391 56.293 89.7485C64.498 89.4653 72.4085 90.1526 80.489 91.5799C83.6683 92.1387 84.9823 87.2187 81.8219 86.7391Z" fill="white"/>
<path d="M126.483 106.982C117.651 111.287 106.222 109.331 103.046 98.8604C100.12 89.2168 108.537 80.5094 118.259 82.4729C120.604 82.9449 121.518 79.6713 119.249 78.8896C106.679 74.5587 94.864 86.2866 97.1371 98.849C99.8482 113.817 117.172 119.586 129.644 112.393C133.178 110.354 130.074 105.234 126.483 106.982Z" fill="white"/>
<path d="M163.185 101.268C162.438 100.993 161.66 100.774 160.893 100.532C162.109 97.447 163.095 94.2753 163.774 91.1073C164.367 88.3357 160.251 87.1538 159.5 89.9291C158.605 93.2293 157.393 96.2311 155.958 99.1084C152.447 98.2022 148.897 97.3753 145.488 96.2463C142.901 95.3891 141.931 99.3123 144.381 100.264C147.262 101.385 150.306 102.65 153.391 103.726C152.322 105.463 151.185 107.189 149.939 108.911C147.81 111.852 152.616 114.51 154.754 111.724C156.283 109.73 157.563 107.533 158.734 105.271C159.795 105.52 160.859 105.784 161.909 105.928C164.937 106.339 166.168 102.371 163.185 101.268Z" fill="white"/>
<path d="M200.276 76.4608C195.964 77.1669 192.551 78.7377 189.874 80.9391C189.821 80.6899 189.779 80.4369 189.726 80.1876C189.13 77.4048 184.938 78.5942 185.478 81.3582C185.72 82.5967 185.931 83.8427 186.154 85.0812C176.737 99.0861 183.696 125.733 189.881 138.344C191.271 141.18 195.772 139.756 195.715 136.766C195.541 127.5 195.065 118.343 194.174 109.232C203.187 106.834 215.98 98.8142 216.852 88.3738C217.596 79.4325 207.877 75.2148 200.276 76.4608ZM188.356 99.8035C189.141 106.457 189.628 113.136 189.783 119.835C188.091 113.204 187.366 106.34 188.356 99.8035ZM202.5 97.942C199.566 100.26 196.874 101.571 193.483 102.96C192.966 98.6519 192.335 94.3511 191.599 90.0541C192.23 89.0082 192.913 88.0113 193.732 87.1844C195.337 85.5532 201.605 81.5432 203.886 82.8043C205.377 85.8741 206.865 88.9402 208.357 92.0063C206.763 94.37 204.815 96.3485 202.5 97.942Z" fill="white"/>
<path d="M331.07 94.1281C329.775 94.162 328.48 94.1922 327.185 94.2224C327.12 94.2224 327.079 94.2564 327.018 94.2602C297.597 95.3024 268.156 95.831 238.738 96.892C235.981 96.9902 235.958 101.197 238.738 101.193C269.515 101.159 300.293 100.528 331.074 100.524C335.19 100.528 335.193 94.0299 331.07 94.1281Z" fill="white"/>
<path d="M294.791 31.7582C288.462 41.7266 291.608 53.9758 287.322 64.5294C285.449 69.1436 284.728 67.8522 281.828 64.5634C279.306 61.7051 277.335 57.9707 275.236 54.7838C270.912 48.2213 266.706 41.5832 262.597 34.8885C261.212 32.6305 257.776 34.6355 259.044 36.9652C264.202 46.4578 269.621 55.7844 275.36 64.9372C277.78 68.7924 280.873 77.2202 286.831 75.1963C291.963 73.4518 294.255 64.9296 295.146 60.3721C296.834 51.7064 296.449 43.1389 300.27 34.9603C301.98 31.3014 297.015 28.2579 294.791 31.7582Z" fill="white"/>
<path d="M343.232 22.054C336.696 23.8627 330.67 24.2327 324.364 23.0131C328.208 18.448 331.523 13.0748 329.239 7.05224C327.173 1.61492 321.445 -1.71166 316.023 0.916377C313.637 2.07181 315.721 5.51543 318.088 4.44685C321.302 2.9969 324.353 6.30459 324.923 8.97038C325.372 11.0698 324.507 13.3505 323.514 15.1215C321.864 18.0553 319.206 20.4757 316.65 22.6091C314.739 24.2025 316.068 26.9362 317.983 27.6612C326.527 30.9047 336.273 31.2483 344.95 28.2805C348.839 26.9438 347.276 20.9326 343.232 22.054Z" fill="white"/>
<path d="M322.019 148.899C315.407 152.252 304.129 151.908 296.879 152.814C291.193 153.524 285.51 154.249 279.827 154.978C283.663 145.712 288.413 135.962 290.29 126.443C291.132 122.161 291.525 117.713 287.911 114.542C277.116 105.06 263.13 124.484 258.871 132.153C257.515 134.588 261.178 136.733 262.609 134.335C265.139 130.091 267.974 125.82 271.837 122.656C281.13 115.04 286.129 121.18 282.772 130.057C279.238 139.395 275.462 148.653 271.818 157.95C271.112 159.751 272.951 162.213 274.892 161.986C285.483 160.766 296.067 159.483 306.651 158.21C312.787 157.47 319.871 157.776 325.3 154.517C328.918 152.346 325.738 147.015 322.019 148.899Z" fill="white"/>
<path d="M388.109 95.9224C383.691 94.144 378.76 94.178 374.108 93.6834C369.154 93.1585 360.107 93.8382 364.736 84.7005C367.523 79.199 378.843 77.1675 383.865 76.7785C386.712 76.5595 386.776 72.1644 383.865 72.2928C375.648 72.6477 345.705 82.5142 357.452 95.1144C363.917 102.047 375.754 97.8029 383.321 101.246C399.826 108.764 390.828 124.51 379.303 130.872C370.207 135.894 359.786 136.412 349.825 134.248C345.634 133.338 343.836 139.731 348.046 140.701C366.48 144.938 396.812 138.213 399.459 115.282C400.445 106.703 396.084 99.132 388.109 95.9224Z" fill="white"/>
</svg>
