<svg width="181" height="101" viewBox="0 0 181 101" fill="none" xmlns="http://www.w3.org/2000/svg">
<path d="M178.406 0.406396C122.34 2.00654 65.8594 8.91024 9.94784 13.4579C8.39067 13.5843 7.55395 14.7749 7.79662 16.2815C10.9817 36.0646 12.6021 55.8378 13.3605 75.813C9.5889 71.7912 5.87291 67.7213 2.16452 63.6362C1.03203 62.3874 -0.737481 64.2101 0.329283 65.4715C4.96288 70.9469 9.61164 76.3969 14.0835 82.0063C15.1325 83.3233 17.2357 82.1732 17.2509 80.6944C17.4734 59.5992 15.6204 38.5799 12.4858 17.7376C67.6163 13.607 123.601 11.5089 178.403 4.44346C180.893 4.11989 181.078 0.33056 178.406 0.406396Z" fill="white"/>
<path d="M68.3773 44.824C65.1416 43.0115 61.8326 41.2977 58.5084 39.6192C59.6409 37.5741 60.4701 35.3546 60.9074 33.0643C61.1526 31.7751 59.3048 31.2291 58.9205 32.5158C58.281 34.6569 57.338 36.6312 56.1221 38.4285C55.116 37.9305 54.1124 37.4123 53.1038 36.9219C49.9414 35.3874 46.5693 33.8429 42.957 34.2524C38.1262 34.801 33.3459 39.5003 35.5957 44.5637C37.7116 49.3237 44.2361 49.8393 48.5588 48.3276C51.7742 47.2027 54.4538 45.1527 56.5241 42.5894C59.9039 44.3159 63.2735 46.0728 66.719 47.6628C68.6048 48.5324 70.258 45.8756 68.3773 44.824ZM45.3028 45.6658C41.8067 45.9945 41.4731 45.6785 41.2329 41.874C39.9033 38.6939 40.8234 37.5134 43.9984 38.3299C46.2811 37.7864 48.4147 38.1757 50.399 39.5004C51.5593 40.0135 52.6893 40.6025 53.8167 41.194C53.5184 41.4898 53.258 41.8083 52.9345 42.0863C50.892 43.8483 48.043 45.408 45.3028 45.6658Z" fill="white"/>
<path d="M84.5001 47.8292C73.4103 44.1385 77.7279 31.6154 80.7639 23.7107C81.2543 22.4341 79.1764 21.5696 78.5545 22.7804C74.2723 31.1275 70.076 48.3322 83.6583 50.8803C85.6502 51.2519 86.4516 48.4763 84.5001 47.8292Z" fill="white"/>
<path d="M98.2542 43.9086C95.6176 46.4516 92.6473 44.7504 90.2004 42.8874C93.9391 39.5632 97.9836 35.1318 95.2283 29.894C93.3248 26.2766 87.6371 25.6497 85.7791 29.6412C85.2811 30.713 86.8105 31.656 87.3919 30.5842C88.6154 28.3268 91.7297 28.5239 93.0442 30.6473C93.8152 31.8936 93.6534 33.8072 93.1959 35.104C92.1822 37.9782 89.3636 40.0308 86.8888 41.5602C86.0319 42.0885 85.7993 43.3499 86.5652 44.0779C90.3596 47.6827 96.8209 51.2192 100.769 45.8449C101.869 44.3459 99.5207 42.6876 98.2542 43.9086Z" fill="white"/>
<path d="M105.203 19.3151C104.048 18.529 103.057 20.3516 104.127 21.158C112.476 27.4524 114.061 40.2637 106.955 48.1001C105.375 49.8418 108.078 52.4354 109.506 50.6507C117.246 40.9866 115.628 26.3932 105.203 19.3151Z" fill="white"/>
<path d="M135.859 21.062C135.487 19.7728 133.24 19.9522 133.415 21.3931C133.657 23.3952 133.915 25.3973 134.16 27.3994C133.415 27.2553 132.525 27.6041 132.191 28.456C131.488 30.2356 129.85 31.9773 127.729 31.3858C125.654 30.8069 124.782 28.13 125.697 26.3048C126.521 24.6592 124.117 23.2183 123.212 24.8513C121.309 28.2866 122.792 33.1149 126.645 34.4496C129.595 35.4709 133.195 33.9719 134.643 31.2721C135.08 34.8111 135.508 38.3501 135.963 41.8816C136.236 44.0151 139.542 44.1516 139.411 41.8816C139.009 34.9729 137.775 27.7027 135.859 21.062Z" fill="white"/>
<path d="M164.586 57.5643C117.388 60.6408 70.0558 63.7778 22.9816 68.3659C21.8542 68.4746 21.8087 70.2062 22.9816 70.1607C70.1923 68.3356 117.461 65.0316 164.586 61.6872C167.215 61.5027 167.243 57.3924 164.586 57.5643Z" fill="white"/>
<path d="M59.5144 97.0625C55.9274 96.3522 52.262 95.9679 48.6092 95.5761C51.4606 91.7792 53.7282 86.4429 50.8893 82.603C47.368 77.8405 38.3561 80.8537 34.2533 83.1339C33.275 83.6774 33.9374 85.3938 35.0345 84.9868C37.848 83.9352 42.4816 81.8851 45.4519 83.0454C51.7615 85.5101 47.4085 92.7777 43.7633 95.4042C42.1429 96.5721 42.8204 98.7435 44.734 98.9862C49.4763 99.5878 54.2565 100.422 59.0291 100.657C61.0641 100.761 61.5544 97.4695 59.5144 97.0625Z" fill="white"/>
<path d="M74.2747 84.0744C71.3752 83.086 68.0941 82.6739 64.9393 82.4135C65.9529 79.3876 66.317 75.8638 64.5904 73.1767C63.0712 70.8131 59.6131 70.1078 58.0685 72.8076C57.4745 73.844 58.9912 75.1357 59.7849 74.1322C60.6242 74.2586 61.4634 74.385 62.3052 74.5113C62.4342 74.9082 62.563 75.3051 62.692 75.702C62.8967 76.6601 62.8487 77.6813 62.7248 78.6419C62.5125 80.3154 61.9261 81.693 60.968 83.0859C60.1414 84.2841 61.2839 85.5607 62.4645 85.6947C66.2613 86.1295 70.043 86.9764 73.8399 87.2873C75.7636 87.444 75.933 84.6406 74.2747 84.0744Z" fill="white"/>
<path d="M104.42 88.9204C100.613 88.8294 96.8284 88.6524 93.0492 88.4148C92.8318 85.6796 92.3415 82.9369 91.7929 80.3964C91.4416 78.7684 88.992 79.4636 89.308 81.0814C89.7833 83.5132 89.9248 85.8389 89.9678 88.1696C87.7028 88.0028 85.4379 87.8561 83.1653 87.6337C81.7345 87.4947 81.3857 89.9492 82.824 90.1641C85.2002 90.5205 87.5916 90.8137 89.988 91.0741C89.9855 92.2369 89.9804 93.4124 90.0006 94.6157C90.0259 96.2082 92.6347 96.7088 92.8976 95.0075C93.0796 93.8371 93.163 92.6288 93.1731 91.4053C96.9195 91.7466 100.676 91.9716 104.42 92.0626C106.445 92.1131 106.445 88.9684 104.42 88.9204Z" fill="white"/>
<path d="M124.178 93.0258C124.102 92.955 124.026 92.8867 123.953 92.8159C123.662 92.5454 123.356 92.4342 123.055 92.3837C122.082 90.0656 121.877 85.7455 121.523 83.8394C120.848 80.1892 120.237 76.5213 119.382 72.9064C119.135 71.8675 117.373 72.0596 117.479 73.1642C117.896 77.5021 118.639 81.7995 119.248 86.1121C119.607 88.6576 119.036 94.1102 121.248 95.9328C121.688 96.2943 122.342 96.623 122.931 96.3778C123.867 95.9885 124.276 95.6472 124.61 94.6613C124.794 94.1178 124.595 93.4125 124.178 93.0258Z" fill="white"/>
<path d="M149.376 76.0135C152.068 74.8507 155.013 74.4335 158.076 74.6307C159.376 74.7141 159.707 72.5149 158.387 72.3278C152.915 71.5467 147.904 72.6969 143.147 75.4978C142.563 75.8416 142.272 76.5469 142.28 77.2319C141.865 74.8835 141.456 72.5326 141.021 70.1943C140.763 68.8141 138.384 69.1099 138.541 70.5305C138.814 72.9977 139.115 75.47 139.413 77.9397C138.66 77.9549 137.866 78.3517 137.56 79.1329C136.835 80.9807 134.282 81.0844 132.836 79.9798C130.53 78.2204 130.305 74.6611 129.853 72.0523C129.605 70.624 127.292 70.9653 127.34 72.3936C127.474 76.5393 128.371 82.002 132.785 83.6856C135.24 84.6209 138.311 84.128 139.934 82.2396C140.359 85.6194 140.803 88.9941 141.271 92.3587C141.58 94.5782 145.015 93.6555 144.664 91.4234C143.961 86.9364 143.2 82.4494 142.411 77.965C142.603 78.4453 142.988 78.827 143.594 78.918C147.558 79.502 152.285 79.9064 155.169 83.041C158.203 86.3374 156.663 91.8203 151.704 90.1696C149.858 89.5553 148.205 92.2374 149.75 93.5266C154.636 97.6015 161.459 92.3082 161.105 86.6331C160.698 80.1263 155.083 77.2648 149.376 76.0135Z" fill="white"/>
</svg>
