<svg width="442" height="322" viewBox="0 0 442 322" fill="none" xmlns="http://www.w3.org/2000/svg">
<g opacity="0.35">
<path d="M424.54 233.219C417.137 206.662 440.671 205.637 441.188 171.417C441.4 157.421 433.732 143.167 415.284 136.629C406.218 133.416 397.18 131.207 389.113 126.098C370.73 114.454 371.062 92.3004 366.047 73.4144C355.033 31.9324 268.753 -1.04659 225.847 0.0254122C194.917 0.797412 180.648 15.7054 152.449 41.9594C133.155 59.9234 99.1596 58.2944 109.066 104.707C117.889 146.047 97.0736 142.977 78.0126 158.239C58.9916 173.469 45.0625 191.636 52.6325 212.255C60.9805 234.992 9.88155 248.041 0.768549 277.514C-5.41245 297.505 27.0566 299.194 49.1536 299.194C71.2506 299.194 260.312 297.494 340.279 299.859C361.802 300.496 430.473 306.358 440.187 279.527C446.799 261.265 429.71 251.765 424.54 233.219Z" fill="#C3ECFE"/>
</g>
<path d="M358.722 146.708C358.526 146.698 358.364 146.543 358.35 146.342L358.21 144.353C358.194 144.136 358.358 143.947 358.576 143.932C358.791 143.911 358.981 144.08 358.997 144.298L359.137 146.287C359.153 146.504 358.989 146.693 358.771 146.708C358.755 146.708 358.739 146.708 358.722 146.708Z" fill="#599FD2"/>
<path d="M367.657 237.1L362.4 237.47L356.551 152.712L359.179 152.527L361.808 152.343L367.657 237.1Z" fill="#C3ECFE"/>
<path d="M359.219 145.489L358.157 145.564L356.551 152.712L361.808 152.343L359.219 145.489Z" fill="#C3ECFE"/>
<path d="M102.002 166.583C111.35 217.668 146.966 263.216 194.29 284.607" stroke="#C3ECFE" stroke-width="1.393" stroke-miterlimit="10"/>
<path d="M104.369 177.274C99.9636 171.501 97.7366 164.107 98.2216 156.862C98.3406 155.086 98.7306 153.122 100.18 152.088C100.578 151.804 101.064 151.605 101.55 151.665C102.332 151.763 102.876 152.479 103.255 153.169C105.265 156.829 105.243 161.25 104.782 165.4C104.321 169.55 104.527 172.72 104.369 177.274Z" fill="#C3ECFE"/>
<path d="M108.942 191.317C107.188 184.271 108.076 176.599 111.394 170.141C112.207 168.558 113.345 166.91 115.085 166.535C115.563 166.432 116.088 166.442 116.51 166.69C117.189 167.09 117.404 167.962 117.479 168.747C117.873 172.904 116.099 176.953 114.03 180.581C111.961 184.208 110.893 187.199 108.942 191.317Z" fill="#C3ECFE"/>
<path d="M116.352 209.001C113.75 202.222 113.694 194.5 116.197 187.684C116.81 186.014 117.738 184.239 119.419 183.654C119.881 183.493 120.404 183.439 120.852 183.634C121.575 183.948 121.895 184.787 122.065 185.557C122.964 189.635 121.698 193.871 120.089 197.724C118.479 201.576 117.785 204.676 116.352 209.001Z" fill="#C3ECFE"/>
<path d="M125.817 225.175C123.215 218.396 123.158 210.674 125.662 203.858C126.275 202.188 127.203 200.413 128.884 199.828C129.346 199.667 129.869 199.613 130.317 199.808C131.04 200.122 131.36 200.962 131.53 201.731C132.429 205.809 131.163 210.045 129.554 213.898C127.944 217.751 127.25 220.85 125.817 225.175Z" fill="#C3ECFE"/>
<path d="M141.041 244.824C137.751 238.351 136.895 230.676 138.679 223.638C139.116 221.913 139.855 220.052 141.466 219.296C141.909 219.088 142.423 218.98 142.89 219.127C143.641 219.364 144.047 220.166 144.295 220.914C145.612 224.877 144.791 229.221 143.59 233.22C142.388 237.219 142.019 240.374 141.041 244.824Z" fill="#C3ECFE"/>
<path d="M153.477 257.996C150.124 252.136 148.788 244.727 149.79 237.544C150.035 235.784 150.532 233.844 151.869 232.858C152.237 232.587 152.674 232.403 153.09 232.477C153.76 232.596 154.173 233.323 154.446 234.02C155.894 237.713 155.519 242.104 154.787 246.213C154.056 250.323 153.98 253.477 153.477 257.996Z" fill="#C3ECFE"/>
<path d="M111.404 197.604C103.954 197.145 96.5486 193.888 90.9626 188.612C89.5936 187.319 88.2416 185.686 88.3076 183.854C88.3256 183.351 88.4676 182.836 88.8216 182.497C89.3906 181.952 90.3126 182.011 91.1116 182.181C95.3456 183.083 98.9246 186.09 102.011 189.255C105.096 192.421 107.801 194.402 111.404 197.604Z" fill="#C3ECFE"/>
<path d="M117.57 211.112C110.226 212.445 102.257 211.05 95.5725 207.26C93.9345 206.331 92.2315 205.068 91.8585 203.274C91.7565 202.781 91.7715 202.247 92.0335 201.834C92.4555 201.169 93.3655 201.006 94.1815 200.98C98.5085 200.846 102.702 202.91 106.454 205.248C110.207 207.584 113.307 208.862 117.57 211.112Z" fill="#C3ECFE"/>
<path d="M127.643 227.526C120.714 230.302 112.627 230.529 105.32 228.152C103.529 227.57 101.608 226.673 100.884 224.989C100.685 224.526 100.593 224 100.767 223.543C101.047 222.807 101.906 222.465 102.701 222.277C106.913 221.28 111.435 222.464 115.579 224.003C119.723 225.543 123.016 226.175 127.643 227.526Z" fill="#C3ECFE"/>
<path d="M142.482 247.213C135.11 248.383 127.174 246.81 120.576 242.873C118.959 241.908 117.284 240.607 116.952 238.805C116.861 238.31 116.888 237.776 117.159 237.369C117.596 236.713 118.509 236.57 119.326 236.563C123.655 236.525 127.801 238.681 131.5 241.102C135.199 243.522 138.27 244.869 142.482 247.213Z" fill="#C3ECFE"/>
<path d="M155.315 259.485C149.259 263.848 141.465 266.017 133.801 265.471C131.923 265.337 129.842 264.929 128.733 263.47C128.428 263.069 128.213 262.58 128.271 262.095C128.366 261.313 129.117 260.774 129.843 260.4C133.691 258.417 138.365 258.477 142.758 258.973C147.15 259.468 150.499 259.288 155.315 259.485Z" fill="#C3ECFE"/>
<path d="M173.839 259.868C166.325 252.841 155.71 249.256 145.473 250.29C138.54 250.99 130.98 254.695 129.454 261.494C128.727 264.732 128.982 269.028 125.917 270.3C122.917 271.545 120.02 268.455 116.94 267.422C111.814 265.702 105.964 271.563 107.693 276.686C108.479 279.015 110.451 281.045 110.287 283.498C110.064 286.839 105.935 288.58 102.627 288.061C99.3186 287.542 96.3986 285.611 93.1536 284.785C89.9086 283.959 85.7066 284.787 84.5676 287.935C83.5466 290.757 85.3086 294.548 83.0926 296.572C82.1436 297.439 80.7696 297.618 79.4896 297.739C51.3956 300.406 20.4546 305.446 23.5986 310.437C24.4586 311.801 26.6546 311.367 28.2666 311.342C88.0636 310.406 142.382 309.514 202.159 311.348" fill="#C3ECFE"/>
<path d="M341.98 165.938L359.707 235.45L356.335 236.31L334.402 167.871" fill="#88D2FF"/>
<path d="M325.576 167.524C316.524 169.832 306.89 162.812 304.1 151.874C301.311 140.936 306.407 130.16 315.459 127.851C324.511 125.543 334.145 132.563 336.934 143.501C339.724 154.439 334.628 165.216 325.576 167.524ZM317.01 133.934C311.312 135.387 308.248 142.74 310.182 150.324C312.116 157.908 318.326 162.896 324.024 161.442C329.722 159.989 332.785 152.636 330.851 145.052C328.918 137.468 322.708 132.481 317.01 133.934Z" fill="#9BDFFF"/>
<path d="M334.896 148.206C335.19 149.359 340.286 169.342 340.286 169.342C340.557 170.405 339.915 171.487 338.852 171.758C337.789 172.029 336.707 171.387 336.436 170.324L335.827 167.936C335.827 167.936 332.997 161.899 325.172 164.388C325.172 164.388 334.505 163.222 334.822 163.245C335.139 163.269 334.602 147.053 334.896 148.206Z" fill="#C0EDFF"/>
<path d="M339.627 174.799C336.889 175.497 334.094 173.838 333.395 171.1C333.395 171.1 333.072 169.437 332.425 168.518C331.411 167.079 329.344 166.538 325.561 167.503L324.604 162.16C326.592 161.523 328.022 160.565 329.621 160.677C330.478 160.572 331.19 160.487 331.786 160.417C331.78 158.78 331.748 156.622 331.723 154.968C331.698 153.209 333.98 151.233 333.974 149.97C333.965 147.704 331.642 145.415 334.454 145.039L337.22 144.671L343.327 168.569C344.025 171.306 342.366 174.101 339.627 174.799Z" fill="#9BDFFF"/>
<path d="M344.59 165.308L344.642 237.045L348.122 237.042L352.41 165.302" fill="#88D2FF"/>
<path d="M343.918 142.321C343.91 131.033 351.504 121.844 360.845 121.838C370.187 121.831 377.794 131.009 377.802 142.297C377.81 153.585 370.216 162.774 360.875 162.781C351.534 162.786 343.926 153.609 343.918 142.321ZM350.195 142.316C350.201 150.143 354.991 156.507 360.871 156.503C366.751 156.499 371.532 150.127 371.526 142.301C371.52 134.474 366.73 128.11 360.85 128.115C354.97 128.118 350.189 134.489 350.195 142.316Z" fill="#9BDFFF"/>
<path d="M347.059 146.374C347.06 147.564 347.075 168.186 347.075 168.186C347.076 169.283 347.966 170.172 349.063 170.171C350.16 170.17 351.049 169.28 351.048 168.183L351.046 165.719C351.046 165.719 352.292 159.169 360.49 159.641C360.49 159.641 351.159 160.824 350.857 160.925C350.556 161.027 347.058 145.184 347.059 146.374Z" fill="#C0EDFF"/>
<path d="M349.065 173.31C351.891 173.308 354.188 171.008 354.186 168.182C354.186 168.182 354.087 166.49 354.486 165.44C355.111 163.795 356.981 162.758 360.884 162.755L360.488 157.341C358.404 157.217 356.781 156.642 355.259 157.147C354.403 157.258 353.692 157.351 353.097 157.432C352.698 155.845 352.193 153.746 351.808 152.137C351.396 150.427 348.696 149.078 348.389 147.853C347.836 145.656 349.519 142.862 346.702 143.195L343.931 143.524L343.937 168.19C343.939 171.015 346.24 173.312 349.065 173.31Z" fill="#9BDFFF"/>
<path d="M374.79 224.354L365.768 222.725L379.782 145.129C379.897 144.493 380.505 144.071 381.141 144.186L387.861 145.4C388.497 145.515 388.919 146.123 388.804 146.759L374.79 224.354Z" fill="#88D2FF"/>
<path d="M387.457 154.216L378.435 152.587L379.782 145.13C379.897 144.494 380.505 144.072 381.141 144.187L387.861 145.401C388.496 145.516 388.919 146.124 388.804 146.76L387.457 154.216Z" fill="#FE7D90"/>
<g opacity="0.5">
<path d="M378.43 152.579L377.943 155.281L386.966 156.91L387.454 154.209L378.43 152.579Z" fill="#599FD2"/>
</g>
<path d="M413.231 162.486L398.508 156.682L367.11 236.336L381.833 242.14L413.231 162.486Z" fill="#C3ECFE"/>
<path d="M407.379 163.167L412.232 165.08" stroke="#CCF3FF" stroke-width="1.393" stroke-miterlimit="10"/>
<path d="M405.749 167.306L410.601 169.218" stroke="#CCF3FF" stroke-width="1.393" stroke-miterlimit="10"/>
<path d="M404.118 171.442L408.97 173.355" stroke="#CCF3FF" stroke-width="1.393" stroke-miterlimit="10"/>
<path d="M400.113 174.645L407.34 177.494" stroke="#CCF3FF" stroke-width="1.393" stroke-miterlimit="10"/>
<path d="M400.856 179.717L405.709 181.63" stroke="#CCF3FF" stroke-width="1.393" stroke-miterlimit="10"/>
<path d="M399.225 183.855L404.078 185.768" stroke="#CCF3FF" stroke-width="1.393" stroke-miterlimit="10"/>
<path d="M397.594 187.994L402.447 189.906" stroke="#CCF3FF" stroke-width="1.393" stroke-miterlimit="10"/>
<path d="M393.59 191.195L400.816 194.043" stroke="#CCF3FF" stroke-width="1.393" stroke-miterlimit="10"/>
<path d="M394.333 196.269L399.185 198.182" stroke="#CCF3FF" stroke-width="1.393" stroke-miterlimit="10"/>
<path d="M392.702 200.406L397.555 202.318" stroke="#CCF3FF" stroke-width="1.393" stroke-miterlimit="10"/>
<path d="M391.071 204.543L395.924 206.456" stroke="#CCF3FF" stroke-width="1.393" stroke-miterlimit="10"/>
<path d="M387.066 207.746L394.293 210.595" stroke="#CCF3FF" stroke-width="1.393" stroke-miterlimit="10"/>
<path d="M387.81 212.818L392.662 214.731" stroke="#CCF3FF" stroke-width="1.393" stroke-miterlimit="10"/>
<path d="M386.179 216.957L391.031 218.87" stroke="#CCF3FF" stroke-width="1.393" stroke-miterlimit="10"/>
<path d="M384.548 221.094L389.4 223.006" stroke="#CCF3FF" stroke-width="1.393" stroke-miterlimit="10"/>
<path d="M380.543 224.296L387.769 227.144" stroke="#CCF3FF" stroke-width="1.393" stroke-miterlimit="10"/>
<path d="M381.286 229.37L386.139 231.282" stroke="#CCF3FF" stroke-width="1.393" stroke-miterlimit="10"/>
<path d="M379.655 233.506L384.508 235.419" stroke="#CCF3FF" stroke-width="1.393" stroke-miterlimit="10"/>
<path d="M378.024 237.645L382.877 239.558" stroke="#CCF3FF" stroke-width="1.393" stroke-miterlimit="10"/>
<path d="M392.617 314.87H319.199L306.868 203.806C306.711 202.394 307.817 201.159 309.238 201.159H402.58C404.001 201.159 405.106 202.394 404.949 203.806L392.617 314.87Z" fill="#9BDFFF"/>
<path d="M300.553 319.71C344.774 320.312 388.995 320.915 433.217 321.517C434.701 321.537 439.378 320.09 431.318 314.892C424.491 310.49 402.914 314.45 402.914 314.45C402.914 314.45 407.937 312.436 407.913 309.838C407.89 307.239 405.92 304.955 403.555 303.877C401.19 302.799 398.497 302.721 395.902 302.869C390.622 303.171 385.393 304.341 380.488 306.318C382.569 305.038 383.204 301.9 381.784 299.912C380.364 297.924 377.189 297.507 375.304 299.06C378.618 294.572 383.742 274.681 367.995 265.914C348.257 254.926 333.267 263.968 330.069 270.581C328.447 264.09 320.999 259.175 316.094 257.957C304.907 255.179 297.619 256.003 287.175 260.88C283.48 262.605 278.533 268.498 276.077 271.753C272.23 276.851 271.63 283.631 271.419 290.014C271.26 294.805 271.238 299.6 271.354 304.392" fill="#CCF3FF"/>
</svg>
