<svg xmlns="http://www.w3.org/2000/svg" viewBox="0 0 500 500"><g id="freepik--background-complete--inject-50"><path d="M80.21,294.89l-13.13.28-6.66.11c-2.22.05-4.46,0-6.69.06h-.45v-.45l-.05-11.19v-.5h.5l13.24.06c4.41,0,8.82.12,13.24.17h.27v.27c0,1.9-.09,3.79-.13,5.65Zm0,0-.14-5.65c0-1.87-.12-3.71-.14-5.54l.28.27c-4.42,0-8.83.16-13.24.17l-13.24.06.5-.5-.06,11.19-.44-.45c2.18,0,4.35,0,6.54.06l6.58.11Z" style="fill:#ebebeb"></path><path d="M65.44,309l-13.13.28-6.66.11c-2.23.05-4.46,0-6.69.06h-.45V309l0-11.19v-.5H39l13.24.06c4.41,0,8.82.12,13.24.17h.27v.27c0,1.9-.09,3.79-.13,5.65Zm0,0-.15-5.65c0-1.87-.11-3.71-.13-5.54l.28.27c-4.42.05-8.83.16-13.24.17L39,298.31l.49-.5L39.4,309l-.44-.45c2.18,0,4.35,0,6.54.06l6.58.11Z" style="fill:#ebebeb"></path><path d="M95,309l-13.13.28-6.66.11c-2.22.05-4.46,0-6.69.06h-.44V309l0-11.19v-.5h.5l13.24.06c4.41,0,8.83.12,13.24.17h.27v.27c0,1.9-.08,3.79-.13,5.65Zm0,0-.14-5.65c0-1.87-.12-3.71-.13-5.54l.27.27c-4.41.05-8.83.16-13.24.17l-13.24.06.5-.5L68.94,309l-.44-.45c2.18,0,4.36,0,6.54.06l6.58.11Z" style="fill:#ebebeb"></path><path d="M446.27,309l-13.12.28-6.66.11c-2.23.05-4.47,0-6.7.06h-.44V309l-.06-11.19v-.5h.5l13.24.06c4.42,0,8.83.12,13.24.17h.28v.27c0,1.9-.09,3.79-.13,5.65Zm0,0-.14-5.65c0-1.87-.11-3.71-.13-5.54l.27.27c-4.41.05-8.82.16-13.24.17l-13.24.06.5-.5L420.24,309l-.45-.45c2.18,0,4.36,0,6.55.06l6.58.11Z" style="fill:#ebebeb"></path><path d="M446.27,57.77,433.15,58l-6.66.12c-2.23,0-4.47,0-6.7.05h-.44v-.44l-.06-11.19v-.51h.5l13.24.06c4.42,0,8.83.11,13.24.16h.28v.27c0,1.89-.09,3.78-.13,5.65Zm0,0-.14-5.66c0-1.86-.11-3.7-.13-5.53l.27.27c-4.41,0-8.82.16-13.24.16l-13.24.06.5-.49-.05,11.19-.45-.45c2.18,0,4.36,0,6.55,0l6.58.12Z" style="fill:#ebebeb"></path><path d="M461,71.88l-13.12.27-6.66.12c-2.23,0-4.46,0-6.7,0h-.44v-.44l-.06-11.19v-.51h.5l13.24.06c4.42,0,8.83.11,13.24.16h.28v.27c0,1.89-.09,3.78-.13,5.65Zm0,0-.14-5.66c0-1.86-.11-3.7-.13-5.53L461,61c-4.41,0-8.82.16-13.24.16l-13.24.06.5-.49L435,71.88l-.45-.45c2.19,0,4.36,0,6.55,0l6.58.12Z" style="fill:#ebebeb"></path><path d="M65.44,57.78l-13.13.28-6.66.11c-2.23,0-4.46,0-6.69,0h-.45v-.45l0-11.19v-.5H39l13.24.06c4.41,0,8.82.11,13.24.16h.27v.27c0,1.9-.09,3.78-.13,5.65Zm0,0-.15-5.66c0-1.86-.11-3.7-.13-5.53l.28.27c-4.42,0-8.83.16-13.24.16L39,47.09l.49-.5L39.4,57.78,39,57.33c2.18,0,4.35,0,6.54.06l6.58.11Z" style="fill:#ebebeb"></path><path d="M126.48,145.22l13.13-.28,6.66-.11c2.23,0,4.46,0,6.69-.05h.45v.45l.05,11.19v.5H153l-13.24-.06c-4.41,0-8.82-.11-13.24-.16h-.27v-.27c0-1.9.09-3.78.13-5.65Zm0,0,.15,5.66c0,1.86.11,3.7.13,5.53l-.28-.27c4.42,0,8.83-.16,13.24-.16l13.24-.07-.5.5.06-11.19.44.45c-2.18,0-4.35,0-6.54-.06l-6.58-.11Z" style="fill:#ebebeb"></path><path d="M372.43,192.52l13.12-.27,6.66-.12c2.23,0,4.47,0,6.7,0h.44v.45l.06,11.19v.51h-.5l-13.24-.06c-4.42,0-8.83-.11-13.24-.16h-.28v-.27c0-1.89.09-3.78.13-5.65Zm0,0,.14,5.66c0,1.86.11,3.7.13,5.53l-.27-.27c4.41-.05,8.82-.16,13.24-.16l13.24-.07-.5.5,0-11.19.45.45c-2.18,0-4.36,0-6.55-.06l-6.58-.11Z" style="fill:#ebebeb"></path><path d="M141.26,131.11l13.12-.28,6.66-.11c2.23,0,4.46,0,6.7-.05h.44v.45l.06,11.19v.5h-.5l-13.24-.06c-4.42,0-8.83-.11-13.24-.16H141v-.27c0-1.9.09-3.78.13-5.65Zm0,0,.14,5.66c0,1.86.11,3.7.13,5.53l-.27-.27c4.41-.05,8.82-.16,13.24-.16l13.24-.07-.5.5,0-11.19.45.45c-2.19,0-4.36,0-6.55-.06l-6.58-.11Z" style="fill:#ebebeb"></path><rect x="77.34" width="1" height="97.58" style="fill:#c7c7c7"></rect><polygon points="111.72 130.24 109 136.23 46.67 136.23 43.96 130.24 70.49 111.87 85.19 111.87 111.72 130.24" style="fill:#ebebeb"></polygon><polygon points="87.03 94.18 85.19 111.87 70.49 111.87 68.65 94.18 87.03 94.18" style="fill:#dbdbdb"></polygon><polygon points="111.72 130.24 109 136.23 46.67 136.23 43.95 130.24 111.72 130.24" style="fill:#dbdbdb"></polygon><rect x="150.09" width="1" height="78.25" style="fill:#c7c7c7"></rect><polygon points="184.47 110.91 181.75 116.9 119.43 116.9 116.71 110.91 143.24 92.55 157.94 92.55 184.47 110.91" style="fill:#ebebeb"></polygon><polygon points="159.78 74.85 157.94 92.55 143.24 92.55 141.4 74.85 159.78 74.85" style="fill:#dbdbdb"></polygon><polygon points="184.47 110.91 181.75 116.9 119.42 116.9 116.71 110.91 184.47 110.91" style="fill:#dbdbdb"></polygon></g><g id="freepik--Shadow--inject-50"><ellipse cx="250" cy="449.06" rx="198.22" ry="15.61" style="fill:#ebebeb"></ellipse></g><g id="freepik--Floor--inject-50"><polygon points="39.15 394.3 91.86 394.06 144.58 393.97 250 393.8 355.42 393.97 408.14 394.06 460.85 394.3 408.14 394.55 355.42 394.63 250 394.8 144.58 394.63 91.86 394.55 39.15 394.3" style="fill:#263238"></polygon></g><g id="freepik--Plant--inject-50"><path d="M411.45,226.22s-23.59-3.3-18.08-31.78C393.37,194.44,419.73,200.36,411.45,226.22Z" style="fill:#BA68C8"></path><path d="M411.45,226.22s-23.59-3.3-18.08-31.78C393.37,194.44,419.73,200.36,411.45,226.22Z" style="opacity:0.1"></path><path d="M410.26,220.28c-.46-1.44-1-2.86-1.61-4.25,0-.18,0-.36-.06-.54,0-.39-.07-.78-.1-1.17-.07-.85-.12-1.7-.17-2.55-.1-1.7-.21-3.41-.23-5.11,0-.09-.15-.09-.15,0,0,1.71,0,3.41,0,5.12,0,.85.08,1.7.14,2.55,0,.19,0,.37,0,.56a51.52,51.52,0,0,0-4.73-8.09q-1.21-1.7-2.58-3.27c-.94-1.07-1.94-2.1-2.89-3.16-.06-.07-.16,0-.1.1a42,42,0,0,1,4.55,6.05c.71,1.08,1.39,2.2,2,3.33l-.22-.09-.84-.34-1.93-.73-3.8-1.41c-.07,0-.12.1,0,.13,1.26.5,2.5,1,3.74,1.57l1.83.78.92.38a2.42,2.42,0,0,0,.62.22c.48.86,1,1.71,1.38,2.59a59.79,59.79,0,0,1,2.89,6.8c0,.16.11.32.17.49a14.4,14.4,0,0,0-1.94-.94l-2.44-1.11c-1.65-.76-3.3-1.53-4.88-2.43-.08,0-.15.09-.07.13,1.62.89,3.21,1.83,4.83,2.71.81.44,1.63.87,2.46,1.27a7.77,7.77,0,0,0,2.22.89,27.9,27.9,0,0,1,1.54,6.69c.27,3.22.24,6.47.31,9.7,0,0,.08,0,.09,0,.23-2.92.36-5.88.38-8.82A25.92,25.92,0,0,0,410.26,220.28Z" style="fill:#263238"></path><path d="M406.62,203.53a28.1,28.1,0,0,0-.23,5,0,0,0,1,0,.07,0c.1-1.67.11-3.33.3-5C406.77,203.47,406.63,203.44,406.62,203.53Z" style="fill:#263238"></path><path d="M399.88,205a17.13,17.13,0,0,1-3-1.49c-.07-.05-.14.08-.07.13a11.85,11.85,0,0,0,3.07,1.46A.05.05,0,0,0,399.88,205Z" style="fill:#263238"></path><path d="M412.2,271.44c0-2.61-.07-5.22-.1-7.82-.05-8.66-.12-17.32-.27-26q-.19-10.3-.48-20.61a.11.11,0,0,0-.06-.09l0-5.63c0-.05-.06-.07-.11-.07s-.12,0-.12.07l0,5.64s-.06.05-.06.08c-.34,12.23-.65,24.47-.73,36.7,0,2.49,0,5,0,7.47q-.12,12-.09,23.93l0,3.81c0,7.3.08,14.6.08,21.89,0,.4.43.59.9.61s1.09-.19,1.09-.64c0-8.05.06-16.09.06-24.14C412.22,281.58,412.24,276.51,412.2,271.44Z" style="fill:#263238"></path><path d="M402.35,263.52s-11.35-8.41-22.12-2.73-12.46,27.58-12.46,27.58,15.82,2.26,25.78-7.22C403.14,272,402.35,263.52,402.35,263.52Z" style="fill:#BA68C8"></path><path d="M402.35,263.52s-11.35-8.41-22.12-2.73-12.46,27.58-12.46,27.58,15.82,2.26,25.78-7.22C403.14,272,402.35,263.52,402.35,263.52Z" style="opacity:0.1"></path><path d="M405.44,264a13.46,13.46,0,0,0-6.57-.86,10.73,10.73,0,0,0-1.39-.14l-1.6-.12-3.31-.23c-2.24-.17-4.48-.31-6.72-.53-.08,0-.09.13,0,.14,2.21.28,4.41.6,6.63.82,1.14.12,2.28.24,3.42.32l.83.08c-.34.07-.68.15-1,.25a26.27,26.27,0,0,0-5.14,2.09c-.89.16-1.78.41-2.66.62-1.4.33-2.8.69-4.19,1-2.76.73-5.49,1.54-8.22,2.33a.07.07,0,0,0,0,.14c2.73-.67,5.48-1.28,8.22-1.93l4-1c.34-.09.69-.16,1-.24a33.22,33.22,0,0,0-8.06,7,43.63,43.63,0,0,0-5.61,8.84c0,.08.07.16.12.08a43.21,43.21,0,0,1,6.78-8.9c0,.15-.1.3-.14.45l-.63,2c-.42,1.34-.85,2.67-1.25,4,0,.09.11.12.14,0,.48-1.29.93-2.6,1.39-3.9.22-.64.45-1.28.67-1.91.12-.34.23-.67.34-1a2.83,2.83,0,0,0,.11-.31,42.22,42.22,0,0,1,4-3.43,30.68,30.68,0,0,1,6-3.45c0,.2-.07.4-.11.58-.11.52-.23,1-.34,1.55-.22,1.08-.43,2.16-.64,3.23-.42,2.2-.69,4.42-1.1,6.62a.07.07,0,1,0,.14,0c.51-2.2,1.16-4.38,1.66-6.59.24-1.11.49-2.21.72-3.32.11-.52.21-1,.32-1.56.06-.29.12-.58.16-.87.2-.08.4-.18.61-.25,3-1.11,6.27-1.91,9.44-1.3a9.26,9.26,0,0,1,6.83,5.48c.11.24.5.09.44-.16A8.74,8.74,0,0,0,405.44,264Z" style="fill:#263238"></path><path d="M388.07,273.39l-1,4.31a31.4,31.4,0,0,0-.79,4.2c0,.05.08.05.09,0a32,32,0,0,0,1-4.23c.28-1.42.55-2.84.83-4.26A.07.07,0,0,0,388.07,273.39Z" style="fill:#263238"></path><path d="M377.1,277c-1.45.74-2.85,1.57-4.36,2.17a.07.07,0,1,0,.06.13,46.64,46.64,0,0,0,4.33-2.24S377.13,277,377.1,277Z" style="fill:#263238"></path><path d="M404.9,248.08s-13.87.88-20.32-8.26-5-22.21-5-22.21,14.56,1.77,20.35,8.34S404.9,248.08,404.9,248.08Z" style="fill:#BA68C8"></path><path d="M411.41,261.76c-.48-1.48-1.08-2.95-1.64-4.41s-1.11-2.78-1.72-4.15a85.88,85.88,0,0,0-4.16-8.17c-1-1.69-2-3.32-3.11-4.94,0-.24-.07-.49-.1-.73-.07-.43-.13-.86-.2-1.29-.14-.88-.29-1.76-.44-2.63-.31-1.92-.71-3.82-1-5.74,0-.09-.16-.09-.15,0,.28,1.89.47,3.79.74,5.69.13.93.25,1.86.39,2.79.05.33.1.67.16,1a101.16,101.16,0,0,0-6.86-8.89c-.33-.39-.68-.76-1-1.14,0-.1-.08-.21-.12-.32-.11-.26-.21-.52-.31-.79l-.6-1.65c-.39-1.09-.73-2.19-1-3.3,0-.09-.16,0-.14,0,.28,1.14.58,2.28.91,3.4.16.54.34,1.08.53,1.61l.1.27c-1.77-1.93-3.62-3.8-5.49-5.64-.07-.06-.16,0-.1.11a98.74,98.74,0,0,1,9.83,12,7.77,7.77,0,0,0-1-.26c-1.07-.21-2.14-.36-3.22-.5-2.26-.29-4.51-.57-6.76-.93-.1,0-.13.12,0,.14,2.15.43,4.28.91,6.41,1.4,1,.23,2,.43,3,.63a18.68,18.68,0,0,1,2.43.69l.68,1c1,1.48,2,3,2.95,4.52l-1.42-.28c-1.07-.21-2.14-.4-3.22-.58-2.11-.34-4.23-.71-6.32-1.19-.09,0-.13.12,0,.14,2.12.5,4.23,1.08,6.33,1.64,1,.27,2,.52,3.07.75l1.54.33a5.43,5.43,0,0,0,.62.11q3,4.92,5.69,10.07c.77,1.51,1.52,3,2.24,4.57s1.37,3.18,2.06,4.78C411,262.24,411.52,262.11,411.41,261.76Z" style="fill:#263238"></path><path d="M397.21,229.89c-.26-1.33-.54-2.65-.83-4,0-.09-.16-.05-.14,0,.26,1.3.51,2.6.75,3.91a36.53,36.53,0,0,0,.79,3.88s0,0,0,0A26.72,26.72,0,0,0,397.21,229.89Z" style="fill:#263238"></path><path d="M389.12,229.5c-.64-.32-1.32-.58-2-.84l-1.05-.41-.54-.21a2.77,2.77,0,0,1-.58-.26c-.11-.08-.17.1-.07.12a2.36,2.36,0,0,1,.59.24l.53.24,1,.45a19,19,0,0,0,2.05.81C389.15,229.67,389.2,229.54,389.12,229.5Z" style="fill:#263238"></path><path d="M419.1,237.17s8.39-15.68,21.16-18.11,20.59,10.72,20.59,10.72-9.32,11.89-21,14S419.1,237.17,419.1,237.17Z" style="fill:#BA68C8"></path><path d="M448.82,226.09a34.7,34.7,0,0,0-10,.12l.57-.3,2.84-1.46c2-1,3.94-2.11,6-2.93a.07.07,0,1,0-.06-.13c-2,.93-4.06,1.71-6.07,2.63-1,.46-2,.94-3,1.46-.63.33-1.33.65-1.95,1.05a35,35,0,0,0-8.11,2.69l1.59-1.74c1.19-1.3,2.36-2.67,3.67-3.85.07-.07,0-.17-.1-.1-1.34,1.21-2.75,2.33-4,3.6-.63.61-1.23,1.24-1.81,1.9-.3.32-.59.66-.87,1a33.68,33.68,0,0,0-17.12,23.11c0,.09.11.14.14,0a38.55,38.55,0,0,1,9.39-15.89,36.87,36.87,0,0,1,17.1-9.89,37.6,37.6,0,0,1,11.81-1.08A.13.13,0,0,0,448.82,226.09Z" style="fill:#263238"></path><path d="M460.85,229.78s-9.32,11.89-21,14c-8.94,1.58-16.29-3.08-19.28-5.38l-.64-1.05s6-5.1,17.48-8S460.85,229.78,460.85,229.78Z" style="opacity:0.1"></path><path d="M441.4,220.5a31.45,31.45,0,0,0-2.83,1.87,17.62,17.62,0,0,0-2.47,2.26c-.06.07,0,.16.11.1.85-.73,1.7-1.47,2.58-2.17a30.06,30.06,0,0,1,2.69-1.94C441.56,220.58,441.48,220.45,441.4,220.5Z" style="fill:#263238"></path><path d="M448.41,223.16c-.47.19-1,.36-1.43.56l-1.42.59c-.1,0-.05.21.05.17l1.42-.58,1.42-.61C448.54,223.26,448.5,223.12,448.41,223.16Z" style="fill:#263238"></path><path d="M417.42,256.9s2.25,15.56,13.94,21,25.95,0,25.95,0S451.71,244.25,417.42,256.9Z" style="fill:#BA68C8"></path><path d="M417.42,256.9s2.25,15.56,13.94,21,25.95,0,25.95,0S451.71,244.25,417.42,256.9Z" style="opacity:0.1"></path><path d="M449.26,267.78c-1.08-.12-2.16-.31-3.22-.5l-1.57-.3-.83-.16c-.31-.3-.62-.6-.94-.88a48,48,0,0,0-7.16-5.19,42.11,42.11,0,0,0-4.28-2.2h.22l3.85.17c2.56.12,5.13.18,7.7.34.09,0,.08-.14,0-.14-2.57-.18-5.13-.46-7.71-.68l-3.74-.33-1.92-.17-.5-.05c-.66-.25-1.33-.49-2-.7a18.27,18.27,0,0,0-9.91-.55c-2.94.76-5.88,2.69-6.64,5.79,0,.1.14.18.18.07,1.1-2.59,4-3.9,6.58-4.44a15.66,15.66,0,0,1,5.29-.1,12.83,12.83,0,0,0,.59,2.35c.33,1.1.65,2.19,1,3.28.66,2.19,1.39,4.35,2,6.54a.07.07,0,1,0,.13,0c-.54-2.18-1-4.39-1.52-6.57-.26-1.08-.53-2.15-.8-3.22a17.26,17.26,0,0,0-.59-2.21,28,28,0,0,1,3,.71,44.34,44.34,0,0,1,5.3,1.95c.17,1.11.42,2.2.67,3.3.32,1.37.68,2.73,1.11,4.07a.07.07,0,1,0,.13,0,2.21,2.21,0,0,0-.05-.25h0c-.26-1.27-.54-2.53-.81-3.81-.22-1-.42-2.05-.64-3.07a46,46,0,0,1,4.26,2.16c0,.31.11.64.16.93.08.53.18,1.06.27,1.59.22,1.2.46,2.4.75,3.59a57,57,0,0,0,2,6.76.08.08,0,0,0,0,.09l.07.08c.05.06.13,0,.12-.08-.54-2.3-1.16-4.59-1.67-6.9-.25-1.15-.5-2.31-.74-3.47l-.33-1.74c0-.16-.05-.34-.08-.52a45.59,45.59,0,0,1,4.55,3,48.94,48.94,0,0,1,7,6.36c.08.09.24,0,.17-.14a43.06,43.06,0,0,0-2.79-3.4c-.59-.63-1.2-1.24-1.82-1.84l.19,0,1.65.25c1.08.14,2.17.25,3.25.37C449.31,267.93,449.35,267.79,449.26,267.78Z" style="fill:#263238"></path><path d="M441,273.05h0c0-.13,0-.27-.07-.4s-.12-.34-.14-.51h0c-.24-1-.44-2.09-.63-3.14,0-.07-.13-.05-.12,0a12.58,12.58,0,0,0,.89,4.06,0,0,0,0,0,.08,0Z" style="fill:#263238"></path><path d="M431.25,272.8a.07.07,0,0,0-.07-.06c-.33-1.38-.65-2.76-.93-4.14-.15-.73-.3-1.46-.44-2.19-.08-.4-.15-.79-.22-1.18a3.4,3.4,0,0,0-.25-1,.07.07,0,0,0-.13,0,6.75,6.75,0,0,0,.29,2.08c.14.76.29,1.52.46,2.27.34,1.54.72,3.07,1.16,4.58a.08.08,0,0,0,.15,0C431.26,273,431.26,272.92,431.25,272.8Z" style="fill:#263238"></path><path d="M448.19,263.3c-2.14-.29-4.27-.6-6.41-.86-.09,0-.13.13,0,.14,2.14.31,4.28.58,6.41.86C448.25,263.45,448.28,263.31,448.19,263.3Z" style="fill:#263238"></path><path d="M411.43,220.43S404.27,189,438,176.32C438,176.32,447.35,217.65,411.43,220.43Z" style="fill:#BA68C8"></path><path d="M418.71,202.62l.36-.22,1.91-1.07,3.91-2.18c2.58-1.44,5.12-2.94,7.71-4.35a.07.07,0,1,0-.07-.12c-2.6,1.41-5.24,2.73-7.86,4.11l-3.86,2-1.58.84c1.12-2.13,2.33-4.23,3.65-6.24,1.76-2.69,3.69-5.25,5.7-7.76.09-.11-.06-.26-.16-.16a53.09,53.09,0,0,0-7.8,9.56c0-.11,0-.22,0-.32,0-.78.05-1.56.07-2.35,0-1.53-.05-3.06,0-4.59a.07.07,0,1,0-.14,0c-.07,1.51-.25,3-.33,4.52-.05.75-.08,1.5-.1,2.26,0,.4-.05.87,0,1.31-.69,1.11-1.36,2.23-2,3.37a57.27,57.27,0,0,0-3,6.32c0-.78-.09-1.56-.13-2.35-.1-1.71-.31-3.43-.38-5.15a.08.08,0,0,0-.15,0c0,1.72,0,3.44,0,5.16,0,.86.05,1.72.11,2.57l.06,1a56.77,56.77,0,0,0-2.55,8.63,92.11,92.11,0,0,0-1.25,9.48s0,0,0,0a51.84,51.84,0,0,1,1.79-8.45c.42-1.48.86-3,1.33-4.42,1.41-.66,2.75-1.49,4.11-2.24s2.82-1.54,4.23-2.31c2.81-1.55,5.62-3.12,8.53-4.48.08,0,0-.16-.08-.13-2.94,1.34-5.9,2.6-8.79,4-1.44.73-2.85,1.5-4.25,2.29-1.17.66-2.38,1.32-3.5,2.08.33-1,.67-1.95,1-2.92C416.27,207.74,417.42,205.15,418.71,202.62Z" style="fill:#263238"></path><path d="M415.87,195.44a.08.08,0,0,0-.15,0c.13,1.79.19,3.58.38,5.36,0,.1.16.1.15,0C416.19,199,416,197.23,415.87,195.44Z" style="fill:#263238"></path><path d="M432,201.44c-2.11.85-4.24,1.66-6.34,2.53-.06,0,0,.12,0,.1,2.13-.8,4.23-1.67,6.35-2.49C432.17,201.54,432.13,201.4,432,201.44Z" style="fill:#263238"></path><path d="M435.25,187a52.4,52.4,0,0,0-6,3.22.09.09,0,1,0,.09.15c2-1.15,4-2.24,6-3.25C435.41,187,435.33,186.92,435.25,187Z" style="fill:#263238"></path><rect x="386.09" y="288.32" width="48.65" height="51.28" style="fill:#455a64"></rect><rect x="382.74" y="306.47" width="2.49" height="87.84" style="fill:#263238"></rect><rect x="435.34" y="306.47" width="2.49" height="87.84" style="fill:#263238"></rect><rect x="410.36" y="306.47" width="2.49" height="87.84" style="fill:#263238"></rect><rect x="383.99" y="336.31" width="52.59" height="7.1" style="fill:#263238"></rect></g><g id="freepik--Device--inject-50"><path d="M355.31,52.69H186.25a17.26,17.26,0,0,0-17.1,17.42v348a17.27,17.27,0,0,0,17.1,17.42H355.31a17.29,17.29,0,0,0,17.12-17.42v-348A17.28,17.28,0,0,0,355.31,52.69Zm6.42,354.67c0,9.16-6.86,16.57-15.32,16.57H195.17c-8.48,0-15.34-7.41-15.34-16.57V83.3c0-18.66,6.86-19.57,15.34-19.57h30.3c1.76,0,3.2,2,3.2,4.48v1.07c0,5.81,3.18,5.83,7.08,5.83h70.06c3.94,0,7.1,0,7.1-5.83V68.21c0-2.48,1.42-4.48,3.21-4.48h30.29c8.46,0,15.32,2.48,15.32,19.57Z" style="fill:#263238"></path><path d="M361.73,83.3V407.36c0,9.16-6.86,16.57-15.32,16.57H195.17c-8.48,0-15.34-7.41-15.34-16.57V83.3c0-18.66,6.86-19.57,15.34-19.57h30.3c1.76,0,3.2,2,3.2,4.48v1.07c0,5.81,3.18,5.83,7.08,5.83h70.06c3.94,0,7.1,0,7.1-5.83V68.21c0-2.48,1.42-4.48,3.21-4.48h30.29C354.87,63.73,361.73,66.21,361.73,83.3Z" style="fill:#fff"></path><path d="M361.73,83.3v66.49H179.83V83.3c0-18.66,6.86-19.57,15.34-19.57h30.3c1.76,0,3.2,2,3.2,4.48v1.07c0,5.81,3.18,5.83,7.08,5.83h70.06c3.94,0,7.1,0,7.1-5.83V68.21c0-2.48,1.42-4.48,3.21-4.48h30.29C354.87,63.73,361.73,66.21,361.73,83.3Z" style="fill:#BA68C8"></path><g id="freepik--u5Zjqx--inject-50"><path d="M220.23,71l-.29.29-.16.17a4,4,0,0,0-5.65,0L214,71.3l-.28-.29h0l0,0c.12-.11.24-.22.37-.32a4.4,4.4,0,0,1,2-.93c.19,0,.38,0,.57-.08s.48,0,.49,0l.39,0a4.64,4.64,0,0,1,1,.25,4.47,4.47,0,0,1,.7.33,5.46,5.46,0,0,1,.68.47l.3.28Z" style="fill:#fff"></path><path d="M215.06,72.39l-.46-.46a3.27,3.27,0,0,1,1.88-1,3.31,3.31,0,0,1,2.83.94l-.46.46a2.68,2.68,0,0,0-3.79,0Z" style="fill:#fff"></path><path d="M218.38,72.85l-.46.46a1.34,1.34,0,0,0-1-.4,1.37,1.37,0,0,0-1,.4l-.45-.46A2,2,0,0,1,218.38,72.85Z" style="fill:#fff"></path><path d="M217.37,73.73a.42.42,0,1,1-.42-.42A.42.42,0,0,1,217.37,73.73Z" style="fill:#fff"></path></g><path d="M191.69,71.89a1.21,1.21,0,1,1,1.21,1.21A1.21,1.21,0,0,1,191.69,71.89Z" style="fill:#fff"></path><path d="M195.49,71.89a1.21,1.21,0,1,1,1.2,1.21A1.2,1.2,0,0,1,195.49,71.89Z" style="fill:#fff"></path><path d="M199.28,71.89a1.21,1.21,0,1,1,1.21,1.21A1.21,1.21,0,0,1,199.28,71.89Z" style="fill:#fff"></path><path d="M203.08,71.89a1.21,1.21,0,1,1,1.21,1.21A1.21,1.21,0,0,1,203.08,71.89Z" style="fill:#fff"></path><path d="M206.88,71.89a1.21,1.21,0,1,1,1.2,1.21A1.2,1.2,0,0,1,206.88,71.89Z" style="fill:#fff"></path><path d="M348.08,74.52h-9.81V70h9.81Zm-9.31-.5h8.81V70.48h-8.81Z" style="fill:#fff"></path><rect x="339.08" y="70.75" width="6.33" height="3" style="fill:#fff"></rect><rect x="348.09" y="71.04" width="0.87" height="2.43" style="fill:#fff"></rect><rect x="192.14" y="108.68" width="157.27" height="12.64" style="opacity:0.1"></rect><path d="M228.75,114.26a1.78,1.78,0,0,1,.53,1.28,1.82,1.82,0,0,1-3.1,1.29.42.42,0,0,1,0-.59.41.41,0,0,1,.58,0,1,1,0,0,0,1.4,0,1,1,0,0,0,0-1.4,1,1,0,0,0-.69-.29.34.34,0,0,1-.3-.13s0,0,0,0a.4.4,0,0,1,0-.58l.74-.77h-1.18a.41.41,0,1,1,0-.82h2.16a.41.41,0,0,1,.41.41.53.53,0,0,1-.12.3l-.92,1A1.63,1.63,0,0,1,228.75,114.26Z" style="fill:#fff"></path><path d="M235.9,115.23V117a.38.38,0,0,1-.38.39.4.4,0,0,1-.39-.39v-1.75a.75.75,0,0,0-.76-.74.73.73,0,0,0-.73.74V117a.13.13,0,0,1,0,.08.39.39,0,0,1-.77-.08V114.1a.38.38,0,0,1,.39-.39.41.41,0,0,1,.36.23,1.45,1.45,0,0,1,.77-.23A1.53,1.53,0,0,1,235.9,115.23Z" style="fill:#fff"></path><path d="M238.14,112.79a.4.4,0,1,1-.79,0v-.15a.4.4,0,1,1,.79,0Zm0,1.33V117a.4.4,0,0,1-.79,0v-2.86a.4.4,0,1,1,.79,0Z" style="fill:#fff"></path><path d="M242.68,115.56v1.36a1.77,1.77,0,0,1-1.76,1.76,1.68,1.68,0,0,1-.77-.18.4.4,0,0,1,.35-.71.93.93,0,0,0,.42.1,1,1,0,0,0,1-.78,1.73,1.73,0,0,1-1,.29,1.68,1.68,0,0,1-1.25-.56,1.84,1.84,0,0,1-.51-1.29,1.94,1.94,0,0,1,.51-1.3,1.74,1.74,0,0,1,1.25-.54,1.66,1.66,0,0,1,1,.31.4.4,0,0,1,.39-.31.38.38,0,0,1,.39.39v1.45Zm-.79,0a1.07,1.07,0,0,0-.28-.74.89.89,0,0,0-1.37,0,1.08,1.08,0,0,0-.29.74,1.09,1.09,0,0,0,.29.76.93.93,0,0,0,1.37,0A1.09,1.09,0,0,0,241.89,115.55Z" style="fill:#fff"></path><path d="M245.05,117a.4.4,0,0,1-.41.4.43.43,0,0,1-.39-.3s0-.07,0-.1v-4.32a.41.41,0,1,1,.81,0v1.27a1.75,1.75,0,0,1,.79-.21,1.6,1.6,0,0,1,1.59,1.6V117a.4.4,0,0,1-.8,0v-1.66a.79.79,0,1,0-1.58,0Z" style="fill:#fff"></path><path d="M250.38,114.11a.41.41,0,0,1-.41.4h-.18v2a.4.4,0,0,1,.4.41.39.39,0,0,1-.4.4.82.82,0,0,1-.82-.81v-2h-.21a.4.4,0,0,1-.4-.4.39.39,0,0,1,.4-.4H249v-1.06a.41.41,0,0,1,.41-.41.41.41,0,0,1,.41.41v1.06H250A.4.4,0,0,1,250.38,114.11Z" style="fill:#fff"></path><path d="M251.49,116.32a.39.39,0,0,1,.55-.06,1.34,1.34,0,0,0,.8.33,1,1,0,0,0,.5-.14.31.31,0,0,0,.13-.22.11.11,0,0,0,0-.08.18.18,0,0,0-.09-.08,1.57,1.57,0,0,0-.59-.21h0a2.56,2.56,0,0,1-.63-.19,1.22,1.22,0,0,1-.51-.42.94.94,0,0,1-.12-.47,1,1,0,0,1,.43-.8,1.54,1.54,0,0,1,.9-.27,1.9,1.9,0,0,1,1.1.4.41.41,0,0,1,.12.54.4.4,0,0,1-.55.11,1.21,1.21,0,0,0-.67-.28.72.72,0,0,0-.44.14.21.21,0,0,0-.12.16s0,0,0,.06,0,0,.08.08a1.48,1.48,0,0,0,.53.17h0a2.56,2.56,0,0,1,.68.21,1.14,1.14,0,0,1,.52.43,1,1,0,0,1,.14.49,1.06,1.06,0,0,1-.46.85,1.73,1.73,0,0,1-1,.29,2.15,2.15,0,0,1-1.3-.5A.4.4,0,0,1,251.49,116.32Z" style="fill:#fff"></path><path d="M257.65,117.07a4.73,4.73,0,0,1-.34-1.94,5.54,5.54,0,0,1,.18-1.51,2.12,2.12,0,0,1,.7-1.13,1.4,1.4,0,0,1,.87-.29.47.47,0,0,1,0,.93.5.5,0,0,0-.31.09,1,1,0,0,0-.25.36,3.64,3.64,0,0,0-.26,1.55,3.86,3.86,0,0,0,.15,1.25,1.16,1.16,0,0,0,.36.65.5.5,0,0,0,.31.11.45.45,0,0,1,.46.46.46.46,0,0,1-.46.46h0a1.35,1.35,0,0,1-.86-.29A1.86,1.86,0,0,1,257.65,117.07Z" style="fill:#fff"></path><path d="M261.94,112.65V117a.4.4,0,0,1-.41.4.39.39,0,0,1-.4-.4v-3.61l-.3.17a.3.3,0,0,1-.2.06.38.38,0,0,1-.34-.2.38.38,0,0,1,.13-.55l.9-.54h0s0,0,0,0h.31a.06.06,0,0,0,.05,0s0,0,0,0,0,0,0,0,0,0,0,0l0,0,0,0h0a0,0,0,0,0,0,0,.06.06,0,0,1,0,0s0,0,0,0v0a.07.07,0,0,0,0,.05Z" style="fill:#fff"></path><path d="M266.79,116a.4.4,0,0,1-.41.4h-.07V117a.41.41,0,0,1-.81,0v-.56h-2.3a.34.34,0,0,1-.25-.09.38.38,0,0,1-.07-.56l2.71-3.37s0,0,0,0l0,0s0,0,0,0,0,0,0,0h.05s0,0,0,0h.3l0,0,0,0a0,0,0,0,1,0,0l0,0,0,0s0,0,0,0l0,0a0,0,0,0,0,0,0l0,0v0a.07.07,0,0,1,0,0s0,0,0,0v3h.07A.4.4,0,0,1,266.79,116Zm-1.29-2.21-1.45,1.81h1.45Z" style="fill:#fff"></path><path d="M270.22,117v-4.32a.41.41,0,0,1,.41-.41H273a.41.41,0,0,1,0,.82h-2v1.34h1.71a.41.41,0,0,1,.4.4.41.41,0,0,1-.4.41H271V117a.41.41,0,0,1-.41.4A.4.4,0,0,1,270.22,117Z" style="fill:#fff"></path><path d="M274.21,115.54a1.82,1.82,0,0,1,1.79-1.83,1.76,1.76,0,0,1,1.77,1.7v0s0,.06,0,.07a.35.35,0,0,1-.38.29h-2.33a1,1,0,0,0,.25.49,1.18,1.18,0,0,0,.7.33,1.2,1.2,0,0,0,.76-.19.41.41,0,0,1,.55,0,.33.33,0,0,1,0,.48,1.85,1.85,0,0,1-1.31.48A1.82,1.82,0,0,1,274.21,115.54Zm.8-.36h2.07a1.2,1.2,0,0,0-1.08-.78A1,1,0,0,0,275,115.18Z" style="fill:#fff"></path><path d="M278.93,115.55h0v-2.9a.41.41,0,0,1,.4-.4.4.4,0,0,1,.4.4V114a1.73,1.73,0,0,1,1-.31,1.83,1.83,0,0,1,0,3.66,1.79,1.79,0,0,1-1-.31.4.4,0,0,1-.79-.08Zm.8,0a1,1,0,0,0,.29.72,1,1,0,0,0,.69.3.94.94,0,0,0,.69-.3,1,1,0,0,0,.29-.72,1,1,0,0,0-.29-.74.94.94,0,0,0-.69-.3,1,1,0,0,0-.69.3A1,1,0,0,0,279.73,115.55Z" style="fill:#fff"></path><path d="M285.77,115.13a.44.44,0,0,1,.43-.44h1.38a.44.44,0,0,1,0,.87H286.2A.44.44,0,0,1,285.77,115.13Z" style="fill:#fff"></path><path d="M292.48,112.65V117a.4.4,0,0,1-.41.4.39.39,0,0,1-.4-.4v-3.61l-.3.17a.31.31,0,0,1-.2.06.41.41,0,0,1-.35-.2.39.39,0,0,1,.13-.55l.91-.54h0l0,0H292s0,0,0,0h.14s0,0,0,0h.07s0,0,0,0l0,0,0,0s0,0,0,0,0,0,0,0l0,0h0a0,0,0,0,0,0,0s0,0,0,0,0,0,0,0v0s0,0,0,.05Z" style="fill:#fff"></path><path d="M296.69,112.8l-1.83,4.33a.38.38,0,0,1-.37.24l-.16,0a.42.42,0,0,1-.22-.53l1.59-3.75h-1.89a.42.42,0,0,1-.41-.41.41.41,0,0,1,.41-.41h2.58l.16.06,0,0,0,0s0,0,0,0,0,0,0,0a.06.06,0,0,1,0,0l0,0s0,0,0,0a0,0,0,0,1,0,0,.49.49,0,0,1,0,.17A.14.14,0,0,1,296.69,112.8Z" style="fill:#fff"></path><path d="M300.2,117v-4.32a.4.4,0,0,1,.4-.41H303a.41.41,0,0,1,0,.82h-2v1.34h1.71a.41.41,0,0,1,.4.4.4.4,0,0,1-.4.41H301V117a.4.4,0,0,1-.41.4A.39.39,0,0,1,300.2,117Z" style="fill:#fff"></path><path d="M304.19,115.54a1.8,1.8,0,0,1,1.78-1.83,1.75,1.75,0,0,1,1.77,1.7v0s0,.06,0,.07a.34.34,0,0,1-.38.29H305a1,1,0,0,0,.25.49,1.21,1.21,0,0,0,.7.33,1.23,1.23,0,0,0,.77-.19.4.4,0,0,1,.54,0,.33.33,0,0,1,0,.48,1.83,1.83,0,0,1-1.31.48A1.81,1.81,0,0,1,304.19,115.54Zm.79-.36h2.08a1.23,1.23,0,0,0-1.09-.78A1,1,0,0,0,305,115.18Z" style="fill:#fff"></path><path d="M308.91,115.55h0v-2.9a.4.4,0,0,1,.39-.4.41.41,0,0,1,.41.4V114a1.73,1.73,0,0,1,1-.31,1.83,1.83,0,1,1-1,3.35.4.4,0,0,1-.39.31.39.39,0,0,1-.39-.39Zm.8,0a1,1,0,0,0,.29.72.94.94,0,0,0,.69.3,1,1,0,0,0,.69-.3,1,1,0,0,0,.29-.72,1,1,0,0,0-.29-.74,1,1,0,0,0-.69-.3.94.94,0,0,0-.69.3A1,1,0,0,0,309.71,115.55Z" style="fill:#fff"></path><path d="M313.76,118.06h0a.47.47,0,0,1-.46-.46.46.46,0,0,1,.46-.46.5.5,0,0,0,.31-.11,1.22,1.22,0,0,0,.37-.65,4.18,4.18,0,0,0,.14-1.25,3.66,3.66,0,0,0-.25-1.55,1,1,0,0,0-.26-.36.5.5,0,0,0-.31-.09.47.47,0,0,1,0-.93,1.43,1.43,0,0,1,.88.29,2.17,2.17,0,0,1,.69,1.13,5.53,5.53,0,0,1,.19,1.51,4.73,4.73,0,0,1-.35,1.94,1.84,1.84,0,0,1-.53.7A1.39,1.39,0,0,1,313.76,118.06Z" style="fill:#fff"></path><polygon points="197.44 137.11 192.14 132.14 197.44 127.18 198.26 128.05 193.9 132.14 198.26 136.23 197.44 137.11" style="fill:#fff"></polygon><circle cx="348.63" cy="134.55" r="0.79" style="fill:#fff"></circle><circle cx="348.63" cy="131.95" r="0.79" style="fill:#fff"></circle><circle cx="348.63" cy="129.35" r="0.79" style="fill:#fff"></circle><path d="M210.86,131.33a1.74,1.74,0,0,1-1.24,3,1.72,1.72,0,0,1-1.22-.51.4.4,0,0,1,.56-.56.93.93,0,0,0,.66.27,1,1,0,0,0,.68-.27.94.94,0,0,0,.28-.67.92.92,0,0,0-.28-.67,1,1,0,0,0-.67-.28.35.35,0,0,1-.29-.12h0a.4.4,0,0,1,0-.56l.72-.73H208.9a.39.39,0,0,1-.39-.4.4.4,0,0,1,.39-.39H211a.4.4,0,0,1,.4.39.38.38,0,0,1-.05.19.36.36,0,0,1-.07.1l-.88.91A1.66,1.66,0,0,1,210.86,131.33Z" style="fill:#fff"></path><path d="M216.22,133a.38.38,0,0,1-.39.38h-.07v.54a.39.39,0,0,1-.77,0v-.54h-2.21a.37.37,0,0,1-.24-.08.38.38,0,0,1-.06-.54l2.59-3.22s0,0,0,0l0,0s0,0,0,0l0,0h0l0,0,0,0h.18l0,0h0l0,0,0,0a0,0,0,0,1,0,0l0,0,0,0,0,0,0,0v0l0,0v0a.09.09,0,0,1,0,.05s0,0,0,0v2.85h.07A.39.39,0,0,1,216.22,133ZM215,130.89l-1.4,1.73H215Z" style="fill:#fff"></path><path d="M219.78,131.33a1.74,1.74,0,0,1-1.24,3,1.7,1.7,0,0,1-1.22-.51.39.39,0,0,1,0-.56.4.4,0,0,1,.56,0,.93.93,0,0,0,.66.27.94.94,0,0,0,1-.94,1,1,0,0,0-.28-.67,1,1,0,0,0-.67-.28.35.35,0,0,1-.29-.12h0a.39.39,0,0,1,0-.56l.72-.73h-1.14a.4.4,0,0,1,0-.79h2.07a.4.4,0,0,1,.4.39.38.38,0,0,1,0,.19.36.36,0,0,1-.07.1l-.88.91A1.66,1.66,0,0,1,219.78,131.33Z" style="fill:#fff"></path><path d="M223.76,133.93v-4.14a.39.39,0,0,1,.78,0v1.68h1.82v-1.68a.37.37,0,0,1,.38-.38.38.38,0,0,1,.39.38v4.14a.38.38,0,0,1-.39.38.37.37,0,0,1-.38-.38v-1.69h-1.82v1.69a.39.39,0,0,1-.78,0Z" style="fill:#fff"></path><path d="M229,133.8a1.75,1.75,0,0,1-.48-1.23,1.82,1.82,0,0,1,.48-1.23,1.64,1.64,0,0,1,1.21-.53,1.55,1.55,0,0,1,1.17.53,1.78,1.78,0,0,1,.49,1.23,1.71,1.71,0,0,1-.49,1.23,1.55,1.55,0,0,1-1.17.53A1.64,1.64,0,0,1,229,133.8Zm.28-1.23a1.14,1.14,0,0,0,.25.74,1,1,0,0,0,.68.26.9.9,0,0,0,.64-.26,1.05,1.05,0,0,0,.27-.74,1,1,0,0,0-.27-.73,1,1,0,0,0-.64-.27,1,1,0,0,0-.68.27A1.11,1.11,0,0,0,229.25,132.57Z" style="fill:#fff"></path><path d="M234.47,131.19a.4.4,0,0,1-.39.39h-.18v1.95a.39.39,0,0,1,.39.4.38.38,0,0,1-.39.38.78.78,0,0,1-.78-.78v-1.95h-.2a.39.39,0,0,1-.39-.39.38.38,0,0,1,.39-.38h.2v-1a.39.39,0,0,1,.4-.38.38.38,0,0,1,.38.38v1h.18A.39.39,0,0,1,234.47,131.19Z" style="fill:#fff"></path><path d="M235.17,132.56a1.73,1.73,0,0,1,1.71-1.75,1.66,1.66,0,0,1,1.68,1.62v.1a.34.34,0,0,1-.37.28H236a.91.91,0,0,0,.23.46,1.11,1.11,0,0,0,1.4.14.41.41,0,0,1,.53,0,.33.33,0,0,1,0,.46,1.79,1.79,0,0,1-1.25.46A1.74,1.74,0,0,1,235.17,132.56Zm.76-.34h2a1.14,1.14,0,0,0-1-.75A1,1,0,0,0,235.93,132.22Z" style="fill:#fff"></path><path d="M240.11,129.41a.38.38,0,0,1,.39.38v4.14a.38.38,0,0,1-.39.38.39.39,0,0,1-.39-.38v-4.14A.39.39,0,0,1,240.11,129.41Z" style="fill:#fff"></path><path d="M241.25,133.31a.37.37,0,0,1,.53-.06,1.21,1.21,0,0,0,.77.31.93.93,0,0,0,.47-.13c.1-.09.13-.16.13-.21a.12.12,0,0,0,0-.07.36.36,0,0,0-.09-.09,1.7,1.7,0,0,0-.56-.19h0a2.72,2.72,0,0,1-.61-.18,1.19,1.19,0,0,1-.48-.41.83.83,0,0,1-.12-.44,1,1,0,0,1,.41-.77,1.48,1.48,0,0,1,.86-.26,1.82,1.82,0,0,1,1.05.38.38.38,0,0,1,.11.52.36.36,0,0,1-.51.1,1.2,1.2,0,0,0-.65-.26.72.72,0,0,0-.42.13.2.2,0,0,0-.11.16.07.07,0,0,0,0,0,.14.14,0,0,0,.08.07,1.24,1.24,0,0,0,.51.17h0a2.45,2.45,0,0,1,.65.2,1,1,0,0,1,.49.42.86.86,0,0,1,.14.46,1,1,0,0,1-.44.81,1.58,1.58,0,0,1-.91.28,2.08,2.08,0,0,1-1.25-.48A.37.37,0,0,1,241.25,133.31Z" style="fill:#fff"></path><path d="M249.92,132.57v1.37a.37.37,0,0,1-.37.37.37.37,0,0,1-.36-.3,1.59,1.59,0,0,1-.93.3,1.64,1.64,0,0,1-1.19-.51,1.83,1.83,0,0,1,0-2.47,1.59,1.59,0,0,1,2.12-.21.37.37,0,0,1,.73.07Zm-.74,0a1,1,0,0,0-.27-.73.9.9,0,0,0-.65-.28.87.87,0,0,0-.65.28,1.11,1.11,0,0,0,0,1.45.9.9,0,0,0,.65.27.93.93,0,0,0,.65-.27A1,1,0,0,0,249.18,132.57Z" style="fill:#fff"></path><path d="M253.92,131.37l-1.15,2.72a.09.09,0,0,1,0,0h0l0,.05h0l0,0h0s0,0,0,0h-.3l-.06,0h0s0,0,0,0h0l0-.05h0l0,0L251,131.37a.35.35,0,0,1,.2-.48.36.36,0,0,1,.47.21l.81,1.9.81-1.9a.36.36,0,0,1,.47-.21A.37.37,0,0,1,253.92,131.37Z" style="fill:#fff"></path><path d="M258,132.57v1.37a.37.37,0,0,1-.74.07,1.59,1.59,0,0,1-.93.3,1.64,1.64,0,0,1-1.19-.51,1.83,1.83,0,0,1,0-2.47,1.59,1.59,0,0,1,2.12-.21.37.37,0,0,1,.74.07Zm-.75,0a1,1,0,0,0-.27-.73.9.9,0,0,0-.65-.28.87.87,0,0,0-.65.28,1.11,1.11,0,0,0,0,1.45.9.9,0,0,0,.65.27.93.93,0,0,0,.65-.27A1,1,0,0,0,257.27,132.57Z" style="fill:#fff"></path><path d="M260.15,129.93a.38.38,0,0,1-.38.39.39.39,0,0,1-.38-.39v-.14a.38.38,0,0,1,.38-.38.37.37,0,0,1,.38.38Zm0,1.27v2.73a.37.37,0,0,1-.38.38.38.38,0,0,1-.38-.38V131.2a.37.37,0,0,1,.38-.38A.37.37,0,0,1,260.15,131.2Z" style="fill:#fff"></path><path d="M261.64,129.41a.38.38,0,0,1,.39.38v4.14a.39.39,0,0,1-.77,0v-4.14A.38.38,0,0,1,261.64,129.41Z" style="fill:#fff"></path><path d="M265.91,132.57v1.37a.37.37,0,0,1-.73.07,1.61,1.61,0,0,1-.93.3,1.68,1.68,0,0,1-1.2-.51,1.86,1.86,0,0,1,0-2.47,1.65,1.65,0,0,1,1.2-.52,1.62,1.62,0,0,1,.93.31.37.37,0,0,1,.36-.31.38.38,0,0,1,.37.38Zm-.74,0a1.09,1.09,0,0,0-.27-.73.9.9,0,0,0-.65-.28.87.87,0,0,0-.66.28,1.08,1.08,0,0,0-.26.73,1.09,1.09,0,0,0,.26.72.9.9,0,0,0,.66.27.93.93,0,0,0,.65-.27A1.1,1.1,0,0,0,265.17,132.57Z" style="fill:#fff"></path><path d="M267.28,132.57h0v-2.77a.39.39,0,0,1,.77,0v1.31a1.63,1.63,0,0,1,.93-.29,1.75,1.75,0,1,1-1,3.2.37.37,0,0,1-.37.3.38.38,0,0,1-.38-.38Zm.77,0a1,1,0,0,0,.28.69.88.88,0,0,0,.65.29.9.9,0,0,0,.66-.29,1,1,0,0,0,0-1.4.9.9,0,0,0-.66-.29.88.88,0,0,0-.65.29A1,1,0,0,0,268.05,132.57Z" style="fill:#fff"></path><path d="M272.34,129.41a.39.39,0,0,1,.39.38v4.14a.39.39,0,0,1-.78,0v-4.14A.39.39,0,0,1,272.34,129.41Z" style="fill:#fff"></path><path d="M273.71,132.56a1.74,1.74,0,0,1,1.71-1.75,1.67,1.67,0,0,1,1.69,1.62v0s0,.05,0,.06a.33.33,0,0,1-.36.28h-2.23a.93.93,0,0,0,.24.46,1.11,1.11,0,0,0,1.4.14.41.41,0,0,1,.53,0,.33.33,0,0,1,0,.46,1.81,1.81,0,0,1-1.26.46A1.74,1.74,0,0,1,273.71,132.56Zm.77-.34h2a1.16,1.16,0,0,0-1-.75A1,1,0,0,0,274.48,132.22Z" style="fill:#fff"></path><path d="M192.14,99.2V94.1a.47.47,0,0,1,.48-.47.47.47,0,0,1,.48.47v2.08h2.24V94.1a.46.46,0,0,1,.47-.47.47.47,0,0,1,.49.47v5.1a.48.48,0,0,1-.49.48.47.47,0,0,1-.47-.48V97.13H193.1V99.2a.48.48,0,0,1-.48.48A.47.47,0,0,1,192.14,99.2Z" style="fill:#fff"></path><path d="M202.77,94.38a3.15,3.15,0,0,1,0,4.37,2.84,2.84,0,0,1-2.06.93,2.94,2.94,0,0,1-2.12-.93,3.23,3.23,0,0,1,0-4.37,2.9,2.9,0,0,1,2.12-.93A2.8,2.8,0,0,1,202.77,94.38Zm-.11,2.18a2.22,2.22,0,0,0-.59-1.51,1.84,1.84,0,0,0-1.36-.61,1.87,1.87,0,0,0-1.4.61,2.22,2.22,0,0,0-.59,1.51,2.18,2.18,0,0,0,.59,1.51,1.88,1.88,0,0,0,1.4.62,1.85,1.85,0,0,0,1.36-.62A2.18,2.18,0,0,0,202.66,96.56Z" style="fill:#fff"></path><path d="M208.57,94.59h-1.38V99.2a.47.47,0,0,1-.47.48.48.48,0,0,1-.48-.48V94.59h-1.36a.49.49,0,0,1-.48-.49.47.47,0,0,1,.48-.47h3.69a.46.46,0,0,1,.47.47A.49.49,0,0,1,208.57,94.59Z" style="fill:#fff"></path><path d="M210.47,99.2V94.1a.46.46,0,0,1,.47-.47h2.83a.47.47,0,0,1,.47.47.49.49,0,0,1-.47.49h-2.34v1.58h2a.48.48,0,0,1,0,1h-2v1.59h2.34a.48.48,0,0,1,.47.48.48.48,0,0,1-.47.48H211s0,0,0,0h0A.47.47,0,0,1,210.47,99.2Z" style="fill:#fff"></path><path d="M215.59,99.2V94.1a.47.47,0,0,1,.47-.47.48.48,0,0,1,.49.47v4.62h2.34a.48.48,0,0,1,.47.48.48.48,0,0,1-.47.48h-2.83A.48.48,0,0,1,215.59,99.2Z" style="fill:#fff"></path><path d="M223,99.2V94.1a.47.47,0,0,1,.48-.47h1.22a1.64,1.64,0,0,1,1.32,2.62,1.86,1.86,0,0,1-1,3.43h-1.53a0,0,0,0,1,0,0h0A.49.49,0,0,1,223,99.2ZM224,96h.74a.7.7,0,0,0,.69-.7.68.68,0,0,0-.69-.68H224Zm0,2.75h1.08a.9.9,0,0,0,0-1.79H224Z" style="fill:#fff"></path><path d="M232.94,94.38a3.18,3.18,0,0,1,0,4.37,2.84,2.84,0,0,1-2.06.93,2.94,2.94,0,0,1-2.12-.93,3.21,3.21,0,0,1,0-4.37,2.9,2.9,0,0,1,2.12-.93A2.8,2.8,0,0,1,232.94,94.38Zm-.11,2.18a2.22,2.22,0,0,0-.59-1.51,1.84,1.84,0,0,0-1.36-.61,1.86,1.86,0,0,0-1.4.61,2.18,2.18,0,0,0-.59,1.51,2.14,2.14,0,0,0,.59,1.51,1.87,1.87,0,0,0,1.4.62,1.85,1.85,0,0,0,1.36-.62A2.18,2.18,0,0,0,232.83,96.56Z" style="fill:#fff"></path><path d="M240.2,94.38a3.18,3.18,0,0,1,0,4.37,2.84,2.84,0,0,1-2.07.93,2.9,2.9,0,0,1-2.11-.93,3.21,3.21,0,0,1,0-4.37,2.86,2.86,0,0,1,2.11-.93A2.81,2.81,0,0,1,240.2,94.38Zm-.11,2.18a2.27,2.27,0,0,0-.59-1.51,1.88,1.88,0,0,0-2.77,0,2.22,2.22,0,0,0-.59,1.51,2.18,2.18,0,0,0,.59,1.51,1.86,1.86,0,0,0,2.77,0A2.23,2.23,0,0,0,240.09,96.56Z" style="fill:#fff"></path><path d="M242.51,99.2v-5a.48.48,0,1,1,1,0v2.48l2.8-2.81a.47.47,0,0,1,.67,0,.48.48,0,0,1,0,.67L245,96.38,247,98.9a.46.46,0,0,1-.07.66.44.44,0,0,1-.3.12.47.47,0,0,1-.36-.18l-1.86-2.44-.9.91V99.2a.48.48,0,1,1-1,0Z" style="fill:#fff"></path><path d="M248.74,94.1a.47.47,0,0,1,.48-.47.47.47,0,0,1,.48.47v5.1a.48.48,0,0,1-.48.48.47.47,0,0,1-.48-.48Z" style="fill:#fff"></path><path d="M252.27,99.2a.48.48,0,0,1-.47.48.47.47,0,0,1-.47-.48v-5h0a.46.46,0,0,1,.84-.29L255,97.74V94.18a.48.48,0,0,1,.47-.47.48.48,0,0,1,.48.47v5a.49.49,0,0,1-.48.48.44.44,0,0,1-.35-.18.12.12,0,0,1-.05,0l-2.76-3.84Z" style="fill:#fff"></path><path d="M257.28,96.57a3.19,3.19,0,0,1,5.16-2.44.5.5,0,1,1-.61.78,2.22,2.22,0,0,0-1.36-.47,2.13,2.13,0,0,0-1.56.63,2,2,0,0,0,0,3,2.13,2.13,0,0,0,1.56.63,2.38,2.38,0,0,0,1.18-.33V97.18h-1.24a.5.5,0,0,1-.49-.49.49.49,0,0,1,.49-.49h1.72a.49.49,0,0,1,.5.49V98.6a.59.59,0,0,1,0,.14l0,.05h0a.4.4,0,0,1-.16.21,3.18,3.18,0,0,1-5.15-2.43Z" style="fill:#fff"></path><path d="M280.34,67.85H261.23a1.18,1.18,0,0,1-1.18-1.18h0a1.18,1.18,0,0,1,1.18-1.18h19.11a1.18,1.18,0,0,1,1.18,1.18h0A1.18,1.18,0,0,1,280.34,67.85Z" style="fill:#fff"></path><rect x="191.94" y="189.5" width="157.47" height="59.26" style="fill:#fff"></rect><path d="M349.41,248.76l-157.47.31h-.3v-.31l-.07-59.26v-.37h.37l157.47.18h.19v.19Zm0,0-.19-59.26.19.2-157.47.18.38-.38-.07,59.26-.31-.3Z" style="fill:#ebebeb"></path><polygon points="244.92 204.39 245.74 206.05 247.57 206.31 246.24 207.61 246.55 209.43 244.92 208.57 243.28 209.43 243.59 207.61 242.27 206.31 244.1 206.05 244.92 204.39" style="fill:#BA68C8"></polygon><polygon points="252.79 204.39 253.61 206.05 255.44 206.31 254.11 207.61 254.43 209.43 252.79 208.57 251.15 209.43 251.46 207.61 250.14 206.31 251.97 206.05 252.79 204.39" style="fill:#BA68C8"></polygon><polygon points="260.66 204.39 261.48 206.05 263.31 206.31 261.98 207.61 262.3 209.43 260.66 208.57 259.02 209.43 259.33 207.61 258.01 206.31 259.84 206.05 260.66 204.39" style="fill:#BA68C8"></polygon><polygon points="268.53 204.39 269.35 206.05 271.18 206.31 269.85 207.61 270.17 209.43 268.53 208.57 266.89 209.43 267.2 207.61 265.88 206.31 267.71 206.05 268.53 204.39" style="fill:#BA68C8"></polygon><polygon points="276.4 204.39 277.22 206.05 279.05 206.31 277.72 207.61 278.04 209.43 276.4 208.57 274.76 209.43 275.07 207.61 273.75 206.31 275.58 206.05 276.4 204.39" style="fill:#BA68C8"></polygon><rect x="251.99" y="220.37" width="11.28" height="1.72" style="fill:#dbdbdb"></rect><rect x="268.77" y="220.37" width="45.1" height="1.72" style="fill:#dbdbdb"></rect><rect x="242.27" y="199.01" width="38.86" height="2.36" style="fill:#c7c7c7"></rect><rect x="285.7" y="199.01" width="16.67" height="2.36" style="fill:#c7c7c7"></rect><path d="M246.24,220.14a2,2,0,0,0-4,0c-.15,1.52.88,2.91,2,4.17C245.36,223.05,246.39,221.66,246.24,220.14Zm-2,1.09a1.08,1.08,0,1,1,1.08-1.08A1.08,1.08,0,0,1,244.26,221.23Z" style="fill:#263238"></path><rect x="300.14" y="229.03" width="40.39" height="10.23" style="fill:#BA68C8"></rect><polygon points="340.53 226.8 328.25 226.92 315.96 226.97 291.4 227.05 266.83 226.97 254.55 226.92 242.27 226.8 254.55 226.68 266.83 226.63 291.4 226.55 315.96 226.63 328.25 226.68 340.53 226.8" style="fill:#ebebeb"></polygon><rect x="194.18" y="192.24" width="42.55" height="53.79" style="fill:#BA68C8"></rect><rect x="213.15" y="200.64" width="20.95" height="45.39" style="fill:#fff"></rect><rect x="194.18" y="230.85" width="18.97" height="15.17" style="fill:#fff"></rect><rect x="207.36" y="202.49" width="4.95" height="20.72" style="fill:#BA68C8"></rect><rect x="212.45" y="204.14" width="0.56" height="0.84" transform="translate(417.29 -8.17) rotate(90)" style="fill:#BA68C8"></rect><rect x="212.45" y="220.72" width="0.56" height="0.84" transform="translate(433.87 8.42) rotate(90)" style="fill:#BA68C8"></rect><g style="opacity:0.1"><rect x="207.36" y="202.49" width="4.95" height="20.72"></rect><rect x="212.45" y="204.14" width="0.56" height="0.84" transform="translate(417.29 -8.17) rotate(90)"></rect><rect x="212.45" y="220.72" width="0.56" height="0.84" transform="translate(433.87 8.42) rotate(90)"></rect></g><rect x="217.99" y="241.64" width="7.31" height="4.39" style="fill:#BA68C8"></rect><rect x="217.99" y="241.64" width="7.31" height="4.39" style="opacity:0.1"></rect><rect x="213.15" y="202.15" width="7.98" height="1.7" style="fill:#ebebeb"></rect><rect x="222.42" y="202.15" width="7.98" height="1.7" style="fill:#ebebeb"></rect><rect x="213.15" y="205.15" width="7.98" height="1.7" style="fill:#ebebeb"></rect><rect x="222.42" y="205.15" width="7.98" height="1.7" style="fill:#ebebeb"></rect><rect x="213.15" y="208.15" width="7.98" height="1.7" style="fill:#ebebeb"></rect><rect x="222.42" y="208.15" width="7.98" height="1.7" style="fill:#ebebeb"></rect><rect x="213.15" y="211.15" width="7.98" height="1.7" style="fill:#ebebeb"></rect><rect x="222.42" y="211.15" width="7.98" height="1.7" style="fill:#ebebeb"></rect><rect x="213.15" y="214.15" width="7.98" height="1.7" style="fill:#ebebeb"></rect><rect x="222.42" y="214.15" width="7.98" height="1.7" style="fill:#ebebeb"></rect><rect x="213.15" y="217.15" width="7.98" height="1.7" style="fill:#ebebeb"></rect><rect x="222.42" y="217.15" width="7.98" height="1.7" style="fill:#ebebeb"></rect><rect x="213.15" y="220.15" width="7.98" height="1.7" style="fill:#ebebeb"></rect><rect x="222.42" y="220.15" width="7.98" height="1.7" style="fill:#ebebeb"></rect><rect x="213.15" y="223.15" width="7.98" height="1.7" style="fill:#ebebeb"></rect><rect x="222.42" y="223.15" width="7.98" height="1.7" style="fill:#ebebeb"></rect><rect x="213.15" y="226.15" width="7.98" height="1.7" style="fill:#ebebeb"></rect><rect x="222.42" y="226.15" width="7.98" height="1.7" style="fill:#ebebeb"></rect><rect x="213.15" y="229.15" width="7.98" height="1.7" style="fill:#ebebeb"></rect><rect x="222.42" y="229.15" width="7.98" height="1.7" style="fill:#ebebeb"></rect><rect x="213.15" y="232.14" width="7.98" height="1.7" style="fill:#ebebeb"></rect><rect x="222.42" y="232.14" width="7.98" height="1.7" style="fill:#ebebeb"></rect><rect x="213.15" y="235.14" width="7.98" height="1.7" style="fill:#ebebeb"></rect><rect x="222.42" y="235.14" width="7.98" height="1.7" style="fill:#ebebeb"></rect><rect x="213.15" y="238.14" width="7.98" height="1.7" style="fill:#ebebeb"></rect><rect x="222.42" y="238.14" width="7.98" height="1.7" style="fill:#ebebeb"></rect><rect x="194.18" y="232.14" width="7.98" height="1.7" style="fill:#ebebeb"></rect><rect x="203.45" y="232.14" width="7.98" height="1.7" style="fill:#ebebeb"></rect><rect x="194.18" y="235.14" width="7.98" height="1.7" style="fill:#ebebeb"></rect><rect x="203.45" y="235.14" width="7.98" height="1.7" style="fill:#ebebeb"></rect><rect x="194.18" y="238.14" width="7.98" height="1.7" style="fill:#ebebeb"></rect><rect x="203.45" y="238.14" width="7.98" height="1.7" style="fill:#ebebeb"></rect><g style="opacity:0.5"><polygon points="213.15 206.46 213.53 206.85 213.15 206.85 213.15 206.46" style="fill:#fff"></polygon><polygon points="214.83 208.15 216.53 209.85 215.68 209.85 213.97 208.15 214.83 208.15" style="fill:#fff"></polygon><polygon points="219.53 212.85 218.68 212.85 216.97 211.15 217.84 211.15 219.53 212.85" style="fill:#fff"></polygon><polygon points="221.13 214.45 221.13 215.31 219.97 214.15 220.83 214.15 221.13 214.45" style="fill:#fff"></polygon><polygon points="222.42 215.74 222.53 215.85 222.42 215.85 222.42 215.74" style="fill:#fff"></polygon><polygon points="225.53 218.85 224.67 218.85 222.97 217.15 223.83 217.15 225.53 218.85" style="fill:#fff"></polygon><polygon points="228.53 221.85 227.67 221.85 225.97 220.15 226.83 220.15 228.53 221.85" style="fill:#fff"></polygon><polygon points="230.4 223.72 230.4 224.58 228.97 223.15 229.83 223.15 230.4 223.72" style="fill:#fff"></polygon><polygon points="226.17 202.15 227.87 203.85 227 203.85 225.3 202.15 226.17 202.15" style="fill:#fff"></polygon><polygon points="230.4 206.39 230.4 206.85 230 206.85 228.3 205.15 229.16 205.15 230.4 206.39" style="fill:#fff"></polygon><polygon points="213.6 226.15 215.3 227.85 214.44 227.85 213.15 226.56 213.15 226.15 213.6 226.15" style="fill:#fff"></polygon><polygon points="218.3 230.85 217.44 230.85 215.74 229.15 216.6 229.15 218.3 230.85" style="fill:#fff"></polygon><polygon points="219.6 232.14 221.13 233.68 221.13 233.84 220.43 233.84 218.73 232.14 219.6 232.14" style="fill:#fff"></polygon><polygon points="222.6 235.14 224.3 236.84 223.43 236.84 222.42 235.83 222.42 235.14 222.6 235.14" style="fill:#fff"></polygon><polygon points="227.3 239.84 226.44 239.84 224.73 238.14 225.6 238.14 227.3 239.84" style="fill:#fff"></polygon><polygon points="215.97 203.85 215.11 203.85 213.41 202.15 214.27 202.15 215.97 203.85" style="fill:#fff"></polygon><polygon points="218.97 206.85 218.1 206.85 216.4 205.15 217.26 205.15 218.97 206.85" style="fill:#fff"></polygon><polygon points="221.13 209.02 221.13 209.85 221.1 209.85 219.4 208.15 220.26 208.15 221.13 209.02" style="fill:#fff"></polygon><polygon points="224.97 212.85 224.1 212.85 222.42 211.17 222.42 211.15 223.26 211.15 224.97 212.85" style="fill:#fff"></polygon><polygon points="227.96 215.85 227.1 215.85 225.4 214.15 226.26 214.15 227.96 215.85" style="fill:#fff"></polygon><polygon points="230.4 218.29 230.4 218.85 230.1 218.85 228.4 217.15 229.26 217.15 230.4 218.29" style="fill:#fff"></polygon><polygon points="206.82 232.14 208.52 233.84 207.66 233.84 205.96 232.14 206.82 232.14" style="fill:#fff"></polygon><polygon points="211.43 236.76 211.43 236.84 210.66 236.84 208.96 235.14 209.82 235.14 211.43 236.76" style="fill:#fff"></polygon><polygon points="214.52 239.84 213.66 239.84 213.15 239.34 213.15 238.47 214.52 239.84" style="fill:#fff"></polygon><polygon points="217.29 202.15 218.99 203.85 218.56 203.85 216.86 202.15 217.29 202.15" style="fill:#fff"></polygon><polygon points="221.13 206 221.13 206.43 219.85 205.15 220.29 205.15 221.13 206" style="fill:#fff"></polygon><polygon points="224.99 209.85 224.56 209.85 222.86 208.15 223.29 208.15 224.99 209.85" style="fill:#fff"></polygon><polygon points="227.99 212.85 227.56 212.85 225.86 211.15 226.29 211.15 227.99 212.85" style="fill:#fff"></polygon><polygon points="230.4 215.27 230.4 215.7 228.85 214.15 229.28 214.15 230.4 215.27" style="fill:#fff"></polygon><polygon points="198.91 232.14 200.61 233.84 200.18 233.84 198.48 232.14 198.91 232.14" style="fill:#fff"></polygon><polygon points="202.16 235.39 202.16 235.82 201.48 235.14 201.91 235.14 202.16 235.39" style="fill:#fff"></polygon><polygon points="203.45 236.68 203.61 236.84 203.45 236.84 203.45 236.68" style="fill:#fff"></polygon><polygon points="206.61 239.84 206.18 239.84 204.48 238.14 204.91 238.14 206.61 239.84" style="fill:#fff"></polygon><polygon points="213.15 217.8 214.19 218.85 213.76 218.85 213.15 218.23 213.15 217.8" style="fill:#fff"></polygon><polygon points="217.19 221.85 216.77 221.85 215.06 220.15 215.5 220.15 217.19 221.85" style="fill:#fff"></polygon><polygon points="220.19 224.85 219.76 224.85 218.06 223.15 218.49 223.15 220.19 224.85" style="fill:#fff"></polygon><polygon points="221.06 226.15 221.13 226.15 221.13 226.22 221.06 226.15" style="fill:#fff"></polygon><polygon points="223.19 227.85 222.76 227.85 222.42 227.5 222.42 227.07 223.19 227.85" style="fill:#fff"></polygon><polygon points="226.19 230.85 225.76 230.85 224.06 229.15 224.49 229.15 226.19 230.85" style="fill:#fff"></polygon><polygon points="229.19 233.84 228.76 233.84 227.06 232.14 227.49 232.14 229.19 233.84" style="fill:#fff"></polygon><polygon points="230.4 235.14 230.4 235.49 230.06 235.14 230.4 235.14" style="fill:#fff"></polygon><polygon points="219.2 202.15 220.9 203.85 220.69 203.85 218.99 202.15 219.2 202.15" style="fill:#fff"></polygon><polygon points="223.9 206.85 223.68 206.85 222.42 205.58 222.42 205.37 223.9 206.85" style="fill:#fff"></polygon><polygon points="226.9 209.85 226.68 209.85 224.98 208.15 225.2 208.15 226.9 209.85" style="fill:#fff"></polygon><polygon points="229.9 212.85 229.68 212.85 227.98 211.15 228.2 211.15 229.9 212.85" style="fill:#fff"></polygon><polygon points="213.82 229.15 215.52 230.85 215.3 230.85 213.6 229.15 213.82 229.15" style="fill:#fff"></polygon><polygon points="216.81 232.14 218.51 233.84 218.3 233.84 216.6 232.14 216.81 232.14" style="fill:#fff"></polygon><polygon points="221.13 236.46 221.13 236.68 219.6 235.14 219.81 235.14 221.13 236.46" style="fill:#fff"></polygon><polygon points="224.51 239.84 224.3 239.84 222.6 238.14 222.81 238.14 224.51 239.84" style="fill:#fff"></polygon><polygon points="213.15 211.78 214.21 212.85 214 212.85 213.15 212 213.15 211.78" style="fill:#fff"></polygon><polygon points="217.21 215.85 217 215.85 215.3 214.15 215.51 214.15 217.21 215.85" style="fill:#fff"></polygon><polygon points="220.21 218.85 220 218.85 218.3 217.15 218.51 217.15 220.21 218.85" style="fill:#fff"></polygon><polygon points="223.21 221.85 223 221.85 222.42 221.27 222.42 221.06 223.21 221.85" style="fill:#fff"></polygon><polygon points="226.21 224.85 225.99 224.85 224.29 223.15 224.51 223.15 226.21 224.85" style="fill:#fff"></polygon><polygon points="229.21 227.85 228.99 227.85 227.29 226.15 227.51 226.15 229.21 227.85" style="fill:#fff"></polygon><polygon points="230.4 229.15 230.4 229.26 230.29 229.15 230.4 229.15" style="fill:#fff"></polygon><polygon points="194.41 232.14 196.11 233.84 195.89 233.84 194.19 232.14 194.41 232.14" style="fill:#fff"></polygon><polygon points="197.41 235.14 199.11 236.84 198.89 236.84 197.19 235.14 197.41 235.14" style="fill:#fff"></polygon><polygon points="202.11 239.84 201.89 239.84 200.19 238.14 200.41 238.14 202.11 239.84" style="fill:#fff"></polygon></g><rect x="211.61" y="197.19" width="23.89" height="3.45" style="fill:#ebebeb"></rect><rect x="191.94" y="262.69" width="157.47" height="59.26" style="fill:#fff"></rect><path d="M349.41,322l-157.47.3h-.3V322l-.07-59.26v-.38h.37l157.47.18h.19v.2Zm0,0-.19-59.26.19.19-157.47.18.38-.37L192.25,322l-.31-.31Z" style="fill:#ebebeb"></path><polygon points="244.92 277.57 245.74 279.23 247.57 279.5 246.24 280.79 246.55 282.61 244.92 281.75 243.28 282.61 243.59 280.79 242.27 279.5 244.1 279.23 244.92 277.57" style="fill:#BA68C8"></polygon><polygon points="252.79 277.57 253.61 279.23 255.44 279.5 254.11 280.79 254.43 282.61 252.79 281.75 251.15 282.61 251.46 280.79 250.14 279.5 251.97 279.23 252.79 277.57" style="fill:#BA68C8"></polygon><polygon points="260.66 277.57 261.48 279.23 263.31 279.5 261.98 280.79 262.3 282.61 260.66 281.75 259.02 282.61 259.33 280.79 258.01 279.5 259.84 279.23 260.66 277.57" style="fill:#BA68C8"></polygon><polygon points="268.53 277.57 269.35 279.23 271.18 279.5 269.85 280.79 270.17 282.61 268.53 281.75 266.89 282.61 267.2 280.79 265.88 279.5 267.71 279.23 268.53 277.57" style="fill:#ebebeb"></polygon><polygon points="276.4 277.57 277.22 279.23 279.05 279.5 277.72 280.79 278.04 282.61 276.4 281.75 274.76 282.61 275.07 280.79 273.75 279.5 275.58 279.23 276.4 277.57" style="fill:#ebebeb"></polygon><rect x="251.99" y="293.56" width="11.28" height="1.72" style="fill:#dbdbdb"></rect><rect x="268.77" y="293.56" width="45.1" height="1.72" style="fill:#dbdbdb"></rect><rect x="242.27" y="272.19" width="38.86" height="2.36" style="fill:#c7c7c7"></rect><rect x="285.7" y="272.19" width="16.67" height="2.36" style="fill:#c7c7c7"></rect><path d="M246.24,293.32a2,2,0,0,0-4,0c-.15,1.53.88,2.91,2,4.17C245.36,296.23,246.39,294.85,246.24,293.32Zm-2,1.1a1.09,1.09,0,1,1,1.08-1.09A1.08,1.08,0,0,1,244.26,294.42Z" style="fill:#263238"></path><rect x="300.14" y="302.21" width="40.39" height="10.23" style="fill:#BA68C8"></rect><polygon points="340.53 299.98 328.25 300.1 315.96 300.15 291.4 300.23 266.83 300.15 254.55 300.11 242.27 299.98 254.55 299.86 266.83 299.82 291.4 299.73 315.96 299.82 328.25 299.86 340.53 299.98" style="fill:#ebebeb"></polygon><rect x="194.18" y="265.42" width="42.55" height="53.79" style="fill:#BA68C8"></rect><rect x="207.23" y="267.08" width="16.44" height="5.09" style="fill:#BA68C8"></rect><rect x="208.98" y="272.17" width="0.61" height="0.92" style="fill:#BA68C8"></rect><rect x="220.65" y="272.17" width="0.61" height="0.92" style="fill:#BA68C8"></rect><g style="opacity:0.1"><rect x="207.23" y="267.08" width="16.44" height="5.09"></rect><rect x="208.98" y="272.17" width="0.61" height="0.92"></rect><rect x="220.65" y="272.17" width="0.61" height="0.92"></rect></g><rect x="196.57" y="282.47" width="37.76" height="36.74" style="fill:#fff"></rect><path d="M218.44,314.27v4.94h-6v-4.94a3,3,0,1,1,6,0Z" style="fill:#dbdbdb"></path><path d="M204.47,288.68V292h-3.28v-3.29a.86.86,0,0,1,0-.23,1.55,1.55,0,0,1,.3-.75,1.64,1.64,0,0,1,3,1Z" style="fill:#ebebeb"></path><path d="M209.52,288.68V292h-3.28v-3.29a1.61,1.61,0,0,1,.41-1.08.8.8,0,0,1,.13-.13,1.59,1.59,0,0,1,1.1-.43A1.64,1.64,0,0,1,209.52,288.68Z" style="fill:#ebebeb"></path><path d="M214.57,288.68V292h-3.29v-3.29a1.63,1.63,0,0,1,.48-1.15,2.17,2.17,0,0,1,.29-.24,1.67,1.67,0,0,1,.88-.25A1.64,1.64,0,0,1,214.57,288.68Z" style="fill:#ebebeb"></path><path d="M219.62,288.68V292h-3.29v-3.29a1.65,1.65,0,0,1,3.29,0Z" style="fill:#ebebeb"></path><path d="M224.67,288.68V292h-3.29v-3.29a1.64,1.64,0,0,1,1-1.49A1.57,1.57,0,0,1,223,287l.24,0a1.63,1.63,0,0,1,1.39,1.39h0A2,2,0,0,1,224.67,288.68Z" style="fill:#ebebeb"></path><path d="M229.72,288.68V292h-3.29v-3.29a1.65,1.65,0,0,1,.34-1,.53.53,0,0,1,.12-.14,1.59,1.59,0,0,1,1.18-.51A1.65,1.65,0,0,1,229.72,288.68Z" style="fill:#ebebeb"></path><polygon points="219.23 292.09 218.97 292.09 216.33 289.45 216.33 289.19 219.23 292.09" style="fill:#fff;opacity:0.5"></polygon><path d="M204.47,296.87v3.28h-3.28v-3.28a1.64,1.64,0,1,1,3.28,0Z" style="fill:#ebebeb"></path><path d="M209.52,296.87v3.28h-3.28v-3.28a1.66,1.66,0,0,1,.3-1l.12-.14a1.61,1.61,0,0,1,1.22-.55h.1a1.64,1.64,0,0,1,1.54,1.53Z" style="fill:#ebebeb"></path><path d="M214.57,296.87v3.28h-3.29v-3.28a1.65,1.65,0,1,1,3.29,0Z" style="fill:#ebebeb"></path><path d="M219.62,296.87v3.28h-3.29v-3.28a1.65,1.65,0,1,1,3.29,0Z" style="fill:#ebebeb"></path><path d="M224.67,296.87v3.28h-3.29v-3.28a1.65,1.65,0,1,1,3.29,0Z" style="fill:#ebebeb"></path><path d="M229.72,296.87v3.28h-3.29v-3.28a1.65,1.65,0,1,1,3.29,0Z" style="fill:#ebebeb"></path><path d="M204.47,305.05v3.29h-3.28v-3.29a1.64,1.64,0,1,1,3.28,0Z" style="fill:#ebebeb"></path><path d="M209.52,305.05v3.29h-3.28v-3.29a1.72,1.72,0,0,1,.14-.68,1.61,1.61,0,0,1,.2-.33,1.66,1.66,0,0,1,1.3-.63A1.63,1.63,0,0,1,209.52,305.05Z" style="fill:#ebebeb"></path><path d="M214.57,305.05v3.28h-3.29v-3.28a1.65,1.65,0,0,1,3.29,0Z" style="fill:#ebebeb"></path><path d="M219.62,305.05v3.29h-3.29v-3.29a1.63,1.63,0,0,1,.4-1.07,1.67,1.67,0,0,1,.61-.45,1.69,1.69,0,0,1,.64-.12A1.64,1.64,0,0,1,219.62,305.05Z" style="fill:#ebebeb"></path><path d="M224.67,305.05v3.29h-3.29v-3.29a1.65,1.65,0,0,1,1.15-1.57l.21-.05a1.27,1.27,0,0,1,.28,0A1.64,1.64,0,0,1,224.67,305.05Z" style="fill:#ebebeb"></path><path d="M229.72,305.05v3.29h-3.29v-3.29a1.64,1.64,0,0,1,1.26-1.6,1.58,1.58,0,0,1,.38,0h.1a1.64,1.64,0,0,1,1.54,1.54A.31.31,0,0,1,229.72,305.05Z" style="fill:#ebebeb"></path><path d="M201.51,287.7l3,3v1.06l-3.26-3.27A1.55,1.55,0,0,1,201.51,287.7Z" style="fill:#fff;opacity:0.5"></path><path d="M209.52,296.76,208,295.23A1.64,1.64,0,0,1,209.52,296.76Z" style="fill:#fff;opacity:0.5"></path><polygon points="213.96 300.15 212.91 300.15 211.28 298.53 211.28 297.47 213.96 300.15" style="fill:#fff;opacity:0.5"></polygon><path d="M219.62,305.81v1.05L216.73,304a1.67,1.67,0,0,1,.61-.45Z" style="fill:#fff;opacity:0.5"></path><polygon points="222.15 308.33 221.38 308.33 221.38 307.57 222.15 308.33" style="fill:#fff;opacity:0.5"></polygon><polygon points="203.5 308.33 202.44 308.33 201.19 307.08 201.19 306.02 203.5 308.33" style="fill:#fff;opacity:0.5"></polygon><polygon points="229.44 300.15 228.39 300.15 226.43 298.19 226.43 297.14 229.44 300.15" style="fill:#fff;opacity:0.5"></polygon><path d="M224.65,288.45a2,2,0,0,1,0,.23v.84l-2.33-2.33A1.57,1.57,0,0,1,223,287l.24,0Z" style="fill:#fff;opacity:0.5"></path><polygon points="228.17 291.97 227.12 291.97 226.43 291.29 226.43 290.23 228.17 291.97" style="fill:#fff;opacity:0.5"></polygon><polygon points="201.19 290.29 202.87 291.97 202.6 291.97 201.19 290.56 201.19 290.29" style="fill:#fff;opacity:0.5"></polygon><path d="M209.52,298.63v.26l-3-3,.12-.14Z" style="fill:#fff;opacity:0.5"></path><polygon points="219.23 308.33 218.97 308.33 216.33 305.7 216.33 305.44 219.23 308.33" style="fill:#fff;opacity:0.5"></polygon><path d="M209.52,290.21v.27l-2.87-2.88a.8.8,0,0,1,.13-.13Z" style="fill:#fff;opacity:0.5"></path><polygon points="219.46 300.15 219.2 300.15 216.33 297.29 216.33 297.02 219.46 300.15" style="fill:#fff;opacity:0.5"></polygon><path d="M222.74,303.43l1.93,1.93v.26l-2.14-2.14Z" style="fill:#fff;opacity:0.5"></path><polygon points="227.64 308.33 227.38 308.33 226.43 307.38 226.43 307.12 227.64 308.33" style="fill:#fff;opacity:0.5"></polygon><path d="M229.72,290.38v.26l-2.95-2.95a.53.53,0,0,1,.12-.14Z" style="fill:#fff;opacity:0.5"></path><path d="M214.57,289.81v.52l-2.81-2.8a2.17,2.17,0,0,1,.29-.24Z" style="fill:#fff;opacity:0.5"></path><path d="M224.67,299.91v.24h-.28l-3-3v-.27a1.64,1.64,0,0,1,0-.23Z" style="fill:#fff;opacity:0.5"></path><path d="M229.71,305a.31.31,0,0,1,0,.1v.43l-2-2a1.58,1.58,0,0,1,.38,0h.1Z" style="fill:#fff;opacity:0.5"></path><polygon points="201.19 298.65 202.69 300.15 202.16 300.15 201.19 299.18 201.19 298.65" style="fill:#fff;opacity:0.5"></polygon><path d="M209.52,307v.53l-3.14-3.15a1.61,1.61,0,0,1,.2-.33Z" style="fill:#fff;opacity:0.5"></path><rect x="200.77" y="291.54" width="4.13" height="1.12" style="fill:#dbdbdb"></rect><rect x="205.81" y="291.54" width="4.13" height="1.12" style="fill:#dbdbdb"></rect><rect x="210.86" y="291.54" width="4.13" height="1.12" style="fill:#dbdbdb"></rect><rect x="215.91" y="291.54" width="4.13" height="1.12" style="fill:#dbdbdb"></rect><rect x="220.96" y="291.54" width="4.13" height="1.12" style="fill:#dbdbdb"></rect><rect x="226.01" y="291.54" width="4.13" height="1.12" style="fill:#dbdbdb"></rect><rect x="200.77" y="299.72" width="4.13" height="1.12" style="fill:#dbdbdb"></rect><rect x="205.81" y="299.72" width="4.13" height="1.12" style="fill:#dbdbdb"></rect><rect x="210.86" y="299.72" width="4.13" height="1.12" style="fill:#dbdbdb"></rect><rect x="215.91" y="299.72" width="4.13" height="1.12" style="fill:#dbdbdb"></rect><rect x="220.96" y="299.72" width="4.13" height="1.12" style="fill:#dbdbdb"></rect><rect x="226.01" y="299.72" width="4.13" height="1.12" style="fill:#dbdbdb"></rect><rect x="200.77" y="307.9" width="4.13" height="1.12" style="fill:#dbdbdb"></rect><rect x="205.81" y="307.9" width="4.13" height="1.12" style="fill:#dbdbdb"></rect><rect x="210.86" y="307.9" width="4.13" height="1.12" style="fill:#dbdbdb"></rect><rect x="215.91" y="307.9" width="4.13" height="1.12" style="fill:#dbdbdb"></rect><rect x="220.96" y="307.9" width="4.13" height="1.12" style="fill:#dbdbdb"></rect><rect x="226.01" y="307.9" width="4.13" height="1.12" style="fill:#dbdbdb"></rect><rect x="203.69" y="275.79" width="23.52" height="6.68" style="fill:#fff"></rect><rect x="202.44" y="273.09" width="26.02" height="3.32" style="fill:#dbdbdb"></rect><path d="M210.14,278.81v2.94h-2.95v-2.94a1.48,1.48,0,1,1,2.95,0Z" style="fill:#ebebeb"></path><path d="M214.66,278.81v2.94h-2.94v-2.94a1.47,1.47,0,1,1,2.94,0Z" style="fill:#ebebeb"></path><path d="M219.18,278.81v2.94h-2.94v-2.94a1.47,1.47,0,1,1,2.94,0Z" style="fill:#ebebeb"></path><path d="M223.71,278.81v2.94h-3v-2.94a1.48,1.48,0,1,1,3,0Z" style="fill:#ebebeb"></path><polygon points="209.59 281.75 208.65 281.75 207.19 280.29 207.19 279.35 209.59 281.75" style="fill:#fff;opacity:0.5"></polygon><polygon points="223.47 281.75 222.52 281.75 220.76 279.99 220.76 279.05 223.47 281.75" style="fill:#fff;opacity:0.5"></polygon><polygon points="214.52 281.75 214.28 281.75 211.72 279.18 211.72 278.95 214.52 281.75" style="fill:#fff;opacity:0.5"></polygon><path d="M219.18,281.53v.22h-.25l-2.69-2.7v-.24a1.48,1.48,0,0,1,0-.21Z" style="fill:#fff;opacity:0.5"></path><rect x="211.53" y="281.36" width="3.7" height="1" style="fill:#dbdbdb"></rect><rect x="216.05" y="281.36" width="3.7" height="1" style="fill:#dbdbdb"></rect><rect x="220.57" y="281.36" width="3.7" height="1" style="fill:#dbdbdb"></rect><rect x="225.1" y="281.36" width="3.7" height="1" style="fill:#dbdbdb"></rect><rect x="195.4" y="281.36" width="40.1" height="3.35" style="fill:#dbdbdb"></rect><rect x="191.94" y="335.87" width="157.47" height="59.26" style="fill:#fff"></rect><path d="M349.41,395.13l-157.47.3h-.3v-.3l-.07-59.26v-.38h.37l157.47.19h.19v.19Zm0,0-.19-59.26.19.19-157.47.18.38-.37-.07,59.26-.31-.31Z" style="fill:#ebebeb"></path><polygon points="244.92 350.75 245.74 352.41 247.57 352.68 246.24 353.97 246.55 355.8 244.92 354.93 243.28 355.8 243.59 353.97 242.27 352.68 244.1 352.41 244.92 350.75" style="fill:#BA68C8"></polygon><polygon points="252.79 350.75 253.61 352.41 255.44 352.68 254.11 353.97 254.43 355.8 252.79 354.93 251.15 355.8 251.46 353.97 250.14 352.68 251.97 352.41 252.79 350.75" style="fill:#BA68C8"></polygon><polygon points="260.66 350.75 261.48 352.41 263.31 352.68 261.98 353.97 262.3 355.8 260.66 354.93 259.02 355.8 259.33 353.97 258.01 352.68 259.84 352.41 260.66 350.75" style="fill:#BA68C8"></polygon><polygon points="268.53 350.75 269.35 352.41 271.18 352.68 269.85 353.97 270.17 355.8 268.53 354.93 266.89 355.8 267.2 353.97 265.88 352.68 267.71 352.41 268.53 350.75" style="fill:#BA68C8"></polygon><polygon points="276.4 350.75 277.22 352.41 279.05 352.68 277.72 353.97 278.04 355.8 276.4 354.93 274.76 355.8 275.07 353.97 273.75 352.68 275.58 352.41 276.4 350.75" style="fill:#ebebeb"></polygon><rect x="251.99" y="366.74" width="11.28" height="1.72" style="fill:#dbdbdb"></rect><rect x="268.77" y="366.74" width="45.1" height="1.72" style="fill:#dbdbdb"></rect><rect x="242.27" y="345.37" width="38.86" height="2.36" style="fill:#c7c7c7"></rect><rect x="285.7" y="345.37" width="16.67" height="2.36" style="fill:#c7c7c7"></rect><path d="M246.24,366.5a2,2,0,0,0-4,0c-.15,1.53.88,2.91,2,4.17C245.36,369.41,246.39,368,246.24,366.5Zm-2,1.1a1.09,1.09,0,1,1,1.08-1.08A1.08,1.08,0,0,1,244.26,367.6Z" style="fill:#263238"></path><rect x="300.14" y="375.39" width="40.39" height="10.23" style="fill:#BA68C8"></rect><polygon points="340.53 373.17 328.25 373.29 315.96 373.33 291.4 373.42 266.83 373.33 254.55 373.29 242.27 373.17 254.55 373.04 266.83 373 291.4 372.92 315.96 373 328.25 373.04 340.53 373.17" style="fill:#ebebeb"></polygon><rect x="194.18" y="338.6" width="42.55" height="53.79" style="fill:#BA68C8"></rect><polygon points="234.85 372.2 229.44 372.2 229.44 372.2 229.44 349.54 229.44 349.54 234.85 349.54 234.85 372.2" style="fill:#BA68C8"></polygon><rect x="228.68" y="351.34" width="0.61" height="0.92" transform="translate(580.78 122.82) rotate(90)" style="fill:#BA68C8"></rect><rect x="228.68" y="369.48" width="0.61" height="0.92" transform="translate(598.92 140.95) rotate(90)" style="fill:#BA68C8"></rect><g style="opacity:0.1"><polygon points="234.85 372.2 229.44 372.2 229.44 372.2 229.44 349.54 229.44 349.54 234.85 349.54 234.85 372.2"></polygon><rect x="228.68" y="351.34" width="0.61" height="0.92" transform="translate(580.78 122.82) rotate(90)"></rect><rect x="228.68" y="369.48" width="0.61" height="0.92" transform="translate(598.92 140.95) rotate(90)"></rect></g><rect x="194.18" y="347.44" width="34.35" height="44.95" style="fill:#fff"></rect><rect x="194.18" y="343.3" width="35.64" height="4.12" style="fill:#ebebeb"></rect><rect x="210.57" y="385.38" width="7.39" height="7.01" style="fill:#BA68C8"></rect><rect x="210.04" y="384.11" width="8.45" height="1.47" style="fill:#BA68C8"></rect><rect x="196.92" y="351.28" width="4.99" height="8.63" style="fill:#ebebeb"></rect><rect x="203.57" y="351.28" width="4.99" height="8.63" style="fill:#ebebeb"></rect><rect x="210.23" y="351.28" width="4.99" height="8.63" style="fill:#ebebeb"></rect><rect x="216.88" y="351.28" width="4.99" height="8.63" style="fill:#ebebeb"></rect><rect x="223.53" y="351.28" width="4.99" height="8.63" style="fill:#ebebeb"></rect><rect x="196.92" y="362.05" width="4.99" height="8.63" style="fill:#ebebeb"></rect><rect x="203.57" y="362.05" width="4.99" height="8.63" style="fill:#ebebeb"></rect><rect x="210.23" y="362.05" width="4.99" height="8.63" style="fill:#ebebeb"></rect><rect x="216.88" y="362.05" width="4.99" height="8.63" style="fill:#ebebeb"></rect><rect x="223.53" y="362.05" width="4.99" height="8.63" style="fill:#ebebeb"></rect><rect x="196.92" y="372.81" width="4.99" height="8.63" style="fill:#ebebeb"></rect><rect x="203.57" y="372.81" width="4.99" height="8.63" style="fill:#ebebeb"></rect><rect x="210.23" y="372.81" width="4.99" height="8.63" style="fill:#ebebeb"></rect><rect x="216.88" y="372.81" width="4.99" height="8.64" style="fill:#ebebeb"></rect><rect x="223.53" y="372.81" width="4.99" height="8.64" style="fill:#ebebeb"></rect><g style="opacity:0.5"><polygon points="214.89 351.28 215.22 351.28 215.22 351.7 214.89 351.28" style="fill:#fff"></polygon><polygon points="216.88 352.4 221.87 358.78 221.87 359.92 221.65 359.92 216.88 353.82 216.88 352.4" style="fill:#fff"></polygon><polygon points="228.52 367.28 228.52 368.71 223.53 362.33 223.53 362.05 224.43 362.05 228.52 367.28" style="fill:#fff"></polygon><polygon points="196.92 365.79 200.75 370.68 199.63 370.68 196.92 367.21 196.92 365.79" style="fill:#fff"></polygon><polygon points="202.11 372.42 202.19 372.52 202.19 373.95 200.99 372.42 202.11 372.42" style="fill:#fff"></polygon><polygon points="208.56 380.68 208.56 381.44 208.05 381.44 203.57 375.72 203.57 374.29 208.56 380.68" style="fill:#fff"></polygon><polygon points="228.52 357.05 228.52 358.47 223.53 352.09 223.53 351.28 224.01 351.28 228.52 357.05" style="fill:#fff"></polygon><polygon points="196.92 356.19 199.83 359.92 198.72 359.92 196.92 357.62 196.92 356.19" style="fill:#fff"></polygon><polygon points="202.19 362.93 202.19 363.46 201.91 363.46 201.91 364 201.49 363.46 200.38 362.05 201.5 362.05 202.19 362.93" style="fill:#fff"></polygon><polygon points="203.57 364.7 208.25 370.68 207.13 370.68 203.57 366.12 203.57 364.7" style="fill:#fff"></polygon><polygon points="215.22 379.59 215.22 381.01 210.23 374.63 210.23 373.21 215.22 379.59" style="fill:#fff"></polygon><polygon points="196.92 352.4 201.91 358.78 201.91 359.5 196.92 353.12 196.92 352.4" style="fill:#fff"></polygon><polygon points="210.23 369.42 211.21 370.68 210.66 370.68 210.23 370.13 210.23 369.42" style="fill:#fff"></polygon><polygon points="215.22 375.79 215.22 376.51 212.33 372.81 212.88 372.81 215.22 375.79" style="fill:#fff"></polygon><polygon points="219.63 381.44 219.08 381.44 216.88 378.63 216.88 377.92 219.63 381.44" style="fill:#fff"></polygon><polygon points="203.57 352.27 208.56 358.65 208.56 359.36 203.57 352.98 203.57 352.27" style="fill:#fff"></polygon><polygon points="211.22 362.05 215.22 367.16 215.22 367.87 210.66 362.05 211.22 362.05" style="fill:#fff"></polygon><polygon points="216.88 369.29 217.97 370.68 217.41 370.68 216.88 370 216.88 369.29" style="fill:#fff"></polygon><polygon points="219.64 372.81 221.87 375.66 221.87 376.37 219.08 372.81 219.64 372.81" style="fill:#fff"></polygon><polygon points="226.39 381.45 225.83 381.45 223.53 378.51 223.53 377.79 226.39 381.45" style="fill:#fff"></polygon><polygon points="208.52 351.28 208.56 351.34 208.56 352.05 207.96 351.28 208.52 351.28" style="fill:#fff"></polygon><polygon points="215.22 359.85 215.22 359.92 214.72 359.92 210.23 354.18 210.23 353.47 215.22 359.85" style="fill:#fff"></polygon><polygon points="216.94 362.05 221.87 368.35 221.87 369.06 216.88 362.68 216.88 362.05 216.94 362.05" style="fill:#fff"></polygon><polygon points="223.53 370.48 223.69 370.68 223.53 370.68 223.53 370.48" style="fill:#fff"></polygon><polygon points="228.52 376.86 228.52 377.57 224.81 372.81 225.36 372.81 228.52 376.86" style="fill:#fff"></polygon><polygon points="199.38 351.28 201.91 354.52 201.91 354.87 199.1 351.28 199.38 351.28" style="fill:#fff"></polygon><polygon points="206.13 359.92 205.86 359.92 203.57 357 203.57 356.64 206.13 359.92" style="fill:#fff"></polygon><polygon points="210.23 365.15 214.55 370.68 214.27 370.68 210.23 365.5 210.23 365.15" style="fill:#fff"></polygon><polygon points="221.87 380.03 221.87 380.39 216.88 374.01 216.88 373.65 221.87 380.03" style="fill:#fff"></polygon><polygon points="218.49 351.28 221.87 355.61 221.87 355.96 218.21 351.28 218.49 351.28" style="fill:#fff"></polygon><polygon points="225.24 359.92 224.96 359.92 223.53 358.09 223.53 357.73 225.24 359.92" style="fill:#fff"></polygon><polygon points="228.52 364.11 228.52 364.47 226.63 362.05 226.91 362.05 228.52 364.11" style="fill:#fff"></polygon><polygon points="201.68 381.44 201.4 381.44 196.92 375.71 196.92 375.36 201.68 381.44" style="fill:#fff"></polygon></g><rect x="196.64" y="372.42" width="5.54" height="1.81" style="fill:#BA68C8"></rect><rect x="203.3" y="372.42" width="5.54" height="1.81" style="fill:#BA68C8"></rect><rect x="209.95" y="372.42" width="5.54" height="1.81" style="fill:#BA68C8"></rect><rect x="216.6" y="372.42" width="5.54" height="1.81" style="fill:#BA68C8"></rect><rect x="223.26" y="372.42" width="5.54" height="1.81" style="fill:#BA68C8"></rect><rect x="196.64" y="350.89" width="5.54" height="1.81" style="fill:#BA68C8"></rect><rect x="203.3" y="350.89" width="5.54" height="1.81" style="fill:#BA68C8"></rect><rect x="209.95" y="350.89" width="5.54" height="1.81" style="fill:#BA68C8"></rect><rect x="216.6" y="350.89" width="5.54" height="1.81" style="fill:#BA68C8"></rect><rect x="223.26" y="350.89" width="5.54" height="1.81" style="fill:#BA68C8"></rect><rect x="196.64" y="361.65" width="5.54" height="1.81" style="fill:#BA68C8"></rect><rect x="203.3" y="361.65" width="5.54" height="1.81" style="fill:#BA68C8"></rect><rect x="209.95" y="361.65" width="5.54" height="1.81" style="fill:#BA68C8"></rect><rect x="216.6" y="361.65" width="5.54" height="1.81" style="fill:#BA68C8"></rect><rect x="223.26" y="361.65" width="5.54" height="1.81" style="fill:#BA68C8"></rect><rect x="192.14" y="161.66" width="75.18" height="15.3" style="fill:#fff"></rect><path d="M267.32,177l-18.71.13-18.79.08-37.68.13h-.33V177l0-15.29v-.38h.38l37.59.11c12.53.05,25.06,0,37.59.14h.13v.13Zm0,0-.12-15.29.12.12c-12.53.12-25.06.09-37.59.15l-37.59.1.37-.37,0,15.29-.33-.33,37.5.12Z" style="fill:#ebebeb"></path><path d="M228.64,171.27v-4.13a.38.38,0,0,1,.38-.39h2.29a.39.39,0,0,1,0,.78h-1.9v1.28h1.64a.39.39,0,0,1,.38.38.39.39,0,0,1-.38.4h-1.64v1.68a.38.38,0,0,1-.39.38A.37.37,0,0,1,228.64,171.27Z" style="fill:#dbdbdb"></path><path d="M233.56,167.28a.37.37,0,0,1-.38.38.38.38,0,0,1-.38-.38v-.15a.38.38,0,0,1,.38-.38.37.37,0,0,1,.38.38Zm0,1.26v2.73a.37.37,0,0,1-.38.38.37.37,0,0,1-.38-.38v-2.73a.37.37,0,0,1,.38-.38A.37.37,0,0,1,233.56,168.54Z" style="fill:#dbdbdb"></path><path d="M235.05,166.75a.39.39,0,0,1,.39.39v4.13a.38.38,0,0,1-.39.38.39.39,0,0,1-.39-.38v-4.13A.4.4,0,0,1,235.05,166.75Z" style="fill:#dbdbdb"></path><path d="M237.93,168.54a.39.39,0,0,1-.39.38h-.17v2a.38.38,0,0,1,.38.39.37.37,0,0,1-.38.38.78.78,0,0,1-.78-.77v-2h-.21a.39.39,0,0,1,0-.77h.21v-1a.39.39,0,0,1,.78,0v1h.17A.39.39,0,0,1,237.93,168.54Z" style="fill:#dbdbdb"></path><path d="M238.63,169.9a1.74,1.74,0,0,1,1.71-1.75,1.68,1.68,0,0,1,1.69,1.63v0s0,.05,0,.06a.33.33,0,0,1-.36.28h-2.23a.92.92,0,0,0,.24.47,1.13,1.13,0,0,0,.67.31,1.19,1.19,0,0,0,.73-.17.37.37,0,0,1,.52,0,.3.3,0,0,1,0,.45,1.77,1.77,0,0,1-3-1.29Zm.77-.34h2a1.15,1.15,0,0,0-1-.74A1,1,0,0,0,239.4,169.56Z" style="fill:#dbdbdb"></path><path d="M245.15,168.52a.37.37,0,0,1-.37.37.68.68,0,0,0-.42.14,1,1,0,0,0-.32.33,2,2,0,0,0-.29.59v1.33a.38.38,0,0,1-.39.37.37.37,0,0,1-.37-.37v-2.76a.37.37,0,0,1,.37-.36.38.38,0,0,1,.39.36v0a1,1,0,0,1,.15-.14,1.53,1.53,0,0,1,.88-.27A.36.36,0,0,1,245.15,168.52Z" style="fill:#dbdbdb"></path><rect x="214.05" y="166.03" width="7.36" height="0.85" style="fill:#dbdbdb"></rect><rect x="214.05" y="168.86" width="7.36" height="0.85" style="fill:#dbdbdb"></rect><rect x="214.05" y="171.69" width="7.36" height="0.85" style="fill:#dbdbdb"></rect><circle cx="219.46" cy="169.29" r="1.06" style="fill:#dbdbdb"></circle><circle cx="215.45" cy="166.46" r="1.06" style="fill:#dbdbdb"></circle><circle cx="217.33" cy="172.11" r="1.06" style="fill:#dbdbdb"></circle><rect x="274.23" y="161.66" width="75.18" height="15.3" style="fill:#fff"></rect><path d="M349.41,177l-18.71.13-18.79.08-37.68.13h-.33V177l0-15.29v-.38h.37l37.59.11c12.53.05,25.06,0,37.59.14h.13v.13Zm0,0-.12-15.29.12.12c-12.53.12-25.06.09-37.59.15l-37.59.1.38-.37L274.56,177l-.33-.33,37.5.12Z" style="fill:#ebebeb"></path><path d="M317.43,167.14v4.13a.39.39,0,0,1-.4.38.38.38,0,0,1-.38-.38v-3l-1,1.4a.37.37,0,0,1-.31.16h0a.39.39,0,0,1-.32-.16l-1-1.4v3a.39.39,0,0,1-.78,0v-4.13a.4.4,0,0,1,.39-.39h0a.38.38,0,0,1,.3.16l1.4,1.93,1.39-1.93a.4.4,0,0,1,.32-.16h0A.41.41,0,0,1,317.43,167.14Z" style="fill:#dbdbdb"></path><path d="M322,169.91v1.37a.36.36,0,0,1-.37.37.37.37,0,0,1-.36-.3,1.62,1.62,0,0,1-2.12-.21,1.78,1.78,0,0,1-.48-1.23,1.77,1.77,0,0,1,.48-1.23,1.58,1.58,0,0,1,1.19-.53,1.6,1.6,0,0,1,.93.31.37.37,0,0,1,.73.07Zm-.74,0a1,1,0,0,0-.27-.72.87.87,0,0,0-.65-.29.83.83,0,0,0-.65.29,1,1,0,0,0-.27.72,1,1,0,0,0,.27.72.85.85,0,0,0,.65.27.89.89,0,0,0,.65-.27A1,1,0,0,0,321.26,169.91Z" style="fill:#dbdbdb"></path><path d="M323.37,172.59v-2.67h0v-1.39a.39.39,0,0,1,.76-.08,1.78,1.78,0,0,1,.95-.29,1.74,1.74,0,0,1,1.7,1.76,1.73,1.73,0,0,1-1.7,1.74,1.66,1.66,0,0,1-.94-.29v1.23a.39.39,0,0,1-.77,0Zm.77-2.68a1,1,0,0,0,.28.7.83.83,0,0,0,.66.29.87.87,0,0,0,.66-.29,1,1,0,0,0,.27-.7,1.09,1.09,0,0,0-.27-.71.91.91,0,0,0-.66-.29.86.86,0,0,0-.66.29A1,1,0,0,0,324.14,169.91Z" style="fill:#dbdbdb"></path><polygon points="298.7 173.81 296.3 172.89 296.3 164.8 298.7 165.72 298.7 173.81" style="fill:#dbdbdb"></polygon><polygon points="303.49 173.81 301.09 172.89 301.09 164.8 303.49 165.72 303.49 173.81" style="fill:#dbdbdb"></polygon><polygon points="301.09 172.89 298.7 173.81 298.7 165.72 301.09 164.8 301.09 172.89" style="fill:#ebebeb"></polygon><polygon points="305.89 172.89 303.49 173.81 303.49 165.72 305.89 164.8 305.89 172.89" style="fill:#ebebeb"></polygon></g><g id="freepik--Character--inject-50"><rect x="106.26" y="259.93" width="3.87" height="57.79" transform="translate(216.39 577.66) rotate(180)" style="fill:#dbdbdb"></rect><rect x="67.75" y="259.93" width="3.87" height="57.79" transform="translate(139.38 577.66) rotate(180)" style="fill:#dbdbdb"></rect><rect x="104.73" y="255.58" width="6.72" height="8.91" transform="translate(216.19 520.07) rotate(180)" style="fill:#263238"></rect><rect x="66.33" y="255.58" width="6.72" height="8.91" transform="translate(139.38 520.07) rotate(180)" style="fill:#263238"></rect><polygon points="66.33 253.32 66.33 260.04 75.96 260.04 77.85 261.38 99.94 261.38 101.83 260.04 111.45 260.04 111.45 253.32 101.83 253.32 99.94 254.66 77.85 254.66 75.96 253.32 66.33 253.32" style="fill:#263238"></polygon><rect x="46.52" y="317.72" width="84.85" height="120.43" transform="translate(177.89 755.88) rotate(180)" style="fill:#BA68C8"></rect><rect x="46.52" y="317.72" width="84.85" height="120.43" transform="translate(177.89 755.88) rotate(180)" style="opacity:0.1"></rect><rect x="55.83" y="327.04" width="66.23" height="101.8" transform="translate(177.89 755.88) rotate(180)" style="fill:#BA68C8"></rect><g style="opacity:0.1"><path d="M114.8,331.38c-.18,7.76-.26,15.52-.33,23.28l-.1,23.28.1,23.28.12,11.64.21,11.65.22-11.65.12-11.64.1-23.28-.1-23.28C115.07,346.9,115,339.14,114.8,331.38Z"></path><path d="M106.23,331.38c-.18,7.76-.26,15.52-.33,23.28l-.1,23.28.1,23.28.12,11.64.21,11.65.22-11.65.12-11.64.1-23.28-.1-23.28C106.5,346.9,106.41,339.14,106.23,331.38Z"></path><path d="M97.66,331.38c-.18,7.76-.26,15.52-.33,23.28l-.11,23.28.1,23.28.13,11.64.21,11.65.21-11.65L98,401.22l.1-23.28L98,354.66C97.92,346.9,97.84,339.14,97.66,331.38Z"></path><path d="M89.09,331.38c-.18,7.76-.27,15.52-.34,23.28l-.1,23.28.1,23.28.12,11.64.22,11.65.21-11.65.12-11.64.1-23.28-.1-23.28C89.35,346.9,89.27,339.14,89.09,331.38Z"></path><path d="M80.52,331.38c-.18,7.76-.27,15.52-.34,23.28l-.1,23.28.1,23.28.12,11.64.22,11.65.21-11.65.12-11.64.1-23.28-.1-23.28C80.78,346.9,80.7,339.14,80.52,331.38Z"></path><path d="M71.94,331.38c-.18,7.76-.26,15.52-.33,23.28l-.1,23.28.1,23.28.12,11.64.21,11.65.22-11.65.12-11.64.1-23.28-.1-23.28C72.21,346.9,72.12,339.14,71.94,331.38Z"></path><path d="M63.37,331.38c-.18,7.76-.26,15.52-.33,23.28l-.1,23.28.1,23.28.12,11.64.21,11.65.22-11.65.12-11.64.1-23.28-.1-23.28C63.64,346.9,63.55,339.14,63.37,331.38Z"></path></g><polygon points="131.37 428.89 115.39 428.89 108.99 438.16 131.37 438.16 131.37 428.89" style="fill:#263238"></polygon><polygon points="46.52 428.89 62.5 428.89 68.89 438.16 46.52 438.16 46.52 428.89" style="fill:#263238"></polygon><polygon points="131.37 345.6 135.83 344.72 135.83 334.73 131.37 333.86 131.37 345.6" style="fill:#263238"></polygon><polygon points="131.37 422.02 135.83 421.15 135.83 411.16 131.37 410.28 131.37 422.02" style="fill:#263238"></polygon><path d="M39.15,377.94c0,18.31,4.46,29.54,4.46,29.54h2.91v-17H42.83V365.35h3.69v-17H43.61S39.15,359.63,39.15,377.94Z" style="fill:#263238"></path><path d="M41.81,401.41a50,50,0,0,0,1.8,6.07h2.91v-6.07Z" style="fill:#dbdbdb"></path><path d="M41.81,354.47h4.71V348.4H43.61A50,50,0,0,0,41.81,354.47Z" style="fill:#dbdbdb"></path><path d="M88.51,311.23c-18.31,0-22.56,4.46-22.56,4.46v2H76.79v-2.81h23.43v2.81h11.71v-2S106.81,311.23,88.51,311.23Z" style="fill:#263238"></path><polygon points="121.31 445.59 125.26 445.59 127.88 438.16 119.34 438.16 121.79 441.88 121.31 445.59" style="fill:#263238"></polygon><path d="M117.64,447.85a5.45,5.45,0,1,0,5.45-5.45A5.44,5.44,0,0,0,117.64,447.85Z" style="fill:#263238"></path><circle cx="123.09" cy="447.85" r="2.98" style="fill:#dbdbdb"></circle><path d="M123,446c0,.43,0,.78.11.78s.12-.35.12-.78-.06-.77-.12-.77S123,445.61,123,446Z" style="fill:#263238"></path><path d="M124.32,446.53c-.3.3-.51.58-.47.63s.33-.17.63-.47.51-.58.47-.63S124.62,446.23,124.32,446.53Z" style="fill:#263238"></path><ellipse cx="124.89" cy="447.9" rx="0.77" ry="0.11" style="fill:#263238"></ellipse><path d="M124.4,449.08c-.3-.3-.58-.51-.62-.47s.16.33.46.63.59.51.63.47S124.71,449.38,124.4,449.08Z" style="fill:#263238"></path><ellipse cx="123.03" cy="449.65" rx="0.11" ry="0.77" style="fill:#263238"></ellipse><path d="M121.85,449.16c.31-.3.51-.58.47-.62s-.33.16-.63.46-.51.59-.47.63S121.55,449.47,121.85,449.16Z" style="fill:#263238"></path><path d="M121.28,447.91c.43,0,.78-.05.78-.12s-.35-.11-.78-.11-.77.05-.77.11S120.85,447.91,121.28,447.91Z" style="fill:#263238"></path><path d="M121.77,446.61c.3.31.58.51.63.47s-.17-.33-.47-.63-.58-.51-.63-.47S121.47,446.31,121.77,446.61Z" style="fill:#263238"></path><polygon points="56.58 445.59 52.63 445.59 50.01 438.16 58.54 438.16 56.1 441.88 56.58 445.59" style="fill:#263238"></polygon><path d="M60.25,447.85a5.45,5.45,0,1,1-5.45-5.45A5.44,5.44,0,0,1,60.25,447.85Z" style="fill:#263238"></path><path d="M57.78,447.85a3,3,0,1,1-3-3A3,3,0,0,1,57.78,447.85Z" style="fill:#dbdbdb"></path><ellipse cx="54.74" cy="446.04" rx="0.11" ry="0.77" style="fill:#263238"></ellipse><path d="M53.57,446.53c.3.3.51.58.46.63s-.32-.17-.63-.47-.51-.58-.46-.63S53.26,446.23,53.57,446.53Z" style="fill:#263238"></path><path d="M53,447.79c.42,0,.77,0,.77.11s-.35.12-.77.12-.78-.06-.78-.12S52.57,447.79,53,447.79Z" style="fill:#263238"></path><path d="M53.48,449.08c.3-.3.59-.51.63-.47s-.16.33-.47.63-.58.51-.63.47S53.18,449.38,53.48,449.08Z" style="fill:#263238"></path><path d="M54.74,449.65c0-.43,0-.77.11-.77s.12.34.12.77,0,.78-.12.78S54.74,450.08,54.74,449.65Z" style="fill:#263238"></path><path d="M56,449.16c-.3-.3-.51-.58-.46-.62s.32.16.62.46.52.59.47.63S56.33,449.47,56,449.16Z" style="fill:#263238"></path><ellipse cx="56.6" cy="447.79" rx="0.77" ry="0.12" style="fill:#263238"></ellipse><path d="M56.12,446.61c-.3.31-.59.51-.63.47s.16-.33.47-.63.58-.51.62-.47S56.42,446.31,56.12,446.61Z" style="fill:#263238"></path><path d="M182.08,460.08c-2.32.29-65.57-14.47-67.63-16.46-.25-.22,2.74-12.36,2.74-12.36,1-5,15.57-45.8,15.57-45.8l41.35,10.21-15.62,37.81s7.88,5.33,14.66,10.42v0a86.9,86.9,0,0,1,8.57,6.86C183.74,453.18,184.39,459.81,182.08,460.08Z" style="fill:#ad6359"></path><path d="M182.08,460.08c-2.32.29-65.57-14.47-67.62-16.46-.25-.22,2.74-12.37,2.74-12.37.33-1.63,2.32-7.15,4.87-13.82l39.58,9.22-3.16,6.83s7.88,5.33,14.66,10.42v0a89.85,89.85,0,0,1,8.57,6.86C183.75,453.19,184.39,459.81,182.08,460.08Z" style="fill:#ebebeb"></path><path d="M182.26,460.26c-2.4.25-66.16-14-68.24-16.13-.8-.77,4.86-21.31,4.88-21.43l40.81,9-.17.69s20.51,15.73,22.56,18.26S184.65,460,182.26,460.26Z" style="fill:#BA68C8"></path><path d="M182.09,457.63C171.4,455,128,445.18,117.27,443.35c-.09,0-.1,0,0,.07,10.54,2.88,54,12.3,64.8,14.39C182.28,457.85,182.32,457.69,182.09,457.63Z" style="fill:#263238"></path><path d="M162.82,432.2c-4-1.73-9.37-2.24-13.28,0-.15.09,0,.3.12.29a61,61,0,0,1,13,.2A.28.28,0,0,0,162.82,432.2Z" style="fill:#263238"></path><path d="M165.46,434.73c-4.05-1.74-9.37-2.25-13.28,0-.15.09,0,.31.12.29a60.3,60.3,0,0,1,13,.21A.28.28,0,0,0,165.46,434.73Z" style="fill:#263238"></path><path d="M168.1,437.25c-4-1.74-9.37-2.25-13.28,0-.15.09,0,.31.12.29a61.61,61.61,0,0,1,13,.21A.28.28,0,0,0,168.1,437.25Z" style="fill:#263238"></path><path d="M170.39,424.22c-1.15-2.65-4.48-2.32-6.57-1.23a23,23,0,0,0-8.69,8.21.12.12,0,0,0,.06.18.53.53,0,0,0,.55.67c3.78-.51,7.89-.58,11.4-2.24C169.19,428.85,171.47,426.74,170.39,424.22Zm-9.08,5.89c-1.85.29-3.71.5-5.55.86a69.78,69.78,0,0,1,5.18-4.69,24.9,24.9,0,0,1,2.78-1.91c1.52-.86,7.05-2.18,5.26,2.29C168,429.12,163.52,429.76,161.31,430.11Z" style="fill:#263238"></path><path d="M144.62,427.69c3.16,2.26,7.18,3.09,10.81,4.28.37.12.66-.24.66-.57a.11.11,0,0,0,.09-.16,23.07,23.07,0,0,0-7-9.66c-1.86-1.45-5.07-2.38-6.69,0S142.78,426.37,144.62,427.69Zm-1.23-3.44c-.94-4.72,4.26-2.42,5.59-1.29a25.67,25.67,0,0,1,2.39,2.39,68.83,68.83,0,0,1,4.23,5.55c-1.74-.69-3.53-1.23-5.3-1.86C148.19,428.29,143.91,426.85,143.39,424.25Z" style="fill:#263238"></path><path d="M161.72,432.06l-44.11-9.88S154,320.75,150.77,316.48c-1.61-2.14-42.48-2.77-55.48-13.78-16.88-14.3-5.55-36.16-5.55-36.16l45.64-1.35s-.55,9.53,1.23,11c1.17,1,55.55,5.53,61.53,23.85C205.46,322.49,161.72,432.06,161.72,432.06Z" style="fill:#37474f"></path><path d="M163,424.08c-1.16-.49-12.55-3.72-15.1-4.38-5.14-1.31-10.29-2.6-15.45-3.81-2.69-.64-8.46-2-8.8-2a.14.14,0,0,0,0,.28c5,1.57,10.12,2.94,15.21,4.33s22.56,5.65,24.07,5.82C163,424.36,163.15,424.15,163,424.08Z" style="fill:#263238"></path><path d="M158.57,312.7c-.91-.79-2.29-.88-3.44-1.07l-19.76-3.32c-6.17-1-12.37-1.95-18.5-3.13-5.08-1-10.25-2.3-14.65-5.06a21.2,21.2,0,0,1-9-11.74,37.6,37.6,0,0,1-1.16-15c.11-1.22.34-2.45.57-3.66,0-.09-.13-.12-.15,0-1.67,9.35-1.82,20.2,5.19,27.65,3.42,3.63,8.11,5.76,12.9,7.15,5.41,1.56,11.06,2.29,16.6,3.22L147,311c3.17.52,6.39.94,9.53,1.59a3.29,3.29,0,0,1,1.72.76,2.45,2.45,0,0,1,.28,2.29c-.32,1.55-.74,3.08-1.18,4.6-3.6,12.27-27.87,87.85-28.58,89.2-.08.14.15.25.22.11,6-10.76,23.64-73,27.63-84.62a72.67,72.67,0,0,0,2.59-9C159.41,314.76,159.54,313.52,158.57,312.7Z" style="fill:#263238"></path><path d="M269.17,460.76c-2.21.74-65.52-.15-67.93-1.69-.94-.89-1.68-9-2.25-19.06L188.1,396.83l40.72-.33,11.93,42.88s8.79,3.66,16.44,7.3l0,0a90.21,90.21,0,0,1,9.77,5C269.42,453.67,271.38,460,269.17,460.76Z" style="fill:#ad6359"></path><path d="M270.47,460.8c-2.29.76-67.64.45-70.12-1.14-.95-.59-1.46-10.1-1.74-21.61,0-.13,0-.25,0-.37l42.16-.26,0,.71s25,11.29,27.51,13.33S272.75,460.06,270.47,460.8Z" style="fill:#BA68C8"></path><path d="M269.74,458.27c-11-.32-55.47-.59-66.38-.07-.09,0-.09.06,0,.07,10.91.56,55.36.46,66.38.18C270,458.44,270,458.28,269.74,458.27Z" style="fill:#263238"></path><path d="M245.46,437.56c-4.33-.83-9.64-.19-13,2.88-.13.12,0,.3.19.25a60.81,60.81,0,0,1,12.76-2.58A.28.28,0,0,0,245.46,437.56Z" style="fill:#263238"></path><path d="M248.58,439.46c-4.33-.83-9.64-.19-13,2.88-.13.11,0,.3.19.25A61.48,61.48,0,0,1,248.56,440,.27.27,0,0,0,248.58,439.46Z" style="fill:#263238"></path><path d="M251.7,441.36c-4.34-.83-9.64-.19-13,2.87-.13.12,0,.3.19.26a61.48,61.48,0,0,1,12.76-2.59A.27.27,0,0,0,251.7,441.36Z" style="fill:#263238"></path><path d="M251.14,428.15c-1.69-2.36-4.87-1.32-6.69.19a23.18,23.18,0,0,0-6.72,9.89.11.11,0,0,0,.1.15.55.55,0,0,0,.68.55c3.58-1.31,7.58-2.26,10.66-4.63C251,432.92,252.74,430.37,251.14,428.15Zm-7.6,7.69c-1.75.68-3.52,1.28-5.24,2a66.65,66.65,0,0,1,4-5.69,25.67,25.67,0,0,1,2.31-2.47c1.3-1.16,6.41-3.63,5.63,1.11C249.85,433.44,245.62,435,243.54,435.84Z" style="fill:#263238"></path><path d="M226.72,437c3.56,1.54,7.67,1.48,11.47,1.87a.54.54,0,0,0,.52-.69.12.12,0,0,0,.06-.18,23.13,23.13,0,0,0-9-7.93c-2.13-1-5.47-1.24-6.53,1.45S224.64,436.15,226.72,437ZM224.77,434c-1.93-4.41,3.64-3.27,5.18-2.46a24.15,24.15,0,0,1,2.85,1.82,69.87,69.87,0,0,1,5.33,4.52c-1.85-.3-3.72-.45-5.58-.68C230.33,436.87,225.84,436.38,224.77,434Z" style="fill:#263238"></path><path d="M243.8,437.87l-47.53,0s-20.34-97.72-23.94-102.32c-4.8-6.13-72-6-86.36-26-12.94-17.95-2-43.36-2-43.36l50.86-1.51a105.31,105.31,0,0,1-4.71,16s61.26,11.29,78.42,30C220.11,323.38,243.8,437.87,243.8,437.87Z" style="fill:#37474f"></path><path d="M139,277.18a23.51,23.51,0,0,0-4.31,1.38c-1.46.55-2.9,1.18-4.3,1.87a86,86,0,0,0-8.05,4.54c-.08,0,0,.17.08.12,2.75-1.42,5.59-2.71,8.44-3.93l4.11-1.77a43.89,43.89,0,0,0,4.15-1.83C139.27,277.46,139.17,277.14,139,277.18Z" style="fill:#263238"></path><path d="M135.92,264.64c-.58,2.32-1.09,4.65-1.76,6.95-.3,1.06-.6,2.13-1,3.15-.34.86-.85,1.85-1.85,2-1.15.22-1.48-.76-1.39-1.71s.38-2.13.59-3.17c.24-1.2.49-2.41.71-3.62.1-.6.22-1.2.32-1.81,0-.15.14-1.31.22-1.64,0,0,0,.06.07.05h0a.07.07,0,0,0,.07-.06c0-.09,0-.11-.06-.17a.09.09,0,0,0-.11,0c-.22.12-.23.43-.3.65-.19.58-.38,1.17-.55,1.76-.32,1.11-.64,2.22-.92,3.34s-.55,2.23-.83,3.35a5.11,5.11,0,0,0-.22,2.57,2,2,0,0,0,1.82,1.49,1.55,1.55,0,0,0-.12.22c-.1.23-.18.47-.27.71s-.16.48-.23.72a1.53,1.53,0,0,0-.07.36c0,.13,0,.27,0,.4a.19.19,0,0,0,.36.13,3.53,3.53,0,0,1,.21-.32,2.71,2.71,0,0,0,.17-.39c.08-.23.14-.47.2-.7s.13-.47.18-.71,0-.29,0-.43a2.7,2.7,0,0,0,1.34-.51,4.5,4.5,0,0,0,1.39-2.11c.35-1,.62-2,.89-3a44.28,44.28,0,0,0,1.48-7.47A.21.21,0,0,0,135.92,264.64Z" style="fill:#263238"></path><path d="M238.88,429.36a37.29,37.29,0,0,0-3.81-.24l-4-.15q-4-.12-7.9-.14c-5.31,0-10.61,0-15.91.07-2.77,0-8.7.12-9,.23a.14.14,0,0,0,0,.27c5.26.28,10.53.36,15.8.46s10.53.18,15.79.09c1.46,0,2.92-.08,4.37-.12a44.5,44.5,0,0,0,4.62-.2C239,429.61,239.05,429.38,238.88,429.36Z" style="fill:#263238"></path><path d="M177.87,336.18a14.34,14.34,0,0,0-2-4.09,7.36,7.36,0,0,0-3.9-2c-12.67-3.47-25.74-5-38.62-7.46a157.51,157.51,0,0,1-18.8-4.58,73,73,0,0,1-17.79-8,19.94,19.94,0,0,1-6.54-6.91,30.07,30.07,0,0,1-3.08-8.63,52.93,52.93,0,0,1,0-20.87,49.77,49.77,0,0,1,1.3-5.08c0-.1-.12-.14-.16,0a50.8,50.8,0,0,0-2.86,20.74c.46,6.11,1.94,12.54,5.89,17.39a24.61,24.61,0,0,0,7.31,5.74,77.84,77.84,0,0,0,9,4.22,119.46,119.46,0,0,0,18.46,5.51c12.85,2.84,26,4.29,38.81,7.14,1.59.36,3.17.73,4.74,1.13a16.68,16.68,0,0,1,4.67,1.5c1.52.95,2,2.85,2.63,4.43.66,1.74,21.32,88.68,21.78,90.43a.23.23,0,0,0,.44-.13C197.38,419.48,179.21,339.61,177.87,336.18Z" style="fill:#263238"></path><path d="M174.12,338c-.48-1.53-.9-3.17-2.33-4.09s-21.75-3.65-24-4c-.11,0-.15.15,0,.17,2,.33,20.74,3.69,22.42,4.25a3.73,3.73,0,0,1,1.83,1.18,8,8,0,0,1,1.07,2.55c.58,1.82,8.07,33.28,9.15,37.49.08.32.54.17.48-.14C181.23,367.54,174.72,339.94,174.12,338Z" style="fill:#263238"></path><path d="M130.34,280.78a171.86,171.86,0,0,1,27.75,5.69,194.34,194.34,0,0,1,26.77,9.68c4.86,2.19,9.57,4.63,14.24,7.19.1.05,0,.19-.08.14a217.9,217.9,0,0,0-26-11.35,209,209,0,0,0-27.11-7.86c-5.18-1.13-10.4-2-15.63-2.87C129.9,281.34,130,280.75,130.34,280.78Z" style="fill:#263238"></path><path d="M176.23,178.42,167,208a1.07,1.07,0,0,0,.9,1.65l15.46.87a2.5,2.5,0,0,0,2.23-1.47l9.24-29.55c.37-.86,0-1.6-.9-1.64L178.47,177A2.5,2.5,0,0,0,176.23,178.42Z" style="fill:#37474f"></path><path d="M178.07,178.51l-9.23,29.54c-.37.86,0,1.6.89,1.65l15.46.87a2.51,2.51,0,0,0,2.24-1.48l9.23-29.54c.37-.86,0-1.6-.89-1.65L180.3,177A2.51,2.51,0,0,0,178.07,178.51Z" style="fill:#455a64"></path><path d="M182.23,180.11A1.31,1.31,0,1,1,181,178.7,1.31,1.31,0,0,1,182.23,180.11Z" style="fill:#263238"></path><path d="M123.84,221c7.53,19.19,25.6,44.65,33.71,45.29,3.87.3,10.71,1.67,16.07-2.44,11.7-9,22.16-26.9,24.73-37.39.92-3.73-16.91-13.11-19.82-10.21-6.82,6.79-15.12,20.43-16.24,20.27-4.13-.59-19.51-15.18-30.24-25.46C119,198.59,120.84,213.35,123.84,221Z" style="fill:#ad6359"></path><path d="M200.08,207c-1.45-7.79-3-9.57-.74-16.79,1.49-4.74-.9-7.72-4.56-4.08-6,6-6.24,16.4-5.29,20Z" style="fill:#ad6359"></path><path d="M197.24,229.69s4.12-10.46,3.4-18.91c-.5-5.85-3-18.44-18.78-26-3.74-1.8-10.35-1.71-5.3,3.45,3.58,3.66,7,4.9,8.66,7.41,0,0-8.4,1.12-10.05,4.94a75.33,75.33,0,0,0-3.62,10.29,16,16,0,0,0,1.86.85s-1.44,3.62,1,9.05Z" style="fill:#ad6359"></path><path d="M199.28,205.27c-2.22-2.13-7-6.58-12.14-8.87-5.73-2.54-17.46-5.88-19.29-1.63-1.34,3.12,3,4.79,3,4.79s-5.14-.36-5.73,2.72c-.55,2.8,2.91,3.9,2.91,3.9s-3.16.31-3.16,3.12c0,3.37,6.61,2.15,9.56,5.57C175.11,215.64,199.28,205.27,199.28,205.27Z" style="fill:#ad6359"></path><path d="M185.47,202.91A24.93,24.93,0,0,0,171,199.48c-.13,0-.19.12-.07.13A61.91,61.91,0,0,1,185.45,203,0,0,0,0,0,185.47,202.91Z" style="fill:#263238"></path><path d="M182.74,208.62c-2.23-1.23-9-3.39-14.67-2.56-.13,0-.18.13-.06.13a66.94,66.94,0,0,1,14.71,2.48S182.77,208.63,182.74,208.62Z" style="fill:#263238"></path><path d="M198.35,236.29S181,263,172.05,265.83s-14.16,1.76-17.38,1.06a8.89,8.89,0,0,1-3.33-1.89c-8.4-6.87-22.73-30.17-28.31-43.1-4.19-9.72-3.1-18.2,4-15a24.81,24.81,0,0,1,6.44,4.74c12.66,12.11,27.51,23.83,28.28,23.49s9.27-12,9.27-12Z" style="fill:#BA68C8"></path><path d="M151.34,265c-8.4-6.87-22.73-30.17-28.31-43.1-4.19-9.72-3.1-18.2,4-15C130.28,214.55,144.41,248,151.34,265Z" style="opacity:0.1"></path><path d="M193.58,240c-1-.62-10.15-4.91-12.17-5.8s-10.23-4.6-12.39-5.34a.08.08,0,1,0-.06.14c2,1.13,10.25,4.9,12.28,5.85s11.23,5,12.29,5.3C193.62,240.16,193.65,240,193.58,240Z" style="fill:#263238"></path><path d="M161.76,235.14c-.76,1.17-1.55,2.27-2.35,3.37a40.11,40.11,0,0,1-2.56,3.22,13.62,13.62,0,0,1,2-3.67A12.25,12.25,0,0,1,161.76,235.14Z" style="fill:#263238"></path><path d="M140.3,276c-1.44,1.4-63.05,7.81-63.35,7.4-.82-1.12,10.69-58.93,35.36-78.85,4.35-3.51,11.6-2,14.88.07,1.65,1.05,6.19,9.35,7.49,16.74S141.21,275.15,140.3,276Z" style="fill:#ebebeb"></path><path d="M113.93,203.14s6.72,34.93,6.94,36.36-.76,40.32-.76,40.32l-45.75,5.65s5.17-19.32,5.44-20.24,10-33,20.38-47.35C109.76,204.68,113.93,203.14,113.93,203.14Z" style="fill:#BA68C8"></path><path d="M128.14,205.17s4.62,31,4.75,33,3.62,39.64,3.62,39.64l5.65-2.11S139,251.11,138.64,249s-3-25-4-29.22C133.09,213,128.14,205.17,128.14,205.17Z" style="fill:#BA68C8"></path><path d="M111.79,204.65C87.21,214.06,57.61,238,58.25,247.08c.71,10.1,36-3.15,35.82-4.67-.16-1.3,8-11.21,19.68-25.42C125.62,202.55,117.87,202.33,111.79,204.65Z" style="fill:#BA68C8"></path><path d="M58.25,247.08c1.32,7.14,11.16,12.86,34.59,29.59,3.24,2.31,25.73-16.17,22.4-18.82-4.2-3.34-21.23-15.38-22.58-16.1C81.22,235.64,57.35,242.23,58.25,247.08Z" style="fill:#ad6359"></path><path d="M110.63,254.34s10.14,6.6,14.4,11.72c5.7,6.85,7.8,15.11,8.47,18.63,1.4,7.34-.28,26.05-5.76,26.5-5,.42-2.26-18.63-2.26-18.63s.46,19.87-5.6,19.27-1.68-22.53-1.68-22.53,0,20.42-6.13,18.82c-4.65-1.22-1.8-21.3-1.8-21.3s-.11,17.55-4.94,16.51c-5.34-1.16-3.88-19.86-3.88-19.86-11.83-4.72-15.54-11.81-17.57-17.17C83.38,265,110.63,254.34,110.63,254.34Z" style="fill:#ad6359"></path><path d="M125.76,285.68c.13,2.33.29,4.69.22,7s-.22,4.67-.5,7a40.28,40.28,0,0,1-2,8.92c1.4-5.26,1.77-13.62,1.84-15.95s.26-4.66.33-7C125.67,285.62,125.75,285.63,125.76,285.68Z" style="fill:#263238"></path><path d="M117.33,285.28c0,3,.2,6,.12,8.93S117,300,116.74,303c0,.23-.14.14-.13-.09.17-3,.1-5.72.23-8.7s.39-5.93.41-8.9A0,0,0,0,1,117.33,285.28Z" style="fill:#263238"></path><path d="M110.15,283.63a66.71,66.71,0,0,1-.86,13.68c0,.22-.17.09-.15-.14.37-4.54.7-8.1.85-13.53C110,283.56,110.15,283.54,110.15,283.63Z" style="fill:#263238"></path><path d="M115.91,255.49s-31,18.84-31.26,18.7-26.73-19.64-26.4-27.11,24.23-10.6,34.39-5.39S115.91,255.49,115.91,255.49Z" style="fill:#BA68C8"></path><path d="M106.52,251.31c-1.19.56-11,6.9-13.11,8.33s-10.76,7.16-12.8,8.81a.09.09,0,0,0,.1.16c2.31-1.24,11.06-7,13.23-8.41s11.74-7.9,12.7-8.76C106.72,251.37,106.61,251.27,106.52,251.31Z" style="fill:#263238"></path><path d="M80,239.25c2.5-.13,9.33,0,14.53,3.34.06,0,0,.11,0,.08-4.55-2.18-12-3.28-14.48-3.33C80,239.34,79.94,239.25,80,239.25Z" style="fill:#263238"></path><path d="M114,256.65l1.86-1.24v.16l-5.4-3.4c-1.8-1.13-3.62-2.24-5.44-3.32-3.63-2.22-7.31-4.35-11.06-6.32l-.5-.26.32-.46c2.6-3.75,5.27-7.44,8.11-11q2.13-2.69,4.35-5.28c1.51-1.71,3-3.4,4.64-5q-4.35,5.26-8.39,10.76c-2.69,3.66-5.37,7.33-7.89,11.11l-.18-.72c3.77,2,7.43,4.21,11,6.49q2.69,1.76,5.32,3.55c1.77,1.2,3.48,2.46,5.2,3.72l.12.09-.12.07Z" style="fill:#263238"></path><path d="M104.23,228.38c.41-.4.81-.8,1.23-1.18s.84-.75,1.27-1.1a21.29,21.29,0,0,1,2.78-1.94,19.26,19.26,0,0,1-2.46,2.32c-.44.35-.89.7-1.36,1A10.1,10.1,0,0,1,104.23,228.38Z" style="fill:#263238"></path><path d="M76.21,267.64a49.81,49.81,0,0,1,4.42,3c.7.54,1.41,1.08,2.1,1.65L84.81,274l-.29,0c.87-.41,1.75-.81,2.66-1.16-.79.57-1.59,1.11-2.4,1.63l-.13.08-.16-.1c-.74-.49-1.49-1-2.19-1.52s-1.41-1.09-2.11-1.65A50,50,0,0,1,76.21,267.64Z" style="fill:#263238"></path><path d="M125.67,214.37c-3.58.62-9.33-5.13-11.47-9.64-.14-.31,1.81-12.22,2-14.62,0-.49,14.85,4.55,14.85,4.55a38.3,38.3,0,0,0-2,9.13C129,204.14,129.13,213.76,125.67,214.37Z" style="fill:#ad6359"></path><path d="M131,194.66h0c0,.07-.13.36-.28.83-.25.79-.65,2.08-1,3.56a27.42,27.42,0,0,0-.74,4.73c0,.11,0,.23,0,.33v.06c0,.19,0,.45,0,.77a10.37,10.37,0,0,1-1.47,0c-8.19-.67-10.36-10.9-10.89-14.81l.25.06c.4.09.92.23,1.54.41l.47.14c1,.29,2.17.66,3.4,1l1.22.39,2.59.84c.35.13.71.25,1,.35l1,.35.49.16.22.08,1.23.41.59.2a1.27,1.27,0,0,1,.25.09H131Z" style="fill:#263238"></path><path d="M115.12,174.08c-1.66,5.34,1.12,20.8,4.91,24.26,5.5,5,14.54,5.51,18.81-1.1,4.14-6.41.17-26.49-4.07-29.63C128.52,163,117.56,166.19,115.12,174.08Z" style="fill:#ad6359"></path><path d="M130.19,183.18s-.07.07-.06.11c.25,1,.35,2.25-.51,2.79a0,0,0,1,0,0,0C130.75,185.74,130.59,184.12,130.19,183.18Z" style="fill:#263238"></path><path d="M129.05,182.29c-1.7.21-1.14,3.58.42,3.38S130.47,182.11,129.05,182.29Z" style="fill:#263238"></path><path d="M136.27,182.36s.09,0,.09.08c.14,1.05.48,2.23,1.48,2.42,0,0,0,.06,0,.06C136.66,185,136.23,183.38,136.27,182.36Z" style="fill:#263238"></path><path d="M137,181.12c1.66-.4,2.34,2.94.81,3.32S135.63,181.46,137,181.12Z" style="fill:#263238"></path><path d="M127.58,180.92c.45-.14.85-.35,1.29-.53a2.32,2.32,0,0,0,1.22-.8.73.73,0,0,0-.16-.87,1.79,1.79,0,0,0-1.82-.09,2.64,2.64,0,0,0-1.45,1.22A.77.77,0,0,0,127.58,180.92Z" style="fill:#263238"></path><path d="M138.07,179.06c-.48,0-.92-.08-1.4-.12a2.3,2.3,0,0,1-1.4-.41.71.71,0,0,1-.1-.87,1.79,1.79,0,0,1,1.71-.62,2.61,2.61,0,0,1,1.75.73A.77.77,0,0,1,138.07,179.06Z" style="fill:#263238"></path><path d="M130.81,193c.3.21.6.5,1,.47a2.84,2.84,0,0,0,1.08-.44,0,0,0,0,1,.06,0,1.45,1.45,0,0,1-1.24.79,1.15,1.15,0,0,1-1-.79A.06.06,0,0,1,130.81,193Z" style="fill:#263238"></path><path d="M131.4,189.73a3.6,3.6,0,0,0,2.63,1.19,4.34,4.34,0,0,0,1.29-.15l.24-.07.23-.07a.29.29,0,0,0,.17-.27h0l0-.1h0l0-.09c-.11-.81-.39-2-.39-2,.32.1,1.93.53,1.84.11a54.73,54.73,0,0,0-3.14-10.54.1.1,0,0,0-.19.06c.61,3.34,1.81,6.55,2.48,9.9a6,6,0,0,0-1.76-.24c-.11.05.58,2.33.6,2.7,0,0,0,0,0,0a5,5,0,0,1-3.87-.54C131.4,189.57,131.32,189.65,131.4,189.73Z" style="fill:#263238"></path><path d="M134.78,190.44a4.19,4.19,0,0,1-1.47,1.58,1.93,1.93,0,0,1-1.14.27c-.87-.09-1-.85-1-1.53a4.77,4.77,0,0,1,.21-1.06A5.56,5.56,0,0,0,134.78,190.44Z" style="fill:#263238"></path><path d="M133.31,192a1.93,1.93,0,0,1-1.14.27c-.87-.09-1-.85-1-1.53A2,2,0,0,1,133.31,192Z" style="fill:#ff9abb"></path><path d="M140.55,187.83s-.4,7.66-4.28,7.91c-2.32.15-3.85-2.08-3.85-2.08h-1.28s-1.93,4.46-6,2.63c-4.45-2-6.26-13.95-6.26-13.95s-1.1,5.41-3.43,5.61a48.46,48.46,0,0,0,1.44,7.9c.91,3.75,6.38,9.7,15,9.35,3.6-.15,8.41-5.35,8.78-9.19A41,41,0,0,0,140.55,187.83Z" style="fill:#263238"></path><path d="M117.11,185.68c2.45,0,2.69-5.65,2.69-5.65s6.15,1.54,6-6.65c0,0,7.25,2.17,11.62-.37,3.73-2.17,5.56-8.68,2.66-12.43-1.64-2.11-6.1-4-12.52,2.61,0,0-8.75-5.65-11.64,4.79,0,0-4.42.67-4.82,5C110.48,179.81,115,185.72,117.11,185.68Z" style="fill:#263238"></path><path d="M125.79,172.81a.06.06,0,1,0-.12,0c.44,2,.89,4.14-.64,5.8a4.77,4.77,0,0,1-5.7,1.17c-.11-.05-.21.12-.1.18a5.22,5.22,0,0,0,5.74-.8C126.86,177.51,126.66,175,125.79,172.81Z" style="fill:#263238"></path><path d="M117.25,184.41c-3.42-1.63-6.07-4.41-6.48-8.34a7.62,7.62,0,0,1,1.21-5.36c1-1.4,2.63-2,4-2.83,0,0,0-.09,0-.07-8.88,2.53-6.68,14.47,1.08,17A.23.23,0,0,0,117.25,184.41Z" style="fill:#263238"></path><path d="M141.22,160.62c-3.9-5.19-11.18-1.39-13.89,3,0,0,0,0,0,0,2.48-3.3,7.75-6.62,11.77-4.2,4.86,2.93,3.15,11.63-2.32,12.63-.16,0-.12.31,0,.29C141.9,171.8,144.12,164.47,141.22,160.62Z" style="fill:#263238"></path><path d="M118.52,186.67s-3.58-4.94-5.82-3.65.5,8.47,3.18,9.42a2.7,2.7,0,0,0,3.6-1.52Z" style="fill:#ad6359"></path><path d="M113.53,185.06a0,0,0,0,0,0,.07c1.88.72,2.89,2.44,3.61,4.22a1.49,1.49,0,0,0-2.24-.37s0,.11,0,.1a1.64,1.64,0,0,1,1.84.55,7.59,7.59,0,0,1,.91,1.46c.09.17.39.08.32-.12l0,0C118,188.55,116.1,185.25,113.53,185.06Z" style="fill:#263238"></path><path d="M129,205.06l-4,8.81L114.4,202.05l-3.32,3.51s10.14,18.49,10.24,17.68l4-7.57,5.11,5.6.14-13.52Z" style="fill:#ebebeb"></path><path d="M130.9,214.59c-.05-2.23,0-4.48-.2-6.71,0-.08-.12-.12-.15,0-.54,2.13-.29,10.67-.39,12.71l0,0c-.21-.24-4.75-4.94-4.8-4.87-.85,1.19-3.8,6.7-4,7.21-1.6-2.94-7.76-13.63-9.69-16.42a.08.08,0,0,0-.14.07c1.4,3.09,9.55,17.48,9.68,17.44a83.35,83.35,0,0,0,4.21-8c.76,1,5.31,6.3,5.34,6A69.11,69.11,0,0,0,130.9,214.59Z" style="fill:#263238"></path></g><g id="freepik--speech-bubble--inject-50"><path d="M188.8,151.89a20,20,0,0,1-21.92,17.76,19.75,19.75,0,0,1-11.41-5.15l-10,1.47,5-8.63a20,20,0,1,1,38.32-5.45Z" style="fill:#fff"></path><path d="M188.8,151.89a20.1,20.1,0,0,1-4,10.11,18.19,18.19,0,0,1-3.91,3.86,19.4,19.4,0,0,1-4.81,2.68,19.92,19.92,0,0,1-5.38,1.28,19.68,19.68,0,0,1-2.77.06,18.33,18.33,0,0,1-2.76-.29,20.14,20.14,0,0,1-9.87-4.87l.24.07-10,1.53-.73.11.37-.64,5-8.64,0,.34a20.17,20.17,0,0,1,1.23-17.78,20.42,20.42,0,0,1,6.25-6.66,20.32,20.32,0,0,1,17.53-2.36,20.42,20.42,0,0,1,7.7,4.72A20.08,20.08,0,0,1,188.8,151.89Zm0,0a19.75,19.75,0,0,0-22.63-21.6,19.6,19.6,0,0,0-8.23,3.26,20.42,20.42,0,0,0-6,6.51,19.64,19.64,0,0,0-2.54,8.44,20,20,0,0,0,1.41,8.69l.07.18-.1.16-5,8.62-.36-.53,10-1.4.14,0,.1.09a19.62,19.62,0,0,0,9.55,4.92,16.58,16.58,0,0,0,2.71.33,19.13,19.13,0,0,0,2.73,0,19.86,19.86,0,0,0,5.33-1.17,18.36,18.36,0,0,0,4.81-2.6A22.11,22.11,0,0,0,182.9,164a20.84,20.84,0,0,0,1.81-2.06A20,20,0,0,0,188.8,151.89Z" style="fill:#263238"></path><polygon points="166.62 161.19 158.1 152.56 160.96 149.73 165.94 154.77 176.28 138.56 179.68 140.72 166.62 161.19" style="fill:#BA68C8"></polygon></g></svg>
