<svg xmlns="http://www.w3.org/2000/svg" xmlns:xlink="http://www.w3.org/1999/xlink" viewBox="0 0 500 500"><defs><clipPath id="freepik--clip-path--inject-16"><path d="M446.56,66.62v8.65a2.23,2.23,0,0,1-1,1.75l-9.08,5.32c-.56.32-1,.06-1-.59V73.1a2.26,2.26,0,0,1,1-1.76c2.48-1.43,6.6-3.88,9.08-5.31C446.11,65.71,446.56,66,446.56,66.62Z" style="fill:#BA68C8"></path></clipPath></defs><g id="freepik--Floor--inject-16"><ellipse id="freepik--floor--inject-16" cx="250" cy="364.74" rx="231.53" ry="122.13" style="fill:#f0f0f0"></ellipse></g><g id="freepik--Shadows--inject-16"><path id="freepik--Shadow--inject-16" d="M467.25,346.34l-63.58-36.71a4.85,4.85,0,0,0-4.39,0l-43,24.82a1.33,1.33,0,0,0,0,2.53l63.58,36.71a4.85,4.85,0,0,0,4.39,0l43-24.82a1.56,1.56,0,0,0,.91-1.27C468.16,347,467.48,346.47,467.25,346.34Z" style="fill:#e0e0e0"></path><polygon id="freepik--shadow--inject-16" points="136.17 446.24 298.6 352.46 225.26 310.19 211.88 318.01 62.98 403.98 136.17 446.24" style="fill:#e0e0e0"></polygon><ellipse id="freepik--shadow--inject-16" cx="310.09" cy="382.95" rx="70.54" ry="40.73" style="fill:#e0e0e0"></ellipse></g><g id="freepik--self-checkout-machine--inject-16"><g id="freepik--Checkout--inject-16"><g id="freepik--Number--inject-16"><g id="freepik--Stick--inject-16"><path d="M87.08,69V264.85a1.13,1.13,0,0,0,.68.94,3.58,3.58,0,0,0,3.28,0,1.13,1.13,0,0,0,.68-.94V69Z" style="fill:#455a64"></path><polygon points="91.72 80.88 91.72 68.99 87.08 68.99 87.08 83.56 91.72 80.88" style="fill:#37474f"></polygon><path d="M87.76,68a1,1,0,0,0,0,1.9,3.64,3.64,0,0,0,3.28,0A1,1,0,0,0,91,68,3.64,3.64,0,0,0,87.76,68Z" style="fill:#263238"></path></g><g id="freepik--number--inject-16"><path d="M104.47,35.2a4.49,4.49,0,0,0-2-3.5l-1.65-.95a4.49,4.49,0,0,0-4,0L72.39,44.82a4.47,4.47,0,0,0-2,3.5V81a4.47,4.47,0,0,0,2,3.5l1.64,1a4.51,4.51,0,0,0,4,0l24.37-14.07a4.49,4.49,0,0,0,2-3.5Z" style="fill:#BA68C8"></path><path d="M70.36,81a4.47,4.47,0,0,0,2,3.5l1.64,1a4.54,4.54,0,0,0,3.7.16c-1,.36-1.68-.18-1.68-1.33V51.61a4.06,4.06,0,0,1,.6-2L71,46.33a4.13,4.13,0,0,0-.6,2Z" style="opacity:0.2"></path><path d="M104.4,34.63c-.23-.86-1-1.13-2-.6L78.07,48.11a4.07,4.07,0,0,0-1.42,1.51L71,46.34a4,4,0,0,1,1.43-1.51L96.75,30.75a4.51,4.51,0,0,1,4,0l1.65,1A4.45,4.45,0,0,1,104.4,34.63Z" style="fill:#fff;opacity:0.4"></path></g><g id="freepik--5--inject-16"><path d="M84.92,51.85a1.71,1.71,0,0,1,.19-.77,1.13,1.13,0,0,1,.43-.53l8.57-4.95a.34.34,0,0,1,.43,0,.78.78,0,0,1,.18.57v2.49a1.84,1.84,0,0,1-.18.77,1.19,1.19,0,0,1-.43.53l-6.41,3.7-.25,4.63a6.5,6.5,0,0,1,1.22-1.16c.41-.28.74-.49,1-.64A6,6,0,0,1,92,55.68a2.74,2.74,0,0,1,1.9.47A3.78,3.78,0,0,1,95.18,58a9.6,9.6,0,0,1,.45,3.21,17,17,0,0,1-.46,4.11,14.47,14.47,0,0,1-1.28,3.37A11.38,11.38,0,0,1,92,71.27a11.18,11.18,0,0,1-2.33,1.81,6.64,6.64,0,0,1-2.7,1,2.72,2.72,0,0,1-1.87-.45A3.27,3.27,0,0,1,84,72.07a7.71,7.71,0,0,1-.42-2.37,1.45,1.45,0,0,1,.17-.79,1.23,1.23,0,0,1,.44-.52L86,67.33a.36.36,0,0,1,.41,0,.73.73,0,0,1,.25.47,2.19,2.19,0,0,0,.43,1.06,1.21,1.21,0,0,0,.69.42,1.68,1.68,0,0,0,.86-.1,6.82,6.82,0,0,0,1-.47,5.42,5.42,0,0,0,2.1-2.3,7.43,7.43,0,0,0,.8-3.45,2.56,2.56,0,0,0-.8-2.17,1.87,1.87,0,0,0-2.1.13,5.6,5.6,0,0,0-1.08.78,5.83,5.83,0,0,0-.65.74l-.45.63a1.68,1.68,0,0,1-.53.46l-2.09,1.21a.33.33,0,0,1-.44,0,.74.74,0,0,1-.18-.56Z" style="fill:#fafafa"></path></g></g><g id="freepik--Monitor--inject-16"><polygon points="137.48 165.76 137.48 223.38 169.23 205.05 169.23 147.43 137.48 165.76" style="fill:#BA68C8"></polygon><polygon points="169.23 147.43 137.48 165.76 137.48 192.28 169.23 173.96 169.23 147.43" style="opacity:0.15"></polygon><polygon points="137.48 223.38 135.24 224.67 135.24 164.47 137.48 165.76 137.48 223.38" style="fill:#BA68C8"></polygon><polygon points="137.48 223.38 135.24 224.67 135.24 164.47 137.48 165.76 137.48 223.38" style="opacity:0.35000000000000003"></polygon><g id="freepik--monitor--inject-16"><path d="M113.29,201.4a3.46,3.46,0,0,0,3.13-.06l73.88-42.61a3.55,3.55,0,0,0,1.61-2.79V93.53a3.48,3.48,0,0,0-1.43-2.69l-2-1.19a3.43,3.43,0,0,0-3.13.06l-73.88,42.6a3.58,3.58,0,0,0-1.61,2.8v62.41a3.55,3.55,0,0,0,1.36,2.65Z" style="fill:#37474f"></path><path d="M116.42,201.34l73.88-42.61a3.57,3.57,0,0,0,1.61-2.8V93.52c0-1-.72-1.44-1.61-.93L116.42,135.2a3.58,3.58,0,0,0-1.61,2.8v62.41C114.81,201.44,115.53,201.86,116.42,201.34Z" style="fill:#455a64"></path><path d="M117.16,189.84V138.9a2.16,2.16,0,0,1,1-1.71l69.42-40c.55-.31,1-.06,1,.57v51a2.18,2.18,0,0,1-1,1.71l-69.42,40C117.6,190.72,117.16,190.47,117.16,189.84Z" style="fill:#fafafa"></path><path d="M122.58,142.31l43-24.8c.48-.27.87-.1.87.39a1.82,1.82,0,0,1-.87,1.39l-42.95,24.8c-.47.27-.86.1-.86-.39A1.84,1.84,0,0,1,122.58,142.31Z" style="fill:#e0e0e0"></path><path d="M122.58,148.66l43-24.79c.48-.28.87-.11.87.38a1.82,1.82,0,0,1-.87,1.39l-42.95,24.8c-.47.27-.86.1-.86-.39A1.84,1.84,0,0,1,122.58,148.66Z" style="fill:#e0e0e0"></path><path d="M122.58,155l43-24.8c.48-.28.87-.1.87.39a1.79,1.79,0,0,1-.87,1.38l-42.95,24.8c-.47.28-.86.1-.86-.39A1.81,1.81,0,0,1,122.58,155Z" style="fill:#e0e0e0"></path><path d="M122.58,161.37l43-24.8c.48-.27.87-.1.87.39a1.82,1.82,0,0,1-.87,1.39l-42.95,24.79c-.47.28-.86.11-.86-.38A1.84,1.84,0,0,1,122.58,161.37Z" style="fill:#BA68C8"></path><path d="M174.52,112.32l8.13-4.69c.48-.27.86-.1.86.39a1.81,1.81,0,0,1-.86,1.39l-8.13,4.69c-.47.27-.86.1-.86-.39A1.84,1.84,0,0,1,174.52,112.32Z" style="fill:#e0e0e0"></path><path d="M174.52,118.68l8.13-4.69c.48-.28.86-.11.86.38a1.81,1.81,0,0,1-.86,1.39l-8.13,4.69c-.47.28-.86.1-.86-.39A1.81,1.81,0,0,1,174.52,118.68Z" style="fill:#e0e0e0"></path><path d="M174.52,125l8.13-4.69c.48-.28.86-.1.86.39a1.78,1.78,0,0,1-.86,1.38l-8.13,4.69c-.47.28-.86.11-.86-.38A1.84,1.84,0,0,1,174.52,125Z" style="fill:#e0e0e0"></path><path d="M174.52,131.38l8.13-4.69c.48-.27.86-.1.86.39a1.81,1.81,0,0,1-.86,1.39l-8.13,4.69c-.47.27-.86.1-.86-.39A1.84,1.84,0,0,1,174.52,131.38Z" style="fill:#BA68C8"></path><path d="M136,165.88a1.74,1.74,0,0,1,.77-.27.94.94,0,0,1,.55.14.84.84,0,0,1,.34.4,1.52,1.52,0,0,1,.13.55.44.44,0,0,1-.05.22.39.39,0,0,1-.13.15l-.46.27c-.07,0-.13,0-.16,0a.31.31,0,0,1-.1-.12.56.56,0,0,0-.3-.27c-.14,0-.33,0-.59.16a1.27,1.27,0,0,0-.33.24,2.08,2.08,0,0,0-.27.32,2,2,0,0,0-.18.36,1.21,1.21,0,0,0-.06.38.74.74,0,0,0,.06.34.26.26,0,0,0,.21.13,1.12,1.12,0,0,0,.39,0l.6-.13a2.6,2.6,0,0,1,.68-.09.75.75,0,0,1,.46.16.82.82,0,0,1,.27.41,2.22,2.22,0,0,1,.09.69,3.3,3.3,0,0,1-.13.92,4.22,4.22,0,0,1-.37.88,4.39,4.39,0,0,1-.6.78,3.93,3.93,0,0,1-.79.62,2.28,2.28,0,0,1-.7.27,1.09,1.09,0,0,1-.6-.06.79.79,0,0,1-.41-.38,1.42,1.42,0,0,1-.18-.7.42.42,0,0,1,.05-.22.28.28,0,0,1,.13-.15l.46-.27a.24.24,0,0,1,.17,0,.24.24,0,0,1,.1.13,1,1,0,0,0,.11.2.37.37,0,0,0,.17.13.66.66,0,0,0,.28,0,1.59,1.59,0,0,0,.42-.17,3.28,3.28,0,0,0,.38-.27,2,2,0,0,0,.32-.33,2.56,2.56,0,0,0,.22-.39,1.12,1.12,0,0,0,.09-.44.39.39,0,0,0-.1-.31.33.33,0,0,0-.27-.08,2.43,2.43,0,0,0-.47.07l-.63.14a2,2,0,0,1-.57,0,.69.69,0,0,1-.41-.17.89.89,0,0,1-.24-.44,2.84,2.84,0,0,1-.08-.73,3.57,3.57,0,0,1,.13-.91,3.74,3.74,0,0,1,.37-.87,3.9,3.9,0,0,1,.54-.74A2.74,2.74,0,0,1,136,165.88Z" style="fill:#455a64"></path><path d="M142.2,162.39a.09.09,0,0,1,.12,0,.2.2,0,0,1,.06.16v4.13a5.81,5.81,0,0,1-.12,1.2,4.65,4.65,0,0,1-.36,1.07,3.26,3.26,0,0,1-.59.9,3.08,3.08,0,0,1-.81.67,1.77,1.77,0,0,1-.82.28.82.82,0,0,1-.59-.22,1.29,1.29,0,0,1-.35-.67,4,4,0,0,1-.12-1.06v-4.13a.43.43,0,0,1,.06-.22.3.3,0,0,1,.12-.16l.53-.3a.09.09,0,0,1,.13,0,.22.22,0,0,1,0,.16v4.08a2.33,2.33,0,0,0,.07.66.85.85,0,0,0,.2.37.45.45,0,0,0,.32.09,1.33,1.33,0,0,0,.4-.15,1.71,1.71,0,0,0,.4-.32,2.14,2.14,0,0,0,.32-.45,3.25,3.25,0,0,0,.2-.6,3.38,3.38,0,0,0,.08-.75v-4.08a.54.54,0,0,1,.05-.22.36.36,0,0,1,.13-.16Z" style="fill:#455a64"></path><path d="M143.54,168.67s-.09,0-.12,0,0-.08,0-.16V162a.44.44,0,0,1,0-.22.24.24,0,0,1,.12-.15l1.93-1.12a1.25,1.25,0,0,1,.71-.21.72.72,0,0,1,.45.24,1.23,1.23,0,0,1,.24.5,2.49,2.49,0,0,1,.08.61,2.62,2.62,0,0,1-.06.57,2.93,2.93,0,0,1-.12.47c-.05.14-.1.26-.15.37l-.12.22a.9.9,0,0,1,.37.38,1.87,1.87,0,0,1,.17.89,4,4,0,0,1-.09.81,4.12,4.12,0,0,1-.27.84,3.91,3.91,0,0,1-.44.74,2,2,0,0,1-.62.54Zm2.52-6.47c0-.26-.05-.42-.15-.49s-.27,0-.5.09l-1.16.67V164l1.16-.67a1.29,1.29,0,0,0,.5-.48A1.44,1.44,0,0,0,146.06,162.2Zm-1.81,4.8,1.21-.69a1.27,1.27,0,0,0,.53-.55,1.57,1.57,0,0,0,.16-.71.65.65,0,0,0-.17-.53c-.11-.09-.29-.07-.52.06l-1.21.7Z" style="fill:#455a64"></path><path d="M150.84,157.4a.1.1,0,0,1,.13,0,.23.23,0,0,1,.05.16v.72a.63.63,0,0,1-.05.22.39.39,0,0,1-.13.15l-1.18.68v5.53a.47.47,0,0,1,0,.22.31.31,0,0,1-.12.15l-.53.31a.12.12,0,0,1-.13,0,.25.25,0,0,1-.05-.16v-5.53l-1.18.68s-.09,0-.12,0,0-.08,0-.16v-.71a.48.48,0,0,1,0-.23.31.31,0,0,1,.12-.15Z" style="fill:#455a64"></path><path d="M151.43,159.7a6.34,6.34,0,0,1,.14-1.15,5.16,5.16,0,0,1,.35-1.07,4.45,4.45,0,0,1,.59-.93,3.33,3.33,0,0,1,.84-.7,1.77,1.77,0,0,1,.83-.27.84.84,0,0,1,.59.25,1.49,1.49,0,0,1,.36.66,4,4,0,0,1,.15,1c0,.13,0,.27,0,.42v1c0,.15,0,.3,0,.43a7.39,7.39,0,0,1-.14,1.14,4.65,4.65,0,0,1-.36,1.07,4.45,4.45,0,0,1-.59.93,3.1,3.1,0,0,1-.84.69,1.57,1.57,0,0,1-.84.27.81.81,0,0,1-.59-.24,1.47,1.47,0,0,1-.35-.66,4,4,0,0,1-.14-1c0-.13,0-.26,0-.42s0-.31,0-.48,0-.32,0-.48S151.42,159.83,151.43,159.7Zm3-1.67a1.3,1.3,0,0,0-.3-.95.63.63,0,0,0-.74,0,2,2,0,0,0-.74.82,3.32,3.32,0,0,0-.3,1.31c0,.26,0,.54,0,.85s0,.6,0,.85a1.3,1.3,0,0,0,.3.94.6.6,0,0,0,.74,0,1.92,1.92,0,0,0,.74-.82,3.06,3.06,0,0,0,.3-1.29c0-.26,0-.55,0-.86S154.4,158.28,154.39,158Z" style="fill:#455a64"></path><path d="M159.1,152.63a.1.1,0,0,1,.12,0,.21.21,0,0,1,.06.16v.72a.46.46,0,0,1-.06.22.24.24,0,0,1-.12.15l-1.18.68v5.53a.59.59,0,0,1,0,.22.33.33,0,0,1-.13.15l-.53.31a.09.09,0,0,1-.12,0,.23.23,0,0,1-.05-.16v-5.53l-1.18.69a.12.12,0,0,1-.13,0,.26.26,0,0,1,0-.17v-.71a.59.59,0,0,1,0-.22.28.28,0,0,1,.13-.15Z" style="fill:#455a64"></path><path d="M161.62,151.18c.07,0,.12,0,.16,0a.72.72,0,0,1,.09.21l1.6,5.44a.15.15,0,0,1,0,.07.59.59,0,0,1,0,.22.33.33,0,0,1-.13.15l-.47.27c-.08.06-.15.06-.18,0a.24.24,0,0,1-.07-.13l-.28-1-2.07,1.2-.29,1.28a.74.74,0,0,1-.07.21.37.37,0,0,1-.18.19l-.47.27a.09.09,0,0,1-.13,0,.22.22,0,0,1-.05-.16.17.17,0,0,1,0-.07l1.6-7.3a2.46,2.46,0,0,1,.09-.31.4.4,0,0,1,.16-.18Zm.36,4.22-.72-2.46-.72,3.29Z" style="fill:#455a64"></path><path d="M167.12,153.8a.09.09,0,0,1,.13,0,.23.23,0,0,1,.05.16v.71a.64.64,0,0,1-.05.23.39.39,0,0,1-.13.15l-2.87,1.65a.09.09,0,0,1-.12,0,.22.22,0,0,1,0-.17V150a.44.44,0,0,1,0-.22.38.38,0,0,1,.12-.15l.53-.31a.1.1,0,0,1,.13,0,.23.23,0,0,1,.05.16v5.53Z" style="fill:#455a64"></path><path d="M174.38,143.89a1.23,1.23,0,0,1,.56,0,.86.86,0,0,1,.41.22,1,1,0,0,1,.25.38,1.56,1.56,0,0,1,.09.47.36.36,0,0,1-.05.22.31.31,0,0,1-.12.15l-.46.27c-.08,0-.13.05-.17,0a.31.31,0,0,1-.1-.12.53.53,0,0,0-.3-.27c-.13,0-.33,0-.59.16a1.41,1.41,0,0,0-.32.24,1.35,1.35,0,0,0-.27.32,1.22,1.22,0,0,0-.18.36,1,1,0,0,0-.07.38.65.65,0,0,0,.07.33.31.31,0,0,0,.24.12,1.3,1.3,0,0,0,.41,0l.61-.14a2.47,2.47,0,0,1,.67-.08.76.76,0,0,1,.44.17.8.8,0,0,1,.25.43,2.61,2.61,0,0,1,.08.69,3.55,3.55,0,0,1-.39,1.57,3.92,3.92,0,0,1-.45.72,4.32,4.32,0,0,1-.61.6v.69a.63.63,0,0,1,0,.22.39.39,0,0,1-.13.15l-.53.31a.1.1,0,0,1-.12,0,.21.21,0,0,1-.06-.16v-.69a1.21,1.21,0,0,1-.55.08,1,1,0,0,1-.45-.14,1,1,0,0,1-.31-.38,1.63,1.63,0,0,1-.13-.63.34.34,0,0,1,0-.22.27.27,0,0,1,.12-.15l.46-.27a.25.25,0,0,1,.17,0,.24.24,0,0,1,.1.13,1.28,1.28,0,0,0,.11.2.4.4,0,0,0,.18.13.65.65,0,0,0,.28,0,1.43,1.43,0,0,0,.41-.17,3.28,3.28,0,0,0,.38-.27,2,2,0,0,0,.32-.33,2.65,2.65,0,0,0,.23-.39,1.32,1.32,0,0,0,.08-.44.43.43,0,0,0-.09-.31.34.34,0,0,0-.28-.08,2.34,2.34,0,0,0-.46.07c-.18,0-.4.09-.64.14a1.93,1.93,0,0,1-.57,0,.67.67,0,0,1-.4-.17.9.9,0,0,1-.24-.43,2.57,2.57,0,0,1-.08-.74,3,3,0,0,1,.1-.78,3.44,3.44,0,0,1,.27-.76A3.32,3.32,0,0,1,173,145a4.83,4.83,0,0,1,.53-.57v-.68a.43.43,0,0,1,.06-.22.3.3,0,0,1,.12-.16l.53-.3a.09.09,0,0,1,.13,0,.22.22,0,0,1,0,.16Z" style="fill:#455a64"></path><path d="M178.93,141.27a1,1,0,0,1,.56,0,.94.94,0,0,1,.41.21,1.14,1.14,0,0,1,.25.39,1.8,1.8,0,0,1,.1.46.54.54,0,0,1-.05.22.28.28,0,0,1-.13.15l-.46.27a.19.19,0,0,1-.17,0,.32.32,0,0,1-.1-.12.46.46,0,0,0-.3-.26.76.76,0,0,0-.59.15,2.43,2.43,0,0,0-.32.24,1.35,1.35,0,0,0-.27.32,1.22,1.22,0,0,0-.18.36,1,1,0,0,0-.07.38.69.69,0,0,0,.07.34.31.31,0,0,0,.24.12,1.79,1.79,0,0,0,.41-.05l.61-.14a2.12,2.12,0,0,1,.67-.07.69.69,0,0,1,.44.16.8.8,0,0,1,.25.43,2.61,2.61,0,0,1,.08.69,3.56,3.56,0,0,1-.1.79,3.66,3.66,0,0,1-.29.78,3.35,3.35,0,0,1-.45.72,3.85,3.85,0,0,1-.61.6v.69a.59.59,0,0,1-.05.22.39.39,0,0,1-.13.15l-.53.31a.09.09,0,0,1-.12,0,.19.19,0,0,1,0-.16v-.69a1.45,1.45,0,0,1-.56.09,1,1,0,0,1-.45-.15.91.91,0,0,1-.31-.38,1.63,1.63,0,0,1-.13-.63.36.36,0,0,1,.05-.22.38.38,0,0,1,.12-.15l.46-.27c.08,0,.13,0,.17,0s.07.06.1.12a1.28,1.28,0,0,0,.11.2.38.38,0,0,0,.18.13.53.53,0,0,0,.28,0,1.19,1.19,0,0,0,.41-.17,3.19,3.19,0,0,0,.38-.26,2,2,0,0,0,.32-.34,1.54,1.54,0,0,0,.23-.39,1.27,1.27,0,0,0,.08-.44.43.43,0,0,0-.09-.31.38.38,0,0,0-.28-.08,2.34,2.34,0,0,0-.46.07,6.31,6.31,0,0,1-.64.14,1.63,1.63,0,0,1-.57,0,.61.61,0,0,1-.4-.17.85.85,0,0,1-.24-.43,3.26,3.26,0,0,1,0-1.52,3.63,3.63,0,0,1,.27-.76,4.23,4.23,0,0,1,.41-.68,3.59,3.59,0,0,1,.54-.56v-.69a.44.44,0,0,1,0-.22.24.24,0,0,1,.12-.15l.53-.31a.09.09,0,0,1,.13,0,.23.23,0,0,1,.05.16Z" style="fill:#455a64"></path><path d="M183.48,138.64a1,1,0,0,1,.56,0,.94.94,0,0,1,.41.21,1.14,1.14,0,0,1,.25.39,1.9,1.9,0,0,1,.1.46.64.64,0,0,1-.05.23.39.39,0,0,1-.13.15l-.46.26a.19.19,0,0,1-.17,0,.32.32,0,0,1-.1-.12.46.46,0,0,0-.3-.26.76.76,0,0,0-.59.15,1.85,1.85,0,0,0-.32.25,2,2,0,0,0-.27.31,1.51,1.51,0,0,0-.18.36,1.06,1.06,0,0,0-.07.38.58.58,0,0,0,.08.34.28.28,0,0,0,.23.12,1.65,1.65,0,0,0,.41,0l.61-.15a2.49,2.49,0,0,1,.67-.07.7.7,0,0,1,.44.17.73.73,0,0,1,.25.42,2.73,2.73,0,0,1,.08.69,3.65,3.65,0,0,1-.1.8,4.11,4.11,0,0,1-.29.78,3.87,3.87,0,0,1-1.06,1.32v.68a.59.59,0,0,1,0,.22.28.28,0,0,1-.13.15l-.53.31c-.05,0-.09,0-.12,0a.19.19,0,0,1-.05-.16v-.68a1.61,1.61,0,0,1-.56.08.86.86,0,0,1-.45-.15.91.91,0,0,1-.31-.38,1.58,1.58,0,0,1-.13-.62.37.37,0,0,1,0-.23.32.32,0,0,1,.13-.15l.45-.26c.08-.05.13-.06.17,0a.2.2,0,0,1,.1.12,1.28,1.28,0,0,0,.11.2.38.38,0,0,0,.18.13.51.51,0,0,0,.28,0,1.25,1.25,0,0,0,.41-.18,2,2,0,0,0,.38-.26,1.77,1.77,0,0,0,.33-.34,1.87,1.87,0,0,0,.22-.39,1.27,1.27,0,0,0,.08-.44.44.44,0,0,0-.09-.31.43.43,0,0,0-.28-.08,2.47,2.47,0,0,0-.46.08l-.63.13a2,2,0,0,1-.58,0,.67.67,0,0,1-.4-.18.85.85,0,0,1-.24-.43,2.92,2.92,0,0,1-.08-.74,3,3,0,0,1,.1-.78,3.63,3.63,0,0,1,.27-.76,4.23,4.23,0,0,1,.41-.68,3.59,3.59,0,0,1,.54-.56v-.69a.44.44,0,0,1,.05-.22.31.31,0,0,1,.12-.15l.53-.31a.1.1,0,0,1,.13,0,.23.23,0,0,1,0,.16Z" style="fill:#455a64"></path><path d="M152.05,177.89a1.2,1.2,0,0,1-.57-.14,1.47,1.47,0,0,1-.63-1.35,4.24,4.24,0,0,1,1.91-3.31,1.46,1.46,0,0,1,1.48-.12,1.44,1.44,0,0,1,.63,1.34,4.24,4.24,0,0,1-1.91,3.31A1.88,1.88,0,0,1,152.05,177.89Zm1.62-4.67a1.42,1.42,0,0,0-.71.22,3.78,3.78,0,0,0-1.71,3,.91.91,0,0,0,1.51.87,3.78,3.78,0,0,0,1.71-3,1.08,1.08,0,0,0-.43-1A.75.75,0,0,0,153.67,173.22Z" style="fill:#BA68C8"></path><path d="M110.34,133.52l4.94,2.88a3.48,3.48,0,0,0-.48,1.6v62.41c0,.94.63,1.46,1.61.93a3.43,3.43,0,0,1-3.13.06l-2.06-1.23a3.13,3.13,0,0,1-1.36-2.45V135.11A3.31,3.31,0,0,1,110.34,133.52Z" style="fill:#263238"></path></g></g><g id="freepik--Table--inject-16"><polygon points="267.53 362.48 267.53 238.16 207.72 203.62 207.72 327.95 267.53 362.48" style="fill:#BA68C8"></polygon><polygon points="267.53 362.48 267.53 238.16 207.72 203.62 207.72 327.95 267.53 362.48" style="opacity:0.35000000000000003"></polygon><polygon points="267.53 362.48 279.5 355.58 279.5 231.25 267.53 238.16 267.53 362.48" style="fill:#BA68C8"></polygon><polygon points="267.53 362.48 279.5 355.58 279.5 231.25 267.53 238.16 267.53 362.48" style="opacity:0.15"></polygon><polygon points="135.94 438.46 135.94 314.13 76.12 279.6 76.12 403.92 135.94 438.46" style="fill:#BA68C8"></polygon><polygon points="135.94 438.46 147.9 431.55 147.9 307.23 135.94 314.13 135.94 438.46" style="fill:#BA68C8"></polygon><polygon points="135.94 438.46 147.9 431.55 147.9 307.23 135.94 314.13 135.94 438.46" style="opacity:0.15"></polygon><polygon points="135.94 300.32 283.83 214.93 218.04 176.94 70.14 262.33 135.94 300.32" style="fill:#BA68C8"></polygon><polygon points="135.94 300.32 283.83 214.93 218.04 176.94 70.14 262.33 135.94 300.32" style="fill:#fff;opacity:0.8"></polygon><polygon points="135.94 314.13 135.94 300.32 70.14 262.33 70.14 276.14 135.94 314.13" style="fill:#BA68C8"></polygon><polygon points="135.94 314.13 135.94 300.32 70.14 262.33 70.14 276.14 135.94 314.13" style="fill:#fff;opacity:0.5"></polygon><polygon points="135.94 300.32 283.83 214.93 283.83 228.74 135.94 314.13 135.94 300.32" style="fill:#BA68C8"></polygon><polygon points="135.94 300.32 283.83 214.93 283.83 228.74 135.94 314.13 135.94 300.32" style="fill:#fff;opacity:0.6000000000000001"></polygon><polygon points="219.68 265.78 219.68 369.42 147.9 410.86 147.9 307.23 219.68 265.78" style="fill:#BA68C8"></polygon><polygon points="219.68 265.78 219.68 369.42 147.9 410.86 147.9 307.23 219.68 265.78" style="opacity:0.2"></polygon><polygon points="219.68 268.13 219.68 265.78 147.9 307.23 147.9 410.86 150.13 409.61 150.12 377.43 219.68 337.24 219.68 334.88 150.13 375.04 150.12 342.88 219.68 302.69 219.68 300.33 150.13 340.49 150.12 308.33 219.68 268.13" style="opacity:0.15"></polygon><path d="M185.94,299.07l-4.31,2.49c-2.11,1.22-3.82,3.76-3.82,5.67s1.71,2.46,3.82,1.24L186,306c2.11-1.22,3.82-3.75,3.82-5.66S188.06,297.85,185.94,299.07Z" style="fill:#37474f"></path><path d="M185.94,333.62l-4.31,2.49c-2.11,1.22-3.82,3.76-3.82,5.67s1.71,2.46,3.82,1.24l4.32-2.49c2.11-1.22,3.82-3.75,3.82-5.66S188.06,332.4,185.94,333.62Z" style="fill:#37474f"></path><path d="M185.94,368.18l-4.31,2.48c-2.11,1.22-3.82,3.76-3.82,5.67s1.71,2.46,3.82,1.24l4.32-2.49c2.11-1.22,3.82-3.75,3.82-5.66S188.06,367,185.94,368.18Z" style="fill:#37474f"></path><path d="M135.94,333.7,76.13,299.17l-50,28.74a3.4,3.4,0,0,0-2,2.79v5.24a3.4,3.4,0,0,0,2,2.79l50.27,29a10.7,10.7,0,0,0,9.67,0l49.9-28.82Z" style="fill:#BA68C8"></path><path d="M81.21,363.67v5.25a9.86,9.86,0,0,1-4.83-1.16l-50.28-29a3.38,3.38,0,0,1-2-2.79V330.7a3.37,3.37,0,0,0,2,2.79l50.28,29A9.77,9.77,0,0,0,81.21,363.67Z" style="fill:#fff;opacity:0.5"></path><path d="M135.94,333.69v5.24L86,367.74a9.84,9.84,0,0,1-4.83,1.17v-5.24A9.78,9.78,0,0,0,86,362.51Z" style="fill:#fff;opacity:0.6000000000000001"></path><path d="M76.13,299.17l-50,28.74a3,3,0,0,0,0,5.59l50.27,29a10.67,10.67,0,0,0,9.67,0l49.9-28.81Z" style="fill:#fff;opacity:0.8"></path><polygon points="190.84 209.02 226.73 229.74 172.89 260.82 137 240.1 190.84 209.02" style="fill:#263238"></polygon><polygon points="190.84 211.11 224.71 230.87 172.89 260.82 138.81 241.15 190.84 211.11" style="fill:#455a64"></polygon><path d="M158,244.21a.53.53,0,0,1-.28-.07l-6.46-3.73a.54.54,0,0,1-.28-.48.55.55,0,0,1,.28-.49l6.88-4a.56.56,0,1,1,.56,1l-6.05,3.5,5.63,3.24a.57.57,0,0,1,.2.76A.55.55,0,0,1,158,244.21Z" style="fill:#BA68C8"></path><path d="M183.3,222.15a.56.56,0,0,1-.28-1l6.86-4a.56.56,0,0,1,.56,0l6.89,4a.54.54,0,0,1,.2.76.56.56,0,0,1-.76.21l-6.61-3.8-6.58,3.8A.55.55,0,0,1,183.3,222.15Z" style="fill:#BA68C8"></path><path d="M174.23,253.58a.48.48,0,0,1-.28-.08l-6.78-3.91a.54.54,0,0,1-.2-.76.56.56,0,0,1,.76-.21l6.5,3.76,6.59-3.81a.56.56,0,0,1,.55,1l-6.86,4A.48.48,0,0,1,174.23,253.58Z" style="fill:#BA68C8"></path><path d="M206,235.25a.55.55,0,0,1-.48-.28.56.56,0,0,1,.2-.76l6.1-3.53-6.09-3.52a.56.56,0,0,1-.21-.76.55.55,0,0,1,.76-.2l6.94,4a.56.56,0,0,1,.28.48.58.58,0,0,1-.28.49l-6.94,4A.54.54,0,0,1,206,235.25Z" style="fill:#BA68C8"></path><polygon points="190.84 211.11 190.84 209.02 226.73 229.74 224.71 230.87 190.84 211.11" style="fill:#37474f"></polygon></g><g id="freepik--Terminal--inject-16"><path d="M135,281.76l-30.18-17.42c-1.31-.76-1.31-2,0-2.75l18-10.43a5.26,5.26,0,0,1,4.75,0l30.19,17.43c1.31.76,1.31,2,0,2.75l-18,10.43A5.23,5.23,0,0,1,135,281.76Z" style="opacity:0.15"></path><g id="freepik--Device--inject-16"><path d="M138.13,254.22h0a.09.09,0,0,0-.11,0l-.42.24a.34.34,0,0,0-.16.26v4.87l17.48,9.91.68-5.2Z" style="fill:#263238"></path><path d="M155.59,264.3a.12.12,0,0,0-.1,0l-.42.24a.43.43,0,0,0-.11.12l-17.47-10.09a.29.29,0,0,1,.11-.11l.42-.24a.09.09,0,0,1,.11,0h0Z" style="fill:#455a64"></path><path d="M155.49,264.31l-.42.24a.36.36,0,0,0-.15.27v4.69l.72.42V264.4C155.64,264.3,155.57,264.26,155.49,264.31Z" style="fill:#37474f"></path><polygon points="154.92 269.51 154.92 269.83 153.82 270.32 136.35 260.23 137.44 259.6 154.92 269.51"></polygon><path d="M154.19,271l1.3-.75a.36.36,0,0,0,.15-.27l-.72-.42a.34.34,0,0,1-.16.27l-.42.24c-.08.05-.15,0-.15-.09Z" style="fill:#37474f"></path><path d="M154.14,265.15l-1.73.94a.65.65,0,0,0,0,.2v5.53a.12.12,0,0,0,0,.09l-17.46-10.08h0s0-.05,0-.1v-5.52a.36.36,0,0,1,.15-.27l1.51-.88c.05,0,.09,0,.11,0Z" style="fill:#263238"></path><path d="M154.14,265.15l-16-9.23-.73-.42-.76-.44a.13.13,0,0,0-.12,0l-1.51.88a.38.38,0,0,0-.11.11l17.48,10Z" style="fill:#37474f;opacity:0.5"></path><path d="M152.42,266.09a.54.54,0,0,0,0,.21v5.52c0,.1.07.14.15.09l1.67-1v-5.7a.1.1,0,0,0-.05-.1Z" style="fill:#37474f"></path><path d="M152.54,271.9l.06,0,.26-.15a1.76,1.76,0,0,0,.38-1.09V266a1.13,1.13,0,0,0,0-.3l-.14.07a1,1,0,0,1,0,.23v4.67A2.05,2.05,0,0,1,152.54,271.9Z" style="fill:#263238"></path><path d="M133,249.74a20.64,20.64,0,0,0-2.32-1.47l-7-4a1.72,1.72,0,0,0-1.56,0L108,252.39a1.69,1.69,0,0,0-.77,1.34v8.55a1.69,1.69,0,0,0,.77,1.34l28.69,16.56a1.7,1.7,0,0,0,1.55,0L152.32,272a1.72,1.72,0,0,0,.78-1.34v-4.82a1.53,1.53,0,0,0-.6-1.21C149.25,262.19,133.89,250.5,133,249.74Z" style="fill:#455a64"></path><path d="M153.1,270.68V266a1,1,0,0,0,0-.28l-15.68,9a1,1,0,0,1,0,.3v4.67c0,.45-.29.65-.66.5h0l.11,0,.07,0,.11,0,.08,0h.51l.11,0h.09l.12,0,.06,0,.15-.07h0L152.32,272l.2-.12A1.87,1.87,0,0,0,153.1,270.68Z" style="fill:#37474f"></path><path d="M117.27,258.79c2.65,2.14,16.48,12.61,19.55,14.92a1.53,1.53,0,0,1,.6,1.21v4.82c0,.49-.35.69-.77.44L108,263.62a1.69,1.69,0,0,1-.77-1.34v-8.55c0-.49.34-.69.77-.45l7,4A20.64,20.64,0,0,1,117.27,258.79Z" style="fill:#263238"></path><path d="M117.19,256a20.72,20.72,0,0,1,2.32,1.48,17.58,17.58,0,0,1,1.63,1.53.74.74,0,0,0,.86.12l10.25-5.92a.4.4,0,0,0,.09-.67,16.4,16.4,0,0,0-1.63-1.53,22.18,22.18,0,0,0-2.32-1.47l-3.93-2.27a1.08,1.08,0,0,0-1,0l-10.24,5.91a.3.3,0,0,0,0,.56Z" style="fill:#e0e0e0"></path><path d="M123.5,247.78a1,1,0,0,1,1,0l3.93,2.27a20.72,20.72,0,0,1,2.32,1.48,17.51,17.51,0,0,1,1.63,1.52.18.18,0,0,1,0,.07.42.42,0,0,1-.14.12L122,259.15a.74.74,0,0,1-.86-.12,17.58,17.58,0,0,0-1.63-1.53,20.72,20.72,0,0,0-2.32-1.48l-3.93-2.26-.05,0,.05,0Z" style="fill:#fff"></path><path d="M132.76,255.69h0l.09-.38.38,0,1.25-.72a1.48,1.48,0,0,1,1.76.15.76.76,0,0,1,.18.31h.11l-.1.41h0a1.15,1.15,0,0,1-.56.67l-1.52.87a.65.65,0,0,1-.77-.11c-.24-.25-.48-.52-.72-.79A.41.41,0,0,1,132.76,255.69Z" style="fill:#BA68C8"></path><path d="M132.76,255.69h0l.09-.38.38,0,1.25-.72a1.48,1.48,0,0,1,1.76.15.76.76,0,0,1,.18.31h.11l-.1.41h0a1.15,1.15,0,0,1-.56.67l-1.52.87a.65.65,0,0,1-.77-.11c-.24-.25-.48-.52-.72-.79A.41.41,0,0,1,132.76,255.69Z" style="opacity:0.30000000000000004"></path><path d="M134.44,256.58l1.53-.87c.59-.35.75-1,.37-1.38a1.5,1.5,0,0,0-1.77-.15l-1.52.88a.39.39,0,0,0-.1.62c.24.27.48.54.72.79A.65.65,0,0,0,134.44,256.58Z" style="fill:#BA68C8"></path><path d="M124.11,260.92h0l.09-.39h.11a1.45,1.45,0,0,1,.37-.31l1.52-.87a.62.62,0,0,1,.76.12c.24.27.47.53.71.78l.21,0-.09.4h0a.38.38,0,0,1-.19.23l-1.52.88a1.51,1.51,0,0,1-1.78-.13A.77.77,0,0,1,124.11,260.92Z" style="fill:#BA68C8"></path><path d="M124.11,260.92h0l.09-.39h.11a1.45,1.45,0,0,1,.37-.31l1.52-.87a.62.62,0,0,1,.76.12c.24.27.47.53.71.78l.21,0-.09.4h0a.38.38,0,0,1-.19.23l-1.52.88a1.51,1.51,0,0,1-1.78-.13A.77.77,0,0,1,124.11,260.92Z" style="opacity:0.30000000000000004"></path><path d="M126.16,261.36l1.52-.88a.37.37,0,0,0,.09-.61c-.24-.25-.48-.52-.72-.79a.64.64,0,0,0-.76-.12l-1.52.88c-.59.34-.77,1-.39,1.39A1.51,1.51,0,0,0,126.16,261.36Z" style="fill:#BA68C8"></path><path d="M128.13,258.31h0l.1-.41.33,0,2-1.17a.88.88,0,0,1,1.06.17l.61.68.06.07h.2l-.11.43h0a.52.52,0,0,1-.27.35L130,259.64a.91.91,0,0,1-1.07-.15c-.21-.22-.41-.45-.62-.68A.57.57,0,0,1,128.13,258.31Z" style="fill:#BA68C8"></path><path d="M128.13,258.31h0l.1-.41.33,0,2-1.17a.88.88,0,0,1,1.06.17l.61.68.06.07h.2l-.11.43h0a.52.52,0,0,1-.27.35L130,259.64a.91.91,0,0,1-1.07-.15c-.21-.22-.41-.45-.62-.68A.57.57,0,0,1,128.13,258.31Z" style="opacity:0.30000000000000004"></path><path d="M128.37,258.39l.62.68a.91.91,0,0,0,1.07.15l2.17-1.25a.51.51,0,0,0,.12-.84l-.61-.68a.89.89,0,0,0-1.06-.18l-2.16,1.26A.54.54,0,0,0,128.37,258.39Z" style="fill:#BA68C8"></path><path d="M131.42,263.1H131l-1.12-.85a.67.67,0,0,0-.68-.05l-1.72,1-.54,0v.44h0a.31.31,0,0,0,.12.22l1.4,1.07a.71.71,0,0,0,.69,0l2.1-1.21a.26.26,0,0,0,.15-.24h0Z" style="fill:#BA68C8"></path><path d="M131.42,263.1H131l-1.12-.85a.67.67,0,0,0-.68-.05l-1.72,1-.54,0v.44h0a.31.31,0,0,0,.12.22l1.4,1.07a.71.71,0,0,0,.69,0l2.1-1.21a.26.26,0,0,0,.15-.24h0Z" style="opacity:0.30000000000000004"></path><path d="M127.1,263l2.11-1.21a.67.67,0,0,1,.68.05l1.4,1.06a.26.26,0,0,1,0,.46l-2.1,1.21a.71.71,0,0,1-.69,0l-1.4-1.07A.26.26,0,0,1,127.1,263Z" style="fill:#BA68C8"></path><path d="M140.54,270.06h-.41l-1.12-.85a.67.67,0,0,0-.68-.05l-1.72,1-.54,0v.44h0a.31.31,0,0,0,.12.22l1.4,1.07a.71.71,0,0,0,.69,0l2.1-1.21a.28.28,0,0,0,.15-.24h0Z" style="fill:#BA68C8"></path><path d="M140.54,270.06h-.41l-1.12-.85a.67.67,0,0,0-.68-.05l-1.72,1-.54,0v.44h0a.31.31,0,0,0,.12.22l1.4,1.07a.71.71,0,0,0,.69,0l2.1-1.21a.28.28,0,0,0,.15-.24h0Z" style="opacity:0.30000000000000004"></path><path d="M136.22,269.94l2.11-1.21a.67.67,0,0,1,.68,0l1.4,1.06a.26.26,0,0,1,0,.46l-2.1,1.21a.71.71,0,0,1-.69,0l-1.4-1.07A.26.26,0,0,1,136.22,269.94Z" style="fill:#BA68C8"></path><path d="M134.46,265.42h-.41l-1.12-.85a.67.67,0,0,0-.68-.05l-1.72,1-.54,0V266h0a.31.31,0,0,0,.12.22l1.4,1.07a.71.71,0,0,0,.69,0l2.1-1.21a.28.28,0,0,0,.15-.24h0Z" style="fill:#BA68C8"></path><path d="M134.46,265.42h-.41l-1.12-.85a.67.67,0,0,0-.68-.05l-1.72,1-.54,0V266h0a.31.31,0,0,0,.12.22l1.4,1.07a.71.71,0,0,0,.69,0l2.1-1.21a.28.28,0,0,0,.15-.24h0Z" style="opacity:0.30000000000000004"></path><path d="M130.14,265.3l2.11-1.21a.67.67,0,0,1,.68.05l1.4,1.06a.26.26,0,0,1,0,.46l-2.1,1.21a.71.71,0,0,1-.69,0l-1.4-1.07A.26.26,0,0,1,130.14,265.3Z" style="fill:#BA68C8"></path><path d="M137.5,267.74h-.41L136,266.9a.67.67,0,0,0-.68,0l-1.72,1-.54,0v.44h0a.31.31,0,0,0,.12.22l1.4,1.07a.71.71,0,0,0,.69,0l2.1-1.21a.28.28,0,0,0,.15-.24h0Z" style="fill:#BA68C8"></path><path d="M137.5,267.74h-.41L136,266.9a.67.67,0,0,0-.68,0l-1.72,1-.54,0v.44h0a.31.31,0,0,0,.12.22l1.4,1.07a.71.71,0,0,0,.69,0l2.1-1.21a.28.28,0,0,0,.15-.24h0Z" style="opacity:0.30000000000000004"></path><path d="M133.18,267.62l2.11-1.21a.67.67,0,0,1,.68,0l1.4,1.06a.26.26,0,0,1,0,.46l-2.1,1.21a.71.71,0,0,1-.69,0l-1.4-1.07A.26.26,0,0,1,133.18,267.62Z" style="fill:#BA68C8"></path><path d="M136.11,260.4h-.4l-1.13-.86a.64.64,0,0,0-.68,0l-1.72,1h-.54V261h0a.26.26,0,0,0,.13.22l1.4,1.07a.66.66,0,0,0,.68.05l2.1-1.22a.26.26,0,0,0,.16-.23h0Z" style="fill:#BA68C8"></path><path d="M136.11,260.4h-.4l-1.13-.86a.64.64,0,0,0-.68,0l-1.72,1h-.54V261h0a.26.26,0,0,0,.13.22l1.4,1.07a.66.66,0,0,0,.68.05l2.1-1.22a.26.26,0,0,0,.16-.23h0Z" style="opacity:0.30000000000000004"></path><path d="M131.8,260.28l2.1-1.21a.64.64,0,0,1,.68,0l1.4,1.07a.25.25,0,0,1,0,.45l-2.1,1.22a.66.66,0,0,1-.68-.05l-1.4-1.07A.25.25,0,0,1,131.8,260.28Z" style="fill:#BA68C8"></path><path d="M145.23,267.36h-.4l-1.13-.86a.64.64,0,0,0-.68,0l-1.72,1h-.54v.44h0a.26.26,0,0,0,.13.22l1.4,1.07a.66.66,0,0,0,.68.05l2.1-1.22a.26.26,0,0,0,.16-.23h0Z" style="fill:#BA68C8"></path><path d="M145.23,267.36h-.4l-1.13-.86a.64.64,0,0,0-.68,0l-1.72,1h-.54v.44h0a.26.26,0,0,0,.13.22l1.4,1.07a.66.66,0,0,0,.68.05l2.1-1.22a.26.26,0,0,0,.16-.23h0Z" style="opacity:0.30000000000000004"></path><path d="M140.92,267.24,143,266a.64.64,0,0,1,.68,0l1.4,1.07a.25.25,0,0,1,0,.45l-2.1,1.22a.66.66,0,0,1-.68-.05l-1.4-1.07A.25.25,0,0,1,140.92,267.24Z" style="fill:#BA68C8"></path><path d="M139.15,262.72h-.4l-1.13-.86a.64.64,0,0,0-.68,0l-1.72,1h-.54v.44h0a.26.26,0,0,0,.13.22l1.4,1.07a.66.66,0,0,0,.68.05l2.1-1.22a.26.26,0,0,0,.16-.23h0Z" style="fill:#BA68C8"></path><path d="M139.15,262.72h-.4l-1.13-.86a.64.64,0,0,0-.68,0l-1.72,1h-.54v.44h0a.26.26,0,0,0,.13.22l1.4,1.07a.66.66,0,0,0,.68.05l2.1-1.22a.26.26,0,0,0,.16-.23h0Z" style="opacity:0.30000000000000004"></path><path d="M134.84,262.6l2.1-1.21a.64.64,0,0,1,.68,0l1.4,1.07a.25.25,0,0,1,0,.45l-2.1,1.22a.66.66,0,0,1-.68-.05l-1.4-1.07A.25.25,0,0,1,134.84,262.6Z" style="fill:#BA68C8"></path><path d="M142.19,265h-.4l-1.13-.86a.64.64,0,0,0-.68,0l-1.72,1h-.54v.44h0a.26.26,0,0,0,.13.22l1.4,1.07a.66.66,0,0,0,.68.05l2.1-1.22a.26.26,0,0,0,.16-.23h0Z" style="fill:#BA68C8"></path><path d="M142.19,265h-.4l-1.13-.86a.64.64,0,0,0-.68,0l-1.72,1h-.54v.44h0a.26.26,0,0,0,.13.22l1.4,1.07a.66.66,0,0,0,.68.05l2.1-1.22a.26.26,0,0,0,.16-.23h0Z" style="opacity:0.30000000000000004"></path><path d="M137.88,264.92l2.1-1.21a.64.64,0,0,1,.68,0l1.4,1.07a.25.25,0,0,1,0,.45l-2.1,1.22a.66.66,0,0,1-.68-.05l-1.4-1.07A.25.25,0,0,1,137.88,264.92Z" style="fill:#BA68C8"></path><path d="M140.8,257.7h-.4l-1.13-.86a.66.66,0,0,0-.68-.05l-1.72,1-.54,0v.44h0a.28.28,0,0,0,.13.22l1.4,1.07a.69.69,0,0,0,.68,0l2.1-1.21a.27.27,0,0,0,.16-.23h0Z" style="fill:#BA68C8"></path><path d="M140.8,257.7h-.4l-1.13-.86a.66.66,0,0,0-.68-.05l-1.72,1-.54,0v.44h0a.28.28,0,0,0,.13.22l1.4,1.07a.69.69,0,0,0,.68,0l2.1-1.21a.27.27,0,0,0,.16-.23h0Z" style="opacity:0.30000000000000004"></path><path d="M136.49,257.58l2.1-1.22a.66.66,0,0,1,.68.05l1.4,1.07a.25.25,0,0,1,0,.45l-2.1,1.21a.69.69,0,0,1-.68,0l-1.4-1.07A.25.25,0,0,1,136.49,257.58Z" style="fill:#BA68C8"></path><path d="M149.92,264.66h-.4l-1.13-.86a.66.66,0,0,0-.68-.05l-1.72,1-.54,0v.44h0a.28.28,0,0,0,.13.22l1.4,1.07a.69.69,0,0,0,.68,0l2.1-1.21a.27.27,0,0,0,.16-.23h0Z" style="fill:#BA68C8"></path><path d="M149.92,264.66h-.4l-1.13-.86a.66.66,0,0,0-.68-.05l-1.72,1-.54,0v.44h0a.28.28,0,0,0,.13.22l1.4,1.07a.69.69,0,0,0,.68,0l2.1-1.21a.27.27,0,0,0,.16-.23h0Z" style="opacity:0.30000000000000004"></path><path d="M145.61,264.54l2.1-1.22a.66.66,0,0,1,.68.05l1.4,1.06a.26.26,0,0,1,0,.46l-2.1,1.21a.69.69,0,0,1-.68,0l-1.4-1.07A.25.25,0,0,1,145.61,264.54Z" style="fill:#BA68C8"></path><path d="M146.88,262.34h-.4l-1.13-.86a.66.66,0,0,0-.68-.05l-1.72,1-.54,0v.44h0a.28.28,0,0,0,.13.22l1.4,1.07a.69.69,0,0,0,.68,0l2.1-1.21a.27.27,0,0,0,.16-.23h0Z" style="fill:#BA68C8"></path><path d="M146.88,262.34h-.4l-1.13-.86a.66.66,0,0,0-.68-.05l-1.72,1-.54,0v.44h0a.28.28,0,0,0,.13.22l1.4,1.07a.69.69,0,0,0,.68,0l2.1-1.21a.27.27,0,0,0,.16-.23h0Z" style="opacity:0.30000000000000004"></path><path d="M142.57,262.22l2.1-1.22a.66.66,0,0,1,.68.05l1.4,1.06a.26.26,0,0,1,0,.46l-2.1,1.21a.69.69,0,0,1-.68,0l-1.4-1.07A.25.25,0,0,1,142.57,262.22Z" style="fill:#BA68C8"></path><path d="M143.84,260h-.4l-1.13-.86a.66.66,0,0,0-.68-.05l-1.72,1-.54,0v.44h0a.28.28,0,0,0,.13.22l1.4,1.07a.69.69,0,0,0,.68,0l2.1-1.21a.27.27,0,0,0,.16-.23h0Z" style="fill:#BA68C8"></path><path d="M143.84,260h-.4l-1.13-.86a.66.66,0,0,0-.68-.05l-1.72,1-.54,0v.44h0a.28.28,0,0,0,.13.22l1.4,1.07a.69.69,0,0,0,.68,0l2.1-1.21a.27.27,0,0,0,.16-.23h0Z" style="opacity:0.30000000000000004"></path><path d="M139.53,259.9l2.1-1.22a.66.66,0,0,1,.68.05l1.4,1.07a.25.25,0,0,1,0,.45l-2.1,1.21a.69.69,0,0,1-.68,0l-1.4-1.07A.25.25,0,0,1,139.53,259.9Z" style="fill:#BA68C8"></path></g></g></g><g id="freepik--Eggs--inject-16"><path d="M213.87,203.08c0,3.46-2.81,7.36-6.27,7.36s-6.26-3.9-6.26-7.36a6.27,6.27,0,1,1,12.53,0Z" style="fill:#BA68C8"></path><path d="M213.87,203.08c0,3.46-2.81,7.36-6.27,7.36s-6.26-3.9-6.26-7.36a6.27,6.27,0,1,1,12.53,0Z" style="opacity:0.6000000000000001"></path><path d="M225.1,209.57c0,3.46-2.8,7.36-6.26,7.36s-6.27-3.9-6.27-7.36a6.27,6.27,0,1,1,12.53,0Z" style="fill:#BA68C8"></path><path d="M225.1,209.57c0,3.46-2.8,7.36-6.26,7.36s-6.27-3.9-6.27-7.36a6.27,6.27,0,1,1,12.53,0Z" style="opacity:0.6000000000000001"></path><path d="M236.34,216.06c0,3.46-2.81,7.37-6.27,7.37s-6.26-3.91-6.26-7.37a6.27,6.27,0,0,1,12.53,0Z" style="fill:#BA68C8"></path><path d="M236.34,216.06c0,3.46-2.81,7.37-6.27,7.37s-6.26-3.91-6.26-7.37a6.27,6.27,0,0,1,12.53,0Z" style="opacity:0.6000000000000001"></path><path d="M247.57,222.57c0,3.46-2.8,7.36-6.26,7.36S235,226,235,222.57a6.27,6.27,0,1,1,12.53,0Z" style="fill:#BA68C8"></path><path d="M247.57,222.57c0,3.46-2.8,7.36-6.26,7.36S235,226,235,222.57a6.27,6.27,0,1,1,12.53,0Z" style="opacity:0.6000000000000001"></path><path d="M260,215.29c0,3.46-2.8,7.36-6.26,7.36s-6.27-3.9-6.27-7.36a6.27,6.27,0,1,1,12.53,0Z" style="fill:#BA68C8"></path><path d="M260,215.29c0,3.46-2.8,7.36-6.26,7.36s-6.27-3.9-6.27-7.36a6.27,6.27,0,1,1,12.53,0Z" style="opacity:0.6000000000000001"></path><path d="M267,211.5a1.4,1.4,0,0,0-.82-1.15L222.3,185a4.47,4.47,0,0,0-4,0L196,197.84a1.4,1.4,0,0,0-.82,1.16v2.16a1.4,1.4,0,0,0,.82,1.16l43.9,25.36a4.43,4.43,0,0,0,4,0l22.27-12.85a1.4,1.4,0,0,0,.82-1.16Z" style="fill:#BA68C8"></path><path d="M267,211.5a1.4,1.4,0,0,0-.82-1.15L222.3,185a4.47,4.47,0,0,0-4,0L196,197.84a1.4,1.4,0,0,0-.82,1.16v2.16a1.4,1.4,0,0,0,.82,1.16l43.9,25.36a4.43,4.43,0,0,0,4,0l22.27-12.85a1.4,1.4,0,0,0,.82-1.16Z" style="opacity:0.2"></path><path d="M242,226v2.16a4.09,4.09,0,0,1-2-.48L196,202.32a1.39,1.39,0,0,1-.83-1.16c0-.39,0-1.77,0-2.16a1.4,1.4,0,0,0,.83,1.15l43.9,25.37A4.17,4.17,0,0,0,242,226Z" style="opacity:0.1"></path><path d="M196,197.84,218.3,185a4.47,4.47,0,0,1,4,0l43.9,25.37a1.22,1.22,0,0,1,0,2.31l-22.27,12.86a4.49,4.49,0,0,1-4,0L196,200.15A1.22,1.22,0,0,1,196,197.84Z" style="fill:#BA68C8"></path><path d="M245.64,220.8c2.39-1.38,2.4-3.61,0-5a9.63,9.63,0,0,0-8.67,0c-2.41,1.38-2.42,3.61,0,5A9.6,9.6,0,0,0,245.64,220.8Z" style="opacity:0.1"></path><path d="M258,213.64c2.39-1.38,2.4-3.61,0-5a9.63,9.63,0,0,0-8.67,0c-2.41,1.37-2.42,3.61,0,5A9.63,9.63,0,0,0,258,213.64Z" style="opacity:0.1"></path><path d="M234.41,214.31c2.39-1.38,2.4-3.62,0-5a9.62,9.62,0,0,0-8.68,0c-2.41,1.37-2.41,3.61,0,5A9.65,9.65,0,0,0,234.41,214.31Z" style="opacity:0.1"></path><path d="M246.81,207.15c2.39-1.38,2.4-3.62,0-5a9.62,9.62,0,0,0-8.68,0c-2.41,1.38-2.42,3.62,0,5A9.62,9.62,0,0,0,246.81,207.15Z" style="opacity:0.1"></path><path d="M223.17,207.82c2.4-1.38,2.4-3.62,0-5a9.6,9.6,0,0,0-8.67,0c-2.41,1.38-2.42,3.61,0,5A9.6,9.6,0,0,0,223.17,207.82Z" style="opacity:0.1"></path><path d="M235.57,200.66c2.39-1.39,2.4-3.62,0-5a9.63,9.63,0,0,0-8.67,0c-2.41,1.38-2.42,3.61,0,5A9.6,9.6,0,0,0,235.57,200.66Z" style="opacity:0.1"></path><path d="M211.94,201.32c2.39-1.38,2.4-3.61,0-5a9.65,9.65,0,0,0-8.68,0c-2.41,1.38-2.41,3.61,0,5A9.59,9.59,0,0,0,211.94,201.32Z" style="opacity:0.1"></path><path d="M224.34,194.16c2.39-1.38,2.4-3.61,0-5a9.65,9.65,0,0,0-8.68,0c-2.41,1.38-2.42,3.61,0,5A9.62,9.62,0,0,0,224.34,194.16Z" style="opacity:0.1"></path><path d="M259.53,211c0,.1,0,.2,0,.3a5.46,5.46,0,0,1-.2,1.21,4.29,4.29,0,0,1-1.28,1.09,9.63,9.63,0,0,1-8.67,0,4.2,4.2,0,0,1-1.27-1.08,5,5,0,0,1-.21-1.23c0-.1,0-.2,0-.3s0-.2,0-.29c0-.26,0-.52.05-.77a11.69,11.69,0,0,1,3.35-7.17,3.42,3.42,0,0,1,4.83,0,11.6,11.6,0,0,1,3.34,7.1q0,.42.06.84A2.71,2.71,0,0,1,259.53,211Z" style="fill:#fafafa"></path><path d="M248.29,204.54c0,.1,0,.2,0,.3a5.45,5.45,0,0,1-.19,1.21,4.34,4.34,0,0,1-1.29,1.09,9.61,9.61,0,0,1-8.66,0,4.38,4.38,0,0,1-1.28-1.07,5.73,5.73,0,0,1-.2-1.24c0-.1,0-.2,0-.3s0-.2,0-.29c0-.26,0-.52,0-.77a11.65,11.65,0,0,1,3.36-7.17,3.4,3.4,0,0,1,4.82,0,11.56,11.56,0,0,1,3.35,7.1c0,.28,0,.56.05.84A2.71,2.71,0,0,1,248.29,204.54Z" style="fill:#fafafa"></path><path d="M247.13,218.2a2.91,2.91,0,0,1,0,.3,5.46,5.46,0,0,1-.2,1.21,4,4,0,0,1-1.28,1.09,9.56,9.56,0,0,1-8.67,0,4.18,4.18,0,0,1-1.27-1.07,5.74,5.74,0,0,1-.21-1.24c0-.09,0-.2,0-.3s0-.2,0-.29c0-.26,0-.52,0-.77a11.72,11.72,0,0,1,3.35-7.17,3.42,3.42,0,0,1,4.83,0,11.6,11.6,0,0,1,3.34,7.11c0,.27.05.55.06.83A2.71,2.71,0,0,1,247.13,218.2Z" style="fill:#fafafa"></path><path d="M235.89,211.7a2.81,2.81,0,0,1,0,.3,5.45,5.45,0,0,1-.19,1.21,4.06,4.06,0,0,1-1.29,1.09,9.54,9.54,0,0,1-8.66,0,4.23,4.23,0,0,1-1.28-1.07,5.73,5.73,0,0,1-.2-1.24c0-.09,0-.19,0-.3s0-.2,0-.29c0-.26,0-.52,0-.77a11.68,11.68,0,0,1,3.36-7.17,3.4,3.4,0,0,1,4.82,0,11.56,11.56,0,0,1,3.35,7.11c0,.27,0,.55,0,.83A2.71,2.71,0,0,1,235.89,211.7Z" style="fill:#fafafa"></path><path d="M237.06,198c0,.1,0,.2,0,.3a5.46,5.46,0,0,1-.2,1.21,4.29,4.29,0,0,1-1.28,1.09,9.63,9.63,0,0,1-8.67,0,4.33,4.33,0,0,1-1.27-1.07,5.74,5.74,0,0,1-.21-1.24c0-.1,0-.2,0-.3s0-.2,0-.29c0-.26,0-.52.05-.77a11.69,11.69,0,0,1,3.35-7.17,3.42,3.42,0,0,1,4.83,0,11.6,11.6,0,0,1,3.34,7.1q0,.42.06.84A2.71,2.71,0,0,1,237.06,198Z" style="fill:#fafafa"></path><path d="M225.82,191.54c0,.1,0,.2,0,.3a5.45,5.45,0,0,1-.19,1.21,4.2,4.2,0,0,1-1.29,1.09,9.61,9.61,0,0,1-8.66,0,4.38,4.38,0,0,1-1.28-1.07,5.73,5.73,0,0,1-.2-1.24c0-.1,0-.2,0-.3s0-.2,0-.29c0-.26,0-.52,0-.77a11.65,11.65,0,0,1,3.36-7.17,3.4,3.4,0,0,1,4.82,0,11.56,11.56,0,0,1,3.35,7.1c0,.28,0,.56.05.84A2.71,2.71,0,0,1,225.82,191.54Z" style="fill:#fafafa"></path><path d="M224.66,205.22a2.71,2.71,0,0,1,0,.29,5.27,5.27,0,0,1-.19,1.21,4.06,4.06,0,0,1-1.29,1.09,9.54,9.54,0,0,1-8.66,0,4.09,4.09,0,0,1-1.28-1.07,5.63,5.63,0,0,1-.2-1.24c0-.09,0-.19,0-.29s0-.21,0-.3c0-.26,0-.52,0-.76a11.68,11.68,0,0,1,3.36-7.18,3.43,3.43,0,0,1,4.82,0,11.59,11.59,0,0,1,3.35,7.11c0,.28,0,.55.05.83A2.91,2.91,0,0,1,224.66,205.22Z" style="fill:#fafafa"></path><path d="M213.43,198.72a2.81,2.81,0,0,1,0,.3,5.37,5.37,0,0,1-.2,1.21,4,4,0,0,1-1.28,1.09,9.56,9.56,0,0,1-8.67,0,4,4,0,0,1-1.27-1.07,5.64,5.64,0,0,1-.21-1.24c0-.09,0-.19,0-.3s0-.2,0-.29c0-.26,0-.52.05-.77a11.72,11.72,0,0,1,3.35-7.17,3.42,3.42,0,0,1,4.83,0,11.6,11.6,0,0,1,3.34,7.11c0,.27,0,.55.06.83A2.71,2.71,0,0,1,213.43,198.72Z" style="fill:#fafafa"></path></g></g><g id="freepik--Bag--inject-16"><g id="freepik--bag--inject-16"><polygon points="67.89 315.36 45.21 328.46 45.21 260.36 57.42 256.94 67.89 247.26 67.89 315.36" style="fill:#37474f"></polygon><polygon points="57.42 256.94 57.42 321.41 45.21 328.46 45.21 260.36 57.42 256.94" style="fill:#263238"></polygon><polygon points="67.89 247.26 108.72 270.84 108.72 338.93 67.89 315.36 67.89 247.26" style="fill:#263238"></polygon><g id="freepik--Apple--inject-16"><path d="M61,262.94a7.83,7.83,0,0,0-6.94,5.45c-1.9,5.17,1.11,11.06,5,13.28,4.95,2.78,12.21,2.25,16.08-2.07,4.29-4.77,3.81-13,.23-16.19s-8.43-1.72-9.66-1.05C63.94,263.38,62.55,262.7,61,262.94Z" style="fill:#f28f8f"></path><path d="M70.89,278.14c-4.75,3.26-10.13,3.82-14.61,1.06a10.24,10.24,0,0,0,2.87,2.47c4.95,2.78,12.21,2.25,16.08-2.07a13.32,13.32,0,0,0,2.26-13.09C77.79,267.62,76.12,274.56,70.89,278.14Z" style="opacity:0.1"></path><g style="opacity:0.2"><path d="M59.2,264.87c-1.26,0-3,1.32-3.75,3.12a12,12,0,0,0-.22,7.38c1.18,4.31,5.66,6.18,6,5.77s-3-3-1.74-7.51S61.27,264.84,59.2,264.87Z" style="fill:#fff"></path></g><g style="opacity:0.2"><path d="M58.31,265.68c-1.24.56-2.51,2.75-2.74,4.23s0,2.44.26,2.59c.38.27,2.71-2.52,3.44-3.74C60.3,267,60.29,264.78,58.31,265.68Z" style="fill:#fff"></path></g><path d="M66.7,265.77c.74-.47,1.41-.68,1.67.17s-1.69,1.95-3.64,1.16-2.51-2.17-2.4-2.83a3.69,3.69,0,0,0,2.09,1.83A3.35,3.35,0,0,0,66.7,265.77Z" style="fill:#b16668"></path><path d="M64.78,266.59a18.92,18.92,0,0,1,1.46-5.4,10.33,10.33,0,0,1,3.42-4.28,5.43,5.43,0,0,1,2.23-.11c1,.12,2.18.94,1.81,1.3s-1.89.51-3.87,2-4,4.6-4.22,6.56A.81.81,0,0,1,64.78,266.59Z" style="fill:#37474f"></path><path d="M69.73,256.89l.11,0h0a5.86,5.86,0,0,1,2-.06,2.85,2.85,0,0,1,1.82.94c.05.16-.19.34-1.13.37a5.72,5.72,0,0,1-2.68-.52C69.51,257.4,69.39,257,69.73,256.89Z" style="fill:#455a64"></path><path d="M66.45,263.48c1-2.24,3.7-3.93,5.47-4.61h0a10.26,10.26,0,0,0-2.09,1.24c-2,1.5-4,4.6-4.22,6.56a.81.81,0,0,1-.83-.08s.07-.71.28-1.71C65,265.83,65.49,265.54,66.45,263.48Z" style="opacity:0.1"></path><path d="M65.68,262.59A4.46,4.46,0,0,1,61.3,256a4.55,4.55,0,0,1,3.84,1.64A5.4,5.4,0,0,1,65.68,262.59Z" style="fill:#BA68C8"></path><path d="M65.68,262.59A4.46,4.46,0,0,1,61.3,256a4.55,4.55,0,0,1,3.84,1.64A5.4,5.4,0,0,1,65.68,262.59Z" style="opacity:0.30000000000000004"></path><path d="M61.3,256a4.55,4.55,0,0,1,3.84,1.64,5.4,5.4,0,0,1,.54,4.92C64.89,258.88,61.3,256,61.3,256Z" style="fill:#BA68C8"></path></g><g id="freepik--apple--inject-16"><path d="M83.48,268.05a7.83,7.83,0,0,0-6.94,5.45c-1.9,5.17,1.11,11.07,5,13.28,5,2.79,12.21,2.25,16.09-2.07,4.28-4.77,3.8-12.95.22-16.19s-8.43-1.72-9.66-1C86.38,268.49,85,267.82,83.48,268.05Z" style="fill:#f28f8f"></path><path d="M94.9,284a15.64,15.64,0,0,1-16.18.33,10.24,10.24,0,0,0,2.87,2.47c5,2.79,12.21,2.25,16.09-2.07a13.34,13.34,0,0,0,2.25-13.09C100.23,272.73,100.13,280.4,94.9,284Z" style="opacity:0.1"></path><g style="opacity:0.2"><path d="M81.64,270c-1.26,0-3,1.32-3.74,3.12a12,12,0,0,0-.23,7.38c1.18,4.31,5.66,6.18,6,5.77s-3-3-1.74-7.51S83.71,270,81.64,270Z" style="fill:#fff"></path></g><g style="opacity:0.2"><path d="M80.75,270.79c-1.23.56-2.51,2.75-2.74,4.23s0,2.44.26,2.59c.38.27,2.72-2.52,3.44-3.74C82.74,272.14,82.73,269.89,80.75,270.79Z" style="fill:#fff"></path></g><path d="M85.88,271.6c-.73-.47-1.4-.68-1.66.17s1.69,2,3.64,1.16,2.51-2.17,2.4-2.82a3.69,3.69,0,0,1-2.09,1.82A3.38,3.38,0,0,1,85.88,271.6Z" style="fill:#b16668"></path><path d="M87.8,272.42a18.92,18.92,0,0,0-1.46-5.4,10.21,10.21,0,0,0-3.41-4.27,5.27,5.27,0,0,0-2.23-.11c-1,.11-2.19.93-1.81,1.29s1.89.51,3.86,2,4,4.6,4.23,6.55A.8.8,0,0,0,87.8,272.42Z" style="fill:#37474f"></path><path d="M82.85,262.72l-.1,0h0a5.93,5.93,0,0,0-2-.05,2.76,2.76,0,0,0-1.82.94c-.06.15.19.33,1.12.37a5.92,5.92,0,0,0,2.69-.53C83.07,263.23,83.19,262.86,82.85,262.72Z" style="fill:#455a64"></path><path d="M86.14,269.31c-1-2.24-3.71-3.92-5.48-4.61h0A10.29,10.29,0,0,1,82.75,266c2,1.5,4,4.6,4.23,6.55a.8.8,0,0,0,.82-.08s-.07-.7-.28-1.71C87.57,271.66,87.1,271.37,86.14,269.31Z" style="opacity:0.1"></path><path d="M86.91,268.42a4.46,4.46,0,0,0,4.37-6.55,4.54,4.54,0,0,0-3.83,1.64A5.35,5.35,0,0,0,86.91,268.42Z" style="fill:#BA68C8"></path><path d="M86.91,268.42a4.46,4.46,0,0,0,4.37-6.55,4.54,4.54,0,0,0-3.83,1.64A5.35,5.35,0,0,0,86.91,268.42Z" style="opacity:0.30000000000000004"></path><path d="M91.28,261.87a4.54,4.54,0,0,0-3.83,1.64,5.35,5.35,0,0,0-.54,4.91C87.7,264.72,91.28,261.87,91.28,261.87Z" style="fill:#BA68C8"></path></g><polygon points="86.04 352.03 86.04 283.93 45.21 260.36 45.21 328.46 86.04 352.03" style="fill:#455a64"></polygon><polygon points="108.72 338.93 86.04 352.03 86.04 283.93 97.38 273.46 108.72 270.84 108.72 338.93" style="fill:#37474f"></polygon><polygon points="86.04 352.03 97.38 337.62 108.72 338.93 86.04 352.03" style="fill:#455a64"></polygon><polygon points="97.38 337.62 97.38 273.46 86.04 283.93 86.04 352.03 97.38 337.62" style="fill:#263238"></polygon></g></g><g id="freepik--shopping-basket--inject-16"><g id="freepik--Groceries--inject-16"><polygon points="369.02 335.35 421.5 365.64 454.53 346.57 402.06 316.27 369.02 335.35" style="fill:#BA68C8"></polygon><polygon points="369.02 335.35 421.5 365.64 454.53 346.57 402.06 316.27 369.02 335.35" style="opacity:0.4"></polygon><polygon points="402.06 269.15 402.06 316.27 369.02 335.35 361.25 292.71 402.06 269.15" style="fill:#BA68C8"></polygon><polyline points="361.25 292.71 402.06 269.15 402.06 316.27 369.02 335.35 361.25 292.71" style="opacity:0.4"></polyline><polygon points="462.31 303.93 454.53 346.57 402.06 316.27 402.06 269.15 462.31 303.93" style="fill:#BA68C8"></polygon><polygon points="462.31 303.93 454.53 346.57 402.06 316.27 402.06 269.15 462.31 303.93" style="opacity:0.30000000000000004"></polygon><path d="M465,303.93h-2.67l-60.25-34.78-40.81,23.56.6.35-3.28-.35a1.48,1.48,0,0,1,.86-1.2L400,268.1a4.58,4.58,0,0,1,4.14,0l60,34.63C464.34,302.86,465,303.37,465,303.93Z" style="fill:#455a64"></path><path d="M432,251.61,430.57,249a3.46,3.46,0,0,1,3.19,0h0a2.68,2.68,0,0,1,1.15,2.76c-1.56,6.49-7,29.69-7.17,29.92l-2.38-1.39Z" style="fill:#BA68C8"></path><path d="M432,251.61,430.57,249a3.46,3.46,0,0,1,3.19,0h0a2.68,2.68,0,0,1,1.15,2.76c-1.56,6.49-7,29.69-7.17,29.92l-2.38-1.39Z" style="opacity:0.25"></path><path d="M435.84,250.29a4.16,4.16,0,0,1,1.78,2.71l5.29,37.49L440.25,289l-5.56-36.87-2-1.75A3.45,3.45,0,0,1,435.84,250.29Z" style="fill:#BA68C8"></path><polygon points="388.66 273.25 389.51 276.27 432 251.61 430.57 249.02 388.66 273.25" style="fill:#BA68C8"></polygon><polygon points="388.66 273.25 389.51 276.27 432 251.61 430.57 249.02 388.66 273.25" style="opacity:0.25"></polygon><polygon points="432.71 250.32 434.69 252.08 391.08 277.49 389.51 275.05 432.71 250.32" style="fill:#BA68C8"></polygon><g id="freepik--Can--inject-16"><path d="M392.68,316.35c5.83,3.36,15.27,3.36,21.09,0s5.82-8.81,0-12.18-15.26-3.36-21.09,0S386.86,313,392.68,316.35Z" style="opacity:0.05"></path><path d="M417.3,310.18h0V285H392.14v25.14h0c-.1,1.93,1.11,3.89,3.67,5.37,4.92,2.83,12.89,2.83,17.81,0C416.19,314.07,417.4,312.11,417.3,310.18Z" style="fill:#ebebeb"></path><path d="M395.82,290.18c4.92,2.83,12.89,2.83,17.81,0s4.91-7.44,0-10.28-12.89-2.84-17.81,0S390.91,287.34,395.82,290.18Z" style="fill:#fafafa"></path><path d="M396.37,289.76c4.61,2.6,12.1,2.6,16.71,0s4.62-6.84,0-9.44-12.1-2.61-16.71,0S391.75,287.15,396.37,289.76Z" style="fill:#ebebeb"></path><path d="M413.08,281.54c-4.61-2.61-12.1-2.61-16.71,0-2,1.15-3.17,2.61-3.41,4.11.24,1.5,1.37,3,3.41,4.11,4.61,2.6,12.1,2.6,16.71,0,2-1.15,3.17-2.61,3.41-4.11C416.25,284.15,415.12,282.69,413.08,281.54Z" style="fill:#f5f5f5"></path><path d="M392.14,305.93c0,1.87,1.21,3.74,3.68,5.17,4.92,2.84,12.89,2.84,17.81,0,2.46-1.42,3.68-3.28,3.68-5.14V289.13c0,1.86-1.22,3.72-3.68,5.14-4.92,2.84-12.89,2.84-17.81,0-2.47-1.43-3.7-3.3-3.68-5.17Z" style="fill:#BA68C8"></path><path d="M392.14,305.93c0,1.87,1.21,3.74,3.68,5.17,4.92,2.84,12.89,2.84,17.81,0,2.46-1.42,3.68-3.28,3.68-5.14V289.13c0,1.86-1.22,3.72-3.68,5.14-4.92,2.84-12.89,2.84-17.81,0-2.47-1.43-3.7-3.3-3.68-5.17Z" style="fill:#fff;opacity:0.5"></path><path d="M409.88,317c-4.63,1.2-10.26.71-14.05-1.49-2.57-1.47-3.78-3.42-3.68-5.37h0V285c0,1.86,1.24,3.72,3.7,5.14a10.54,10.54,0,0,0,1.21.61v22.45C397,315.34,404.06,317.84,409.88,317Z" style="opacity:0.05"></path><path d="M407.6,289.52l-1.34-.77c-1.08-.63-1.37-1.47-.64-1.89a3.75,3.75,0,0,1,3.27.37l1.34.77c1.08.63,1.37,1.47.65,1.89A3.77,3.77,0,0,1,407.6,289.52Z" style="fill:#e0e0e0"></path><ellipse cx="406.92" cy="287.61" rx="1.01" ry="0.59" style="fill:#f5f5f5"></ellipse><path d="M408.85,289.45a1.57,1.57,0,0,0,1.43,0c.4-.23.4-.6,0-.82a1.57,1.57,0,0,0-1.43,0C408.45,288.85,408.45,289.22,408.85,289.45Z" style="fill:#f5f5f5"></path></g><g id="freepik--Bottle--inject-16"><path d="M372.07,293.86a10.89,10.89,0,0,1,1.33-.64,2.27,2.27,0,0,0,1.45-2.09v-3.76h8.32v3.76a2.26,2.26,0,0,0,1.45,2.09,10.75,10.75,0,0,1,1.32.64,5.89,5.89,0,0,1,2.88,4.72v32.2c0,1.45-1,2.9-2.88,4a15.34,15.34,0,0,1-13.87,0c-1.91-1.11-2.87-2.56-2.87-4v-32.2A5.9,5.9,0,0,1,372.07,293.86Z" style="fill:#f0f0f0"></path><path d="M372.07,303.78a15.44,15.44,0,0,0,13.86,0c1.92-1.1,2.87-2.53,2.87-4v24.83c0,1.44-.95,2.87-2.87,4a15.44,15.44,0,0,1-13.86,0c-1.91-1.09-2.87-2.52-2.87-4V299.82C369.2,301.25,370.16,302.68,372.07,303.78Z" style="fill:#f28f8f"></path><path d="M385.65,330.84V299.17c0-1.2-.25-2.83-1.69-3.56-2.88-1.46-3.24-2.64-3.24-4.11v-4.13h2.45v3.76a2.26,2.26,0,0,0,1.45,2.09,10.75,10.75,0,0,1,1.32.64,5.89,5.89,0,0,1,2.88,4.72v32.2c0,1.45-1,2.9-2.88,4a15.32,15.32,0,0,1-10.18,1.33C383.73,336.67,385.65,333.29,385.65,330.84Z" style="opacity:0.1"></path><path d="M374.6,286.25v1.11a2.22,2.22,0,0,0,1.31,1.84,7,7,0,0,0,6.35,0,3,3,0,0,0,1-.86,1.65,1.65,0,0,0,.32-1v-1.13a1,1,0,0,0,0-.3,2.43,2.43,0,0,0-1.28-1.54l-.06,0a7.06,7.06,0,0,0-6.29,0,2.44,2.44,0,0,0-1.28,1.53A1.16,1.16,0,0,0,374.6,286.25Z" style="fill:#37474f"></path><path d="M382.26,288.07c1.75-1,1.75-2.65,0-3.67a7,7,0,0,0-6.35,0c-1.75,1-1.75,2.66,0,3.67A7,7,0,0,0,382.26,288.07Z" style="fill:#263238"></path><path d="M374.6,282.81v2.81a1.09,1.09,0,0,0,0,.31,2.4,2.4,0,0,0,1.28,1.53,6.27,6.27,0,0,0,2.81.75,6.65,6.65,0,0,0,3.54-.75,3,3,0,0,0,1-.86,1.67,1.67,0,0,0,.29-.66,1.09,1.09,0,0,0,0-.31V282.8a2.21,2.21,0,0,0-1.31-1.83l-.24-.13a7.07,7.07,0,0,0-6.11.13A2.22,2.22,0,0,0,374.6,282.81Z" style="fill:#37474f"></path><path d="M374.6,282.79c0,1.43,2,2.58,4.49,2.58s4.48-1.15,4.48-2.58-2-2.58-4.48-2.58S374.6,281.37,374.6,282.79Z" style="fill:#455a64"></path></g><g id="freepik--bottle--inject-16"><path d="M389.41,303.35a10.18,10.18,0,0,1,1.33-.64,2.26,2.26,0,0,0,1.45-2.09v-3.77h8.32v3.77a2.26,2.26,0,0,0,1.45,2.09,9.48,9.48,0,0,1,1.32.64,5.89,5.89,0,0,1,2.88,4.72v32.2c0,1.45-1,2.9-2.88,4a15.34,15.34,0,0,1-13.87,0c-1.91-1.11-2.87-2.56-2.87-4v-32.2A5.9,5.9,0,0,1,389.41,303.35Z" style="fill:#f0f0f0"></path><path d="M389.41,313.27a15.44,15.44,0,0,0,13.86,0c1.92-1.1,2.88-2.53,2.88-4v24.83c0,1.43-1,2.87-2.88,4a15.44,15.44,0,0,1-13.86,0c-1.91-1.09-2.87-2.53-2.87-4V309.31C386.54,310.74,387.5,312.17,389.41,313.27Z" style="fill:#455a64"></path><path d="M403,340.33V308.66c0-1.2-.26-2.84-1.7-3.57-2.88-1.45-3.24-2.63-3.24-4.11v-4.13h2.45v3.77a2.26,2.26,0,0,0,1.45,2.09,9.48,9.48,0,0,1,1.32.64,5.89,5.89,0,0,1,2.88,4.72v32.2c0,1.45-1,2.9-2.88,4a15.32,15.32,0,0,1-10.18,1.33C401.07,346.16,403,342.78,403,340.33Z" style="opacity:0.1"></path><path d="M391.94,295.74v1.11a2.22,2.22,0,0,0,1.31,1.84,7,7,0,0,0,6.35,0,3.17,3.17,0,0,0,1-.86,1.67,1.67,0,0,0,.33-1v-1.13a1,1,0,0,0,0-.3,2.38,2.38,0,0,0-1.28-1.54l-.06,0a7,7,0,0,0-6.29,0,2.42,2.42,0,0,0-1.28,1.53A1.73,1.73,0,0,0,391.94,295.74Z" style="fill:#37474f"></path><path d="M399.6,297.56c1.76-1,1.76-2.65,0-3.67a7,7,0,0,0-6.35,0c-1.75,1-1.75,2.66,0,3.67A7,7,0,0,0,399.6,297.56Z" style="fill:#263238"></path><path d="M391.94,292.3v2.81a1.63,1.63,0,0,0,0,.31,2.4,2.4,0,0,0,1.28,1.53,6.27,6.27,0,0,0,2.81.75,6.65,6.65,0,0,0,3.54-.75,2.93,2.93,0,0,0,1-.86,1.67,1.67,0,0,0,.29-.66,1.1,1.1,0,0,0,0-.31v-2.83a2.22,2.22,0,0,0-1.32-1.83,1.36,1.36,0,0,0-.24-.13,7.07,7.07,0,0,0-6.11.13A2.22,2.22,0,0,0,391.94,292.3Z" style="fill:#37474f"></path><path d="M391.94,292.28c0,1.43,2,2.58,4.49,2.58s4.49-1.15,4.49-2.58-2-2.58-4.49-2.58S391.94,290.85,391.94,292.28Z" style="fill:#455a64"></path></g><g id="freepik--Bread--inject-16"><path d="M429.51,326.39c2.39-14.78,6.93-33.53,16-47.5s17.62-15.73,19.92-5-6,40.78-11.67,53.26C438.88,360,426.86,342.85,429.51,326.39Z" style="fill:#f0997a"></path><g style="opacity:0.8"><path d="M462.52,275.21s-.28.14-.78.34-1.18.47-2,.77c-.41.16-.86.32-1.33.48s-.95.37-1.46.53l-3.14,1.17-1.58.62c-.52.21-1,.39-1.54.61l-1.44.58c-.45.2-.89.38-1.3.53-.8.35-1.51.61-2,.8s-.8.28-.8.28.18-.25.52-.67a14.67,14.67,0,0,1,1.55-1.58c.35-.29.72-.62,1.15-.92a16.28,16.28,0,0,1,1.37-.91,17.44,17.44,0,0,1,1.54-.85c.54-.28,1.11-.5,1.67-.73s1.15-.41,1.73-.57,1.16-.27,1.72-.4a18.12,18.12,0,0,1,3.09-.32A12.84,12.84,0,0,1,462.52,275.21Z" style="fill:#ffbda7"></path></g><g style="opacity:0.8"><path d="M449.46,329l-.77.33c-.49.2-1.18.48-2,.77-.42.16-.86.33-1.33.49s-1,.36-1.47.53l-3.14,1.17-1.58.61c-.52.22-1,.4-1.53.61l-1.44.59c-.46.2-.89.37-1.31.53-.8.35-1.51.6-2,.8s-.8.27-.8.27.18-.25.53-.66a13.54,13.54,0,0,1,1.54-1.58c.35-.3.73-.62,1.15-.92a15,15,0,0,1,1.38-.92c.49-.28,1-.6,1.54-.85s1.1-.49,1.67-.73,1.15-.41,1.73-.56,1.16-.28,1.71-.4a19.29,19.29,0,0,1,3.1-.33A13.07,13.07,0,0,1,449.46,329Z" style="fill:#ffbda7"></path></g><g style="opacity:0.8"><path d="M462,284.36s-.35.18-1,.43-1.45.64-2.48,1.06c-2,.87-4.73,1.89-7.43,2.9l-7.47,2.7-2.52.91c-.62.22-1,.33-1,.33s.22-.31.66-.83a8.25,8.25,0,0,1,.84-.87,10.34,10.34,0,0,1,1.17-1,25.61,25.61,0,0,1,7.28-4,28.48,28.48,0,0,1,8.09-1.75,17.71,17.71,0,0,1,2.78,0C461.66,284.28,462,284.36,462,284.36Z" style="fill:#ffbda7"></path></g><g style="opacity:0.8"><path d="M458.75,295.28s-.34.21-.95.5-1.43.7-2.44,1.17c-2,.93-4.69,2-7.37,3l-2,.72c-.66.26-1.33.45-2,.69l-3.51,1.16-2.58.8c-.64.2-1,.29-1,.29s.21-.34.63-.88a7.73,7.73,0,0,1,.81-.92,11.14,11.14,0,0,1,1.15-1.1,23.74,23.74,0,0,1,7.26-4.14,25.93,25.93,0,0,1,8.16-1.65,16.92,16.92,0,0,1,2.8.14C458.37,295.18,458.75,295.28,458.75,295.28Z" style="fill:#ffbda7"></path></g><g style="opacity:0.8"><path d="M452.15,318s-.31.18-.86.44-1.29.64-2.2,1.06c-1.8.83-4.21,1.8-6.62,2.7l-1.81.65c-.58.23-1.19.41-1.75.61l-3.16,1.05-2.32.72c-.57.18-.93.26-.93.26a9,9,0,0,1,.56-.79,7.22,7.22,0,0,1,.73-.83,12.38,12.38,0,0,1,1-1,21.66,21.66,0,0,1,6.53-3.72,23.49,23.49,0,0,1,7.33-1.48,14.8,14.8,0,0,1,2.52.13A8.3,8.3,0,0,1,452.15,318Z" style="fill:#ffbda7"></path></g><g style="opacity:0.8"><path d="M455.9,306.44s-.34.2-.95.49-1.44.71-2.44,1.18c-2,.92-4.69,2-7.37,3l-2,.72c-.65.26-1.32.46-1.95.69l-3.52,1.17-2.58.8c-.63.2-1,.28-1,.28s.21-.33.63-.87a7.75,7.75,0,0,1,.81-.93,13.53,13.53,0,0,1,1.14-1.1,24,24,0,0,1,7.27-4.14,26.45,26.45,0,0,1,8.15-1.65,16.81,16.81,0,0,1,2.81.15A8.9,8.9,0,0,1,455.9,306.44Z" style="fill:#ffbda7"></path></g></g><g id="freepik--wine-bottle--inject-16"><g id="freepik--wine-bottle--inject-16"><path d="M427.14,289.06V277.55l-3.73.15-3.73-.15v11.51A18.61,18.61,0,0,1,415,301.53c-1.88,2.09-3.63,5.46-3.71,10.82v38.81h0c0,2.61,2.56,5.27,7.62,6.5a18.89,18.89,0,0,0,9,0c5.05-1.23,7.59-3.89,7.61-6.5h0V312.35c-.08-5.36-1.83-8.73-3.71-10.82A18.61,18.61,0,0,1,427.14,289.06Z" style="fill:#BA68C8"></path><path d="M427.14,289.06V277.55l-3.73.15-3.73-.15v11.51A18.61,18.61,0,0,1,415,301.53c-1.88,2.09-3.63,5.46-3.71,10.82v38.81h0c0,2.61,2.56,5.27,7.62,6.5a18.89,18.89,0,0,0,9,0c5.05-1.23,7.59-3.89,7.61-6.5h0V312.35c-.08-5.36-1.83-8.73-3.71-10.82A18.61,18.61,0,0,1,427.14,289.06Z" style="opacity:0.55"></path><path d="M427.14,276.28s0-.07,0-.1a1.83,1.83,0,0,0-1.08-1.61,5.85,5.85,0,0,0-5.28,0,2.25,2.25,0,0,0-1,1l-.06.11s0,.05,0,.08a1,1,0,0,0-.05.24v5.64a1.85,1.85,0,0,0,1.09,1.54,5.85,5.85,0,0,0,5.28,0,2,2,0,0,0,1.05-1.3.25.25,0,0,0,0-.12Z" style="fill:#37474f"></path><ellipse cx="423.41" cy="276.1" rx="3.73" ry="2.15" style="fill:#455a64"></ellipse><path d="M435.54,313.54v21.11c0,1.8-1.18,3.59-3.55,5-3.73,2.15-9.3,2.6-13.8,1.36V319.85c4.5,1.25,10.07.8,13.8-1.36C434.36,317.13,435.54,315.33,435.54,313.54Z" style="fill:#fff"></path></g></g><path d="M421.5,327.49l-60.25-34.78,3.49,37.87a10.29,10.29,0,0,0,4.54,7.16l48.07,27.76a9.28,9.28,0,0,0,7.59.33l.18-.07.1-.05.42-.21L454.27,349a10.27,10.27,0,0,0,4.55-7.16l3.49-37.87Zm-41.6,6.72a2.91,2.91,0,0,1-.28,1.33,3,3,0,0,1-1.29-.42l-1.56-.9a6.89,6.89,0,0,1-3.11-5.38V315.15a2.91,2.91,0,0,1,.28-1.33,3,3,0,0,1,1.3.43l1.56.9a6.87,6.87,0,0,1,3.1,5.38Zm15.55,9a.91.91,0,1,1-1.57.9l-1.56-.89a6.89,6.89,0,0,1-3.11-5.39V324.13a3.05,3.05,0,0,1,.27-1.33,2.75,2.75,0,0,1,1.3.42l1.57.9a6.89,6.89,0,0,1,3.1,5.39Zm15.55,9a3,3,0,0,1-.28,1.33,3,3,0,0,1-1.29-.42l-1.56-.89a6.89,6.89,0,0,1-3.11-5.39V333.11a3.07,3.07,0,0,1,.27-1.34,2.89,2.89,0,0,1,1.3.43l1.56.9a6.86,6.86,0,0,1,3.11,5.38Zm26.45-4.92a6.89,6.89,0,0,1-3.11,5.39l-1.56.89a2.85,2.85,0,0,1-1.29.43,2.91,2.91,0,0,1-.28-1.33V338.94a6.88,6.88,0,0,1,3.11-5.39l1.56-.9a2.75,2.75,0,0,1,1.3-.42,3.05,3.05,0,0,1,.27,1.33Zm13.6-7.85a6.86,6.86,0,0,1-3.11,5.38l-1.55.9a2.75,2.75,0,0,1-1.3.42,3.05,3.05,0,0,1-.27-1.33V331.08a6.86,6.86,0,0,1,3.11-5.38l1.55-.9a2.78,2.78,0,0,1,1.3-.42,3,3,0,0,1,.27,1.32Z" style="fill:#BA68C8"></path><path d="M421.5,327.49l-60.25-34.78,3.49,37.87a10.29,10.29,0,0,0,4.54,7.16l48.07,27.76a9.28,9.28,0,0,0,7.59.33l.18-.07.1-.05.42-.21L454.27,349a10.27,10.27,0,0,0,4.55-7.16l3.49-37.87Zm-41.6,6.72a2.91,2.91,0,0,1-.28,1.33,3,3,0,0,1-1.29-.42l-1.56-.9a6.89,6.89,0,0,1-3.11-5.38V315.15a2.91,2.91,0,0,1,.28-1.33,3,3,0,0,1,1.3.43l1.56.9a6.87,6.87,0,0,1,3.1,5.38Zm15.55,9a.91.91,0,1,1-1.57.9l-1.56-.89a6.89,6.89,0,0,1-3.11-5.39V324.13a3.05,3.05,0,0,1,.27-1.33,2.75,2.75,0,0,1,1.3.42l1.57.9a6.89,6.89,0,0,1,3.1,5.39Zm15.55,9a3,3,0,0,1-.28,1.33,3,3,0,0,1-1.29-.42l-1.56-.89a6.89,6.89,0,0,1-3.11-5.39V333.11a3.07,3.07,0,0,1,.27-1.34,2.89,2.89,0,0,1,1.3.43l1.56.9a6.86,6.86,0,0,1,3.11,5.38Zm26.45-4.92a6.89,6.89,0,0,1-3.11,5.39l-1.56.89a2.85,2.85,0,0,1-1.29.43,2.91,2.91,0,0,1-.28-1.33V338.94a6.88,6.88,0,0,1,3.11-5.39l1.56-.9a2.75,2.75,0,0,1,1.3-.42,3.05,3.05,0,0,1,.27,1.33Zm13.6-7.85a6.86,6.86,0,0,1-3.11,5.38l-1.55.9a2.75,2.75,0,0,1-1.3.42,3.05,3.05,0,0,1-.27-1.33V331.08a6.86,6.86,0,0,1,3.11-5.38l1.55-.9a2.78,2.78,0,0,1,1.3-.42,3,3,0,0,1,.27,1.32Z" style="fill:#fff;opacity:0.45"></path><path d="M421.5,327.49V363.1c0,2.36,1.49,3.47,3.44,2.73l.18-.07.1-.05.42-.21L454.27,349a10.27,10.27,0,0,0,4.55-7.16l3.49-37.87Zm15.95,19.75a6.89,6.89,0,0,1-3.11,5.39l-1.56.89a2.85,2.85,0,0,1-1.29.43,2.91,2.91,0,0,1-.28-1.33V338.94a6.88,6.88,0,0,1,3.11-5.39l1.56-.9a2.75,2.75,0,0,1,1.3-.42,3.05,3.05,0,0,1,.27,1.33Zm13.6-7.85a6.86,6.86,0,0,1-3.11,5.38l-1.55.9a2.75,2.75,0,0,1-1.3.42,3.05,3.05,0,0,1-.27-1.33V331.08a6.86,6.86,0,0,1,3.11-5.38l1.55-.9a2.78,2.78,0,0,1,1.3-.42,3,3,0,0,1,.27,1.32Z" style="fill:#fff;opacity:0.4"></path><path d="M439,334.44v13.69a6.85,6.85,0,0,1-3.1,5.38l-1.56.9c-1.26.72-2.34.49-2.83-.46a2.85,2.85,0,0,0,1.29-.43l1.56-.89a6.89,6.89,0,0,0,3.11-5.39V333.56a3.05,3.05,0,0,0-.27-1.33C438.24,332.18,439,333,439,334.44Z" style="fill:#455a64"></path><path d="M452.59,326.59v13.68a6.84,6.84,0,0,1-3.11,5.38l-1.55.9c-1.26.73-2.34.5-2.84-.46a2.75,2.75,0,0,0,1.3-.42l1.55-.9a6.86,6.86,0,0,0,3.11-5.38V325.7a3,3,0,0,0-.27-1.32C451.85,324.33,452.59,325.15,452.59,326.59Z" style="fill:#455a64"></path><path d="M465,303.93v4.49a1.44,1.44,0,0,1-.86,1.19L423.57,333a4.28,4.28,0,0,1-2.07.5V329a4.28,4.28,0,0,0,2.07-.49l40.55-23.41a1.38,1.38,0,0,0,.85-1.28A.19.19,0,0,1,465,303.93Z" style="fill:#37474f"></path><path d="M421.5,329v4.5a4.2,4.2,0,0,1-2.07-.5l-60-34.64a1.46,1.46,0,0,1-.86-1.19c0-.44,0-4.06,0-4.49,0,0,0-.06,0-.09a1.42,1.42,0,0,0,.85,1.29l60,34.63A4.2,4.2,0,0,0,421.5,329Z" style="fill:#263238"></path><path d="M465,303.93a1.47,1.47,0,0,1-.86,1.2l-40.55,23.41a4.58,4.58,0,0,1-4.14,0l-60-34.63a1.46,1.46,0,0,1-.86-1.2h2.68l40.81,23.56,19.44,11.22,40.81-23.56Z" style="fill:#455a64"></path><path d="M403.23,334v13.69a6.85,6.85,0,0,0,3.1,5.38l1.56.9c1.26.72,2.34.49,2.83-.47a2.83,2.83,0,0,1-1.29-.42l-1.56-.9a6.86,6.86,0,0,1-3.11-5.38V333.11a3.05,3.05,0,0,1,.27-1.33C404,331.72,403.23,332.55,403.23,334Z" style="fill:#37474f"></path><path d="M387.68,325V338.7a6.87,6.87,0,0,0,3.1,5.38l1.56.9c1.26.72,2.34.49,2.83-.46a3,3,0,0,1-1.29-.42l-1.56-.9a6.86,6.86,0,0,1-3.11-5.39V324.13a2.91,2.91,0,0,1,.28-1.33C388.42,322.75,387.68,323.57,387.68,325Z" style="fill:#37474f"></path><path d="M372.13,316v13.68a6.88,6.88,0,0,0,3.11,5.39l1.56.9c1.25.72,2.33.48,2.82-.47a3,3,0,0,1-1.29-.42l-1.56-.9a6.86,6.86,0,0,1-3.11-5.38V315.15a2.91,2.91,0,0,1,.28-1.33C372.87,313.77,372.13,314.6,372.13,316Z" style="fill:#37474f"></path><path d="M378.54,304.94v.39a2.85,2.85,0,0,0,1.62,3h0c.69.39,1.06-.1,1.06-.9v-.95Z" style="fill:#BA68C8"></path><path d="M378.54,304.94v.39a2.85,2.85,0,0,0,1.62,3h0c.69.39,1.06-.1,1.06-.9v-.95Z" style="opacity:0.25"></path><path d="M386.64,276a4.89,4.89,0,0,1,2-2.72l.85,3-8.29,30.21-2.68-1.54Z" style="fill:#BA68C8"></path><path d="M386.64,276a4.89,4.89,0,0,1,2-2.72l.85,3-8.29,30.21-2.68-1.54Z" style="opacity:0.25"></path><path d="M389.59,275l1.49,2.48,5.64,37.94-3.09-1.78-5.44-35.85A3,3,0,0,1,389.59,275Z" style="fill:#BA68C8"></path><path d="M393.63,313.65V314c0,1.51.23,2.56,1.54,3.31h0a1,1,0,0,0,1.55-.9v-1Z" style="fill:#BA68C8"></path></g></g><g id="freepik--Character--inject-16"><g id="freepik--character--inject-16"><g id="freepik--Bottom--inject-16"><path d="M263.69,396.77a8.56,8.56,0,0,0-.11,4.53c.43.91,3.15,3.91,8.69,5s13.16,0,16.43-.2,13.58,1.06,16.85,1.5c5.14.7,9.1-.43,11-2.29a3.43,3.43,0,0,0,.77-2.71,13.56,13.56,0,0,0-.54-3.66Z" style="fill:#263238"></path><path d="M315.94,393.55c.1.43.2.86.28,1.29a21.41,21.41,0,0,1,.47,6.67c-.66,1.63-2.48,2.52-3.95,3-3.86,1.23-6.82,1-11.11.22a78,78,0,0,0-13-.8c-3.38.23-8,.87-11.41.56a27,27,0,0,1-8.39-1.71c-2.25-1-4.55-2.2-5.1-4.52-.67-4.88,1.38-7,3.71-8.4s5.6-1.26,9.11-1.49c3.19-.22,5.51-.22,8.34-.44a39.27,39.27,0,0,0,7.17-1.37c2.13-.67,2.49-3.2,4.53-3.18,1.21,0,15-.06,16.33.05,1.57.13,2.05,5,2.24,6,.15.82.18,1.71.4,2.5C315.68,392.48,315.82,393,315.94,393.55Z" style="fill:#37474f"></path><path d="M320.78,325.52c-.18,3.13-.61,6.24-1,9.34-.63,5.21-1.29,10.4-2,15.6q-1.11,8.49-2.27,17c-.62,4.51-1.24,9-1.89,13.53-.19,1.3-.38,2.6-.59,3.89a5.92,5.92,0,0,1-4.15,4.71,30.89,30.89,0,0,1-3.54.85,14.42,14.42,0,0,0-5.36,2.36,1.9,1.9,0,0,1-1.28.51c.15-1.52,1-2.88,1.37-4.36a1.9,1.9,0,0,0-.05-1.31,2.59,2.59,0,0,0-1.21-.91,6.72,6.72,0,0,1-.85-.53c-.64-.45-1.27-.88-1.36-1.66,0-.35,0-.71-.08-1.06-.1-1.38-.21-2.77-.31-4.15q-.56-7.44-1.08-14.86-.72-10.27-1.39-20.55-.74-11.29-1.36-22.58C295.8,319.62,320.78,325.52,320.78,325.52Z" style="fill:#b16668"></path><path d="M320.45,354.76c-.2,2.41-.53,4.57.46,7.21,1.4,3.8,4.38,5.54,6.13,7a50.7,50.7,0,0,1,5.1,5.87c1.71,2.08,2.09,3.44,4.75,5.63,1.66,1.37,6.3,2.5,9.16,1.29,2.24-.95,3-1.71,2.87-5.14s-11.05-4.59-11.05-4.59Z" style="fill:#263238"></path><path d="M347.51,366.45c.93.33,1.17,2,1.31,5.37.11,2.54,1.23,6.26-2.45,7.86-3,1.29-7.71.43-9.71-2-2.5-3-4.19-5.62-7.76-9.26-3.1-3.16-7.35-4.67-8.67-11-.61-2.93.64-5.72,3.66-6.45,4.19-1,6.37.2,13.26,4.46C339.49,356.91,346.58,366.11,347.51,366.45Z" style="fill:#37474f"></path><path d="M352.13,309.62c.5,20.24-2.69,40.57-4.17,58.07-.26,1.72-11,3.36-13.87-1.66-.18-.38-7.08-55.26-7.08-55.26Z" style="fill:#b16668"></path><path d="M352.18,284.06s-.34-20,0-35.22c.21-9.57.35-15,.45-21.74.12-8.82-.38-15.55-1.25-19.87l-60.1,7.38c-.77,22.8-.37,72.76-.15,78.72.5,13.88-.12,19.74,1,35.18,8.44,2.06,22.79,1.05,29.45-1.44.23-6.39.38-10,.38-10l1.46-33s.5,6,1.16,14.12a156.55,156.55,0,0,0,2.75,20.19c5.3,2.47,21.09,2.31,25.33-2.34C352.63,304.07,352.18,284.06,352.18,284.06Z" style="fill:#37474f"></path><path d="M291,256.18c7.5,1.78,22.68,1.5,22.68,1.5s-.17,32.9-1.55,36.42-19.21,2.73-21.13-.21C289.53,276.79,291,256.18,291,256.18Z" style="fill:#263238"></path><path d="M342.87,234.24s-3.24,9.16-15.26,13.06l-4.22,36.76,1.16-25.75.86-13.86A33.84,33.84,0,0,0,342.87,234.24Z" style="fill:#263238"></path></g><g id="freepik--Top--inject-16"><path d="M338.63,130c9-.61,14.74-.08,20.39,9.61,6.31,10.84,18.59,36.27,19.49,38.05s2.39,5.52-.51,8.88c-7.62,8.87-27.66,22.12-27.66,22.12l-9.19-10.82,15.59-18.41-9.83-17.15Z" style="fill:#b16668"></path><path d="M356.74,179.38a26.42,26.42,0,0,0,6.23,7.11s-4.14,0-7.39-5.73Z" style="fill:#9a4a4d"></path><path d="M336.55,130s8.1-2.36,13.65-.14c4.35,1.75,6.49,4.14,10.39,11s10.9,22,10.9,22-4.07,7.85-17.19,12.51l-15.09-20.53Z" style="fill:#BA68C8"></path><polygon points="312.4 123.27 315.26 142.81 335.13 140.35 332.27 119.02 312.4 123.27" style="fill:#b16668"></polygon><path d="M355,143.78c-1.25-7.72-5-14.09-12.13-14.3-1.6,0-9.09.53-9.09.53-.82,3.32-11.28,4.61-20,2.56-2.62.69-9.89,2.17-9.89,2.17-6.25,2.08-11.29,9-12.79,29.72l-.93,60.86c11,5.79,24.71,5.75,36.82,4.69,20.31-1.79,26.14-7,26.14-7l-1.27-21.11s2-21.08,2.7-30.48C355.68,157.34,355.62,147.59,355,143.78Z" style="fill:#455a64"></path><path d="M299.33,98.92s-5.71,8.66-5.06,9.51,4.85,1.62,4.85,1.62Z" style="fill:#9a4a4d"></path><path d="M312.2,79.52c-9.43,2-12.15,6.13-13,21.11-.93,15.65.67,20.57,2.72,22.67,1.39,1.43,9.1,1.68,13,.61,4.87-1.34,15.88-5.24,21-13.11,6.06-9.26,7.66-21.82,1.16-27C327.93,76.59,316,78.71,312.2,79.52Z" style="fill:#b16668"></path><path d="M312.51,124.35l-.51-3a44.09,44.09,0,0,1-7.58,1.61,6.08,6.08,0,0,1-3.18-.45,5.93,5.93,0,0,0,.64.79C303,124.48,308.46,124.85,312.51,124.35Z" style="fill:#9a4a4d"></path><g id="freepik--Dreadlocks--inject-16"><path d="M302.27,83.45a6.85,6.85,0,0,0,.56,1.24l.6-.48a2.25,2.25,0,0,1,.7-.33,6.44,6.44,0,0,1,1.79-.34,1.87,1.87,0,0,1,1.62.55,3.29,3.29,0,0,1,.39,1.18,3.14,3.14,0,0,0,1.71,2,7.21,7.21,0,0,1,1.13.51,1,1,0,0,1,.43,1.13c-.16.61-.34,1.22-.52,1.83-.34,1.23-.69,2.46-.92,3.71a30.67,30.67,0,0,0-.32,6.13c0,2.6,1.69,4.58,2.5,1.1,0,0,1.49-5.79,6.37-5.06s5.38,6.09,3.34,10.54c-1.18,2.58-4.54,3.22-5.91,2,0,1.71.36,11.37.4,14.08.08,6.56-.13,9,.63,14.9.15,1.17,1,1.58,1.5,1.51a1.54,1.54,0,0,0,1.23-1.47c.24-3.15.23-5.09.34-7.81.11-3,.23-5.39.32-8.41.5,3.79.76,7.11,1.63,13.2s2.15,14.71,2.56,16a4.79,4.79,0,0,0,.89,1.74,1.62,1.62,0,0,0,2.86-.41,4.63,4.63,0,0,0,.31-1.52,68.76,68.76,0,0,0,.23-7.73c.39,2.52.67,4.41,1.78,5.61a1.82,1.82,0,0,0,2.47.26,3.67,3.67,0,0,0,1.14-2.3,115.76,115.76,0,0,0,.17-13.51c.42,3.86,1.64,16.43,2.19,19.78.21,1.27.81,4.21,2.92,3.83a1.56,1.56,0,0,0,1.17-1.6c.31-4.75-.2-9.42-.09-14.35a7.14,7.14,0,0,0,1.56,3.94,1.83,1.83,0,0,0,1.25.6,1.6,1.6,0,0,0,1.36-1.1,4.69,4.69,0,0,0,.19-1.83c-.1-3.2-.19-6.41-.29-9.61a23.91,23.91,0,0,0,1,5.39,2.29,2.29,0,0,0,2.16,1.7c2.18.12,1.87-3.76,1.79-5.15-.16-3-.58-6.59-.8-9.58-.3-4.07-.94-8.1-1-12.17l.72,2.33a9.74,9.74,0,0,0,1.69,3.61,1.59,1.59,0,0,0,1.51.68,1.26,1.26,0,0,0,.82-1,3.61,3.61,0,0,0,0-1.31c-.46-3.13-1.32-6.06-2.08-9.11a80.89,80.89,0,0,1-1.94-17.23c-.05-2,0-5-.94-6.77a7.16,7.16,0,0,0-3.74-3.72c.2-3.59-2.51-6.79-6.33-8.53a30.36,30.36,0,0,0-16.48-2.69A29.57,29.57,0,0,0,308,73.27a12.63,12.63,0,0,0-5.1,4.47A6.73,6.73,0,0,0,302.27,83.45Z" style="fill:#37474f"></path><path d="M349.29,96.13a2.56,2.56,0,0,0,.86,1.52,1.89,1.89,0,0,0,2.58-1.09,5.49,5.49,0,0,0,0-3.16c1.14.7,2.81,1.09,3.69.08a2.67,2.67,0,0,0,.53-1.45c.23-2-1-3.82-2.09-5.6a11.44,11.44,0,0,1,3.56.08c.89.11,2.05.08,2.38-.76s-.54-1.68-1.35-2.1a11.3,11.3,0,0,0-5.09-1.26,27,27,0,0,0,2.47-3.54c.49-.84,1.15-2.13,0-2.8a1.84,1.84,0,0,0-1.49-.06,5,5,0,0,0-1.31.79,32.69,32.69,0,0,0-3.34,3,4.34,4.34,0,0,0-.58-1.94,2.33,2.33,0,0,0-1.91-1,2.75,2.75,0,0,0-2,.91c-1.07-1.7-3.1-1.74-4.78-1.06a7.74,7.74,0,0,0-3.88,3.93,18.05,18.05,0,0,0-1.36,6.59,14.41,14.41,0,0,0,.18,4.2,12.67,12.67,0,0,0,1.33,3.21,10.46,10.46,0,0,0,2.28,3,8.15,8.15,0,0,0,5,1.74,5,5,0,0,0,2.71-1.08C348.09,98,349.45,96.75,349.29,96.13Z" style="fill:#37474f"></path><path d="M323,103s11.63,2.47,20.31-4.28a16.07,16.07,0,0,1-9.51,6A14.19,14.19,0,0,1,323,103Z" style="fill:#263238"></path><path d="M314.18,91.07S327,99,339.84,95.89c0,0-4.23,2.89-13.08,1.32S314.18,91.07,314.18,91.07Z" style="fill:#263238"></path><path d="M336.92,90s-15.71,1.22-26.71-6.2c0,0,2.91,4.51,12.08,6.45S336.92,90,336.92,90Z" style="fill:#263238"></path><path d="M348.48,97.59a6.88,6.88,0,0,1-7.88-4.91s-.15,3.55,2.66,5.33A4.4,4.4,0,0,0,348.48,97.59Z" style="fill:#263238"></path><path d="M340.89,77a22.59,22.59,0,0,0-13.76-5.5A57.53,57.53,0,0,1,340.89,77Z" style="fill:#263238"></path><path d="M317.11,75.86s11.85-3,22.09,4C339.2,79.91,328.6,75,317.11,75.86Z" style="fill:#263238"></path><path d="M330.42,145.58C329,142.37,327,117.44,327,117.44l1.63,25.79c.39,2.52.67,4.41,1.78,5.61a1.82,1.82,0,0,0,2.47.26,3,3,0,0,0,.92-1.45C333.09,148.82,331.87,148.77,330.42,145.58Z" style="fill:#263238"></path><path d="M338.05,155c-1.25-1.94-1.19-7.43-1.93-14.07s-3-34-3-34l1.1,26.41c.42,3.86,1.64,16.43,2.19,19.78.21,1.27.81,4.21,2.92,3.83a1.56,1.56,0,0,0,1.17-1.6S339.31,156.9,338.05,155Z" style="fill:#263238"></path><path d="M346.79,137.66c-1.84-2-3.53-26.31-3.53-26.31l1.2,21.6c0,.23,0,.44.05.67a23.65,23.65,0,0,0,.92,4.72,2.29,2.29,0,0,0,2.16,1.7c1.21.07,1.65-1.09,1.79-2.38C349.37,137.68,348.62,139.66,346.79,137.66Z" style="fill:#263238"></path><path d="M352.3,118.8c-.78,1-2.15-.15-2.92-3s-2.06-13.55-2.06-13.55l.24,10.89.72,2.33a9.74,9.74,0,0,0,1.69,3.61,1.59,1.59,0,0,0,1.51.68A1.26,1.26,0,0,0,352.3,118.8Z" style="fill:#263238"></path><path d="M326.3,152.22c-1.41-.85-1.75-4-2.91-14.73s-2.84-24.75-2.84-24.75l-.39,9.26c.5,3.79.76,7.11,1.63,13.2s2.15,14.71,2.56,16a4.79,4.79,0,0,0,.89,1.74,1.62,1.62,0,0,0,2.86-.41,4.63,4.63,0,0,0,.31-1.52S327.7,153.07,326.3,152.22Z" style="fill:#263238"></path><path d="M345.17,81.56s-2,6.49,2.15,11.12c0,0-2.84-1.05-3.34-5.24S345.17,81.56,345.17,81.56Z" style="fill:#263238"></path></g><path d="M253.26,186.49c-7.49-5.24-11.55-10-16.06-14.22-3.54-3.34-7.24-6.77-10.86-10a23.07,23.07,0,0,0-6.22-4.2,47.29,47.29,0,0,1-6.14-2.8,24.5,24.5,0,0,1-3.7-2.27,39.57,39.57,0,0,1-3.62-3.23,8,8,0,0,1-2.18-3.14,8.19,8.19,0,0,1-.25-2.52,6.12,6.12,0,0,1,.35-2.37c.51-1.21,1.78-1.55,2.4-2.57s.16-2.22,1-3.11a4.7,4.7,0,0,1,1.74-1c1.2-.54,1.41-1.19.88-2.29s-1.08-2.12-1.66-3.16c-1.76-3.18-2.42-5.72-.86-6.55,2.17-1.15,4.06,2.14,6.61,5.91s4.71,7.62,8.33,10.55l.84-6.11a5,5,0,0,1,.7-2.28,1.72,1.72,0,0,1,2.1-.65,2.56,2.56,0,0,1,1,1.76c.44,2,.89,3.94,1.33,5.91a26.6,26.6,0,0,0,2.19,6.76c1.57,2.91,4.18,5.11,6.79,7.14,7.44,5.81,21.87,14.63,21.87,14.63s19.05-17.1,24.27-22,9.17-7.77,17-8.47c0,0,6.64,15.84-2.21,26.78,0,0-27.87,23-33.37,25.45C260.8,190.48,258.36,190.07,253.26,186.49Z" style="fill:#b16668"></path><path d="M303.41,134.92a28.52,28.52,0,0,0-14.47,4.5c-3.18,2.12-22,20.23-22,20.23s1.94,14.45,12.79,20.47L302,162.76S312.05,148.42,303.41,134.92Z" style="fill:#BA68C8"></path></g></g></g><g id="freepik--credit-card--inject-16"><g id="freepik--card-bubble--inject-16"><g id="freepik--Card--inject-16"><path d="M383,116.84l-2.44-1.38a1.59,1.59,0,0,1-.71-1.23V63.63a1.59,1.59,0,0,1,.71-1.23l65.59-37.88a1.55,1.55,0,0,1,1.42,0L450,25.9a1.59,1.59,0,0,1,.71,1.23v50.6A1.59,1.59,0,0,1,450,79L384.4,116.84A1.55,1.55,0,0,1,383,116.84Z" style="fill:#BA68C8"></path><path d="M383,116.84l-2.44-1.38a1.59,1.59,0,0,1-.71-1.23V63.63a1.59,1.59,0,0,1,.71-1.23l65.59-37.88a1.55,1.55,0,0,1,1.42,0L450,25.9a1.59,1.59,0,0,1,.71,1.23v50.6A1.59,1.59,0,0,1,450,79L384.4,116.84A1.55,1.55,0,0,1,383,116.84Z" style="fill:#fff;opacity:0.5"></path><path d="M384.4,64.6,450,26.72c.39-.22.71,0,.71.41v50.6A1.59,1.59,0,0,1,450,79L384.4,116.84c-.4.23-.71,0-.71-.41V65.83A1.56,1.56,0,0,1,384.4,64.6Z" style="fill:#BA68C8"></path><path d="M450,26.72c-5.38,3.31-10.81,6.53-16.24,9.74L417.4,46,401,55.4,392.69,60,384.4,64.6l8.1-4.9,8.14-4.84L417,45.31l16.45-9.39C438.93,32.82,444.44,29.73,450,26.72Z" style="fill:#fafafa"></path><path d="M383.9,65.13,380,62.93a1.42,1.42,0,0,0-.21.7v50.6a1.59,1.59,0,0,0,.71,1.23l2.44,1.38a1.6,1.6,0,0,0,1.27.07c-.32.1-.56-.09-.56-.48V65.83A1.35,1.35,0,0,1,383.9,65.13Z" style="fill:#BA68C8"></path><path d="M383.9,65.13,380,62.93a1.42,1.42,0,0,0-.21.7v50.6a1.59,1.59,0,0,0,.71,1.23l2.44,1.38a1.6,1.6,0,0,0,1.27.07c-.32.1-.56-.09-.56-.48V65.83A1.35,1.35,0,0,1,383.9,65.13Z" style="opacity:0.30000000000000004"></path><polygon points="383.69 71.61 450.7 32.93 450.7 46.14 383.69 84.81 383.69 71.61" style="fill:#455a64"></polygon><g id="freepik--Cards--inject-16"><path d="M446.56,66.62v8.65a2.23,2.23,0,0,1-1,1.75l-9.08,5.32c-.56.32-1,.06-1-.59V73.1a2.26,2.26,0,0,1,1-1.76c2.48-1.43,6.6-3.88,9.08-5.31C446.11,65.71,446.56,66,446.56,66.62Z" style="fill:#BA68C8"></path><g style="clip-path:url(#freepik--clip-path--inject-16)"><path d="M446.56,66.62v8.65a2.23,2.23,0,0,1-1,1.75l-9.08,5.32c-.56.32-1,.06-1-.59V73.1a2.26,2.26,0,0,1,1-1.76c2.48-1.43,6.6-3.88,9.08-5.31C446.11,65.71,446.56,66,446.56,66.62Z" style="opacity:0.2"></path><polygon points="448.35 67.97 448.58 67.31 433.67 75.99 433.44 76.66 448.35 67.97" style="fill:#fff"></polygon><polygon points="442.53 75.61 442.99 75.08 442.99 70.68 442.53 71.21 442.53 75.61" style="fill:#fff"></polygon><polygon points="439.03 77.71 439.49 77.18 439.49 72.78 439.03 73.31 439.03 77.71" style="fill:#fff"></polygon><polygon points="448.35 72.39 448.58 71.73 433.67 80.41 433.44 81.07 448.35 72.39" style="fill:#fff"></polygon></g><path d="M388,78.37c-.43-.3-.64-1-.64-2a5.72,5.72,0,0,1,.62-2.7,4.54,4.54,0,0,1,1.78-1.83,3.33,3.33,0,0,1,.88-.38,1.19,1.19,0,0,1,.67,0,.09.09,0,0,1,.07.1.74.74,0,0,1,0,.18l-.24.67a.32.32,0,0,1-.09.15s-.06,0-.11,0a1.57,1.57,0,0,0-1,.26A2.75,2.75,0,0,0,388.84,74a3.9,3.9,0,0,0-.38,1.78c0,.7.13,1.14.4,1.34s.62.16,1.08-.1a3.59,3.59,0,0,0,1.05-.93l.11-.12s.06,0,.09.05l.26.44a.16.16,0,0,1,0,.09.42.42,0,0,1-.08.18,4.59,4.59,0,0,1-1.6,1.42C389,78.59,388.43,78.66,388,78.37Z" style="fill:#BA68C8"></path><path d="M392.08,76.6a.35.35,0,0,1-.07-.25V71.1a.86.86,0,0,1,.07-.34.56.56,0,0,1,.23-.23l1.68-1c1.13-.65,1.69-.32,1.69,1a3.33,3.33,0,0,1-.2,1.18,3.23,3.23,0,0,1-.59,1l.7,1.63a.5.5,0,0,1,0,.12.28.28,0,0,1-.14.24l-.74.42c-.06,0-.11.06-.14,0s-.06,0-.08-.09l-.61-1.6-.79.46v1.74A.61.61,0,0,1,393,76a.51.51,0,0,1-.23.23l-.5.29C392.2,76.62,392.13,76.63,392.08,76.6Zm1.75-4.09a1.49,1.49,0,0,0,.57-.54,1.52,1.52,0,0,0,.19-.79c0-.3-.06-.49-.17-.57s-.29,0-.52.09l-.79.45v1.78Z" style="fill:#BA68C8"></path><path d="M396.3,74.17c-.05,0-.07-.12-.07-.25V68.66a.67.67,0,0,1,.07-.33.51.51,0,0,1,.23-.23l2.75-1.59c.11-.06.18-.08.22-.05a.38.38,0,0,1,.06.26v.33a.73.73,0,0,1-.06.32.52.52,0,0,1-.22.22l-2,1.13v1.4l1.37-.79c.11-.06.18-.08.22,0s.06.11.06.25v.31a.75.75,0,0,1-.06.33.5.5,0,0,1-.22.21l-1.37.79v1.41l2-1.12c.1-.07.18-.08.22,0s.06.12.06.26V72a.75.75,0,0,1-.06.33.56.56,0,0,1-.22.21l-2.75,1.59C396.42,74.19,396.34,74.2,396.3,74.17Z" style="fill:#BA68C8"></path><path d="M400.11,72a.31.31,0,0,1-.07-.24V66.46a.81.81,0,0,1,.07-.33.57.57,0,0,1,.23-.23l1.4-.81c.76-.44,1.33-.53,1.73-.27s.59.9.59,1.94a5.35,5.35,0,0,1-.6,2.63,4.47,4.47,0,0,1-1.72,1.73l-1.4.8C400.24,72,400.16,72,400.11,72ZM401.79,70a2.05,2.05,0,0,0,.88-.94,3.89,3.89,0,0,0,.3-1.68c0-.7-.1-1.15-.3-1.32s-.48-.16-.88.07l-.65.38v3.87Z" style="fill:#BA68C8"></path><path d="M404.67,69.33a.35.35,0,0,1-.07-.25V63.83a.89.89,0,0,1,.07-.34.72.72,0,0,1,.23-.23l.5-.28c.11-.07.19-.08.23,0s.07.13.07.26v5.26a.67.67,0,0,1-.07.33.55.55,0,0,1-.23.22l-.5.29C404.8,69.35,404.72,69.37,404.67,69.33Z" style="fill:#BA68C8"></path><path d="M407.55,67.67c-.05,0-.07-.12-.07-.25V62.86l-1.09.63c-.11.06-.18.07-.22,0a.38.38,0,0,1-.06-.26V63a.75.75,0,0,1,.06-.33.58.58,0,0,1,.22-.22l3.28-1.89c.11-.06.19-.08.23,0s.06.12.06.25v.33a.73.73,0,0,1-.06.32.49.49,0,0,1-.23.22l-1.09.63v4.56a.67.67,0,0,1-.07.33.51.51,0,0,1-.23.23l-.49.29C407.68,67.69,407.6,67.7,407.55,67.67Z" style="fill:#BA68C8"></path><path d="M413.27,63.78c-.43-.29-.64-1-.64-2a5.72,5.72,0,0,1,.62-2.7A4.67,4.67,0,0,1,415,57.28a3.7,3.7,0,0,1,.88-.38,1.4,1.4,0,0,1,.67,0,.1.1,0,0,1,.07.11.45.45,0,0,1,0,.17l-.23.68a.42.42,0,0,1-.1.15.18.18,0,0,1-.11,0,1.53,1.53,0,0,0-1,.26,2.63,2.63,0,0,0-1.07,1.14,3.93,3.93,0,0,0-.38,1.78c0,.7.14,1.15.4,1.34s.62.17,1.08-.1a3.33,3.33,0,0,0,1.05-.92.71.71,0,0,1,.11-.12s.06,0,.1,0l.25.45a.16.16,0,0,1,0,.09.56.56,0,0,1-.08.18,4.6,4.6,0,0,1-1.6,1.42C414.29,64,413.69,64.08,413.27,63.78Z" style="fill:#BA68C8"></path><path d="M417,62.17a1.15,1.15,0,0,1,0-.16l1.72-6.46a.88.88,0,0,1,.11-.27.39.39,0,0,1,.16-.15l.48-.28c.07,0,.13-.05.16,0s.07.06.1.15l1.72,4.47a.32.32,0,0,1,0,.13.24.24,0,0,1-.11.22l-.81.47c-.06,0-.11.05-.14,0s-.05,0-.07-.1l-.31-.87-1.61.94-.3,1.22a.68.68,0,0,1-.08.19.33.33,0,0,1-.14.11l-.8.47C417,62.29,417,62.27,417,62.17Zm2.8-3.72-.55-1.6-.56,2.24Z" style="fill:#BA68C8"></path><path d="M422.1,59.27c-.05,0-.07-.12-.07-.25V53.77a.74.74,0,0,1,.07-.34.56.56,0,0,1,.23-.23l1.68-1c1.12-.65,1.69-.32,1.69,1a3.52,3.52,0,0,1-.2,1.18,3.15,3.15,0,0,1-.6,1l.7,1.64a.2.2,0,0,1,0,.11.26.26,0,0,1-.14.24l-.73.42c-.07,0-.11.06-.14.05s-.06,0-.08-.09l-.62-1.59-.79.45v1.74a.81.81,0,0,1-.06.33.65.65,0,0,1-.24.22l-.49.29C422.22,59.29,422.14,59.31,422.1,59.27Zm1.75-4.09a1.65,1.65,0,0,0,.57-.54,1.61,1.61,0,0,0,.19-.78c0-.31-.06-.5-.18-.58s-.29,0-.52.09l-.79.45V55.6Z" style="fill:#BA68C8"></path><path d="M426.31,56.84c-.05,0-.07-.12-.07-.25V51.33a.67.67,0,0,1,.07-.33.56.56,0,0,1,.23-.23l1.4-.8c.75-.44,1.33-.53,1.72-.28s.6.91.6,2a5.31,5.31,0,0,1-.6,2.62A4.54,4.54,0,0,1,427.94,56l-1.4.81C426.43,56.86,426.36,56.87,426.31,56.84Zm1.68-2a2.18,2.18,0,0,0,.88-1,3.84,3.84,0,0,0,.3-1.67c0-.71-.1-1.15-.3-1.33s-.49-.15-.88.08l-.65.37v3.87Z" style="fill:#BA68C8"></path><g style="opacity:0.15"><path d="M388,78.37c-.43-.3-.64-1-.64-2a5.72,5.72,0,0,1,.62-2.7,4.54,4.54,0,0,1,1.78-1.83,3.33,3.33,0,0,1,.88-.38,1.19,1.19,0,0,1,.67,0,.09.09,0,0,1,.07.1.74.74,0,0,1,0,.18l-.24.67a.32.32,0,0,1-.09.15s-.06,0-.11,0a1.57,1.57,0,0,0-1,.26A2.75,2.75,0,0,0,388.84,74a3.9,3.9,0,0,0-.38,1.78c0,.7.13,1.14.4,1.34s.62.16,1.08-.1a3.59,3.59,0,0,0,1.05-.93l.11-.12s.06,0,.09.05l.26.44a.16.16,0,0,1,0,.09.42.42,0,0,1-.08.18,4.59,4.59,0,0,1-1.6,1.42C389,78.59,388.43,78.66,388,78.37Z" style="fill:#BA68C8"></path><path d="M392.08,76.6a.35.35,0,0,1-.07-.25V71.1a.86.86,0,0,1,.07-.34.56.56,0,0,1,.23-.23l1.68-1c1.13-.65,1.69-.32,1.69,1a3.33,3.33,0,0,1-.2,1.18,3.23,3.23,0,0,1-.59,1l.7,1.63a.5.5,0,0,1,0,.12.28.28,0,0,1-.14.24l-.74.42c-.06,0-.11.06-.14,0s-.06,0-.08-.09l-.61-1.6-.79.46v1.74A.61.61,0,0,1,393,76a.51.51,0,0,1-.23.23l-.5.29C392.2,76.62,392.13,76.63,392.08,76.6Zm1.75-4.09a1.49,1.49,0,0,0,.57-.54,1.52,1.52,0,0,0,.19-.79c0-.3-.06-.49-.17-.57s-.29,0-.52.09l-.79.45v1.78Z" style="fill:#BA68C8"></path><path d="M396.3,74.17c-.05,0-.07-.12-.07-.25V68.66a.67.67,0,0,1,.07-.33.51.51,0,0,1,.23-.23l2.75-1.59c.11-.06.18-.08.22-.05a.38.38,0,0,1,.06.26v.33a.73.73,0,0,1-.06.32.52.52,0,0,1-.22.22l-2,1.13v1.4l1.37-.79c.11-.06.18-.08.22,0s.06.11.06.25v.31a.75.75,0,0,1-.06.33.5.5,0,0,1-.22.21l-1.37.79v1.41l2-1.12c.1-.07.18-.08.22,0s.06.12.06.26V72a.75.75,0,0,1-.06.33.56.56,0,0,1-.22.21l-2.75,1.59C396.42,74.19,396.34,74.2,396.3,74.17Z" style="fill:#BA68C8"></path><path d="M400.11,72a.31.31,0,0,1-.07-.24V66.46a.81.81,0,0,1,.07-.33.57.57,0,0,1,.23-.23l1.4-.81c.76-.44,1.33-.53,1.73-.27s.59.9.59,1.94a5.35,5.35,0,0,1-.6,2.63,4.47,4.47,0,0,1-1.72,1.73l-1.4.8C400.24,72,400.16,72,400.11,72ZM401.79,70a2.05,2.05,0,0,0,.88-.94,3.89,3.89,0,0,0,.3-1.68c0-.7-.1-1.15-.3-1.32s-.48-.16-.88.07l-.65.38v3.87Z" style="fill:#BA68C8"></path><path d="M404.67,69.33a.35.35,0,0,1-.07-.25V63.83a.89.89,0,0,1,.07-.34.72.72,0,0,1,.23-.23l.5-.28c.11-.07.19-.08.23,0s.07.13.07.26v5.26a.67.67,0,0,1-.07.33.55.55,0,0,1-.23.22l-.5.29C404.8,69.35,404.72,69.37,404.67,69.33Z" style="fill:#BA68C8"></path><path d="M407.55,67.67c-.05,0-.07-.12-.07-.25V62.86l-1.09.63c-.11.06-.18.07-.22,0a.38.38,0,0,1-.06-.26V63a.75.75,0,0,1,.06-.33.58.58,0,0,1,.22-.22l3.28-1.89c.11-.06.19-.08.23,0s.06.12.06.25v.33a.73.73,0,0,1-.06.32.49.49,0,0,1-.23.22l-1.09.63v4.56a.67.67,0,0,1-.07.33.51.51,0,0,1-.23.23l-.49.29C407.68,67.69,407.6,67.7,407.55,67.67Z" style="fill:#BA68C8"></path><path d="M413.27,63.78c-.43-.29-.64-1-.64-2a5.72,5.72,0,0,1,.62-2.7A4.67,4.67,0,0,1,415,57.28a3.7,3.7,0,0,1,.88-.38,1.4,1.4,0,0,1,.67,0,.1.1,0,0,1,.07.11.45.45,0,0,1,0,.17l-.23.68a.42.42,0,0,1-.1.15.18.18,0,0,1-.11,0,1.53,1.53,0,0,0-1,.26,2.63,2.63,0,0,0-1.07,1.14,3.93,3.93,0,0,0-.38,1.78c0,.7.14,1.15.4,1.34s.62.17,1.08-.1a3.33,3.33,0,0,0,1.05-.92.71.71,0,0,1,.11-.12s.06,0,.1,0l.25.45a.16.16,0,0,1,0,.09.56.56,0,0,1-.08.18,4.6,4.6,0,0,1-1.6,1.42C414.29,64,413.69,64.08,413.27,63.78Z" style="fill:#BA68C8"></path><path d="M417,62.17a1.15,1.15,0,0,1,0-.16l1.72-6.46a.88.88,0,0,1,.11-.27.39.39,0,0,1,.16-.15l.48-.28c.07,0,.13-.05.16,0s.07.06.1.15l1.72,4.47a.32.32,0,0,1,0,.13.24.24,0,0,1-.11.22l-.81.47c-.06,0-.11.05-.14,0s-.05,0-.07-.1l-.31-.87-1.61.94-.3,1.22a.68.68,0,0,1-.08.19.33.33,0,0,1-.14.11l-.8.47C417,62.29,417,62.27,417,62.17Zm2.8-3.72-.55-1.6-.56,2.24Z" style="fill:#BA68C8"></path><path d="M422.1,59.27c-.05,0-.07-.12-.07-.25V53.77a.74.74,0,0,1,.07-.34.56.56,0,0,1,.23-.23l1.68-1c1.12-.65,1.69-.32,1.69,1a3.52,3.52,0,0,1-.2,1.18,3.15,3.15,0,0,1-.6,1l.7,1.64a.2.2,0,0,1,0,.11.26.26,0,0,1-.14.24l-.73.42c-.07,0-.11.06-.14.05s-.06,0-.08-.09l-.62-1.59-.79.45v1.74a.81.81,0,0,1-.06.33.65.65,0,0,1-.24.22l-.49.29C422.22,59.29,422.14,59.31,422.1,59.27Zm1.75-4.09a1.65,1.65,0,0,0,.57-.54,1.61,1.61,0,0,0,.19-.78c0-.31-.06-.5-.18-.58s-.29,0-.52.09l-.79.45V55.6Z" style="fill:#BA68C8"></path><path d="M426.31,56.84c-.05,0-.07-.12-.07-.25V51.33a.67.67,0,0,1,.07-.33.56.56,0,0,1,.23-.23l1.4-.8c.75-.44,1.33-.53,1.72-.28s.6.91.6,2a5.31,5.31,0,0,1-.6,2.62A4.54,4.54,0,0,1,427.94,56l-1.4.81C426.43,56.86,426.36,56.87,426.31,56.84Zm1.68-2a2.18,2.18,0,0,0,.88-1,3.84,3.84,0,0,0,.3-1.67c0-.71-.1-1.15-.3-1.33s-.49-.15-.88.08l-.65.37v3.87Z" style="fill:#BA68C8"></path></g><path d="M393.44,94.92,396,93.43c.34-.2.61,0,.61.35v.79a1.32,1.32,0,0,1-.61,1.05l-2.59,1.5c-.33.19-.61,0-.61-.35V96A1.38,1.38,0,0,1,393.44,94.92Z" style="fill:#BA68C8"></path><path d="M387.73,98.22l2.59-1.5c.34-.19.61,0,.61.36v.79a1.32,1.32,0,0,1-.61,1l-2.59,1.5a.37.37,0,0,1-.61-.35v-.8A1.36,1.36,0,0,1,387.73,98.22Z" style="fill:#BA68C8"></path><path d="M420.43,84.83l-32.24,18.62a2.24,2.24,0,0,0-1,1.76v1c0,.65.46.91,1,.59l32.24-18.62a2.24,2.24,0,0,0,1-1.76v-1C421.45,84.77,421,84.51,420.43,84.83Z" style="fill:#BA68C8"></path><path d="M393.44,94.92,396,93.43c.34-.2.61,0,.61.35v.79a1.32,1.32,0,0,1-.61,1.05l-2.59,1.5c-.33.19-.61,0-.61-.35V96A1.38,1.38,0,0,1,393.44,94.92Z" style="fill:#455a64"></path><path d="M387.73,98.22l2.59-1.5c.34-.19.61,0,.61.36v.79a1.32,1.32,0,0,1-.61,1l-2.59,1.5a.37.37,0,0,1-.61-.35v-.8A1.36,1.36,0,0,1,387.73,98.22Z" style="fill:#455a64"></path><path d="M420.43,84.83l-32.24,18.62a2.24,2.24,0,0,0-1,1.76v1c0,.65.46.91,1,.59l32.24-18.62a2.24,2.24,0,0,0,1-1.76v-1C421.45,84.77,421,84.51,420.43,84.83Z" style="fill:#455a64"></path><path d="M387.78,89.18l.12-.07c.37-.21.66,0,.66.5v2.54a1.64,1.64,0,0,1-.67,1.29l-.1.07c-.37.22-.67,0-.67-.47v-2.6A1.6,1.6,0,0,1,387.78,89.18Z" style="fill:#fafafa"></path><path d="M391.19,87.23l.12-.07c.36-.21.66,0,.66.5V90.2a1.67,1.67,0,0,1-.67,1.29l-.1.06c-.37.23-.67,0-.67-.47V88.49A1.56,1.56,0,0,1,391.19,87.23Z" style="fill:#fafafa"></path><path d="M394.59,85.28l.12-.07c.37-.21.66,0,.66.5v2.53a1.67,1.67,0,0,1-.67,1.3l-.1.06c-.37.22-.67,0-.67-.47V86.54A1.58,1.58,0,0,1,394.59,85.28Z" style="fill:#fafafa"></path><path d="M398,83.32l.12-.07c.36-.21.66,0,.66.5v2.54a1.64,1.64,0,0,1-.67,1.29l-.1.06c-.37.23-.67,0-.67-.47V84.58A1.57,1.57,0,0,1,398,83.32Z" style="fill:#fafafa"></path><path d="M403.71,80l.12-.06c.37-.22.66,0,.66.49V83a1.64,1.64,0,0,1-.67,1.29l-.1.07c-.37.22-.67,0-.67-.47V81.25A1.6,1.6,0,0,1,403.71,80Z" style="fill:#fafafa"></path><path d="M407.12,78l.12-.07c.36-.21.66,0,.66.5V81a1.65,1.65,0,0,1-.67,1.29l-.1.06c-.37.23-.67,0-.67-.47V79.29A1.57,1.57,0,0,1,407.12,78Z" style="fill:#fafafa"></path><path d="M410.52,76.08l.12-.07c.37-.21.66,0,.66.5v2.54a1.67,1.67,0,0,1-.67,1.29l-.1.06c-.37.23-.67,0-.67-.47V77.34A1.58,1.58,0,0,1,410.52,76.08Z" style="fill:#fafafa"></path><path d="M413.93,74.12l.12-.07c.36-.21.66,0,.66.5v2.54a1.64,1.64,0,0,1-.67,1.29l-.1.07c-.37.22-.67,0-.67-.47v-2.6A1.57,1.57,0,0,1,413.93,74.12Z" style="fill:#fafafa"></path><path d="M419.64,70.79l.12-.07c.36-.21.66,0,.66.5v2.54a1.67,1.67,0,0,1-.67,1.29l-.1.06c-.37.23-.67,0-.67-.47V72.05A1.56,1.56,0,0,1,419.64,70.79Z" style="fill:#fafafa"></path><path d="M423,68.83l.12-.07c.37-.21.66,0,.66.5V71.8a1.63,1.63,0,0,1-.66,1.29l-.11.07c-.37.22-.67,0-.67-.47v-2.6A1.6,1.6,0,0,1,423,68.83Z" style="fill:#fafafa"></path><path d="M426.45,66.88l.12-.07c.36-.21.66,0,.66.5v2.54a1.67,1.67,0,0,1-.67,1.29l-.1.06c-.37.23-.67,0-.67-.47V68.14A1.58,1.58,0,0,1,426.45,66.88Z" style="fill:#fafafa"></path><path d="M429.86,64.93l.12-.07c.36-.21.66,0,.66.5v2.53a1.67,1.67,0,0,1-.67,1.3l-.11.06c-.37.22-.67,0-.67-.47V66.19A1.57,1.57,0,0,1,429.86,64.93Z" style="fill:#fafafa"></path><path d="M435.57,61.59l.12-.07c.36-.21.66,0,.66.5v2.54a1.67,1.67,0,0,1-.67,1.29l-.1.06c-.37.23-.67,0-.67-.47V62.85A1.56,1.56,0,0,1,435.57,61.59Z" style="fill:#fafafa"></path><path d="M439,59.63l.12-.06c.37-.22.66,0,.66.49V62.6a1.64,1.64,0,0,1-.67,1.29L439,64c-.37.22-.67,0-.67-.47V60.9A1.6,1.6,0,0,1,439,59.63Z" style="fill:#fafafa"></path><path d="M442.38,57.68l.12-.07c.36-.21.66,0,.66.5v2.54a1.65,1.65,0,0,1-.67,1.29l-.1.06c-.37.23-.67,0-.67-.47V58.94A1.57,1.57,0,0,1,442.38,57.68Z" style="fill:#fafafa"></path><path d="M445.78,55.73l.12-.07c.37-.21.66,0,.66.5V58.7a1.67,1.67,0,0,1-.67,1.29l-.1.06c-.37.23-.67,0-.67-.47V57A1.58,1.58,0,0,1,445.78,55.73Z" style="fill:#fafafa"></path></g><polygon points="383.69 71.61 379.83 69.41 379.83 82.63 383.69 84.81 383.69 71.61" style="fill:#263238"></polygon></g></g></g></svg>