<svg width="512" height="512" viewBox="0 0 512 512" fill="none" xmlns="http://www.w3.org/2000/svg">
<path d="M144.287 214.197C144.287 220.497 144.968 225.606 146.16 229.352C147.522 233.098 149.225 237.185 151.609 241.613C152.461 242.975 152.801 244.337 152.801 245.529C152.801 247.232 151.779 248.935 149.566 250.638L138.838 257.79C137.305 258.812 135.773 259.322 134.41 259.322C132.707 259.322 131.005 258.471 129.302 256.938C126.918 254.384 124.874 251.66 123.171 248.935C121.469 246.04 119.766 242.805 117.893 238.888C104.61 254.554 87.9222 262.388 67.8285 262.388C53.5245 262.388 42.1153 258.301 33.7713 250.127C25.4273 241.953 21.1702 231.055 21.1702 217.432C21.1702 202.958 26.2787 191.208 36.6662 182.353C47.0536 173.498 60.8468 169.071 78.3862 169.071C84.1759 169.071 90.1359 169.582 96.4365 170.433C102.737 171.285 109.208 172.647 116.019 174.179V161.749C116.019 148.807 113.295 139.782 108.016 134.503C102.567 129.224 93.3714 126.67 80.2593 126.67C74.2993 126.67 68.1691 127.351 61.8685 128.883C55.5679 130.416 49.4376 132.289 43.4776 134.673C40.753 135.865 38.7096 136.546 37.5176 136.887C36.3256 137.227 35.4742 137.398 34.793 137.398C32.409 137.398 31.217 135.695 31.217 132.119V123.775C31.217 121.05 31.5576 119.007 32.409 117.815C33.2605 116.623 34.793 115.431 37.177 114.239C43.137 111.174 50.289 108.619 58.633 106.576C66.9771 104.362 75.8319 103.341 85.1976 103.341C105.462 103.341 120.277 107.938 129.813 117.134C139.178 126.329 143.946 140.293 143.946 159.024V214.197H144.287ZM75.1508 240.08C80.7702 240.08 86.5599 239.058 92.6902 237.015C98.8205 234.972 104.27 231.225 108.867 226.117C111.592 222.881 113.635 219.305 114.657 215.218C115.679 211.132 116.36 206.193 116.36 200.403V193.251C111.422 192.059 106.143 191.038 100.694 190.357C95.2445 189.675 89.9656 189.335 84.6868 189.335C73.2776 189.335 64.9336 191.549 59.3142 196.146C53.6948 200.744 50.9702 207.215 50.9702 215.729C50.9702 223.733 53.0136 229.693 57.2708 233.78C61.3576 238.037 67.3176 240.08 75.1508 240.08ZM211.89 258.471C208.825 258.471 206.782 257.96 205.419 256.768C204.057 255.746 202.865 253.362 201.843 250.127L161.826 118.496C160.805 115.09 160.294 112.877 160.294 111.685C160.294 108.96 161.656 107.427 164.381 107.427H181.069C184.304 107.427 186.518 107.938 187.71 109.13C189.072 110.152 190.094 112.536 191.115 115.771L219.723 228.501L246.288 115.771C247.139 112.366 248.161 110.152 249.523 109.13C250.886 108.109 253.27 107.427 256.335 107.427H269.958C273.193 107.427 275.407 107.938 276.769 109.13C278.131 110.152 279.323 112.536 280.005 115.771L306.91 229.863L336.369 115.771C337.391 112.366 338.583 110.152 339.775 109.13C341.137 108.109 343.351 107.427 346.416 107.427H362.253C364.977 107.427 366.51 108.79 366.51 111.685C366.51 112.536 366.34 113.387 366.169 114.409C365.999 115.431 365.658 116.793 364.977 118.666L323.938 250.297C322.917 253.703 321.725 255.917 320.362 256.938C319 257.96 316.786 258.641 313.892 258.641H299.247C296.012 258.641 293.798 258.13 292.435 256.938C291.073 255.746 289.881 253.533 289.2 250.127L262.806 140.293L236.582 249.957C235.73 253.362 234.709 255.576 233.346 256.768C231.984 257.96 229.6 258.471 226.535 258.471H211.89ZM430.708 263.069C421.853 263.069 412.998 262.047 404.484 260.004C395.969 257.96 389.328 255.746 384.901 253.192C382.176 251.66 380.303 249.957 379.622 248.424C378.941 246.892 378.6 245.189 378.6 243.656V234.972C378.6 231.396 379.962 229.693 382.517 229.693C383.538 229.693 384.56 229.863 385.582 230.204C386.604 230.544 388.136 231.225 389.839 231.906C395.629 234.461 401.929 236.504 408.57 237.866C415.382 239.229 422.023 239.91 428.834 239.91C439.562 239.91 447.906 238.037 453.696 234.29C459.486 230.544 462.551 225.095 462.551 218.113C462.551 213.345 461.018 209.429 457.953 206.193C454.888 202.958 449.098 200.063 440.754 197.338L416.063 189.675C403.632 185.759 394.437 179.969 388.817 172.306C383.198 164.814 380.303 156.47 380.303 147.615C380.303 140.463 381.836 134.162 384.901 128.713C387.966 123.264 392.053 118.496 397.161 114.75C402.27 110.833 408.06 107.938 414.871 105.895C421.682 103.851 428.834 103 436.327 103C440.073 103 443.99 103.17 447.736 103.681C451.653 104.192 455.229 104.873 458.805 105.554C462.21 106.406 465.446 107.257 468.511 108.279C471.576 109.301 473.96 110.322 475.663 111.344C478.047 112.706 479.75 114.069 480.772 115.601C481.793 116.963 482.304 118.837 482.304 121.221V129.224C482.304 132.8 480.942 134.673 478.388 134.673C477.025 134.673 474.812 133.992 471.917 132.63C462.21 128.202 451.312 125.989 439.222 125.989C429.516 125.989 421.853 127.521 416.574 130.757C411.295 133.992 408.57 138.93 408.57 145.912C408.57 150.68 410.273 154.767 413.679 158.002C417.085 161.238 423.385 164.473 432.41 167.368L456.591 175.031C468.852 178.947 477.706 184.397 482.985 191.378C488.264 198.36 490.818 206.364 490.818 215.218C490.818 222.541 489.286 229.182 486.391 234.972C483.326 240.761 479.239 245.87 473.96 249.957C468.681 254.214 462.381 257.279 455.058 259.493C447.396 261.877 439.392 263.069 430.708 263.069Z" fill="#252F3E"/>
<path d="M462.891 345.828C406.867 387.207 325.471 409.174 255.483 409.174C157.399 409.174 69.0203 372.903 2.2683 312.622C-3.01056 307.854 1.75744 301.383 8.05802 305.129C80.2592 347.02 169.319 372.392 261.443 372.392C323.598 372.392 391.882 359.45 454.718 332.886C464.083 328.629 472.087 339.016 462.891 345.828ZM486.221 319.263C479.069 310.068 438.881 314.836 420.661 317.049C415.211 317.73 414.36 312.962 419.298 309.386C451.312 286.909 503.93 293.38 510.061 300.872C516.191 308.535 508.358 361.153 478.387 386.356C473.79 390.272 469.362 388.229 471.406 383.12C478.217 366.262 493.373 328.288 486.221 319.263Z" fill="#FF9900"/>
</svg>
