<svg width="512" height="512" viewBox="0 0 512 512" fill="none" xmlns="http://www.w3.org/2000/svg">
<path fill-rule="evenodd" clip-rule="evenodd" d="M344.986 282.463C325.578 282.463 308.179 291.061 296.264 304.598L265.733 282.984C268.974 274.061 270.835 264.479 270.835 254.451C270.835 244.596 269.038 235.175 265.904 226.384L296.367 204.999C308.281 218.467 325.634 227.019 344.986 227.019C380.807 227.019 409.954 197.876 409.954 162.05C409.954 126.224 380.807 97.0814 344.986 97.0814C309.164 97.0814 280.017 126.224 280.017 162.05C280.017 168.463 280.986 174.646 282.724 180.502L252.241 201.898C239.507 186.101 221.173 175.071 200.283 171.704V134.965C229.712 128.784 251.886 102.637 251.886 71.3931C251.886 35.567 222.739 6.42432 186.917 6.42432C151.096 6.42432 121.948 35.567 121.948 71.3931C121.948 102.218 143.548 128.043 172.388 134.665V171.881C133.029 178.79 103 213.14 103 254.451C103 295.963 133.326 330.439 172.97 337.113V376.41C143.835 382.814 121.948 408.797 121.948 439.832C121.948 475.658 151.096 504.801 186.917 504.801C222.739 504.801 251.886 475.658 251.886 439.832C251.886 408.797 230 382.814 200.865 376.41V337.111C221.343 333.663 239.341 322.851 251.944 307.404L282.679 329.158C280.972 334.961 280.017 341.084 280.017 347.432C280.017 383.258 309.164 412.4 344.986 412.4C380.807 412.4 409.954 383.258 409.954 347.432C409.954 311.605 380.807 282.463 344.986 282.463ZM344.986 130.55C362.356 130.55 376.484 144.685 376.484 162.05C376.484 179.416 362.356 193.549 344.986 193.549C327.615 193.549 313.487 179.416 313.487 162.05C313.487 144.685 327.615 130.55 344.986 130.55ZM155.417 71.3931C155.417 54.0274 169.547 39.8943 186.917 39.8943C204.288 39.8943 218.416 54.0274 218.416 71.3931C218.416 88.7589 204.288 102.892 186.917 102.892C169.547 102.892 155.417 88.7589 155.417 71.3931ZM218.416 439.832C218.416 457.198 204.288 471.331 186.917 471.331C169.547 471.331 155.417 457.198 155.417 439.832C155.417 422.466 169.547 408.333 186.917 408.333C204.288 408.333 218.416 422.466 218.416 439.832ZM186.915 298.381C162.688 298.381 142.98 278.676 142.98 254.451C142.98 230.224 162.688 210.515 186.915 210.515C211.14 210.515 230.849 230.224 230.849 254.451C230.849 278.676 211.14 298.381 186.915 298.381ZM344.986 378.932C327.615 378.932 313.487 364.797 313.487 347.432C313.487 330.066 327.615 315.933 344.986 315.933C362.356 315.933 376.484 330.066 376.484 347.432C376.484 364.797 362.356 378.932 344.986 378.932Z" fill="black"/>
</svg>
