<svg xmlns="http://www.w3.org/2000/svg" xmlns:xlink="http://www.w3.org/1999/xlink" width="500" zoomAndPan="magnify" viewBox="0 0 375 374.999991" height="500" preserveAspectRatio="xMidYMid meet" version="1.0"><defs><clipPath id="id1"><path d="M 80 307 L 302 307 L 302 369.984375 L 80 369.984375 Z M 80 307 " clip-rule="nonzero"/></clipPath><clipPath id="id2"><path d="M 358 218.394531 L 364.019531 218.394531 L 364.019531 222.785156 L 358 222.785156 Z M 358 218.394531 " clip-rule="nonzero"/></clipPath></defs><path fill="rgb(76.469421%, 58.039856%, 52.159119%)" d="M 289.402344 309.433594 C 287.183594 308.6875 284.90625 308.136719 282.625 307.59375 C 280.34375 296.695312 276.746094 286.070312 271.847656 275.988281 C 271.824219 275.8125 271.792969 275.636719 271.753906 275.464844 C 269.574219 265.984375 222.652344 272.113281 214.328125 272.570312 C 187.265625 274.066406 160.136719 274.359375 133.050781 273.457031 C 127.332031 273.269531 121.4375 271.972656 115.882812 271.800781 C 110.582031 271.636719 110.707031 272.90625 108.820312 277.875 C 107.816406 280.515625 97.800781 311.605469 98.546875 311.617188 C 98.421875 311.613281 98.289062 311.625 98.148438 311.667969 C 89.925781 314.042969 83.480469 321.078125 81.8125 329.226562 C 80.171875 337.207031 83.667969 344.527344 90.039062 349.542969 C 96.171875 354.371094 103.835938 357.132812 111.382812 359.105469 C 119.867188 361.316406 128.613281 362.539062 137.335938 363.460938 C 158.46875 365.695312 179.796875 367.652344 201.058594 367.863281 C 214.492188 367.996094 227.949219 367.3125 241.261719 365.566406 C 253.386719 363.980469 265.957031 361.910156 277.136719 356.882812 C 286.804688 352.539062 295.929688 344.921875 299.101562 334.726562 C 301.863281 325.839844 299.476562 312.839844 289.402344 309.433594 " fill-opacity="1" fill-rule="nonzero"/><path fill="rgb(1.568604%, 2.349854%, 2.349854%)" d="M 265.492188 306.824219 C 266.355469 302.074219 268.488281 297.984375 270.980469 293.902344 C 271.519531 293.019531 272.101562 292.363281 272.769531 291.597656 C 273.023438 291.300781 274.183594 291.226562 272.78125 291.042969 C 272.078125 290.953125 272.878906 290.484375 272.671875 290.949219 C 272.703125 290.882812 272.691406 291.539062 272.699219 291.46875 C 272.652344 292.070312 272.605469 292.632812 272.488281 293.226562 C 272.105469 295.132812 271.570312 297.347656 270.554688 299.03125 C 268.359375 302.671875 263.785156 305.003906 260.167969 306.957031 C 244.835938 315.222656 227.867188 319.78125 212.28125 327.492188 C 203.695312 331.738281 195.578125 336.964844 188.816406 343.796875 C 187.378906 345.25 189.609375 347.480469 191.0625 346.039062 C 205.167969 332.070312 224.617188 325.890625 242.574219 318.539062 C 247.171875 316.660156 251.738281 314.707031 256.199219 312.53125 C 260.511719 310.421875 264.917969 308.210938 268.699219 305.222656 C 271.457031 303.042969 273.328125 300.710938 274.570312 297.480469 C 275.40625 295.316406 276.535156 292.40625 275.949219 290.042969 C 275.03125 286.367188 270.863281 288.097656 269.25 290.199219 C 265.851562 294.621094 263.355469 300.519531 262.503906 306 C 262.203125 307.9375 265.136719 308.804688 265.492188 306.824219 " fill-opacity="1" fill-rule="nonzero"/><path fill="rgb(1.568604%, 2.349854%, 2.349854%)" d="M 252.726562 315.359375 C 258.097656 313.519531 263.964844 313.878906 268.960938 316.636719 C 269.082031 315.726562 269.203125 314.816406 269.320312 313.90625 C 262.503906 316.363281 255.265625 314.160156 248.625 312.144531 C 246.523438 311.507812 245.632812 314.769531 247.71875 315.421875 C 254.949219 317.683594 262.761719 319.746094 270.113281 316.789062 C 271.195312 316.351562 271.738281 314.695312 270.472656 314.058594 C 264.691406 311.136719 258.140625 310.542969 252.003906 312.734375 C 250.367188 313.316406 251.058594 315.929688 252.726562 315.359375 " fill-opacity="1" fill-rule="nonzero"/><path fill="rgb(1.568604%, 2.349854%, 2.349854%)" d="M 250.421875 313.929688 C 254.515625 311.46875 257.605469 307.746094 259.296875 303.285156 C 260.136719 301.0625 261.976562 296.304688 259.316406 294.597656 C 255.777344 292.324219 252.546875 297.910156 251.5 300.371094 C 249.566406 304.90625 248.785156 310.835938 244.585938 313.933594 C 243.277344 314.902344 244.527344 317.121094 245.882812 316.152344 C 249.289062 313.722656 250.828125 310.039062 252.257812 306.25 C 253.285156 303.53125 254.195312 299.128906 256.855469 297.507812 C 257.136719 297.335938 257.414062 297.210938 257.738281 297.15625 C 258.109375 297.097656 257.554688 296.773438 257.636719 297.035156 C 257.796875 297.546875 257.65625 298.203125 257.566406 298.710938 C 257.347656 300.003906 256.917969 301.277344 256.453125 302.5 C 255.042969 306.226562 252.335938 309.34375 248.9375 311.386719 C 247.3125 312.363281 248.789062 314.910156 250.421875 313.929688 " fill-opacity="1" fill-rule="nonzero"/><path fill="rgb(1.568604%, 2.349854%, 2.349854%)" d="M 233.9375 321.648438 C 236.640625 320.835938 239.429688 320.535156 242.246094 320.847656 C 243.675781 321.003906 245.097656 321.335938 246.457031 321.792969 C 247.105469 322.015625 247.910156 322.539062 248.570312 322.65625 C 249.117188 323.152344 249.3125 323.09375 249.15625 322.476562 C 249.296875 321.953125 249.140625 321.835938 248.6875 322.117188 C 247.503906 321.699219 245.703125 321.703125 244.425781 321.511719 C 242.875 321.28125 241.324219 321.050781 239.777344 320.820312 C 236.675781 320.359375 233.574219 319.925781 230.464844 319.496094 C 230.320312 320.578125 230.175781 321.660156 230.027344 322.742188 C 231.851562 322.726562 233.375 321.339844 234.707031 320.25 C 236.507812 318.78125 238.183594 317.195312 239.597656 315.347656 C 242.265625 311.863281 245.117188 306.980469 244.710938 302.429688 C 244.65625 301.828125 244.285156 301.082031 243.597656 300.972656 C 241.511719 300.644531 240.277344 302.414062 239.035156 303.882812 C 237.527344 305.667969 236.195312 307.597656 234.941406 309.566406 C 232.332031 313.660156 229.996094 317.933594 226.625 321.472656 C 225.386719 322.773438 227.363281 324.753906 228.605469 323.449219 C 231.394531 320.519531 233.589844 317.125 235.746094 313.71875 C 236.816406 312.019531 237.890625 310.316406 239.058594 308.675781 C 240.253906 306.992188 241.71875 304.785156 243.5 303.660156 C 243.109375 303.714844 242.722656 303.765625 242.332031 303.8125 C 242.488281 303.839844 242.640625 303.863281 242.792969 303.890625 C 242.421875 303.402344 242.050781 302.914062 241.679688 302.429688 C 241.984375 306.089844 239.703125 309.894531 237.648438 312.769531 C 236.445312 314.449219 235 315.875 233.425781 317.210938 C 232.625 317.890625 231.15625 319.472656 230.027344 319.4375 C 228.199219 319.375 227.726562 322.347656 229.585938 322.683594 C 234.328125 323.542969 239.070312 324.359375 243.820312 325.167969 C 246.351562 325.601562 251.386719 326.730469 252.457031 323.183594 C 253.46875 319.835938 247.472656 318.746094 245.3125 318.355469 C 241.269531 317.621094 237.160156 317.945312 233.292969 319.316406 C 231.84375 319.832031 232.425781 322.097656 233.9375 321.648438 " fill-opacity="1" fill-rule="nonzero"/><path fill="rgb(1.568604%, 2.349854%, 2.349854%)" d="M 215.132812 330.308594 C 222.691406 329.277344 230.335938 331.238281 236.597656 335.539062 C 236.738281 334.476562 236.878906 333.414062 237.015625 332.351562 C 229.160156 333.484375 220.921875 331.324219 214.644531 326.464844 C 214.644531 327.328125 214.644531 328.191406 214.644531 329.054688 C 221.3125 323.113281 225.363281 314.894531 226.25 306.039062 C 226.425781 304.273438 224.09375 303.667969 222.976562 304.683594 C 216.269531 310.777344 212.28125 319.238281 211.648438 328.25 C 211.46875 330.820312 215.496094 330.816406 215.65625 328.25 C 216.160156 320.253906 219.804688 312.816406 225.6875 307.394531 C 224.59375 306.941406 223.503906 306.492188 222.414062 306.039062 C 221.679688 313.914062 217.910156 321.175781 212.054688 326.464844 C 211.082031 327.335938 211.542969 328.671875 212.421875 329.339844 C 219.703125 334.890625 228.925781 337.074219 237.941406 335.710938 C 239.558594 335.46875 239.464844 333.273438 238.359375 332.527344 C 231.257812 327.722656 222.707031 325.894531 214.246094 327.101562 C 212.132812 327.40625 213.039062 330.59375 215.132812 330.308594 " fill-opacity="1" fill-rule="nonzero"/><path fill="rgb(1.568604%, 2.349854%, 2.349854%)" d="M 203.171875 339.515625 C 208.929688 339.339844 214.523438 340.589844 219.625 343.277344 C 219.949219 342.074219 220.277344 340.867188 220.601562 339.664062 C 215.828125 339.523438 211.292969 338.609375 207.066406 336.800781 C 204.859375 335.855469 200.335938 333.382812 198.222656 335.679688 C 199.304688 336.507812 200.382812 337.34375 201.464844 338.175781 C 204.078125 334.324219 207.007812 331.019531 208.148438 326.382812 C 208.683594 324.21875 209.074219 321.847656 208.976562 319.613281 C 208.949219 318.898438 208.828125 318.207031 208.679688 317.503906 C 208.625 317.25 208.34375 315.742188 208.269531 316.066406 C 208.84375 313.5625 205.21875 311.761719 203.945312 314.246094 C 202.136719 317.773438 200.738281 321.5 199.933594 325.382812 C 199.171875 329.0625 198.480469 333.25 199.453125 336.929688 C 199.871094 338.511719 202.476562 338.65625 202.804688 336.929688 C 203.460938 333.484375 203.371094 329.992188 204.1875 326.554688 C 205.011719 323.070312 206.304688 319.769531 208.03125 316.628906 C 206.589844 316.023438 205.148438 315.417969 203.707031 314.808594 C 203.34375 316.21875 203.898438 317.597656 204.179688 318.964844 C 204.550781 320.761719 204.28125 322.75 203.941406 324.546875 C 203.085938 329.101562 200.324219 332.292969 197.902344 336.09375 C 196.660156 338.039062 199.589844 340.375 201.140625 338.589844 C 200.660156 339.140625 200.445312 338.804688 201.410156 339.019531 C 202.128906 339.179688 202.832031 339.441406 203.527344 339.691406 C 204.800781 340.164062 206.042969 340.710938 207.296875 341.238281 C 211.402344 342.964844 216.183594 343.457031 220.601562 343.542969 C 222.480469 343.578125 223.3125 340.820312 221.582031 339.925781 C 215.871094 336.992188 209.597656 335.554688 203.171875 335.8125 C 200.796875 335.910156 200.777344 339.585938 203.171875 339.515625 " fill-opacity="1" fill-rule="nonzero"/><path fill="rgb(1.568604%, 2.349854%, 2.349854%)" d="M 170.742188 345.566406 C 169.339844 337.25 166.816406 329.011719 162.449219 321.75 C 160.328125 318.21875 157.773438 314.894531 154.726562 312.101562 C 153.257812 310.75 151.671875 309.515625 149.988281 308.441406 C 148.398438 307.425781 146.4375 306.082031 144.519531 305.953125 C 143.644531 305.894531 143.117188 307.144531 143.789062 307.71875 C 145.183594 308.929688 147.191406 309.527344 148.765625 310.527344 C 150.4375 311.585938 151.984375 312.816406 153.421875 314.171875 C 156.359375 316.945312 158.785156 320.195312 160.8125 323.679688 C 164.824219 330.566406 167.449219 338.246094 169.042969 346.035156 C 169.269531 347.15625 170.929688 346.667969 170.742188 345.566406 " fill-opacity="1" fill-rule="nonzero"/><path fill="rgb(1.568604%, 2.349854%, 2.349854%)" d="M 142.242188 295.554688 C 142.132812 295.773438 141.707031 295.8125 141.46875 295.53125 C 141.03125 295.019531 141.84375 294.179688 142.304688 293.984375 C 142.03125 293.949219 141.761719 293.914062 141.492188 293.878906 C 142.003906 294.113281 142.351562 294.597656 142.257812 295.1875 C 142.050781 296.480469 143.847656 297.035156 144.257812 295.738281 C 144.679688 294.410156 144.03125 292.90625 142.839844 292.203125 C 142.035156 291.726562 141.34375 292.035156 140.671875 292.578125 C 140.105469 293.035156 139.664062 293.648438 139.457031 294.351562 C 139.074219 295.640625 139.65625 296.96875 140.90625 297.480469 C 141.976562 297.914062 143.394531 297.660156 143.914062 296.53125 C 144.433594 295.414062 142.792969 294.425781 142.242188 295.554688 " fill-opacity="1" fill-rule="nonzero"/><path fill="rgb(1.568604%, 2.349854%, 2.349854%)" d="M 133.652344 301.34375 C 133.113281 302.203125 131.753906 301.382812 132.316406 300.421875 C 132.601562 299.925781 133.132812 299.730469 133.660156 299.996094 C 134.320312 300.328125 134.335938 301.070312 134.78125 301.578125 C 135.101562 301.945312 135.882812 301.886719 136.085938 301.410156 C 136.703125 299.976562 135.214844 298.421875 133.871094 298.082031 C 132.421875 297.714844 130.996094 298.613281 130.492188 299.96875 C 130.011719 301.246094 130.539062 302.664062 131.792969 303.230469 C 133.015625 303.785156 134.503906 303.414062 135.214844 302.253906 C 135.828125 301.261719 134.269531 300.359375 133.652344 301.34375 " fill-opacity="1" fill-rule="nonzero"/><path fill="rgb(1.568604%, 2.349854%, 2.349854%)" d="M 141.105469 303 C 141.167969 302.910156 141.078125 302.988281 140.910156 302.914062 C 140.761719 302.851562 140.605469 302.71875 140.566406 302.550781 C 140.402344 301.839844 141.476562 301.195312 141.960938 300.929688 C 141.601562 300.882812 141.25 300.839844 140.890625 300.792969 C 141.238281 301.078125 140.96875 301.5 141 301.882812 C 141.035156 302.367188 141.464844 302.636719 141.933594 302.488281 C 143.210938 302.085938 142.976562 300.238281 142.140625 299.546875 C 141.824219 299.285156 141.441406 299.207031 141.070312 299.410156 C 139.707031 300.15625 138.117188 301.855469 139.066406 303.511719 C 139.820312 304.8125 141.710938 305.222656 142.628906 303.890625 C 143.273438 302.953125 141.746094 302.070312 141.105469 303 " fill-opacity="1" fill-rule="nonzero"/><path fill="rgb(1.568604%, 2.349854%, 2.349854%)" d="M 134.453125 308.082031 C 134 308.152344 133.542969 308.230469 133.085938 308.300781 C 133.378906 308.378906 133.667969 308.453125 133.960938 308.53125 C 133.410156 307.996094 133.496094 307.003906 134.164062 306.601562 C 133.867188 306.601562 133.566406 306.601562 133.269531 306.601562 C 133.78125 306.886719 133.796875 307.378906 134.058594 307.851562 C 134.3125 308.3125 135.144531 308.386719 135.378906 307.851562 C 135.816406 306.847656 135.230469 305.710938 134.324219 305.164062 C 133.367188 304.582031 132.457031 305.554688 132.089844 306.390625 C 131.726562 307.21875 131.714844 308.179688 132.105469 309 C 132.296875 309.398438 132.632812 309.910156 133.085938 310.035156 C 133.617188 310.179688 134.398438 309.90625 134.9375 309.824219 C 136.078125 309.648438 135.597656 307.898438 134.453125 308.082031 " fill-opacity="1" fill-rule="nonzero"/><path fill="rgb(1.568604%, 2.349854%, 2.349854%)" d="M 143.074219 297.679688 C 145.785156 300.976562 147.46875 304.851562 148.128906 309.0625 C 148.550781 308.734375 148.976562 308.410156 149.40625 308.078125 C 146.613281 306.058594 143.792969 304.074219 140.972656 302.089844 C 140.175781 301.527344 139.464844 302.8125 140.21875 303.382812 C 142.980469 305.460938 145.738281 307.539062 148.527344 309.582031 C 149.214844 310.082031 149.902344 309.253906 149.800781 308.601562 C 149.117188 304.066406 147.246094 299.957031 144.351562 296.402344 C 143.617188 295.503906 142.339844 296.785156 143.074219 297.679688 " fill-opacity="1" fill-rule="nonzero"/><path fill="rgb(1.568604%, 2.349854%, 2.349854%)" d="M 143.335938 305.308594 C 140.203125 304.171875 137.070312 303.03125 133.941406 301.894531 C 132.976562 301.542969 132.566406 303.074219 133.519531 303.425781 C 136.644531 304.578125 139.773438 305.726562 142.902344 306.882812 C 143.886719 307.246094 144.316406 305.664062 143.335938 305.308594 " fill-opacity="1" fill-rule="nonzero"/><path fill="rgb(1.568604%, 2.349854%, 2.349854%)" d="M 146.234375 306.855469 C 142.277344 305.640625 138.046875 305.625 134.03125 306.578125 C 133.171875 306.785156 133.539062 308.089844 134.394531 307.898438 C 138.179688 307.058594 142.125 307.148438 145.824219 308.339844 C 146.769531 308.644531 147.183594 307.144531 146.234375 306.855469 " fill-opacity="1" fill-rule="nonzero"/><path fill="rgb(1.568604%, 2.349854%, 2.349854%)" d="M 166.011719 332.660156 C 157.058594 327.21875 146.59375 324.765625 136.15625 325.683594 C 135.089844 325.777344 135.082031 327.457031 136.15625 327.359375 C 146.328125 326.417969 156.480469 328.722656 165.230469 333.992188 C 166.085938 334.503906 166.859375 333.175781 166.011719 332.660156 " fill-opacity="1" fill-rule="nonzero"/><path fill="rgb(1.568604%, 2.349854%, 2.349854%)" d="M 126.238281 322.210938 C 126.328125 322.199219 126.1875 322.179688 126.160156 322.167969 C 126.109375 322.140625 126.035156 322.078125 125.992188 322.019531 C 125.984375 322.007812 125.921875 321.855469 125.929688 321.894531 C 125.917969 321.824219 125.96875 321.714844 125.929688 321.792969 C 125.90625 321.84375 126.007812 321.734375 125.953125 321.757812 C 125.902344 321.78125 126.03125 321.707031 126.046875 321.703125 C 126.03125 321.707031 126.25 321.664062 126.160156 321.664062 C 126.003906 321.65625 126.371094 321.753906 126.203125 321.6875 C 126.257812 321.707031 126.53125 321.820312 126.46875 321.800781 C 126.367188 321.765625 126.589844 321.890625 126.472656 321.792969 C 126.796875 322.066406 127.246094 322.140625 127.597656 321.859375 C 127.917969 321.605469 128.0625 321.113281 127.820312 320.75 C 127.609375 320.429688 127.332031 320.144531 126.949219 320.023438 C 126.796875 319.976562 126.625 319.957031 126.460938 319.957031 C 126.390625 319.957031 126.320312 319.964844 126.246094 319.972656 C 126.242188 319.972656 125.910156 320.027344 126.074219 320 C 125.417969 320.097656 124.792969 320.398438 124.480469 321.019531 C 124.15625 321.675781 124.28125 322.4375 124.71875 323.003906 C 125.195312 323.613281 125.898438 323.871094 126.660156 323.742188 C 127.082031 323.667969 127.320312 323.148438 127.210938 322.765625 C 127.089844 322.3125 126.664062 322.148438 126.238281 322.210938 " fill-opacity="1" fill-rule="nonzero"/><path fill="rgb(1.568604%, 2.349854%, 2.349854%)" d="M 129.304688 330.707031 C 129.019531 330.957031 128.414062 330.949219 128.171875 330.625 C 128.171875 330.910156 128.171875 331.195312 128.171875 331.484375 C 128.476562 330.925781 128.78125 330.367188 129.085938 329.8125 C 128.84375 329.949219 128.601562 330.089844 128.359375 330.226562 C 128.933594 330.246094 129.296875 330.726562 129.867188 330.726562 C 130.238281 330.726562 130.589844 330.402344 130.574219 330.019531 C 130.523438 328.972656 129.242188 328.574219 128.359375 328.542969 C 128.070312 328.535156 127.769531 328.710938 127.628906 328.960938 C 127.320312 329.515625 127.011719 330.070312 126.703125 330.625 C 126.566406 330.871094 126.527344 331.242188 126.703125 331.484375 C 127.617188 332.726562 129.34375 332.949219 130.519531 331.917969 C 131.351562 331.191406 130.132812 329.972656 129.304688 330.707031 " fill-opacity="1" fill-rule="nonzero"/><path fill="rgb(1.568604%, 2.349854%, 2.349854%)" d="M 133.132812 336.34375 C 132.652344 336.574219 132.085938 335.886719 132.207031 335.46875 C 132.035156 335.644531 131.863281 335.816406 131.691406 335.988281 C 132.214844 335.769531 132.660156 335.761719 133.21875 335.773438 C 134.042969 335.785156 134.226562 334.53125 133.414062 334.332031 C 132.71875 334.15625 131.742188 334.25 131.117188 334.632812 C 130.523438 335 130.652344 335.945312 130.894531 336.476562 C 131.410156 337.59375 132.757812 338.136719 133.871094 337.601562 C 134.226562 337.429688 134.320312 336.925781 134.128906 336.605469 C 133.917969 336.242188 133.492188 336.175781 133.132812 336.34375 " fill-opacity="1" fill-rule="nonzero"/><path fill="rgb(1.568604%, 2.349854%, 2.349854%)" d="M 121.664062 326.640625 C 121 326.90625 120.644531 326.160156 121.316406 325.859375 C 120.964844 325.816406 120.613281 325.769531 120.265625 325.726562 C 120.585938 326 120.761719 326.304688 120.765625 326.730469 C 120.773438 327.863281 122.554688 327.867188 122.53125 326.730469 C 122.507812 325.871094 122.160156 325.050781 121.492188 324.5 C 121.164062 324.226562 120.820312 324.1875 120.4375 324.363281 C 119.429688 324.828125 118.953125 326.117188 119.386719 327.128906 C 119.820312 328.128906 121.085938 328.679688 122.105469 328.257812 C 122.523438 328.082031 122.824219 327.703125 122.691406 327.226562 C 122.585938 326.828125 122.082031 326.472656 121.664062 326.640625 " fill-opacity="1" fill-rule="nonzero"/><path fill="rgb(1.568604%, 2.349854%, 2.349854%)" d="M 138.738281 326.347656 C 137.109375 327.421875 135.621094 328.671875 134.34375 330.152344 C 133.230469 331.441406 131.8125 333.105469 131.46875 334.804688 C 131.347656 335.402344 132.105469 335.984375 132.574219 335.449219 C 133.683594 334.179688 134.34375 332.558594 135.453125 331.257812 C 136.632812 329.871094 138.003906 328.6875 139.519531 327.679688 C 140.339844 327.128906 139.574219 325.796875 138.738281 326.347656 " fill-opacity="1" fill-rule="nonzero"/><path fill="rgb(1.568604%, 2.349854%, 2.349854%)" d="M 136.753906 325.625 C 133.847656 326.664062 131.144531 328.105469 128.464844 329.613281 C 127.894531 329.933594 128.40625 330.808594 128.976562 330.488281 C 131.585938 329.023438 134.199219 327.613281 137.023438 326.601562 C 137.632812 326.382812 137.367188 325.402344 136.753906 325.625 " fill-opacity="1" fill-rule="nonzero"/><path fill="rgb(1.568604%, 2.349854%, 2.349854%)" d="M 126.351562 324.105469 C 128.53125 324.574219 130.714844 325.042969 132.894531 325.507812 C 134.492188 325.851562 136.191406 326.363281 137.839844 326.246094 C 138.390625 326.207031 138.488281 325.480469 137.964844 325.296875 C 136.367188 324.71875 134.507812 324.609375 132.835938 324.257812 C 130.777344 323.828125 128.722656 323.394531 126.667969 322.960938 C 125.921875 322.804688 125.601562 323.945312 126.351562 324.105469 " fill-opacity="1" fill-rule="nonzero"/><path fill="rgb(1.568604%, 2.349854%, 2.349854%)" d="M 137.054688 325.21875 C 134.300781 325.074219 131.539062 324.800781 128.777344 324.921875 C 126.546875 325.019531 123.765625 325.210938 121.933594 326.582031 C 121.542969 326.871094 121.777344 327.414062 122.253906 327.34375 C 124.839844 326.972656 127.175781 326.125 129.851562 326.082031 C 132.257812 326.042969 134.65625 326.25 137.054688 326.363281 C 137.792969 326.398438 137.789062 325.257812 137.054688 325.21875 " fill-opacity="1" fill-rule="nonzero"/><path fill="rgb(1.568604%, 2.349854%, 2.349854%)" d="M 130.1875 316.789062 C 129.863281 316.246094 129.542969 315.703125 129.214844 315.160156 C 129.007812 314.808594 128.550781 314.777344 128.257812 315.035156 C 126.636719 316.476562 127.351562 319.1875 129.414062 319.734375 C 129.6875 319.804688 130.007812 319.6875 130.148438 319.4375 C 130.410156 318.960938 130.675781 318.480469 130.9375 318.003906 C 130.632812 318.082031 130.332031 318.160156 130.03125 318.238281 C 133.464844 320.429688 135.652344 323.582031 138.261719 326.597656 C 138.738281 327.152344 139.769531 326.5625 139.515625 325.871094 C 138.050781 321.90625 134.148438 319.21875 130.699219 317.097656 C 130.402344 316.914062 129.957031 317.023438 129.789062 317.332031 C 129.535156 317.816406 129.28125 318.300781 129.027344 318.78125 C 129.269531 318.683594 129.515625 318.582031 129.757812 318.480469 C 128.554688 318.183594 128.21875 316.726562 129.121094 315.898438 C 128.800781 315.859375 128.480469 315.816406 128.160156 315.777344 C 128.496094 316.316406 128.828125 316.851562 129.160156 317.394531 C 129.5625 318.042969 130.582031 317.453125 130.1875 316.789062 " fill-opacity="1" fill-rule="nonzero"/><path fill="rgb(1.568604%, 2.349854%, 2.349854%)" d="M 158.867188 308.558594 C 159.121094 306.296875 160.851562 304.179688 161.660156 302.082031 C 162.207031 300.664062 162.929688 298.421875 162.316406 296.90625 C 161.171875 294.082031 158.167969 298.082031 157.722656 299.4375 C 156.707031 302.53125 157.988281 305.800781 157.730469 308.953125 C 157.53125 311.375 155.273438 316.671875 158.335938 318.253906 C 158.492188 318.332031 158.671875 318.203125 158.628906 318.03125 C 158.242188 316.4375 157.882812 315.21875 158.132812 313.554688 C 158.339844 312.164062 158.746094 310.804688 158.90625 309.40625 C 159.164062 307.234375 158.703125 305.109375 158.621094 302.945312 C 158.574219 301.710938 158.605469 300.417969 159.148438 299.28125 C 159.449219 298.65625 160.265625 297.113281 161.164062 298.152344 C 161.503906 298.539062 160.929688 300.0625 160.808594 300.5 C 160.015625 303.289062 157.839844 305.65625 157.5 308.558594 C 157.398438 309.425781 158.773438 309.421875 158.867188 308.558594 " fill-opacity="1" fill-rule="nonzero"/><path fill="rgb(1.568604%, 2.349854%, 2.349854%)" d="M 158.527344 311.265625 C 157.617188 308.683594 157.808594 305.796875 156.449219 303.382812 C 155.890625 302.390625 154.890625 300.457031 153.625 300.210938 C 152.230469 299.945312 151.953125 301.636719 152.152344 302.660156 C 152.441406 304.128906 153.628906 305.617188 154.339844 306.902344 C 155.316406 308.664062 156.21875 310.484375 157.386719 312.128906 C 157.839844 312.765625 158.710938 312.226562 158.414062 311.53125 C 157.480469 309.328125 156.179688 307.28125 155.003906 305.203125 C 154.589844 304.460938 153.285156 302.832031 153.449219 301.949219 C 153.53125 301.5 153.214844 301.53125 153.726562 301.847656 C 153.949219 301.984375 154.234375 302.414062 154.363281 302.578125 C 156.453125 305.28125 156.234375 308.480469 157.378906 311.582031 C 157.640625 312.292969 158.785156 311.996094 158.527344 311.265625 " fill-opacity="1" fill-rule="nonzero"/><path fill="rgb(1.568604%, 2.349854%, 2.349854%)" d="M 148.878906 318.761719 C 147.140625 315.4375 144.027344 313.175781 140.316406 312.574219 C 139.742188 312.476562 139.164062 313.042969 139.515625 313.617188 C 142.09375 317.863281 146.113281 321.222656 150.945312 322.570312 C 151.433594 322.710938 151.933594 322.238281 151.777344 321.742188 C 151.234375 319.976562 150.164062 318.589844 148.539062 317.695312 C 147.960938 317.375 147.335938 318.140625 147.824219 318.621094 C 150.214844 320.992188 152.75 323.195312 155.441406 325.222656 C 156.765625 326.214844 158.109375 327.191406 159.492188 328.109375 C 161.023438 329.128906 162.585938 330.464844 164.257812 331.207031 C 165.253906 331.648438 166.070312 330.34375 165.125 329.722656 C 163.746094 328.816406 162.144531 328.285156 160.722656 327.410156 C 159.3125 326.542969 157.925781 325.628906 156.589844 324.652344 C 153.765625 322.585938 151.136719 320.257812 148.65625 317.789062 C 148.421875 318.097656 148.179688 318.40625 147.941406 318.714844 C 149.320312 319.480469 150.140625 320.542969 150.472656 322.101562 C 150.75 321.824219 151.027344 321.546875 151.308594 321.269531 C 146.90625 319.613281 143.257812 316.910156 140.746094 312.898438 C 140.476562 313.246094 140.210938 313.59375 139.941406 313.941406 C 143.355469 314.449219 146.132812 316.367188 147.773438 319.40625 C 148.164062 320.132812 149.257812 319.492188 148.878906 318.761719 " fill-opacity="1" fill-rule="nonzero"/><path fill="rgb(1.568604%, 2.349854%, 2.349854%)" d="M 175.441406 319.585938 C 176.632812 318.386719 178.355469 317.820312 179.660156 316.730469 C 180.863281 315.734375 181.890625 314.492188 182.625 313.117188 C 183.382812 311.683594 185.417969 306.882812 182.609375 306.441406 C 180.203125 306.058594 177.828125 308.570312 176.832031 310.445312 C 175.488281 312.976562 174.945312 315.902344 174.128906 318.625 C 173.925781 319.304688 174.996094 319.601562 175.195312 318.917969 C 176.171875 315.511719 177.144531 309.902344 180.957031 308.429688 C 181.925781 308.058594 182.511719 307.941406 182.265625 309.292969 C 182.167969 309.859375 182.019531 310.410156 181.828125 310.953125 C 181.378906 312.230469 180.652344 313.414062 179.746094 314.417969 C 178.171875 316.164062 175.90625 316.8125 174.289062 318.429688 C 173.542969 319.175781 174.699219 320.332031 175.441406 319.585938 " fill-opacity="1" fill-rule="nonzero"/><path fill="rgb(1.568604%, 2.349854%, 2.349854%)" d="M 174.996094 317.945312 C 172.773438 320.875 170.828125 324.128906 169.644531 327.625 C 168.558594 330.832031 167.320312 335.011719 167.730469 338.425781 C 167.746094 338.585938 167.980469 338.644531 168.035156 338.464844 C 168.539062 336.730469 168.609375 334.886719 169.066406 333.128906 C 169.542969 331.304688 170.214844 329.539062 170.960938 327.808594 C 172.367188 324.539062 174.042969 321.488281 176.214844 318.65625 C 176.765625 317.9375 175.539062 317.230469 174.996094 317.945312 " fill-opacity="1" fill-rule="nonzero"/><path fill="rgb(1.568604%, 2.349854%, 2.349854%)" d="M 171.464844 325.460938 C 173.59375 320.722656 173.871094 315.527344 172.195312 310.605469 C 172.074219 310.242188 171.53125 309.996094 171.246094 310.355469 C 168.710938 313.507812 167.1875 318.109375 168.449219 322.117188 C 168.8125 323.277344 169.640625 324.472656 171 324.375 C 172.214844 324.289062 173.273438 323.136719 172.460938 322.039062 C 172.269531 321.773438 171.832031 321.777344 171.734375 322.132812 C 171.132812 322.1875 170.527344 322.246094 169.921875 322.304688 C 169.824219 322.046875 169.726562 321.789062 169.628906 321.527344 C 169.488281 321.035156 169.417969 320.5 169.371094 319.988281 C 169.285156 318.984375 169.328125 317.976562 169.488281 316.980469 C 169.832031 314.835938 170.710938 312.871094 172.050781 311.15625 C 171.734375 311.074219 171.414062 310.992188 171.101562 310.90625 C 172.75 315.539062 172.621094 320.472656 170.667969 324.996094 C 170.429688 325.53125 171.222656 326.007812 171.464844 325.460938 " fill-opacity="1" fill-rule="nonzero"/><path fill="rgb(1.568604%, 2.349854%, 2.349854%)" d="M 178.265625 327.820312 C 182.179688 326.980469 185.449219 324.691406 187.640625 321.355469 C 188.035156 320.753906 187.523438 319.832031 186.789062 319.878906 C 181.523438 320.214844 177.199219 322.617188 174.0625 326.839844 C 173.847656 327.128906 174.074219 327.5625 174.390625 327.644531 C 175.808594 328.023438 177.070312 327.777344 178.089844 326.691406 C 178.417969 326.347656 177.980469 325.703125 177.554688 326 C 176.675781 326.617188 175.734375 326.882812 174.683594 326.585938 C 174.761719 326.890625 174.847656 327.199219 174.925781 327.503906 C 177.953125 324.222656 182.335938 322.140625 186.789062 321.84375 C 186.507812 321.351562 186.222656 320.855469 185.941406 320.367188 C 184.015625 323.304688 181.175781 325.210938 177.75 325.953125 C 176.53125 326.21875 177.046875 328.085938 178.265625 327.820312 " fill-opacity="1" fill-rule="nonzero"/><path fill="rgb(1.568604%, 2.349854%, 2.349854%)" d="M 174.34375 326.5625 C 172.492188 328.042969 170.609375 329.484375 168.859375 331.085938 C 168.367188 331.535156 169.019531 332.40625 169.582031 332.019531 C 171.585938 330.644531 173.464844 329.097656 175.375 327.59375 C 176.105469 327.015625 175.070312 325.984375 174.34375 326.5625 " fill-opacity="1" fill-rule="nonzero"/><path fill="rgb(1.568604%, 2.349854%, 2.349854%)" d="M 296.128906 227.851562 C 289.695312 248.484375 276.375 268.054688 257.570312 277.226562 C 235.933594 287.78125 199.285156 285.546875 175.824219 284.742188 C 153.925781 283.996094 131.847656 285.261719 113.984375 270.082031 C 98.070312 256.554688 88.539062 232.003906 85.824219 211.910156 C 82.476562 187.117188 88.472656 161.179688 102.359375 140.363281 C 127.621094 102.5 178.699219 84.882812 222.660156 96.808594 C 239.65625 101.417969 255.734375 110.101562 267.855469 122.867188 C 288.011719 144.097656 301.410156 173.363281 300.46875 202.898438 C 300.214844 210.976562 298.734375 219.503906 296.128906 227.851562 " fill-opacity="1" fill-rule="nonzero"/><path fill="rgb(1.568604%, 2.349854%, 2.349854%)" d="M 115.519531 268.773438 C 110.785156 268.449219 108.070312 273.371094 108.425781 277.582031 C 108.902344 283.25 114.429688 286.074219 119.398438 287.1875 C 126.207031 288.714844 133.328125 289.332031 140.238281 290.265625 C 147.488281 291.242188 154.746094 292.15625 162.019531 292.914062 C 190.875 295.921875 220.546875 296.617188 248.828125 289.210938 C 252.804688 288.167969 256.746094 286.964844 260.625 285.59375 C 263.859375 284.453125 267.53125 283.386719 270.125 281.035156 C 272.15625 279.191406 273.304688 276.585938 272.695312 273.851562 C 272.144531 271.386719 270.40625 269.53125 267.835938 269.328125 C 266.394531 269.214844 266.039062 271.65625 267.492188 271.878906 C 269.625 272.203125 270.292969 274.734375 269.484375 276.53125 C 268.382812 278.96875 265.085938 280.167969 262.769531 281.046875 C 256.996094 283.234375 251.074219 285.035156 245.074219 286.480469 C 233.019531 289.390625 220.660156 290.839844 208.273438 291.285156 C 183.25 292.1875 158.273438 289.179688 133.542969 285.667969 C 130.132812 285.1875 126.710938 284.726562 123.300781 284.1875 C 120.601562 283.761719 117.753906 283.246094 115.375 281.824219 C 113.234375 280.554688 111.800781 278.632812 112.128906 276.0625 C 112.363281 274.1875 113.433594 272.324219 115.519531 272.472656 C 117.894531 272.636719 117.886719 268.9375 115.519531 268.773438 " fill-opacity="1" fill-rule="nonzero"/><path fill="rgb(1.568604%, 2.349854%, 2.349854%)" d="M 110.183594 273.703125 C 100.957031 292.433594 96.183594 313.132812 96.3125 334.015625 C 96.320312 335.53125 98.691406 335.535156 98.675781 334.015625 C 98.417969 313.519531 102.941406 293.144531 111.886719 274.695312 C 112.4375 273.5625 110.746094 272.5625 110.183594 273.703125 " fill-opacity="1" fill-rule="nonzero"/><path fill="rgb(1.568604%, 2.349854%, 2.349854%)" d="M 269.265625 273.042969 C 277.589844 290.128906 282.300781 308.886719 283.292969 327.851562 C 283.398438 329.816406 286.488281 329.820312 286.367188 327.851562 C 285.1875 308.375 280.203125 289.214844 271.511719 271.730469 C 270.765625 270.234375 268.539062 271.546875 269.265625 273.042969 " fill-opacity="1" fill-rule="nonzero"/><path fill="rgb(1.568604%, 2.349854%, 2.349854%)" d="M 93.8125 322.722656 C 93.570312 332.46875 103.238281 337.75 111.1875 340.644531 C 123.066406 344.972656 136.03125 346.269531 148.554688 347.167969 C 160.179688 348 171.832031 348.179688 183.480469 348.152344 C 199.996094 348.113281 216.5625 348.582031 233.007812 346.730469 C 245.300781 345.347656 257.519531 342.976562 269.117188 338.59375 C 274.503906 336.5625 280.195312 334.316406 284.964844 331.058594 C 288.839844 328.414062 292.765625 324.125 290.996094 319.089844 C 290.394531 317.390625 287.777344 318.0625 288.261719 319.84375 C 289.585938 324.742188 283.472656 328.074219 279.871094 329.828125 C 275.199219 332.101562 270.347656 333.988281 265.390625 335.550781 C 255.558594 338.640625 245.367188 340.519531 235.117188 341.550781 C 218.632812 343.207031 202.128906 342.960938 185.589844 343 C 163.140625 343.050781 139.867188 343.128906 117.984375 337.492188 C 112.910156 336.1875 107.742188 334.503906 103.425781 331.449219 C 100.339844 329.269531 98.285156 326.320312 98.300781 322.722656 C 98.320312 319.832031 93.882812 319.835938 93.8125 322.722656 " fill-opacity="1" fill-rule="nonzero"/><g clip-path="url(#id1)"><path fill="rgb(1.568604%, 2.349854%, 2.349854%)" d="M 97.699219 311.453125 C 89.40625 313.917969 82.914062 321.226562 81.226562 329.691406 C 79.574219 337.980469 83.097656 345.585938 89.519531 350.792969 C 95.703125 355.804688 103.429688 358.675781 111.039062 360.722656 C 119.589844 363.023438 128.402344 364.289062 137.195312 365.246094 C 158.5 367.566406 180 369.601562 201.433594 369.820312 C 214.972656 369.960938 228.539062 369.25 241.957031 367.4375 C 254.179688 365.785156 266.851562 363.636719 278.121094 358.417969 C 287.867188 353.902344 297.066406 345.996094 300.265625 335.402344 C 303.046875 326.175781 300.640625 312.667969 290.484375 309.132812 C 288.121094 308.3125 285.6875 307.722656 283.253906 307.125 C 281.964844 306.808594 281.425781 308.855469 282.710938 309.097656 C 287.40625 309.996094 292.644531 310.808594 295.335938 315.265625 C 298.183594 319.988281 298.976562 326.195312 297.785156 331.535156 C 295.480469 341.839844 287.707031 349.667969 278.558594 354.40625 C 268.304688 359.722656 256.449219 361.863281 245.136719 363.605469 C 232.742188 365.511719 220.191406 366.359375 207.652344 366.503906 C 186.605469 366.75 165.6875 364.824219 144.734375 363.050781 C 129.355469 361.75 112.777344 360.304688 98.710938 353.441406 C 91.488281 349.914062 84.179688 344.140625 83.4375 335.539062 C 82.621094 326.027344 89.289062 316.609375 98.367188 313.882812 C 99.914062 313.417969 99.257812 310.988281 97.699219 311.453125 " fill-opacity="1" fill-rule="nonzero"/></g><path fill="rgb(81.568909%, 84.309387%, 87.449646%)" d="M 204.199219 135.449219 C 191.820312 129.851562 175.476562 135.867188 169.699219 148.148438 C 163.917969 160.429688 169.703125 176.839844 181.910156 182.792969 C 194.125 188.742188 210.632812 183.203125 216.765625 171.089844 C 211.003906 173.257812 204.714844 174.566406 198.675781 173.367188 C 192.636719 172.171875 186.917969 168.078125 185.078125 162.207031 C 183.242188 156.34375 185.578125 149.765625 189.703125 145.207031 C 193.832031 140.648438 199.503906 137.792969 205.222656 135.523438 L 204.199219 135.449219 " fill-opacity="1" fill-rule="nonzero"/><path fill="rgb(81.568909%, 84.309387%, 87.449646%)" d="M 258.332031 189.898438 C 257.054688 189.695312 255.636719 189.894531 254.316406 189.792969 C 253.738281 189.75 253.101562 189.605469 252.777344 189.125 C 252.597656 188.855469 252.542969 188.523438 252.496094 188.207031 C 252.429688 187.785156 252.0625 183.003906 250.914062 184.207031 C 250.148438 185.003906 249.96875 187.769531 249.597656 188.8125 C 249.488281 189.113281 249.367188 189.433594 249.113281 189.625 C 248.800781 189.859375 248.371094 189.847656 247.980469 189.820312 C 246.074219 189.695312 242.175781 188.253906 243.222656 190.894531 C 243.839844 192.457031 247.042969 193.335938 246.003906 195.613281 C 245.40625 196.917969 243.117188 197.988281 244.128906 199 C 244.632812 199.507812 245.484375 199.183594 246.113281 198.835938 C 246.542969 198.59375 249.882812 196.789062 250.117188 197.078125 C 251.023438 198.222656 251.933594 199.363281 252.839844 200.503906 C 253.269531 201.039062 253.769531 201.621094 254.453125 201.699219 C 254.636719 201.722656 254.839844 201.699219 254.96875 201.566406 C 255.085938 201.453125 255.121094 201.277344 255.136719 201.117188 C 255.308594 199.699219 254.808594 198.304688 254.566406 196.898438 C 254.320312 195.492188 254.398438 193.863281 255.445312 192.894531 C 256.734375 191.703125 259.003906 191.953125 260.078125 190.570312 C 259.550781 190.191406 258.957031 190 258.332031 189.898438 " fill-opacity="1" fill-rule="nonzero"/><path fill="rgb(81.568909%, 84.309387%, 87.449646%)" d="M 238.554688 235.269531 C 237.28125 235.0625 235.863281 235.265625 234.542969 235.164062 C 233.964844 235.121094 233.328125 234.972656 233.003906 234.496094 C 232.824219 234.226562 232.769531 233.894531 232.71875 233.578125 C 232.65625 233.152344 232.289062 228.375 231.136719 229.578125 C 230.375 230.375 230.195312 233.140625 229.820312 234.183594 C 229.714844 234.484375 229.59375 234.804688 229.339844 234.996094 C 229.023438 235.230469 228.59375 235.21875 228.207031 235.191406 C 226.296875 235.066406 222.402344 233.621094 223.449219 236.265625 C 224.066406 237.828125 227.269531 238.707031 226.230469 240.984375 C 225.632812 242.289062 223.339844 243.359375 224.355469 244.375 C 224.859375 244.875 225.710938 244.554688 226.335938 244.207031 C 226.769531 243.964844 230.109375 242.160156 230.339844 242.453125 C 231.25 243.59375 232.15625 244.730469 233.066406 245.875 C 233.496094 246.410156 233.996094 246.992188 234.679688 247.070312 C 234.863281 247.089844 235.066406 247.070312 235.195312 246.9375 C 235.3125 246.824219 235.34375 246.648438 235.363281 246.488281 C 235.53125 245.070312 235.035156 243.671875 234.792969 242.269531 C 234.546875 240.863281 234.625 239.234375 235.671875 238.265625 C 236.957031 237.074219 239.230469 237.324219 240.300781 235.941406 C 239.773438 235.566406 239.183594 235.367188 238.554688 235.269531 " fill-opacity="1" fill-rule="nonzero"/><path fill="rgb(81.568909%, 84.309387%, 87.449646%)" d="M 249.816406 127.605469 C 248.539062 127.402344 247.117188 127.601562 245.804688 127.5 C 245.222656 127.457031 244.585938 127.3125 244.261719 126.832031 C 244.082031 126.5625 244.027344 126.230469 243.980469 125.914062 C 243.917969 125.488281 243.546875 120.710938 242.394531 121.914062 C 241.632812 122.714844 241.453125 125.476562 241.078125 126.519531 C 240.972656 126.820312 240.855469 127.136719 240.597656 127.332031 C 240.285156 127.566406 239.855469 127.550781 239.464844 127.527344 C 237.558594 127.402344 233.660156 125.957031 234.707031 128.605469 C 235.328125 130.164062 238.53125 131.042969 237.488281 133.324219 C 236.890625 134.625 234.601562 135.695312 235.613281 136.707031 C 236.117188 137.214844 236.972656 136.890625 237.59375 136.542969 C 238.03125 136.304688 241.367188 134.492188 241.601562 134.789062 C 242.511719 135.929688 243.417969 137.070312 244.328125 138.210938 C 244.757812 138.75 245.257812 139.328125 245.941406 139.40625 C 246.125 139.429688 246.328125 139.402344 246.457031 139.273438 C 246.574219 139.15625 246.605469 138.988281 246.625 138.824219 C 246.789062 137.410156 246.296875 136.007812 246.050781 134.605469 C 245.804688 133.199219 245.886719 131.570312 246.933594 130.601562 C 248.21875 129.414062 250.488281 129.660156 251.5625 128.277344 C 251.035156 127.902344 250.441406 127.703125 249.816406 127.605469 " fill-opacity="1" fill-rule="nonzero"/><path fill="rgb(81.568909%, 84.309387%, 87.449646%)" d="M 134.054688 204.824219 C 132.78125 204.621094 131.359375 204.820312 130.039062 204.722656 C 129.460938 204.679688 128.828125 204.53125 128.5 204.054688 C 128.320312 203.785156 128.269531 203.453125 128.21875 203.132812 C 128.15625 202.710938 127.789062 197.929688 126.636719 199.136719 C 125.875 199.933594 125.695312 202.699219 125.320312 203.742188 C 125.214844 204.042969 125.09375 204.363281 124.839844 204.554688 C 124.523438 204.789062 124.09375 204.777344 123.703125 204.75 C 121.796875 204.625 117.902344 203.179688 118.949219 205.824219 C 119.566406 207.386719 122.769531 208.265625 121.730469 210.542969 C 121.128906 211.847656 118.839844 212.917969 119.851562 213.929688 C 120.359375 214.433594 121.210938 214.113281 121.835938 213.765625 C 122.269531 213.523438 125.609375 211.71875 125.839844 212.007812 C 126.75 213.148438 127.65625 214.289062 128.566406 215.429688 C 128.996094 215.96875 129.492188 216.550781 130.179688 216.628906 C 130.363281 216.648438 130.566406 216.625 130.695312 216.496094 C 130.8125 216.378906 130.84375 216.207031 130.863281 216.042969 C 131.027344 214.628906 130.535156 213.230469 130.289062 211.828125 C 130.046875 210.421875 130.125 208.792969 131.171875 207.824219 C 132.457031 206.632812 134.726562 206.882812 135.800781 205.5 C 135.273438 205.121094 134.683594 204.925781 134.054688 204.824219 " fill-opacity="1" fill-rule="nonzero"/><path fill="rgb(81.568909%, 84.309387%, 87.449646%)" d="M 174.484375 235.484375 C 175.148438 234.6875 175.703125 233.796875 176.117188 232.84375 C 174.363281 232.542969 172.527344 232.757812 170.886719 233.453125 C 171.558594 231.90625 172.246094 230.28125 172.109375 228.601562 C 170.675781 229.652344 169.238281 230.703125 167.800781 231.757812 C 167.621094 231.886719 167.417969 232.023438 167.195312 231.996094 C 166.878906 231.957031 166.710938 231.609375 166.585938 231.3125 C 165.996094 229.917969 165.089844 228.652344 163.957031 227.644531 C 164.207031 227.871094 163.488281 232.660156 163.179688 233.003906 C 162.136719 234.15625 160.191406 233.378906 158.765625 233.195312 C 159.597656 234.132812 163.128906 236.539062 162.375 237.808594 C 161.671875 238.992188 160.574219 240.128906 160.726562 241.492188 C 162.339844 240.773438 163.921875 239.992188 165.480469 239.15625 C 165.371094 240.605469 165.46875 242.074219 165.769531 243.503906 C 165.859375 243.914062 166.148438 244.4375 166.550781 244.300781 C 166.730469 244.242188 166.839844 244.0625 166.929688 243.898438 C 167.527344 242.832031 168.125 241.765625 168.722656 240.699219 C 168.859375 240.457031 169.003906 240.207031 169.246094 240.074219 C 169.578125 239.882812 169.992188 239.976562 170.367188 240.070312 C 171.804688 240.441406 173.242188 240.808594 174.675781 241.179688 C 174.027344 239.84375 173.378906 238.507812 172.730469 237.171875 C 173.371094 236.679688 173.964844 236.109375 174.484375 235.484375 " fill-opacity="1" fill-rule="nonzero"/><path fill="rgb(81.568909%, 84.309387%, 87.449646%)" d="M 137.957031 168.015625 C 138.621094 167.21875 139.175781 166.328125 139.59375 165.382812 C 137.839844 165.074219 136 165.289062 134.359375 165.988281 C 135.03125 164.441406 135.71875 162.816406 135.582031 161.136719 C 134.148438 162.1875 132.710938 163.238281 131.273438 164.289062 C 131.09375 164.421875 130.890625 164.558594 130.667969 164.53125 C 130.351562 164.488281 130.183594 164.144531 130.058594 163.847656 C 129.46875 162.449219 128.5625 161.1875 127.429688 160.175781 C 127.679688 160.40625 126.960938 165.191406 126.652344 165.539062 C 125.609375 166.691406 123.664062 165.910156 122.238281 165.726562 C 123.070312 166.664062 126.601562 169.070312 125.847656 170.34375 C 125.144531 171.527344 124.046875 172.660156 124.199219 174.027344 C 125.8125 173.304688 127.394531 172.527344 128.953125 171.6875 C 128.84375 173.144531 128.941406 174.609375 129.242188 176.035156 C 129.332031 176.449219 129.621094 176.96875 130.023438 176.835938 C 130.203125 176.773438 130.3125 176.597656 130.402344 176.433594 C 131 175.367188 131.597656 174.300781 132.195312 173.230469 C 132.332031 172.996094 132.476562 172.742188 132.71875 172.605469 C 133.050781 172.417969 133.464844 172.507812 133.839844 172.605469 C 135.277344 172.972656 136.714844 173.34375 138.148438 173.710938 C 137.5 172.378906 136.851562 171.042969 136.203125 169.707031 C 136.84375 169.210938 137.4375 168.640625 137.957031 168.015625 " fill-opacity="1" fill-rule="nonzero"/><path fill="rgb(81.568909%, 84.309387%, 87.449646%)" d="M 267.214844 226.527344 C 271.074219 226.527344 271.085938 220.53125 267.214844 220.53125 C 263.355469 220.53125 263.34375 226.527344 267.214844 226.527344 " fill-opacity="1" fill-rule="nonzero"/><path fill="rgb(81.568909%, 84.309387%, 87.449646%)" d="M 161.101562 270.722656 C 164.964844 270.722656 164.972656 264.726562 161.101562 264.726562 C 157.242188 264.726562 157.234375 270.722656 161.101562 270.722656 " fill-opacity="1" fill-rule="nonzero"/><path fill="rgb(81.568909%, 84.309387%, 87.449646%)" d="M 161.101562 117.230469 C 164.964844 117.230469 164.972656 111.234375 161.101562 111.234375 C 157.242188 111.234375 157.234375 117.230469 161.101562 117.230469 " fill-opacity="1" fill-rule="nonzero"/><path fill="rgb(81.568909%, 84.309387%, 87.449646%)" d="M 204.621094 157.886719 C 208.480469 157.886719 208.488281 151.890625 204.621094 151.890625 C 200.757812 151.890625 200.75 157.886719 204.621094 157.886719 " fill-opacity="1" fill-rule="nonzero"/><path fill="rgb(81.568909%, 84.309387%, 87.449646%)" d="M 127.289062 248.367188 C 131.148438 248.367188 131.15625 242.375 127.289062 242.375 C 123.425781 242.375 123.417969 248.367188 127.289062 248.367188 " fill-opacity="1" fill-rule="nonzero"/><path fill="rgb(81.568909%, 84.309387%, 87.449646%)" d="M 206.96875 211.691406 C 210.828125 211.691406 210.835938 205.695312 206.96875 205.695312 C 203.105469 205.695312 203.097656 211.691406 206.96875 211.691406 " fill-opacity="1" fill-rule="nonzero"/><path fill="rgb(81.568909%, 84.309387%, 87.449646%)" d="M 198.078125 260.410156 C 201.941406 260.410156 201.945312 254.417969 198.078125 254.417969 C 194.214844 254.417969 194.210938 260.410156 198.078125 260.410156 " fill-opacity="1" fill-rule="nonzero"/><path fill="rgb(76.469421%, 58.039856%, 52.159119%)" d="M 109.375 162.230469 C 103.84375 173.0625 101.058594 185.675781 102.492188 197.816406 C 102.871094 201.03125 107.925781 201.148438 107.632812 197.816406 C 106.625 186.292969 108.175781 174.96875 113.230469 164.480469 C 114.460938 161.921875 110.6875 159.660156 109.375 162.230469 " fill-opacity="1" fill-rule="nonzero"/><path fill="rgb(76.469421%, 58.039856%, 52.159119%)" d="M 278.136719 207.578125 C 277.554688 224.113281 271.617188 239.898438 261.644531 253.058594 C 259.453125 255.949219 264.394531 258.851562 266.539062 255.917969 C 276.734375 241.996094 282.101562 224.796875 282.144531 207.578125 C 282.148438 204.996094 278.226562 205.007812 278.136719 207.578125 " fill-opacity="1" fill-rule="nonzero"/><path fill="rgb(76.469421%, 58.039856%, 52.159119%)" d="M 118.804688 149.910156 C 119.195312 149.527344 119.589844 149.144531 119.976562 148.765625 C 120.421875 148.335938 120.902344 147.925781 121.234375 147.398438 C 122.09375 146.039062 120.382812 144.332031 119.019531 145.183594 C 118.492188 145.519531 118.082031 145.996094 117.648438 146.441406 C 117.269531 146.832031 116.886719 147.222656 116.507812 147.613281 C 115.914062 148.21875 115.851562 149.3125 116.507812 149.910156 C 117.164062 150.511719 118.15625 150.542969 118.804688 149.910156 " fill-opacity="1" fill-rule="nonzero"/><path fill="rgb(76.469421%, 58.039856%, 52.159119%)" d="M 128.804688 137.261719 C 130.9375 134.5 133.378906 131.976562 136.054688 129.734375 C 137.375 128.628906 138.757812 127.601562 140.199219 126.65625 C 141.636719 125.710938 143.234375 125.152344 144.476562 123.933594 C 145.757812 122.6875 144.433594 120.644531 142.785156 121.03125 C 140.992188 121.449219 139.59375 122.695312 138.101562 123.726562 C 136.523438 124.8125 135.003906 125.984375 133.550781 127.234375 C 130.671875 129.710938 128.144531 132.515625 125.867188 135.546875 C 124.546875 137.304688 127.492188 138.964844 128.804688 137.261719 " fill-opacity="1" fill-rule="nonzero"/><path fill="rgb(76.469421%, 58.039856%, 52.159119%)" d="M 255.046875 138.460938 C 255.957031 139.972656 256.871094 141.484375 257.785156 142.996094 C 258.503906 144.183594 259.113281 145.832031 260.59375 146.152344 C 261.050781 146.25 261.53125 146.015625 261.664062 145.546875 C 262.066406 144.066406 260.917969 142.796875 260.179688 141.597656 C 259.25 140.09375 258.320312 138.59375 257.394531 137.085938 C 256.476562 135.601562 254.136719 136.953125 255.046875 138.460938 " fill-opacity="1" fill-rule="nonzero"/><path fill="rgb(76.469421%, 58.039856%, 52.159119%)" d="M 267.183594 160.59375 C 272.550781 169.824219 275.46875 179.824219 276.332031 190.429688 C 276.546875 193.027344 280.632812 193.050781 280.417969 190.429688 C 279.507812 179.351562 275.730469 168.441406 269.925781 158.992188 C 268.859375 157.257812 266.152344 158.820312 267.183594 160.59375 " fill-opacity="1" fill-rule="nonzero"/><path fill="rgb(81.568909%, 84.309387%, 87.449646%)" d="M 254.019531 165.890625 C 254.410156 166.019531 254.808594 166.183594 255.214844 166.257812 C 255.941406 166.394531 256.644531 166.121094 256.945312 165.410156 C 257.210938 164.777344 257.003906 163.90625 256.34375 163.582031 C 255.855469 163.339844 255.328125 163.183594 254.8125 163.011719 C 254.070312 162.765625 253.148438 163.296875 252.976562 164.050781 C 252.789062 164.878906 253.222656 165.625 254.019531 165.890625 " fill-opacity="1" fill-rule="nonzero"/><path fill="rgb(76.469421%, 58.039856%, 52.159119%)" d="M 105.207031 207.578125 C 105.554688 212.574219 106.472656 217.515625 108.058594 222.273438 C 108.820312 224.546875 109.722656 226.777344 110.75 228.941406 C 111.566406 230.671875 112.34375 233.441406 114.582031 233.53125 C 114.933594 233.546875 115.335938 233.324219 115.5 233.003906 C 116.429688 231.164062 114.835938 229.480469 114.011719 227.859375 C 112.953125 225.765625 112.035156 223.605469 111.265625 221.390625 C 109.703125 216.925781 108.71875 212.289062 108.324219 207.578125 C 108.160156 205.597656 105.066406 205.566406 105.207031 207.578125 " fill-opacity="1" fill-rule="nonzero"/><path fill="rgb(81.568909%, 84.309387%, 87.449646%)" d="M 186.359375 194.996094 C 185.972656 196.550781 185.59375 198.101562 185.214844 199.65625 C 184.867188 201.070312 184.320312 202.519531 184.382812 203.980469 C 184.421875 204.980469 185.792969 205.433594 186.316406 204.503906 C 187.035156 203.238281 187.226562 201.710938 187.566406 200.304688 C 187.9375 198.75 188.308594 197.191406 188.679688 195.636719 C 189.042969 194.128906 186.726562 193.488281 186.359375 194.996094 " fill-opacity="1" fill-rule="nonzero"/><path fill="rgb(81.568909%, 84.309387%, 87.449646%)" d="M 175.648438 191.992188 C 173.640625 194.472656 171.632812 196.957031 169.625 199.4375 C 168.660156 200.628906 170.34375 202.34375 171.328125 201.140625 C 173.347656 198.667969 175.371094 196.199219 177.390625 193.726562 C 178.382812 192.511719 176.644531 190.765625 175.648438 191.992188 " fill-opacity="1" fill-rule="nonzero"/><path fill="rgb(81.568909%, 84.309387%, 87.449646%)" d="M 164.765625 187.261719 C 163.527344 188.269531 162.28125 189.273438 161.039062 190.277344 C 159.824219 191.265625 158.410156 192.191406 157.378906 193.363281 C 156.507812 194.355469 157.613281 195.984375 158.839844 195.253906 C 160.199219 194.449219 161.375 193.238281 162.578125 192.214844 C 163.867188 191.121094 165.148438 190.027344 166.4375 188.933594 C 167.605469 187.9375 165.929688 186.320312 164.765625 187.261719 " fill-opacity="1" fill-rule="nonzero"/><path fill="rgb(81.568909%, 84.309387%, 87.449646%)" d="M 159.835938 177.421875 C 157.628906 179.359375 154.9375 180.4375 152.003906 180.578125 C 150.492188 180.652344 150.484375 183.011719 152.003906 182.941406 C 155.585938 182.765625 158.8125 181.453125 161.507812 179.09375 C 162.652344 178.085938 160.976562 176.421875 159.835938 177.421875 " fill-opacity="1" fill-rule="nonzero"/><path fill="rgb(81.568909%, 84.309387%, 87.449646%)" d="M 195.160156 196.835938 C 195.984375 199.285156 196.804688 201.734375 197.628906 204.183594 C 198.0625 205.472656 200.109375 204.925781 199.679688 203.621094 C 198.875 201.167969 198.0625 198.710938 197.257812 196.257812 C 196.824219 194.933594 194.714844 195.503906 195.160156 196.835938 " fill-opacity="1" fill-rule="nonzero"/><path fill="rgb(81.568909%, 84.309387%, 87.449646%)" d="M 205.300781 194.128906 C 205.257812 195.710938 205.59375 197.238281 206.308594 198.652344 C 206.898438 199.8125 207.882812 201.328125 209.347656 201.273438 C 209.804688 201.257812 210.019531 200.882812 209.960938 200.464844 C 209.8125 199.386719 208.851562 198.613281 208.359375 197.679688 C 207.769531 196.578125 207.535156 195.375 207.570312 194.128906 C 207.609375 192.671875 205.34375 192.671875 205.300781 194.128906 " fill-opacity="1" fill-rule="nonzero"/><path fill="rgb(81.568909%, 84.309387%, 87.449646%)" d="M 215.085938 191.148438 C 216.726562 192.777344 218.367188 194.40625 220.007812 196.035156 C 220.917969 196.933594 222.316406 195.535156 221.414062 194.632812 C 219.785156 192.992188 218.152344 191.351562 216.523438 189.710938 C 215.601562 188.785156 214.15625 190.222656 215.085938 191.148438 " fill-opacity="1" fill-rule="nonzero"/><path fill="rgb(81.568909%, 84.309387%, 87.449646%)" d="M 222.433594 181.351562 C 224.488281 183.753906 227.707031 184.714844 230.757812 183.921875 C 231.964844 183.609375 231.453125 181.75 230.242188 182.054688 C 227.816406 182.667969 225.441406 181.84375 223.835938 179.949219 C 223.011719 178.976562 221.601562 180.382812 222.433594 181.351562 " fill-opacity="1" fill-rule="nonzero"/><path fill="rgb(81.568909%, 84.309387%, 87.449646%)" d="M 228.714844 171.402344 C 230.007812 172.453125 231.527344 173.039062 233.210938 173 C 234.613281 172.964844 236.507812 172.570312 237.125 171.148438 C 237.277344 170.792969 237.027344 170.464844 236.640625 170.523438 C 235.523438 170.699219 234.578125 171.347656 233.414062 171.402344 C 232.121094 171.464844 230.878906 171.066406 229.886719 170.238281 C 229.070312 169.554688 227.894531 170.738281 228.714844 171.402344 " fill-opacity="1" fill-rule="nonzero"/><path fill="rgb(81.568909%, 84.309387%, 87.449646%)" d="M 230.816406 160.28125 C 232.953125 159.125 235.308594 158.792969 237.683594 159.3125 C 238.542969 159.503906 238.910156 158.1875 238.046875 157.992188 C 235.304688 157.375 232.582031 157.738281 230.101562 159.058594 C 229.292969 159.484375 230.011719 160.714844 230.816406 160.28125 " fill-opacity="1" fill-rule="nonzero"/><path fill="rgb(81.568909%, 84.309387%, 87.449646%)" d="M 229.710938 148.238281 C 232.570312 146.597656 235.429688 144.960938 238.289062 143.320312 C 239.160156 142.820312 238.375 141.476562 237.5 141.972656 C 234.632812 143.597656 231.769531 145.226562 228.898438 146.851562 C 228 147.359375 228.808594 148.753906 229.710938 148.238281 " fill-opacity="1" fill-rule="nonzero"/><path fill="rgb(81.568909%, 84.309387%, 87.449646%)" d="M 223.800781 132.238281 C 224.925781 131.089844 226.046875 129.941406 227.171875 128.796875 C 228.089844 127.855469 229.441406 126.898438 229.867188 125.632812 C 230.011719 125.21875 229.558594 124.765625 229.140625 124.90625 C 227.875 125.335938 226.917969 126.683594 225.976562 127.605469 C 224.828125 128.722656 223.679688 129.847656 222.53125 130.96875 C 221.703125 131.777344 222.992188 133.066406 223.800781 132.238281 " fill-opacity="1" fill-rule="nonzero"/><path fill="rgb(81.568909%, 84.309387%, 87.449646%)" d="M 214.128906 122.238281 C 215.304688 119.765625 216.480469 117.289062 217.660156 114.808594 C 218.035156 114.019531 216.871094 113.324219 216.476562 114.117188 C 215.257812 116.570312 214.042969 119.023438 212.824219 121.480469 C 212.390625 122.351562 213.714844 123.117188 214.128906 122.238281 " fill-opacity="1" fill-rule="nonzero"/><path fill="rgb(81.568909%, 84.309387%, 87.449646%)" d="M 203.847656 110.496094 C 202.542969 113.816406 202.238281 117.265625 202.84375 120.769531 C 203.011719 121.757812 204.507812 121.335938 204.347656 120.355469 C 203.804688 117.125 204.1875 113.957031 205.394531 110.921875 C 205.773438 109.960938 204.21875 109.542969 203.847656 110.496094 " fill-opacity="1" fill-rule="nonzero"/><path fill="rgb(81.568909%, 84.309387%, 87.449646%)" d="M 191.644531 111.996094 C 191.648438 114.855469 191.660156 117.714844 191.667969 120.574219 C 191.671875 121.636719 193.316406 121.636719 193.320312 120.574219 C 193.328125 117.714844 193.339844 114.855469 193.34375 111.996094 C 193.347656 110.898438 191.640625 110.898438 191.644531 111.996094 " fill-opacity="1" fill-rule="nonzero"/><path fill="rgb(81.568909%, 84.309387%, 87.449646%)" d="M 177.230469 114.605469 C 177.921875 117.4375 178.363281 120.53125 179.429688 123.238281 C 179.71875 123.960938 181.007812 123.964844 180.917969 123.039062 C 180.628906 120.066406 179.609375 117.042969 178.917969 114.140625 C 178.660156 113.050781 176.964844 113.507812 177.230469 114.605469 " fill-opacity="1" fill-rule="nonzero"/><path fill="rgb(81.568909%, 84.309387%, 87.449646%)" d="M 165.074219 122.050781 C 166.25 124.125 167.425781 126.195312 168.601562 128.265625 C 169.097656 129.136719 170.445312 128.355469 169.949219 127.480469 C 168.773438 125.410156 167.597656 123.335938 166.421875 121.265625 C 165.929688 120.394531 164.582031 121.175781 165.074219 122.050781 " fill-opacity="1" fill-rule="nonzero"/><path fill="rgb(81.568909%, 84.309387%, 87.449646%)" d="M 155.15625 129.46875 C 156.535156 131.941406 159.003906 133.46875 161.816406 133.683594 C 162.757812 133.753906 162.75 132.292969 161.816406 132.21875 C 159.527344 132.03125 157.5625 130.707031 156.460938 128.710938 C 155.988281 127.859375 154.679688 128.621094 155.15625 129.46875 " fill-opacity="1" fill-rule="nonzero"/><path fill="rgb(81.568909%, 84.309387%, 87.449646%)" d="M 149.339844 137.28125 C 151.796875 138.089844 154.253906 138.898438 156.707031 139.707031 C 157.664062 140.023438 158.070312 138.523438 157.121094 138.207031 C 154.671875 137.378906 152.21875 136.558594 149.769531 135.730469 C 148.785156 135.402344 148.359375 136.957031 149.339844 137.28125 " fill-opacity="1" fill-rule="nonzero"/><path fill="rgb(81.568909%, 84.309387%, 87.449646%)" d="M 146.859375 146.046875 C 149.3125 146.453125 151.765625 146.863281 154.222656 147.269531 C 155.171875 147.429688 155.582031 145.980469 154.621094 145.8125 C 152.171875 145.390625 149.722656 144.96875 147.269531 144.546875 C 146.289062 144.375 145.867188 145.882812 146.859375 146.046875 " fill-opacity="1" fill-rule="nonzero"/><path fill="rgb(81.568909%, 84.309387%, 87.449646%)" d="M 143.417969 155.714844 C 146.257812 155.699219 149.394531 156.042969 152.183594 155.527344 C 152.8125 155.40625 152.8125 154.367188 152.183594 154.25 C 149.394531 153.734375 146.253906 154.078125 143.417969 154.0625 C 142.355469 154.054688 142.355469 155.722656 143.417969 155.714844 " fill-opacity="1" fill-rule="nonzero"/><path fill="rgb(81.568909%, 84.309387%, 87.449646%)" d="M 144.863281 164.265625 C 147.738281 163.492188 150.613281 162.71875 153.488281 161.949219 C 154.398438 161.707031 154.011719 160.300781 153.101562 160.539062 C 150.222656 161.292969 147.339844 162.050781 144.464844 162.804688 C 143.523438 163.050781 143.921875 164.515625 144.863281 164.265625 " fill-opacity="1" fill-rule="nonzero"/><path fill="rgb(81.568909%, 84.309387%, 87.449646%)" d="M 148.585938 172.957031 C 150.636719 172.152344 152.6875 171.34375 154.738281 170.539062 C 155.742188 170.144531 155.308594 168.503906 154.285156 168.902344 C 152.230469 169.691406 150.175781 170.484375 148.121094 171.273438 C 147.082031 171.675781 147.539062 173.367188 148.585938 172.957031 " fill-opacity="1" fill-rule="nonzero"/><path fill="rgb(1.568604%, 2.349854%, 2.349854%)" d="M 284.683594 270.222656 C 289.96875 278.171875 295.855469 285.699219 302.296875 292.746094 C 304.28125 294.917969 307.515625 291.683594 305.527344 289.519531 C 299.320312 282.769531 293.660156 275.578125 288.5625 267.957031 C 286.964844 265.570312 283.078125 267.808594 284.683594 270.222656 " fill-opacity="1" fill-rule="nonzero"/><path fill="rgb(1.568604%, 2.349854%, 2.349854%)" d="M 306.171875 242.253906 C 311.085938 243.117188 315.96875 244.164062 320.800781 245.425781 C 323.152344 246.039062 325.496094 246.703125 327.820312 247.410156 C 330.089844 248.101562 332.464844 249.242188 334.835938 249.414062 C 336.371094 249.523438 336.6875 247.4375 335.570312 246.699219 C 333.609375 245.414062 330.917969 244.949219 328.679688 244.292969 C 326.347656 243.609375 324 242.972656 321.636719 242.386719 C 316.792969 241.179688 311.898438 240.179688 306.96875 239.371094 C 305.089844 239.058594 304.265625 241.917969 306.171875 242.253906 " fill-opacity="1" fill-rule="nonzero"/><path fill="rgb(1.568604%, 2.349854%, 2.349854%)" d="M 317.0625 195.023438 C 322.117188 196.097656 327.242188 196.828125 332.398438 197.164062 C 334.957031 197.335938 337.519531 197.40625 340.085938 197.378906 C 342.167969 197.355469 345.144531 197.832031 346.597656 196.019531 C 346.953125 195.578125 347.046875 194.953125 346.597656 194.515625 C 344.980469 192.9375 342.535156 193.578125 340.46875 193.609375 C 338.035156 193.652344 335.597656 193.601562 333.164062 193.46875 C 328.078125 193.191406 323.035156 192.5 318.046875 191.460938 C 315.722656 190.976562 314.730469 194.53125 317.0625 195.023438 " fill-opacity="1" fill-rule="nonzero"/><path fill="rgb(1.568604%, 2.349854%, 2.349854%)" d="M 308.703125 144.195312 C 316.472656 140.914062 324.238281 137.632812 332.003906 134.347656 C 333.957031 133.523438 332.273438 130.671875 330.335938 131.496094 C 322.582031 134.800781 314.828125 138.105469 307.078125 141.410156 C 305.167969 142.222656 306.8125 144.992188 308.703125 144.195312 " fill-opacity="1" fill-rule="nonzero"/><path fill="rgb(1.568604%, 2.349854%, 2.349854%)" d="M 283.230469 102.160156 C 286.664062 99.085938 290.097656 96.015625 293.53125 92.9375 C 295.199219 91.445312 296.867188 89.953125 298.535156 88.460938 C 299.921875 87.21875 302.175781 85.9375 302.449219 83.988281 C 302.519531 83.480469 302.246094 82.929688 301.652344 82.941406 C 299.777344 82.984375 298.433594 84.75 297.117188 85.929688 C 295.351562 87.511719 293.585938 89.09375 291.820312 90.671875 C 288.289062 93.832031 284.757812 96.996094 281.226562 100.15625 C 279.863281 101.378906 281.875 103.375 283.230469 102.160156 " fill-opacity="1" fill-rule="nonzero"/><path fill="rgb(1.568604%, 2.349854%, 2.349854%)" d="M 239.078125 73.472656 C 242.777344 66.125 246.472656 58.78125 250.167969 51.433594 C 250.917969 49.941406 248.691406 48.628906 247.925781 50.121094 C 244.160156 57.429688 240.394531 64.738281 236.632812 72.046875 C 235.796875 73.664062 238.261719 75.101562 239.078125 73.472656 " fill-opacity="1" fill-rule="nonzero"/><path fill="rgb(1.568604%, 2.349854%, 2.349854%)" d="M 189.664062 39.695312 C 190.511719 49.898438 191.359375 60.109375 192.207031 70.3125 C 192.382812 72.421875 195.710938 72.425781 195.515625 70.3125 C 194.5625 60.109375 193.609375 49.898438 192.65625 39.695312 C 192.480469 37.800781 189.503906 37.769531 189.664062 39.695312 " fill-opacity="1" fill-rule="nonzero"/><path fill="rgb(1.568604%, 2.349854%, 2.349854%)" d="M 144.679688 45.773438 C 145.824219 55.8125 147.671875 66.324219 151.503906 75.71875 C 152.246094 77.539062 155.125 76.882812 154.542969 74.882812 C 153.15625 70.140625 151.566406 65.488281 150.421875 60.671875 C 149.253906 55.761719 148.367188 50.785156 147.753906 45.773438 C 147.519531 43.84375 144.457031 43.808594 144.679688 45.773438 " fill-opacity="1" fill-rule="nonzero"/><path fill="rgb(1.568604%, 2.349854%, 2.349854%)" d="M 101.769531 58.734375 C 104.667969 63.234375 107.449219 67.808594 110.09375 72.460938 C 111.355469 74.675781 112.585938 76.910156 113.785156 79.160156 C 115.019531 81.472656 116.023438 84.140625 117.773438 86.113281 C 118.828125 87.300781 120.574219 86.023438 120.273438 84.660156 C 119.742188 82.210938 118.160156 79.921875 116.972656 77.742188 C 115.6875 75.390625 114.375 73.0625 113.027344 70.75 C 110.332031 66.121094 107.5 61.578125 104.558594 57.105469 C 103.421875 55.382812 100.636719 56.976562 101.769531 58.734375 " fill-opacity="1" fill-rule="nonzero"/><path fill="rgb(1.568604%, 2.349854%, 2.349854%)" d="M 61.597656 85.90625 C 70.0625 95.824219 78.523438 105.738281 86.988281 115.65625 C 88.335938 117.234375 90.632812 114.941406 89.273438 113.375 C 80.734375 103.53125 72.195312 93.691406 63.65625 83.847656 C 62.421875 82.429688 60.386719 84.492188 61.597656 85.90625 " fill-opacity="1" fill-rule="nonzero"/><path fill="rgb(1.568604%, 2.349854%, 2.349854%)" d="M 40.75 134.253906 C 46.308594 137.1875 51.867188 140.125 57.429688 143.054688 C 60.148438 144.492188 62.871094 145.929688 65.589844 147.363281 C 66.945312 148.078125 70.449219 150.714844 71.6875 148.496094 C 72.90625 146.308594 69.136719 144.980469 67.839844 144.3125 C 65.105469 142.894531 62.375 141.480469 59.644531 140.0625 C 53.941406 137.109375 48.238281 134.152344 42.539062 131.199219 C 40.519531 130.148438 38.726562 133.1875 40.75 134.253906 " fill-opacity="1" fill-rule="nonzero"/><path fill="rgb(1.568604%, 2.349854%, 2.349854%)" d="M 31.261719 184.953125 C 36.417969 186.242188 41.679688 187.09375 46.988281 187.464844 C 49.621094 187.644531 52.261719 187.707031 54.902344 187.648438 C 57.398438 187.59375 60.503906 187.800781 62.851562 186.894531 C 64.117188 186.40625 64.558594 184.128906 62.851562 183.859375 C 60.511719 183.492188 58.023438 184.015625 55.65625 184.089844 C 53.015625 184.171875 50.375 184.132812 47.738281 183.972656 C 42.488281 183.652344 37.304688 182.8125 32.203125 181.542969 C 29.992188 180.988281 29.046875 184.402344 31.261719 184.953125 " fill-opacity="1" fill-rule="nonzero"/><path fill="rgb(1.568604%, 2.349854%, 2.349854%)" d="M 40.820312 238.71875 C 50.320312 237.082031 59.46875 233.96875 68.023438 229.535156 C 69.867188 228.574219 68.238281 225.792969 66.390625 226.746094 C 58.082031 231.058594 49.1875 234.015625 39.960938 235.605469 C 37.917969 235.960938 38.785156 239.070312 40.820312 238.71875 " fill-opacity="1" fill-rule="nonzero"/><path fill="rgb(1.568604%, 2.349854%, 2.349854%)" d="M 74.183594 294.546875 C 76.878906 290.972656 79.75 287.539062 82.792969 284.257812 C 85.789062 281.03125 89.125 278.171875 92.175781 275.015625 C 92.726562 274.445312 92.996094 273.339844 92.480469 272.644531 C 92.386719 272.515625 92.289062 272.375 92.175781 272.25 C 91.414062 271.394531 90.207031 271.636719 89.414062 272.25 C 85.800781 275.0625 82.597656 278.652344 79.542969 282.042969 C 76.492188 285.429688 73.632812 288.976562 70.921875 292.640625 C 69.46875 294.601562 72.742188 296.460938 74.183594 294.546875 " fill-opacity="1" fill-rule="nonzero"/><path fill="rgb(1.568604%, 2.349854%, 2.349854%)" d="M 296.941406 257.695312 C 298.839844 259.265625 300.738281 260.835938 302.632812 262.410156 C 303.097656 262.796875 303.703125 262.933594 304.253906 262.617188 C 304.605469 262.414062 304.742188 262.1875 304.871094 261.816406 C 305.011719 261.40625 304.867188 260.800781 304.523438 260.515625 C 302.628906 258.945312 300.730469 257.375 298.835938 255.800781 C 297.519531 254.710938 295.613281 256.59375 296.941406 257.695312 " fill-opacity="1" fill-rule="nonzero"/><path fill="rgb(1.568604%, 2.349854%, 2.349854%)" d="M 311.363281 269.65625 C 312.804688 271.644531 314.644531 273.0625 316.9375 273.949219 C 317.710938 274.246094 318.625 273.617188 318.828125 272.875 C 319.070312 271.992188 318.523438 271.304688 317.753906 270.984375 C 316.304688 270.382812 315.035156 269.316406 314.152344 268.027344 C 312.976562 266.316406 310.15625 267.980469 311.363281 269.65625 " fill-opacity="1" fill-rule="nonzero"/><path fill="rgb(1.568604%, 2.349854%, 2.349854%)" d="M 330.175781 285.167969 C 331.246094 285.890625 332.316406 286.605469 333.382812 287.328125 C 334.109375 287.8125 335.175781 287.464844 335.597656 286.75 C 336.066406 285.941406 335.730469 285.042969 335.015625 284.539062 C 333.960938 283.800781 332.902344 283.058594 331.84375 282.3125 C 331.117188 281.800781 330.007812 282.183594 329.582031 282.910156 C 329.109375 283.71875 329.433594 284.667969 330.175781 285.167969 " fill-opacity="1" fill-rule="nonzero"/><path fill="rgb(1.568604%, 2.349854%, 2.349854%)" d="M 315.179688 217.621094 C 317.691406 217.628906 320.207031 217.640625 322.722656 217.648438 C 324.824219 217.652344 327.269531 218.101562 329.113281 216.914062 C 329.671875 216.554688 329.671875 215.777344 329.113281 215.417969 C 327.261719 214.230469 324.828125 214.679688 322.722656 214.6875 C 320.207031 214.695312 317.691406 214.703125 315.179688 214.710938 C 313.304688 214.71875 313.300781 217.617188 315.179688 217.621094 " fill-opacity="1" fill-rule="nonzero"/><path fill="rgb(1.568604%, 2.349854%, 2.349854%)" d="M 339.414062 218.4375 C 340.921875 218.695312 342.429688 218.957031 343.941406 219.214844 C 345.183594 219.433594 346.292969 219.78125 347.453125 219.148438 C 347.875 218.917969 347.882812 218.367188 347.59375 218.035156 C 346.738281 217.0625 345.527344 217.015625 344.3125 216.789062 C 342.902344 216.53125 341.492188 216.269531 340.082031 216.007812 C 338.492188 215.714844 337.820312 218.160156 339.414062 218.4375 " fill-opacity="1" fill-rule="nonzero"/><g clip-path="url(#id2)"><path fill="rgb(1.568604%, 2.349854%, 2.349854%)" d="M 358.921875 221.335938 C 359.621094 221.558594 360.324219 221.789062 361.027344 222.015625 C 361.753906 222.25 362.449219 222.601562 363.21875 222.375 C 363.8125 222.195312 364.277344 221.386719 363.851562 220.8125 C 363.324219 220.101562 362.625 219.953125 361.816406 219.671875 C 361.074219 219.417969 360.332031 219.164062 359.589844 218.90625 C 358.058594 218.375 357.375 220.835938 358.921875 221.335938 " fill-opacity="1" fill-rule="nonzero"/></g><path fill="rgb(1.568604%, 2.349854%, 2.349854%)" d="M 316.734375 167.171875 C 318.382812 166.914062 320.03125 166.65625 321.679688 166.398438 C 323.035156 166.1875 324.46875 166.222656 325.472656 165.203125 C 325.761719 164.910156 325.726562 164.355469 325.339844 164.15625 C 324.070312 163.496094 322.761719 163.933594 321.402344 164.148438 C 319.644531 164.421875 317.882812 164.699219 316.128906 164.972656 C 314.679688 165.199219 315.292969 167.394531 316.734375 167.171875 " fill-opacity="1" fill-rule="nonzero"/><path fill="rgb(1.568604%, 2.349854%, 2.349854%)" d="M 337.875 164.519531 C 339.3125 163.59375 340.953125 163.152344 342.664062 163.394531 C 344.199219 163.613281 344.875 161.28125 343.316406 161.039062 C 340.941406 160.671875 338.652344 161.058594 336.605469 162.347656 C 335.234375 163.210938 336.511719 165.402344 337.875 164.519531 " fill-opacity="1" fill-rule="nonzero"/><path fill="rgb(1.568604%, 2.349854%, 2.349854%)" d="M 355.023438 162.027344 C 356.601562 160.984375 358.375 160.617188 360.226562 161.046875 C 361.753906 161.398438 362.40625 159.070312 360.878906 158.695312 C 358.410156 158.089844 355.886719 158.480469 353.75 159.855469 C 352.390625 160.730469 353.667969 162.921875 355.023438 162.027344 " fill-opacity="1" fill-rule="nonzero"/><path fill="rgb(1.568604%, 2.349854%, 2.349854%)" d="M 302.164062 115.265625 C 303.773438 114.3125 305.378906 113.359375 306.984375 112.410156 C 308.328125 111.613281 309.8125 111.003906 310.632812 109.625 C 310.839844 109.269531 310.574219 108.785156 310.15625 108.796875 C 308.546875 108.835938 307.289062 109.832031 305.9375 110.617188 C 304.320312 111.554688 302.703125 112.492188 301.089844 113.429688 C 299.90625 114.117188 300.984375 115.964844 302.164062 115.265625 " fill-opacity="1" fill-rule="nonzero"/><path fill="rgb(1.568604%, 2.349854%, 2.349854%)" d="M 319.734375 103.0625 C 320.449219 102.347656 321.164062 101.632812 321.882812 100.917969 C 322.542969 100.257812 323.328125 99.601562 323.324219 98.585938 C 323.320312 98.195312 323 97.886719 322.613281 97.878906 C 321.601562 97.851562 320.921875 98.644531 320.25 99.289062 C 319.519531 99.988281 318.792969 100.691406 318.0625 101.390625 C 316.964844 102.445312 318.652344 104.136719 319.734375 103.0625 " fill-opacity="1" fill-rule="nonzero"/><path fill="rgb(1.568604%, 2.349854%, 2.349854%)" d="M 332.953125 93.390625 C 333.703125 93 334.457031 92.605469 335.210938 92.214844 C 335.816406 91.902344 335.996094 91.058594 335.664062 90.488281 C 335.296875 89.863281 334.550781 89.742188 333.9375 90.039062 C 333.171875 90.40625 332.40625 90.777344 331.640625 91.148438 C 331.011719 91.453125 330.839844 92.351562 331.175781 92.925781 C 331.546875 93.554688 332.328125 93.714844 332.953125 93.390625 " fill-opacity="1" fill-rule="nonzero"/><path fill="rgb(1.568604%, 2.349854%, 2.349854%)" d="M 309.609375 77.421875 C 310.828125 76.59375 312.046875 75.761719 313.265625 74.933594 C 314.472656 74.117188 313.355469 72.15625 312.113281 72.964844 C 310.882812 73.773438 309.648438 74.578125 308.414062 75.382812 C 307.140625 76.210938 308.347656 78.273438 309.609375 77.421875 " fill-opacity="1" fill-rule="nonzero"/><path fill="rgb(1.568604%, 2.349854%, 2.349854%)" d="M 340.941406 129.339844 C 342.222656 129.292969 343.746094 129.453125 344.925781 128.925781 C 345.683594 128.585938 345.683594 127.265625 344.925781 126.925781 C 343.746094 126.398438 342.222656 126.5625 340.941406 126.507812 C 339.121094 126.441406 339.113281 129.414062 340.941406 129.339844 " fill-opacity="1" fill-rule="nonzero"/><path fill="rgb(1.568604%, 2.349854%, 2.349854%)" d="M 345.339844 257.179688 C 346.042969 257.40625 346.746094 257.632812 347.449219 257.859375 C 348.234375 258.109375 348.96875 258.46875 349.804688 258.21875 C 350.578125 257.984375 351.179688 256.9375 350.628906 256.195312 C 350.042969 255.40625 349.300781 255.222656 348.402344 254.914062 C 347.664062 254.65625 346.917969 254.398438 346.179688 254.140625 C 344.265625 253.480469 343.410156 256.554688 345.339844 257.179688 " fill-opacity="1" fill-rule="nonzero"/><path fill="rgb(1.568604%, 2.349854%, 2.349854%)" d="M 312.226562 302.488281 C 313.417969 302.855469 314.792969 303.503906 316.050781 303.523438 C 317.519531 303.542969 317.78125 301.714844 316.746094 300.960938 C 316.214844 300.574219 315.488281 300.40625 314.871094 300.183594 C 314.261719 299.964844 313.652344 299.746094 313.042969 299.527344 C 311.191406 298.859375 310.328125 301.898438 312.226562 302.488281 " fill-opacity="1" fill-rule="nonzero"/><path fill="rgb(1.568604%, 2.349854%, 2.349854%)" d="M 260.550781 83.152344 C 262.335938 81.5 264.117188 79.855469 265.898438 78.210938 C 267.332031 76.890625 269.230469 75.644531 269.980469 73.8125 C 270.132812 73.441406 269.695312 73.078125 269.351562 73.183594 C 267.46875 73.75 266.003906 75.601562 264.574219 76.886719 C 262.769531 78.507812 260.964844 80.136719 259.160156 81.757812 C 258.214844 82.605469 259.621094 84.011719 260.550781 83.152344 " fill-opacity="1" fill-rule="nonzero"/><path fill="rgb(1.568604%, 2.349854%, 2.349854%)" d="M 280.265625 63.636719 C 281.40625 62.472656 282.640625 61.355469 283.691406 60.113281 C 284.597656 59.054688 283.226562 57.679688 282.164062 58.589844 C 280.925781 59.644531 279.808594 60.878906 278.652344 62.023438 C 277.605469 63.058594 279.234375 64.6875 280.265625 63.636719 " fill-opacity="1" fill-rule="nonzero"/><path fill="rgb(1.568604%, 2.349854%, 2.349854%)" d="M 292.675781 46.621094 C 293.820312 45.449219 295.007812 44.316406 296.109375 43.105469 C 297.222656 41.875 295.515625 40.164062 294.285156 41.285156 C 293.078125 42.382812 291.945312 43.578125 290.78125 44.726562 C 289.554688 45.9375 291.464844 47.851562 292.675781 46.621094 " fill-opacity="1" fill-rule="nonzero"/><path fill="rgb(1.568604%, 2.349854%, 2.349854%)" d="M 252.292969 40.21875 C 253.503906 38.144531 255.296875 35.960938 255.605469 33.554688 C 255.660156 33.148438 255.09375 32.851562 254.777344 33.078125 C 252.804688 34.476562 251.714844 37.113281 250.457031 39.144531 C 249.738281 40.3125 251.605469 41.402344 252.292969 40.21875 " fill-opacity="1" fill-rule="nonzero"/><path fill="rgb(1.568604%, 2.349854%, 2.349854%)" d="M 217.074219 64.539062 C 217.660156 61.613281 218.246094 58.683594 218.835938 55.757812 C 219.300781 53.445312 220.535156 50.375 219.886719 48.054688 C 219.769531 47.632812 219.144531 47.398438 218.832031 47.777344 C 217.300781 49.648438 217.175781 52.847656 216.660156 55.160156 C 216.011719 58.070312 215.367188 60.984375 214.71875 63.890625 C 214.375 65.425781 216.765625 66.074219 217.074219 64.539062 " fill-opacity="1" fill-rule="nonzero"/><path fill="rgb(1.568604%, 2.349854%, 2.349854%)" d="M 221.890625 38.777344 C 222.246094 37.335938 222.601562 35.890625 222.957031 34.449219 C 223.246094 33.277344 223.820312 32.054688 223.4375 30.875 C 223.300781 30.453125 222.777344 30.296875 222.449219 30.617188 C 221.558594 31.472656 221.480469 32.792969 221.183594 33.960938 C 220.8125 35.398438 220.4375 36.835938 220.070312 38.277344 C 219.765625 39.453125 221.601562 39.960938 221.890625 38.777344 " fill-opacity="1" fill-rule="nonzero"/><path fill="rgb(1.568604%, 2.349854%, 2.349854%)" d="M 224.902344 19.722656 C 226.765625 18.484375 227.867188 16.484375 227.863281 14.238281 C 227.863281 12.921875 225.8125 12.921875 225.8125 14.238281 C 225.816406 15.742188 225.128906 17.117188 223.867188 17.957031 C 222.777344 18.679688 223.800781 20.453125 224.902344 19.722656 " fill-opacity="1" fill-rule="nonzero"/><path fill="rgb(1.568604%, 2.349854%, 2.349854%)" d="M 188.449219 28.289062 C 189.296875 27.296875 189.722656 26.101562 189.601562 24.789062 C 189.492188 23.601562 188.96875 22.070312 187.628906 21.929688 C 187.113281 21.875 186.726562 22.398438 186.699219 22.859375 C 186.660156 23.59375 187.261719 24.089844 187.363281 24.816406 C 187.453125 25.480469 187.28125 26.167969 186.835938 26.679688 C 185.867188 27.78125 187.503906 29.40625 188.449219 28.289062 " fill-opacity="1" fill-rule="nonzero"/><path fill="rgb(1.568604%, 2.349854%, 2.349854%)" d="M 63.429688 307.839844 C 64.144531 307.125 64.863281 306.414062 65.578125 305.699219 C 66.269531 305.007812 67.074219 304.332031 66.988281 303.257812 C 66.953125 302.796875 66.65625 302.511719 66.199219 302.46875 C 65.125 302.363281 64.429688 303.167969 63.726562 303.84375 C 62.996094 304.546875 62.265625 305.246094 61.535156 305.949219 C 60.292969 307.144531 62.207031 309.058594 63.429688 307.839844 " fill-opacity="1" fill-rule="nonzero"/><path fill="rgb(1.568604%, 2.349854%, 2.349854%)" d="M 77.421875 251.277344 C 73.410156 254.257812 69.402344 257.234375 65.394531 260.210938 C 63.632812 261.519531 65.320312 264.511719 67.144531 263.199219 C 71.191406 260.292969 75.238281 257.378906 79.289062 254.46875 C 81.214844 253.085938 79.324219 249.863281 77.421875 251.277344 " fill-opacity="1" fill-rule="nonzero"/><path fill="rgb(1.568604%, 2.349854%, 2.349854%)" d="M 54.285156 268.710938 C 53.078125 269.546875 51.871094 270.386719 50.664062 271.21875 C 49.542969 271.996094 48.160156 272.675781 47.4375 273.851562 C 46.738281 274.988281 47.886719 276.136719 49.039062 275.933594 C 50.3125 275.707031 51.472656 274.632812 52.53125 273.929688 C 53.6875 273.164062 54.839844 272.398438 55.996094 271.632812 C 57.808594 270.425781 56.074219 267.46875 54.285156 268.710938 " fill-opacity="1" fill-rule="nonzero"/><path fill="rgb(1.568604%, 2.349854%, 2.349854%)" d="M 38.726562 280.800781 C 37.503906 281.226562 36.28125 281.644531 35.058594 282.066406 C 34.113281 282.398438 33.488281 283.335938 33.765625 284.34375 C 34.019531 285.273438 35.089844 285.945312 36.039062 285.636719 C 37.269531 285.238281 38.5 284.839844 39.730469 284.441406 C 40.703125 284.132812 41.332031 283.132812 41.054688 282.121094 C 40.796875 281.183594 39.695312 280.46875 38.726562 280.800781 " fill-opacity="1" fill-rule="nonzero"/><path fill="rgb(1.568604%, 2.349854%, 2.349854%)" d="M 28.835938 237.699219 C 27.769531 237.976562 26.699219 238.25 25.632812 238.527344 C 24.378906 238.851562 23.472656 239.035156 22.949219 240.339844 C 22.765625 240.796875 22.96875 241.511719 23.34375 241.832031 C 24.417969 242.738281 25.371094 242.417969 26.625 242.117188 C 27.699219 241.859375 28.769531 241.597656 29.839844 241.339844 C 32.203125 240.769531 31.199219 237.089844 28.835938 237.699219 " fill-opacity="1" fill-rule="nonzero"/><path fill="rgb(1.568604%, 2.349854%, 2.349854%)" d="M 62.464844 203.859375 C 60.488281 204.054688 58.519531 204.246094 56.546875 204.4375 C 54.726562 204.617188 52.808594 204.628906 51.0625 205.199219 C 49.574219 205.683594 49.933594 207.683594 51.417969 207.824219 C 54.941406 208.164062 58.957031 207.121094 62.464844 206.695312 C 64.238281 206.476562 64.296875 203.679688 62.464844 203.859375 " fill-opacity="1" fill-rule="nonzero"/><path fill="rgb(1.568604%, 2.349854%, 2.349854%)" d="M 36.261719 206.003906 C 35.132812 206.425781 34.007812 206.84375 32.875 207.257812 C 31.960938 207.597656 31.335938 208.484375 31.613281 209.484375 C 31.867188 210.417969 32.898438 211.03125 33.839844 210.75 C 34.992188 210.410156 36.136719 210.066406 37.289062 209.722656 C 38.285156 209.425781 38.917969 208.371094 38.636719 207.351562 C 38.378906 206.414062 37.246094 205.640625 36.261719 206.003906 " fill-opacity="1" fill-rule="nonzero"/><path fill="rgb(1.568604%, 2.349854%, 2.349854%)" d="M 17.695312 206.683594 C 16.882812 206.914062 16.074219 207.144531 15.261719 207.375 C 14.441406 207.609375 13.492188 207.757812 12.808594 208.285156 C 11.316406 209.421875 11.882812 211.425781 13.726562 211.671875 C 14.589844 211.785156 15.496094 211.4375 16.328125 211.230469 C 17.144531 211.03125 17.964844 210.828125 18.78125 210.628906 C 21.335938 209.996094 20.238281 205.957031 17.695312 206.683594 " fill-opacity="1" fill-rule="nonzero"/><path fill="rgb(1.568604%, 2.349854%, 2.349854%)" d="M 21.960938 179.128906 C 21.066406 179.167969 20.167969 179.179688 19.269531 179.242188 C 18.46875 179.296875 17.375 179.625 17.375 180.625 C 17.375 181.554688 18.359375 181.933594 19.128906 182.003906 C 20.066406 182.089844 21.023438 182.082031 21.960938 182.121094 C 23.886719 182.199219 23.890625 179.050781 21.960938 179.128906 " fill-opacity="1" fill-rule="nonzero"/><path fill="rgb(1.568604%, 2.349854%, 2.349854%)" d="M 66.605469 161.71875 C 64.636719 161.304688 62.667969 160.890625 60.703125 160.480469 C 58.886719 160.101562 56.941406 159.429688 55.082031 159.535156 C 53.695312 159.613281 52.929688 161.597656 54.328125 162.320312 C 55.992188 163.179688 57.964844 163.382812 59.792969 163.777344 C 61.753906 164.203125 63.71875 164.628906 65.683594 165.054688 C 67.863281 165.527344 68.789062 162.175781 66.605469 161.71875 " fill-opacity="1" fill-rule="nonzero"/><path fill="rgb(1.568604%, 2.349854%, 2.349854%)" d="M 40.242188 157.457031 C 39.253906 156.679688 38.191406 156.121094 36.9375 155.925781 C 35.878906 155.765625 34.148438 155.652344 33.503906 156.726562 C 32.792969 157.910156 34.148438 158.535156 35.105469 158.570312 C 36.253906 158.613281 37.203125 158.8125 38.070312 159.628906 C 39.539062 161.007812 41.765625 158.652344 40.242188 157.457031 " fill-opacity="1" fill-rule="nonzero"/><path fill="rgb(1.568604%, 2.349854%, 2.349854%)" d="M 17.59375 150.472656 C 16.074219 150.128906 14.554688 149.785156 13.035156 149.445312 C 10.714844 148.921875 9.734375 152.378906 12.050781 153.019531 C 13.550781 153.4375 15.046875 153.851562 16.546875 154.265625 C 19 154.945312 20.058594 151.027344 17.59375 150.472656 " fill-opacity="1" fill-rule="nonzero"/><path fill="rgb(1.568604%, 2.349854%, 2.349854%)" d="M 27.46875 122.894531 C 28.449219 123.386719 29.433594 123.878906 30.414062 124.367188 C 31.203125 124.761719 32.167969 125.542969 33.0625 125.183594 C 33.425781 125.039062 33.65625 124.71875 33.558594 124.3125 C 33.324219 123.351562 32.226562 123.058594 31.421875 122.644531 C 30.449219 122.136719 29.476562 121.632812 28.503906 121.128906 C 27.332031 120.519531 26.292969 122.304688 27.46875 122.894531 " fill-opacity="1" fill-rule="nonzero"/><path fill="rgb(1.568604%, 2.349854%, 2.349854%)" d="M 41.984375 98.121094 C 44.027344 99.757812 46.070312 101.390625 48.117188 103.023438 C 49.292969 103.964844 50.972656 102.304688 49.789062 101.355469 C 47.742188 99.71875 45.695312 98.089844 43.652344 96.453125 C 42.476562 95.511719 40.792969 97.175781 41.984375 98.121094 " fill-opacity="1" fill-rule="nonzero"/><path fill="rgb(1.568604%, 2.349854%, 2.349854%)" d="M 57.816406 112.367188 C 59.015625 113.171875 60.265625 114.3125 61.714844 114.558594 C 62.796875 114.742188 63.832031 113.6875 63.207031 112.621094 C 62.390625 111.234375 60.777344 110.421875 59.484375 109.511719 C 58.753906 108.996094 57.644531 109.378906 57.21875 110.105469 C 56.746094 110.917969 57.070312 111.867188 57.816406 112.367188 " fill-opacity="1" fill-rule="nonzero"/><path fill="rgb(1.568604%, 2.349854%, 2.349854%)" d="M 74.996094 126.421875 C 75.496094 126.871094 76 127.324219 76.503906 127.777344 C 76.753906 128 76.992188 128.253906 77.269531 128.445312 C 77.625 128.695312 77.976562 128.734375 78.394531 128.753906 C 78.832031 128.765625 79.238281 128.359375 79.222656 127.925781 C 79.210938 127.582031 79.1875 127.226562 79.011719 126.921875 C 78.820312 126.597656 78.496094 126.316406 78.242188 126.035156 C 77.792969 125.535156 77.339844 125.03125 76.890625 124.527344 C 75.734375 123.246094 73.710938 125.265625 74.996094 126.421875 " fill-opacity="1" fill-rule="nonzero"/><path fill="rgb(1.568604%, 2.349854%, 2.349854%)" d="M 52.875 72.109375 C 53.71875 73.3125 54.5 74.652344 55.484375 75.742188 C 56.488281 76.847656 58.097656 75.441406 57.472656 74.207031 C 56.859375 73.003906 55.941406 71.878906 55.1875 70.757812 C 54.222656 69.332031 51.882812 70.703125 52.875 72.109375 " fill-opacity="1" fill-rule="nonzero"/><path fill="rgb(1.568604%, 2.349854%, 2.349854%)" d="M 71.390625 54.898438 C 73.660156 59.492188 76.46875 63.75 79.773438 67.671875 C 80.585938 68.640625 81.972656 67.242188 81.160156 66.277344 C 77.96875 62.484375 75.285156 58.347656 73.089844 53.90625 C 72.53125 52.769531 70.832031 53.765625 71.390625 54.898438 " fill-opacity="1" fill-rule="nonzero"/><path fill="rgb(1.568604%, 2.349854%, 2.349854%)" d="M 85.925781 75.058594 C 86.644531 75.769531 87.367188 76.476562 88.089844 77.1875 C 88.847656 77.933594 89.519531 78.90625 90.664062 78.9375 C 91.332031 78.957031 91.945312 78.34375 91.925781 77.679688 C 91.894531 76.539062 90.921875 75.863281 90.171875 75.105469 C 89.464844 74.386719 88.75 73.664062 88.042969 72.945312 C 86.6875 71.570312 84.550781 73.707031 85.925781 75.058594 " fill-opacity="1" fill-rule="nonzero"/><path fill="rgb(1.568604%, 2.349854%, 2.349854%)" d="M 96.835938 90.613281 C 97.695312 91.8125 98.554688 93.011719 99.410156 94.210938 C 99.878906 94.867188 100.714844 95.183594 101.460938 94.746094 C 102.125 94.355469 102.445312 93.378906 101.996094 92.703125 C 101.183594 91.476562 100.371094 90.25 99.558594 89.023438 C 99.089844 88.316406 98.164062 88.011719 97.398438 88.457031 C 96.714844 88.859375 96.339844 89.914062 96.835938 90.613281 " fill-opacity="1" fill-rule="nonzero"/><path fill="rgb(1.568604%, 2.349854%, 2.349854%)" d="M 93.222656 41.566406 C 94.054688 43.191406 94.882812 44.820312 95.710938 46.449219 C 96.449219 47.898438 98.597656 46.625 97.886719 45.179688 C 97.078125 43.539062 96.277344 41.894531 95.464844 40.257812 C 94.734375 38.761719 92.460938 40.074219 93.222656 41.566406 " fill-opacity="1" fill-rule="nonzero"/><path fill="rgb(1.568604%, 2.349854%, 2.349854%)" d="M 120.230469 37.539062 C 120.679688 39.078125 121.125 40.617188 121.570312 42.152344 C 121.976562 43.550781 122.253906 45.03125 122.96875 46.300781 C 123.4375 47.132812 124.847656 46.789062 124.804688 45.804688 C 124.742188 44.351562 124.199219 42.9375 123.808594 41.539062 C 123.375 39.996094 122.945312 38.453125 122.511719 36.910156 C 122.101562 35.453125 119.808594 36.074219 120.230469 37.539062 " fill-opacity="1" fill-rule="nonzero"/><path fill="rgb(1.568604%, 2.349854%, 2.349854%)" d="M 127.621094 57.136719 C 128.261719 59.953125 129.136719 62.691406 130.285156 65.34375 C 131.191406 67.433594 132.355469 71.035156 134.546875 72.070312 C 134.960938 72.265625 135.507812 72.035156 135.496094 71.527344 C 135.453125 69.253906 133.378906 66.933594 132.445312 64.882812 C 131.230469 62.214844 130.335938 59.425781 129.671875 56.574219 C 129.363281 55.242188 127.320312 55.804688 127.621094 57.136719 " fill-opacity="1" fill-rule="nonzero"/><path fill="rgb(1.568604%, 2.349854%, 2.349854%)" d="M 139.871094 21.945312 C 140.769531 23.386719 141.457031 24.910156 141.867188 26.5625 C 142.199219 27.886719 142.074219 29.289062 143.011719 30.351562 C 143.324219 30.714844 143.820312 30.53125 144.0625 30.21875 C 145.027344 28.964844 144.46875 27.066406 144.105469 25.65625 C 143.65625 23.90625 142.914062 22.25 141.980469 20.714844 C 141.164062 19.375 139.039062 20.609375 139.871094 21.945312 " fill-opacity="1" fill-rule="nonzero"/><path fill="rgb(1.568604%, 2.349854%, 2.349854%)" d="M 110.519531 15.765625 C 111.273438 17.25 112.027344 18.734375 112.785156 20.214844 C 113.347656 21.3125 113.71875 22.9375 115.078125 23.179688 C 115.378906 23.230469 115.726562 23.148438 115.878906 22.855469 C 116.535156 21.578125 115.570312 20.425781 115.003906 19.257812 C 114.234375 17.671875 113.464844 16.082031 112.695312 14.496094 C 111.992188 13.046875 109.78125 14.320312 110.519531 15.765625 " fill-opacity="1" fill-rule="nonzero"/><path fill="rgb(1.568604%, 2.349854%, 2.349854%)" d="M 166 15.367188 C 166.679688 17.070312 167.152344 18.8125 167.304688 20.644531 C 167.425781 22.121094 167.054688 23.675781 167.449219 25.097656 C 167.566406 25.5 168.097656 25.546875 168.3125 25.207031 C 170.046875 22.546875 168.644531 17.625 167.597656 14.925781 C 167.214844 13.945312 165.605469 14.378906 166 15.367188 " fill-opacity="1" fill-rule="nonzero"/><path fill="rgb(1.568604%, 2.349854%, 2.349854%)" d="M 169.308594 36.007812 C 169.316406 37.328125 169.320312 38.648438 169.328125 39.96875 C 169.335938 41.160156 169.152344 42.46875 169.574219 43.59375 C 169.882812 44.410156 170.9375 44.414062 171.246094 43.59375 C 171.664062 42.480469 171.484375 41.152344 171.492188 39.96875 C 171.5 38.648438 171.507812 37.328125 171.511719 36.007812 C 171.519531 34.589844 169.300781 34.589844 169.308594 36.007812 " fill-opacity="1" fill-rule="nonzero"/><path fill="rgb(1.568604%, 2.349854%, 2.349854%)" d="M 170.640625 57.109375 C 171.511719 59.542969 172.390625 61.972656 173.265625 64.40625 C 173.742188 65.726562 175.859375 65.167969 175.390625 63.820312 C 174.542969 61.382812 173.691406 58.941406 172.839844 56.503906 C 172.359375 55.125 170.140625 55.726562 170.640625 57.109375 " fill-opacity="1" fill-rule="nonzero"/><path fill="rgb(1.568604%, 2.349854%, 2.349854%)" d="M 190.347656 4.453125 C 189.09375 5.945312 187.964844 8.660156 189.082031 10.519531 C 189.515625 11.246094 190.921875 11.230469 191.0625 10.261719 C 191.167969 9.546875 191.019531 8.832031 191.171875 8.121094 C 191.320312 7.40625 191.640625 6.773438 192.128906 6.234375 C 193.214844 5.019531 191.382812 3.21875 190.347656 4.453125 " fill-opacity="1" fill-rule="nonzero"/><path fill="rgb(1.568604%, 2.349854%, 2.349854%)" d="M 263.496094 13.5625 C 262.769531 15.421875 261.777344 17.339844 261.359375 19.289062 C 261.074219 20.632812 262.855469 21.453125 263.605469 20.234375 C 264.714844 18.441406 265.359375 16.242188 266.15625 14.292969 C 266.824219 12.664062 264.144531 11.921875 263.496094 13.5625 " fill-opacity="1" fill-rule="nonzero"/><path fill="rgb(76.469421%, 58.039856%, 52.159119%)" d="M 250.707031 265.152344 C 247.007812 269.148438 242.136719 272.632812 236.730469 273.777344 C 233.519531 274.460938 235.136719 279.808594 238.058594 278.585938 C 244.070312 276.070312 249.40625 273.183594 253.808594 268.25 C 255.675781 266.15625 252.632812 263.074219 250.707031 265.152344 " fill-opacity="1" fill-rule="nonzero"/></svg>