<svg width="2" height="20" viewBox="0 0 167 109" fill="none" xmlns="http://www.w3.org/2000/svg">
<path d="M35.0646 28.425V26.605H35.6496C35.6063 26.605 37.0579 26.6483 40.0046 26.735C42.5613 26.7783 45.3563 26.7783 48.3896 26.735L53.5896 26.605H54.3046V28.425V30.245H52.6796C50.3396 30.3317 49.1046 30.505 48.9746 30.765L60.0896 61.64L65.3546 47.08C68.8213 37.5033 70.5546 32.585 70.5546 32.325C70.5546 32.065 70.4246 31.7833 70.1646 31.48C69.4713 30.7867 68.2579 30.375 66.5246 30.245H65.8746V28.425V26.605H66.4596L70.7496 26.735C75.3429 26.8217 78.7013 26.7783 80.8246 26.605H81.2796V28.425V30.245H80.6946C79.9146 30.245 79.0046 30.3317 77.9646 30.505C76.2746 30.8517 75.1696 31.4367 74.6496 32.26C74.6063 32.3033 72.1796 38.9333 67.3696 52.15C62.7329 65.2367 60.3496 71.845 60.2196 71.975C60.1763 72.105 60.0463 72.2133 59.8296 72.3C59.6563 72.3867 59.1146 72.43 58.2046 72.43C57.2513 72.43 56.6879 72.3867 56.5146 72.3C56.2979 72.2133 56.1679 72.105 56.1246 71.975C56.0379 71.8883 53.5463 65.02 48.6496 51.37C43.7529 37.72 41.2613 30.8517 41.1746 30.765C41.0013 30.505 40.3729 30.3533 39.2896 30.31C38.8996 30.2667 38.0113 30.245 36.6246 30.245H35.0646V28.425ZM84.0096 28.425V26.605H84.7246L89.9246 26.735C92.9146 26.7783 95.9046 26.7783 98.8946 26.735L104.095 26.605H104.81V28.425V30.245H102.99C99.9563 30.245 98.3529 30.3967 98.1796 30.7C98.1363 30.7433 98.1146 34.015 98.1146 40.515L98.1796 50.2L106.955 41.425C112.848 35.6183 115.838 32.6283 115.925 32.455C116.141 32.0217 116.141 31.6317 115.925 31.285C115.665 30.765 114.993 30.4183 113.91 30.245H113.455V28.425V26.605H114.17L119.11 26.735C121.97 26.7783 124.288 26.7783 126.065 26.735L129.12 26.605H129.51V28.425V30.245H128.34C124.656 30.375 122.035 31.155 120.475 32.585L114.56 38.435L109.23 43.765L116.315 54.62C120.995 61.8133 123.53 65.605 123.92 65.995C124.483 66.5583 125.155 66.9267 125.935 67.1C126.975 67.2733 128.145 67.36 129.445 67.36H130.42V69.18V71H129.835L125.87 70.87C123.616 70.8267 120.93 70.8267 117.81 70.87L112.48 71H111.765V69.18V67.36H112.61C113.303 67.2733 113.736 67.23 113.91 67.23C114.516 67.0133 114.885 66.775 115.015 66.515C115.231 66.1683 115.231 65.7783 115.015 65.345C114.971 65.1283 113.151 62.29 109.555 56.83L104.29 48.705L101.17 51.76L98.1146 54.75V60.795C98.1146 64.825 98.1363 66.8617 98.1796 66.905C98.3529 67.2083 99.9563 67.36 102.99 67.36H104.81V69.18V71H104.095L98.8946 70.87C95.9046 70.8267 92.9146 70.8267 89.9246 70.87L84.7246 71H84.0096V69.18V67.36H85.8296C88.8629 67.36 90.4663 67.2083 90.6396 66.905V30.7C90.4663 30.3967 88.8629 30.245 85.8296 30.245H84.0096V28.425Z" fill="#CE5FF8"/>
</svg>
