<svg width="668" height="646" viewBox="0 0 668 646" fill="none" xmlns="http://www.w3.org/2000/svg">
<path d="M204.232 505.386C201.287 523.395 186.776 530.557 158.19 524.906C129.604 519.255 118.605 531.366 116.706 533.694C110.283 541.568 63.9002 616.278 108.034 637.475C139.162 652.425 171.7 603.564 171.7 603.564C171.7 603.564 245.112 652.791 346.96 540.855" fill="white"/>
<path d="M252.062 603.276C243.334 603.276 234.989 601.799 227.299 598.851C202.572 589.371 184.334 565.344 173.092 527.438C172.352 524.942 173.775 522.318 176.272 521.578C178.768 520.839 181.391 522.261 182.132 524.757C192.496 559.705 208.828 581.672 230.674 590.047C261.144 601.729 292.461 582.867 292.774 582.675C294.992 581.313 297.895 582.009 299.257 584.228C300.619 586.448 299.923 589.35 297.704 590.712C297.342 590.934 288.686 596.195 275.769 599.851C267.695 602.135 259.731 603.276 252.062 603.276Z" fill="#371A45"/>
<g opacity="0.35">
<path d="M108.035 637.479C139.162 652.426 171.697 603.569 171.697 603.569C171.697 603.569 245.108 652.787 346.96 540.857L253.571 517.645C220.492 578.493 167.826 576.145 167.826 576.145C167.826 576.145 149.875 636.46 103.262 621.695C90.7157 617.72 92.7212 602.268 89.7515 596.915C87.5934 613.752 91.3209 629.448 108.035 637.479Z" fill="#371A45"/>
</g>
<path d="M120.378 645.022C115.395 645.023 110.582 643.928 105.993 641.724C95.0749 636.48 88.2246 627.927 85.6329 616.303C82.5382 602.424 85.6092 584.654 94.7599 563.486C101.484 547.932 109.992 534.466 113.054 530.713C116.273 526.767 129.108 514.351 159.104 520.281C174.397 523.304 185.48 522.526 192.044 517.97C196.108 515.149 198.573 510.784 199.58 504.625C200.001 502.055 202.423 500.313 204.994 500.733C207.563 501.153 209.305 503.577 208.885 506.146C207.464 514.838 203.606 521.422 197.421 525.715C188.554 531.869 175.422 533.117 157.275 529.53C131.794 524.493 122.053 534.597 120.359 536.673C116.365 541.569 88.441 585.575 94.8351 614.252C96.7932 623.034 101.778 629.24 110.075 633.225C137.139 646.225 167.475 601.403 167.778 600.949L170.401 597.02L174.326 599.649C174.488 599.756 192.205 611.223 221.569 609.438C248.909 607.776 292.251 593.978 343.473 537.683C345.225 535.757 348.207 535.616 350.133 537.368C352.058 539.121 352.199 542.102 350.447 544.028C326.844 569.968 302.738 589.489 278.799 602.051C259.434 612.211 240.12 617.877 221.392 618.893C219.303 619.006 217.266 619.059 215.287 619.059C194.358 619.06 179.713 613.126 173.069 609.747C169.671 614.286 163.104 622.395 154.615 629.699C142.798 639.866 131.19 645.022 120.378 645.022Z" fill="#371A45"/>
<path d="M334.63 322.832C331.651 322.315 268.943 292.818 226.881 293.419C191.811 293.92 124.996 412.342 136.759 443.466C147.659 472.308 208.339 498.529 208.339 498.529L334.63 322.832Z" fill="white"/>
<path d="M334.628 322.834L314.103 351.391L208.334 498.529C208.334 498.529 178.913 485.815 157.367 468.348C147.967 460.742 140.077 452.23 136.761 443.466C124.996 412.345 191.812 293.916 226.886 293.418C268.944 292.818 331.647 322.314 334.628 322.834Z" fill="white"/>
<g opacity="0.35">
<path d="M314.103 351.391L208.334 498.529C208.334 498.529 208.315 498.525 208.288 498.511C208.152 498.447 207.724 498.261 207.025 497.948C206.889 497.884 206.734 497.816 206.571 497.738C206.543 497.732 206.516 497.718 206.48 497.701C206.334 497.636 206.172 497.558 206.007 497.488C205.619 497.3 205.174 497.102 204.684 496.876C204.567 496.815 204.439 496.763 204.313 496.701C204.194 496.65 204.087 496.591 203.969 496.54C203.825 496.465 203.67 496.398 203.517 496.321C201.951 495.585 200.045 494.661 197.892 493.583C197.63 493.457 197.361 493.32 197.091 493.183C196.281 492.771 195.435 492.343 194.564 491.89C194.277 491.74 193.98 491.588 193.683 491.436C193.341 491.266 192.993 491.075 192.632 490.892C192.203 490.658 191.763 490.43 191.315 490.192C191.179 490.129 191.055 490.057 190.93 489.985C190.608 489.809 190.285 489.642 189.954 489.465C189.032 488.964 188.092 488.459 187.136 487.933C187.109 487.918 187.075 487.892 187.038 487.876C186.378 487.511 185.699 487.132 185.023 486.744C185.004 486.741 184.987 486.728 184.969 486.715C184.479 486.44 183.988 486.164 183.49 485.878C183.178 485.703 182.867 485.519 182.547 485.334C181.365 484.648 180.155 483.948 178.942 483.218C178.161 482.752 177.375 482.266 176.579 481.778C175.862 481.344 175.139 480.889 174.416 480.433C173.692 479.978 172.971 479.514 172.24 479.047C171.52 478.573 170.791 478.097 170.062 477.621C169.335 477.136 168.616 476.652 167.9 476.159C167.174 475.664 166.458 475.171 165.745 474.659C165.734 474.667 165.734 474.667 165.735 474.657C165.021 474.155 164.308 473.642 163.605 473.132C162.893 472.61 162.192 472.09 161.49 471.57C161.377 471.491 161.265 471.402 161.162 471.324C160.575 470.874 159.989 470.424 159.412 469.976C158.723 469.438 158.046 468.893 157.368 468.348C147.968 460.742 140.077 452.231 136.761 443.467C130.624 427.227 145.883 387.214 166.867 352.59C157.543 374.579 152.828 394.435 156.72 404.737C158.081 408.344 160.218 411.903 162.919 415.379C166.074 419.438 169.611 422.966 173.433 425.947C197.085 383.751 240.907 334.654 264.387 336.988C277.964 338.346 293.336 343.083 308.011 348.903C310.054 349.715 312.094 350.546 314.103 351.391Z" fill="#371A45"/>
</g>
<path d="M209.952 504.362L206.469 502.857C205.837 502.584 190.798 496.05 174.169 485.83C151.318 471.786 137.248 458.094 132.349 445.133C127.672 432.758 133.762 411.879 139.695 396.542C147.206 377.124 158.852 355.205 171.647 336.406C183.688 318.714 206.867 288.99 226.813 288.705C242.293 288.48 262.156 292.144 285.848 299.584C304.936 305.578 321.482 312.416 330.371 316.09C332.721 317.061 334.947 317.981 335.662 318.227L342.848 319.476L209.952 504.362ZM228.158 298.124C227.752 298.124 227.35 298.127 226.949 298.132C215.831 298.291 197.628 314.989 179.442 341.711C167.034 359.942 155.752 381.167 148.488 399.944C141.051 419.172 138.383 434.428 141.169 441.8C145.247 452.589 158.331 465.016 179.008 477.738C190.481 484.796 201.407 490.138 206.768 492.638L327.261 325.007C327.102 324.941 326.938 324.873 326.77 324.804C310.707 318.165 262.212 298.124 228.158 298.124Z" fill="#371A45"/>
<path d="M224.524 291.401C226.065 293.076 227.533 294.721 229.012 296.396C230.486 298.066 231.948 299.745 233.394 301.439C236.289 304.823 239.139 308.246 241.914 311.742C244.688 315.238 247.418 318.774 250.007 322.448C250.332 322.906 250.662 323.358 250.982 323.82L251.929 325.221C252.554 326.161 253.206 327.072 253.797 328.046C254.397 329.011 255.014 329.955 255.595 330.937L257.294 333.926C258.029 335.219 257.576 336.863 256.283 337.598C255.018 338.317 253.416 337.899 252.66 336.669L252.609 336.586C250.4 332.986 247.796 329.519 245.111 326.123C242.423 322.723 239.568 319.42 236.67 316.158C233.772 312.894 230.79 309.692 227.766 306.531C226.257 304.948 224.731 303.38 223.195 301.824C221.665 300.273 220.105 298.709 218.571 297.218L218.559 297.206C216.91 295.603 216.873 292.967 218.476 291.319C220.079 289.67 222.715 289.633 224.363 291.236C224.415 291.287 224.475 291.348 224.524 291.401Z" fill="#371A45"/>
<path d="M162.82 356.873L192.461 380.079C195.107 382.151 196.027 385.743 194.687 388.824C189.778 400.109 177.086 425.585 162.112 426.789C149.684 427.789 136.991 418.211 133.634 406.496C129.878 393.392 144.422 369.807 152.181 358.505C154.593 354.991 159.464 354.245 162.82 356.873Z" fill="white"/>
<g opacity="0.35">
<path d="M194.682 388.827C189.781 400.111 177.084 425.586 162.111 426.786C149.679 427.787 136.99 418.211 133.63 406.491C131.327 398.431 135.939 386.406 141.637 375.717C139.696 381.663 139.186 387.204 140.148 391.707C145.66 417.505 169.448 407.336 169.448 407.336C169.448 407.336 168.56 413.074 170.019 414.407C176.117 419.983 188.925 397.785 195.286 386.146C195.26 387.045 195.066 387.953 194.682 388.827Z" fill="#371A45"/>
</g>
<path d="M160.346 431.574C146.69 431.575 132.974 421.305 129.102 407.795C125.091 393.801 137.325 371.816 148.294 355.837C150.177 353.095 153.141 351.232 156.428 350.727C159.716 350.222 163.105 351.108 165.726 353.161L195.367 376.367C199.706 379.764 201.204 385.66 199.01 390.705C196.262 397.02 191.778 406.244 186.011 414.325C178.341 425.076 170.427 430.85 162.49 431.488C161.777 431.546 161.061 431.574 160.346 431.574ZM158.269 360.015C158.11 360.015 157.971 360.029 157.86 360.046C157.435 360.111 156.636 360.344 156.067 361.173C142.586 380.812 135.893 397.27 138.165 405.197C140.883 414.678 150.803 422.147 160.313 422.147C160.789 422.147 161.262 422.129 161.734 422.091C171.927 421.271 183.206 403.398 190.364 386.944C190.845 385.837 190.512 384.541 189.554 383.791L159.914 360.585C159.327 360.125 158.719 360.015 158.269 360.015Z" fill="#371A45"/>
<path d="M144.223 416.7C144.21 416.699 144.177 416.697 144.179 416.698L144.193 416.702C144.202 416.704 144.206 416.707 144.228 416.71L144.337 416.729C144.424 416.74 144.508 416.753 144.607 416.762C144.794 416.782 145.001 416.797 145.209 416.806C145.625 416.829 146.064 416.825 146.505 416.813C147.392 416.781 148.302 416.685 149.213 416.533C150.126 416.384 151.039 416.169 151.947 415.906C152.856 415.65 153.756 415.329 154.647 414.968C158.213 413.518 161.586 411.321 164.607 408.625C166.121 407.279 167.553 405.813 168.914 404.264L169.922 403.087L170.918 401.856C171.254 401.448 171.576 401.032 171.899 400.615C172.22 400.198 172.553 399.786 172.862 399.362C174.134 397.682 175.344 395.96 176.458 394.19C177.007 393.303 177.547 392.408 178.034 391.497C178.277 391.041 178.51 390.583 178.729 390.124C178.833 389.895 178.943 389.663 179.036 389.437C179.084 389.323 179.134 389.209 179.175 389.1L179.286 388.81L179.342 388.664C179.587 388.024 180.305 387.705 180.945 387.95C181.53 388.175 181.847 388.794 181.709 389.388L181.649 389.648L181.592 389.87C181.554 390.018 181.513 390.156 181.472 390.295C181.391 390.577 181.3 390.843 181.212 391.115C181.028 391.651 180.831 392.177 180.625 392.697C180.213 393.735 179.752 394.741 179.279 395.742C178.32 397.733 177.266 399.665 176.148 401.552C175.876 402.03 175.583 402.491 175.3 402.962C175.015 403.43 174.73 403.899 174.432 404.358L173.549 405.743L172.61 407.131C171.332 408.969 169.948 410.754 168.43 412.449C165.399 415.838 161.801 418.866 157.626 421.154C156.582 421.722 155.507 422.25 154.392 422.709C153.28 423.175 152.136 423.587 150.957 423.924C149.778 424.263 148.569 424.538 147.32 424.73C146.693 424.822 146.062 424.901 145.404 424.945C145.076 424.969 144.745 424.986 144.396 424.991C144.226 424.996 144.042 424.994 143.861 424.993L143.569 424.984L143.404 424.976L143.316 424.97L143.172 424.957C140.892 424.666 139.279 422.583 139.57 420.303C139.86 418.022 141.944 416.41 144.223 416.7Z" fill="#371A45"/>
<path d="M406.541 422.73C406.541 422.73 420.988 424.738 443.545 423.065C488.668 419.706 566.283 401.666 625.93 323.546C633.705 313.367 671.346 309.195 661.521 287.992C658.542 281.557 650.732 280.196 650.732 280.196C650.732 280.196 662.175 275.509 659.518 263.601C655.314 244.782 621.103 252.849 621.103 252.849C621.103 252.849 632.553 240.794 635.094 229.45C636.863 221.499 631.313 214.308 626.38 212.41C612.385 207.031 583.624 228.159 566.129 239.972C549.644 251.095 539.037 265.494 528.091 280.275C511.014 303.313 493.092 327.279 450.712 341.213C436.515 345.871 419.579 349.417 399.008 351.416L404.084 399.511L406.541 422.73Z" fill="white"/>
<g opacity="0.35">
<path d="M406.541 422.73C406.541 422.73 420.988 424.738 443.545 423.065C488.668 419.706 566.283 401.666 625.93 323.546C632.511 314.94 660.455 310.626 662.96 296.668C659.871 290.068 633.964 308.871 627.042 310.824C613.614 314.611 610.669 306.433 610.111 302.859C607.989 289.269 658.421 282.145 659.051 270.248C659.856 255.057 643.684 281.805 605.618 282.552C593.578 282.789 590.585 267.922 590.121 268.97C576.471 299.76 599.888 320.818 586.207 340.953C545.328 401.119 483.562 391.72 445.365 394.564C422.809 396.236 408.361 394.229 408.361 394.229L405.905 371.01L403.781 350.909C402.212 351.095 400.617 351.26 399.008 351.416L404.084 399.511L406.541 422.73Z" fill="#371A45"/>
</g>
<path d="M425.929 428.465C413.854 428.465 406.526 427.489 405.894 427.401C403.315 427.044 401.514 424.664 401.872 422.085C402.229 419.505 404.609 417.704 407.189 418.063C407.505 418.106 439.607 422.327 481.994 412.408C520.964 403.288 576.92 379.971 622.187 320.683C625.518 316.32 632.081 313.318 639.03 310.138C646.992 306.496 656.017 302.367 658.015 296.962C658.751 294.97 658.499 292.686 657.245 289.979C655.412 286.024 650.229 284.905 649.902 284.838C647.808 284.498 646.196 282.821 645.969 280.71C645.741 278.598 646.952 276.617 648.927 275.839C649.817 275.453 656.611 272.229 654.913 264.629C654.347 262.093 653.03 260.252 650.768 258.835C643.03 253.986 627.508 256.184 622.18 257.44C620.151 257.918 618.049 257.007 617.01 255.199C615.972 253.391 616.245 251.116 617.681 249.605C617.784 249.496 628.272 238.334 630.488 228.424C631.757 222.749 627.388 217.846 624.69 216.809C621.77 215.687 615.587 215.737 602.718 222.349C592.951 227.367 582.317 234.632 573.772 240.469C572.024 241.663 570.349 242.807 568.766 243.876C553.087 254.455 542.916 268.184 532.148 282.719C520.509 298.428 508.474 314.672 488.619 328.14C466.27 343.301 437.109 352.449 399.469 356.109C396.877 356.358 394.573 354.465 394.321 351.873C394.069 349.282 395.966 346.977 398.557 346.725C478.771 338.925 502.055 307.498 524.572 277.106C535.34 262.573 546.474 247.544 563.492 236.061C565.061 235.002 566.721 233.867 568.453 232.684C577.215 226.699 588.119 219.249 598.409 213.962C611.592 207.19 621.017 205.297 628.072 208.008C635.474 210.852 641.908 220.561 639.689 230.482C638.408 236.21 635.209 241.968 632.076 246.572C632.302 246.557 632.53 246.544 632.759 246.531C642.584 245.98 650.328 247.433 655.775 250.846C660.189 253.612 662.995 257.558 664.115 262.574C665.742 269.856 663.308 275.391 659.959 279.165C662.192 280.733 664.374 282.939 665.8 286.016C668.129 291.045 668.485 295.827 666.858 300.23C663.503 309.311 652.585 314.306 642.953 318.712C637.363 321.27 631.583 323.914 629.681 326.405C608.905 353.616 584.223 375.865 556.321 392.533C533.992 405.871 509.576 415.677 483.749 421.68C460.16 427.162 439.878 428.465 425.929 428.465Z" fill="#371A45"/>
<path d="M11.3321 510.113C32.5733 535.12 63.4782 505.239 63.4782 505.239C63.4782 505.239 87.0262 570.615 136.492 584.186C178.057 595.588 229.604 568.256 229.604 568.256C229.604 568.256 405.583 617.099 443.545 423.065C446.142 409.76 448.101 395.308 449.303 379.63C450.231 367.573 450.711 354.781 450.712 341.213C450.698 334.121 450.56 326.821 450.284 319.302L304.384 306.133L287.568 304.627L283.371 304.243C283.135 305.181 282.897 306.107 282.647 307.035C275.418 333.479 261.19 353.508 245.945 369.455C226.606 389.705 205.638 403.389 195.283 415.278C189.577 421.82 185.12 428.186 181.763 433.659C175.75 443.423 173.193 450.354 173.193 450.354C166.779 455.425 146.438 470.092 129.643 459.121C123.82 455.313 119.872 448.848 116.402 441.803C110.251 429.341 105.571 415.076 94.5019 410.438C78.5241 403.743 60.1821 409.808 44.9114 421.022C35.3781 428.021 27.0462 437.041 21.2361 446.217C11.2079 462.022 -4.19482 491.857 11.3321 510.113Z" fill="white"/>
<g opacity="0.35">
<path d="M7.74438 504.681C8.69128 506.583 9.87659 508.403 11.332 510.114C32.5732 535.121 63.4781 505.239 63.4781 505.239C63.4781 505.239 87.0261 570.615 136.492 584.187C178.057 595.589 229.604 568.256 229.604 568.256C229.604 568.256 400.863 615.79 441.932 430.779C400.561 560.433 286.66 553.146 248.623 546.781C240.428 545.41 232.027 546.357 224.353 549.543C206.735 556.857 172.351 568.163 142.958 560.1C93.4926 546.528 81.2762 482.561 59.9378 477.151C54.9507 475.886 45.0397 529.655 7.74438 504.681Z" fill="#371A45"/>
</g>
<path d="M158.614 591.683C150.226 591.683 142.4 590.698 135.251 588.737C123.273 585.451 111.786 579.038 101.109 569.674C92.6916 562.292 84.7538 553.065 77.5164 542.25C69.6544 530.501 64.3765 519.534 61.5378 513.001C55.1997 517.797 43.8425 524.805 31.5993 524.806C31.0852 524.806 30.5719 524.794 30.055 524.768C21.424 524.345 13.9143 520.443 7.73465 513.17C-0.128793 503.916 -2.00783 491.415 2.14962 476.016C4.80317 466.188 9.883 455.311 17.2482 443.689C25.6291 430.464 38.1184 418.613 51.5135 411.175C58.9458 407.049 66.3642 404.438 73.5623 403.417C81.6778 402.265 89.3335 403.164 96.3169 406.088C107.144 410.621 112.433 422.092 117.548 433.186C121.57 441.909 125.728 450.93 132.225 455.176C138.094 459.011 145.314 459.399 153.684 456.328C158.684 454.494 164.056 451.424 169.283 447.418C171.106 443.004 177.847 428.122 191.731 412.183C196.848 406.309 204.162 400.239 212.632 393.209C235.871 373.923 267.698 347.509 278.797 303.101C279.428 300.575 281.986 299.038 284.513 299.67C287.039 300.302 288.575 302.861 287.944 305.387C276.096 352.792 242.895 380.346 218.653 400.465C210.499 407.233 203.456 413.077 198.84 418.376C183.816 435.623 177.669 451.83 177.609 451.992L177.149 453.225L176.116 454.046C169.806 459.04 163.172 462.89 156.931 465.179C145.772 469.273 135.445 468.544 127.067 463.068C118.301 457.34 113.566 447.067 108.986 437.133C104.426 427.243 100.119 417.901 92.6758 414.785C70.2456 405.395 40.1933 425.096 25.2122 448.736C18.355 459.557 13.6581 469.562 11.2521 478.474C7.95189 490.698 9.18564 500.317 14.9194 507.065C19.3996 512.338 24.492 515.047 30.4873 515.35C45.204 516.091 60.0542 501.992 60.2024 501.849L65.4415 496.813L67.9093 503.645C67.9661 503.803 73.8163 519.817 85.4732 537.187C96.0239 552.909 113.657 573.037 137.745 579.645C158.077 585.222 181.245 580.759 197.101 576.034C214.569 570.827 227.27 564.151 227.396 564.085L229.054 563.207L230.864 563.708C231.07 563.765 252.103 569.473 280.562 568.984C306.585 568.531 344.38 562.634 376.649 537.113C426.278 497.862 449.469 424.639 445.577 319.477C445.48 316.875 447.511 314.688 450.114 314.592C452.712 314.499 454.903 316.526 454.999 319.128C457.147 377.176 451.027 426.444 436.807 465.565C424.612 499.117 406.315 525.696 382.425 544.566C367.203 556.589 349.608 565.553 330.129 571.209C314.612 575.715 297.877 578.14 280.39 578.416C279.243 578.434 278.104 578.443 276.983 578.443C253.484 578.444 235.73 574.619 230.155 573.258C226.056 575.293 214.762 580.591 199.985 585.012C189.185 588.244 178.76 590.327 169 591.205C165.452 591.524 161.987 591.683 158.614 591.683Z" fill="#371A45"/>
<path d="M559.96 250.925C571.637 232.642 596.482 228.24 601.363 229.175C605.083 229.888 613.905 241.785 604.825 248.971C595.745 256.158 588.197 255.985 588.324 259.586C588.452 263.187 594.61 276 584.703 288.572" fill="white"/>
<path d="M558.636 250.079C560.874 245.156 564.416 240.795 568.558 237.213C572.713 233.619 577.473 230.776 582.507 228.624C585.03 227.558 587.616 226.627 590.292 225.923C591.627 225.562 592.982 225.247 594.372 224.988C595.769 224.74 597.177 224.539 598.724 224.446L599.312 224.417C599.508 224.407 599.729 224.41 599.936 224.407C600.335 224.396 600.833 224.426 601.305 224.455C601.596 224.488 601.887 224.525 602.177 224.569C602.53 224.636 603.072 224.777 603.406 224.906C604.115 225.171 604.664 225.468 605.132 225.758C606.07 226.345 606.773 226.939 607.409 227.549C608.044 228.162 608.61 228.788 609.121 229.438C610.158 230.731 611.001 232.123 611.705 233.621C612.408 235.117 612.953 236.735 613.244 238.489C613.535 240.235 613.573 242.128 613.161 244.016C612.767 245.898 611.946 247.727 610.848 249.247C610.586 249.645 610.279 249.981 609.985 250.338C609.695 250.703 609.367 250.997 609.049 251.317C608.733 251.643 608.395 251.905 608.062 252.186L607.81 252.394C607.728 252.461 607.636 252.538 607.571 252.584L607.142 252.901C605.998 253.746 604.814 254.54 603.599 255.273C601.171 256.736 598.579 257.929 596.105 258.919C594.881 259.405 593.655 259.857 592.734 260.264C592.284 260.457 591.921 260.665 591.853 260.693C591.841 260.689 591.893 260.632 592 260.429C592.119 260.224 592.215 259.898 592.212 259.647C592.218 259.596 592.218 259.544 592.211 259.493L592.204 259.455C592.202 259.443 592.203 259.457 592.203 259.457L592.2 259.475L592.195 259.494C592.193 259.5 592.19 259.503 592.193 259.53L592.201 259.657C592.212 259.838 592.248 260.097 592.293 260.371C592.382 260.926 592.504 261.548 592.624 262.19C592.859 263.478 593.088 264.839 593.254 266.217C593.583 268.978 593.647 271.855 593.246 274.688C592.865 277.52 592.031 280.304 590.765 282.825C589.517 285.358 587.841 287.612 585.937 289.545C585.325 290.167 584.324 290.175 583.702 289.562C583.176 289.044 583.089 288.248 583.446 287.638L583.469 287.6C584.707 285.485 585.727 283.314 586.356 281.068C586.672 279.947 586.921 278.82 587.068 277.682C587.211 276.544 587.28 275.403 587.272 274.262C587.259 273.12 587.169 271.978 587.018 270.837C586.867 269.695 586.631 268.557 586.364 267.411C586.092 266.261 585.765 265.117 585.403 263.911C585.225 263.306 585.042 262.682 584.857 261.985C584.765 261.632 584.673 261.263 584.588 260.81L584.527 260.461C584.517 260.409 584.508 260.332 584.5 260.258L584.476 260.037L584.454 259.816C584.452 259.775 584.447 259.75 584.446 259.697L584.443 259.539C584.441 259.328 584.446 259.116 584.457 258.905C584.526 258.016 584.828 257.072 585.276 256.316C585.722 255.566 586.224 255.044 586.692 254.616C587.612 253.823 588.376 253.402 589.068 253.014C590.442 252.275 591.594 251.761 592.714 251.207C593.827 250.669 594.888 250.141 595.906 249.569C596.927 249.002 597.903 248.391 598.859 247.759C599.812 247.124 600.733 246.446 601.621 245.727L601.954 245.457C602.017 245.408 602.045 245.377 602.084 245.341L602.197 245.234C602.345 245.092 602.517 244.961 602.633 244.812C602.902 244.527 603.137 244.247 603.325 243.959C603.705 243.385 603.929 242.815 604.046 242.184C604.081 242.028 604.08 241.858 604.11 241.698C604.105 241.524 604.128 241.359 604.118 241.18C604.102 241 604.115 240.825 604.084 240.634L604.058 240.353L604.006 240.063C603.751 238.51 602.864 236.719 601.736 235.289C601.459 234.928 601.16 234.602 600.875 234.322C600.595 234.037 600.305 233.807 600.157 233.712C600.084 233.659 600.061 233.66 600.172 233.695L600.187 233.697L600.229 233.713C600.259 233.724 600.29 233.734 600.321 233.743C600.353 233.751 600.385 233.758 600.417 233.763C600.442 233.767 600.502 233.772 600.477 233.771C600.449 233.771 600.423 233.765 600.396 233.753C600.228 233.744 600.087 233.717 599.844 233.718C599.73 233.716 599.631 233.707 599.506 233.71L599.133 233.716C598.117 233.74 596.977 233.86 595.842 234.021C594.7 234.169 593.541 234.372 592.385 234.619C591.228 234.859 590.072 235.145 588.917 235.441C587.766 235.754 586.618 236.092 585.482 236.468C580.93 237.955 576.51 239.904 572.42 242.426C568.321 244.941 564.578 248.041 561.284 251.771L561.27 251.786C560.69 252.443 559.687 252.506 559.03 251.925C558.494 251.453 558.355 250.697 558.636 250.079Z" fill="#371A45"/>
<path d="M442.659 450.706L390.356 519.578L337.552 524.724L309.63 527.446C309.63 527.446 288.111 519.193 282.913 517.113C275.859 514.305 278.717 505.759 282.002 501.02C287.62 492.905 292.051 484.82 295.698 477.081C301.58 464.588 305.428 452.967 308.992 443.465C311.914 435.665 319.725 430.787 328.014 431.675C377.481 436.992 426.155 436.76 426.155 436.76L442.659 450.706Z" fill="white"/>
<path d="M309.628 531.624C309.118 531.624 308.611 531.53 308.132 531.347C307.252 531.009 286.528 523.056 281.367 520.997C278.069 519.681 275.822 517.313 274.868 514.148C273.293 508.924 275.744 502.713 278.563 498.641C290.962 480.736 297.449 462.902 302.663 448.573C303.499 446.272 304.29 444.099 305.077 441.999C308.682 432.383 318.296 426.429 328.458 427.522C377.11 432.747 425.651 432.588 426.137 432.587C427.124 432.58 428.092 432.932 428.851 433.573L445.355 447.51C447.053 448.944 447.331 451.458 445.986 453.228L393.685 522.107C392.981 523.034 391.922 523.625 390.763 523.738L310.033 531.604C309.898 531.617 309.763 531.624 309.628 531.624ZM326.07 435.749C320.271 435.749 314.988 439.364 312.901 444.932C312.128 446.994 311.344 449.149 310.514 451.43C305.136 466.21 298.444 484.606 285.432 503.398C283.415 506.312 282.312 509.896 282.867 511.736C283.013 512.222 283.317 512.781 284.462 513.238C288.961 515.032 306.037 521.593 310.204 523.193L388.135 515.6L436.934 451.334L424.627 440.942C415.907 440.923 371.793 440.579 327.566 435.829C327.065 435.775 326.565 435.749 326.07 435.749Z" fill="#371A45"/>
<g opacity="0.3">
<path d="M337.552 524.724L309.63 527.447C309.63 527.447 288.111 519.193 282.913 517.113C277.526 514.971 277.918 509.471 279.866 504.887C280.47 503.468 281.228 502.143 282.002 501.021C287.62 492.905 292.051 484.82 295.698 477.081C296.827 480.619 300.16 476.943 309.001 474.186C319.462 470.924 324.51 462.066 330.633 459.977C348.496 453.877 342.063 504.787 337.552 524.724Z" fill="#371A45"/>
</g>
<path d="M409.54 495.541C407.105 502.124 404.823 510.523 404.823 510.523C404.823 510.523 391.013 506.872 389.931 506.472C386.351 505.147 386.278 496.425 389.769 486.99C393.259 477.555 398.991 470.98 402.571 472.305C405.191 473.274 416.314 476.089 416.314 476.089C416.314 476.089 410.476 493.01 409.54 495.541Z" fill="white"/>
<path d="M419.048 496.456C422.539 487.021 421.505 477.942 416.739 476.179C411.973 474.416 405.279 480.635 401.788 490.07C398.297 499.505 399.331 508.583 404.098 510.347C408.864 512.11 415.557 505.891 419.048 496.456Z" fill="white"/>
<path d="M441.396 454.461C437.64 461.187 431.708 471.894 425.148 482.913C415.759 498.677 405.102 515.063 397.761 521.241C384.985 531.988 338.959 531.359 309.62 527.445C301.921 526.418 297.497 518.335 301.816 511.871C308.878 501.294 314.955 490.791 319.881 481.586C324.545 472.874 328.179 465.332 330.633 459.978C332.885 455.066 338.123 452.264 343.464 453.066C389.885 460.081 423.031 453.511 437.489 449.475C440.428 448.654 442.886 451.787 441.396 454.461Z" fill="white"/>
<g opacity="0.3">
<path d="M413.041 502.218C408.503 508.983 404.118 514.889 400.335 518.799C399.443 519.733 398.581 520.553 397.76 521.241C384.985 531.988 338.959 531.359 309.62 527.445C301.921 526.418 297.496 518.335 301.815 511.871C308.878 501.294 314.955 490.791 319.88 481.586C321.373 489.905 328.017 507.848 357.454 514.094C365.075 515.705 373.043 514.71 380.927 512.071C379.793 508.502 380.464 502.105 382.963 495.347C386.447 485.912 392.185 479.337 395.761 480.659C397.951 481.472 406.068 483.563 408.688 484.239C409.099 484.278 409.502 484.365 409.895 484.51C412.424 485.439 413.899 488.448 414.212 492.465C414.429 495.334 414.054 498.71 413.041 502.218Z" fill="#371A45"/>
</g>
<g opacity="0.3">
<path d="M413.041 502.218C414.054 498.71 414.429 495.334 414.212 492.465C418.13 489.294 421.813 486.043 425.148 482.913C421.226 489.502 417.076 496.203 413.041 502.218Z" fill="#371A45"/>
</g>
<path d="M349.64 534.22C336.4 534.22 321.872 533.294 309.069 531.587C303.748 530.877 299.302 527.646 297.176 522.944C295.18 518.529 295.605 513.648 298.342 509.551C312.079 488.991 322.092 468.577 326.838 458.238C329.847 451.682 336.943 447.858 344.091 448.937C389.132 455.738 421.234 449.672 436.361 445.45C439.329 444.622 442.477 445.65 444.382 448.07C446.29 450.492 446.551 453.799 445.048 456.493L444.137 458.126C434.063 476.193 413.101 513.787 400.448 524.432C393.894 529.947 380.31 533.17 360.074 534.012C356.731 534.152 353.233 534.22 349.64 534.22ZM341.663 457.11C338.597 457.11 335.73 458.893 334.431 461.723C329.581 472.288 319.347 493.152 305.289 514.192C303.784 516.445 304.33 518.486 304.789 519.502C305.719 521.558 307.732 522.979 310.174 523.305C342.817 527.658 384.557 526.883 395.068 518.039C406.549 508.38 427.775 470.313 436.839 454.058L436.891 453.964C420.487 458.324 387.797 463.986 342.843 457.198C342.448 457.139 342.054 457.11 341.663 457.11Z" fill="#371A45"/>
<path d="M409.54 495.541C407.105 502.124 404.823 510.523 404.823 510.523C404.823 510.523 391.013 506.872 389.931 506.472C386.351 505.147 386.278 496.425 389.769 486.99C393.259 477.555 398.991 470.98 402.571 472.305C405.191 473.274 416.314 476.089 416.314 476.089C416.314 476.089 410.476 493.01 409.54 495.541Z" fill="#22A7F0"/>
<g opacity="0.8">
<path d="M416.309 476.09C416.309 476.09 410.474 493.004 409.544 495.542C407.104 502.121 404.826 510.526 404.826 510.526C404.826 510.526 404.551 510.45 404.083 510.332C404.929 507.591 405.975 504.298 407.059 501.378C407.999 498.842 413.836 481.918 413.836 481.918C413.836 481.918 402.708 479.106 400.086 478.142C397.186 477.062 392.848 481.197 389.451 487.855C389.559 487.564 389.656 487.283 389.764 486.993C393.257 477.558 398.986 470.982 402.571 472.306C405.193 473.27 416.309 476.09 416.309 476.09Z" fill="white"/>
</g>
<g opacity="0.3">
<path d="M408.441 498.697C406.454 504.526 404.826 510.525 404.826 510.525C404.826 510.525 391.017 506.868 389.931 506.469C386.356 505.146 386.281 496.428 389.764 486.992C390.942 483.81 392.373 480.949 393.897 478.609C391.474 486.811 391.885 493.876 395.067 495.053C395.929 495.366 404.815 497.734 408.441 498.697Z" fill="#371A45"/>
</g>
<path d="M404.825 514.005C404.531 514.005 404.231 513.967 403.933 513.888C399.733 512.778 389.841 510.15 388.723 509.737C382.026 507.259 382.878 495.583 386.504 485.782C388.334 480.833 390.823 476.409 393.512 473.325C398.148 468.007 401.935 468.358 403.779 469.04C405.785 469.782 414.124 471.943 417.168 472.714C418.112 472.952 418.913 473.577 419.376 474.434C419.839 475.291 419.922 476.303 419.605 477.224C419.366 477.916 413.744 494.21 412.806 496.748C410.454 503.105 408.205 511.353 408.183 511.435C407.761 512.984 406.358 514.005 404.825 514.005ZM391.298 503.256C392.474 503.615 397.327 504.928 402.407 506.28C403.309 503.183 404.753 498.447 406.275 494.333C406.923 492.581 410.027 483.622 411.791 478.52C408.329 477.618 403.459 476.314 401.533 475.632C400.217 475.937 396.149 479.776 393.034 488.198C389.932 496.583 390.503 502.132 391.298 503.256Z" fill="#371A45"/>
<path d="M419.048 496.456C422.539 487.021 421.505 477.942 416.739 476.179C411.973 474.416 405.279 480.635 401.788 490.07C398.297 499.505 399.331 508.583 404.098 510.347C408.864 512.11 415.557 505.891 419.048 496.456Z" fill="#22A7F0"/>
<g opacity="0.8">
<path d="M419.006 496.426C418.774 497.043 418.535 497.639 418.279 498.223C419.891 490.71 418.494 484.256 414.564 482.795C410.109 481.147 403.961 486.481 400.33 494.898C400.673 493.316 401.144 491.685 401.746 490.046C405.239 480.612 411.933 474.386 416.696 476.155C421.461 477.914 422.499 486.992 419.006 496.426Z" fill="white"/>
</g>
<g opacity="0.3">
<path d="M418.693 497.229C415.136 506.215 408.69 512.026 404.056 510.318C399.292 508.558 398.263 499.482 401.746 490.047C403.573 485.114 406.267 481.062 409.109 478.565C409.006 478.826 408.903 479.088 408.809 479.35C405.326 488.786 406.354 497.862 411.129 499.623C413.392 500.468 416.1 499.489 418.693 497.229Z" fill="#371A45"/>
</g>
<path d="M405.783 514.108C404.781 514.108 403.799 513.935 402.852 513.585C396.071 511.076 394.193 500.436 398.485 488.836C400.359 483.771 403.161 479.337 406.376 476.349C410.212 472.785 414.307 471.557 417.907 472.888C424.688 475.396 426.565 486.036 422.274 497.636C420.4 502.701 417.598 507.136 414.383 510.124C411.556 512.75 408.589 514.108 405.783 514.108ZM414.99 479.336C414.001 479.336 412.555 480.112 411.116 481.449C408.719 483.676 406.495 487.249 405.015 491.252C403.534 495.254 402.897 499.414 403.267 502.664C403.531 504.979 404.316 506.702 405.268 507.054C406.219 507.407 407.937 506.609 409.643 505.023C412.04 502.796 414.264 499.223 415.744 495.221C417.225 491.218 417.862 487.058 417.492 483.808C417.228 481.493 416.443 479.77 415.491 479.418C415.342 479.363 415.174 479.336 414.99 479.336Z" fill="#371A45"/>
<path d="M343.795 533.469C343.207 533.469 342.611 533.32 342.065 533.006C340.398 532.049 339.822 529.921 340.779 528.254L357.326 499.44L349.41 492.355C348.294 491.356 347.942 489.755 348.536 488.38L363.306 454.199C364.069 452.435 366.118 451.622 367.883 452.385C369.648 453.147 370.46 455.196 369.698 456.961L355.922 488.84L364.072 496.133C365.297 497.23 365.588 499.034 364.769 500.461L346.817 531.721C346.173 532.842 345.001 533.469 343.795 533.469Z" fill="#371A45"/>
<path d="M124.569 583.907C123.491 583.907 122.414 583.493 121.596 582.665C112.539 573.494 107.373 561.103 106.243 545.838C105.365 533.977 106.922 520.346 110.87 505.325C117.521 480.022 128.544 459.666 129.011 458.812C130.116 456.787 132.654 456.041 134.679 457.146C136.704 458.251 137.45 460.788 136.345 462.814C136.205 463.071 125.28 483.286 118.912 507.597C113.201 529.397 110.063 559.098 127.541 576.795C129.162 578.436 129.145 581.081 127.504 582.702C126.69 583.506 125.629 583.907 124.569 583.907Z" fill="#371A45"/>
<path d="M539.861 400.434C539.764 400.434 539.666 400.431 539.568 400.424C516.523 398.826 500.242 384.135 492.483 357.939C486.826 338.841 487.706 320.495 487.747 319.723C487.867 317.419 489.829 315.65 492.136 315.769C494.44 315.889 496.21 317.854 496.09 320.158C496.075 320.46 495.272 338.076 500.549 355.75C507.344 378.512 520.666 390.738 540.146 392.089C542.448 392.249 544.184 394.244 544.024 396.546C543.871 398.749 542.036 400.434 539.861 400.434Z" fill="#371A45"/>
<path d="M652.751 283.851C652.077 284.344 651.372 284.792 650.661 285.231C650.309 285.458 649.934 285.645 649.564 285.838C649.194 286.035 648.817 286.217 648.443 286.406C647.699 286.793 646.911 287.077 646.138 287.398C645.362 287.718 644.567 287.957 643.774 288.21C640.595 289.199 637.368 289.654 634.309 290.03C631.244 290.4 628.308 290.697 625.373 291.184C622.437 291.659 619.501 292.336 616.461 293.135L616.453 293.137C616.125 293.223 615.788 293.027 615.702 292.698C615.643 292.474 615.716 292.246 615.873 292.096C618.19 289.888 620.869 288.016 623.737 286.479C626.603 284.937 629.639 283.747 632.547 282.69C635.461 281.638 638.208 280.625 640.842 279.618C641.494 279.35 642.167 279.131 642.805 278.85L643.78 278.464L644.272 278.279C644.432 278.21 644.591 278.138 644.753 278.073C645.396 277.798 646.056 277.563 646.707 277.292C647.358 277.021 648.015 276.759 648.703 276.542L649.004 276.447C651.219 275.75 653.58 276.979 654.278 279.194C654.834 280.957 654.162 282.815 652.751 283.851Z" fill="#371A45"/>
<path d="M624.381 255.435L624.086 255.926C624 256.063 623.914 256.201 623.824 256.336C623.652 256.594 623.47 256.855 623.289 257.098C622.927 257.592 622.542 258.051 622.154 258.504C621.37 259.398 620.536 260.23 619.666 261.009C617.935 262.581 616.028 263.928 614.091 265.209C612.155 266.493 610.152 267.671 608.095 268.766C607.059 269.302 606.015 269.825 604.947 270.313C604.411 270.554 603.871 270.788 603.321 271.011C602.777 271.239 602.224 271.455 601.66 271.655C601.33 271.772 600.968 271.6 600.851 271.27C600.786 271.087 600.81 270.893 600.902 270.738L600.907 270.729C601.213 270.214 601.53 269.715 601.856 269.228C602.177 268.735 602.507 268.254 602.841 267.779C603.499 266.82 604.178 265.892 604.864 264.975C606.225 263.135 607.627 261.362 609.023 259.614C610.432 257.877 611.811 256.14 613.288 254.548C614.023 253.747 614.768 252.971 615.539 252.235C615.922 251.868 616.307 251.505 616.699 251.162C616.898 250.989 617.084 250.823 617.285 250.66C617.378 250.581 617.476 250.505 617.572 250.428L617.708 250.327L617.776 250.279C617.796 250.268 617.802 250.272 617.815 250.268L619.816 249.638C621.894 248.985 624.109 250.14 624.763 252.218C625.115 253.334 624.936 254.503 624.381 255.435Z" fill="#371A45"/>
<path d="M175.996 441.714C195.535 505.118 296.958 515.35 306.641 482.766C309.917 471.74 300.999 464.828 300.999 464.828C300.999 464.828 215.101 465.179 192.572 411.229C192.572 411.229 169.223 419.735 175.996 441.714Z" fill="white"/>
<g opacity="0.3">
<path d="M175.996 441.709C195.54 505.115 296.964 515.351 306.646 482.764C307.945 478.391 307.323 474.658 306.103 471.747C286.099 504.094 186.458 480.998 181.283 421.919C181.204 421.016 180.791 420.203 180.616 419.383C176.166 424.284 172.872 431.557 175.996 441.709Z" fill="#371A45"/>
</g>
<path d="M267.896 505.544C249.044 505.544 228.621 500.117 211.777 490.622C191.475 479.176 177.544 462.744 171.491 443.102C167.292 429.475 172.958 420.22 178.451 414.856C184.102 409.337 190.681 406.9 190.959 406.799C193.326 405.937 195.952 407.087 196.922 409.412C205.657 430.328 225.626 445.214 256.275 453.656C279.686 460.105 300.772 460.121 300.983 460.114C300.988 460.114 300.993 460.114 300.998 460.114C302.043 460.114 303.061 460.461 303.888 461.102C304.356 461.465 315.308 470.151 311.16 484.109C307.206 497.415 291.217 505.428 268.389 505.543C268.226 505.543 268.06 505.544 267.896 505.544ZM190.32 417.594C188.647 418.589 186.66 419.979 184.848 421.79C179.673 426.959 178.251 433.022 180.501 440.326C191.69 476.633 233.776 496.115 267.892 496.116C268.043 496.116 268.192 496.115 268.342 496.114C286.513 496.023 299.457 490.394 302.123 481.423C303.848 475.617 300.817 471.352 299.113 469.517C293.235 469.379 274.721 468.487 253.988 462.806C239.39 458.806 226.739 453.244 216.386 446.274C204.744 438.437 195.995 428.805 190.32 417.594Z" fill="#371A45"/>
<path d="M18.206 389.43C18.206 389.43 17.0212 397.393 21.5533 403.443C23.8247 406.467 27.4914 409.674 31.9012 412.837C35.8216 415.652 40.3075 418.422 44.9113 421.022C55.0741 426.74 65.8011 431.57 72.1291 433.902C85.4381 438.807 100.598 441.309 116.402 441.803C138.005 442.479 160.806 439.415 181.763 433.659C201.459 428.248 219.52 420.449 233.381 411.137L243.237 396.558L256.707 376.636L304.384 306.132L315.216 290.118C314.742 290.387 304.233 296.382 287.568 304.626C285.976 305.41 284.34 306.213 282.647 307.035C263.71 316.219 238.222 327.566 210.886 336.864C168.323 351.36 121.252 360.909 87.352 349.675C47.869 336.586 29.2226 327.007 19.342 337.447C9.31569 348.039 21.3912 362.164 21.3912 362.164C21.3912 362.164 12.6727 368.359 12.6176 377.329C12.5624 384.443 18.206 389.43 18.206 389.43Z" fill="white"/>
<g opacity="0.35">
<path d="M72.0742 379.218C72.0742 379.218 72.4421 381.487 74.2365 385.007C73.0888 381.515 72.0742 379.218 72.0742 379.218Z" fill="#371A45"/>
</g>
<g opacity="0.35">
<path d="M31.9011 412.836C35.8216 415.651 40.3074 418.422 44.9113 421.021C55.074 426.74 65.801 431.569 72.1291 433.901C85.438 438.807 100.598 441.308 116.402 441.803C138.005 442.478 160.806 439.414 181.763 433.659C201.459 428.248 219.52 420.449 233.381 411.136C236.477 406.556 231.982 400.669 226.75 402.455C199.83 411.643 155.746 424.566 132.938 419.651C92.586 410.946 78.8055 393.931 74.2367 385.007C77.5735 395.069 82.0406 415.077 66.6192 418.647C60.7184 420.015 42.7339 417.401 31.9011 412.836Z" fill="#371A45"/>
</g>
<path d="M316.005 291.47C314.625 292.677 313.221 293.796 311.786 294.883C310.353 295.972 308.897 297.02 307.426 298.041C304.481 300.079 301.476 302.015 298.42 303.857C292.309 307.545 285.984 310.833 279.61 314.017C266.859 320.391 253.656 325.814 240.375 331.006C233.726 333.584 227.066 336.142 220.346 338.551C213.626 340.962 206.854 343.243 200.023 345.362C186.358 349.586 172.459 353.192 158.285 355.747C151.2 357.022 144.045 358.031 136.823 358.637C129.603 359.245 122.318 359.485 115.004 359.172L112.26 359.009L110.887 358.926C110.43 358.891 109.972 358.843 109.515 358.803L106.77 358.546C105.855 358.452 104.941 358.317 104.027 358.203C102.197 357.996 100.375 357.655 98.5512 357.353C98.0947 357.282 97.6405 357.188 97.1865 357.09L95.8244 356.804L94.4622 356.517C94.2355 356.468 94.008 356.423 93.7816 356.37L93.1048 356.197L90.3981 355.504C90.1728 355.445 89.9464 355.392 89.7222 355.327L89.0515 355.122L87.7103 354.713C85.8783 354.174 84.2405 353.601 82.5449 353.039C79.1751 351.903 75.8114 350.754 72.4599 349.591C65.757 347.275 59.0877 344.893 52.4572 342.701C49.1433 341.611 45.835 340.565 42.5599 339.692C41.7416 339.476 40.9231 339.258 40.1121 339.072C39.2964 338.867 38.4921 338.705 37.6856 338.532C36.0842 338.224 34.4903 337.949 32.9667 337.826C31.4449 337.701 29.9803 337.692 28.6588 337.856C27.3337 338.02 26.1749 338.354 25.1703 338.873C24.163 339.391 23.2799 340.103 22.4472 341.057C21.6158 342.009 21.0079 343.019 20.6116 344.089C20.2175 345.161 20.0635 346.321 20.0869 347.561C20.1189 348.803 20.3826 350.129 20.8012 351.468C21.2374 352.808 21.8345 354.161 22.5633 355.475C22.9287 356.131 23.3225 356.779 23.7408 357.406C23.9483 357.721 24.1652 358.028 24.3822 358.326C24.4902 358.473 24.6008 358.621 24.7075 358.759L24.9757 359.096L28.0559 362.98L24.1232 366.004L23.9098 366.168L23.613 366.408C23.4113 366.576 23.2066 366.75 23.005 366.933C22.6006 367.295 22.2046 367.678 21.825 368.073C21.0638 368.862 20.3701 369.702 19.7671 370.565C18.5618 372.294 17.7411 374.121 17.4587 375.888C17.4233 376.109 17.3879 376.33 17.374 376.55C17.345 376.771 17.3428 376.99 17.3342 377.209C17.3247 377.32 17.3283 377.428 17.3378 377.535L17.3534 377.858L17.3626 378.182C17.3707 378.29 17.3943 378.398 17.4077 378.507C17.4458 378.724 17.4509 378.941 17.5054 379.16C17.5584 379.378 17.6077 379.597 17.6536 379.817C17.7906 380.254 17.9157 380.696 18.107 381.135C18.4657 382.014 18.9439 382.89 19.519 383.726L19.7346 384.039L19.966 384.343C20.1153 384.55 20.2818 384.741 20.4411 384.939C20.6046 385.126 20.7703 385.323 20.9349 385.493C21.0179 385.583 21.0992 385.668 21.1758 385.742L21.2844 385.85C21.3112 385.876 21.3657 385.927 21.3268 385.892L22.8694 390.118L22.8708 390.111C22.8713 390.106 22.8713 390.106 22.8696 390.122L22.8621 390.19C22.8568 390.232 22.8515 390.282 22.8471 390.342C22.8376 390.454 22.8259 390.562 22.8201 390.686C22.8022 390.923 22.795 391.171 22.7878 391.42C22.78 391.669 22.7872 391.923 22.7841 392.174L22.8128 392.933C22.868 393.945 23.0139 394.94 23.2328 395.887C23.3272 396.369 23.4829 396.817 23.6138 397.275C23.7815 397.71 23.9243 398.16 24.1296 398.563C24.3 398.992 24.5415 399.362 24.7481 399.757C24.8601 399.947 24.9949 400.117 25.113 400.3L25.2934 400.573C25.3514 400.664 25.4463 400.767 25.5204 400.864C26.7583 402.444 28.3814 404.035 30.1493 405.528C31.9209 407.028 33.832 408.459 35.8071 409.835C39.766 412.585 43.9838 415.112 48.2856 417.503C52.592 419.893 57.0096 422.131 61.48 424.233C63.7158 425.282 65.9672 426.296 68.2253 427.258C69.3541 427.739 70.4848 428.204 71.6124 428.651C72.7423 429.1 73.851 429.52 75.0015 429.901C76.1442 430.287 77.2785 430.694 78.4273 431.065L81.9089 432.09L82.7794 432.345L83.6626 432.566L85.4285 433.007L87.1942 433.449C87.7838 433.593 88.3837 433.703 88.9777 433.832C98.4877 435.903 108.288 436.867 118.113 437.125C120.573 437.14 123.032 437.209 125.495 437.134L127.342 437.101C127.957 437.092 128.573 437.084 129.188 437.049L132.882 436.886C137.805 436.603 142.729 436.211 147.63 435.585C157.441 434.419 167.169 432.525 176.751 430.113C181.532 428.869 186.269 427.454 190.91 425.782L191.783 425.48L192.65 425.158L194.381 424.512C195.532 424.077 196.694 423.668 197.833 423.204C198.979 422.757 200.125 422.313 201.276 421.881C202.417 421.429 203.553 420.964 204.701 420.526C205.273 420.302 205.85 420.09 206.418 419.859L208.124 419.168L209.838 418.494L210.697 418.159L211.546 417.807C212.679 417.336 213.816 416.873 214.965 416.428C216.1 415.961 217.235 415.491 218.387 415.046C219.548 414.615 220.675 414.128 221.837 413.689C222.415 413.465 222.994 413.241 223.581 413.03C223.877 412.927 224.161 412.806 224.449 412.691L225.321 412.354C225.9 412.126 226.491 411.914 227.081 411.698C227.376 411.588 227.677 411.488 227.974 411.382C228.275 411.281 228.561 411.159 228.86 411.054C230.041 410.612 231.248 410.197 232.502 409.832L232.568 409.813C233.431 409.562 234.335 410.058 234.586 410.922C234.745 411.468 234.598 412.038 234.256 412.441C233.391 413.443 232.479 414.396 231.541 415.321C231.078 415.796 230.587 416.224 230.097 416.658C229.604 417.087 229.111 417.52 228.608 417.938C227.615 418.799 226.574 419.582 225.519 420.347C224.467 421.118 223.408 421.889 222.306 422.574C221.21 423.272 220.106 423.963 218.987 424.624C217.857 425.26 216.715 425.877 215.568 426.485L214.709 426.943C214.421 427.091 214.128 427.23 213.837 427.372L212.088 428.22L210.33 429.05C209.746 429.332 209.145 429.569 208.552 429.828C203.814 431.929 198.896 433.546 193.972 435.078L190.265 436.183C189.031 436.552 187.784 436.877 186.545 437.226L184.687 437.753C184.067 437.926 183.442 438.081 182.821 438.25L179.092 439.246C169.113 441.759 158.996 443.727 148.771 444.944C143.665 445.595 138.526 446.006 133.38 446.301L129.516 446.472C128.872 446.507 128.227 446.516 127.581 446.527L125.646 446.561C123.067 446.637 120.481 446.568 117.898 446.551C107.565 446.28 97.1968 445.268 86.984 443.046C86.3459 442.908 85.7048 442.79 85.0696 442.634L83.1652 442.159L81.2611 441.683L80.3091 441.444L79.3648 441.168L75.5891 440.055C74.3384 439.652 73.0974 439.209 71.8514 438.787C70.6081 438.374 69.3574 437.9 68.1437 437.418C66.9269 436.936 65.7258 436.441 64.5346 435.933C62.1526 434.918 59.8037 433.861 57.4738 432.767C52.8162 430.577 48.2299 428.254 43.7151 425.75C39.2023 423.24 34.7524 420.58 30.424 417.575C28.2611 416.068 26.1281 414.476 24.0488 412.717C21.9729 410.951 19.9426 409.024 18.0641 406.634C17.9466 406.481 17.8296 406.349 17.7121 406.178L17.3615 405.668C17.1331 405.325 16.89 404.988 16.6805 404.637C16.2823 403.926 15.8634 403.217 15.552 402.478C15.1981 401.748 14.9399 401.001 14.6681 400.255C14.4397 399.505 14.1999 398.752 14.0434 397.998C13.6961 396.489 13.4833 394.978 13.3995 393.471L13.3569 392.34C13.3578 391.96 13.3505 391.584 13.3614 391.203C13.3717 390.822 13.3848 390.44 13.4129 390.048C13.4229 389.857 13.4427 389.651 13.4605 389.449C13.4686 389.352 13.4795 389.245 13.4931 389.13L13.5123 388.964L13.5427 388.734L15.0853 392.959C14.9229 392.814 14.8583 392.75 14.765 392.661L14.5194 392.42C14.3595 392.263 14.2116 392.108 14.0693 391.955C13.7744 391.647 13.5104 391.339 13.2402 391.026C12.9807 390.709 12.7161 390.396 12.4741 390.068L12.1051 389.58L11.7547 389.076C10.8276 387.728 10.0191 386.27 9.37575 384.695C9.04462 383.914 8.78728 383.085 8.54499 382.253L8.25229 380.971C8.15676 380.544 8.11499 380.097 8.04982 379.66C8.02253 379.44 7.98743 379.221 7.96933 378.999L7.93647 378.33L7.91001 377.66C7.89887 377.436 7.89636 377.213 7.90806 376.992C7.92171 376.549 7.93703 376.106 7.9866 375.667C8.02142 375.226 8.08435 374.792 8.15481 374.358C8.43052 372.623 8.96162 370.974 9.62668 369.437C10.297 367.9 11.1211 366.484 12.0332 365.173C12.9486 363.863 13.9529 362.656 15.0315 361.536C15.5707 360.976 16.128 360.437 16.7103 359.914C17 359.652 17.3002 359.396 17.6074 359.14L18.0842 358.756L18.3393 358.558L18.6626 358.319L17.8104 365.226L17.5018 364.849L17.2495 364.528C17.0849 364.316 16.9309 364.109 16.7774 363.9C16.4733 363.483 16.1801 363.067 15.9002 362.644C15.3368 361.799 14.8107 360.934 14.3158 360.045C13.3299 358.264 12.4799 356.372 11.8227 354.346C11.1835 352.314 10.7282 350.139 10.6627 347.841C10.6034 345.551 10.9181 343.141 11.7444 340.886C12.5637 338.632 13.8382 336.579 15.3332 334.87C16.8164 333.155 18.7136 331.582 20.8586 330.489C22.9997 329.382 25.3054 328.769 27.4869 328.502C29.6781 328.232 31.7694 328.271 33.7712 328.434C37.7644 328.794 41.4314 329.642 44.9953 330.585C48.5582 331.536 51.9993 332.627 55.4071 333.747C62.2142 335.998 68.8737 338.378 75.5468 340.684C78.8807 341.84 82.2133 342.979 85.5489 344.103C87.2112 344.655 88.9153 345.247 90.4797 345.702L91.6764 346.068L92.2746 346.252C92.4749 346.311 92.6798 346.357 92.882 346.41L95.3167 347.033L95.9252 347.19C96.1293 347.238 96.3363 347.278 96.5418 347.322L97.7764 347.581L99.0107 347.842C99.4215 347.931 99.8331 348.017 100.251 348.08C101.918 348.354 103.575 348.669 105.262 348.858C106.104 348.961 106.941 349.087 107.785 349.174L110.325 349.41C110.748 349.448 111.171 349.494 111.595 349.526L112.872 349.601L115.425 349.754C122.252 350.047 129.141 349.823 136.021 349.244C142.903 348.668 149.778 347.699 156.62 346.468C170.307 344.001 183.859 340.491 197.232 336.358C203.918 334.283 210.561 332.046 217.162 329.678C223.762 327.307 230.328 324.821 236.816 322.135L241.676 320.106L246.512 318.017C249.728 316.606 252.94 315.185 256.137 313.729L275.327 305.009C281.735 302.119 288.104 299.143 294.591 296.384C297.834 295.001 301.102 293.662 304.401 292.371C306.053 291.729 307.709 291.094 309.383 290.488C311.051 289.878 312.745 289.287 314.441 288.745L314.461 288.739C315.304 288.469 316.206 288.934 316.476 289.777C316.677 290.403 316.47 291.063 316.005 291.47Z" fill="#371A45"/>
<path d="M543.226 264.625C434.494 489.524 116.848 349.703 197.643 123.103C303.483 -109.754 631.69 35.0846 543.226 264.625Z" fill="white"/>
<path d="M543.226 264.625C434.494 489.524 116.848 349.703 197.643 123.103C303.483 -109.754 631.69 35.0846 543.226 264.625Z" fill="white"/>
<g opacity="0.35">
<path d="M205.279 335.752C215.697 348.299 227.716 359.41 240.904 368.868C244.468 371.413 248.114 373.849 251.84 376.165C295.888 403.497 350.629 413.451 401.597 399.41C417.419 395.059 432.877 388.39 447.546 379.208C448.489 366.956 448.976 353.958 448.977 340.17C448.963 332.964 448.823 325.546 448.543 317.905L300.287 304.524L311.293 288.251C310.812 288.525 300.134 294.616 283.199 302.993L278.935 302.604C278.695 303.557 278.452 304.498 278.198 305.441C258.955 314.773 233.056 326.303 205.279 335.752Z" fill="#371A45"/>
</g>
<path d="M543.226 264.625C434.494 489.524 116.848 349.703 197.643 123.103C303.483 -109.754 631.69 35.0846 543.226 264.625Z" fill="white"/>
<path d="M374.53 382.124C349.151 382.124 323.443 376.961 298.918 366.695C277.444 357.707 257.968 345.28 241.03 329.762C223.54 313.737 209.536 295.102 199.409 274.375C176.97 228.453 175.247 175.747 194.426 121.957L194.534 121.691C219.379 67.0308 258.317 28.9763 307.141 11.6416C329.084 3.85059 352.349 0.466839 376.289 1.58418C399.313 2.65863 422.015 7.83038 443.765 16.9554C465.588 26.1111 485.339 38.7745 502.471 54.5944C520.181 70.949 534.259 89.9375 544.313 111.032C566.656 157.908 567.382 211.445 546.413 265.853L546.301 266.112C520.746 318.969 481.765 355.698 433.572 372.327C414.614 378.868 394.674 382.124 374.53 382.124ZM200.811 124.386C159.551 240.301 224.097 327.973 301.555 360.394C324.63 370.053 349.853 375.448 375.351 375.448C437.458 375.448 501.26 343.477 540.09 263.266C585.272 145.844 520.475 56.5442 441.123 23.2529C362.54 -9.71486 253.841 7.87827 200.811 124.386Z" fill="#371A45"/>
<g opacity="0.35">
<path d="M543.225 264.619C452.693 460.505 173.81 384.916 185.092 177.818C203.172 242.994 226.295 243.659 264.166 274.356C381.022 375.73 542.265 279.737 551.904 144.018C562.673 184.663 559.115 227.093 543.225 264.619Z" fill="#371A45"/>
</g>
<path d="M374.53 383.499C348.971 383.499 323.08 378.3 298.386 367.963C276.766 358.914 257.156 346.402 240.101 330.776C222.483 314.634 208.376 295.861 198.172 274.979C175.567 228.716 173.824 175.642 193.13 121.495L193.198 121.305L193.281 121.121C218.284 66.1134 257.497 27.8077 306.68 10.3449C328.792 2.49397 352.234 -0.915976 376.353 0.209721C399.538 1.29197 422.397 6.49909 444.296 15.6865C466.267 24.9043 486.153 37.6543 503.403 53.5831C521.242 70.057 535.424 89.1863 545.554 110.44C568.063 157.665 568.804 211.577 547.695 266.347L547.624 266.532L547.538 266.71C521.82 319.904 482.566 356.875 434.019 373.626C414.916 380.219 394.827 383.499 374.53 383.499ZM202.087 124.901C161.173 239.943 225.221 326.952 302.086 359.126C380.753 392.053 484.439 374.996 538.827 262.718C583.631 146.183 519.336 57.5576 440.59 24.5211C362.615 -8.19205 254.748 9.2855 202.087 124.901Z" fill="#293856"/>
<path d="M374.53 383.499C348.971 383.499 323.08 378.3 298.386 367.963C276.766 358.914 257.156 346.402 240.101 330.776C222.483 314.634 208.376 295.861 198.172 274.979C175.567 228.716 173.824 175.642 193.13 121.495L193.198 121.305L193.281 121.121C218.284 66.1134 257.497 27.8077 306.68 10.3449C328.792 2.49397 352.234 -0.915976 376.353 0.209721C399.538 1.29197 422.397 6.49909 444.296 15.6865C466.267 24.9043 486.153 37.6543 503.403 53.5831C521.242 70.057 535.424 89.1863 545.554 110.44C568.063 157.665 568.804 211.577 547.695 266.347L547.624 266.532L547.538 266.71C521.82 319.904 482.566 356.875 434.019 373.626C414.916 380.219 394.827 383.499 374.53 383.499ZM202.087 124.901C161.173 239.943 225.221 326.952 302.086 359.126C380.753 392.053 484.439 374.996 538.827 262.718C583.631 146.183 519.336 57.5576 440.59 24.5211C362.615 -8.19205 254.748 9.2855 202.087 124.901Z" fill="#371A45"/>
<path d="M519.078 305.934C348.041 443.224 157.848 247.971 281.392 100.967C429.777 -55.2833 647.446 123.458 519.078 305.934Z" fill="#371A45"/>
<path d="M550.501 170.167C579.631 366.243 301.407 423.077 245.354 248.185C350.491 340.817 511.616 272.692 550.501 170.167Z" fill="#21102B"/>
<path d="M392.799 376.268C374.773 376.268 356.723 373.313 339.089 367.47C319.603 361.014 301.457 351.326 285.157 338.675C268.497 325.746 254.511 310.286 243.585 292.725C232.087 274.243 224.367 254.011 220.64 232.592C216.656 209.693 217.324 185.785 222.624 161.532L222.652 161.412C228.748 136.598 240.301 113.487 256.99 92.7227C272.732 73.1369 292.976 56.1086 315.532 43.4789C338.152 30.813 363.342 22.4346 388.377 19.2496C414.969 15.8672 440.912 18.1301 465.488 25.9765L465.877 26.1004L466.238 26.2884C507.696 47.814 538.692 85.7527 553.517 133.116C567.519 177.851 565.365 226.491 547.605 266.565L547.591 266.599C536.649 290.79 522.759 311.516 506.305 328.199C490.909 343.81 473.32 355.857 454.025 364.004C435.859 371.676 416.474 375.789 396.408 376.228C395.205 376.255 394.002 376.268 392.799 376.268ZM231.97 163.638C210.824 260.527 271.361 334.937 342.102 358.376C403.668 378.775 492.132 365.951 538.851 262.674C571.487 189.008 548.447 80.0406 462.186 34.9799C416.757 20.6059 365.033 26.741 320.212 51.8383C275.446 76.9047 243.286 117.651 231.97 163.638Z" fill="#371A45"/>
<path d="M397.637 357.375C394.527 357.375 391.426 357.288 388.321 357.113C347.735 354.825 309.737 337.562 281.326 308.504C255.092 281.672 239.464 247.066 237.321 211.06C234.954 171.289 248.925 132.154 277.725 97.8849L277.919 97.6682C313.007 60.7204 354.441 39.6399 397.744 36.7062C436.673 34.068 474.919 46.3799 505.429 71.3728C536.649 96.9477 556.59 133.121 561.579 173.229C567.153 218.045 553.811 264.887 522.996 308.69L522.606 309.245L522.077 309.67C483.054 340.993 440.22 357.375 397.637 357.375ZM284.966 104.16C224.329 176.41 242.878 255.475 288.177 301.806C338.064 352.83 427.661 372.8 515.55 302.622C579.885 210.655 552.312 122.163 499.357 78.784C446.106 35.1617 359.178 26.0998 284.966 104.16Z" fill="#371A45"/>
<path d="M167.256 259.886C191.53 344.557 278.433 327.356 263.408 244.186C241.224 154.509 148.326 172.886 167.256 259.886Z" fill="white"/>
<g opacity="0.35">
<path d="M231.034 315.089C257.122 310.123 271.92 275.488 262.389 239.865C250.972 280.069 202.627 222.747 197.41 205.162C132.211 231.256 183.314 325.235 231.034 315.089Z" fill="#371A45"/>
</g>
<path d="M223.206 320.383C212.739 320.383 202.175 316.625 192.671 309.391C179.11 299.07 168.729 282.407 162.651 261.206L162.575 260.904C158.065 240.174 159.373 221.551 166.359 207.047C172.806 193.662 183.675 184.589 196.964 181.501C203.795 179.913 210.847 180.001 217.925 181.762C225.161 183.562 232.056 187.031 238.419 192.074C252.278 203.057 262.527 220.68 268.058 243.036L268.121 243.334C271.712 263.209 269.917 281.005 262.931 294.796C256.452 307.585 245.836 316.271 233.036 319.253C229.794 320.01 226.504 320.383 223.206 320.383ZM171.904 258.715C183.945 300.534 210.896 314.575 230.862 309.923C240.855 307.595 249.209 300.685 254.385 290.467C260.403 278.586 261.902 262.932 258.721 245.188C253.697 224.981 244.621 209.213 232.469 199.583C222.088 191.356 210.25 188.249 199.133 190.833C188.727 193.251 180.154 200.486 174.99 211.205C168.958 223.73 167.891 240.157 171.904 258.715Z" fill="#371A45"/>
<path d="M164.506 265.155C184.249 333.75 249.571 321.963 237.429 254.692C219.592 181.122 148.618 194.01 164.506 265.155Z" fill="white"/>
<path d="M208.563 316.017C200.138 316.017 191.566 312.722 183.824 306.398C173.191 297.712 164.92 283.909 159.903 266.48L159.831 266.199C156.042 249.23 156.735 234.041 161.836 222.273C166.634 211.204 175.022 203.771 185.453 201.341C196.41 198.789 208.454 202.26 218.498 210.862C229.424 220.219 237.58 234.984 242.084 253.564L242.143 253.842C245.05 269.946 243.882 284.301 238.766 295.355C233.925 305.816 225.773 312.859 215.813 315.184C213.424 315.742 211 316.017 208.563 316.017ZM169.15 263.97C173.628 279.45 180.796 291.554 189.885 298.978C197.512 305.207 205.945 307.65 213.634 305.854C227.064 302.718 238.167 285.99 232.74 255.683C224.332 221.194 203.693 206.93 187.626 210.672C180.225 212.396 174.187 217.869 170.626 226.084C166.349 235.95 165.84 249.048 169.15 263.97Z" fill="#371A45"/>
<g opacity="0.5">
<path d="M275.235 205.685C289.908 239.74 328.873 223.663 321.151 192.086C309.162 152.812 262.933 171.018 275.235 205.685Z" fill="white"/>
</g>
<g opacity="0.5">
<path d="M304.077 258.386C310.442 271.085 327.618 264.383 321.982 249.944C315.618 237.245 298.442 243.947 304.077 258.386Z" fill="white"/>
</g>
<g opacity="0.5">
<path d="M533.084 188.058C539.229 46.503 393.271 46.4387 353.377 81.2997C446.279 76.1318 494.16 127.919 533.084 188.058Z" fill="white"/>
</g>
<g opacity="0.35">
<path d="M242.946 270.118C242.972 260.077 240.245 249.993 235.59 241.044C229.039 289.948 178.799 275.03 163.498 242.453C161.763 313.784 237.033 337.578 242.946 270.118Z" fill="#371A45"/>
</g>
<path d="M250.581 192.486C248.385 192.486 245.698 191.812 242.484 189.923C240.204 188.582 239.442 185.647 240.782 183.366C242.123 181.085 245.059 180.323 247.34 181.664C249.4 182.875 250.374 182.92 250.601 182.91C250.908 182.59 251.662 181.148 251.868 177.775C252.034 175.048 251.747 172.621 251.745 172.597C251.42 169.972 253.284 167.58 255.91 167.255C258.537 166.93 260.928 168.795 261.253 171.42C261.27 171.56 261.672 174.873 261.413 178.634C260.999 184.644 259.119 188.788 255.825 190.952C254.562 191.781 252.828 192.486 250.581 192.486Z" fill="#371A45"/>
<path d="M94.058 353.89C64.8838 345.578 42.1947 347.054 39.3534 354.823C37.2716 360.515 39.0356 369.735 50.9747 373.699C59.1277 376.406 70.8362 375.903 70.8362 375.903C70.8362 375.903 76.9116 394.156 86.682 401.541" fill="white"/>
<path d="M92.7661 358.424C84.7539 356.277 76.6409 354.507 68.5132 353.598C64.4585 353.138 60.3957 352.875 56.4399 352.992C54.4662 353.056 52.5175 353.194 50.6624 353.474C48.8163 353.75 47.0339 354.183 45.6305 354.79C45.2768 354.938 44.9652 355.101 44.6822 355.262C44.3987 355.423 44.1597 355.587 43.9782 355.739C43.7938 355.89 43.664 356.025 43.5833 356.126C43.559 356.151 43.5412 356.175 43.53 356.196C43.5111 356.217 43.498 356.236 43.4905 356.254C43.4755 356.271 43.4668 356.287 43.4615 356.302C43.4563 356.313 43.4538 356.307 43.4432 356.331L43.4011 356.449C42.9274 357.702 42.7575 359.212 42.9572 360.647C43.141 362.097 43.7016 363.483 44.558 364.743C45.4205 366.001 46.6108 367.128 48.0434 368.066C50.9195 369.97 54.6269 371.037 58.5752 371.706C60.5475 372.039 62.5703 372.284 64.6092 372.447C65.6285 372.531 66.6528 372.592 67.6768 372.637C68.1882 372.659 68.7014 372.678 69.2103 372.689L69.9717 372.703L70.6994 372.708L73.1964 372.725L73.871 374.893L74.1294 375.724L74.4115 376.59C74.6045 377.169 74.8062 377.749 75.0128 378.327C75.4177 379.488 75.8447 380.645 76.2911 381.794C77.1726 384.097 78.1287 386.373 79.1569 388.613C80.1882 390.853 81.3072 393.049 82.5663 395.171C82.7186 395.441 82.8813 395.702 83.045 395.963C83.2093 396.224 83.3681 396.492 83.5402 396.747L84.049 397.524L84.5818 398.285C85.3076 399.291 86.0743 400.278 86.9192 401.229L86.9243 401.234C87.0705 401.399 87.0557 401.651 86.8911 401.797C86.7652 401.909 86.5875 401.926 86.4458 401.855C84.0911 400.661 81.9979 398.948 80.1342 397.068C78.2665 395.18 76.6172 393.097 75.1209 390.927C74.7454 390.384 74.3837 389.835 74.0236 389.282C73.6757 388.724 73.3257 388.166 72.9909 387.601C72.3094 386.475 71.6853 385.32 71.0687 384.16C70.4674 382.993 69.8909 381.813 69.3456 380.616C69.0774 380.016 68.8142 379.412 68.5577 378.803L68.1776 377.881C68.0492 377.564 67.9347 377.276 67.8025 376.913L70.974 379.098L70.1042 379.147L69.2676 379.183C68.7112 379.206 68.1589 379.219 67.6047 379.23C66.498 379.25 65.3918 379.252 64.2828 379.23C62.0654 379.186 59.8373 379.069 57.5882 378.816C55.3387 378.559 53.0687 378.189 50.7527 377.564C49.5908 377.269 48.4439 376.865 47.2984 376.421C46.1563 375.955 45.0284 375.407 43.9264 374.767C41.7296 373.481 39.6402 371.764 37.9734 369.586C36.3049 367.418 35.1065 364.791 34.6178 362.027C34.3702 360.647 34.273 359.236 34.3655 357.824C34.4532 356.413 34.7008 355.001 35.1667 353.61L35.2525 353.349C35.2881 353.249 35.3394 353.121 35.3839 353.009C35.4742 352.775 35.5741 352.548 35.6853 352.33C35.7917 352.106 35.9072 351.893 36.0314 351.689C36.152 351.478 36.2799 351.278 36.4141 351.089C36.946 350.318 37.5482 349.669 38.1628 349.117C38.7791 348.562 39.4102 348.104 40.0368 347.712C40.6637 347.319 41.2917 346.975 41.9103 346.687C44.3923 345.526 46.7841 344.925 49.1315 344.481C51.479 344.047 53.7847 343.813 56.0684 343.704C60.6325 343.487 65.1043 343.685 69.5233 344.119C78.3498 345.044 86.9683 346.852 95.3503 349.356C97.8451 350.101 99.2635 352.728 98.5182 355.223C97.7866 357.672 95.2411 359.084 92.7875 358.429L92.7661 358.424Z" fill="#371A45"/>
<path d="M155.068 443.513C153.935 443.513 152.807 443.056 151.983 442.155C150.426 440.452 150.545 437.809 152.247 436.253C165.063 424.536 168.785 407.316 163.31 385.072C159.07 367.841 150.651 354.012 150.567 353.874C149.36 351.909 149.974 349.337 151.938 348.128C153.903 346.921 156.474 347.532 157.683 349.496C158.053 350.096 166.793 364.419 171.373 382.873C174.106 393.886 174.775 404.088 173.36 413.195C171.549 424.854 166.343 434.686 157.885 442.419C157.084 443.152 156.074 443.513 155.068 443.513Z" fill="#371A45"/>
<path d="M24.3048 359.165C25.0381 359.687 25.741 360.233 26.4273 360.796C27.1174 361.352 27.8122 361.865 28.4873 362.418C28.8218 362.7 29.1666 362.951 29.5108 363.204L30.5287 363.984C30.8607 364.258 31.2144 364.48 31.5561 364.731C31.9026 364.971 32.2384 365.229 32.5804 365.477C33.9835 366.414 35.3794 367.348 36.9028 368.229C37.6447 368.677 38.4362 369.121 39.2224 369.566L41.6484 370.904C44.9575 372.699 48.3452 374.653 51.5304 376.833C52.3239 377.386 53.1106 377.947 53.8935 378.508C54.6713 379.079 55.428 379.679 56.1839 380.276L57.3149 381.17C57.6855 381.477 58.0468 381.799 58.4119 382.112C59.1421 382.738 59.862 383.376 60.5691 384.029C60.8162 384.257 60.8315 384.642 60.6034 384.889C60.4374 385.069 60.1879 385.126 59.9692 385.056L59.9497 385.05C58.1208 384.457 56.368 383.757 54.5839 383.144L51.9323 382.198C51.0464 381.895 50.1641 381.592 49.289 381.281C45.7632 380.072 42.2689 378.993 38.6654 377.838C37.7513 377.537 36.8507 377.249 35.928 376.913L34.54 376.412C34.0777 376.255 33.6098 376.04 33.1444 375.856L32.4448 375.568C32.2111 375.473 31.9778 375.377 31.7472 375.261L30.3577 374.595C29.8901 374.382 29.4437 374.118 28.9906 373.866C28.5374 373.614 28.0866 373.358 27.6393 373.094C27.2065 372.811 26.7693 372.534 26.3418 372.243L25.6979 371.809C25.4806 371.666 25.2701 371.518 25.0707 371.359C24.2678 370.729 23.4281 370.119 22.6806 369.442C22.3071 369.102 21.9284 368.769 21.561 368.422C21.1937 368.078 20.813 367.74 20.4791 367.374C19.792 366.654 19.1216 365.918 18.4817 365.157C16.9906 363.383 17.2198 360.736 18.9938 359.245C20.4882 357.989 22.6021 357.954 24.1224 359.034L24.3048 359.165Z" fill="#371A45"/>
<path d="M21.4761 386.826C22.2985 387.482 23.0633 388.029 23.9673 388.528C24.8641 389.027 25.8945 389.487 27.0712 389.923C29.4276 390.784 32.2694 391.59 35.229 392.566C38.229 393.567 41.1015 394.772 43.8848 396.14C46.6665 397.515 49.3612 399.032 51.9284 400.835C52.2066 401.031 52.2738 401.415 52.0783 401.693C51.9471 401.88 51.7307 401.972 51.5185 401.953L51.5051 401.951C48.4366 401.666 45.4202 401.302 42.4463 400.948C39.4725 400.594 36.5318 400.254 33.6533 400.002C30.7413 399.717 27.6313 399.549 24.2592 398.564C22.5804 398.072 20.8211 397.356 19.1629 396.267C17.5114 395.187 15.9802 393.727 14.9361 392.026C13.7235 390.051 14.3421 387.467 16.3172 386.254C17.8631 385.305 19.782 385.477 21.1244 386.544L21.4761 386.826Z" fill="#371A45"/>
<path d="M62.4302 459.427C61.808 463.259 61.5819 467.119 61.5663 470.954C61.5799 471.914 61.5638 472.869 61.6019 473.825L61.7233 476.685L61.9498 479.53C61.9798 480.003 62.0372 480.474 62.0963 480.946L62.2664 482.356L62.436 483.762L62.6658 485.16C62.8265 486.09 62.9582 487.02 63.1406 487.941C63.5459 489.778 63.8851 491.612 64.4106 493.403C65.3099 497.014 66.6196 500.481 67.9807 503.857L68.0361 503.995C69.0159 506.425 67.8398 509.19 65.4093 510.17C62.9788 511.15 60.2142 509.973 59.2344 507.543C59.1166 507.251 59.0261 506.928 58.969 506.629C58.2212 502.574 57.5951 498.538 57.4227 494.487C57.2601 492.472 57.2946 490.449 57.2693 488.446C57.2771 487.443 57.3372 486.44 57.3695 485.441L57.4303 483.946L57.5531 482.454L57.6767 480.966C57.7157 480.471 57.7567 479.977 57.8252 479.484L58.1911 476.533L58.664 473.606C58.8242 472.634 59.0383 471.669 59.2227 470.704C60.029 466.856 61.0471 463.062 62.4302 459.427Z" fill="#371A45"/>
</svg>
