<svg width="437" height="426" viewBox="0 0 437 426" fill="none" xmlns="http://www.w3.org/2000/svg">
<path d="M0 370.051C0 400.694 24.1883 425.541 54.0196 425.541H382.98C412.812 425.541 437 400.694 437 370.051V55.4898C437 24.8466 412.812 0 382.98 0H54.0196C24.1883 0 0 24.8466 0 55.4898V370.051Z" fill="white"/>
<path d="M142.416 42.1895H45.8354V137.923H142.416V42.1895Z" fill="#1A1A1A"/>
<path d="M142.422 42.1895H197.609V55.8685H211.409V42.1895H239.009V55.8685H225.202V69.5475H211.409V83.22H225.202V96.9056H211.409V110.578H197.609V124.251H183.815V96.9056H197.609V83.22H183.815V55.8685H156.215V137.93H170.015V124.251H183.815V151.609H114.829V165.288H101.029V178.96H73.4354V165.288H87.2288V151.609H73.4354V165.288H45.8354V137.93H142.422V42.1895Z" fill="white"/>
<path d="M211.415 42.1895H197.609V55.8685H211.415V42.1895Z" fill="#1A1A1A"/>
<path d="M252.802 42.1895H239.009V55.8685H252.802V42.1895Z" fill="#1A1A1A"/>
<path d="M252.802 42.1895H294.195V137.93H390.775V165.288H376.982V151.609H307.989V165.288H294.195V151.609H266.602V165.288H280.395V192.633H294.195V233.663H321.789V206.312H335.589V261.021H321.789V247.349H307.989V261.021H280.395V206.312H266.602V247.349H239.009V261.021H225.202V247.349H211.409V233.663H183.815V247.349H170.015V233.663H156.215V219.991H142.422V206.312H114.829V219.991H101.029V206.312H87.2288V219.991H101.029V233.663H114.829V247.349H101.029V261.021H45.8354V247.349H87.2288V233.663H73.4354V219.991H59.6354V233.663H45.8354V206.312H73.4354V192.633H114.829V165.288H156.215V178.96H170.015V192.633H197.609V206.312H183.815V219.991H211.409V178.96H225.202V206.312H239.009V219.991H225.202V233.663H252.802V206.312H239.009V192.633H266.602V178.96H239.009V137.93H252.802V96.9056H239.009V83.22H225.202V69.5475H239.009V55.8685H252.802V42.1895Z" fill="white"/>
<path d="M390.782 42.1895H294.196V137.923H390.782V42.1895Z" fill="#1A1A1A"/>
<path d="M128.622 55.8696H59.635V124.252H128.622V55.8696Z" fill="white"/>
<path d="M156.215 55.8696H183.815V83.2212H170.015V96.9067H183.815V124.252H170.015V137.931H156.215V55.8696Z" fill="#1A1A1A"/>
<path d="M239.01 55.8696H225.203V69.5487H239.01V55.8696Z" fill="#1A1A1A"/>
<path d="M280.396 55.8696H266.603V110.579H280.396V55.8696Z" fill="#1A1A1A"/>
<path d="M376.975 55.8696H307.989V124.252H376.975V55.8696Z" fill="white"/>
<path d="M114.83 69.5464H73.4363V110.583H114.83V69.5464Z" fill="#1A1A1A"/>
<path d="M225.202 69.5464H211.408V83.2254H225.202V69.5464Z" fill="#1A1A1A"/>
<path d="M363.183 69.5464H321.79V110.583H363.183V69.5464Z" fill="#1A1A1A"/>
<path d="M183.816 83.2202H170.016V96.8992H183.816V83.2202Z" fill="white"/>
<path d="M197.609 83.2202H183.816V96.8992H197.609V83.2202Z" fill="#1A1A1A"/>
<path d="M225.202 83.2202H239.008V96.9058H252.802V137.93H239.008V124.251H225.202V110.578H211.408V96.9058H225.202V83.2202Z" fill="#1A1A1A"/>
<path d="M211.415 110.577H197.609V124.25H211.415V110.577Z" fill="#1A1A1A"/>
<path d="M225.202 110.577H211.408V124.25H225.202V110.577Z" fill="white"/>
<path d="M183.816 124.251H197.61V137.93H211.41V124.251H225.203V137.93H239.01V178.961H266.603V192.633H239.01V206.312H225.203V178.961H211.41V219.991H183.816V206.312H197.61V192.633H170.016V178.961H183.816V165.288H225.203V151.609H183.816V124.251Z" fill="#1A1A1A"/>
<path d="M211.415 124.251H197.609V137.93H211.415V124.251Z" fill="white"/>
<path d="M239.01 124.251H225.203V137.93H239.01V124.251Z" fill="white"/>
<path d="M280.396 124.251H266.603V137.93H280.396V124.251Z" fill="#1A1A1A"/>
<path d="M87.2297 151.608H73.4363V165.287H87.2297V151.608Z" fill="#1A1A1A"/>
<path d="M114.828 151.608H183.815V165.287H170.015V178.959H156.215V165.287H114.828V151.608Z" fill="#1A1A1A"/>
<path d="M225.209 151.608H183.816V165.287H225.209V151.608Z" fill="white"/>
<path d="M266.603 151.608H294.196V165.287H307.99V151.608H376.983V165.287H363.183V192.632H349.383V219.99H363.183V247.348H349.383V274.7H363.183V288.372H335.59V315.73H349.383V329.403H363.183V343.082H390.776V356.754H321.79V343.082H335.59V329.403H321.79V343.082H307.99V329.403H294.196V370.433H349.383V384.112H239.01V370.433H266.603V356.754H252.803V315.73H266.603V302.051H239.01V274.7H225.203V261.021H239.01V247.348H266.603V206.311H280.396V261.021H307.99V247.348H321.79V261.021H335.59V206.311H321.79V233.663H294.196V192.632H280.396V165.287H266.603V151.608Z" fill="#1A1A1A"/>
<path d="M45.8354 165.288H73.4354V178.961H101.029V165.288H114.829V192.633H73.4354V206.312H45.8354V192.633H59.6354V178.961H45.8354V165.288Z" fill="#1A1A1A"/>
<path d="M183.816 165.288H170.016V178.967H183.816V165.288Z" fill="white"/>
<path d="M321.788 165.288H335.588V192.633H307.989V178.961H321.788V165.288Z" fill="white"/>
<path d="M376.982 165.288H363.182V192.64H376.982V165.288Z" fill="white"/>
<path d="M390.783 165.288H376.983V192.64H390.783V165.288Z" fill="#1A1A1A"/>
<path d="M59.6354 178.958H45.8354V192.631H59.6354V178.958Z" fill="white"/>
<path d="M142.423 178.958H128.623V192.631H142.423V178.958Z" fill="#1A1A1A"/>
<path d="M349.383 192.632H363.182V206.311H376.982V247.348H390.776V288.372H376.982V302.051H363.182V315.73H376.982V302.051H390.776V343.082H363.182V329.403H349.383V315.73H335.589V288.372H363.182V274.7H376.982V261.021H363.182V274.7H349.383V247.348H363.182V219.99H349.383V192.632Z" fill="white"/>
<path d="M376.982 192.632H363.182V206.311H376.982V192.632Z" fill="#1A1A1A"/>
<path d="M390.783 192.632H376.983V206.311H390.783V192.632Z" fill="white"/>
<path d="M101.029 206.312H87.229V219.992H101.029V206.312Z" fill="#1A1A1A"/>
<path d="M142.421 206.312H114.828V219.992H142.421V206.312Z" fill="#1A1A1A"/>
<path d="M239.01 206.312H252.803V233.664H225.203V219.992H239.01V206.312Z" fill="#1A1A1A"/>
<path d="M390.783 206.312H376.983V247.35H390.783V206.312Z" fill="#1A1A1A"/>
<path d="M59.6354 219.989H73.4354V233.662H87.2288V247.347H45.8354V233.662H59.6354V219.989Z" fill="#1A1A1A"/>
<path d="M114.829 219.989H101.029V233.668H114.829V219.989Z" fill="#1A1A1A"/>
<path d="M142.421 219.989H114.828V233.668H142.421V219.989Z" fill="white"/>
<path d="M142.421 219.989H156.215V233.662H170.015V247.347H114.828V233.662H142.421V219.989Z" fill="#1A1A1A"/>
<path d="M211.416 233.663H183.816V247.342H211.416V233.663Z" fill="#1A1A1A"/>
<path d="M114.829 247.35H101.029V261.029H114.829V247.35Z" fill="#1A1A1A"/>
<path d="M170.015 247.35H114.828V261.029H170.015V247.35Z" fill="white"/>
<path d="M170.015 247.35H183.815V274.701H170.015V288.374H183.815V302.053H170.015V315.732H156.215V274.701H114.828V261.022H170.015V247.35Z" fill="#1A1A1A"/>
<path d="M183.816 247.35H211.41V261.022H197.61V302.053H183.816V288.374H170.016V274.701H183.816V247.35Z" fill="white"/>
<path d="M225.202 247.35H211.408V261.029H225.202V247.35Z" fill="#1A1A1A"/>
<path d="M101.029 261.021H45.8354V274.7H101.029V261.021Z" fill="#1A1A1A"/>
<path d="M101.029 261.021H114.829V274.7H156.215V315.73H170.015V302.051H183.815V315.73H197.609V329.403H183.815V343.082H156.215V356.754H183.815V370.433H170.015V384.112H142.422V288.372H45.8354V274.7H101.029V261.021Z" fill="white"/>
<path d="M197.609 261.021H211.409V315.73H239.009V343.082H225.202V356.754H239.009V370.433H211.409V356.754H197.609V370.433H183.815V356.754H156.215V343.082H183.815V329.403H197.609V315.73H183.815V302.051H197.609V261.021Z" fill="#1A1A1A"/>
<path d="M211.408 261.021H225.202V274.7H239.008V302.051H266.602V315.73H252.802V356.754H266.602V370.433H239.008V356.754H225.202V343.082H239.008V315.73H211.408V261.021Z" fill="white"/>
<path d="M266.608 261.021H252.802V288.372H266.608V261.021Z" fill="white"/>
<path d="M376.982 261.021H363.182V274.7H376.982V261.021Z" fill="#1A1A1A"/>
<path d="M321.789 274.7H280.396V315.731H321.789V274.7Z" fill="white"/>
<path d="M142.416 288.374H45.8354V384.108H142.416V288.374Z" fill="#1A1A1A"/>
<path d="M307.996 288.374H294.196V302.053H307.996V288.374Z" fill="#1A1A1A"/>
<path d="M390.783 288.374H376.983V302.053H390.783V288.374Z" fill="#1A1A1A"/>
<path d="M128.622 302.051H59.635V370.433H128.622V302.051Z" fill="white"/>
<path d="M376.982 302.051H363.182V315.73H376.982V302.051Z" fill="#1A1A1A"/>
<path d="M114.83 315.731H73.4363V356.762H114.83V315.731Z" fill="#1A1A1A"/>
<path d="M280.396 329.402H266.603V343.081H280.396V329.402Z" fill="white"/>
<path d="M294.196 329.402H307.989V343.081H321.789V356.753H390.776V370.432H376.982V384.111H349.382V370.432H294.196V329.402Z" fill="white"/>
<path d="M335.59 329.402H321.79V343.081H335.59V329.402Z" fill="white"/>
<path d="M211.415 356.756H197.609V370.435H211.415V356.756Z" fill="white"/>
<path d="M183.816 370.433H170.016V384.112H183.816V370.433Z" fill="#1A1A1A"/>
<path d="M197.609 370.433H183.816V384.112H197.609V370.433Z" fill="white"/>
<path d="M211.415 370.433H197.609V384.112H211.415V370.433Z" fill="#1A1A1A"/>
<path d="M239.002 370.433H211.408V384.112H239.002V370.433Z" fill="white"/>
<path d="M390.783 370.433H376.983V384.112H390.783V370.433Z" fill="#1A1A1A"/>
</svg>
