<svg width="873" height="921" viewBox="0 0 873 921" fill="none" xmlns="http://www.w3.org/2000/svg">
<path d="M551.835 125.418C520.034 112.185 487.045 104.145 453.936 101.008C420.487 207.268 361.919 305.657 283.695 385.019C228.253 441.27 163.113 487.793 92.2202 522.6C101.739 560.294 117.719 596.339 139.652 629.009C336.67 525.427 489.262 339.036 551.835 125.418Z" fill="#BFB277"/>
<path d="M453.936 101.008C422.135 98.0012 390.234 99.5592 359.172 105.382C302.382 224.036 209.756 325.751 95.1269 390.512C91.6412 392.479 88.1156 394.407 84.5699 396.304C79.1666 438.782 81.8732 481.64 92.2205 522.599C163.113 487.792 228.253 441.269 283.695 385.018C361.919 305.666 420.487 207.277 453.936 101.008Z" fill="#CCBE87"/>
<path d="M359.171 105.382C267.474 122.571 183.187 177.174 131.022 263.248C105.573 305.237 90.3914 350.551 84.5686 396.305C88.1242 394.407 91.6499 392.48 95.1256 390.512C209.755 325.752 302.391 224.037 359.171 105.382Z" fill="#BFB277"/>
<path d="M566.45 540.358C493.6 631.756 398.666 705.296 292.297 753.676C340.548 773.602 391.525 781.572 441.474 778.615C600.698 693.22 718.124 532.618 750.753 354.876C741.655 319.43 726.913 285.412 706.787 254.36C681.169 358.252 633.158 456.661 566.45 540.358Z" fill="#CCBE87"/>
<path d="M199.769 696.736C213.872 708.871 229.103 720.057 245.533 730.025C260.734 739.233 276.365 747.104 292.295 753.676C398.665 705.295 493.598 631.755 566.448 540.358C633.156 456.661 681.167 358.252 706.786 254.349C684.753 220.341 656.268 189.919 621.94 164.929C567.038 391.611 408.093 591.845 199.769 696.736Z" fill="#BFB277"/>
<path d="M621.94 164.93C614.169 159.267 606.159 153.823 597.79 148.75C582.848 139.701 567.487 131.94 551.836 125.428C489.263 339.045 336.67 525.437 139.653 629.019C156.302 653.819 176.407 676.641 199.769 696.746C408.093 591.845 567.037 391.611 621.94 164.93Z" fill="#CCBE87"/>
<path d="M441.469 778.606C549.207 772.214 652.12 714.794 712.296 615.506C761.615 534.116 772.682 440.292 750.749 354.867C718.119 532.608 600.693 693.221 441.469 778.606Z" fill="#BFB277"/>
<g opacity="0.5">
<g opacity="0.9">
<path d="M317.045 215.787C409.951 172.581 512.575 174.258 601.725 211.872C607.598 214.349 611.963 206.309 606.819 202.454C518.188 135.996 399.154 118.457 294.423 167.157C189.692 215.867 126.419 318.202 120.127 428.806C119.758 435.218 128.716 437.066 130.604 430.973C159.299 338.557 224.139 258.994 317.045 215.787Z" fill="#F9FCFD"/>
</g>
<g opacity="0.2">
<path d="M317.045 215.787C409.951 172.581 512.575 174.258 601.725 211.872C607.598 214.349 611.963 206.309 606.819 202.454C518.188 135.996 399.154 118.457 294.423 167.157C189.692 215.867 126.419 318.202 120.127 428.806C119.758 435.218 128.716 437.066 130.604 430.973C159.299 338.557 224.139 258.994 317.045 215.787Z" fill="#F9FCFD"/>
</g>
</g>
<path d="M534.689 118.938C535.119 119.088 535.558 119.198 535.988 119.347C545.206 122.643 554.145 126.369 562.895 130.364C566.47 131.992 569.956 133.73 573.452 135.468C664.02 77.3789 737.3 55.6957 768.762 85.1695C801.042 115.412 782.495 193.087 727.203 290.747C683.107 368.641 615.66 459.23 531.863 548.7C451.152 634.864 368.424 705.926 295.563 754.916C197.913 820.565 118.031 846.504 84.8023 815.372C52.3822 784.999 71.219 706.795 127.06 608.546C122.995 601.465 119.13 594.284 115.594 586.933C113.068 581.689 110.7 576.366 108.453 571.002C9.96426 724.304 -27.8792 853.905 23.0981 901.646C76.9919 952.124 215.692 897.571 372.818 775.651C438.588 724.614 507.573 661.861 574.95 589.929C645.453 514.662 705.889 438.265 753.56 366.494C860.249 205.841 902.797 68.39 849.962 18.8908C800.023 -27.8617 677.364 15.435 534.689 118.938Z" fill="#998C59"/>
<path d="M549.04 124.381C553.715 126.299 558.329 128.286 562.893 130.364C570.054 133.63 576.996 137.185 583.828 140.88C641.926 107.841 687.35 98.0633 708.654 118.908C729.109 138.923 723.975 183.928 698.906 242.915C691.196 261.073 681.657 280.499 670.311 300.994C631.869 370.438 573.53 451.459 501.419 531.75C431.964 609.075 361.041 673.116 298.808 717.512C286.982 725.942 275.526 733.582 264.4 740.544C197.033 782.742 143.689 797.354 120.058 774.222C97.1857 751.84 106.304 698.186 139.554 628.681C132.702 618.454 126.4 607.887 120.697 597C52.5506 716.463 28.4502 813.994 66.6232 851.338C106.934 890.779 206.921 853.555 324.926 764.944C337.64 755.395 350.554 745.278 363.638 734.561C419.939 688.478 479.126 631.987 537.105 567.436C597.78 499.879 649.976 431.504 691.325 367.402C706.177 344.381 719.611 321.918 731.546 300.245C793.989 186.824 814.953 95.0769 778.189 59.1111C741.244 22.9655 654.171 51.2109 549.04 124.381Z" fill="#84764A"/>
</svg>
