<svg width="201" height="242" viewBox="0 0 201 242" fill="none" xmlns="http://www.w3.org/2000/svg">
<path d="M176.522 86.3933C179.92 79.9961 181.852 72.7021 181.852 64.9529C181.852 39.6684 161.354 19.1704 136.069 19.1704C132.027 19.1704 128.11 19.7002 124.377 20.6837C115.982 8.20894 101.732 0 85.5626 0C59.7422 0 38.8103 20.9319 38.8103 46.7538C38.8103 52.1524 39.7359 57.3317 41.4197 62.1562C21.0375 66.0917 5.64111 84.0183 5.64111 105.55C5.64111 119.648 12.2485 132.196 22.5279 140.29C22.091 142.748 21.8489 145.273 21.8489 147.857C21.8489 171.546 41.0528 190.75 64.7419 190.75C71.7542 190.75 78.3676 189.057 84.2122 186.073C89.9548 194.643 99.7242 200.288 110.814 200.288C124.336 200.288 135.874 191.889 140.563 180.033C143.254 180.47 146.012 180.706 148.826 180.706C177.117 180.706 200.052 157.771 200.052 129.48C200.051 111.393 190.673 95.5096 176.522 86.3933Z" fill="#76AB35"/>
<path d="M181.593 69.6482C181.343 70.1704 181.097 70.6941 180.826 71.2026C181.007 71.3198 181.177 71.4492 181.357 71.568C181.45 70.9331 181.528 70.2922 181.593 69.6482Z" fill="#6E952A"/>
<path d="M199.865 125.316C193.666 143.844 176.184 157.203 155.568 157.203C153.003 157.203 150.488 156.988 148.034 156.59C143.759 167.4 133.237 175.06 120.906 175.06C110.792 175.06 101.885 169.912 96.6474 162.098C74.8005 179.779 42.7534 156.084 46.934 137.686C35.2265 136.012 26.4649 118.905 26.4649 105.343C26.4649 84.6304 41.2766 67.3858 60.884 63.5995C59.2642 58.9591 58.3735 53.9762 58.3735 48.7832C58.3735 23.9433 78.5092 3.8076 103.349 3.8076C103.591 3.8076 103.829 3.82586 104.069 3.83043C98.3906 1.3778 92.141 0 85.5626 0C59.7422 0 38.8103 20.9319 38.8103 46.7538C38.8103 52.1524 39.7359 57.3317 41.4197 62.1562C21.0375 66.0917 5.64111 84.0183 5.64111 105.55C5.64111 119.648 12.2485 132.196 22.5279 140.29C22.091 142.748 21.8489 145.273 21.8489 147.857C21.8489 171.546 41.0528 190.75 64.7419 190.75C65.5594 190.75 66.3693 190.722 67.1747 190.677C67.4609 190.66 67.7441 190.633 68.0303 190.61C68.5418 190.57 69.0518 190.529 69.5573 190.471C69.9074 190.432 70.2546 190.383 70.6017 190.336C71.0295 190.276 71.4573 190.214 71.8805 190.142C72.2657 190.078 72.6463 190.007 73.0284 189.932C73.3984 189.859 73.7668 189.78 74.1337 189.696C74.5463 189.603 74.9589 189.509 75.3684 189.406C75.6729 189.328 75.9728 189.241 76.2743 189.156C76.731 189.028 77.1877 188.903 77.6368 188.76C77.7556 188.722 77.8713 188.679 77.99 188.64C80.1412 187.939 82.2239 187.087 84.2122 186.073C89.9548 194.643 99.7242 200.288 110.814 200.288C124.336 200.288 135.874 191.889 140.563 180.033C143.254 180.47 146.012 180.706 148.826 180.706C177.117 180.706 200.052 157.771 200.052 129.48C200.051 128.074 199.976 126.691 199.865 125.316Z" fill="#6E952A"/>
<path d="M146.977 17.9236C149.94 15.2136 154.795 15.7008 154.795 15.7008C154.795 15.7008 154.845 20.5802 151.882 23.2886C148.92 25.9985 144.065 25.5114 144.065 25.5114C144.065 25.5114 144.015 20.6335 146.977 17.9236Z" fill="#76AB35"/>
<path d="M27.9173 83.8966C31.4462 81.9814 36.0409 83.6241 36.0409 83.6241C36.0409 83.6241 34.9144 88.371 31.3838 90.2862C27.8548 92.2015 23.2601 90.5588 23.2601 90.5588C23.2601 90.5588 24.3883 85.8103 27.9173 83.8966Z" fill="#76AB35"/>
<path d="M141.462 107.369C144.263 104.493 149.138 104.697 149.138 104.697C149.138 104.697 149.47 109.566 146.668 112.442C143.867 115.318 138.991 115.114 138.991 115.114C138.991 115.114 138.66 110.245 141.462 107.369Z" fill="#76C535"/>
<path d="M133.067 50.4517C135.026 53.9564 133.441 58.5709 133.441 58.5709C133.441 58.5709 128.681 57.5036 126.721 53.999C124.762 50.4944 126.347 45.8799 126.347 45.8799C126.347 45.8799 131.108 46.9471 133.067 50.4517Z" fill="#76C535"/>
<path d="M138.985 55.2794C141.638 52.265 146.518 52.2239 146.518 52.2239C146.518 52.2239 147.095 57.0698 144.443 60.0827C141.789 63.0971 136.91 63.1382 136.91 63.1382C136.91 63.1382 136.331 58.2938 138.985 55.2794Z" fill="#76C535"/>
<path d="M46.6643 190.85C42.8948 192.234 38.5863 189.944 38.5863 189.944C38.5863 189.944 40.3889 185.411 44.1584 184.027C47.9279 182.643 52.2364 184.933 52.2364 184.933C52.2364 184.933 50.4323 189.466 46.6643 190.85Z" fill="#6E952A"/>
<path d="M50.1416 152.241C49.9787 148.23 53.4773 144.829 53.4773 144.829C53.4773 144.829 57.2422 147.933 57.4066 151.945C57.5695 155.956 54.071 159.357 54.071 159.357C54.071 159.357 50.3045 156.253 50.1416 152.241Z" fill="#6E952A"/>
<path d="M63.6824 98.8072C61.2175 95.6375 62.0884 90.8373 62.0884 90.8373C62.0884 90.8373 66.9556 91.1753 69.4204 94.3434C71.8852 97.5116 71.0144 102.313 71.0144 102.313C71.0144 102.313 66.1472 101.977 63.6824 98.8072Z" fill="#6E952A"/>
<path d="M65.5394 111.769C61.9388 113.546 57.4111 111.728 57.4111 111.728C57.4111 111.728 58.7204 107.029 62.321 105.25C65.9215 103.474 70.4492 105.291 70.4492 105.291C70.4492 105.291 69.1399 109.993 65.5394 111.769Z" fill="#6E952A"/>
<path d="M82.3914 126.333C85.456 123.739 90.2882 124.408 90.2882 124.408C90.2882 124.408 90.1527 129.286 87.0896 131.881C84.0249 134.475 79.1927 133.805 79.1927 133.805C79.1927 133.805 79.3267 128.927 82.3914 126.333Z" fill="#6E952A"/>
<path d="M176.496 150.122C175.69 154.056 171.476 156.517 171.476 156.517C171.476 156.517 168.567 152.599 169.372 148.665C170.178 144.731 174.392 142.271 174.392 142.271C174.392 142.271 177.3 146.188 176.496 150.122Z" fill="#6E952A"/>
<path d="M192.174 107.694C188.591 105.881 187.328 101.167 187.328 101.167C187.328 101.167 191.874 99.3934 195.456 101.207C199.038 103.02 200.302 107.733 200.302 107.733C200.302 107.733 195.756 109.507 192.174 107.694Z" fill="#76AB35"/>
<path d="M192.195 98.6094C189.949 101.937 185.116 102.603 185.116 102.603C185.116 102.603 183.924 97.871 186.169 94.543C188.415 91.215 193.248 90.5497 193.248 90.5497C193.248 90.5497 194.44 95.2814 192.195 98.6094Z" fill="#76AB35"/>
<path d="M1.41474 110.014C-0.859768 106.706 0.291202 101.963 0.291202 101.963C0.291202 101.963 5.13101 102.586 7.40552 105.896C9.68003 109.204 8.52906 113.946 8.52906 113.946C8.52906 113.946 3.69077 113.322 1.41474 110.014Z" fill="#6E952A"/>
<path d="M9.75773 121.916C7.43451 125.191 2.58557 125.741 2.58557 125.741C2.58557 125.741 1.50462 120.983 3.82937 117.708C6.1526 114.433 11.0016 113.884 11.0016 113.884C11.0016 113.884 12.081 118.642 9.75773 121.916Z" fill="#6E952A"/>
<path d="M107.635 170.168L112.041 175.06L132.316 154.977L129.719 152.092L107.635 170.168Z" fill="#856034"/>
<path d="M107.635 187.681L101.837 194.118L74.802 167.37L78.2183 163.576L107.635 187.681Z" fill="#856034"/>
<path d="M117.669 241.873H97.599L105.621 105.141H109.649L117.669 241.873Z" fill="#856034"/>
</svg>
