<svg width="134" height="240" viewBox="0 0 134 240" fill="none" xmlns="http://www.w3.org/2000/svg">
<path d="M125.539 107.754C122.738 54.0727 87.2384 0 65.9144 0C44.5904 0 9.09116 54.0727 6.28949 107.754C3.10999 168.652 30.3182 194.644 65.9144 194.644C101.511 194.644 128.717 168.652 125.539 107.754Z" fill="#76AB35"/>
<path d="M94.0809 164.667C58.4833 164.667 31.2765 138.675 34.456 77.7773C35.9003 50.0945 46.0476 22.3299 58.4548 1.9071C37.2021 11.8715 8.78474 59.9499 6.28961 107.752C3.11011 168.65 30.3184 194.642 65.9145 194.642C88.854 194.642 108.293 183.828 118.378 159.855C110.994 163.1 102.791 164.667 94.0809 164.667Z" fill="#6E952A"/>
<path d="M107.4 43.6465C108.458 39.1599 112.924 36.5999 112.924 36.5999C112.924 36.5999 115.677 41.3126 114.619 45.7991C113.561 50.2857 109.094 52.8457 109.094 52.8457C109.094 52.8457 106.344 48.133 107.4 43.6465Z" fill="#76AB35"/>
<path d="M28.9877 75.5174C31.48 71.8201 36.4774 71.3597 36.4774 71.3597C36.4774 71.3597 37.4327 76.8969 34.9404 80.5943C32.4481 84.2916 27.4508 84.7504 27.4508 84.7504C27.4508 84.7504 26.4955 79.2148 28.9877 75.5174Z" fill="#76AB35"/>
<path d="M96.5072 75.5174C98.9994 71.8201 103.997 71.3597 103.997 71.3597C103.997 71.3597 104.952 76.8969 102.46 80.5943C99.9675 84.2916 94.9702 84.7504 94.9702 84.7504C94.9702 84.7504 94.0149 79.2148 96.5072 75.5174Z" fill="#76C535"/>
<path d="M85.6299 49.3697C87.6431 53.4216 86.0149 58.755 86.0149 58.755C86.0149 58.755 81.123 57.5215 79.1112 53.4697C77.098 49.4178 78.7263 44.0844 78.7263 44.0844C78.7263 44.0844 83.6182 45.3179 85.6299 49.3697Z" fill="#76C535"/>
<path d="M104.921 88.4172C108.524 90.6773 109.626 96.1792 109.626 96.1792C109.626 96.1792 104.887 98.0159 101.284 95.7557C97.6806 93.4956 96.5785 87.9937 96.5785 87.9937C96.5785 87.9937 101.318 86.1571 104.921 88.4172Z" fill="#76C535"/>
<path d="M53.4429 138.258C51.8118 142.522 47.0597 144.317 47.0597 144.317C47.0597 144.317 44.9509 139.2 46.582 134.936C48.2131 130.673 52.9653 128.878 52.9653 128.878C52.9653 128.878 55.074 133.995 53.4429 138.258Z" fill="#6E952A"/>
<path d="M103.365 156.703C105.287 160.81 103.541 166.097 103.541 166.097C103.541 166.097 98.6772 164.725 96.7552 160.619C94.8333 156.513 96.5784 151.226 96.5784 151.226C96.5784 151.226 101.443 152.597 103.365 156.703Z" fill="#6E952A"/>
<path d="M125.649 117.847C121.968 115.75 120.67 110.303 120.67 110.303C120.67 110.303 125.341 108.253 129.021 110.348C132.703 112.443 134 117.892 134 117.892C134 117.892 129.331 119.943 125.649 117.847Z" fill="#76AB35"/>
<path d="M128.887 107.714C126.58 111.561 121.613 112.329 121.613 112.329C121.613 112.329 120.388 106.859 122.695 103.013C125.002 99.166 129.969 98.3977 129.969 98.3977C129.969 98.3977 131.195 103.868 128.887 107.714Z" fill="#76AB35"/>
<path d="M1.45309 126.348C-0.883774 122.524 0.29963 117.043 0.29963 117.043C0.29963 117.043 5.27134 117.763 7.6082 121.588C9.94507 125.412 8.76167 130.893 8.76167 130.893C8.76167 130.893 3.78995 130.172 1.45309 126.348Z" fill="#6E952A"/>
<path d="M10.725 136.98C8.33684 140.764 3.35657 141.401 3.35657 141.401C3.35657 141.401 2.24588 135.9 4.63407 132.116C7.02084 128.332 12.0025 127.696 12.0025 127.696C12.0025 127.696 13.1132 133.194 10.725 136.98Z" fill="#6E952A"/>
<path d="M66.788 114.701L64.9188 117.037L44.098 95.0676L45.1987 93.6913L66.788 114.701Z" fill="#856034"/>
<path d="M65.9125 139.872L67.7817 142.206L88.6024 120.237L87.5017 118.862L65.9125 139.872Z" fill="#856034"/>
<path d="M66.7882 174.149L64.3529 177.189L37.2302 148.571L38.6646 146.779L66.7882 174.149Z" fill="#856034"/>
<path d="M72.2488 239.229H59.5764L64.6408 81.1827H67.1844L72.2488 239.229Z" fill="#856034"/>
</svg>
