<svg width="165" height="247" viewBox="0 0 165 247" fill="none" xmlns="http://www.w3.org/2000/svg">
<path d="M163.931 140.905C163.931 125.908 155.845 112.836 143.865 105.913C146.805 100.291 148.476 93.8806 148.476 87.0726C148.476 72.7989 141.151 60.2715 130.116 53.125C131.039 50.3715 131.562 47.4296 131.562 44.3584C131.562 29.3216 119.557 17.1326 104.747 17.1326C103.738 17.1326 102.744 17.2013 101.763 17.3114C94.605 6.85273 82.691 0 69.1969 0C47.3057 0 29.5572 18.0186 29.5572 40.2448C29.5572 47.4439 31.4281 54.1961 34.6904 60.0432C16.6543 63.8167 3.09412 80.0299 3.09412 99.458C3.09412 111.85 8.61407 122.928 17.2894 130.31C9.74448 136.248 4.86912 145.515 4.86912 155.957C4.86912 173.888 19.1855 188.424 36.8459 188.424C41.9131 188.424 46.6878 187.195 50.9453 185.064C58.6365 198.614 73.0377 207.743 89.5473 207.743C107.78 207.743 123.444 196.613 130.333 180.685C149.36 177.73 163.931 161.046 163.931 140.905Z" fill="#76AB35"/>
<path d="M146.67 94.2287C147.027 94.4346 147.371 94.6629 147.72 94.8815C147.992 93.4784 148.184 92.0466 148.308 90.594C147.829 91.8423 147.282 93.057 146.67 94.2287Z" fill="#6E952A"/>
<path d="M111.212 17.9628C110.885 17.8798 110.566 17.7776 110.234 17.7074C110.305 17.8096 110.383 17.9054 110.453 18.0075C110.703 17.9804 110.96 17.9836 111.212 17.9628Z" fill="#6E952A"/>
<path d="M135.031 158.553C129.104 172.255 115.628 181.831 99.9441 181.831C85.7409 181.831 73.3521 173.978 66.7363 162.32C63.0731 164.153 58.9665 165.211 54.6069 165.211C39.4148 165.211 27.0998 152.708 27.0998 137.281C27.0998 128.298 31.2944 120.327 37.7844 115.218C30.3212 108.866 25.5732 99.3367 25.5732 88.6769C25.5732 71.9625 37.2389 58.016 52.7548 54.7692C46.606 50.9127 33.7549 35.9621 45.2335 8.18726C35.7107 15.538 29.5619 27.162 29.5619 40.2449C29.5619 47.444 31.4328 54.1961 34.6951 60.0432C16.6589 63.8168 3.09875 80.03 3.09875 99.458C3.09875 111.85 8.61872 122.928 17.2941 130.31C9.74913 136.249 4.87376 145.515 4.87376 155.958C4.87376 173.888 19.1901 188.424 36.8505 188.424C41.9177 188.424 46.6924 187.195 50.9499 185.064C58.6411 198.614 73.0424 207.743 89.5519 207.743C107.785 207.743 123.448 196.613 130.338 180.685C149.361 177.73 163.932 161.045 163.932 140.905C163.932 137.933 163.602 135.04 163 132.252C159.852 145.874 148.817 156.411 135.031 158.553Z" fill="#6E952A"/>
<path d="M77.4648 181.852L82.0132 185.19L117.909 132.762L115.229 130.796L77.4648 181.852Z" fill="#856034"/>
<path d="M83.5148 149.052L79.4884 152.005L47.7239 105.613L50.0963 103.871L83.5148 149.052Z" fill="#856034"/>
<path d="M87.1355 246.296H74.8394L79.754 65.1847H82.2208L87.1355 246.296Z" fill="#856034"/>
<path d="M132.251 53.4282C133.276 49.4998 137.611 47.2587 137.611 47.2587C137.611 47.2587 140.282 51.385 139.255 55.3134C138.23 59.2402 133.896 61.4813 133.896 61.4813C133.896 61.4813 131.226 57.355 132.251 53.4282Z" fill="#76AB35"/>
<path d="M21.2305 88.372C23.6486 85.1348 28.4956 84.7325 28.4956 84.7325C28.4956 84.7325 29.4216 89.5804 27.0036 92.8176C24.5856 96.0548 19.7385 96.457 19.7385 96.457C19.7385 96.457 18.8125 91.6108 21.2305 88.372Z" fill="#76AB35"/>
<path d="M94.8001 45.0367C97.2181 41.7995 102.065 41.3972 102.065 41.3972C102.065 41.3972 102.991 46.2451 100.573 49.4823C98.1552 52.7195 93.3081 53.1217 93.3081 53.1217C93.3081 53.1217 92.3821 48.2739 94.8001 45.0367Z" fill="#76C535"/>
<path d="M84.1499 30.2011C86.1026 33.748 84.5225 38.4187 84.5225 38.4187C84.5225 38.4187 79.7761 37.338 77.825 33.7912C75.8723 30.2443 77.4524 25.5736 77.4524 25.5736C77.4524 25.5736 82.1972 26.6543 84.1499 30.2011Z" fill="#76C535"/>
<path d="M118.435 89.526C121.93 91.5053 122.999 96.3228 122.999 96.3228C122.999 96.3228 118.4 97.9319 114.905 95.9525C111.41 93.9732 110.341 89.1557 110.341 89.1557C110.341 89.1557 114.94 87.5466 118.435 89.526Z" fill="#76C535"/>
<path d="M51.0523 160.218C49.4707 163.95 44.8595 165.522 44.8595 165.522C44.8595 165.522 42.814 161.042 44.3957 157.31C45.9773 153.578 50.5885 152.005 50.5885 152.005C50.5885 152.005 52.6339 156.486 51.0523 160.218Z" fill="#6E952A"/>
<path d="M55.965 78.0744C53.9698 74.5515 55.4949 69.8633 55.4949 69.8633C55.4949 69.8633 60.2523 70.8849 62.2474 74.4078C64.2425 77.9307 62.7191 82.619 62.7191 82.619C62.7191 82.619 57.9601 81.5974 55.965 78.0744Z" fill="#6E952A"/>
<path d="M124.719 164.625C128.069 166.847 128.805 171.727 128.805 171.727C128.805 171.727 124.107 173.007 120.757 170.785C117.406 168.563 116.671 163.683 116.671 163.683C116.671 163.683 121.368 162.403 124.719 164.625Z" fill="#6E952A"/>
<path d="M156.899 120.771C153.328 118.937 152.069 114.167 152.069 114.167C152.069 114.167 156.6 112.372 160.17 114.207C163.741 116.043 165 120.813 165 120.813C165 120.813 160.469 122.607 156.899 120.771Z" fill="#76AB35"/>
<path d="M160.039 111.901C157.801 115.269 152.983 115.941 152.983 115.941C152.983 115.941 151.795 111.152 154.034 107.784C156.272 104.416 161.09 103.744 161.09 103.744C161.09 103.744 162.278 108.533 160.039 111.901Z" fill="#76AB35"/>
<path d="M4.28892 136.086C2.02182 132.737 3.16953 127.938 3.16953 127.938C3.16953 127.938 7.993 128.569 10.2601 131.918C12.5272 135.267 11.3795 140.065 11.3795 140.065C11.3795 140.065 6.55602 139.433 4.28892 136.086Z" fill="#6E952A"/>
<path d="M8.04175 147.256C4.70713 149.504 0 148.262 0 148.262C0 148.262 0.69805 143.376 4.03267 141.128C7.36728 138.881 12.0744 140.123 12.0744 140.123C12.0744 140.123 11.3748 145.009 8.04175 147.256Z" fill="#6E952A"/>
</svg>
