<svg width="1080" height="548" viewBox="0 0 1080 548" fill="none" xmlns="http://www.w3.org/2000/svg">
<mask id="mask0_28_6241" style="mask-type:luminance" maskUnits="userSpaceOnUse" x="0" y="0" width="1080" height="548">
<path d="M1080 0H0V548H1080V0Z" fill="white"/>
</mask>
<g mask="url(#mask0_28_6241)">
<path d="M1170.6 647.737L-95.1567 613.334L-82.1967 460.836C-82.1967 460.836 2.79925 442.128 161.192 421.139C247.873 409.653 356.542 397.488 485.3 387.328C560.576 381.387 642.699 376.138 731.302 372.115C774.049 370.175 818.307 368.52 864.013 367.216C1005.82 363.15 1161.7 362.416 1330.44 366.8C2211.72 389.739 1170.6 647.737 1170.6 647.737Z" fill="url(#paint0_linear_28_6241)"/>
</g>
<mask id="mask1_28_6241" style="mask-type:luminance" maskUnits="userSpaceOnUse" x="0" y="0" width="1080" height="548">
<path d="M1080 0H0V548H1080V0Z" fill="white"/>
</mask>
<g mask="url(#mask1_28_6241)">
<path d="M1184.76 578.94C1184.76 578.94 205.2 628.238 210.967 606.077C211.313 604.773 212.004 603.041 213.062 600.904C222.718 581.417 261.857 529.072 321.257 479.566C380.786 429.939 474.595 395.185 581.321 381.989C597.564 379.972 614.11 378.46 630.871 377.473C664.071 375.511 698.306 373.714 733.579 372.114C733.558 372.114 733.558 372.125 733.558 372.125C715.068 385.518 710.251 399.152 715.716 412.699C739.347 471.258 954.612 528.327 1085.16 557.962C1143.4 571.18 1184.76 578.94 1184.76 578.94Z" fill="url(#paint1_linear_28_6241)"/>
</g>
<mask id="mask2_28_6241" style="mask-type:luminance" maskUnits="userSpaceOnUse" x="0" y="0" width="1080" height="548">
<path d="M1080 0H0V548H1080V0Z" fill="white"/>
</mask>
<g mask="url(#mask2_28_6241)">
<path d="M250.653 533.556C252.491 530.503 254.331 527.448 256.17 524.395C256.578 523.718 254.493 523.429 254.087 524.103C252.249 527.157 250.409 530.211 248.571 533.265C248.163 533.941 250.247 534.23 250.653 533.556Z" fill="#A6B654"/>
<path d="M244.791 529.134C246.396 525.795 247.999 522.457 249.603 519.117C249.932 518.432 247.85 518.14 247.521 518.826C245.916 522.164 244.314 525.503 242.709 528.842C242.378 529.528 244.461 529.82 244.791 529.134Z" fill="#A6B654"/>
<path d="M229.353 526.755C229.619 524.593 230.567 522.527 232.161 520.52C232.68 519.865 230.593 519.582 230.079 520.228C228.41 522.329 227.47 524.496 227.193 526.755C227.107 527.46 229.269 527.456 229.353 526.755Z" fill="#A6B654"/>
<path d="M200.882 536.067C201.82 533.569 202.755 531.07 203.69 528.573C203.95 527.883 201.867 527.588 201.608 528.281C200.673 530.779 199.735 533.278 198.8 535.776C198.541 536.465 200.623 536.761 200.882 536.067Z" fill="#A6B654"/>
<path d="M199.325 516.323C199.193 516.103 199.185 515.914 199.489 515.726C200.366 515.186 198.848 514.407 197.962 514.952C197.174 515.437 196.873 516.002 197.243 516.614C197.649 517.286 199.733 516.999 199.325 516.323Z" fill="#A6B654"/>
<path d="M162.305 518.591C161.21 516.179 161.173 513.784 162.205 511.364C162.499 510.676 160.417 510.382 160.123 511.073C159.011 513.681 159.041 516.281 160.223 518.882C160.534 519.569 162.618 519.278 162.305 518.591Z" fill="#A6B654"/>
<path d="M170.888 512.189C171.69 510.585 172.21 508.959 172.472 507.309C172.582 506.605 170.422 506.61 170.312 507.309C170.068 508.862 169.56 510.387 168.806 511.898C168.465 512.582 170.547 512.873 170.888 512.189Z" fill="#A6B654"/>
<path d="M145.589 510.087C145.673 507.385 146.733 504.8 148.842 502.318C149.386 501.676 147.526 501.117 146.978 501.764C144.716 504.428 143.519 507.185 143.431 510.086C143.407 510.793 145.567 510.793 145.589 510.087Z" fill="#A6B654"/>
<path d="M158.201 499.953C158.924 498.933 159.65 497.913 160.374 496.894C160.847 496.228 158.76 495.942 158.292 496.602C157.568 497.621 156.842 498.642 156.119 499.661C155.646 500.325 157.732 500.612 158.201 499.953Z" fill="#A6B654"/>
<path d="M164.696 498.703C165.886 497.58 166.486 496.362 166.452 495.085C166.432 494.381 164.272 494.378 164.292 495.085C164.322 496.173 163.845 497.192 162.829 498.15C162.173 498.771 164.037 499.326 164.696 498.703Z" fill="#A6B654"/>
<path d="M202.021 505.643C202.036 504.559 202.537 503.541 203.539 502.583C204.191 501.96 202.327 501.406 201.673 502.029C200.493 503.155 199.878 504.367 199.858 505.642C199.85 506.348 202.01 506.349 202.021 505.643Z" fill="#A6B654"/>
<path d="M211.832 505.782C212.197 505.226 212.559 504.671 212.924 504.115C213.365 503.444 211.279 503.157 210.842 503.824C210.477 504.379 210.114 504.935 209.749 505.491C209.309 506.161 211.393 506.448 211.832 505.782Z" fill="#A6B654"/>
<path d="M218.878 507.586C219.424 506.939 219.973 506.29 220.519 505.642C221.061 505.001 219.202 504.442 218.653 505.089C218.104 505.736 217.558 506.385 217.011 507.033C216.471 507.674 218.331 508.233 218.878 507.586Z" fill="#A6B654"/>
<path d="M247.696 504.625C248.063 504.44 248.428 504.255 248.793 504.071C249.78 503.574 248.253 502.798 247.266 503.296C246.899 503.48 246.534 503.666 246.169 503.85C245.182 504.347 246.709 505.122 247.696 504.625Z" fill="#A6B654"/>
<path d="M261.702 502.733C262.825 499.833 264.771 497.113 267.598 494.526C268.274 493.909 266.408 493.356 265.732 493.973C262.82 496.635 260.775 499.453 259.617 502.442C259.351 503.131 261.434 503.426 261.702 502.733Z" fill="#A6B654"/>
<path d="M240.292 491.61C240.657 491.146 241.019 490.684 241.385 490.22C241.901 489.565 239.812 489.281 239.302 489.929C238.937 490.392 238.574 490.855 238.209 491.318C237.693 491.974 239.782 492.258 240.292 491.61Z" fill="#A6B654"/>
<path d="M224.318 491.321C225.8 488.731 227.282 486.141 228.761 483.551C229.15 482.873 227.066 482.582 226.679 483.26C225.197 485.849 223.718 488.439 222.236 491.029C221.849 491.709 223.932 491.998 224.318 491.321Z" fill="#A6B654"/>
<path d="M208.587 485.915C209.514 482.336 211.484 478.907 214.477 475.632C215.058 474.997 213.196 474.439 212.611 475.079C209.451 478.537 207.403 482.137 206.425 485.915C206.248 486.612 208.41 486.606 208.587 485.915Z" fill="#A6B654"/>
<path d="M191.586 496.895C192.281 495.594 192.977 494.293 193.672 492.991C194.038 492.309 191.953 492.018 191.59 492.699C190.895 494 190.199 495.302 189.504 496.603C189.139 497.285 191.221 497.575 191.586 496.895Z" fill="#A6B654"/>
<path d="M206.419 495.641C206.468 493.885 207.028 492.188 208.095 490.519C208.525 489.846 206.438 489.558 206.013 490.227C204.889 491.989 204.313 493.79 204.261 495.641C204.239 496.347 206.399 496.347 206.419 495.641Z" fill="#A6B654"/>
<path d="M165.229 544.814C165.482 540.66 167 536.657 169.774 532.749C170.245 532.084 168.16 531.798 167.692 532.458C164.849 536.464 163.328 540.561 163.071 544.814C163.028 545.52 165.188 545.519 165.229 544.814Z" fill="#A6B654"/>
<path d="M184.538 526.078C185.486 524.788 186.434 523.498 187.38 522.209C187.866 521.547 185.78 521.261 185.298 521.918C184.35 523.208 183.402 524.498 182.456 525.788C181.97 526.448 184.056 526.733 184.538 526.078Z" fill="#A6B654"/>
<path d="M190.379 530.774C191.173 529.208 191.966 527.642 192.761 526.077C193.107 525.393 191.024 525.101 190.679 525.785C189.884 527.351 189.091 528.918 188.296 530.483C187.949 531.167 190.033 531.458 190.379 530.774Z" fill="#A6B654"/>
<path d="M142.353 534.129C143.415 532.364 144.476 530.6 145.539 528.835C145.945 528.159 143.86 527.871 143.456 528.544C142.394 530.308 141.333 532.073 140.27 533.837C139.864 534.514 141.947 534.803 142.353 534.129Z" fill="#A6B654"/>
<path d="M163.713 525.793C163.907 525.145 164.104 524.499 164.298 523.851C164.506 523.16 162.426 522.863 162.216 523.559C162.022 524.207 161.825 524.854 161.631 525.501C161.423 526.192 163.503 526.49 163.713 525.793Z" fill="#A6B654"/>
<path d="M132.557 525.646C132.847 522.258 134.082 518.984 136.244 515.778C136.696 515.109 134.609 514.822 134.162 515.486C131.935 518.79 130.697 522.161 130.399 525.646C130.337 526.352 132.497 526.35 132.557 525.646Z" fill="#A6B654"/>
<path d="M150.563 521.349C151.146 520.3 151.341 519.229 151.12 518.145C150.978 517.451 148.818 517.443 148.96 518.145C149.163 519.137 149.014 520.097 148.481 521.057C148.103 521.738 150.187 522.029 150.563 521.349Z" fill="#A6B654"/>
<path d="M107.48 539.986C108.866 537.383 110.255 534.78 111.642 532.177C112.005 531.496 109.922 531.205 109.56 531.886C108.173 534.489 106.784 537.092 105.397 539.695C105.034 540.377 107.117 540.668 107.48 539.986Z" fill="#A6B654"/>
<path d="M124.38 537.473C125.235 535.522 126.093 533.571 126.948 531.619C127.25 530.932 125.168 530.638 124.866 531.328C124.01 533.279 123.153 535.229 122.297 537.181C121.995 537.869 124.077 538.162 124.38 537.473Z" fill="#A6B654"/>
<path d="M114.08 515.091C114.104 511.773 115.346 508.604 117.787 505.531C118.308 504.877 116.219 504.593 115.705 505.24C113.188 508.409 111.944 511.677 111.92 515.091C111.916 515.796 114.076 515.796 114.08 515.091Z" fill="#A6B654"/>
<path d="M128.131 512.461C129.626 509.874 131.119 507.285 132.613 504.697C133.004 504.019 130.92 503.729 130.531 504.406C129.036 506.993 127.544 509.582 126.049 512.17C125.658 512.848 127.743 513.138 128.131 512.461Z" fill="#A6B654"/>
<path d="M134.203 502.029C133.819 500.305 134.231 498.614 135.571 497.011C136.106 496.369 134.247 495.81 133.707 496.458C132.214 498.242 131.614 500.099 132.046 502.029C132.197 502.722 134.359 502.729 134.203 502.029Z" fill="#A6B654"/>
<path d="M137.262 490.909C137.99 490.168 138.718 489.426 139.446 488.685C140.063 488.056 138.201 487.5 137.582 488.131C136.854 488.872 136.126 489.614 135.398 490.355C134.78 490.985 136.642 491.541 137.262 490.909Z" fill="#A6B654"/>
<path d="M93.4719 516.334C94.6038 513.379 96.3123 510.527 98.6149 507.752C99.1527 507.103 97.064 506.819 96.5327 507.46C94.2323 510.236 92.5237 513.086 91.3897 516.042C91.1262 516.732 93.2084 517.026 93.4719 516.334Z" fill="#A6B654"/>
<path d="M107.886 522.744C109.307 520.608 110.728 518.471 112.148 516.334C112.592 515.664 110.508 515.377 110.065 516.042C108.644 518.179 107.223 520.315 105.804 522.452C105.357 523.122 107.443 523.409 107.886 522.744Z" fill="#A6B654"/>
<path d="M105.57 498.002C106.238 496.391 107.324 494.878 108.882 493.433C109.549 492.814 107.685 492.261 107.015 492.88C105.376 494.402 104.19 496.011 103.488 497.71C103.203 498.398 105.285 498.692 105.57 498.002Z" fill="#A6B654"/>
<path d="M118.103 499.244C119.332 498.053 120.332 496.814 121.094 495.526C121.496 494.849 119.412 494.559 119.012 495.234C118.302 496.433 117.381 497.581 116.239 498.69C115.595 499.315 117.457 499.869 118.103 499.244Z" fill="#A6B654"/>
<path d="M75.5009 503.284C76.4707 500.801 78.1015 498.459 80.4559 496.224C81.1104 495.602 79.2463 495.048 78.5918 495.67C76.1553 497.983 74.423 500.419 73.4186 502.993C73.1486 503.682 75.2309 503.977 75.5009 503.284Z" fill="#A6B654"/>
<path d="M91.4135 503.451C92.7505 502.249 93.8111 500.983 94.5887 499.66C94.9861 498.983 92.9039 498.693 92.5065 499.368C91.7785 500.605 90.7979 501.774 89.5494 502.898C88.8647 503.514 90.7309 504.066 91.4135 503.451Z" fill="#A6B654"/>
<path d="M70.6325 526.35C71.7255 524.034 72.8184 521.719 73.9114 519.403C74.2354 518.717 72.1531 518.426 71.8291 519.112C70.7362 521.428 69.6432 523.742 68.5503 526.058C68.2263 526.744 70.3063 527.037 70.6325 526.35Z" fill="#A6B654"/>
<path d="M86.4282 528.008C87.3138 525.875 88.2016 523.742 89.0872 521.61C89.3723 520.921 87.2922 520.627 87.0049 521.318C86.1193 523.451 85.2316 525.584 84.346 527.716C84.0587 528.405 86.1409 528.698 86.4282 528.008Z" fill="#A6B654"/>
<path d="M95.8182 526.478C96.0212 525.553 96.2221 524.628 96.4251 523.703C96.5785 523.003 94.4163 523.008 94.2651 523.703C94.0621 524.628 93.8612 525.553 93.6582 526.478C93.5048 527.178 95.6648 527.173 95.8182 526.478Z" fill="#A6B654"/>
<path d="M60.7653 514.403C61.7071 513.16 62.9512 512.002 64.4568 510.913C65.256 510.335 63.3854 509.787 62.5905 510.36C60.977 511.528 59.6896 512.781 58.6809 514.112C58.182 514.77 60.2707 515.055 60.7653 514.403Z" fill="#A6B654"/>
<path d="M78.8879 516.077C79.4344 515.058 79.9809 514.039 80.5252 513.02C80.8902 512.338 78.808 512.048 78.443 512.729C77.8965 513.748 77.35 514.766 76.8035 515.785C76.4406 516.467 78.5229 516.757 78.8879 516.077Z" fill="#A6B654"/>
<path d="M36.6598 503.843C38.526 500.912 40.8566 498.091 43.6668 495.361C44.3105 494.736 42.4464 494.182 41.8027 494.808C38.9062 497.62 36.4999 500.531 34.5775 503.552C34.1477 504.225 36.2342 504.513 36.6598 503.843Z" fill="#A6B654"/>
<path d="M54.4066 503.777C56.0331 501.993 57.3658 500.16 58.3853 498.264C58.7525 497.582 56.6681 497.292 56.3031 497.972C55.3311 499.777 54.0891 501.525 52.5404 503.223C51.9615 503.86 53.8234 504.417 54.4066 503.777Z" fill="#A6B654"/>
<path d="M65.6252 501.89C66.5281 500.407 67.4288 498.923 68.3317 497.44C68.7421 496.765 66.6577 496.476 66.2495 497.149C65.3466 498.632 64.4437 500.116 63.543 501.599C63.1326 502.275 65.217 502.563 65.6252 501.89Z" fill="#A6B654"/>
<path d="M11.9472 503.139C12.308 500.3 13.7573 497.622 16.3018 495.087C16.9304 494.46 15.0684 493.904 14.4377 494.534C11.7248 497.238 10.1739 500.111 9.7894 503.139C9.69868 503.843 11.8587 503.841 11.9472 503.139Z" fill="#A6B654"/>
<path d="M27.9444 503.698C28.1907 501.951 29.0223 500.272 30.45 498.677C31.0203 498.039 29.1605 497.482 28.5838 498.124C26.9919 499.9 26.0566 501.75 25.7844 503.698C25.6872 504.403 27.8472 504.399 27.9444 503.698Z" fill="#A6B654"/>
<path d="M27.3156 516.898C28.2142 514.712 29.6722 512.649 31.7479 510.678C32.4024 510.055 30.5383 509.502 29.8839 510.124C27.726 512.174 26.1687 514.331 25.2334 516.606C24.9504 517.294 27.0327 517.589 27.3156 516.898Z" fill="#A6B654"/>
<path d="M29.076 527.931C32.2771 525.439 34.7698 522.773 36.5734 519.944C37.001 519.271 34.9167 518.983 34.4911 519.652C32.7415 522.4 30.318 524.961 27.2119 527.379C26.4495 527.971 28.32 528.521 29.076 527.931Z" fill="#A6B654"/>
<path d="M42.5308 532.154C43.6411 530.582 44.7513 529.011 45.8616 527.439C46.3303 526.774 44.2459 526.488 43.7793 527.147C42.6691 528.719 41.5588 530.291 40.4486 531.862C39.9777 532.528 42.0643 532.814 42.5308 532.154Z" fill="#A6B654"/>
<path d="M218.439 518.421C218.672 516.399 219.97 514.557 222.249 512.895C223.044 512.314 221.174 511.766 220.385 512.342C217.895 514.159 216.536 516.214 216.281 518.42C216.197 519.126 218.357 519.124 218.439 518.421Z" fill="#A6B654"/>
<path d="M243.307 538.34C244.132 537.303 244.96 536.267 245.785 535.231C246.305 534.577 244.216 534.293 243.702 534.939C242.877 535.976 242.05 537.012 241.225 538.049C240.702 538.703 242.791 538.987 243.307 538.34Z" fill="#A6B654"/>
<path d="M220.519 539.535C222.703 537.288 225.252 535.159 228.172 533.14C228.995 532.572 227.122 532.024 226.306 532.587C223.383 534.606 220.835 536.735 218.653 538.981C218.04 539.612 219.904 540.168 220.519 539.535Z" fill="#A6B654"/>
<path d="M254.323 516.87C255.917 513.603 258.349 510.525 261.656 507.607C262.35 506.994 260.486 506.442 259.792 507.053C256.395 510.052 253.88 513.22 252.241 516.579C251.906 517.264 253.988 517.556 254.323 516.87Z" fill="#A6B654"/>
<path d="M272.599 516.618C273.478 514.549 274.593 512.517 275.949 510.515C276.403 509.846 274.316 509.559 273.867 510.223C272.51 512.225 271.396 514.257 270.517 516.327C270.223 517.015 272.305 517.309 272.599 516.618Z" fill="#A6B654"/>
<path d="M286.367 496.197C286.693 494.623 287.406 493.097 288.453 491.607C288.922 490.941 286.835 490.655 286.371 491.315C285.254 492.902 284.554 494.522 284.207 496.197C284.062 496.897 286.224 496.892 286.367 496.197Z" fill="#A6B654"/>
<path d="M301.707 491.349C303.202 489.133 304.696 486.916 306.193 484.7C306.645 484.031 304.558 483.744 304.111 484.408C302.616 486.624 301.121 488.841 299.625 491.058C299.173 491.727 301.26 492.014 301.707 491.349Z" fill="#A6B654"/>
<path d="M313.053 479.249C313.237 479.063 313.419 478.878 313.6 478.693C314.22 478.064 312.358 477.508 311.736 478.139C311.552 478.325 311.371 478.51 311.189 478.695C310.567 479.325 312.429 479.881 313.053 479.249Z" fill="#A6B654"/>
<path d="M293.425 480.382C295.637 478.212 297.279 475.941 298.324 473.555C298.625 472.868 296.544 472.574 296.242 473.264C295.235 475.559 293.691 477.739 291.561 479.829C290.922 480.455 292.786 481.009 293.425 480.382Z" fill="#A6B654"/>
<path d="M280.841 481.192C281.567 476.828 283.721 472.672 287.326 468.694C287.902 468.057 286.04 467.5 285.462 468.14C281.699 472.293 279.439 476.639 278.681 481.192C278.565 481.895 280.727 481.892 280.841 481.192Z" fill="#A6B654"/>
<path d="M272.577 475.642C272.409 474.072 272.828 472.565 273.847 471.081C274.305 470.414 272.219 470.127 271.765 470.79C270.687 472.362 270.238 473.98 270.417 475.642C270.495 476.343 272.655 476.348 272.577 475.642Z" fill="#A6B654"/>
<path d="M254.967 480.196C256.243 478.621 257.518 477.047 258.794 475.472C259.323 474.82 257.235 474.536 256.712 475.181C255.435 476.756 254.159 478.33 252.884 479.905C252.355 480.557 254.444 480.841 254.967 480.196Z" fill="#A6B654"/>
<path d="M269.452 488.578C270.562 486.821 271.67 485.063 272.78 483.306C273.206 482.633 271.119 482.345 270.698 483.015C269.588 484.771 268.48 486.529 267.369 488.286C266.944 488.96 269.028 489.249 269.452 488.578Z" fill="#A6B654"/>
<path d="M234.162 477.451C233.514 475.409 233.574 473.372 234.326 471.34C234.581 470.65 232.5 470.355 232.243 471.048C231.416 473.283 231.366 475.498 232.079 477.742C232.297 478.437 234.38 478.142 234.162 477.451Z" fill="#A6B654"/>
<path d="M228.334 474.526C228.334 473.6 228.334 472.674 228.334 471.748C228.334 471.043 226.174 471.041 226.174 471.748C226.174 472.674 226.174 473.6 226.174 474.526C226.174 475.232 228.334 475.233 228.334 474.526Z" fill="#A6B654"/>
<path d="M186.834 489.229C187.67 485.432 189.817 481.845 193.258 478.446C193.893 477.819 192.029 477.264 191.394 477.892C187.778 481.463 185.551 485.239 184.674 489.229C184.52 489.93 186.683 489.924 186.834 489.229Z" fill="#A6B654"/>
<path d="M172.258 486.465C172.742 483.325 173.733 480.236 175.222 477.178C175.554 476.493 173.472 476.201 173.139 476.886C171.604 480.041 170.597 483.227 170.098 486.465C169.99 487.168 172.15 487.165 172.258 486.465Z" fill="#A6B654"/>
<path d="M166.331 473.27C168.078 470.044 170.441 466.951 173.453 463.973C174.085 463.346 172.223 462.791 171.586 463.419C168.491 466.481 166.044 469.661 164.249 472.979C163.877 473.661 165.962 473.951 166.331 473.27Z" fill="#A6B654"/>
<path d="M204.142 480.225C204.803 478.12 205.922 476.095 207.514 474.123C208.041 473.471 205.952 473.187 205.431 473.832C203.839 475.803 202.721 477.829 202.06 479.933C201.844 480.622 203.924 480.921 204.142 480.225Z" fill="#A6B654"/>
<path d="M187.754 473.278C188.11 472.813 188.469 472.348 188.825 471.884C189.331 471.226 187.242 470.941 186.743 471.592C186.387 472.057 186.028 472.522 185.672 472.986C185.166 473.645 187.253 473.93 187.754 473.278Z" fill="#A6B654"/>
<path d="M189.262 464.791C190.178 463.772 191.093 462.755 192.009 461.737C192.582 461.1 190.722 460.542 190.145 461.184C189.229 462.202 188.313 463.219 187.398 464.237C186.825 464.874 188.685 465.432 189.262 464.791Z" fill="#A6B654"/>
<path d="M222.828 463.561C224.344 460.057 226.336 456.634 228.807 453.274C229.293 452.612 227.206 452.327 226.725 452.982C224.254 456.343 222.264 459.765 220.746 463.269C220.448 463.957 222.53 464.25 222.828 463.561Z" fill="#A6B654"/>
<path d="M168.046 456.324C167.338 453.856 167.966 451.439 169.776 449.127C170.29 448.471 168.202 448.186 167.694 448.835C165.728 451.345 165.199 453.948 165.964 456.614C166.162 457.311 168.245 457.016 168.046 456.324Z" fill="#A6B654"/>
<path d="M182.248 456.888C182.942 454.799 184.194 452.817 186.071 450.922C186.694 450.294 184.832 449.738 184.205 450.369C182.248 452.345 180.89 454.414 180.166 456.595C179.937 457.287 182.017 457.584 182.248 456.888Z" fill="#A6B654"/>
<path d="M188.754 455.632C190.374 454.143 191.994 452.656 193.614 451.168C194.288 450.549 192.422 449.996 191.75 450.614C190.13 452.102 188.51 453.59 186.89 455.078C186.218 455.696 188.082 456.25 188.754 455.632Z" fill="#A6B654"/>
<path d="M206.274 456.186C207.445 455.266 208.056 454.228 208.11 453.135C208.147 452.429 205.987 452.43 205.95 453.135C205.905 454.044 205.38 454.869 204.408 455.632C203.652 456.226 205.52 456.777 206.274 456.186Z" fill="#A6B654"/>
<path d="M204.198 470.079C204.781 467.633 206.209 465.313 208.438 463.125C209.075 462.499 207.211 461.945 206.572 462.572C204.159 464.939 202.666 467.434 202.036 470.078C201.872 470.779 204.034 470.772 204.198 470.079Z" fill="#A6B654"/>
<path d="M243.797 467.66C246.45 463.93 249.85 460.407 253.999 457.049C254.74 456.449 252.871 455.899 252.133 456.495C247.888 459.93 244.426 463.557 241.713 467.368C241.24 468.033 243.326 468.319 243.797 467.66Z" fill="#A6B654"/>
<path d="M235.79 462.008C237.434 460.341 239.078 458.674 240.72 457.008C241.339 456.379 239.478 455.823 238.853 456.454C237.21 458.121 235.568 459.788 233.924 461.454C233.306 462.085 235.168 462.64 235.79 462.008Z" fill="#A6B654"/>
<path d="M248.93 499.366C251.507 495.865 254.323 492.415 257.386 489.015C257.961 488.378 256.099 487.82 255.522 488.461C252.381 491.948 249.491 495.483 246.847 499.075C246.359 499.737 248.446 500.022 248.93 499.366Z" fill="#A6B654"/>
<path d="M266.581 465.496C268.158 463.27 269.994 461.106 272.089 458.993C272.713 458.365 270.849 457.809 270.225 458.439C268.043 460.636 266.138 462.89 264.499 465.205C264.025 465.87 266.112 466.157 266.581 465.496Z" fill="#A6B654"/>
<path d="M283.409 462.276C286.336 459.964 289.263 457.65 292.19 455.337C292.944 454.742 291.075 454.192 290.326 454.784C287.399 457.097 284.472 459.41 281.545 461.723C280.789 462.318 282.66 462.868 283.409 462.276Z" fill="#A6B654"/>
<path d="M294.503 461.61C295.577 459.44 297.486 457.473 300.277 455.74C301.149 455.199 299.631 454.418 298.75 454.965C295.721 456.845 293.585 458.964 292.421 461.32C292.082 462.003 294.166 462.295 294.503 461.61Z" fill="#A6B654"/>
<path d="M301.512 463.959C303.865 461.361 306.215 458.763 308.567 456.165C309.144 455.529 307.282 454.972 306.703 455.612C304.351 458.209 301.998 460.808 299.648 463.406C299.069 464.042 300.931 464.599 301.512 463.959Z" fill="#A6B654"/>
<path d="M307.468 466.999C309.811 464.44 312.377 461.943 315.172 459.502C315.872 458.892 314.006 458.34 313.308 458.949C310.513 461.389 307.947 463.886 305.603 466.446C305.02 467.081 306.88 467.638 307.468 466.999Z" fill="#A6B654"/>
<path d="M314.243 468.836C315.341 467.135 316.771 465.521 318.537 463.971C319.235 463.36 317.369 462.807 316.673 463.418C314.814 465.046 313.315 466.756 312.161 468.544C311.727 469.217 313.811 469.505 314.243 468.836Z" fill="#A6B654"/>
<path d="M323.503 472.592C324.793 471.205 326.082 469.82 327.374 468.434C327.964 467.799 326.102 467.242 325.508 467.88C324.218 469.267 322.927 470.652 321.637 472.038C321.05 472.673 322.909 473.231 323.503 472.592Z" fill="#A6B654"/>
<path d="M330.545 467.574C330.91 467.203 331.275 466.833 331.64 466.462C332.26 465.833 330.398 465.277 329.774 465.909C329.409 466.279 329.044 466.65 328.679 467.02C328.061 467.649 329.923 468.205 330.545 467.574Z" fill="#A6B654"/>
<path d="M332.236 453.052C335.327 451.268 338.038 449.344 340.341 447.274C341.025 446.659 339.161 446.106 338.477 446.721C336.26 448.71 333.683 450.56 330.709 452.276C329.795 452.805 331.316 453.583 332.236 453.052Z" fill="#A6B654"/>
<path d="M335.425 455.085C339.181 454.43 342.032 452.972 343.278 451.058C343.715 450.386 341.63 450.099 341.196 450.766C340.198 452.299 337.861 453.503 334.85 454.027C333.543 454.255 334.103 455.315 335.425 455.085Z" fill="#A6B654"/>
<path d="M348.678 453.421C349.605 452.498 350.531 451.576 351.458 450.654C352.089 450.027 350.225 449.471 349.594 450.1C348.667 451.023 347.741 451.945 346.814 452.868C346.183 453.496 348.047 454.05 348.678 453.421Z" fill="#A6B654"/>
<path d="M310.956 446.684C314.466 444.405 317.056 441.891 318.684 439.119C319.082 438.442 316.997 438.152 316.602 438.827C315.084 441.413 312.703 443.783 309.429 445.909C308.582 446.458 310.101 447.239 310.956 446.684Z" fill="#A6B654"/>
<path d="M319.52 454.086C321.499 452.144 322.989 450.114 323.974 447.986C324.292 447.3 322.21 447.007 321.892 447.694C320.948 449.733 319.553 451.671 317.656 453.532C317.019 454.158 318.881 454.714 319.52 454.086Z" fill="#A6B654"/>
<path d="M272.45 449.644C273.374 447.885 274.994 446.31 277.346 444.933C278.254 444.403 276.731 443.625 275.819 444.158C273.227 445.675 271.387 447.412 270.367 449.352C270.009 450.035 272.093 450.326 272.45 449.644Z" fill="#A6B654"/>
<path d="M287.153 449.912C288.952 448.949 290.302 447.846 291.252 446.611C291.758 445.954 289.671 445.669 289.17 446.32C288.36 447.373 287.155 448.317 285.626 449.136C284.671 449.649 286.194 450.425 287.153 449.912Z" fill="#A6B654"/>
<path d="M244.598 445.628C245.694 444.609 246.787 443.591 247.882 442.571C248.547 441.952 246.683 441.398 246.018 442.018C244.922 443.037 243.829 444.055 242.734 445.075C242.067 445.695 243.931 446.248 244.598 445.628Z" fill="#A6B654"/>
<path d="M245.571 439.092C246.603 436.074 248.703 433.286 251.917 430.692C252.66 430.093 250.792 429.542 250.053 430.138C246.753 432.803 244.549 435.698 243.489 438.8C243.253 439.491 245.333 439.786 245.571 439.092Z" fill="#A6B654"/>
<path d="M258.963 449.948C261.196 446.557 263.868 443.264 266.989 440.059C267.603 439.428 265.741 438.873 265.123 439.505C261.92 442.795 259.172 446.176 256.878 449.656C256.44 450.327 258.524 450.614 258.963 449.948Z" fill="#A6B654"/>
<path d="M207.503 442.725C209.507 438.927 211.512 435.131 213.516 431.333C213.877 430.651 211.792 430.36 211.434 431.042C209.429 434.839 207.425 438.636 205.418 442.433C205.06 443.116 207.142 443.407 207.503 442.725Z" fill="#A6B654"/>
<path d="M218.856 449.793C221.599 447.268 223.837 444.637 225.584 441.894C226.012 441.221 223.928 440.933 223.502 441.603C221.813 444.257 219.646 446.797 216.992 449.241C216.32 449.859 218.184 450.412 218.856 449.793Z" fill="#A6B654"/>
<path d="M227.155 447.998C228.014 445.743 229.135 443.527 230.522 441.341C230.95 440.668 228.863 440.38 228.44 441.049C227.053 443.236 225.932 445.452 225.072 447.706C224.809 448.396 226.891 448.691 227.155 447.998Z" fill="#A6B654"/>
<path d="M187.031 443.38C189.21 441.618 191.39 439.855 193.569 438.092C194.31 437.493 192.441 436.942 191.705 437.539C189.525 439.301 187.346 441.065 185.167 442.827C184.424 443.426 186.292 443.978 187.031 443.38Z" fill="#A6B654"/>
<path d="M173.295 444.204C176.235 441.525 179.172 438.844 182.112 436.164C182.788 435.547 180.924 434.994 180.246 435.611C177.306 438.29 174.368 440.971 171.429 443.651C170.755 444.268 172.619 444.821 173.295 444.204Z" fill="#A6B654"/>
<path d="M162.514 440.916C163.434 439.841 164.616 438.843 166.1 437.944C166.987 437.407 165.467 436.628 164.573 437.169C162.968 438.141 161.646 439.199 160.65 440.363C160.099 441.003 161.961 441.562 162.514 440.916Z" fill="#A6B654"/>
<path d="M168.29 429.189C170.172 427.247 173.109 425.728 176.902 424.741C178.14 424.418 177.047 423.473 175.812 423.795C171.72 424.86 168.452 426.544 166.424 428.637C165.813 429.267 167.677 429.823 168.29 429.189Z" fill="#A6B654"/>
<path d="M221.402 432.683C222.925 429.709 226.157 427.182 230.848 425.246C231.928 424.801 230.39 424.03 229.321 424.471C224.353 426.521 220.927 429.249 219.32 432.391C218.97 433.075 221.055 433.367 221.402 432.683Z" fill="#A6B654"/>
<path d="M228.187 438.132C231.924 434.982 236.25 432.056 241.166 429.356C242.108 428.839 240.585 428.062 239.639 428.581C234.598 431.35 230.155 434.349 226.323 437.578C225.601 438.184 227.47 438.736 228.187 438.132Z" fill="#A6B654"/>
<path d="M210.907 424.431C213.73 421.905 217.275 419.672 221.532 417.731C222.569 417.259 221.038 416.485 220.005 416.957C215.618 418.957 211.953 421.276 209.043 423.878C208.356 424.493 210.22 425.046 210.907 424.431Z" fill="#A6B654"/>
<path d="M251.44 426.515C253.971 425.201 256.844 424.127 260.062 423.285C261.298 422.962 260.207 422.016 258.971 422.339C255.598 423.223 252.565 424.364 249.912 425.74C248.94 426.245 250.468 427.02 251.44 426.515Z" fill="#A6B654"/>
<path d="M267.05 435.072C269.059 433.59 271.067 432.109 273.076 430.627C273.867 430.045 271.994 429.496 271.21 430.074C269.201 431.556 267.192 433.037 265.184 434.518C264.395 435.101 266.266 435.649 267.05 435.072Z" fill="#A6B654"/>
<path d="M274.573 438.636C277.042 436.733 279.785 434.943 282.809 433.259C283.745 432.738 282.22 431.961 281.282 432.484C278.137 434.237 275.277 436.104 272.709 438.084C271.94 438.674 273.811 439.224 274.573 438.636Z" fill="#A6B654"/>
<path d="M289.546 439.253C291.758 437.222 293.972 435.191 296.184 433.159C296.858 432.541 294.991 431.987 294.318 432.606C292.106 434.636 289.894 436.667 287.68 438.699C287.008 439.317 288.872 439.871 289.546 439.253Z" fill="#A6B654"/>
<path d="M320.488 439.049C323.793 437.113 327.1 435.177 330.405 433.241C331.312 432.711 329.789 431.931 328.878 432.466C325.573 434.402 322.266 436.338 318.961 438.274C318.054 438.804 319.577 439.583 320.488 439.049Z" fill="#A6B654"/>
<path d="M338.28 438.7C339.407 437.785 340.537 436.869 341.665 435.954C342.403 435.354 340.535 434.803 339.801 435.4C338.673 436.315 337.543 437.232 336.416 438.147C335.677 438.746 337.543 439.298 338.28 438.7Z" fill="#A6B654"/>
<path d="M349.789 441.203C351.806 439.446 353.824 437.69 355.841 435.933C356.543 435.323 354.677 434.77 353.975 435.38C351.957 437.137 349.94 438.892 347.922 440.649C347.223 441.26 349.089 441.812 349.789 441.203Z" fill="#A6B654"/>
<path d="M362.289 444.13C365.984 441.84 368.885 439.329 371.024 436.576C371.533 435.92 369.445 435.635 368.941 436.285C366.946 438.855 364.211 441.217 360.761 443.355C359.889 443.896 361.407 444.677 362.289 444.13Z" fill="#A6B654"/>
<path d="M315.937 421.373C319.099 420.145 322.1 418.828 324.923 417.404C325.91 416.906 324.383 416.131 323.396 416.629C320.704 417.986 317.86 419.257 314.846 420.427C313.758 420.849 314.833 421.801 315.937 421.373Z" fill="#A6B654"/>
<path d="M321.633 428.513C327.396 425.04 333.785 421.886 340.786 419.057C341.872 418.617 340.336 417.847 339.259 418.282C332.258 421.111 325.871 424.264 320.106 427.738C319.214 428.274 320.735 429.053 321.633 428.513Z" fill="#A6B654"/>
<path d="M340.183 427.05C344.978 425.476 349.082 423.514 352.486 421.189C353.316 420.622 351.441 420.075 350.62 420.635C347.443 422.804 343.561 424.637 339.09 426.103C337.928 426.486 339.01 427.435 340.183 427.05Z" fill="#A6B654"/>
<path d="M283.757 424.011C288.118 422.054 292.479 420.099 296.84 418.143C297.884 417.675 296.352 416.902 295.313 417.368C290.952 419.324 286.591 421.28 282.23 423.236C281.185 423.704 282.718 424.478 283.757 424.011Z" fill="#A6B654"/>
<path d="M281.686 421.857C285.038 420.222 288.002 418.417 290.585 416.455C291.358 415.866 289.49 415.317 288.719 415.901C286.237 417.788 283.379 419.511 280.159 421.082C279.154 421.571 280.684 422.346 281.686 421.857Z" fill="#A6B654"/>
<path d="M263.449 416.783C268.125 414.049 273.8 411.963 280.364 410.55C281.638 410.276 280.539 409.331 279.273 409.604C272.549 411.051 266.706 413.211 261.922 416.008C261.014 416.539 262.535 417.317 263.449 416.783Z" fill="#A6B654"/>
<path d="M294.829 431.582C298.845 429.453 302.86 427.322 306.876 425.192C307.837 424.683 306.312 423.907 305.348 424.418C301.333 426.547 297.317 428.678 293.302 430.807C292.341 431.317 293.866 432.093 294.829 431.582Z" fill="#A6B654"/>
<path d="M299.152 439.054C302.433 437.384 305.714 435.716 308.995 434.047C309.978 433.547 308.451 432.771 307.468 433.272C304.187 434.941 300.906 436.61 297.625 438.279C296.642 438.779 298.169 439.554 299.152 439.054Z" fill="#A6B654"/>
<path d="M362.511 431.64C365.561 428.898 369.825 426.669 375.147 425.049C376.337 424.686 375.253 423.738 374.056 424.103C368.434 425.816 363.87 428.19 360.647 431.087C359.962 431.701 361.829 432.255 362.511 431.64Z" fill="#A6B654"/>
<path d="M379.126 433.913C381.638 431.689 384.759 429.717 388.485 427.987C389.513 427.51 387.982 426.737 386.958 427.212C383.102 429.001 379.858 431.06 377.259 433.36C376.568 433.973 378.434 434.526 379.126 433.913Z" fill="#A6B654"/>
<path d="M393.053 432.991C394.122 431.546 395.587 430.213 397.401 428.976C398.231 428.409 396.358 427.862 395.537 428.422C393.608 429.737 392.105 431.166 390.971 432.7C390.481 433.361 392.569 433.646 393.053 432.991Z" fill="#A6B654"/>
<path d="M363.202 420.439C366.256 418.579 369.866 417.047 374.026 415.86C375.238 415.513 374.149 414.566 372.935 414.914C368.626 416.143 364.839 417.737 361.673 419.665C360.791 420.202 362.312 420.982 363.202 420.439Z" fill="#A6B654"/>
<path d="M390.596 421.276C392.777 420.158 394.702 418.929 396.365 417.6C397.112 417.003 395.244 416.453 394.501 417.047C392.935 418.298 391.125 419.447 389.068 420.5C388.09 421.003 389.615 421.778 390.596 421.276Z" fill="#A6B654"/>
<path d="M405.795 419.767C407.908 419.245 409.802 418.538 411.426 417.677C412.387 417.167 410.86 416.39 409.899 416.902C408.394 417.702 406.668 418.337 404.707 418.821C403.454 419.129 404.549 420.074 405.795 419.767Z" fill="#A6B654"/>
<path d="M414.74 422.413C416.77 421.219 418.8 420.025 420.831 418.831C421.736 418.3 420.213 417.521 419.304 418.056C417.273 419.25 415.243 420.444 413.213 421.638C412.308 422.17 413.828 422.948 414.74 422.413Z" fill="#A6B654"/>
<path d="M386.239 408.366C387.934 406.387 390.654 404.764 394.28 403.63C395.462 403.26 394.377 402.312 393.189 402.684C389.269 403.909 386.211 405.668 384.375 407.814C383.826 408.453 385.686 409.012 386.239 408.366Z" fill="#A6B654"/>
<path d="M397.745 413.789C400.3 412.678 402.856 411.568 405.413 410.456C406.471 409.997 404.936 409.225 403.886 409.682C401.331 410.793 398.775 411.903 396.218 413.015C395.16 413.475 396.693 414.246 397.745 413.789Z" fill="#A6B654"/>
<path d="M412.344 412.233C414.178 411.591 416.012 410.949 417.846 410.308C418.982 409.91 417.904 408.959 416.755 409.362C414.921 410.004 413.087 410.646 411.254 411.287C410.117 411.685 411.195 412.635 412.344 412.233Z" fill="#A6B654"/>
<path d="M352.836 410.727C354.623 409.988 356.579 409.381 358.666 408.888C359.925 408.59 358.83 407.645 357.575 407.942C355.314 408.477 353.24 409.152 351.307 409.952C350.229 410.397 351.765 411.169 352.836 410.727Z" fill="#A6B654"/>
<path d="M360.113 414.882C363.547 414.301 366.604 413.368 369.211 412.092C370.213 411.601 368.686 410.827 367.684 411.317C365.347 412.461 362.623 413.304 359.541 413.825C358.227 414.047 358.789 415.106 360.113 414.882Z" fill="#A6B654"/>
<path d="M327.981 412.203C329.996 411.467 332.014 410.733 334.029 409.997C335.148 409.59 334.07 408.638 332.938 409.052C330.923 409.787 328.905 410.521 326.89 411.257C325.771 411.664 326.849 412.616 327.981 412.203Z" fill="#A6B654"/>
<path d="M337.611 415.347C339.641 414.922 341.27 414.285 342.6 413.398C343.443 412.837 341.568 412.29 340.734 412.845C339.779 413.481 338.49 413.985 337.034 414.289C335.77 414.556 336.325 415.617 337.611 415.347Z" fill="#A6B654"/>
<path d="M301.398 412.254C302.964 410.75 305.465 409.594 308.617 408.995C309.906 408.75 309.349 407.69 308.042 407.939C304.368 408.637 301.37 409.936 299.532 411.701C298.884 412.324 300.748 412.879 301.398 412.254Z" fill="#A6B654"/>
<path d="M313.511 407.56C316.341 407.083 318.985 406.415 321.417 405.539C322.54 405.134 321.462 404.183 320.326 404.592C318.041 405.415 315.598 406.054 312.937 406.503C311.624 406.725 312.187 407.784 313.511 407.56Z" fill="#A6B654"/>
<path d="M355.299 404.362C359.876 403.173 364.453 401.984 369.03 400.794C370.267 400.473 369.177 399.527 367.939 399.849C363.362 401.038 358.785 402.227 354.208 403.416C352.972 403.737 354.063 404.683 355.299 404.362Z" fill="#A6B654"/>
<path d="M372.345 404.712C374.637 403.985 376.728 403.121 378.585 402.126C379.54 401.614 378.017 400.837 377.058 401.351C375.322 402.282 373.395 403.086 371.254 403.766C370.079 404.138 371.162 405.088 372.345 404.712Z" fill="#A6B654"/>
<path d="M411.817 401.418C415.444 400.288 419.073 399.158 422.699 398.028C423.883 397.659 422.799 396.711 421.608 397.082C417.982 398.212 414.353 399.342 410.726 400.472C409.543 400.84 410.627 401.788 411.817 401.418Z" fill="#A6B654"/>
<path d="M420.198 404.626C422.499 403.596 424.987 402.71 427.667 401.955C428.883 401.612 427.795 400.665 426.577 401.009C423.736 401.809 421.103 402.761 418.669 403.852C417.628 404.318 419.159 405.091 420.198 404.626Z" fill="#A6B654"/>
<path d="M425.244 409.416C428.46 407.992 431.514 406.484 434.411 404.891C435.353 404.374 433.828 403.597 432.884 404.116C429.989 405.708 426.933 407.216 423.717 408.642C422.667 409.106 424.201 409.879 425.244 409.416Z" fill="#A6B654"/>
<path d="M431.707 410.741C434.037 409.332 436.597 408.038 439.379 406.858C440.448 406.406 438.912 405.634 437.852 406.083C435.068 407.263 432.51 408.557 430.179 409.966C429.292 410.504 430.812 411.283 431.707 410.741Z" fill="#A6B654"/>
<path d="M437.502 411.935C438.232 411.75 438.962 411.565 439.692 411.38C440.936 411.064 439.843 410.118 438.601 410.434C437.871 410.619 437.141 410.804 436.411 410.989C435.167 411.304 436.26 412.25 437.502 411.935Z" fill="#A6B654"/>
<path d="M438.614 395.839C442.239 394.879 445.956 394.035 449.788 393.31C451.077 393.065 450.52 392.006 449.213 392.253C445.209 393.012 441.314 393.89 437.525 394.894C436.292 395.22 437.383 396.166 438.614 395.839Z" fill="#A6B654"/>
<path d="M452.55 400.015C456.149 399.28 459.531 398.357 462.694 397.215C463.817 396.809 462.739 395.858 461.603 396.269C458.598 397.354 455.399 398.258 451.976 398.958C450.703 399.218 451.261 400.278 452.55 400.015Z" fill="#A6B654"/>
<path d="M457.391 405.435C461.052 403.868 464.716 402.301 468.377 400.734C469.442 400.279 467.906 399.506 466.85 399.959C463.188 401.526 459.525 403.093 455.864 404.661C454.801 405.115 456.335 405.888 457.391 405.435Z" fill="#A6B654"/>
<path d="M441.092 403.954C443.466 403.492 445.837 403.029 448.211 402.568C449.496 402.318 448.937 401.258 447.636 401.511C445.263 401.974 442.891 402.436 440.517 402.899C439.232 403.148 439.791 404.207 441.092 403.954Z" fill="#A6B654"/>
<path d="M482.143 392.828C484.046 392.655 485.817 392.268 487.372 391.684C488.476 391.269 487.4 390.318 486.281 390.738C484.856 391.274 483.315 391.613 481.568 391.773C480.203 391.897 480.782 392.953 482.143 392.828Z" fill="#A6B654"/>
<path d="M490.627 397.78C492.448 397.314 494.271 396.848 496.092 396.382C497.334 396.064 496.241 395.118 495.001 395.436C493.178 395.902 491.357 396.369 489.536 396.834C488.294 397.152 489.387 398.098 490.627 397.78Z" fill="#A6B654"/>
<path d="M507.041 390.267C508.691 389.812 510.343 389.357 511.994 388.902C513.216 388.565 512.125 387.618 510.903 387.956C509.253 388.41 507.6 388.865 505.95 389.321C504.727 389.658 505.816 390.605 507.041 390.267Z" fill="#A6B654"/>
<path d="M473.405 397.864C477.585 397.193 481.503 396.236 485.13 394.984C486.272 394.59 485.192 393.639 484.039 394.038C480.557 395.239 476.846 396.163 472.831 396.809C471.511 397.019 472.077 398.078 473.405 397.864Z" fill="#A6B654"/>
<path d="M527.302 387.867C529.617 387.781 531.799 387.469 533.855 386.92C535.086 386.591 533.996 385.645 532.764 385.974C531.056 386.43 529.228 386.699 527.302 386.772C525.924 386.822 525.913 387.918 527.302 387.867Z" fill="#A6B654"/>
<path d="M504.602 393.422C505.879 393.328 507.157 393.235 508.434 393.142C509.803 393.042 509.222 391.986 507.859 392.085C506.583 392.179 505.304 392.272 504.027 392.365C502.658 392.465 503.239 393.521 504.602 393.422Z" fill="#A6B654"/>
<path d="M548.651 384.505C549.2 384.505 549.746 384.505 550.295 384.505C551.684 384.505 551.686 383.409 550.295 383.409C549.746 383.409 549.2 383.409 548.651 383.409C547.262 383.409 547.26 384.505 548.651 384.505Z" fill="#A6B654"/>
<path d="M1015.47 526.847C1020.18 530.579 1024.9 534.312 1029.61 538.044C1030.36 538.636 1032.23 538.087 1031.48 537.491C1026.76 533.759 1022.05 530.026 1017.33 526.294C1016.58 525.702 1014.71 526.251 1015.47 526.847Z" fill="#A6B654"/>
<path d="M1036.24 533.445C1039.61 535.155 1042.19 537.149 1043.89 539.407C1044.38 540.059 1046.47 539.776 1045.97 539.115C1044.13 536.677 1041.41 534.517 1037.77 532.671C1036.79 532.172 1035.26 532.946 1036.24 533.445Z" fill="#A6B654"/>
<path d="M1052.63 534.242C1055.27 536.451 1057.92 538.662 1060.57 540.872C1061.29 541.473 1063.16 540.923 1062.43 540.318C1059.78 538.109 1057.14 535.898 1054.49 533.688C1053.77 533.087 1051.9 533.637 1052.63 534.242Z" fill="#A6B654"/>
<path d="M1065.67 531.151C1066.61 532.17 1067.55 533.188 1068.49 534.208C1069.08 534.846 1070.94 534.29 1070.35 533.654C1069.41 532.635 1068.47 531.617 1067.53 530.598C1066.94 529.96 1065.08 530.515 1065.67 531.151Z" fill="#A6B654"/>
<path d="M1045.87 512.591C1048.76 514.06 1050.98 515.771 1052.45 517.709C1052.94 518.36 1055.03 518.077 1054.53 517.417C1052.93 515.301 1050.56 513.423 1047.4 511.817C1046.42 511.316 1044.89 512.091 1045.87 512.591Z" fill="#A6B654"/>
<path d="M1029.79 513.993C1029.79 514.732 1029.79 515.472 1029.79 516.211C1029.79 516.915 1031.95 516.917 1031.95 516.211C1031.95 515.472 1031.95 514.732 1031.95 513.993C1031.95 513.289 1029.79 513.287 1029.79 513.993Z" fill="#A6B654"/>
<path d="M1000.95 516.505C1000.21 518.205 1000.86 519.934 1002.91 521.338C1003.74 521.898 1005.61 521.352 1004.78 520.784C1003.06 519.612 1002.41 518.229 1003.03 516.796C1003.33 516.109 1001.25 515.816 1000.95 516.505Z" fill="#A6B654"/>
<path d="M967.752 516.531C968.944 517.408 970.134 518.286 971.326 519.165C972.11 519.743 973.983 519.195 973.19 518.612C972 517.734 970.808 516.856 969.616 515.977C968.834 515.401 966.961 515.947 967.752 516.531Z" fill="#A6B654"/>
<path d="M1027.49 526.8C1028.94 527.687 1030.4 528.575 1031.86 529.461C1032.75 530.004 1034.27 529.225 1033.38 528.686C1031.93 527.8 1030.47 526.912 1029.01 526.025C1028.12 525.483 1026.6 526.262 1027.49 526.8Z" fill="#A6B654"/>
<path d="M987.604 501.53C991.764 503.13 995.475 505.002 998.652 507.104C999.486 507.656 1001.36 507.111 1000.52 506.551C997.097 504.288 993.17 502.306 988.693 500.583C987.585 500.158 986.509 501.109 987.604 501.53Z" fill="#A6B654"/>
<path d="M945.845 501.726C946.73 504.031 948.554 506.158 951.28 508.055C952.09 508.62 953.964 508.073 953.146 507.502C950.515 505.669 948.782 503.659 947.929 501.434C947.661 500.744 945.579 501.036 945.845 501.726Z" fill="#A6B654"/>
<path d="M923.99 506.605C925.098 509.501 927.664 512.089 931.524 514.29C932.451 514.819 933.974 514.041 933.051 513.516C929.422 511.446 927.111 509.03 926.072 506.314C925.809 505.622 923.727 505.915 923.99 506.605Z" fill="#A6B654"/>
<path d="M967.134 503.593C969.627 506.247 971.231 509.019 972.028 511.929C972.219 512.625 974.301 512.329 974.111 511.637C973.286 508.632 971.566 505.777 968.998 503.039C968.402 502.402 966.538 502.958 967.134 503.593Z" fill="#A6B654"/>
<path d="M905.662 492.26C905.662 495.069 905.662 497.878 905.662 500.687C905.662 501.392 907.822 501.394 907.822 500.687C907.822 497.878 907.822 495.069 907.822 492.26C907.822 491.555 905.662 491.554 905.662 492.26Z" fill="#A6B654"/>
<path d="M890.646 486.314C889.233 488.566 889.67 490.889 891.819 492.981C892.463 493.607 894.327 493.053 893.683 492.427C891.793 490.587 891.491 488.576 892.726 486.604C893.152 485.931 891.067 485.643 890.646 486.314Z" fill="#A6B654"/>
<path d="M938.27 488.825C940.058 492.071 941.847 495.319 943.635 498.566C944.009 499.244 946.093 498.956 945.717 498.274C943.929 495.027 942.14 491.781 940.352 488.533C939.98 487.856 937.896 488.144 938.27 488.825Z" fill="#A6B654"/>
<path d="M952.189 492.966C954.595 495.013 957.001 497.06 959.408 499.107C960.118 499.712 961.986 499.161 961.272 498.553C958.865 496.506 956.459 494.458 954.053 492.412C953.342 491.807 951.474 492.357 952.189 492.966Z" fill="#A6B654"/>
<path d="M959.889 519.76C959.948 521.79 961.576 523.661 964.535 525.032C965.559 525.507 967.093 524.734 966.063 524.257C963.505 523.073 962.099 521.519 962.049 519.76C962.03 519.056 959.87 519.054 959.889 519.76Z" fill="#A6B654"/>
<path d="M984.12 512.392C985.023 514.607 985.926 516.821 986.831 519.036C987.112 519.727 989.194 519.434 988.913 518.745C988.01 516.53 987.105 514.316 986.202 512.101C985.921 511.41 983.839 511.703 984.12 512.392Z" fill="#A6B654"/>
<path d="M997.035 536.505C999.339 538.001 1003.15 538.622 1006.76 538.176C1008.11 538.009 1007.54 536.951 1006.19 537.119C1003.26 537.481 1000.4 536.923 998.562 535.73C997.707 535.175 996.188 535.955 997.035 536.505Z" fill="#A6B654"/>
<path d="M1020.21 499.503C1020.8 500.241 1021.38 500.981 1021.96 501.72C1022.47 502.367 1024.56 502.085 1024.04 501.428C1023.46 500.69 1022.88 499.95 1022.3 499.211C1021.79 498.565 1019.7 498.847 1020.21 499.503Z" fill="#A6B654"/>
<path d="M1057.96 492.075C1061.8 494.712 1064.35 497.62 1065.61 500.838C1065.88 501.53 1067.97 501.237 1067.69 500.547C1066.4 497.251 1063.76 494.224 1059.82 491.521C1059.01 490.961 1057.13 491.507 1057.96 492.075Z" fill="#A6B654"/>
<path d="M1075.22 505.281C1076.78 507.381 1077.71 509.533 1077.98 511.773C1078.07 512.473 1080.23 512.479 1080.14 511.773C1079.86 509.435 1078.93 507.184 1077.3 504.99C1076.82 504.336 1074.73 504.619 1075.22 505.281Z" fill="#A6B654"/>
<path d="M1030.53 483.556C1031.51 485.76 1032.5 487.965 1033.49 490.169C1033.8 490.856 1035.88 490.566 1035.57 489.877C1034.58 487.673 1033.6 485.468 1032.61 483.264C1032.3 482.577 1030.22 482.867 1030.53 483.556Z" fill="#A6B654"/>
<path d="M1005.32 475.848C1005.32 477.031 1005.32 478.213 1005.32 479.397C1005.32 480.102 1007.48 480.104 1007.48 479.397C1007.48 478.215 1007.48 477.032 1007.48 475.848C1007.48 475.144 1005.32 475.142 1005.32 475.848Z" fill="#A6B654"/>
<path d="M972.646 477.826C975.43 482.385 978.214 486.942 980.999 491.5C981.409 492.172 983.494 491.885 983.081 491.209C980.297 486.65 977.513 482.093 974.728 477.535C974.318 476.863 972.233 477.149 972.646 477.826Z" fill="#A6B654"/>
<path d="M1017.67 492.392C1018.25 493.279 1018.84 494.166 1019.42 495.052C1019.86 495.718 1021.95 495.433 1021.51 494.761C1020.92 493.874 1020.34 492.988 1019.75 492.101C1019.31 491.436 1017.23 491.722 1017.67 492.392Z" fill="#A6B654"/>
<path d="M1068.38 470.661C1069.79 473.475 1071.2 476.291 1072.62 479.106C1072.96 479.788 1075.05 479.499 1074.7 478.814C1073.29 476 1071.88 473.184 1070.46 470.369C1070.12 469.687 1068.04 469.976 1068.38 470.661Z" fill="#A6B654"/>
<path d="M1017.55 476.736C1017.55 478.953 1017.55 481.171 1017.55 483.389C1017.55 484.093 1019.71 484.095 1019.71 483.389C1019.71 481.171 1019.71 478.953 1019.71 476.736C1019.71 476.03 1017.55 476.029 1017.55 476.736Z" fill="#A6B654"/>
<path d="M994.088 492.567C993.313 494.723 993.853 496.801 995.708 498.781C996.305 499.417 998.169 498.862 997.572 498.227C995.985 496.533 995.505 494.703 996.171 492.858C996.419 492.169 994.337 491.874 994.088 492.567Z" fill="#A6B654"/>
<path d="M1063.21 470.188C1064.6 470.188 1064.61 469.092 1063.21 469.092C1061.82 469.092 1061.82 470.188 1063.21 470.188Z" fill="#A6B654"/>
<path d="M1039.54 467.412C1040.39 470.809 1040.62 474.202 1040.23 477.62C1040.14 478.325 1042.3 478.323 1042.39 477.62C1042.78 474.202 1042.56 470.809 1041.7 467.412C1041.52 466.723 1039.36 466.713 1039.54 467.412Z" fill="#A6B654"/>
<path d="M1021.41 450.792C1019.74 454.222 1018.8 457.684 1018.56 461.213C1018.51 461.919 1020.67 461.918 1020.72 461.213C1020.95 457.784 1021.87 454.416 1023.49 451.084C1023.82 450.399 1021.74 450.106 1021.41 450.792Z" fill="#A6B654"/>
<path d="M983.394 456.165C981.943 457.941 980.491 459.716 979.04 461.492C978.508 462.143 980.597 462.427 981.122 461.783C982.573 460.008 984.025 458.232 985.477 456.457C986.01 455.806 983.921 455.522 983.394 456.165Z" fill="#A6B654"/>
<path d="M945.765 471.1C951.182 473.649 954.234 476.976 954.515 480.729C954.567 481.432 956.729 481.436 956.675 480.729C956.375 476.711 953.109 473.062 947.292 470.325C946.275 469.846 944.743 470.618 945.765 471.1Z" fill="#A6B654"/>
<path d="M933.52 474.069C933.036 476.883 932.554 479.696 932.071 482.51C931.95 483.212 934.11 483.208 934.231 482.51C934.714 479.696 935.196 476.883 935.68 474.069C935.801 473.367 933.639 473.371 933.52 474.069Z" fill="#A6B654"/>
<path d="M915.279 466.535C915.279 469.196 915.279 471.857 915.279 474.519C915.279 475.224 917.439 475.226 917.439 474.519C917.439 471.858 917.439 469.197 917.439 466.535C917.439 465.829 915.279 465.828 915.279 466.535Z" fill="#A6B654"/>
<path d="M886.708 465.772C887.773 468.885 888.838 471.999 889.903 475.113C890.141 475.807 892.223 475.513 891.985 474.821C890.92 471.708 889.856 468.594 888.791 465.48C888.555 464.788 886.473 465.081 886.708 465.772Z" fill="#A6B654"/>
<path d="M854.963 466.978C854.175 470.222 853.883 473.469 854.088 476.736C854.134 477.44 856.294 477.443 856.248 476.736C856.043 473.469 856.332 470.222 857.123 466.978C857.294 466.279 855.132 466.286 854.963 466.978Z" fill="#A6B654"/>
<path d="M831.216 466.816C829.911 471.47 831.529 475.958 836.093 480.052C836.778 480.666 838.644 480.115 837.957 479.499C833.7 475.678 832.078 471.457 833.298 467.107C833.49 466.418 831.41 466.12 831.216 466.816Z" fill="#A6B654"/>
<path d="M859.399 488.409C860.685 490.63 862.372 492.767 864.45 494.827C865.082 495.455 866.947 494.902 866.314 494.274C864.32 492.297 862.717 490.249 861.482 488.118C861.091 487.443 859.006 487.73 859.399 488.409Z" fill="#A6B654"/>
<path d="M877.727 479.395C878.023 480.578 878.317 481.76 878.613 482.943C878.786 483.633 880.948 483.642 880.773 482.943C880.477 481.76 880.183 480.578 879.887 479.395C879.714 478.704 877.552 478.696 877.727 479.395Z" fill="#A6B654"/>
<path d="M918.746 453.228C918.7 456.024 919.592 458.721 921.456 461.354C921.923 462.012 924.012 461.728 923.539 461.062C921.741 458.524 920.862 455.926 920.906 453.228C920.919 452.522 918.759 452.521 918.746 453.228Z" fill="#A6B654"/>
<path d="M944.473 447.008C944.819 450.119 945.167 453.231 945.512 456.342C945.59 457.044 947.75 457.048 947.672 456.342C947.327 453.231 946.979 450.119 946.633 447.008C946.555 446.306 944.395 446.302 944.473 447.008Z" fill="#A6B654"/>
<path d="M955.476 448.5C956.265 450.431 957.053 452.362 957.842 454.293C958.122 454.984 960.205 454.691 959.924 454.002C959.135 452.07 958.347 450.139 957.561 448.208C957.278 447.519 955.196 447.81 955.476 448.5Z" fill="#A6B654"/>
<path d="M980.869 469.64C980.532 471.198 980.824 472.727 981.72 474.225C982.122 474.898 984.209 474.611 983.803 473.933C982.958 472.523 982.712 471.105 983.029 469.64C983.181 468.941 981.021 468.947 980.869 469.64Z" fill="#A6B654"/>
<path d="M1004.62 435.017C1001.96 436.157 1001.5 437.686 1001.85 439.391C1002.44 442.306 1004.63 445.247 1006.12 448.073C1006.47 448.753 1008.56 448.465 1008.2 447.781C1007.12 445.718 1006.01 443.66 1004.95 441.594C1003.97 439.677 1002.69 437.277 1006.15 435.793C1007.22 435.337 1005.68 434.564 1004.62 435.017Z" fill="#A6B654"/>
<path d="M1054.44 444.042C1055.3 445.908 1055.51 447.774 1055.09 449.676C1054.93 450.376 1057.09 450.371 1057.25 449.676C1057.69 447.676 1057.43 445.708 1056.52 443.751C1056.2 443.065 1054.12 443.355 1054.44 444.042Z" fill="#A6B654"/>
<path d="M1074.37 450.566C1074.77 453.53 1074.21 456.426 1072.66 459.292C1072.3 459.973 1074.38 460.264 1074.75 459.583C1076.35 456.622 1076.94 453.631 1076.53 450.566C1076.44 449.866 1074.28 449.861 1074.37 450.566Z" fill="#A6B654"/>
<path d="M1036.46 439.459C1035.8 442.845 1036.62 446.116 1038.93 449.311C1039.41 449.967 1041.49 449.683 1041.01 449.019C1038.77 445.92 1037.98 442.743 1038.62 439.459C1038.76 438.757 1036.6 438.762 1036.46 439.459Z" fill="#A6B654"/>
<path d="M1038.68 422.936C1037.76 424.9 1038.76 426.863 1041.4 428.368C1042.33 428.895 1043.85 428.118 1042.93 427.593C1040.81 426.387 1040.03 424.799 1040.76 423.228C1041.08 422.541 1039 422.249 1038.68 422.936Z" fill="#A6B654"/>
<path d="M1055.13 420.114C1056.34 422.326 1057.55 424.538 1058.75 426.751C1059.12 427.429 1061.21 427.141 1060.83 426.459C1059.63 424.247 1058.42 422.036 1057.21 419.823C1056.85 419.144 1054.76 419.433 1055.13 420.114Z" fill="#A6B654"/>
<path d="M1066.55 421.881C1068.26 425.786 1069.42 429.722 1070.03 433.711C1070.13 434.41 1072.29 434.416 1072.19 433.711C1071.56 429.624 1070.38 425.592 1068.63 421.591C1068.33 420.901 1066.25 421.193 1066.55 421.881Z" fill="#A6B654"/>
<path d="M1018.43 419.962C1018.43 421.884 1018.43 423.806 1018.43 425.728C1018.43 426.434 1020.59 426.435 1020.59 425.728C1020.59 423.806 1020.59 421.884 1020.59 419.962C1020.59 419.257 1018.43 419.256 1018.43 419.962Z" fill="#A6B654"/>
<path d="M1021.05 410.205C1021.05 412.866 1021.05 415.527 1021.05 418.188C1021.05 418.893 1023.21 418.895 1023.21 418.188C1023.21 415.527 1023.21 412.866 1023.21 410.205C1023.21 409.499 1021.05 409.498 1021.05 410.205Z" fill="#A6B654"/>
<path d="M990.276 415.53C990.617 420.113 990.959 424.695 991.3 429.277C991.352 429.981 993.512 429.984 993.46 429.277C993.119 424.695 992.777 420.113 992.436 415.53C992.384 414.828 990.224 414.823 990.276 415.53Z" fill="#A6B654"/>
<path d="M972.191 435.334C973.668 436.772 974.554 438.301 974.821 439.918C974.938 440.616 977.098 440.621 976.981 439.918C976.679 438.105 975.711 436.394 974.055 434.781C973.413 434.155 971.549 434.709 972.191 435.334Z" fill="#A6B654"/>
<path d="M979.966 447.906C979.966 448.941 979.966 449.976 979.966 451.011C979.966 451.716 982.126 451.717 982.126 451.011C982.126 449.976 982.126 448.941 982.126 447.906C982.126 447.2 979.966 447.199 979.966 447.906Z" fill="#A6B654"/>
<path d="M939.551 429.883C940.793 434.461 942.037 439.039 943.279 443.617C943.467 444.313 945.549 444.017 945.361 443.326C944.119 438.748 942.875 434.17 941.633 429.592C941.443 428.896 939.363 429.192 939.551 429.883Z" fill="#A6B654"/>
<path d="M923.601 424.832C923.292 428.238 922.983 431.645 922.672 435.052C922.608 435.756 924.768 435.755 924.832 435.052C925.141 431.645 925.45 428.238 925.761 424.832C925.824 424.126 923.664 424.128 923.601 424.832Z" fill="#A6B654"/>
<path d="M894.409 426.034C893.273 428.642 893.234 431.245 894.277 433.864C894.554 434.554 896.636 434.261 896.359 433.572C895.392 431.145 895.439 428.742 896.491 426.325C896.791 425.638 894.709 425.344 894.409 426.034Z" fill="#A6B654"/>
<path d="M903.183 438.284C904.263 441.543 905.343 444.804 906.425 448.064C906.656 448.757 908.736 448.464 908.507 447.772C907.427 444.512 906.347 441.252 905.265 437.992C905.036 437.299 902.954 437.593 903.183 438.284Z" fill="#A6B654"/>
<path d="M929.597 442.253C930.332 444.13 930.468 446 930.06 447.9C929.908 448.6 932.071 448.595 932.22 447.9C932.649 445.901 932.453 443.933 931.68 441.962C931.41 441.27 929.327 441.563 929.597 442.253Z" fill="#A6B654"/>
<path d="M884.289 446.435C886.899 447.809 888.184 449.546 888.056 451.45C888.009 452.156 890.169 452.155 890.216 451.45C890.363 449.269 888.795 447.23 885.816 445.66C884.851 445.15 883.326 445.926 884.289 446.435Z" fill="#A6B654"/>
<path d="M896.923 456.776C896.923 458.551 896.923 460.325 896.923 462.099C896.923 462.803 899.083 462.805 899.083 462.099C899.083 460.324 899.083 458.551 899.083 456.776C899.083 456.071 896.923 456.069 896.923 456.776Z" fill="#A6B654"/>
<path d="M853.155 448.796C853.552 450.991 853.349 453.149 852.496 455.313C852.224 456.001 854.306 456.296 854.578 455.604C855.47 453.347 855.73 451.09 855.315 448.796C855.187 448.099 853.027 448.092 853.155 448.796Z" fill="#A6B654"/>
<path d="M831.348 446.462C834.84 449.284 836.234 452.473 835.272 455.776C835.071 456.467 837.151 456.764 837.355 456.068C838.402 452.469 837.033 448.995 833.214 445.909C832.475 445.314 830.605 445.863 831.348 446.462Z" fill="#A6B654"/>
<path d="M812.854 450.574C813.208 452.789 813.562 455.004 813.917 457.219C814.029 457.917 816.189 457.922 816.077 457.219C815.722 455.004 815.368 452.789 815.014 450.574C814.902 449.876 812.742 449.869 812.854 450.574Z" fill="#A6B654"/>
<path d="M793.779 457.664C793.314 460.38 794.347 462.99 796.759 465.422C797.386 466.052 799.248 465.498 798.624 464.869C796.375 462.602 795.505 460.189 795.937 457.664C796.06 456.961 793.897 456.966 793.779 457.664Z" fill="#A6B654"/>
<path d="M824.507 456.468C825.371 458.631 825.58 460.787 825.189 462.983C825.064 463.686 827.224 463.682 827.349 462.983C827.76 460.69 827.492 458.433 826.589 456.176C826.313 455.486 824.23 455.778 824.507 456.468Z" fill="#A6B654"/>
<path d="M790.048 441.432C791.221 443.797 792.394 446.161 793.567 448.526C793.906 449.21 795.991 448.92 795.649 448.235C794.476 445.869 793.303 443.505 792.131 441.14C791.794 440.457 789.709 440.747 790.048 441.432Z" fill="#A6B654"/>
<path d="M778.181 435.794C777.38 438.299 778.138 440.707 780.499 442.948C781.154 443.571 783.02 443.017 782.363 442.395C780.298 440.433 779.559 438.284 780.264 436.084C780.484 435.395 778.404 435.098 778.181 435.794Z" fill="#A6B654"/>
<path d="M811.18 435.043C811.314 437.782 812.575 440.388 814.925 442.853C815.53 443.488 817.394 442.933 816.789 442.3C814.603 440.007 813.465 437.589 813.34 435.042C813.305 434.339 811.145 434.336 811.18 435.043Z" fill="#A6B654"/>
<path d="M828.177 440.36C828.362 442.395 829.034 444.379 830.222 446.326C830.63 446.998 832.717 446.711 832.304 446.035C831.175 444.181 830.514 442.299 830.337 440.36C830.272 439.657 828.112 439.653 828.177 440.36Z" fill="#A6B654"/>
<path d="M860.561 433.367C861.994 435.763 863.823 438.076 866.041 440.312C866.668 440.942 868.53 440.387 867.906 439.758C865.769 437.606 864.022 435.382 862.644 433.076C862.24 432.403 860.155 432.689 860.561 433.367Z" fill="#A6B654"/>
<path d="M859.257 426.018C858.801 427.653 858.345 429.288 857.89 430.925C857.697 431.614 859.778 431.912 859.972 431.216C860.428 429.581 860.884 427.946 861.339 426.309C861.532 425.62 859.451 425.322 859.257 426.018Z" fill="#A6B654"/>
<path d="M834.1 423.669C832.186 425.583 830.98 427.59 830.425 429.717C830.242 430.414 832.404 430.407 832.585 429.717C833.091 427.79 834.233 425.954 835.966 424.222C836.592 423.594 834.728 423.039 834.1 423.669Z" fill="#A6B654"/>
<path d="M844.686 436.942C845.513 438.809 845.694 440.678 845.282 442.578C845.131 443.279 847.291 443.273 847.442 442.578C847.878 440.578 847.638 438.611 846.768 436.65C846.463 435.963 844.379 436.253 844.686 436.942Z" fill="#A6B654"/>
<path d="M870.698 456.776C870.698 457.663 870.698 458.551 870.698 459.437C870.698 460.142 872.858 460.144 872.858 459.437C872.858 458.551 872.858 457.663 872.858 456.776C872.858 456.071 870.698 456.069 870.698 456.776Z" fill="#A6B654"/>
<path d="M882.948 417.745C882.581 420.172 883.566 422.498 885.797 424.648C886.445 425.272 888.309 424.719 887.661 424.094C885.598 422.106 884.769 419.981 885.106 417.744C885.216 417.041 883.054 417.046 882.948 417.745Z" fill="#A6B654"/>
<path d="M910.116 416.112C910.427 417.145 910.738 418.179 911.049 419.212C911.259 419.907 913.341 419.612 913.132 418.921C912.821 417.887 912.51 416.854 912.199 415.82C911.989 415.127 909.909 415.421 910.116 416.112Z" fill="#A6B654"/>
<path d="M951.984 414.196C951.772 416.339 952.1 418.446 952.936 420.548C953.211 421.239 955.293 420.947 955.018 420.257C954.219 418.249 953.941 416.24 954.141 414.196C954.213 413.49 952.053 413.492 951.984 414.196Z" fill="#A6B654"/>
<path d="M958.112 430.164C958.112 431.198 958.112 432.234 958.112 433.269C958.112 433.973 960.272 433.975 960.272 433.269C960.272 432.234 960.272 431.198 960.272 430.164C960.272 429.458 958.112 429.457 958.112 430.164Z" fill="#A6B654"/>
<path d="M974.54 414.648C974.882 416.716 975.225 418.783 975.569 420.851C975.683 421.549 977.845 421.555 977.729 420.851C977.385 418.783 977.044 416.716 976.7 414.648C976.584 413.95 974.424 413.943 974.54 414.648Z" fill="#A6B654"/>
<path d="M977.342 401.777C977.342 403.256 977.342 404.734 977.342 406.213C977.342 406.918 979.502 406.92 979.502 406.213C979.502 404.734 979.502 403.256 979.502 401.777C979.502 401.072 977.342 401.07 977.342 401.777Z" fill="#A6B654"/>
<path d="M954.615 407.986C954.615 408.282 954.615 408.578 954.615 408.873C954.615 409.578 956.775 409.58 956.775 408.873C956.775 408.577 956.775 408.281 956.775 407.986C956.775 407.282 954.615 407.28 954.615 407.986Z" fill="#A6B654"/>
<path d="M1012.84 399.819C1011.88 402.815 1015.3 405.724 1021.01 406.675C1022.33 406.896 1022.9 405.838 1021.58 405.619C1017.08 404.869 1014.16 402.495 1014.93 400.11C1015.15 399.42 1013.07 399.124 1012.84 399.819Z" fill="#A6B654"/>
<path d="M1030.69 397.786C1030.62 400.6 1032.09 403.267 1035.02 405.657C1035.75 406.255 1037.62 405.706 1036.88 405.104C1034.14 402.866 1032.79 400.424 1032.85 397.786C1032.86 397.08 1030.7 397.079 1030.69 397.786Z" fill="#A6B654"/>
<path d="M1046.65 400.556C1048.04 402.636 1049.44 404.717 1050.83 406.798C1051.28 407.462 1053.37 407.177 1052.92 406.506C1051.52 404.426 1050.12 402.346 1048.73 400.265C1048.28 399.601 1046.2 399.886 1046.65 400.556Z" fill="#A6B654"/>
<path d="M1061.37 403.397C1063.13 404.799 1063.98 406.325 1063.93 407.987C1063.91 408.693 1066.07 408.693 1066.09 407.987C1066.15 406.147 1065.18 404.397 1063.23 402.844C1062.49 402.251 1060.62 402.8 1061.37 403.397Z" fill="#A6B654"/>
<path d="M1035.73 410.475C1035.45 411.067 1035.16 411.66 1034.88 412.252C1034.55 412.937 1036.63 413.229 1036.96 412.543C1037.25 411.951 1037.53 411.358 1037.81 410.767C1038.14 410.082 1036.06 409.789 1035.73 410.475Z" fill="#A6B654"/>
<path d="M1064.32 389.093C1066.46 390.802 1067.76 392.666 1068.12 394.685C1068.25 395.381 1070.41 395.389 1070.28 394.685C1069.88 392.474 1068.54 390.415 1066.19 388.54C1065.44 387.947 1063.57 388.496 1064.32 389.093Z" fill="#A6B654"/>
<path d="M1030.63 387.139C1030.57 389.455 1031.19 391.713 1032.49 393.933C1032.88 394.609 1034.97 394.32 1034.57 393.642C1033.32 391.515 1032.73 389.358 1032.79 387.139C1032.81 386.435 1030.65 386.433 1030.63 387.139Z" fill="#A6B654"/>
<path d="M1023.86 383.329C1022.66 384.343 1023.28 385.58 1025.09 386.274C1026.2 386.698 1027.28 385.747 1026.18 385.327C1025.3 384.989 1025.19 384.34 1025.73 383.882C1026.44 383.276 1024.58 382.724 1023.86 383.329Z" fill="#A6B654"/>
<path d="M1047.57 377.478C1049.39 379.887 1051.21 382.295 1053.02 384.704C1053.52 385.356 1055.61 385.073 1055.11 384.412C1053.29 382.003 1051.47 379.595 1049.65 377.186C1049.16 376.534 1047.07 376.817 1047.57 377.478Z" fill="#A6B654"/>
<path d="M1021.94 369.843C1021.61 371.202 1022.27 372.547 1023.8 373.674C1024.59 374.251 1026.46 373.703 1025.67 373.12C1024.32 372.129 1023.81 371.036 1024.1 369.843C1024.27 369.145 1022.11 369.152 1021.94 369.843Z" fill="#A6B654"/>
<path d="M1047.38 386.538C1048.95 388.285 1050.52 390.033 1052.1 391.78C1052.67 392.421 1054.54 391.865 1053.96 391.227C1052.39 389.48 1050.82 387.732 1049.24 385.985C1048.67 385.345 1046.81 385.9 1047.38 386.538Z" fill="#A6B654"/>
<path d="M1059.43 367.185C1059.8 369.08 1059.71 370.958 1059.09 372.838C1058.86 373.528 1060.94 373.825 1061.17 373.13C1061.82 371.152 1061.98 369.183 1061.59 367.185C1061.45 366.49 1059.29 366.483 1059.43 367.185Z" fill="#A6B654"/>
<path d="M1044.58 367.627C1044.69 368.549 1043.72 369.456 1041.98 369.805C1040.7 370.061 1041.26 371.121 1042.56 370.861C1045.16 370.338 1046.92 369.071 1046.75 367.627C1046.66 366.927 1044.5 366.921 1044.58 367.627Z" fill="#A6B654"/>
<path d="M1030 367.728C1033.2 367.728 1036.41 367.728 1039.61 367.728C1041 367.728 1041.01 366.632 1039.61 366.632C1036.41 366.632 1033.2 366.632 1030 366.632C1028.61 366.632 1028.61 367.728 1030 367.728Z" fill="#A6B654"/>
<path d="M1069.29 368.644C1069.9 370.267 1070.51 371.892 1071.13 373.515C1071.39 374.206 1073.47 373.914 1073.21 373.223C1072.6 371.6 1071.99 369.976 1071.38 368.353C1071.11 367.661 1069.03 367.954 1069.29 368.644Z" fill="#A6B654"/>
<path d="M876.677 404.887C877.029 407.25 877.379 409.614 877.731 411.977C877.835 412.676 879.997 412.682 879.891 411.977C879.542 409.614 879.189 407.25 878.837 404.887C878.734 404.188 876.572 404.182 876.677 404.887Z" fill="#A6B654"/>
<path d="M858.434 408.138C858.836 409.548 858.583 410.938 857.771 412.3C857.367 412.977 859.451 413.266 859.853 412.592C860.784 411.031 860.974 409.458 860.516 407.846C860.32 407.151 858.237 407.447 858.434 408.138Z" fill="#A6B654"/>
<path d="M866.327 421.737C866.327 423.659 866.327 425.581 866.327 427.503C866.327 428.208 868.487 428.21 868.487 427.503C868.487 425.581 868.487 423.659 868.487 421.737C868.487 421.031 866.327 421.03 866.327 421.737Z" fill="#A6B654"/>
<path d="M877.69 431.494C877.69 432.529 877.69 433.564 877.69 434.599C877.69 435.304 879.85 435.306 879.85 434.599C879.85 433.564 879.85 432.529 879.85 431.494C879.85 430.789 877.69 430.788 877.69 431.494Z" fill="#A6B654"/>
<path d="M834.858 410.647C834.858 411.978 834.858 413.308 834.858 414.639C834.858 415.345 837.018 415.346 837.018 414.639C837.018 413.308 837.018 411.978 837.018 410.647C837.018 409.943 834.858 409.942 834.858 410.647Z" fill="#A6B654"/>
<path d="M831.212 418.721C829.756 420.225 829.045 421.825 829.149 423.501C829.192 424.205 831.352 424.208 831.309 423.501C831.216 422.018 831.786 420.608 833.076 419.275C833.687 418.644 831.825 418.087 831.212 418.721Z" fill="#A6B654"/>
<path d="M813.102 422.042C811.722 424.566 810.344 427.09 808.964 429.615C808.592 430.296 810.674 430.586 811.046 429.907C812.426 427.383 813.804 424.859 815.184 422.334C815.558 421.653 813.474 421.362 813.102 422.042Z" fill="#A6B654"/>
<path d="M787.618 416.857C787.608 419.461 788.23 422.014 789.48 424.538C789.819 425.222 791.904 424.931 791.562 424.246C790.357 421.815 789.767 419.363 789.776 416.857C789.78 416.151 787.62 416.15 787.618 416.857Z" fill="#A6B654"/>
<path d="M784.137 426.171C783.987 429.409 784.886 432.544 786.852 435.626C787.277 436.295 789.364 436.009 788.934 435.335C787.029 432.349 786.152 429.308 786.297 426.171C786.329 425.466 784.169 425.466 784.137 426.171Z" fill="#A6B654"/>
<path d="M747.738 426.027C747.849 426.004 747.959 425.982 748.069 425.959C748.667 425.836 748.911 425.61 748.823 425.285C748.715 424.889 748.52 424.763 747.827 424.586C747.406 424.479 746.859 424.487 746.518 424.672C744.574 425.717 745.602 427.621 745.885 428.922C746.315 430.903 747.106 432.844 748.181 434.761C748.561 435.439 750.646 435.15 750.263 434.47C749.412 432.954 748.728 431.427 748.289 429.866C748.049 429.01 746.745 426.145 748.045 425.445C747.609 425.474 747.172 425.502 746.736 425.531C746.738 425.546 746.738 425.56 746.74 425.576C746.991 425.351 747.244 425.126 747.494 424.902C747.384 424.925 747.274 424.947 747.164 424.97C745.892 425.233 746.449 426.293 747.738 426.027Z" fill="#A6B654"/>
<path d="M760.541 443.804C761.992 444.841 763.442 445.879 764.893 446.916C765.69 447.487 767.565 446.94 766.757 446.363C765.306 445.326 763.856 444.288 762.405 443.251C761.608 442.681 759.735 443.228 760.541 443.804Z" fill="#A6B654"/>
<path d="M774.682 449.372C775.691 452.066 777.417 454.629 779.83 457.081C780.449 457.712 782.313 457.157 781.694 456.527C779.361 454.156 777.739 451.683 776.764 449.081C776.505 448.389 774.423 448.682 774.682 449.372Z" fill="#A6B654"/>
<path d="M763.178 417.745C763.178 419.815 763.178 421.884 763.178 423.955C763.178 424.659 765.338 424.661 765.338 423.955C765.338 421.884 765.338 419.815 765.338 417.745C765.338 417.039 763.178 417.038 763.178 417.745Z" fill="#A6B654"/>
<path d="M759.681 430.608C759.681 431.938 759.681 433.269 759.681 434.6C759.681 435.304 761.841 435.306 761.841 434.6C761.841 433.269 761.841 431.938 761.841 430.608C761.841 429.902 759.681 429.901 759.681 430.608Z" fill="#A6B654"/>
<path d="M778.991 419.218C779.536 421.142 780.08 423.068 780.622 424.993C780.819 425.688 782.901 425.393 782.704 424.701C782.16 422.777 781.616 420.852 781.074 418.926C780.877 418.231 778.797 418.526 778.991 419.218Z" fill="#A6B654"/>
<path d="M725.415 407.377C724.291 410.748 724.367 414.087 725.657 417.443C725.922 418.135 728.004 417.842 727.739 417.152C726.525 413.991 726.438 410.843 727.497 407.668C727.728 406.979 725.648 406.682 725.415 407.377Z" fill="#A6B654"/>
<path d="M736.195 418.057C734.971 419.741 734.923 421.526 736.036 423.227C736.472 423.893 738.558 423.607 738.118 422.936C737.113 421.398 737.174 419.867 738.278 418.349C738.761 417.687 736.675 417.401 736.195 418.057Z" fill="#A6B654"/>
<path d="M745.956 414.964C744.939 417.338 745.295 419.712 747.11 421.965C747.628 422.609 749.719 422.326 749.192 421.673C747.52 419.597 747.099 417.449 748.039 415.256C748.335 414.569 746.252 414.274 745.956 414.964Z" fill="#A6B654"/>
<path d="M756.231 410.646C756.707 413.751 758.467 416.668 761.539 419.364C762.234 419.974 764.1 419.423 763.403 418.81C760.517 416.277 758.836 413.564 758.389 410.646C758.283 409.948 756.123 409.941 756.231 410.646Z" fill="#A6B654"/>
<path d="M768.63 414.3C770.019 414.3 770.023 413.204 768.63 413.204C767.239 413.204 767.237 414.3 768.63 414.3Z" fill="#A6B654"/>
<path d="M727.408 394.24C726.981 396.534 727.225 398.792 728.091 401.052C728.357 401.743 730.439 401.451 730.173 400.76C729.342 398.595 729.158 396.434 729.568 394.24C729.7 393.539 727.538 393.543 727.408 394.24Z" fill="#A6B654"/>
<path d="M745.164 401.236C743.611 404.044 744.645 406.961 748.118 409.291C748.946 409.847 750.823 409.301 749.983 408.738C746.835 406.627 745.831 404.083 747.244 401.527C747.624 400.847 745.539 400.556 745.164 401.236Z" fill="#A6B654"/>
<path d="M756.182 401.043C757.333 402.672 758.484 404.301 759.636 405.93C760.102 406.589 762.189 406.305 761.718 405.638C760.566 404.01 759.415 402.38 758.264 400.751C757.8 400.093 755.711 400.377 756.182 401.043Z" fill="#A6B654"/>
<path d="M749.749 385.783C749.103 388.282 751.021 390.743 754.838 392.351C755.899 392.799 757.437 392.028 756.365 391.577C752.924 390.126 751.328 388.031 751.909 385.783C752.088 385.085 749.926 385.093 749.749 385.783Z" fill="#A6B654"/>
<path d="M766.9 389.357C767.042 392.436 769.416 395.253 773.725 397.424C774.713 397.921 776.242 397.146 775.253 396.649C771.334 394.675 769.189 392.16 769.06 389.358C769.027 388.654 766.867 388.65 766.9 389.357Z" fill="#A6B654"/>
<path d="M778.998 388.608C780.393 390.837 781.786 393.064 783.182 395.292C783.601 395.962 785.687 395.675 785.264 395C783.869 392.772 782.475 390.545 781.08 388.317C780.663 387.647 778.577 387.933 778.998 388.608Z" fill="#A6B654"/>
<path d="M791.327 378.141C790.206 380.674 791.794 383.261 795.66 384.976C796.703 385.438 798.237 384.666 797.187 384.201C793.898 382.741 792.448 380.606 793.409 378.433C793.714 377.746 791.632 377.453 791.327 378.141Z" fill="#A6B654"/>
<path d="M799.915 378.416C800.706 380.661 802.579 382.674 805.4 384.445C806.272 384.994 807.793 384.214 806.927 383.67C804.339 382.046 802.721 380.176 801.998 378.125C801.753 377.431 799.673 377.724 799.915 378.416Z" fill="#A6B654"/>
<path d="M809.596 376.636C809.888 377.523 810.182 378.41 810.473 379.297C810.702 379.991 812.785 379.697 812.556 379.006C812.264 378.119 811.972 377.231 811.679 376.344C811.45 375.651 809.367 375.945 809.596 376.636Z" fill="#A6B654"/>
<path d="M734.387 374.133C732.374 376.757 731.191 379.452 730.763 382.257C730.655 382.961 732.817 382.957 732.923 382.257C733.336 379.551 734.532 376.952 736.47 374.425C736.973 373.767 734.886 373.482 734.387 374.133Z" fill="#A6B654"/>
<path d="M750.942 375.607C750.942 377.233 750.942 378.86 750.942 380.486C750.942 381.191 753.102 381.193 753.102 380.486C753.102 378.86 753.102 377.233 753.102 375.607C753.102 374.902 750.942 374.901 750.942 375.607Z" fill="#A6B654"/>
<path d="M760.7 375.917C759.8 378.266 760.599 380.579 763.113 382.608C763.85 383.204 765.72 382.654 764.977 382.055C762.778 380.279 761.992 378.27 762.783 376.207C763.048 375.519 760.966 375.224 760.7 375.917Z" fill="#A6B654"/>
<path d="M769.468 377.694C768.872 379.398 769.727 381.021 771.935 382.343C772.835 382.882 774.356 382.103 773.462 381.568C771.794 380.569 771.101 379.274 771.552 377.985C771.792 377.295 769.712 376.999 769.468 377.694Z" fill="#A6B654"/>
<path d="M779.149 378.825C779.441 379.269 779.734 379.712 780.026 380.155C780.465 380.821 782.551 380.536 782.108 379.864C781.817 379.42 781.523 378.977 781.231 378.533C780.793 377.868 778.706 378.153 779.149 378.825Z" fill="#A6B654"/>
<path d="M791.187 371.761C791.77 372.944 792.353 374.126 792.936 375.31C793.273 375.994 795.358 375.705 795.018 375.019C794.435 373.836 793.852 372.653 793.269 371.47C792.934 370.787 790.85 371.076 791.187 371.761Z" fill="#A6B654"/>
<path d="M814.826 370.143C814.253 371.6 815.448 373.046 817.938 373.838C819.12 374.213 820.206 373.266 819.029 372.892C817.398 372.374 816.532 371.398 816.91 370.436C817.18 369.745 815.098 369.452 814.826 370.143Z" fill="#A6B654"/>
<path d="M822.805 369.278C821.831 370.881 823.014 372.537 825.621 373.534C826.732 373.958 827.81 373.007 826.712 372.588C824.87 371.883 824.222 370.667 824.889 369.57C825.298 368.894 823.213 368.605 822.805 369.278Z" fill="#A6B654"/>
<path d="M830.492 369.842C830.321 370.91 831.834 371.915 833.911 372.108C835.27 372.234 835.853 371.177 834.486 371.051C833.281 370.939 832.553 370.463 832.652 369.842C832.764 369.139 830.604 369.143 830.492 369.842Z" fill="#A6B654"/>
<path d="M840.42 371.56C840.711 371.708 841.003 371.856 841.295 372.003C842.279 372.503 843.807 371.728 842.822 371.229C842.53 371.081 842.238 370.933 841.947 370.785C840.962 370.285 839.435 371.06 840.42 371.56Z" fill="#A6B654"/>
</g>
<mask id="mask3_28_6241" style="mask-type:luminance" maskUnits="userSpaceOnUse" x="0" y="0" width="1080" height="548">
<path d="M1080 0H0V548H1080V0Z" fill="white"/>
</mask>
<g mask="url(#mask3_28_6241)">
<path opacity="0.2" d="M866.29 367.215C851.753 374.229 832.853 379.523 814.363 383.698C761.789 395.568 705.715 402.802 649.944 409.981C627.653 412.852 605.275 415.735 582.466 417.214C561.967 418.551 541.188 418.759 520.884 420.688C493.733 423.264 468.094 428.843 441.655 432.887C364.586 444.68 279.828 443.091 204.682 428.437C193.882 426.333 183.276 423.965 172.346 422.058C170.294 421.697 167.098 421.412 163.469 421.138C250.15 409.652 358.819 397.486 487.577 387.326C562.853 381.386 644.976 376.136 733.579 372.114C776.326 370.174 820.584 368.519 866.29 367.215Z" fill="url(#paint2_linear_28_6241)"/>
</g>
<mask id="mask4_28_6241" style="mask-type:luminance" maskUnits="userSpaceOnUse" x="0" y="0" width="1080" height="548">
<path d="M1080 0H0V548H1080V0Z" fill="white"/>
</mask>
<g mask="url(#mask4_28_6241)">
<path d="M776.602 418.501C776.602 418.501 819.262 409.901 952.642 400.441C952.642 400.441 968.842 386.395 955.882 381.808C942.922 377.221 909.982 367.189 888.922 368.479C867.862 369.769 877.312 377.938 863.002 379.659C848.692 381.378 848.152 377.222 831.952 381.378C815.752 385.534 828.712 391.412 818.182 394.422C807.652 397.432 805.896 394.631 798.202 397.097C788.661 400.155 795.841 405.14 785.43 408.664C773.999 412.534 776.332 417.498 776.602 418.501Z" fill="url(#paint3_linear_28_6241)"/>
</g>
<defs>
<linearGradient id="paint0_linear_28_6241" x1="794.714" y1="349.603" x2="794.714" y2="591.034" gradientUnits="userSpaceOnUse">
<stop stop-color="#A8B856"/>
<stop offset="1" stop-color="#001624"/>
</linearGradient>
<linearGradient id="paint1_linear_28_6241" x1="697.851" y1="398.911" x2="697.851" y2="593.074" gradientUnits="userSpaceOnUse">
<stop stop-color="#D29B73"/>
<stop offset="1" stop-color="#4C5D74"/>
</linearGradient>
<linearGradient id="paint2_linear_28_6241" x1="422.992" y1="511.938" x2="450.589" y2="374.568" gradientUnits="userSpaceOnUse">
<stop stop-color="#B9B938" stop-opacity="0"/>
<stop offset="0.9497" stop-color="#B9B938"/>
</linearGradient>
<linearGradient id="paint3_linear_28_6241" x1="866.929" y1="400.32" x2="859.409" y2="377.736" gradientUnits="userSpaceOnUse">
<stop stop-color="#5E6442"/>
<stop offset="1" stop-color="#81804F"/>
</linearGradient>
</defs>
</svg>
