<svg width="1202" height="544" viewBox="0 0 1202 544" fill="none" xmlns="http://www.w3.org/2000/svg">
<path d="M1199 250.5V505L618 543L153 472.5V466.5L132.5 462H115L15 452.5V314L523.5 93L519 35.5L579.5 9.5L1199 250.5Z" fill="#ECECEC"/>
<path d="M35.5 328L525.5 152.5M39.5 314L523 123.5" stroke="#838383" stroke-width="3"/>
<path d="M34.5 373.5L534 300.5" stroke="#838383" stroke-width="3"/>
<path d="M537 337L31.5 386" stroke="#838383" stroke-width="3"/>
<path d="M1200.5 250.5L677 47L661 540L1200.5 505.5V250.5Z" fill="#ABABAB" fill-opacity="0.54"/>
<path d="M958 371.5V521L976.5 520L998 402L1068.5 406.5L1045.5 515.5L1058 514.5L1079 406.5V383L986.5 371.5H958Z" fill="#303030"/>
<path d="M1044 412L1045 516L1068.5 406.5L1044 412Z" fill="#A5A5A5"/>
<path d="M996.5 411L976.5 520L1045 515.5L996.5 411Z" fill="#54C0EB"/>
<path d="M1044 412L996.5 411L1045 515.5L1044 412Z" fill="#84DBFF"/>
<path d="M1044 412L1068.5 406.5L998 402L996.5 411L1044 412Z" fill="#737373"/>
<path d="M982 401L958.5 520.5V371.5H982V401Z" fill="#4F4F4F"/>
<path d="M558.943 185.131L557.855 234.069H538.28L526.318 203.619V192.744L493.693 201.444V213.95L502.393 238.962L498.043 241.137L488.255 213.95L488.799 194.919L529.58 183.5L558.943 185.131Z" fill="#4F4F4F"/>
<path d="M493.693 213.95H488.255L498.043 241.138H503.48L493.693 213.95Z" fill="#303030"/>
<path d="M530.668 203.619H526.318L538.28 234.069H542.086L530.668 203.619Z" fill="#303030"/>
<path d="M530.124 183.5L530.668 203.619L542.086 234.069H557.855L558.943 185.131L530.124 183.5Z" fill="#414141"/>
<path d="M511.093 241.137V205.25L493.693 201.444V213.95L503.48 241.137H511.093Z" fill="#A5A5A5"/>
<path d="M511.093 270.5V205.25L525.774 201.444L538.28 234.069H552.961V261.256L511.093 270.5Z" fill="#84DBFF"/>
<path d="M533.386 221.562L511.093 270.5L552.961 261.256V234.069H538.28L533.386 221.562Z" fill="#54C0EB"/>
<path d="M526.318 201.444L511.093 205.25V269.956L552.961 261.256V234.069" stroke="black" stroke-width="2"/>
<path d="M510.549 205.25L493.693 201.444L526.318 192.744V201.444L510.549 205.25Z" fill="#838383"/>
<path d="M558.943 185.131L557.855 234.069H538.28L526.318 203.619V192.744L493.693 201.444V213.95L502.393 238.962L498.043 241.137L488.255 213.95L488.799 194.919L529.58 183.5L558.943 185.131Z" fill="#4F4F4F"/>
<path d="M493.693 213.95H488.255L498.043 241.138H503.48L493.693 213.95Z" fill="#303030"/>
<path d="M530.668 203.619H526.318L538.28 234.069H542.086L530.668 203.619Z" fill="#303030"/>
<path d="M530.124 183.5L530.668 203.619L542.086 234.069H557.855L558.943 185.131L530.124 183.5Z" fill="#414141"/>
<path d="M511.093 241.137V205.25L493.693 201.444V213.95L503.48 241.137H511.093Z" fill="#A5A5A5"/>
<path d="M511.093 270.5V205.25L525.774 201.444L538.28 234.069H552.961V261.256L511.093 270.5Z" fill="#84DBFF"/>
<path d="M533.386 221.562L511.093 270.5L552.961 261.256V234.069H538.28L533.386 221.562Z" fill="#54C0EB"/>
<path d="M526.318 201.444L511.093 205.25V269.956L552.961 261.256V234.069" stroke="black" stroke-width="2"/>
<path d="M510.549 205.25L493.693 201.444L526.318 192.744V201.444L510.549 205.25Z" fill="#838383"/>
<path d="M515.657 383.864L479.786 385.6L501.771 388.493H515.657V383.864Z" fill="#838383"/>
<path d="M503.507 429.571H492.514L479.786 400.064V385.6L501.771 388.493L503.507 429.571Z" fill="#A5A5A5"/>
<path d="M501.771 456.186V388.493H515.657V398.329L531.279 429.571H546.321V458.5L501.771 456.186Z" fill="#84DBFF"/>
<path d="M525.493 418L501.771 456.186L546.321 458.5V429.571H531.279L525.493 418Z" fill="#54C0EB"/>
<path d="M520.864 377.5L474.579 379.814L474 400.064H479.786V385.6L515.657 383.864V398.907H520.864V377.5Z" fill="#4F4F4F"/>
<path d="M492.514 429.571L479.786 400.064H474L486.15 429.571H492.514Z" fill="#303030"/>
<path d="M520.864 398.907H515.657L531.279 429.571H537.064L520.864 398.907Z" fill="#303030"/>
<path d="M553.843 377.5H520.864V398.907L537.064 429.571H553.843V377.5Z" fill="#404040"/>
<path d="M515.657 388.493H501.193V456.186L546.321 458.5V429.571" stroke="black" stroke-width="2"/>
<path d="M678.5 39.5L667.5 540L618 543.5L550.5 533L516.5 26.5L546 14.5V24L556.5 19V11L580.5 0L678.5 39.5Z" fill="#4F4F4F"/>
<path d="M618 543.5L667.5 540L678.5 39.5L580.5 0L618 543.5Z" fill="#303030"/>
<path d="M578.5 537L546 14.5L539.5 17.5L573 536.5L578.5 537Z" fill="#303030"/>
<path d="M220.522 398.281L199.406 399.312L212.348 401.03H220.522V398.281Z" fill="#838383"/>
<path d="M213.37 425.434H206.899L199.406 407.905V399.312L212.348 401.03L213.37 425.434Z" fill="#A5A5A5"/>
<path d="M212.348 441.244V401.03H220.522V406.873L229.717 425.434H238.572V442.619L212.348 441.244Z" fill="#84DBFF"/>
<path d="M226.312 418.56L212.348 441.244L238.572 442.619V425.434H229.717L226.312 418.56Z" fill="#54C0EB"/>
<path d="M223.587 394.5L196.341 395.875L196 407.905H199.406V399.312L220.522 398.281V407.217H223.587V394.5Z" fill="#4F4F4F"/>
<path d="M206.899 425.434L199.406 407.905H196L203.152 425.434H206.899Z" fill="#303030"/>
<path d="M223.587 407.217H220.522L229.717 425.434H233.123L223.587 407.217Z" fill="#303030"/>
<path d="M243 394.5H223.587V407.217L233.123 425.434H243V394.5Z" fill="#404040"/>
<path d="M220.522 401.03H212.007V441.244L238.572 442.619V425.434" stroke="black" stroke-width="2"/>
<path d="M231.5 182.5L291.5 193.5L265 489.5L241.5 486L219.5 482.5L212.5 192.5L219 189L222.5 189.5L231.5 182.5Z" fill="#4F4F4F"/>
<path d="M232 182.5L291.5 194L265 489.5L240.5 486L232 182.5Z" fill="#303030"/>
<path d="M229.5 484L222.5 189.5L218.5 188.5L226 483.5L229.5 484Z" fill="#303030"/>
<path d="M88.3986 330.948L88.1001 344.377H82.7282L79.4454 336.021V333.037L70.4922 335.424V338.856L72.8797 345.72L71.686 346.317L69 338.856L69.1492 333.634L80.3407 330.5L88.3986 330.948Z" fill="#4F4F4F"/>
<path d="M70.4922 338.856H69L71.686 346.317H73.1782L70.4922 338.856Z" fill="#303030"/>
<path d="M80.6392 336.021H79.4454L82.7283 344.377H83.7728L80.6392 336.021Z" fill="#303030"/>
<path d="M80.49 330.5L80.6392 336.021L83.7728 344.377H88.1002L88.3986 330.948L80.49 330.5Z" fill="#414141"/>
<path d="M75.2672 346.317V336.469L70.4922 335.424V338.856L73.1781 346.317H75.2672Z" fill="#A5A5A5"/>
<path d="M75.2672 354.375V336.469L79.2961 335.424L82.7282 344.377H86.7571V351.838L75.2672 354.375Z" fill="#84DBFF"/>
<path d="M81.3852 340.945L75.2672 354.375L86.7571 351.838V344.377H82.7282L81.3852 340.945Z" fill="#54C0EB"/>
<path d="M79.4454 335.424L75.2672 336.469V354.226L86.7571 351.838V344.377" stroke="black" stroke-width="2"/>
<path d="M75.118 336.469L70.4922 335.424L79.4454 333.037V335.424L75.118 336.469Z" fill="#838383"/>
<path d="M74.7401 402.464L63.7695 403L70.4934 403.893H74.7401V402.464Z" fill="#838383"/>
<path d="M71.0243 416.571H67.6623L63.7695 407.464V403L70.4934 403.893L71.0243 416.571Z" fill="#A5A5A5"/>
<path d="M70.4935 424.786V403.893H74.7402V406.928L79.5178 416.571H84.1184V425.5L70.4935 424.786Z" fill="#84DBFF"/>
<path d="M77.7483 413L70.4935 424.786L84.1184 425.5V416.571H79.5178L77.7483 413Z" fill="#54C0EB"/>
<path d="M76.3326 400.5L62.1769 401.214L62 407.464H63.7695V403L74.7401 402.464V407.107H76.3326V400.5Z" fill="#4F4F4F"/>
<path d="M67.6623 416.571L63.7695 407.464H62L65.7159 416.571H67.6623Z" fill="#303030"/>
<path d="M76.3326 407.107H74.7401L79.5176 416.571H81.2871L76.3326 407.107Z" fill="#303030"/>
<path d="M86.4188 400.5H76.3328V407.107L81.2873 416.571H86.4188V400.5Z" fill="#404040"/>
<path d="M74.7402 403.893H70.3165V424.786L84.1183 425.5V416.571" stroke="black" stroke-width="2"/>
<path d="M86.1258 251.922L128.021 257.118L122 462L115 462.5L105.317 461.695L89.977 460.159L73.4047 259.614L77.7535 256.928L80.1916 257.133L86.1258 251.922Z" fill="#4F4F4F"/>
<path d="M86.8475 251.88L128.041 257.464L122 461.717L104.949 461.717L86.8475 251.88Z" fill="#303030"/>
<path d="M97.4047 460.503L80.3131 257.043L77.3107 256.524L94.7927 460.308L97.4047 460.503Z" fill="#303030"/>
<path d="M107.5 462L115.5 462.5L108 398H143L151.5 472.5L161.5 474L168 382L149 380.5L100.5 382L107.5 462Z" fill="#4F4F4F"/>
<path d="M151.5 398L161.5 474L168 382L151.5 381V398Z" fill="#303030"/>
<path d="M10.7535 282.485L45.0767 286.741L39.8926 455.553L26.4762 454.345L13.9087 453.087L0.331562 288.786L3.89435 286.586L5.89184 286.754L10.7535 282.485Z" fill="#4F4F4F"/>
<path d="M11.3448 282.45L45.0933 287.025L40.03 455.545L26.1745 454.362L11.3448 282.45Z" fill="#303030"/>
<path d="M19.994 453.368L5.99145 286.68L3.53162 286.255L17.8541 453.209L19.994 453.368Z" fill="#303030"/>
<path d="M1171.5 234L1185 506.5L1200.5 505.5L1201.5 244.5L1171.5 234Z" fill="#303030"/>
<path d="M115 462.5L122 462L125.5 405.5L108 398L115 462.5Z" fill="#A5A5A5"/>
<path d="M143 398H108L125.5 405.5L144 406L143 398Z" fill="#838383"/>
<path d="M144 406L125.5 405.5L122 462L144 406Z" fill="#84DBFF"/>
<path d="M144 406L151 466L122 462L144 406Z" fill="#54C0EB"/>
<path d="M470 210.5L469 255.5H451L440 227.5V217.5L410 225.5V237L418 260L414 262L405 237L405.5 219.5L443 209L470 210.5Z" fill="#4F4F4F"/>
<path d="M410 237H405L414 262H419L410 237Z" fill="#303030"/>
<path d="M444 227.5H440L451 255.5H454.5L444 227.5Z" fill="#303030"/>
<path d="M443.5 209L444 227.5L454.5 255.5H469L470 210.5L443.5 209Z" fill="#414141"/>
<path d="M426 262V229L410 225.5V237L419 262H426Z" fill="#A5A5A5"/>
<path d="M426 289V229L439.5 225.5L451 255.5H464.5V280.5L426 289Z" fill="#84DBFF"/>
<path d="M446.5 244L426 289L464.5 280.5V255.5H451L446.5 244Z" fill="#54C0EB"/>
<path d="M440 225.5L426 229V288.5L464.5 280.5V255.5" stroke="black" stroke-width="2"/>
<path d="M425.5 229L410 225.5L440 217.5V225.5L425.5 229Z" fill="#838383"/>
<path d="M379.062 236.794L378.2 275.606H362.675L353.188 251.456V242.831L327.312 249.731V259.65L334.213 279.487L330.763 281.213L323 259.65L323.431 244.556L355.775 235.5L379.062 236.794Z" fill="#4F4F4F"/>
<path d="M327.312 259.65H323L330.763 281.213H335.075L327.312 259.65Z" fill="#303030"/>
<path d="M356.638 251.456H353.188L362.675 275.606H365.694L356.638 251.456Z" fill="#303030"/>
<path d="M356.206 235.5L356.637 251.456L365.694 275.606H378.2L379.062 236.794L356.206 235.5Z" fill="#414141"/>
<path d="M341.113 281.213V252.75L327.312 249.731V259.65L335.075 281.213H341.113Z" fill="#A5A5A5"/>
<path d="M341.112 304.5V252.75L352.756 249.731L362.675 275.606H374.319V297.169L341.112 304.5Z" fill="#84DBFF"/>
<path d="M358.794 265.688L341.112 304.5L374.319 297.169V275.606H362.675L358.794 265.688Z" fill="#54C0EB"/>
<path d="M353.187 249.731L341.112 252.75V304.069L374.319 297.169V275.606" stroke="black" stroke-width="2"/>
<path d="M340.681 252.75L327.312 249.731L353.188 242.831V249.731L340.681 252.75Z" fill="#838383"/>
<path d="M318 253.654L317.231 288.269H303.385L294.923 266.731V259.038L271.846 265.192V274.038L278 291.731L274.923 293.269L268 274.038L268.385 260.577L297.231 252.5L318 253.654Z" fill="#4F4F4F"/>
<path d="M271.846 274.038H268L274.923 293.269H278.769L271.846 274.038Z" fill="#303030"/>
<path d="M298 266.731H294.923L303.385 288.269H306.077L298 266.731Z" fill="#303030"/>
<path d="M297.615 252.5L298 266.731L306.077 288.269H317.231L318 253.654L297.615 252.5Z" fill="#414141"/>
<path d="M284.154 293.269V267.885L271.846 265.192V274.038L278.769 293.269H284.154Z" fill="#A5A5A5"/>
<path d="M284.154 314.038V267.885L294.538 265.192L303.385 288.269H313.769V307.5L284.154 314.038Z" fill="#84DBFF"/>
<path d="M299.923 279.423L284.154 314.038L313.769 307.5V288.269H303.385L299.923 279.423Z" fill="#54C0EB"/>
<path d="M294.923 265.192L284.154 267.885V313.654L313.769 307.5V288.269" stroke="black" stroke-width="2"/>
<path d="M283.769 267.885L271.846 265.192L294.923 259.038V265.192L283.769 267.885Z" fill="#838383"/>
<path d="M143.981 306.169L143.535 326.233H135.51L130.605 313.748V309.29L117.229 312.857V317.984L120.796 328.239L119.013 329.131L115 317.984L115.223 310.182L131.943 305.5L143.981 306.169Z" fill="#4F4F4F"/>
<path d="M117.229 317.984H115L119.013 329.131H121.242L117.229 317.984Z" fill="#303030"/>
<path d="M132.389 313.748H130.605L135.51 326.233H137.07L132.389 313.748Z" fill="#303030"/>
<path d="M132.166 305.5L132.389 313.748L137.07 326.233H143.535L143.981 306.169L132.166 305.5Z" fill="#414141"/>
<path d="M124.363 329.131V314.417L117.229 312.857V317.984L121.242 329.131H124.363Z" fill="#A5A5A5"/>
<path d="M124.363 341.169V314.417L130.382 312.857L135.51 326.233H141.529V337.379L124.363 341.169Z" fill="#84DBFF"/>
<path d="M133.503 321.105L124.363 341.169L141.529 337.379V326.233H135.51L133.503 321.105Z" fill="#54C0EB"/>
<path d="M130.605 312.857L124.363 314.417V340.946L141.529 337.379V326.233" stroke="black" stroke-width="2"/>
<path d="M124.14 314.417L117.229 312.857L130.605 309.29V312.857L124.14 314.417Z" fill="#838383"/>
<path d="M175.669 295.3L175.135 319.301H165.535L159.668 304.367V299.034L143.667 303.301V309.434L147.934 321.702L145.8 322.768L141 309.434L141.267 300.1L161.268 294.5L175.669 295.3Z" fill="#4F4F4F"/>
<path d="M143.667 309.434H141L145.8 322.768H148.467L143.667 309.434Z" fill="#303030"/>
<path d="M161.801 304.367H159.668L165.535 319.301H167.402L161.801 304.367Z" fill="#303030"/>
<path d="M161.535 294.5L161.801 304.367L167.402 319.301H175.135L175.669 295.3L161.535 294.5Z" fill="#414141"/>
<path d="M152.201 322.768V305.167L143.667 303.3V309.434L148.467 322.768H152.201Z" fill="#A5A5A5"/>
<path d="M152.201 337.169V305.167L159.401 303.3L165.535 319.301H172.735V332.635L152.201 337.169Z" fill="#84DBFF"/>
<path d="M163.135 313.168L152.201 337.169L172.735 332.636V319.301H165.535L163.135 313.168Z" fill="#54C0EB"/>
<path d="M159.668 303.3L152.201 305.167V336.902L172.735 332.635V319.301" stroke="black" stroke-width="2"/>
<path d="M151.934 305.167L143.667 303.301L159.668 299.034V303.301L151.934 305.167Z" fill="#838383"/>
<path d="M212.274 285.36L211.7 311.165H201.378L195.07 295.109V289.374L177.867 293.962V300.556L182.455 313.745L180.161 314.892L175 300.556L175.287 290.521L196.791 284.5L212.274 285.36Z" fill="#4F4F4F"/>
<path d="M177.867 300.556H175L180.161 314.892H183.028L177.867 300.556Z" fill="#303030"/>
<path d="M197.364 295.109H195.07L201.378 311.165H203.385L197.364 295.109Z" fill="#303030"/>
<path d="M197.077 284.5L197.364 295.109L203.385 311.165H211.7L212.274 285.36L197.077 284.5Z" fill="#414141"/>
<path d="M187.042 314.892V295.969L177.867 293.962V300.556L183.028 314.892H187.042Z" fill="#A5A5A5"/>
<path d="M187.042 330.375V295.969L194.784 293.962L201.378 311.165H209.12V325.501L187.042 330.375Z" fill="#84DBFF"/>
<path d="M198.798 304.57L187.042 330.375L209.12 325.501V311.165H201.378L198.798 304.57Z" fill="#54C0EB"/>
<path d="M195.07 293.962L187.042 295.969V330.088L209.12 325.501V311.165" stroke="black" stroke-width="2"/>
<path d="M186.756 295.969L177.867 293.962L195.07 289.374V293.962L186.756 295.969Z" fill="#838383"/>
<path d="M56.6186 341.894L56.3783 353.706H52.0532L49.41 346.356V343.731L42.2014 345.831V348.85L44.1237 354.888L43.1626 355.413L41 348.85L41.1201 344.256L50.1309 341.5L56.6186 341.894Z" fill="#4F4F4F"/>
<path d="M42.2014 348.85H41L43.1626 355.412H44.364L42.2014 348.85Z" fill="#303030"/>
<path d="M50.3712 346.356H49.41L52.0532 353.706H52.8942L50.3712 346.356Z" fill="#303030"/>
<path d="M50.2511 341.5L50.3712 346.356L52.8942 353.706H56.3784L56.6187 341.894L50.2511 341.5Z" fill="#414141"/>
<path d="M46.046 355.412V346.75L42.2014 345.831V348.85L44.364 355.412H46.046Z" fill="#A5A5A5"/>
<path d="M46.046 362.5V346.75L49.2899 345.831L52.0532 353.706H55.297V360.269L46.046 362.5Z" fill="#84DBFF"/>
<path d="M50.9719 350.688L46.046 362.5L55.297 360.269V353.706H52.0532L50.9719 350.688Z" fill="#54C0EB"/>
<path d="M49.41 345.831L46.046 346.75V362.369L55.297 360.269V353.706" stroke="black" stroke-width="2"/>
<path d="M45.9259 346.75L42.2014 345.831L49.41 343.731V345.831L45.9259 346.75Z" fill="#838383"/>
<path d="M71.9999 334.954L71.723 348.567H66.7384L63.6923 340.097V337.071L55.3846 339.492V342.971L57.6 349.929L56.4923 350.534L54 342.971L54.1385 337.676L64.523 334.5L71.9999 334.954Z" fill="#4F4F4F"/>
<path d="M55.3846 342.971H54L56.4923 350.534H57.8769L55.3846 342.971Z" fill="#303030"/>
<path d="M64.7999 340.097H63.6923L66.7384 348.567H67.7076L64.7999 340.097Z" fill="#303030"/>
<path d="M64.6616 334.5L64.8 340.097L67.7077 348.567H71.7231L72 334.954L64.6616 334.5Z" fill="#414141"/>
<path d="M59.8153 350.534V340.55L55.3846 339.492V342.971L57.8769 350.534H59.8153Z" fill="#A5A5A5"/>
<path d="M59.8154 358.702V340.55L63.5538 339.492L66.7384 348.567H70.4769V356.13L59.8154 358.702Z" fill="#84DBFF"/>
<path d="M65.4923 345.088L59.8154 358.702L70.4769 356.13V348.567H66.7384L65.4923 345.088Z" fill="#54C0EB"/>
<path d="M63.6923 339.492L59.8154 340.55V358.551L70.4769 356.13V348.567" stroke="black" stroke-width="2"/>
<path d="M59.6769 340.55L55.3846 339.492L63.6922 337.071V339.492L59.6769 340.55Z" fill="#838383"/>
<path d="M428 389L397 390.5L416 393H428V389Z" fill="#838383"/>
<path d="M417.5 428.5H408L397 403V390.5L416 393L417.5 428.5Z" fill="#A5A5A5"/>
<path d="M416 451.5V393H428V401.5L441.5 428.5H454.5V453.5L416 451.5Z" fill="#84DBFF"/>
<path d="M436.5 418.5L416 451.5L454.5 453.5V428.5H441.5L436.5 418.5Z" fill="#54C0EB"/>
<path d="M432.5 383.5L392.5 385.5L392 403H397V390.5L428 389V402H432.5V383.5Z" fill="#4F4F4F"/>
<path d="M408 428.5L397 403H392L402.5 428.5H408Z" fill="#303030"/>
<path d="M432.5 402H428L441.5 428.5H446.5L432.5 402Z" fill="#303030"/>
<path d="M461 383.5H432.5V402L446.5 428.5H461V383.5Z" fill="#404040"/>
<path d="M428 393H415.5V451.5L454.5 453.5V428.5" stroke="black" stroke-width="2"/>
<path d="M278.217 394.964L253.058 396.181L268.478 398.21H278.217V394.964Z" fill="#838383"/>
<path d="M269.696 427.022H261.985L253.058 406.326V396.181L268.478 398.21L269.696 427.022Z" fill="#A5A5A5"/>
<path d="M268.478 445.688V398.21H278.217V405.109L289.174 427.022H299.725V447.312L268.478 445.688Z" fill="#84DBFF"/>
<path d="M285.116 418.906L268.478 445.688L299.725 447.312V427.022H289.174L285.116 418.906Z" fill="#54C0EB"/>
<path d="M281.87 390.5L249.406 392.123L249 406.326H253.058V396.181L278.217 394.964V405.514H281.87V390.5Z" fill="#4F4F4F"/>
<path d="M261.986 427.022L253.058 406.326H249L257.522 427.022H261.986Z" fill="#303030"/>
<path d="M281.87 405.514H278.217L289.174 427.022H293.232L281.87 405.514Z" fill="#303030"/>
<path d="M305 390.5H281.87V405.514L293.232 427.022H305V390.5Z" fill="#404040"/>
<path d="M278.217 398.21H268.073V445.688L299.725 447.312V427.022" stroke="black" stroke-width="2"/>
<path d="M179.913 399.879L161.043 400.8L172.609 402.336H179.913V399.879Z" fill="#838383"/>
<path d="M173.522 424.143H167.739L161.043 408.479V400.8L172.609 402.336L173.522 424.143Z" fill="#A5A5A5"/>
<path d="M172.609 438.271V402.336H179.913V407.557L188.13 424.143H196.043V439.5L172.609 438.271Z" fill="#84DBFF"/>
<path d="M185.087 418L172.609 438.271L196.043 439.5V424.143H188.13L185.087 418Z" fill="#54C0EB"/>
<path d="M182.652 396.5L158.304 397.729L158 408.479H161.043V400.8L179.913 399.879V407.864H182.652V396.5Z" fill="#4F4F4F"/>
<path d="M167.739 424.143L161.043 408.479H158L164.391 424.143H167.739Z" fill="#303030"/>
<path d="M182.652 407.864H179.913L188.13 424.143H191.174L182.652 407.864Z" fill="#303030"/>
<path d="M200 396.5H182.652V407.864L191.174 424.143H200V396.5Z" fill="#404040"/>
<path d="M179.913 402.336H172.304V438.271L196.043 439.5V424.143" stroke="black" stroke-width="2"/>
<path d="M38.9131 404.028L30.3769 404.445L35.6088 405.14H38.9131V404.028Z" fill="#838383"/>
<path d="M36.0218 415.005H33.4059L30.3769 407.919V404.445L35.6088 405.14L36.0218 415.005Z" fill="#A5A5A5"/>
<path d="M35.6088 421.396V405.14H38.9131V407.502L42.6305 415.005H46.2102V421.952L35.6088 421.396Z" fill="#84DBFF"/>
<path d="M41.2537 412.226L35.6088 421.397L46.2102 421.952V415.005H42.6305L41.2537 412.226Z" fill="#54C0EB"/>
<path d="M40.1521 402.5L29.1377 403.056L29 407.919H30.3768V404.445L38.913 404.028V407.641H40.1521V402.5Z" fill="#4F4F4F"/>
<path d="M33.4058 415.005L30.3768 407.919H29L31.8913 415.005H33.4058Z" fill="#303030"/>
<path d="M40.152 407.641H38.9129L42.6303 415.005H44.0071L40.152 407.641Z" fill="#303030"/>
<path d="M48 402.5H40.1522V407.641L44.0073 415.005H48V402.5Z" fill="#404040"/>
<path d="M38.913 405.14H35.471V421.396L46.2101 421.952V415.005" stroke="black" stroke-width="2"/>
<path d="M55.4783 403.27L45.5942 403.752L51.6522 404.557H55.4783V403.27Z" fill="#838383"/>
<path d="M52.1304 415.98H49.1015L45.5942 407.774V403.752L51.6522 404.557L52.1304 415.98Z" fill="#A5A5A5"/>
<path d="M51.6522 423.38V404.557H55.4783V407.292L59.7826 415.979H63.9275V424.024L51.6522 423.38Z" fill="#84DBFF"/>
<path d="M58.1884 412.762L51.6522 423.38L63.9275 424.024V415.98H59.7826L58.1884 412.762Z" fill="#54C0EB"/>
<path d="M56.913 401.5L44.1594 402.144L44 407.774H45.5942V403.752L55.4782 403.27V407.453H56.913V401.5Z" fill="#4F4F4F"/>
<path d="M49.1014 415.979L45.5942 407.774H44L47.3478 415.979H49.1014Z" fill="#303030"/>
<path d="M56.9129 407.453H55.4781L59.7825 415.98H61.3767L56.9129 407.453Z" fill="#303030"/>
<path d="M66 401.5H56.9131V407.453L61.3768 415.98H66V401.5Z" fill="#404040"/>
<path d="M55.4783 404.557H51.4928V423.38L63.9275 424.024V415.979" stroke="black" stroke-width="2"/>
<path d="M338.87 392.522L310.565 393.891L327.913 396.174H338.87V392.522Z" fill="#838383"/>
<path d="M329.283 428.587H320.609L310.565 405.304V393.891L327.913 396.174L329.283 428.587Z" fill="#A5A5A5"/>
<path d="M327.913 449.587V396.174H338.87V403.935L351.196 428.587H363.065V451.413L327.913 449.587Z" fill="#84DBFF"/>
<path d="M346.63 419.457L327.913 449.587L363.065 451.413V428.587H351.196L346.63 419.457Z" fill="#54C0EB"/>
<path d="M342.978 387.5L306.457 389.326L306 405.304H310.565V393.891L338.87 392.522V404.391H342.978V387.5Z" fill="#4F4F4F"/>
<path d="M320.609 428.587L310.565 405.304H306L315.587 428.587H320.609Z" fill="#303030"/>
<path d="M342.978 404.391H338.87L351.196 428.587H355.761L342.978 404.391Z" fill="#303030"/>
<path d="M369 387.5H342.978V404.391L355.761 428.587H369V387.5Z" fill="#404040"/>
<path d="M338.87 396.174H327.457V449.587L363.065 451.413V428.587" stroke="black" stroke-width="2"/>
<path d="M966.5 307V250.5L983 310L966.5 307Z" fill="#54C0EB"/>
<path d="M981 254.5L966.5 250.5L983 310L981 254.5Z" fill="#84DBFF"/>
<path d="M966.5 250.5V307L983 310L981 254.5L966.5 250.5Z" stroke="black" stroke-width="2"/>
<path d="M995 310.864V259.5L1010 313.591L995 310.864Z" fill="#54C0EB"/>
<path d="M1008.18 263.136L995 259.5L1010 313.591L1008.18 263.136Z" fill="#84DBFF"/>
<path d="M995 259.5V310.864L1010 313.591L1008.18 263.136L995 259.5Z" stroke="black" stroke-width="2"/>
<path d="M1022 315.015V270.5L1035 317.379L1022 315.015Z" fill="#54C0EB"/>
<path d="M1033.42 273.652L1022 270.5L1035 317.379L1033.42 273.652Z" fill="#84DBFF"/>
<path d="M1022 270.5V315.015L1035 317.379L1033.42 273.652L1022 270.5Z" stroke="black" stroke-width="2"/>
</svg>
