<svg xmlns="http://www.w3.org/2000/svg" data-name="Layer 1" width="864.67004" height="685.07844" viewBox="0 0 864.67004 685.07844" xmlns:xlink="http://www.w3.org/1999/xlink"><path d="M268.97109,622.8a3.61324,3.61324,0,0,1-2.61865-6.26263c.09111-.36213.15647-.62217.24758-.9843q-.0489-.11821-.09838-.23627a9.7031,9.7031,0,0,0-17.89848.06652c-2.92739,7.05051-6.65447,14.11306-7.57217,21.56779a28.7057,28.7057,0,0,0,.50391,9.87235A115.08618,115.08618,0,0,1,231.066,599.02456a111.07965,111.07965,0,0,1,.689-12.392q.5708-5.05968,1.58377-10.04731a116.41931,116.41931,0,0,1,23.087-49.34152,30.98252,30.98252,0,0,0,12.88556-13.36892,23.63367,23.63367,0,0,0,2.14933-6.45822c-.62729.08228-1.26489.1337-1.89218.1748-.19542.01023-.40108.02054-.5965.03086l-.0737.0033a3.57989,3.57989,0,0,1-2.94009-5.83225q.40627-.5.813-.99948c.4114-.51422.833-1.01813,1.24434-1.53227a1.78518,1.78518,0,0,0,.13369-.15433c.47313-.58619.94609-1.16206,1.41921-1.74825a10.35184,10.35184,0,0,0-3.39366-3.28044c-4.74083-2.77661-11.28133-.85357-14.70586,3.43477-3.43476,4.28825-4.0826,10.30437-2.88976,15.66218a41.48513,41.48513,0,0,0,5.73842,12.793c-.25715.32911-.52454.64791-.78161.977a117.172,117.172,0,0,0-12.22973,19.37481,48.70929,48.70929,0,0,0-2.908-22.62447c-2.78347-6.71479-8.00064-12.37-12.595-18.17495-5.51857-6.9726-16.83488-3.92959-17.80713,4.90927q-.01412.12837-.02757.25666,1.02363.57749,2.004,1.22585a4.9011,4.9011,0,0,1-1.976,8.91908l-.09994.01544a48.767,48.767,0,0,0,1.28544,7.29124,50.20986,50.20986,0,0,0,24.99983,31.46836c.40108.20566.79193.41132,1.193.60674a119.59776,119.59776,0,0,0-6.43767,30.296,113.43513,113.43513,0,0,0,.08228,18.31541l-.03086-.216a29.97411,29.97411,0,0,0-10.23241-17.3076c-7.87438-6.46853-18.9994-8.8505-27.49446-14.04993a5.62528,5.62528,0,0,0-8.61571,5.47251q.01709.11352.03474.227a32.92807,32.92807,0,0,1,3.69184,1.779q1.02362.57761,2.004,1.22586a4.90115,4.90115,0,0,1-1.976,8.91916l-.1.01535c-.072.01032-.13369.02063-.20557.03095a48.80772,48.80772,0,0,0,8.97767,14.05786,50.25445,50.25445,0,0,0,36.44572,15.99129h.01032a119.5619,119.5619,0,0,0,8.03167,23.447h28.69167c.10291-.3188.19542-.64792.288-.96672a32.59875,32.59875,0,0,1-7.93916-.473c2.12878-2.61213,4.25747-5.24482,6.38625-7.85688a1.7799,1.7799,0,0,0,.1337-.15424c1.07978-1.33685,2.16987-2.66347,3.24965-4.00032l.00058-.00165A47.75037,47.75037,0,0,0,268.972,622.8006Z" transform="translate(-167.66498 -107.46078)" fill="#f2f2f2"/><path d="M607.335,648.80514a1.18647,1.18647,0,0,1-1.19006,1.19H168.855a1.19,1.19,0,0,1,0-2.38h437.29A1.18651,1.18651,0,0,1,607.335,648.80514Z" transform="translate(-167.66498 -107.46078)" fill="#ccc"/><path d="M396.64724,495.94436a11.58313,11.58313,0,0,0-14.25915,10.5897l-24.99881,8.7,1.58175,16.48119,35.13061-12.78194a11.6459,11.6459,0,0,0,2.5456-22.989Z" transform="translate(-167.66498 -107.46078)" fill="#ffb6b6"/><path d="M355.90521,543.8479c-9.94014,6.92808-27.452,10.47225-51.28551,10.30976a9.52967,9.52967,0,0,1-7.02647-3.064c-6.37724-6.64084-6.12819-21.79985-6.0884-23.26407l-6.99-26.34246c-.14985-.40284-4.01885-11.21165-.0827-18.75948a12.369,12.369,0,0,1,8.22578-6.26865c14.78244-3.92266,28.67846,35.64678,30.44432,40.87537l20.745-3.53279,14.32637-.58923,14.57563-8.0454,8.20635,19.64009-20.30842,14.84114A25.664,25.664,0,0,1,355.90521,543.8479Z" transform="translate(-167.66498 -107.46078)" fill="#2f2e41"/><polygon points="228.268 654.202 243.549 654.916 253.575 596.315 231.022 595.261 228.268 654.202" fill="#ffb6b6"/><path d="M392.496,753.947l24.22343-.31212-.484,10.34948,22.224,16.935a6.47174,6.47174,0,0,1-4.22455,11.61271l-28.75863-1.3449-4.47824-10.469-2.41421,10.14671-10.84315-.50708Z" transform="translate(-167.66498 -107.46078)" fill="#2f2e41"/><polygon points="387.812 528.378 393.379 514.129 341.068 485.876 314.642 502.486 387.812 528.378" fill="#ffb6b6"/><path d="M547.06718,636.62606l7.45657-23.04933,9.65027,3.77071L587.33077,601.712a6.47174,6.47174,0,0,1,9.65,7.71881L586.50288,636.2465l-11.35162.89228,8.84044,5.53451-3.95057,10.11059Z" transform="translate(-167.66498 -107.46078)" fill="#2f2e41"/><path d="M254.96083,593.43123s6.34645,40.51574,36.34645,43.51574,57.65355-10.51574,57.65355-10.51574l84-25.87006s89.34645,25.3858,104.34645,29.3858c0,0,10.34646-23.48425,10-25-3.19036-13.95785-7.34645-4.51574-7.34645-4.51574l-95-42s-15-4-41,7S308.30728,602.947,308.30728,602.947Z" transform="translate(-167.66498 -107.46078)" fill="#2f2e41"/><path d="M255.30728,590.947s-5.00318,48.53652,24.22042,55.95146c27.77958,7.04854,66.09816-.182,66.09816-.182l45.68142-4.76945s2,58.69551,2,87.69551a220.2581,220.2581,0,0,0,28,2c2,0,2.13267-1.04791,2.13267-1.04791l3.8727-101.44374a31.65753,31.65753,0,0,0-32.75435-33.585q-3.23463.12342-6.78643.45826c-28.10229,2.69471-62.99044-3.0339-62.99044-3.0339Z" transform="translate(-167.66498 -107.46078)" fill="#2f2e41"/><path d="M336.36554,520.53537s11.86391,71.7439,3.84632,77.471-19.01257,5.74952-19.01257,5.74952l-2.55664-39.61253Z" transform="translate(-167.66498 -107.46078)" fill="#2f2e41"/><path d="M316.57845,432.424l15.86267,15.07334a46.75218,46.75218,0,0,1,9.19974,55.60365l-7.58263,14.4597Z" transform="translate(-167.66498 -107.46078)" fill="#2f2e41"/><path d="M313.03118,434.95847,334.525,459.44052a34.35461,34.35461,0,0,1,8.36232,19.19756v0a34.35478,34.35478,0,0,1-.39141,9.68345l-8.10023,44.03424L328.30728,595.947s-47.00333,14.2416-51.81437-7.74972S313.03118,434.95847,313.03118,434.95847Z" transform="translate(-167.66498 -107.46078)" fill="#c770f0"/><path d="M292.85589,601.92344c-30.89816-5.14908-38.46709-6.17146-38.9385-6.35153l-.4723-.18021,3.097-18.58405,13.0777-32.13493c.8493-10.51166,6.35756-24.75431,3.20637-36.19425-9.16076-33.257,5.7226-80.25293,12.52893-83.85312l18.86916-12.37,6.62355,6.07267L322.33229,434.405c9.44908,42.09125,15.97518,81.32286,15.65782,83.72078l-5.832,41.20669-6.872,15.80646C304.4384,585.198,318.45716,606.18982,292.85589,601.92344Z" transform="translate(-167.66498 -107.46078)" fill="#2f2e41"/><path d="M348.7962,571.69324l48.51412-12.97988,4.2716-1.01288,3.04581-.72337,3.54955-.83929.02836-.00653a2.01286,2.01286,0,0,1,1.507.25082l18.01367,21.59765a1.59,1.59,0,0,1,.42377.3806.71425.71425,0,0,1,.12815.13484,2.05595,2.05595,0,0,1-1.15876,3.21l-72.373,16.65523a2.03879,2.03879,0,0,1-2.04911-.72369l-.73444-.95155-4.005-19.28585-.28495-2.50426a1.99609,1.99609,0,0,1-.37549-.78762A2.02751,2.02751,0,0,1,348.7962,571.69324Z" transform="translate(-167.66498 -107.46078)" fill="#e6e6e6"/><path d="M351.96256,596.6835l.73876.95465a2.03761,2.03761,0,0,0,2.04387.72353l72.37552-16.6558a2.05225,2.05225,0,0,0,1.15648-3.20762.61137.61137,0,0,0-.12633-.13526Z" transform="translate(-167.66498 -107.46078)" opacity="0.17" style="isolation:isolate"/><path d="M407.81609,555.99683l-1.3093-92.26487a2.10556,2.10556,0,0,1,.46692-1.54178l9.2739-19.30128.96329-1.17042a2.13224,2.13224,0,0,1,1.42522-.7538l2.01855-.18813a2.10671,2.10671,0,0,1,2.30267,1.8905h0l1.81786,97.62365.00163.00711.90065,9.3997,1.06711,11.1618.00326.0142,1.66577,17.36642a2.06171,2.06171,0,0,1-.557,1.63723,2.09148,2.09148,0,0,1-1.5845.67839l-1.31342-.02644a2.13954,2.13954,0,0,1-1.36383-.53779l-.73463-.66014-.34031-.31016-14.00732-21.653A2.09359,2.09359,0,0,1,407.81609,555.99683Z" transform="translate(-167.66498 -107.46078)" fill="#e6e6e6"/><path d="M416.251,442.88882l6.26741,136.13588.34267.306.73219.65824a2.1323,2.1323,0,0,0,1.36433.53835l1.31527.02643a2.11527,2.11527,0,0,0,2.1413-2.31406L422.95483,442.67a2.1085,2.1085,0,0,0-2.29913-1.89713l-2.02255.19377a2.07831,2.07831,0,0,0-1.41837.75419Z" transform="translate(-167.66498 -107.46078)" opacity="0.17" style="isolation:isolate"/><polygon points="249.113 340.929 240.632 361.864 241.681 424.491 250.863 437.77 249.113 340.929" fill="#c770f0"/><path d="M354.38731,571.14074a1.8207,1.8207,0,0,0-1.252,2.24889l3.73635,15.57119,3.50092-.99685-3.73636-15.5712A1.8207,1.8207,0,0,0,354.38731,571.14074Z" transform="translate(-167.66498 -107.46078)" fill="#2f2e41"/><path d="M361.38914,569.147a1.82069,1.82069,0,0,0-1.252,2.24888l.79748,2.80074,3.50092-.99686-.79749-2.80073A1.82068,1.82068,0,0,0,361.38914,569.147Z" transform="translate(-167.66498 -107.46078)" fill="#2f2e41"/><path d="M368.391,567.15331a1.82069,1.82069,0,0,0-1.252,2.24889l.79748,2.80073,3.50092-.99686-.79749-2.80073A1.8207,1.8207,0,0,0,368.391,567.15331Z" transform="translate(-167.66498 -107.46078)" fill="#2f2e41"/><path d="M375.3928,565.1596a1.82068,1.82068,0,0,0-1.252,2.24888l.79748,2.80074,3.50092-.99686-.79749-2.80073A1.82069,1.82069,0,0,0,375.3928,565.1596Z" transform="translate(-167.66498 -107.46078)" fill="#2f2e41"/><path d="M382.39463,563.16588a1.82069,1.82069,0,0,0-1.252,2.24889l.79748,2.80073,3.50092-.99686-.79749-2.80073A1.8207,1.8207,0,0,0,382.39463,563.16588Z" transform="translate(-167.66498 -107.46078)" fill="#2f2e41"/><path d="M389.39646,561.17217a1.82069,1.82069,0,0,0-1.252,2.24889l.79748,2.80073,3.50092-.99686-.79749-2.80073A1.82069,1.82069,0,0,0,389.39646,561.17217Z" transform="translate(-167.66498 -107.46078)" fill="#2f2e41"/><path d="M396.39828,559.17846a1.82068,1.82068,0,0,0-1.252,2.24888l.79748,2.80073,3.50092-.99685-.79749-2.80074A1.82069,1.82069,0,0,0,396.39828,559.17846Z" transform="translate(-167.66498 -107.46078)" fill="#2f2e41"/><path d="M403.40011,557.18474a1.82069,1.82069,0,0,0-1.252,2.24889l.79748,2.80073,3.50092-.99686-.79749-2.80073A1.8207,1.8207,0,0,0,403.40011,557.18474Z" transform="translate(-167.66498 -107.46078)" fill="#2f2e41"/><path d="M362.85857,575.53226a1.8207,1.8207,0,0,0-1.252,2.24889l.79749,2.80073,3.50091-.99686-.79748-2.80073A1.8207,1.8207,0,0,0,362.85857,575.53226Z" transform="translate(-167.66498 -107.46078)" fill="#2f2e41"/><path d="M369.8604,573.53854a1.82071,1.82071,0,0,0-1.252,2.24889l.79749,2.80073,3.50091-.99685-.79748-2.80074A1.82071,1.82071,0,0,0,369.8604,573.53854Z" transform="translate(-167.66498 -107.46078)" fill="#2f2e41"/><path d="M376.86223,571.54483a1.8207,1.8207,0,0,0-1.252,2.24889l.79749,2.80073,3.50091-.99686-.79748-2.80073A1.8207,1.8207,0,0,0,376.86223,571.54483Z" transform="translate(-167.66498 -107.46078)" fill="#2f2e41"/><path d="M383.86406,569.55112A1.82069,1.82069,0,0,0,382.612,571.8l.79749,2.80073,3.50091-.99685-.79748-2.80074A1.8207,1.8207,0,0,0,383.86406,569.55112Z" transform="translate(-167.66498 -107.46078)" fill="#2f2e41"/><path d="M390.86589,567.5574a1.8207,1.8207,0,0,0-1.252,2.24889l.79749,2.80073,3.50091-.99686-.79748-2.80073A1.8207,1.8207,0,0,0,390.86589,567.5574Z" transform="translate(-167.66498 -107.46078)" fill="#2f2e41"/><path d="M397.86772,565.56369a1.82069,1.82069,0,0,0-1.252,2.24888l.79749,2.80073,3.50091-.99685-.79748-2.80074A1.8207,1.8207,0,0,0,397.86772,565.56369Z" transform="translate(-167.66498 -107.46078)" fill="#2f2e41"/><path d="M404.86955,563.57a1.8207,1.8207,0,0,0-1.252,2.24889l.79749,2.80073,3.50091-.99686-.79748-2.80073A1.8207,1.8207,0,0,0,404.86955,563.57Z" transform="translate(-167.66498 -107.46078)" fill="#2f2e41"/><path d="M364.328,581.91749a1.82069,1.82069,0,0,0-1.252,2.24889l.79748,2.80073,3.50092-.99686-.79749-2.80073A1.82069,1.82069,0,0,0,364.328,581.91749Z" transform="translate(-167.66498 -107.46078)" fill="#2f2e41"/><path d="M371.32984,579.92378a1.82068,1.82068,0,0,0-1.252,2.24888l.79748,2.80073,3.50092-.99685-.79749-2.80074A1.82068,1.82068,0,0,0,371.32984,579.92378Z" transform="translate(-167.66498 -107.46078)" fill="#2f2e41"/><path d="M378.33167,577.93006a1.82069,1.82069,0,0,0-1.252,2.24889l.79748,2.80073,3.50092-.99686-.79749-2.80073A1.82069,1.82069,0,0,0,378.33167,577.93006Z" transform="translate(-167.66498 -107.46078)" fill="#2f2e41"/><path d="M385.3335,575.93635a1.82068,1.82068,0,0,0-1.252,2.24888l.79748,2.80073,3.50092-.99685-.79749-2.80073A1.82068,1.82068,0,0,0,385.3335,575.93635Z" transform="translate(-167.66498 -107.46078)" fill="#2f2e41"/><path d="M392.33533,573.94263a1.82069,1.82069,0,0,0-1.252,2.24889l.79748,2.80073,3.50092-.99686-.79749-2.80073A1.82069,1.82069,0,0,0,392.33533,573.94263Z" transform="translate(-167.66498 -107.46078)" fill="#2f2e41"/><path d="M399.33715,571.94892a1.82068,1.82068,0,0,0-1.252,2.24888l.79748,2.80074,3.50092-.99686L401.586,573.201A1.82069,1.82069,0,0,0,399.33715,571.94892Z" transform="translate(-167.66498 -107.46078)" fill="#2f2e41"/><path d="M406.339,569.9552a1.8207,1.8207,0,0,0-1.252,2.24889l.79748,2.80073,3.50092-.99686-.79749-2.80073A1.8207,1.8207,0,0,0,406.339,569.9552Z" transform="translate(-167.66498 -107.46078)" fill="#2f2e41"/><path d="M385.76768,557.87148a11.58313,11.58313,0,0,0-17.65537-1.93733l-24.24207-10.628-10.05163,13.15661L368.2639,572.9907a11.6459,11.6459,0,0,0,17.50378-15.11922Z" transform="translate(-167.66498 -107.46078)" fill="#ffb6b6"/><path d="M323.31836,565.27051c-11.99879-1.68336-27.2458-10.99767-44.6051-27.32908a9.52968,9.52968,0,0,1-3.06614-7.02556c-.15716-9.20571,10.33705-20.14779,11.36222-21.194l12.79536-24.06375c.16419-.39722,4.68073-10.95185,12.70019-13.80688a12.369,12.369,0,0,1,10.29362,1.00055c13.50379,7.18022-3.22692,45.637-5.48922,50.67072l17.6091,11.52189,10.902,9.31336,16.15662,4.01759-7.34461,19.97833-24.98142-2.936A25.66441,25.66441,0,0,1,323.31836,565.27051Z" transform="translate(-167.66498 -107.46078)" fill="#2f2e41"/><ellipse cx="317.08185" cy="379.6692" rx="30.78186" ry="30.11079" transform="translate(-265.27727 541.87185) rotate(-83.16773)" fill="#ffb6b6"/><path d="M238.66878,356.82878c5.79189-5.31738,9.15-12.89056,14.01887-19.13338,4.86892-6.24286,12.66023-11.41884,19.94129-8.95792,5.01909,1.69649,8.45363,6.71628,9.86116,12.02267,1.40708,5.30628,1.11538,10.9372.81277,16.45154,1.22266-11.26023,9.93752-21.27414,20.5732-23.63958,10.63488-2.36551,22.36887,3.10034,27.69919,12.90294a15.69484,15.69484,0,0,1,20.74959,2.04538c5.12175,5.8139,5.222,15.72371.22012,21.75744s-14.42966,7.37516-20.699,2.94525l-2.63127,1.89621c.775,4.82582-2.47246,10.02748-7.03187,11.26284-3.69716,1.00194-8.64734.16834-10.41039,3.711-1.23206,2.47537.16092,5.442,1.75644,7.64879,1.59507,2.20668,3.52607,4.51944,3.41677,7.2955-.16437,4.1887-4.8,6.58135-8.80224,6.98968-9.6506.9847-19.55661-4.61652-23.97946-13.559q-.12783-.25866-.28293-.52123a36.55018,36.55018,0,0,1-3.97488-28.62341c.53435-1.88035.39818-3.3429-.869-3.9552-5.47716-2.64655-21.97469-.44592-27.264,2.69569-5.28975,3.14156-9.75857,7.60245-14.89862,11.0056-5.14045,3.40315-11.45189,5.74706-17.24645,3.95835-4.64086-1.43258-8.26433-5.36057-10.48144-9.84053-2.21671-4.47987-3.19887-9.5099-4.02172-14.49037C214.88991,366.01465,229.55224,365.198,238.66878,356.82878Z" transform="translate(-167.66498 -107.46078)" fill="#2f2e41"/><path d="M1030.56781,141.945H576.2748a1.807,1.807,0,0,1,0-3.61318h454.293a1.807,1.807,0,0,1,0,3.61318Z" transform="translate(-167.66498 -107.46078)" fill="#cacaca"/><ellipse cx="439.53414" cy="10.82345" rx="10.58751" ry="10.82345" fill="#3f3d56"/><ellipse cx="476.10916" cy="10.82345" rx="10.58751" ry="10.82345" fill="#3f3d56"/><ellipse cx="512.68417" cy="10.82345" rx="10.58751" ry="10.82345" fill="#3f3d56"/><path d="M1008.54655,110.14348h-25.981a1.96762,1.96762,0,0,0,0,3.93446h25.981a1.96762,1.96762,0,0,0,0-3.93446Z" transform="translate(-167.66498 -107.46078)" fill="#3f3d56"/><path d="M1008.54655,117.52785h-25.981a1.96762,1.96762,0,0,0,0,3.93446h25.981a1.96762,1.96762,0,0,0,0-3.93446Z" transform="translate(-167.66498 -107.46078)" fill="#3f3d56"/><path d="M1008.54655,124.90253h-25.981a1.96761,1.96761,0,0,0,0,3.93445h25.981a1.96761,1.96761,0,0,0,0-3.93445Z" transform="translate(-167.66498 -107.46078)" fill="#3f3d56"/><path d="M234.11529,557.167l.0151-.02038-.0151.04093Z" transform="translate(-167.66498 -107.46078)" fill="#2f2e41"/><circle cx="690.52285" cy="91.79521" r="13.08937" fill="#e6e7e8"/><path d="M968.5105,228.2404H848.9964a3.89775,3.89775,0,1,1,0-7.79549H968.5105a3.89775,3.89775,0,1,1,0,7.79549Z" transform="translate(-167.66498 -107.46078)" fill="#e6e7e8"/><path d="M878.68007,243.64236H848.9964a3.89794,3.89794,0,1,1,0-7.79588h29.68367a3.89794,3.89794,0,0,1,0,7.79588Z" transform="translate(-167.66498 -107.46078)" fill="#e6e7e8"/><circle cx="690.52285" cy="296.09983" r="13.08937" fill="#e6e7e8"/><path d="M968.5105,432.545H848.9964a3.89775,3.89775,0,1,1,0-7.7955H968.5105a3.89775,3.89775,0,1,1,0,7.7955Z" transform="translate(-167.66498 -107.46078)" fill="#e6e7e8"/><path d="M878.68007,447.947H848.9964a3.89794,3.89794,0,1,1,0-7.79588h29.68367a3.89794,3.89794,0,0,1,0,7.79588Z" transform="translate(-167.66498 -107.46078)" fill="#e6e7e8"/><circle cx="479.85856" cy="265.09641" r="13.08937" fill="#e6e7e8"/><path d="M757.84621,401.5416H638.33211a3.89775,3.89775,0,1,1,0-7.7955h119.5141a3.89775,3.89775,0,1,1,0,7.7955Z" transform="translate(-167.66498 -107.46078)" fill="#e6e7e8"/><path d="M668.01578,416.94355H638.33211a3.89794,3.89794,0,1,1,0-7.79588h29.68367a3.89794,3.89794,0,1,1,0,7.79588Z" transform="translate(-167.66498 -107.46078)" fill="#e6e7e8"/><circle cx="690.52285" cy="186.24655" r="13.08937" fill="#e6e7e8"/><path d="M968.5105,322.69174H848.9964a3.89775,3.89775,0,1,1,0-7.7955H968.5105a3.89775,3.89775,0,1,1,0,7.7955Z" transform="translate(-167.66498 -107.46078)" fill="#e6e7e8"/><path d="M920.81293,338.09369H848.9964a3.89794,3.89794,0,1,1,0-7.79588h71.81653a3.89794,3.89794,0,0,1,0,7.79588Z" transform="translate(-167.66498 -107.46078)" fill="#e6e7e8"/><path d="M900.80289,353.49564H848.9964a3.89794,3.89794,0,1,1,0-7.79588h51.80649a3.89794,3.89794,0,0,1,0,7.79588Z" transform="translate(-167.66498 -107.46078)" fill="#e6e7e8"/><path d="M738.84708,208.64888V346.07642a3.62474,3.62474,0,0,1-3.61558,3.62055H662.82063a88.84863,88.84863,0,0,1-19.387-26.08471c-.31612-.63225-.61742-1.26941-.90391-1.91647a88.00529,88.00529,0,0,1-7.82394-30.12509c-.05433-.64214-.09879-1.27931-.12843-1.92636-.09876-1.65467-.14323-3.33406-.14323-5.01837a88.44,88.44,0,0,1,6.2384-32.743c.247-.64706.50874-1.28917.78043-1.92633a88.97582,88.97582,0,0,1,24.44484-33.13317q.94833-.80761,1.91647-1.57071l.14846-.11869a46.83728,46.83728,0,0,1,29.22575-10.11566h38.043A3.62686,3.62686,0,0,1,738.84708,208.64888Z" transform="translate(-167.66498 -107.46078)" fill="#c770f0"/><path d="M739.03978,251.883v-1.92633h-32.2935V205.01844h-1.92142v44.93823H667.81431V215.25279q-.97057.76309-1.91647,1.57071v33.13317H641.453c-.27169.63716-.53346,1.27927-.78043,1.92633h25.22527v37.76134H634.5774c.02964.647.0741,1.28422.12843,1.92636h31.192v30.12509H642.52977c.28649.64706.58779,1.28422.90391,1.91647h22.46416v25.324h1.91647v-25.324h37.01055v25.324h1.92142v-25.324h32.2935v-1.91647h-32.2935a30.11907,30.11907,0,0,1,30.12506-30.12509h2.16844v-1.92636h-32.2935V251.883Zm-34.21492,69.81279H667.81431V291.5707h37.01055Zm0-32.05145H667.81431v-.75571A37.00806,37.00806,0,0,1,704.82486,251.883Z" transform="translate(-167.66498 -107.46078)" opacity="0.2"/><path d="M735.39767,322.18112a3.77983,3.77983,0,0,1-2.73939-6.55137c.09531-.37883.16368-.65086.259-1.02968q-.05115-.12367-.10291-.24717c-3.47986-8.29769-25.685,14.83335-26.645,22.63179a30.029,30.029,0,0,0,.52714,10.32752,120.39228,120.39228,0,0,1-10.95162-50.00275,116.20235,116.20235,0,0,1,.72079-12.96332q.5971-5.293,1.65679-10.51055a121.78662,121.78662,0,0,1,24.1515-51.61646c6.87378.38364,12.898-.66348,13.47967-13.98532.10346-2.36972,1.86112-4.42157,2.24841-6.756-.65621.08608-1.32321.13986-1.97942.18285-.20443.01071-.41957.0215-.624.03229l-.0771.00345a3.74494,3.74494,0,0,1-3.07565-6.10115q.425-.523.85054-1.04556c.43036-.53793.87143-1.06508,1.30171-1.60292a1.86841,1.86841,0,0,0,.13986-.16144c.49494-.61322.9897-1.21564,1.48464-1.82886a10.82906,10.82906,0,0,0-3.55013-3.43168c-4.95942-2.90464-11.80147-.89293-15.38389,3.59312-3.59313,4.486-4.27083,10.77947-3.023,16.38431a43.39764,43.39764,0,0,0,6.003,13.3828c-.269.34429-.54872.67779-.81765,1.02208a122.57417,122.57417,0,0,0-12.79359,20.26811c1.0163-7.93864-11.41159-36.60795-16.21777-42.68052-5.773-7.29409-17.61107-4.11078-18.62815,5.13561q-.01476.13429-.02883.26849,1.07082.60411,2.09639,1.28238a5.12707,5.12707,0,0,1-2.06712,9.3303l-.10452.01614c-9.55573,13.64366,21.07745,49.15469,28.74517,41.18138a125.11185,125.11185,0,0,0-6.73449,31.69282,118.66326,118.66326,0,0,0,.08608,19.15987l-.03231-.22593c-1.70368-13.88233-30.93134-34.52259-39.46631-32.80332-4.91675.99042-9.75953.76526-9.01293,5.72484q.01788.11875.03635.2375a34.44529,34.44529,0,0,1,3.862,1.86106q1.07082.60423,2.09639,1.28237a5.12713,5.12713,0,0,1-2.06713,9.33039l-.10463.01606c-.07528.01079-.13987.02157-.21507.03237-4.34967,14.96631,27.90735,39.12,47.5177,31.4346l.0108,0a125.07594,125.07594,0,0,0,8.402,24.52806h30.01454c.10765-.3335.20443-.67779.30129-1.01129a34.10189,34.10189,0,0,1-8.3052-.49477c2.22693-2.73257,4.45377-5.48664,6.6807-8.21913a1.86617,1.86617,0,0,0,.13986-.16135c1.12956-1.39849,2.26992-2.78627,3.39948-4.18476l.00061-.00173a49.95245,49.95245,0,0,0-1.46367-12.725Zm-34.37066-67.613.0158-.02133-.0158.04282Zm-6.64833,59.93237-.25821-.58084c.01079-.41957.01079-.83915,0-1.26942,0-.11845-.0215-.23673-.0215-.35509.09678.74228.18285,1.48465.29042,2.22693Z" transform="translate(-167.66498 -107.46078)" fill="#2f2e41"/></svg>