<svg xmlns="http://www.w3.org/2000/svg" viewBox="0 0 750 500"><g id="freepik--background-complete--inject-23"><polygon points="255.46 275.21 92.48 275.21 104.53 159.11 268.89 159.11 255.46 275.21" style="fill:#f5f5f5"></polygon><path d="M110.4,255.73c-.15,0,1.54-17.48,3.76-39s4.14-39,4.28-39-1.54,17.47-3.76,39S110.54,255.74,110.4,255.73Z" style="fill:#e0e0e0"></path><path d="M140.07,181.68a65.35,65.35,0,0,1-8.18.26,65.35,65.35,0,0,1-8.18-.26,63.13,63.13,0,0,1,8.18-.26A63.13,63.13,0,0,1,140.07,181.68Z" style="fill:#e0e0e0"></path><path d="M209.68,181.68c0,.14-14.59.26-32.58.26s-32.59-.12-32.59-.26,14.59-.26,32.59-.26S209.68,181.53,209.68,181.68Z" style="fill:#e0e0e0"></path><path d="M138.14,222.93a63.13,63.13,0,0,1-8.18.26,63.13,63.13,0,0,1-8.18-.26,65.35,65.35,0,0,1,8.18-.26A65.35,65.35,0,0,1,138.14,222.93Z" style="fill:#e0e0e0"></path><path d="M207.75,222.93c0,.15-14.59.26-32.58.26s-32.59-.11-32.59-.26,14.59-.26,32.59-.26S207.75,222.79,207.75,222.93Z" style="fill:#e0e0e0"></path><path d="M185.55,242c0,.15-14.59.26-32.58.26s-32.59-.11-32.59-.26,14.59-.26,32.59-.26S185.55,241.81,185.55,242Z" style="fill:#e0e0e0"></path><path d="M147.28,193.33c0,.14-5.15.26-11.51.26s-11.51-.12-11.51-.26,5.16-.27,11.51-.27S147.28,193.18,147.28,193.33Z" style="fill:#e0e0e0"></path><path d="M146.7,210.4c0,.15-5.16.26-11.51.26s-11.51-.11-11.51-.26,5.15-.26,11.51-.26S146.7,210.26,146.7,210.4Z" style="fill:#e0e0e0"></path><path d="M166.16,234.81c0,.14-5.16.26-11.51.26s-11.51-.12-11.51-.26,5.15-.26,11.51-.26S166.16,234.66,166.16,234.81Z" style="fill:#e0e0e0"></path><path d="M231,193.33c0,.14-13.16.26-29.4.26s-29.41-.12-29.41-.26,13.17-.27,29.41-.27S231,193.18,231,193.33Z" style="fill:#e0e0e0"></path><path d="M212.87,211.39c0,.15-13.16.26-29.4.26s-29.4-.11-29.4-.26,13.16-.26,29.4-.26S212.87,211.25,212.87,211.39Z" style="fill:#e0e0e0"></path><path d="M233.11,234.81c0,.14-13.17.26-29.4.26s-29.41-.12-29.41-.26,13.17-.26,29.41-.26S233.11,234.66,233.11,234.81Z" style="fill:#e0e0e0"></path><path d="M179.42,255.73c0,.14-13.17.26-29.41.26s-29.4-.12-29.4-.26,13.16-.26,29.4-.26S179.42,255.58,179.42,255.73Z" style="fill:#e0e0e0"></path><path d="M244.45,255.73c0,.14-13.17.26-29.4.26s-29.41-.12-29.41-.26,13.16-.26,29.41-.26S244.45,255.58,244.45,255.73Z" style="fill:#e0e0e0"></path><path d="M179.41,262.53c0,.15-13.16.26-29.4.26s-29.41-.11-29.41-.26,13.17-.26,29.41-.26S179.41,262.39,179.41,262.53Z" style="fill:#e0e0e0"></path><path d="M182.27,198.23c0,.14-13.16.26-29.4.26s-29.41-.12-29.41-.26,13.17-.26,29.41-.26S182.27,198.08,182.27,198.23Z" style="fill:#e0e0e0"></path><path d="M166.59,193.39a56,56,0,0,1-7.57.26,56.13,56.13,0,0,1-7.58-.26,54.23,54.23,0,0,1,7.58-.26A54.13,54.13,0,0,1,166.59,193.39Z" style="fill:#e0e0e0"></path><path d="M136.22,228.54a56.13,56.13,0,0,1-7.58.26,56,56,0,0,1-7.57-.26,56,56,0,0,1,7.57-.26A56.13,56.13,0,0,1,136.22,228.54Z" style="fill:#e0e0e0"></path><path d="M135.86,234.81a56,56,0,0,1-7.57.26,56.13,56.13,0,0,1-7.58-.26,54.23,54.23,0,0,1,7.58-.26A54.13,54.13,0,0,1,135.86,234.81Z" style="fill:#e0e0e0"></path><path d="M267.09,171.39c0,.15-36.65.26-81.85.26s-81.87-.11-81.87-.26,36.65-.26,81.87-.26S267.09,171.25,267.09,171.39Z" style="fill:#e0e0e0"></path><circle cx="114.42" cy="165.86" r="1.94" style="fill:#fff"></circle><circle cx="122.75" cy="165.86" r="1.94" style="fill:#fff"></circle><circle cx="131.08" cy="165.86" r="1.94" style="fill:#fff"></circle><polygon points="678.65 217.16 515.67 217.16 527.72 101.07 692.08 101.07 678.65 217.16" style="fill:#f5f5f5"></polygon><path d="M533.59,197.68c-.14,0,1.54-17.48,3.76-39s4.14-39,4.28-38.94-1.54,17.47-3.76,39S533.73,197.69,533.59,197.68Z" style="fill:#e0e0e0"></path><path d="M563.26,123.63a128.81,128.81,0,0,1-16.36,0,128.81,128.81,0,0,1,16.36,0Z" style="fill:#e0e0e0"></path><path d="M632.88,123.63c0,.14-14.59.26-32.59.26s-32.59-.12-32.59-.26,14.59-.26,32.59-.26S632.88,123.49,632.88,123.63Z" style="fill:#e0e0e0"></path><path d="M561.34,164.89a129,129,0,0,1-16.37,0,129,129,0,0,1,16.37,0Z" style="fill:#e0e0e0"></path><path d="M631,164.89c0,.14-14.59.26-32.59.26s-32.59-.12-32.59-.26,14.59-.26,32.59-.26S631,164.74,631,164.89Z" style="fill:#e0e0e0"></path><path d="M608.75,183.91c0,.14-14.59.26-32.59.26s-32.59-.12-32.59-.26,14.59-.26,32.59-.26S608.75,183.76,608.75,183.91Z" style="fill:#e0e0e0"></path><path d="M570.48,135.28c0,.14-5.16.26-11.51.26s-11.51-.12-11.51-.26S552.61,135,559,135,570.48,135.13,570.48,135.28Z" style="fill:#e0e0e0"></path><path d="M569.89,152.35c0,.15-5.15.26-11.51.26s-11.51-.11-11.51-.26,5.15-.26,11.51-.26S569.89,152.21,569.89,152.35Z" style="fill:#e0e0e0"></path><path d="M589.35,176.76c0,.14-5.15.26-11.51.26s-11.51-.12-11.51-.26,5.15-.26,11.51-.26S589.35,176.62,589.35,176.76Z" style="fill:#e0e0e0"></path><path d="M654.22,135.28c0,.14-13.17.26-29.41.26s-29.4-.12-29.4-.26,13.16-.26,29.4-.26S654.22,135.13,654.22,135.28Z" style="fill:#e0e0e0"></path><path d="M636.07,153.34c0,.15-13.17.26-29.41.26s-29.4-.11-29.4-.26,13.16-.26,29.4-.26S636.07,153.2,636.07,153.34Z" style="fill:#e0e0e0"></path><path d="M656.3,176.76c0,.14-13.16.26-29.4.26s-29.4-.12-29.4-.26,13.16-.26,29.4-.26S656.3,176.62,656.3,176.76Z" style="fill:#e0e0e0"></path><path d="M602.61,197.68c0,.14-13.17.26-29.4.26s-29.41-.12-29.41-.26,13.16-.26,29.41-.26S602.61,197.53,602.61,197.68Z" style="fill:#e0e0e0"></path><path d="M667.64,197.68c0,.14-13.16.26-29.4.26s-29.41-.12-29.41-.26,13.17-.26,29.41-.26S667.64,197.53,667.64,197.68Z" style="fill:#e0e0e0"></path><path d="M602.6,204.48c0,.15-13.16.26-29.4.26s-29.4-.11-29.4-.26,13.16-.26,29.4-.26S602.6,204.34,602.6,204.48Z" style="fill:#e0e0e0"></path><path d="M605.47,140.18c0,.14-13.17.26-29.41.26s-29.4-.12-29.4-.26,13.16-.26,29.4-.26S605.47,140,605.47,140.18Z" style="fill:#e0e0e0"></path><path d="M589.78,135.34a110.33,110.33,0,0,1-15.14,0,110.33,110.33,0,0,1,15.14,0Z" style="fill:#e0e0e0"></path><path d="M559.41,170.49a110.48,110.48,0,0,1-15.15,0,110.48,110.48,0,0,1,15.15,0Z" style="fill:#e0e0e0"></path><path d="M559.05,176.76a110.33,110.33,0,0,1-15.14,0,110.33,110.33,0,0,1,15.14,0Z" style="fill:#e0e0e0"></path><path d="M690.29,113.34c0,.15-36.66.26-81.86.26s-81.86-.11-81.86-.26,36.64-.26,81.86-.26S690.29,113.2,690.29,113.34Z" style="fill:#e0e0e0"></path><circle cx="537.61" cy="107.81" r="1.94" style="fill:#fff"></circle><circle cx="545.94" cy="107.81" r="1.94" style="fill:#fff"></circle><circle cx="554.27" cy="107.81" r="1.94" style="fill:#fff"></circle><polygon points="336.82 141.36 235.31 141.36 242.81 69.05 345.18 69.05 336.82 141.36" style="fill:#ebebeb"></polygon><path d="M246.47,129.22c-.14,0,.86-10.89,2.24-24.29s2.62-24.26,2.77-24.25-.86,10.9-2.25,24.3S246.61,129.24,246.47,129.22Z" style="fill:#e0e0e0"></path><path d="M265,83.1a50.05,50.05,0,0,1-10.19,0,50.05,50.05,0,0,1,10.19,0Z" style="fill:#e0e0e0"></path><path d="M308.31,83.1c0,.15-9.09.26-20.3.26s-20.3-.11-20.3-.26,9.09-.26,20.3-.26S308.31,83,308.31,83.1Z" style="fill:#e0e0e0"></path><path d="M263.75,108.8a50.05,50.05,0,0,1-10.19,0,50.05,50.05,0,0,1,10.19,0Z" style="fill:#e0e0e0"></path><path d="M307.11,108.8c0,.14-9.09.26-20.3.26s-20.3-.12-20.3-.26,9.09-.26,20.3-.26S307.11,108.66,307.11,108.8Z" style="fill:#e0e0e0"></path><path d="M293.28,120.64c0,.15-9.09.26-20.3.26s-20.29-.11-20.29-.26,9.08-.26,20.29-.26S293.28,120.5,293.28,120.64Z" style="fill:#e0e0e0"></path><path d="M269.44,90.36a50.28,50.28,0,0,1-7.17.26,50.08,50.08,0,0,1-7.16-.26,48.38,48.38,0,0,1,7.16-.26A48.58,48.58,0,0,1,269.44,90.36Z" style="fill:#e0e0e0"></path><path d="M269.08,101a48.58,48.58,0,0,1-7.17.26,48.58,48.58,0,0,1-7.17-.26,50.28,50.28,0,0,1,7.17-.26A50.28,50.28,0,0,1,269.08,101Z" style="fill:#e0e0e0"></path><path d="M281.2,116.19a48.58,48.58,0,0,1-7.17.26,48.58,48.58,0,0,1-7.17-.26,50.28,50.28,0,0,1,7.17-.26A50.28,50.28,0,0,1,281.2,116.19Z" style="fill:#e0e0e0"></path><path d="M321.6,90.36c0,.14-8.2.26-18.31.26S285,90.5,285,90.36s8.2-.26,18.32-.26S321.6,90.21,321.6,90.36Z" style="fill:#e0e0e0"></path><path d="M310.29,101.61c0,.14-8.2.26-18.31.26s-18.31-.12-18.31-.26,8.2-.26,18.31-.26S310.29,101.47,310.29,101.61Z" style="fill:#e0e0e0"></path><path d="M322.9,116.19c0,.15-8.2.26-18.31.26s-18.32-.11-18.32-.26,8.2-.26,18.32-.26S322.9,116.05,322.9,116.19Z" style="fill:#e0e0e0"></path><path d="M289.46,129.22c0,.15-8.2.26-18.32.26s-18.31-.11-18.31-.26,8.2-.26,18.31-.26S289.46,129.08,289.46,129.22Z" style="fill:#e0e0e0"></path><path d="M330,129.22c0,.15-8.2.26-18.31.26s-18.32-.11-18.32-.26,8.2-.26,18.32-.26S330,129.08,330,129.22Z" style="fill:#e0e0e0"></path><path d="M289.45,133.46c0,.15-8.2.26-18.31.26s-18.31-.11-18.31-.26,8.19-.26,18.31-.26S289.45,133.32,289.45,133.46Z" style="fill:#e0e0e0"></path><path d="M291.23,93.41c0,.15-8.2.26-18.31.26s-18.31-.11-18.31-.26,8.2-.26,18.31-.26S291.23,93.27,291.23,93.41Z" style="fill:#e0e0e0"></path><path d="M281.47,90.4a43,43,0,0,1-9.44,0,43,43,0,0,1,9.44,0Z" style="fill:#e0e0e0"></path><path d="M262.55,112.29a42.88,42.88,0,0,1-9.43,0,42.88,42.88,0,0,1,9.43,0Z" style="fill:#e0e0e0"></path><path d="M262.33,116.19a43,43,0,0,1-9.44,0,43,43,0,0,1,9.44,0Z" style="fill:#e0e0e0"></path><path d="M344.06,76.7c0,.14-22.82.26-51,.26s-51-.12-51-.26,22.82-.26,51-.26S344.06,76.55,344.06,76.7Z" style="fill:#e0e0e0"></path><path d="M250.18,73.25A1.21,1.21,0,1,1,249,72,1.21,1.21,0,0,1,250.18,73.25Z" style="fill:#fff"></path><path d="M255.37,73.25A1.21,1.21,0,1,1,254.16,72,1.21,1.21,0,0,1,255.37,73.25Z" style="fill:#fff"></path><path d="M260.56,73.25A1.21,1.21,0,1,1,259.35,72,1.21,1.21,0,0,1,260.56,73.25Z" style="fill:#fff"></path><rect x="561.58" y="267.55" width="51.12" height="165.46" style="fill:#ebebeb"></rect><rect x="612.7" y="267.58" width="43.4" height="165.4" style="fill:#e0e0e0"></rect><rect x="565.57" y="274.25" width="41.01" height="35.64" style="fill:#e0e0e0"></rect><rect x="565.57" y="313.93" width="41.01" height="35.64" style="fill:#e0e0e0"></rect><rect x="565.57" y="353.61" width="41.01" height="35.64" style="fill:#e0e0e0"></rect><rect x="565.57" y="393.3" width="41.01" height="35.64" style="fill:#e0e0e0"></rect><path d="M586.08,280.83a1.43,1.43,0,1,1-1.43-1.42A1.43,1.43,0,0,1,586.08,280.83Z" style="fill:#fafafa"></path><path d="M586.08,321a1.43,1.43,0,1,1-1.43-1.42A1.43,1.43,0,0,1,586.08,321Z" style="fill:#fafafa"></path><path d="M586.08,361.12a1.43,1.43,0,1,1-1.43-1.43A1.43,1.43,0,0,1,586.08,361.12Z" style="fill:#fafafa"></path><path d="M586.08,401.26a1.43,1.43,0,1,1-1.43-1.42A1.43,1.43,0,0,1,586.08,401.26Z" style="fill:#fafafa"></path><rect x="561.58" y="433.01" width="5.91" height="33.19" style="fill:#e0e0e0"></rect><rect x="606.58" y="433.01" width="5.91" height="33.19" style="fill:#e0e0e0"></rect><rect x="649.55" y="433.01" width="5.91" height="33.19" style="fill:#e0e0e0"></rect><path d="M132.14,456.83c-1.51-1.29-4.89-5.39-2.29-10.16,1-1.74,3-2.61,4.83-3.38a19.86,19.86,0,0,0,5.28-2.72c2.87-2.43,3.66-6.47,5.56-9.71,2.19-3.71,6.27-6.5,10.58-6.3,4.93.22,9,4.23,10.91,8.8s1.93,9.65,2,14.59c0,2.73-.1,5.81-2.12,7.66-1.85,1.7-4.65,1.72-7.17,1.64l-27-.82" style="fill:#f5f5f5"></path><path d="M183.71,383H112.8l12.78,75.81a8.45,8.45,0,0,0,6,6.75l.25.07a6.45,6.45,0,0,0,.63.16A8.58,8.58,0,0,0,134,466v.07l.35-.05h31.6a9,9,0,0,0,1.74-.18,8.5,8.5,0,0,0,7.17-7.41L181,406.19l.28-2.08h0l2.43-20.69Zm-13.38,48.36h-7.27l.73-22h8.43Zm2.6-22h7l-2.6,22H171Zm-20.79,46.39-.44-19.11h10.48l-.64,19.11Zm-11.33-19.11H151l.45,19.11H142.3Zm.79,19.11h-8.54c-.81-5.16-1.87-11.87-3-19.11h10.06Zm-1.2-24.39-1.72-22h11.68l.51,22Zm11.18,0-.51-22h12l-.74,22Zm-.64-27.28-.47-20.38h13.47l-.68,20.38Zm-.7,0h-12l-1.59-20.38h13.09Zm-12.68,0H124.9c-.45-2.81-.88-5.48-1.26-7.87-1.32-8.24-1.82-11.34-2.09-12.51H136Zm.42,5.28,1.71,22H129.22c-.35-2.23-.71-4.49-1.07-6.75-.82-5.19-1.64-10.39-2.41-15.25Zm-9.47,22h-6.85l-3.7-22H125Zm.83,5.28c1,6.61,2.07,13.13,3,19.11h-6.58l-3.22-19.11Zm32.9,19.11.64-19.11h7l-1.64,19.11ZM164,404.11l.68-20.38h9.77l-1.74,20.38Zm-43.09-20.38c.28,1.48,1.57,9.5,3.31,20.38h-7.12l-3.44-20.38Zm53.55,72H169l1.64-19.11h6.09Zm6.09-51.67h-7.14l1.75-20.38h7.79Z" style="fill:#e0e0e0"></path></g><g id="freepik--Floor--inject-23"><path d="M651,466.19c0,.15-129.42.26-289,.26s-289-.11-289-.26,129.39-.26,289.05-.26S651,466.05,651,466.19Z" style="fill:#263238"></path></g><g id="freepik--Screens--inject-23"><polygon points="396.18 249.88 285.28 249.88 293.48 170.88 405.32 170.88 396.18 249.88" style="fill:#263238"></polygon><polygon points="390.54 249.88 279.63 249.88 287.83 170.88 399.67 170.88 390.54 249.88" style="fill:#455a64"></polygon><polygon points="386.42 246.3 283.51 246.3 291.12 173 394.9 173 386.42 246.3" style="fill:#f5f5f5"></polygon><path d="M294.67,234.08c-.15,0,.87-11.05,2.28-24.63s2.65-24.6,2.79-24.58-.87,11-2.28,24.63S294.81,234.09,294.67,234.08Z" style="fill:#263238"></path><path d="M313.4,187.32a51.43,51.43,0,0,1-10.33,0,51.43,51.43,0,0,1,10.33,0Z" style="fill:#263238"></path><path d="M357.36,187.32c0,.14-9.21.26-20.58.26s-20.57-.12-20.57-.26,9.21-.26,20.57-.26S357.36,187.18,357.36,187.32Z" style="fill:#3B3355"></path><path d="M312.19,213.37a51.53,51.53,0,0,1-10.34,0,51.53,51.53,0,0,1,10.34,0Z" style="fill:#263238"></path><path d="M356.14,213.37c0,.15-9.21.26-20.57.26s-20.58-.11-20.58-.26,9.21-.26,20.58-.26S356.14,213.23,356.14,213.37Z" style="fill:#3B3355"></path><path d="M342.12,225.38c0,.14-9.21.26-20.57.26s-20.58-.12-20.58-.26,9.21-.26,20.58-.26S342.12,225.24,342.12,225.38Z" style="fill:#3B3355"></path><path d="M318,194.67a49.09,49.09,0,0,1-7.27.27,49.09,49.09,0,0,1-7.27-.27,51.75,51.75,0,0,1,7.27-.26A51.75,51.75,0,0,1,318,194.67Z" style="fill:#3B3355"></path><path d="M317.59,205.46a51.75,51.75,0,0,1-7.27.26,51.75,51.75,0,0,1-7.27-.26,50,50,0,0,1,7.27-.26A50,50,0,0,1,317.59,205.46Z" style="fill:#3B3355"></path><path d="M329.88,220.87a51.75,51.75,0,0,1-7.27.26,51.63,51.63,0,0,1-7.27-.26,49.88,49.88,0,0,1,7.27-.26A50,50,0,0,1,329.88,220.87Z" style="fill:#3B3355"></path><path d="M370.83,194.67c0,.15-8.31.27-18.56.27s-18.57-.12-18.57-.27,8.31-.26,18.57-.26S370.83,194.53,370.83,194.67Z" style="fill:#263238"></path><path d="M359.37,206.08c0,.15-8.31.26-18.56.26s-18.57-.11-18.57-.26,8.31-.26,18.57-.26S359.37,205.94,359.37,206.08Z" style="fill:#263238"></path><path d="M372.15,220.87c0,.14-8.31.26-18.56.26S335,221,335,220.87s8.31-.26,18.57-.26S372.15,220.72,372.15,220.87Z" style="fill:#263238"></path><path d="M338.25,234.08c0,.14-8.32.26-18.57.26s-18.57-.12-18.57-.26,8.32-.26,18.57-.26S338.25,233.93,338.25,234.08Z" style="fill:#263238"></path><path d="M379.31,234.08c0,.14-8.31.26-18.56.26s-18.57-.12-18.57-.26,8.31-.26,18.57-.26S379.31,233.93,379.31,234.08Z" style="fill:#263238"></path><path d="M338.24,238.37c0,.15-8.31.26-18.56.26s-18.57-.11-18.57-.26,8.31-.26,18.57-.26S338.24,238.23,338.24,238.37Z" style="fill:#263238"></path><path d="M340.05,197.77c0,.14-8.31.26-18.56.26s-18.57-.12-18.57-.26,8.31-.26,18.57-.26S340.05,197.63,340.05,197.77Z" style="fill:#263238"></path><path d="M330.15,194.72a44.16,44.16,0,0,1-9.57,0,42.54,42.54,0,0,1,9.57,0Z" style="fill:#455a64"></path><path d="M311,216.91a44.07,44.07,0,0,1-9.56,0,44.07,44.07,0,0,1,9.56,0Z" style="fill:#455a64"></path><path d="M310.74,220.87a44.07,44.07,0,0,1-9.56,0,44.07,44.07,0,0,1,9.56,0Z" style="fill:#455a64"></path><path d="M393.61,180.83c0,.14-23.14.26-51.69.26s-51.69-.12-51.69-.26,23.14-.27,51.69-.27S393.61,180.68,393.61,180.83Z" style="fill:#263238"></path><path d="M298.43,177.33a1.23,1.23,0,1,1-1.22-1.23A1.22,1.22,0,0,1,298.43,177.33Z" style="fill:#fff"></path><path d="M303.69,177.33a1.23,1.23,0,1,1-1.22-1.23A1.22,1.22,0,0,1,303.69,177.33Z" style="fill:#fff"></path><path d="M309,177.33a1.23,1.23,0,1,1-1.22-1.23A1.22,1.22,0,0,1,309,177.33Z" style="fill:#fff"></path><polygon points="541.87 252.28 425.21 252.28 433.83 169.17 551.49 169.17 541.87 252.28" style="fill:#263238"></polygon><polygon points="535.93 252.28 419.27 252.28 427.9 169.17 545.55 169.17 535.93 252.28" style="fill:#455a64"></polygon><polygon points="531.61 248.51 423.36 248.51 431.36 171.4 540.53 171.4 531.61 248.51" style="fill:#ebebeb"></polygon><path d="M435.15,234.49c-.14,0,.94-11.62,2.41-25.91s2.79-25.87,2.93-25.85-.94,11.61-2.41,25.91S435.29,234.5,435.15,234.49Z" style="fill:#263238"></path><path d="M454.86,185.31a56.94,56.94,0,0,1-10.87,0,54.84,54.84,0,0,1,10.87,0Z" style="fill:#263238"></path><path d="M501.1,185.31c0,.14-9.69.26-21.65.26s-21.64-.12-21.64-.26,9.69-.27,21.64-.27S501.1,185.16,501.1,185.31Z" style="fill:#3B3355"></path><path d="M453.58,212.71a56.94,56.94,0,0,1-10.87,0,56.94,56.94,0,0,1,10.87,0Z" style="fill:#263238"></path><path d="M499.82,212.71c0,.14-9.7.26-21.65.26s-21.64-.12-21.64-.26,9.69-.26,21.64-.26S499.82,212.57,499.82,212.71Z" style="fill:#3B3355"></path><path d="M485.07,225.34c0,.15-9.69.26-21.64.26s-21.65-.11-21.65-.26,9.69-.26,21.65-.26S485.07,225.2,485.07,225.34Z" style="fill:#3B3355"></path><path d="M459.65,193a112.53,112.53,0,0,1-15.29,0,112.53,112.53,0,0,1,15.29,0Z" style="fill:#3B3355"></path><path d="M459.26,204.38a108.37,108.37,0,0,1-15.29,0,112.53,112.53,0,0,1,15.29,0Z" style="fill:#3B3355"></path><path d="M472.19,220.6a112.53,112.53,0,0,1-15.29,0,112.53,112.53,0,0,1,15.29,0Z" style="fill:#3B3355"></path><path d="M515.27,193c0,.15-8.74.26-19.53.26s-19.53-.11-19.53-.26,8.74-.26,19.53-.26S515.27,192.9,515.27,193Z" style="fill:#263238"></path><path d="M503.22,205c0,.15-8.75.26-19.53.26s-19.53-.11-19.53-.26,8.74-.26,19.53-.26S503.22,204.9,503.22,205Z" style="fill:#263238"></path><path d="M516.66,220.6c0,.14-8.75.26-19.53.26s-19.53-.12-19.53-.26,8.74-.26,19.53-.26S516.66,220.45,516.66,220.6Z" style="fill:#263238"></path><path d="M481,234.49c0,.14-8.74.26-19.53.26s-19.53-.12-19.53-.26,8.75-.26,19.53-.26S481,234.35,481,234.49Z" style="fill:#263238"></path><path d="M524.19,234.49c0,.14-8.75.26-19.53.26s-19.53-.12-19.53-.26,8.74-.26,19.53-.26S524.19,234.35,524.19,234.49Z" style="fill:#263238"></path><path d="M481,239c0,.14-8.74.26-19.53.26s-19.53-.12-19.53-.26,8.74-.26,19.53-.26S481,238.87,481,239Z" style="fill:#263238"></path><path d="M482.89,196.3c0,.14-8.74.26-19.53.26s-19.53-.12-19.53-.26,8.74-.26,19.53-.26S482.89,196.16,482.89,196.3Z" style="fill:#263238"></path><path d="M472.47,193.08a48.79,48.79,0,0,1-10.06,0,48.79,48.79,0,0,1,10.06,0Z" style="fill:#455a64"></path><path d="M452.3,216.43a48.79,48.79,0,0,1-10.06,0,48.79,48.79,0,0,1,10.06,0Z" style="fill:#455a64"></path><path d="M452.06,220.6a48.79,48.79,0,0,1-10.06,0,48.79,48.79,0,0,1,10.06,0Z" style="fill:#455a64"></path><path d="M539.23,178.47c0,.15-24.34.26-54.37.26s-54.37-.11-54.37-.26,24.34-.26,54.37-.26S539.23,178.33,539.23,178.47Z" style="fill:#263238"></path><path d="M439.11,174.8a1.29,1.29,0,1,1-1.29-1.29A1.28,1.28,0,0,1,439.11,174.8Z" style="fill:#fff"></path><path d="M444.64,174.8a1.29,1.29,0,1,1-1.29-1.29A1.28,1.28,0,0,1,444.64,174.8Z" style="fill:#fff"></path><path d="M450.18,174.8a1.29,1.29,0,1,1-1.29-1.29A1.28,1.28,0,0,1,450.18,174.8Z" style="fill:#fff"></path><polygon points="475.31 153.9 363.9 153.9 372.14 74.54 484.49 74.54 475.31 153.9" style="fill:#263238"></polygon><polygon points="469.64 153.9 358.23 153.9 366.47 74.54 478.82 74.54 469.64 153.9" style="fill:#455a64"></polygon><polygon points="465.5 150.31 362.13 150.31 369.77 76.67 474.02 76.67 465.5 150.31" style="fill:#fafafa"></polygon><path d="M373.49,138c-.14,0,.89-11.1,2.3-24.74s2.66-24.71,2.81-24.69-.89,11.09-2.3,24.74S373.64,138,373.49,138Z" style="fill:#263238"></path><path d="M392.32,91a51.93,51.93,0,0,1-10.38,0,51.93,51.93,0,0,1,10.38,0Z" style="fill:#263238"></path><path d="M436.47,91c0,.14-9.25.26-20.67.26s-20.67-.12-20.67-.26,9.25-.26,20.67-.26S436.47,90.83,436.47,91Z" style="fill:#3B3355"></path><path d="M391.09,117.15a51.93,51.93,0,0,1-10.38,0,51.93,51.93,0,0,1,10.38,0Z" style="fill:#263238"></path><path d="M435.25,117.15c0,.14-9.26.26-20.67.26s-20.67-.12-20.67-.26,9.25-.26,20.67-.26S435.25,117,435.25,117.15Z" style="fill:#3B3355"></path><path d="M421.17,129.21c0,.14-9.26.26-20.67.26s-20.67-.12-20.67-.26,9.25-.26,20.67-.26S421.17,129.07,421.17,129.21Z" style="fill:#3B3355"></path><path d="M396.89,98.37a102.61,102.61,0,0,1-14.6,0,102.61,102.61,0,0,1,14.6,0Z" style="fill:#3B3355"></path><path d="M396.52,109.2a102.61,102.61,0,0,1-14.6,0,102.61,102.61,0,0,1,14.6,0Z" style="fill:#3B3355"></path><path d="M408.86,124.68a102.61,102.61,0,0,1-14.6,0,102.61,102.61,0,0,1,14.6,0Z" style="fill:#3B3355"></path><path d="M450,98.37c0,.14-8.35.26-18.65.26s-18.65-.12-18.65-.26,8.34-.26,18.65-.26S450,98.22,450,98.37Z" style="fill:#263238"></path><path d="M438.49,109.83c0,.14-8.35.26-18.65.26s-18.65-.12-18.65-.26,8.35-.26,18.65-.26S438.49,109.68,438.49,109.83Z" style="fill:#263238"></path><path d="M451.33,124.68c0,.14-8.35.26-18.65.26s-18.65-.12-18.65-.26,8.35-.26,18.65-.26S451.33,124.53,451.33,124.68Z" style="fill:#263238"></path><path d="M417.27,138c0,.14-8.35.26-18.65.26S380,138.09,380,138s8.35-.26,18.65-.26S417.27,137.8,417.27,138Z" style="fill:#263238"></path><path d="M458.52,138c0,.14-8.35.26-18.65.26s-18.65-.12-18.65-.26,8.35-.26,18.65-.26S458.52,137.8,458.52,138Z" style="fill:#263238"></path><path d="M417.27,142.26c0,.15-8.35.26-18.65.26s-18.65-.11-18.65-.26,8.35-.26,18.65-.26S417.27,142.12,417.27,142.26Z" style="fill:#263238"></path><path d="M419.08,101.48c0,.14-8.35.26-18.65.26s-18.65-.12-18.65-.26,8.35-.26,18.65-.26S419.08,101.33,419.08,101.48Z" style="fill:#263238"></path><path d="M409.14,98.41a44.53,44.53,0,0,1-9.61,0,44.53,44.53,0,0,1,9.61,0Z" style="fill:#455a64"></path><path d="M389.87,120.7a44.53,44.53,0,0,1-9.61,0,44.53,44.53,0,0,1,9.61,0Z" style="fill:#455a64"></path><path d="M389.65,124.68a44.53,44.53,0,0,1-9.61,0,44.53,44.53,0,0,1,9.61,0Z" style="fill:#455a64"></path><path d="M472.88,84.45c0,.15-23.24.27-51.91.27S369,84.6,369,84.45s23.24-.26,51.93-.26S472.88,84.31,472.88,84.45Z" style="fill:#263238"></path><circle cx="376.05" cy="80.94" r="1.23" style="fill:#fff"></circle><circle cx="381.33" cy="80.94" r="1.23" style="fill:#fff"></circle><circle cx="386.61" cy="80.94" r="1.23" style="fill:#fff"></circle></g><g id="freepik--Character--inject-23"><rect x="277.9" y="453.69" width="8.68" height="11.84" style="fill:#263238"></rect><rect x="333.1" y="311.79" width="77.01" height="3.75" transform="translate(743.22 627.32) rotate(180)" style="fill:#263238"></rect><polygon points="422.05 315.53 436.5 261.4 376.36 261.4 363.28 315.53 422.05 315.53" style="fill:#263238"></polygon><polygon points="366.89 311.44 420.61 311.44 433.11 263.9 379.11 263.9 366.89 311.44" style="fill:#f5f5f5"></polygon><polygon points="380.45 273.11 377.12 286.57 412.74 286.57 416.54 273.11 380.45 273.11" style="fill:#e0e0e0"></polygon><path d="M409,271.33c0,.15-6.24.26-13.95.26s-13.95-.11-13.95-.26,6.24-.26,13.95-.26S409,271.19,409,271.33Z" style="fill:#455a64"></path><path d="M392.79,275.68a61,61,0,0,1-11.25,0,61,61,0,0,1,11.25,0Z" style="fill:#263238"></path><path d="M401.81,275.47a25.89,25.89,0,0,1-7.32,0,25.89,25.89,0,0,1,7.32,0Z" style="fill:#263238"></path><path d="M412,278.12c0,.15-6.89.27-15.39.27s-15.39-.12-15.39-.27,6.89-.26,15.39-.26S412,278,412,278.12Z" style="fill:#455a64"></path><path d="M390.56,280.35a47.92,47.92,0,0,1-10,0,47.92,47.92,0,0,1,10,0Z" style="fill:#3B3355"></path><path d="M409.24,283.54c0,.14-6.39.26-14.27.26s-14.28-.12-14.28-.26,6.39-.26,14.28-.26S409.24,283.39,409.24,283.54Z" style="fill:#455a64"></path><path d="M388.23,290.43a58.73,58.73,0,0,1-11,0,58.73,58.73,0,0,1,11,0Z" style="fill:#455a64"></path><path d="M397.67,290.48a14.38,14.38,0,0,1-3.77.23,13.45,13.45,0,0,1-3.76-.3,14.38,14.38,0,0,1,3.77-.23A13.45,13.45,0,0,1,397.67,290.48Z" style="fill:#263238"></path><path d="M403,290.22c0,.15-.72.26-1.6.26s-1.59-.11-1.59-.26.72-.26,1.59-.26S403,290.08,403,290.22Z" style="fill:#263238"></path><path d="M380.91,293.19c0,.15-.79.26-1.76.26s-1.75-.11-1.75-.26.79-.26,1.75-.26S380.91,293.05,380.91,293.19Z" style="fill:#3B3355"></path><path d="M391.41,293.19a33.89,33.89,0,0,1-8.38,0,33.89,33.89,0,0,1,8.38,0Z" style="fill:#263238"></path><path d="M416.45,292.87c0,.15-5,.26-11.19.26s-11.2-.11-11.2-.26,5-.26,11.2-.26S416.45,292.73,416.45,292.87Z" style="fill:#455a64"></path><path d="M380.37,296.06c0,.14-.8.26-1.8.26s-1.8-.12-1.8-.26.8-.26,1.8-.26S380.37,295.91,380.37,296.06Z" style="fill:#263238"></path><path d="M385.89,296a4.65,4.65,0,0,1-2.17.26,4.71,4.71,0,0,1-2.18-.26,4.87,4.87,0,0,1,2.18-.26A4.81,4.81,0,0,1,385.89,296Z" style="fill:#263238"></path><path d="M402.34,295.74a95.85,95.85,0,0,1-14.11,0,95.85,95.85,0,0,1,14.11,0Z" style="fill:#455a64"></path><path d="M393.64,300.73a71.33,71.33,0,0,1-8.54.26,71.19,71.19,0,0,1-8.54-.26,68.78,68.78,0,0,1,8.54-.26A68.91,68.91,0,0,1,393.64,300.73Z" style="fill:#455a64"></path><path d="M403.61,300.51a28.93,28.93,0,0,1-7.74,0,28.93,28.93,0,0,1,7.74,0Z" style="fill:#3B3355"></path><path d="M418.42,300.51a79.39,79.39,0,0,1-12.84,0,79.39,79.39,0,0,1,12.84,0Z" style="fill:#263238"></path><path d="M415,271.12c0,.15-.6.26-1.33.26s-1.33-.11-1.33-.26.6-.26,1.33-.26S415,271,415,271.12Z" style="fill:#263238"></path><path d="M387.91,269.32a16.53,16.53,0,0,1-5.84,0,16.53,16.53,0,0,1,5.84,0Z" style="fill:#3B3355"></path><path d="M432.21,267.32h-54l.91-3.42h54Z" style="fill:#ebebeb"></path><circle cx="381.39" cy="265.63" r="0.59" style="fill:#fafafa"></circle><circle cx="383.42" cy="265.63" r="0.59" style="fill:#fafafa"></circle><circle cx="385.45" cy="265.63" r="0.59" style="fill:#fafafa"></circle><rect x="369.98" y="320.57" width="128.04" height="74.71" style="fill:#263238"></rect><rect x="369.98" y="320.57" width="58.33" height="74.71" style="fill:#455a64"></rect><path d="M422.37,345.94a1.59,1.59,0,0,1,0-.38l0-1.09c0-1,0-2.37-.05-4.15,0-3.61-.06-8.77-.1-15.13l.19.19-46.92.07.26-.26h0v5.39c0,1.78,0,3.55,0,5.28,0,3.47,0,6.84,0,10.06l-.24-.24,33.61.11,9.76.07,2.62,0,.69,0h.24l-.21,0h-.66l-2.57,0-9.71.06-33.77.12h-.25v-.25c0-3.22,0-6.59,0-10.06V325.21h0l.26-.26,46.92.07h.19v.19c-.05,6.41-.08,11.61-.11,15.24,0,1.76,0,3.14,0,4.11l0,1.06C422.38,345.83,422.37,346,422.37,345.94Z" style="fill:#263238"></path><path d="M400.9,335.57a2.6,2.6,0,0,0-.9-1.44,1.82,1.82,0,0,0-1.69-.21,1.78,1.78,0,0,0-1.14,1.65,1.8,1.8,0,0,0,1.14,1.65A1.85,1.85,0,0,0,400,337a2.66,2.66,0,0,0,.9-1.44s.09.18,0,.51a2,2,0,0,1-.71,1.22,2.17,2.17,0,0,1-2.08.37,2.22,2.22,0,0,1,0-4.2,2.17,2.17,0,0,1,2.08.36,2,2,0,0,1,.71,1.22C401,335.39,400.93,335.57,400.9,335.57Z" style="fill:#263238"></path><path d="M422.37,368.79a1.81,1.81,0,0,1,0-.39l0-1.09c0-1,0-2.37-.05-4.15,0-3.6-.06-8.76-.1-15.13l.19.19-46.92.08.26-.26h0v5.39c0,1.79,0,3.55,0,5.29,0,3.47,0,6.84,0,10.06l-.24-.25,33.61.12,9.76.07,2.62,0h.69l.24,0h-.21l-.66,0-2.57,0-9.71.07-33.77.12h-.25v-.25c0-3.22,0-6.59,0-10.06V348.05h0c-.06,0,.49-.5.26-.27l46.92.08h.19V348c-.05,6.42-.08,11.62-.11,15.25,0,1.76,0,3.13,0,4.11l0,1.05C422.38,368.68,422.37,368.8,422.37,368.79Z" style="fill:#263238"></path><path d="M400.9,358.41A2.66,2.66,0,0,0,400,357a1.79,1.79,0,0,0-2.83,1.44,1.78,1.78,0,0,0,1.14,1.65,1.82,1.82,0,0,0,1.69-.21,2.63,2.63,0,0,0,.9-1.44s.09.18,0,.51a2,2,0,0,1-.71,1.22,2.17,2.17,0,0,1-2.08.37,2.22,2.22,0,0,1,0-4.2,2.17,2.17,0,0,1,2.08.37,2,2,0,0,1,.71,1.22C401,358.23,400.93,358.41,400.9,358.41Z" style="fill:#263238"></path><path d="M422.37,391.63a1.59,1.59,0,0,1,0-.38l0-1.09c0-1,0-2.37-.05-4.15,0-3.61-.06-8.77-.1-15.13l.19.19-46.92.07.26-.26h0v5.39c0,1.78,0,3.55,0,5.28,0,3.47,0,6.84,0,10.06l-.24-.24,33.61.11,9.76.07,2.62,0,.69,0h.24l-.21,0h-.66l-2.57,0-9.71.06-33.77.12h-.25v-.25c0-3.22,0-6.59,0-10.06V370.9h0l.26-.26,46.92.07h.19v.19c-.05,6.41-.08,11.61-.11,15.24,0,1.76,0,3.14,0,4.11l0,1.06C422.38,391.52,422.37,391.64,422.37,391.63Z" style="fill:#263238"></path><path d="M400.9,381.26a2.6,2.6,0,0,0-.9-1.44,1.82,1.82,0,0,0-1.69-.21,1.78,1.78,0,0,0-1.14,1.65A1.79,1.79,0,0,0,400,382.7a2.66,2.66,0,0,0,.9-1.44s.09.18,0,.51a2,2,0,0,1-.71,1.22,2.17,2.17,0,0,1-2.08.37,2.22,2.22,0,0,1,0-4.2,2.17,2.17,0,0,1,2.08.36,2,2,0,0,1,.71,1.22C401,381.08,400.93,381.26,400.9,381.26Z" style="fill:#263238"></path><polygon points="284.71 456.09 199.14 456.02 199.14 320.57 284.71 320.57 284.71 456.09" style="fill:#263238"></polygon><rect x="195.01" y="315.36" width="307.66" height="7.1" style="fill:#263238"></rect><rect x="199.14" y="322.46" width="9.54" height="143.7" style="fill:#263238"></rect><rect x="488.48" y="322.46" width="9.54" height="143.74" style="fill:#263238"></rect><rect x="428.31" y="322.46" width="9.54" height="143.74" style="fill:#263238"></rect><path d="M238.27,315.36c0,.14-9.17.26-20.48.26s-20.48-.12-20.48-.26,9.17-.26,20.48-.26S238.27,315.21,238.27,315.36Z" style="fill:#455a64"></path><path d="M328.23,459.16l.24-10.27-19.25-.58-.51,15,1.19.11c5.3.46,27,1.94,30.57,1C344.47,463.34,328.23,459.16,328.23,459.16Z" style="fill:#3B3355"></path><g style="opacity:0.4"><path d="M336.15,461.49s5.69,1.82,4.94,2.75-22.72.24-32.38-.9l0-.43,25.63,1S335,461.5,336.15,461.49Z" style="fill:#fff"></path></g><path d="M308.45,462.89l.33,0,1,.09,3.49.26c2.95.2,7,.41,11.54.56s8.6.18,11.56.17l3.5,0,1,0,.33,0-.33,0h-1l-3.5,0c-2.95,0-7-.1-11.55-.24s-8.59-.33-11.54-.49l-3.5-.18-1,0Z" style="fill:#263238"></path><path d="M334.36,464.21a7.66,7.66,0,0,1,.71-1.65,8.33,8.33,0,0,1,1.23-1.3,3.12,3.12,0,0,0-1.94,2.95Z" style="fill:#263238"></path><path d="M328.77,461.16c.05,0,.34-.29.63-.72s.49-.82.44-.85-.34.28-.63.72S328.72,461.12,328.77,461.16Z" style="fill:#263238"></path><path d="M327.24,460.29s.35-.15.69-.44.58-.56.54-.61-.35.15-.69.44S327.2,460.24,327.24,460.29Z" style="fill:#263238"></path><path d="M326.31,458.44a2.45,2.45,0,0,0,1,.16,2.19,2.19,0,0,0,1-.08,2.5,2.5,0,0,0-1-.16C326.76,458.34,326.31,458.37,326.31,458.44Z" style="fill:#263238"></path><path d="M326,457.15a2.05,2.05,0,0,0,1.11.36,2,2,0,0,0,1.16-.12,5.39,5.39,0,0,0-1.14-.11A5.09,5.09,0,0,0,326,457.15Z" style="fill:#263238"></path><path d="M329.48,459.5a3.66,3.66,0,0,0,1.23,0,7.81,7.81,0,0,0,1.33-.25,3.79,3.79,0,0,0,.76-.29.66.66,0,0,0,.32-.37.48.48,0,0,0-.17-.5,2.28,2.28,0,0,0-2.83.57,2.32,2.32,0,0,0-.43.82.83.83,0,0,0,0,.33,3.53,3.53,0,0,1,.6-1,2.19,2.19,0,0,1,1.07-.65,2,2,0,0,1,1.48.14c.19.15.1.38-.12.51a4.22,4.22,0,0,1-.7.27,9.28,9.28,0,0,1-1.29.3C330,459.47,329.48,459.46,329.48,459.5Z" style="fill:#263238"></path><path d="M329.79,459.57a1.21,1.21,0,0,0,.17-.85,2,2,0,0,0-.31-.92,1.24,1.24,0,0,0-1-.66.49.49,0,0,0-.4.56,1.38,1.38,0,0,0,.2.56,3.4,3.4,0,0,0,.56.76,1.91,1.91,0,0,0,.69.53s-.24-.23-.57-.64a4.24,4.24,0,0,1-.49-.75c-.16-.27-.27-.74.05-.79s.61.3.79.55a2,2,0,0,1,.33.82A4,4,0,0,1,329.79,459.57Z" style="fill:#263238"></path><path d="M309,457.63c0,.05.56,0,1.42.1a6,6,0,0,1,4.92,4.17,14.23,14.23,0,0,1,.32,1.39,1,1,0,0,0,0-.39,6.56,6.56,0,0,0-.18-1,5.85,5.85,0,0,0-5.06-4.29,5.27,5.27,0,0,0-1.06,0A1.49,1.49,0,0,0,309,457.63Z" style="fill:#263238"></path><path d="M311.24,449.68a36.28,36.28,0,0,0-.29,3.95,35.4,35.4,0,0,0-.05,4,36,36,0,0,0,.29-3.95A32.79,32.79,0,0,0,311.24,449.68Z" style="fill:#263238"></path><path d="M318.17,461.59a10.77,10.77,0,0,0,2.8.37,11.18,11.18,0,0,0,2.82-.14c0-.07-1.26,0-2.81-.09S318.18,461.53,318.17,461.59Z" style="fill:#263238"></path><path d="M314.4,461.47s.09.27.21.56.18.56.25.55.11-.3,0-.63S314.44,461.43,314.4,461.47Z" style="fill:#263238"></path><path d="M313,459.66s.07.25.26.46.39.34.44.29-.07-.24-.27-.45S313.08,459.62,313,459.66Z" style="fill:#263238"></path><path d="M311,458.79c0,.07.27.07.55.18s.48.26.53.22-.1-.31-.45-.44S311,458.73,311,458.79Z" style="fill:#263238"></path><path d="M309.58,458.36c0,.06.09.16.24.23s.31.07.33,0-.08-.17-.24-.23S309.61,458.3,309.58,458.36Z" style="fill:#263238"></path><g style="opacity:0.30000000000000004"><polygon points="309.04 457.12 328.28 457.39 328.32 455.07 308.93 455.89 309.04 457.12"></polygon></g><path d="M358.59,460.76l0-10.28-19.26-.07-.11,15,1.19.08c5.31.31,27,1.22,30.59.16C374.94,464.5,358.59,460.76,358.59,460.76Z" style="fill:#3B3355"></path><g style="opacity:0.4"><path d="M366.57,462.87s5.73,1.68,5,2.62-22.7.85-32.39,0l0-.43,25.64.33S365.45,462.92,366.57,462.87Z" style="fill:#fff"></path></g><path d="M338.92,465l.33,0,.95.06,3.5.17c2.95.12,7,.23,11.55.25s8.6,0,11.56-.13l3.5-.13.95-.06.33,0h-1.28l-3.5.05c-3,0-7.05.09-11.56.07s-8.59-.11-11.55-.18l-3.5-.1h-1.28Z" style="fill:#263238"></path><path d="M364.86,465.65a7.26,7.26,0,0,1,.66-1.67,7.77,7.77,0,0,1,1.2-1.34,2.58,2.58,0,0,0-1.4,1.22A2.54,2.54,0,0,0,364.86,465.65Z" style="fill:#263238"></path><path d="M359.19,462.74c.05,0,.32-.3.61-.74s.46-.82.41-.86-.33.3-.61.74S359.13,462.7,359.19,462.74Z" style="fill:#263238"></path><path d="M357.63,461.91s.35-.16.68-.45.57-.58.53-.63-.35.16-.68.45S357.59,461.86,357.63,461.91Z" style="fill:#263238"></path><path d="M356.65,460.09a2.42,2.42,0,0,0,1,.13,2.3,2.3,0,0,0,1-.1c0-.07-.44-.13-1-.13S356.65,460,356.65,460.09Z" style="fill:#263238"></path><path d="M356.32,458.8a2,2,0,0,0,1.12.33,1.83,1.83,0,0,0,1.16-.15,7,7,0,0,0-1.14-.08A6.44,6.44,0,0,0,356.32,458.8Z" style="fill:#263238"></path><path d="M359.85,461.06a3.31,3.31,0,0,0,1.23,0,6.35,6.35,0,0,0,1.32-.29,3.32,3.32,0,0,0,.76-.3.69.69,0,0,0,.31-.39.49.49,0,0,0-.19-.49,2.27,2.27,0,0,0-2.81.65,2.47,2.47,0,0,0-.41.82.74.74,0,0,0,0,.34,3.47,3.47,0,0,1,.57-1,2.28,2.28,0,0,1,1.06-.69,1.93,1.93,0,0,1,1.47.11c.2.15.12.38-.1.51a3.48,3.48,0,0,1-.69.29,9.33,9.33,0,0,1-1.28.33C360.32,461,359.85,461,359.85,461.06Z" style="fill:#263238"></path><path d="M360.17,461.13a1.29,1.29,0,0,0,.14-.86,2,2,0,0,0-.33-.91,1.26,1.26,0,0,0-1-.63.48.48,0,0,0-.38.57,1.35,1.35,0,0,0,.21.55,3.68,3.68,0,0,0,.58.75c.38.38.69.53.7.5s-.24-.22-.58-.61a4.86,4.86,0,0,1-.52-.75c-.17-.26-.28-.73,0-.78s.62.28.81.52a2,2,0,0,1,.35.81A5,5,0,0,1,360.17,461.13Z" style="fill:#263238"></path><path d="M339.33,459.74s.55-.05,1.42.06a6.09,6.09,0,0,1,3.1,1.29,6.16,6.16,0,0,1,1.93,2.75c.29.82.32,1.38.36,1.37a1.31,1.31,0,0,0,0-.39,5.81,5.81,0,0,0-.2-1,5.87,5.87,0,0,0-5.17-4.16,5.77,5.77,0,0,0-1.06,0C339.46,459.69,339.33,459.72,339.33,459.74Z" style="fill:#263238"></path><path d="M341.36,451.73a33.58,33.58,0,0,0-.18,4,31.58,31.58,0,0,0,.05,4,36.38,36.38,0,0,0,.18-4A31.67,31.67,0,0,0,341.36,451.73Z" style="fill:#263238"></path><path d="M348.6,463.46a10.94,10.94,0,0,0,2.81.29,11.08,11.08,0,0,0,2.82-.22c0-.06-1.27,0-2.82,0S348.61,463.39,348.6,463.46Z" style="fill:#263238"></path><path d="M344.82,463.43c0,.05.11.27.23.56s.2.55.27.54.1-.3-.05-.63S344.87,463.39,344.82,463.43Z" style="fill:#263238"></path><path d="M343.41,461.66c-.05,0,.08.24.28.45s.39.33.44.28-.08-.24-.28-.45S343.46,461.61,343.41,461.66Z" style="fill:#263238"></path><path d="M341.38,460.84c0,.07.27.07.55.17s.49.25.54.21-.11-.31-.46-.43S341.36,460.78,341.38,460.84Z" style="fill:#263238"></path><path d="M339.93,460.45c0,.06.09.16.25.23s.31.06.33,0-.09-.16-.25-.22S340,460.39,339.93,460.45Z" style="fill:#263238"></path><g style="opacity:0.30000000000000004"><polygon points="339.36 459.22 358.6 458.99 358.58 456.67 339.21 458 339.36 459.22"></polygon></g><path d="M316.07,284.79,323.78,308c2.08,6.27,7.56,7.35,14.17,7.35h42.89v-9.63l-39.18-5.59-9.34-23.86Z" style="fill:#ffbe9d"></path><path d="M385.56,303.73l3.4-1.61s3.67-7.09,4.51-6.8,1.09,2.37-.38,5.62l4.52-1.29s9.8,4.53,9.37,5.14-1.24,2.06-3.37,1-4.94-2.38-4.94-2.38l-5.28,1.51,6.81.87,6.41,5.82s-2.11,1.58-3.92-.09l-16.64,3.57-5.21.3v-9.63Z" style="fill:#ffbe9d"></path><path d="M402.69,311.49c-.07,0-.38-.45-1-1.1a5.08,5.08,0,0,0-1.21-.94,4.9,4.9,0,0,0-1.8-.47,25.29,25.29,0,0,1-5-.85,25.15,25.15,0,0,1,5.06.34,4.84,4.84,0,0,1,2,.57,4.6,4.6,0,0,1,1.25,1.11A2.89,2.89,0,0,1,402.69,311.49Z" style="fill:#eb996e"></path><path d="M400.09,312.15c-.07,0-.12-.34-.58-.44s-1.24-.18-2-.26a17.69,17.69,0,0,1-2.92-.29,5.87,5.87,0,0,1,3-.23,9.2,9.2,0,0,1,2.09.43.82.82,0,0,1,.5.53C400.18,312.07,400.12,312.16,400.09,312.15Z" style="fill:#eb996e"></path><path d="M279.86,189.32l-2.33,47.18,20.2,1.9L298.85,227s7.12,1.76,9.28-4.83c1.39-4.21,2.62-37.19,2.62-37.19Z" style="fill:#ffbe9d"></path><path d="M312.49,190.44c.56,4.42-5.61,7-5.61,7l-1.08,10.45a20.35,20.35,0,0,0-2.9,0c.52-4.9-5.8-3.94-6.44-.6s3,5.36,3,5.36c-2.52,3.87-3.55,5.92-7.13,9.55-3.88,3.93-6,4.25-10,4.13l-4.41-.2s-1.58-3.77-2.73-12.68c-.55-4.28-3.9-9.9-2.94-16.86,2.7-19.79,21.66-17.7,21.66-17.7C303.82,179.1,311.19,180.2,312.49,190.44Z" style="fill:#263238"></path><path d="M298,179.4c4.28.11,8.72.45,12.48,2.5s6.66,6.28,5.89,10.49l-2.14.39-.88-1.58c0,.84,0,1.68,0,2.52l-3.76,1.05a27.55,27.55,0,0,0-3.34-9.11" style="fill:#263238"></path><path d="M280.66,201.11a2.55,2.55,0,0,1-.33-.74,12.7,12.7,0,0,1-.54-2.15A15.72,15.72,0,0,1,284,184.69a12.22,12.22,0,0,1,1.65-1.47,2.46,2.46,0,0,1,.7-.43c.05.07-.87.76-2.08,2.14a17.25,17.25,0,0,0-3.47,6.18,17.43,17.43,0,0,0-.62,7.06C280.37,200,280.75,201.08,280.66,201.11Z" style="fill:#455a64"></path><path d="M284.64,199.46a8.2,8.2,0,0,1-.79-2.42,20.13,20.13,0,0,1-.39-6.14,20.45,20.45,0,0,1,1.44-6,8.1,8.1,0,0,1,1.21-2.25,32,32,0,0,0-2.13,8.27A32.15,32.15,0,0,0,284.64,199.46Z" style="fill:#455a64"></path><path d="M310.43,192.14c-.1,0-.27-1.22-1.09-3A13.8,13.8,0,0,0,297.27,181c-2-.09-3.19.21-3.21.12a2.64,2.64,0,0,1,.84-.26,11.57,11.57,0,0,1,2.38-.22,13.33,13.33,0,0,1,12.4,8.39,11.52,11.52,0,0,1,.67,2.29A2.5,2.5,0,0,1,310.43,192.14Z" style="fill:#455a64"></path><path d="M281.29,175.58a5.25,5.25,0,0,1,2.9,1.72,5.15,5.15,0,0,1,1.7,2.91c-.14.06-.79-1.28-2.07-2.55S281.22,175.73,281.29,175.58Z" style="fill:#263238"></path><path d="M286,175.6c.15.05-.16,1.11-.1,2.42s.42,2.33.28,2.4a3.38,3.38,0,0,1-.8-2.38A3.34,3.34,0,0,1,286,175.6Z" style="fill:#455a64"></path><path d="M312.44,279.73l3.29,11.17,20.94-9.47c-.75-2.34-4.22-12.76-10.84-29.3a28.43,28.43,0,0,0-21.71-17.49,124.44,124.44,0,0,0-20-2c-11.74.13-29,7.47-31.34,19-1.78,8.78-.07,24.29-.07,43.13l1.53,36,60.16,2Z" style="fill:#3B3355"></path><g style="opacity:0.30000000000000004"><path d="M252.74,286.45c7.32,1.5,14.83,0,22.29-.45,4.52-.27,9.54-.76,13.12,2,2.84,2.2,4,5.91,4.8,9.41,3.12,13.33,3.68,22.27,4.38,35.94l-36.21,2.2Z"></path></g><path d="M324.07,248.68c0,.15-15.8.26-35.28.26s-35.27-.11-35.27-.26,15.79-.26,35.27-.26S324.07,248.54,324.07,248.68Z" style="fill:#fafafa"></path><path d="M328.46,258.79c0,.14-17.18.26-38.35.26s-38.35-.12-38.35-.26,17.16-.26,38.35-.26S328.46,258.65,328.46,258.79Z" style="fill:#fafafa"></path><path d="M334,271.47c0,.15-18.32.26-40.92.26s-40.92-.11-40.92-.26,18.32-.26,40.92-.26S334,271.33,334,271.47Z" style="fill:#fafafa"></path><path d="M312,285.15c0,.14-5.73.26-12.78.26s-12.79-.12-12.79-.26,5.72-.26,12.79-.26S312,285,312,285.15Z" style="fill:#fafafa"></path><path d="M313.17,300c0,.14-6,.21-13.38.15s-13.38-.22-13.38-.37,6-.21,13.38-.15S313.17,299.83,313.17,300Z" style="fill:#fafafa"></path><path d="M313.75,312.05a4,4,0,0,1-1.05.05l-2.87-.06c-2.42-.05-5.76-.12-9.45-.12s-7,.06-9.45.11l-2.87.06a4.1,4.1,0,0,1-1.06,0,4,4,0,0,1,1.05-.16c.67-.07,1.65-.14,2.86-.21,2.42-.15,5.77-.27,9.47-.27s7.05.13,9.46.28c1.21.07,2.19.15,2.87.22A4.33,4.33,0,0,1,313.75,312.05Z" style="fill:#fafafa"></path><path d="M313.56,321.81c0,.14-5.9.26-13.18.26s-13.17-.12-13.17-.26,5.89-.26,13.17-.26S313.56,321.66,313.56,321.81Z" style="fill:#fafafa"></path><path d="M315.35,238.77c0,.15-11.58.26-25.86.26s-25.87-.11-25.87-.26,11.58-.26,25.87-.26S315.35,238.63,315.35,238.77Z" style="fill:#fafafa"></path><path d="M314,240.65c0,.06-.6.09-1.6.48a8.45,8.45,0,0,0-3.47,2.81,11.74,11.74,0,0,0-2.07,6.27,39.39,39.39,0,0,0,.64,8.24,134,134,0,0,0,3.36,14.75c.49,1.81.9,3.3,1.21,4.43a11.94,11.94,0,0,1,.39,1.64,9.48,9.48,0,0,1-.58-1.58c-.34-1-.82-2.53-1.38-4.39A116,116,0,0,1,307,258.53a38.79,38.79,0,0,1-.6-8.36,11.86,11.86,0,0,1,2.26-6.45,8.17,8.17,0,0,1,3.69-2.78,6.08,6.08,0,0,1,1.23-.28A1.47,1.47,0,0,1,314,240.65Z" style="fill:#263238"></path><path d="M336,278.57a19.65,19.65,0,0,1-2.95,1.7c-1.86,1-4.47,2.25-7.39,3.57s-5.6,2.42-7.56,3.17a20.89,20.89,0,0,1-3.22,1.09,23,23,0,0,1,3.08-1.43c1.92-.84,4.58-2,7.49-3.3s5.53-2.55,7.43-3.43A25.07,25.07,0,0,1,336,278.57Z" style="fill:#263238"></path><path d="M272.81,331.36l71.88,2.54a21.45,21.45,0,0,1,20.68,21.76l-3,102.66-27.77-.92,2.07-96.12-63.87-1.68Z" style="fill:#263238"></path><path d="M243.11,331.36,315,333.9a21.45,21.45,0,0,1,20.68,21.76l-3,102.66-28.14-2.23L307,361.28l-63.87-1.68Z" style="fill:#263238"></path><rect x="289.84" y="368.65" width="7.07" height="84.71" style="fill:#455a64"></rect><path d="M230.51,286.43v62.36a14.81,14.81,0,0,0,14.81,14.81h41.53V286.43a6.6,6.6,0,0,0-6.6-6.6H237.11A6.6,6.6,0,0,0,230.51,286.43Z" style="fill:#455a64"></path><path d="M342.73,368.65H241.61a11,11,0,0,1,11-11h79.17a11,11,0,0,1,11,11Z" style="fill:#455a64"></path><path d="M286.85,356.22a3.06,3.06,0,0,1,0,.48,6.42,6.42,0,0,1-.17,1.36,7.47,7.47,0,0,1-5.92,5.63,28.9,28.9,0,0,1-4,.15l-9.09,0c-6.45,0-12.29,0-16.51-.06l-5-.07-1.36-.05a2.7,2.7,0,0,1-.48-.05,1.58,1.58,0,0,1,.48-.06l1.36-.05,5-.09c4.22-.05,10.06-.08,16.51-.09h9.08a31.2,31.2,0,0,0,3.93-.09,7.2,7.2,0,0,0,3.06-1.3,7.33,7.33,0,0,0,2.73-4C286.82,356.88,286.79,356.22,286.85,356.22Z" style="fill:#263238"></path><path d="M299.58,368.87a36.5,36.5,0,0,1-6.21.26,36.42,36.42,0,0,1-6.2-.26,37.7,37.7,0,0,1,6.2-.26A37.78,37.78,0,0,1,299.58,368.87Z" style="fill:#263238"></path><path d="M330.34,364.14a16.92,16.92,0,0,1-.62-3c-.34-1.92-.79-4.71-1.33-8.15s-.91-7.61-2.81-11.74a28.46,28.46,0,0,0-3.75-6,27.27,27.27,0,0,0-5.64-5.08,25,25,0,0,0-6.84-3.29,25.85,25.85,0,0,0-7-1.21c-4.57-.1-8.75-.08-12.23-.15s-6.31-.1-8.26-.16a16.19,16.19,0,0,1-3-.21,16.93,16.93,0,0,1,3-.2c1.95-.06,4.77-.12,8.26-.16s7.62-.13,12.26-.07a26.73,26.73,0,0,1,14.36,4.59,27.23,27.23,0,0,1,5.84,5.29,28.73,28.73,0,0,1,3.85,6.26c.23.53.42,1.08.63,1.61l.3.8c.07.27.15.54.22.81.15.53.3,1.06.44,1.58s.19,1.05.29,1.56c.35,2.05.54,3.93.78,5.67.44,3.45.79,6.26,1,8.19A17,17,0,0,1,330.34,364.14Z" style="fill:#455a64"></path><path d="M324.3,461h-1a30.09,30.09,0,1,0-60.17,0h-1a31.09,31.09,0,1,1,62.17,0Z" style="fill:#455a64"></path><path d="M267.29,462.58a4.66,4.66,0,1,1-4.66-4.66A4.65,4.65,0,0,1,267.29,462.58Z" style="fill:#263238"></path><path d="M328.69,461.94a4.66,4.66,0,1,1-4.66-4.66A4.66,4.66,0,0,1,328.69,461.94Z" style="fill:#263238"></path><path d="M324,453.36c0,.15-13.53.27-30.21.27s-30.21-.12-30.21-.27,13.52-.26,30.21-.26S324,453.22,324,453.36Z" style="fill:#455a64"></path></g><g id="freepik--Plants--inject-23"><path d="M220.8,258.77a6.53,6.53,0,0,1,2.9,4.17,11.53,11.53,0,0,1-.16,5.19c-.76,3.28-3,6.42-5.4,8.84-2.51-2.77-2.66-7.11-2.6-9.32.1-3.49,2.41-9.74,5.26-8.88" style="fill:#3B3355"></path><path d="M220.76,282.85a5.54,5.54,0,0,1,2.39-5,7.38,7.38,0,0,1,5.59-1.06,3.1,3.1,0,0,1,2.24,1.34,2.37,2.37,0,0,1-.24,2.39,4.73,4.73,0,0,1-2,1.53c-2.61,1.24-5.36,2-8,.82" style="fill:#3B3355"></path><path d="M216.54,290.17a10.78,10.78,0,0,1,.64-2.14,9.93,9.93,0,0,1,1.11-2.17,21.22,21.22,0,0,1,1.74-2.41,11.09,11.09,0,0,1,4.36-3.18,8.26,8.26,0,0,1,1.59-.41,1.83,1.83,0,0,1,.6,0c0,.07-.84.16-2.09.69a11.86,11.86,0,0,0-4.17,3.18,24,24,0,0,0-1.74,2.35,11.45,11.45,0,0,0-1.16,2.08A15.38,15.38,0,0,1,216.54,290.17Z" style="fill:#263238"></path><path d="M219.46,263.68a5.72,5.72,0,0,1,0,1.13c0,.72-.1,1.77-.19,3.06-.19,2.59-.5,6.16-.92,10.1s-.92,7.48-1.33,10c-.21,1.28-.38,2.31-.52,3a6.56,6.56,0,0,1-.25,1.1,5.85,5.85,0,0,1,.1-1.13c.11-.78.24-1.81.4-3,.34-2.57.79-6.12,1.22-10.06s.76-7.43,1-10.07c.13-1.24.24-2.27.32-3.06A7.44,7.44,0,0,1,219.46,263.68Z" style="fill:#263238"></path><path d="M216.38,283.64a13,13,0,0,0-7.28-9.35c-1-.43-2.19-.7-2.95,0s-.56,2-.16,2.95a11.06,11.06,0,0,0,10.33,6.65" style="fill:#3B3355"></path><path d="M209.83,277.27a1.89,1.89,0,0,1,.53.26,16.94,16.94,0,0,1,5.17,4.6,9.18,9.18,0,0,1,1.21,2.7,9,9,0,0,1,.27,2.4,8.86,8.86,0,0,1-.19,1.61,2.17,2.17,0,0,1-.16.58c-.08,0,.1-.85.08-2.19a10,10,0,0,0-.33-2.31,9.48,9.48,0,0,0-1.2-2.58,16.42,16.42,0,0,0-3.65-3.73A17.7,17.7,0,0,1,209.83,277.27Z" style="fill:#263238"></path><path d="M216.05,315.36h0a12.51,12.51,0,0,1-12.5-12.51v-12.5h25v12.5A12.51,12.51,0,0,1,216.05,315.36Z" style="fill:#263238"></path><path d="M228.56,296.5a2.35,2.35,0,0,1-.34.35l-1,.93L223.41,301l-.09.07-.11-.06L216,296.68h.21L209.42,301l-.1.07-.1-.08-4.15-3.25-1.14-.92a2.1,2.1,0,0,1-.38-.36,1.72,1.72,0,0,1,.45.27c.32.23.72.52,1.2.85l4.23,3.14h-.2l6.71-4.42.11-.07.11.06h0l7.21,4.42h-.2l3.87-3.13,1.09-.86C228.41,296.58,228.55,296.48,228.56,296.5Z" style="fill:#e0e0e0"></path><path d="M228.56,294a2.35,2.35,0,0,1-.34.35l-1,.93-3.77,3.25-.09.07-.11-.06L216,294.18h.21l-6.75,4.37-.1.07-.1-.08-4.15-3.25-1.14-.92a2.1,2.1,0,0,1-.38-.36,1.72,1.72,0,0,1,.45.27l1.2.85,4.23,3.14h-.2l6.71-4.42.11-.07.11.06h0l7.21,4.42h-.2l3.87-3.13,1.09-.86C228.41,294.08,228.55,294,228.56,294Z" style="fill:#e0e0e0"></path><path d="M228.56,299s-.11.14-.34.36l-1,.92-3.77,3.25-.09.08-.11-.07L216,299.23h.21l-6.75,4.37-.1.07-.1-.07c-1.67-1.32-3.08-2.42-4.15-3.25l-1.14-.93c-.26-.22-.39-.34-.38-.36a2.18,2.18,0,0,1,.45.27c.32.24.72.52,1.2.86l4.23,3.13h-.2l6.71-4.42.11-.07.11.07h0l7.21,4.41-.2,0,3.87-3.14,1.09-.85A1.93,1.93,0,0,1,228.56,299Z" style="fill:#e0e0e0"></path><path d="M552.56,344.72c-5.18.84-7.5,7.2-7,12.43s2.61,10.35,2,15.56c-.73,6.63-5.74,12.23-6.32,18.87-.69,7.83,4.85,14.78,6.5,22.46.81,3.74.7,7.7,2.09,11.26A14.07,14.07,0,0,0,577,420.44c.11-6-3.6-11.67-3.15-17.67.33-4.43,2.93-8.63,2.38-13-.67-5.25-5.53-9-7.25-14s-.06-10.52-.66-15.78c-1.06-9.43-6.29-16-15.75-15.25" style="fill:#3B3355"></path><path d="M526.1,390.39c-.89,8.74,3,19,7.47,26.57a41.66,41.66,0,0,0,19.57,17c.91.38,2.05.7,2.82.08a2.79,2.79,0,0,0,.71-2.24,42.89,42.89,0,0,0-30.57-41.39" style="fill:#3B3355"></path><g style="opacity:0.2"><path d="M526.1,390.39c-.89,8.74,3,19,7.47,26.57a41.66,41.66,0,0,0,19.57,17c.91.38,2.05.7,2.82.08a2.79,2.79,0,0,0,.71-2.24,42.89,42.89,0,0,0-30.57-41.39"></path></g><path d="M564.17,452.21a2,2,0,0,1-.25-.48l-.63-1.44c-.52-1.24-1.31-3-2.31-5.25a186.15,186.15,0,0,0-8.67-16.79,188.79,188.79,0,0,0-10.38-15.81c-1.43-1.95-2.61-3.52-3.44-4.59-.38-.5-.7-.92-.94-1.25a2.76,2.76,0,0,1-.31-.45s.15.12.38.39l1,1.19c.88,1,2.1,2.57,3.57,4.5A158.18,158.18,0,0,1,561.3,444.9c1,2.23,1.7,4.05,2.17,5.32l.54,1.47A3.05,3.05,0,0,1,564.17,452.21Z" style="fill:#263238"></path><path d="M558.54,368.9a5.17,5.17,0,0,1,.1.84c0,.59.1,1.39.17,2.41.14,2.13.33,5.15.57,8.85.47,7.48,1.13,17.81,1.94,29.21s1.59,21.73,2.17,29.2c.28,3.7.51,6.71.68,8.85.07,1,.12,1.81.16,2.4a5,5,0,0,1,0,.85s-.05-.29-.12-.84-.15-1.39-.26-2.4c-.2-2.13-.48-5.14-.83-8.83-.67-7.47-1.52-17.78-2.32-29.19S559.41,388.51,559,381c-.17-3.71-.31-6.72-.41-8.86,0-1-.06-1.82-.08-2.42A4.47,4.47,0,0,1,558.54,368.9Z" style="fill:#263238"></path><path d="M550.5,439.75h21.89v16.07a10.51,10.51,0,0,1-10.51,10.5h0a10.5,10.5,0,0,1-10.49-9.94Z" style="fill:#263238"></path></g><g id="freepik--Lamp--inject-23"><polyline points="439.64 227.89 491.84 256.8 489.88 260.48 438.14 231.03 439.64 227.89" style="fill:#3B3355"></polyline><polygon points="437.07 225.16 439.47 221.49 440.87 222.35 438.72 226.05 437.07 225.16" style="fill:#3B3355"></polygon><polygon points="485.91 252.23 488.59 253.77 479.85 309.55 475.71 309.6 485.91 252.23" style="fill:#3B3355"></polygon><path d="M463.68,315.36s6.37-6.44,14.89-6a18.48,18.48,0,0,1,12.9,5.93Z" style="fill:#3B3355"></path><path d="M437.12,250.45l-20.67-11.94,6-10.33a11.93,11.93,0,0,1,16.3-4.37h0a11.94,11.94,0,0,1,4.37,16.3Z" style="fill:#3B3355"></path></g></svg>