<svg version="1.1" id="Layer_1" xmlns="http://www.w3.org/2000/svg" xmlns:xlink="http://www.w3.org/1999/xlink" x="0px" y="0px" width="100%" viewBox="0 0 363 363" enable-background="new 0 0 363 363" xml:space="preserve">

<path fill="#874BA4" opacity="1.000000" stroke="none" d="
M199.150436,15.087328 
	C207.788879,16.899302 216.447083,18.623175 225.058640,20.554987 
	C230.573914,21.792215 236.193497,22.875254 241.456802,24.851665 
	C249.214798,27.764856 256.972412,30.909103 264.225433,34.877480 
	C272.865936,39.604992 281.675690,44.477585 289.136566,50.794010 
	C298.897949,59.058094 307.407166,68.800560 316.461212,77.900925 
	C326.401886,87.892410 332.873810,100.209633 338.770935,112.705048 
	C342.694153,121.018013 344.891144,130.131744 348.109070,138.794846 
	C352.750427,151.289948 353.384399,164.300232 354.132690,177.425934 
	C354.876923,190.481201 353.565948,203.166580 351.203308,215.973312 
	C346.972168,238.908386 337.967285,259.543518 324.926331,278.855164 
	C314.290344,294.605438 301.068573,307.614105 286.747192,319.751617 
	C286.142029,320.264496 285.314240,320.514648 283.909027,320.933350 
	C282.425415,319.822235 281.421692,318.755371 280.854462,317.492462 
	C277.993439,311.122894 275.494812,304.579254 272.401703,298.327911 
	C267.531738,288.485413 261.049042,279.913513 251.396164,274.157898 
	C242.965820,269.131256 234.475555,264.198669 226.170364,258.972473 
	C223.599792,257.354889 221.343094,255.095276 219.300674,252.809723 
	C214.106430,246.997131 209.114517,241.003754 204.053940,234.668030 
	C204.252197,232.621429 204.438156,230.989517 204.853485,229.376816 
	C205.395538,229.389465 205.702377,229.343750 206.286133,229.361542 
	C207.760254,229.333817 208.951645,229.203415 210.595581,229.118103 
	C213.867096,229.104736 216.696320,229.179886 219.503189,228.964066 
	C230.098495,228.149277 234.964996,224.161148 238.088287,214.052841 
	C239.213593,210.410812 240.439270,206.794113 241.771912,203.222870 
	C246.790421,189.774063 250.332092,176.015198 251.166626,161.529526 
	C258.189392,161.038483 263.631348,158.627686 266.024902,151.940536 
	C267.303101,148.369476 268.549103,144.650055 268.906525,140.911255 
	C270.112671,128.295471 267.533905,125.272926 255.014679,123.567070 
	C254.024857,123.432198 253.034683,123.299988 251.905487,122.930557 
	C251.566589,122.186348 251.366867,121.678131 251.368408,120.866928 
	C251.271973,118.520950 250.974274,116.477943 250.683670,114.017441 
	C247.727173,104.348923 244.763596,95.097908 241.904114,85.453079 
	C244.337662,71.734711 241.470093,59.689682 231.725052,50.185429 
	C217.975571,36.775684 200.568771,33.322342 182.288040,35.253178 
	C170.449799,36.503548 158.702133,39.404221 147.167526,42.508049 
	C136.158630,45.470417 126.981476,51.614666 120.573273,61.518154 
	C118.396271,64.882568 115.052269,67.468842 112.594292,70.680656 
	C109.919044,74.176361 106.512703,77.674423 105.410278,81.713318 
	C100.974892,97.962997 102.360825,114.332817 105.932297,130.868469 
	C104.359436,135.985046 101.464638,140.946732 101.892357,145.603241 
	C102.364128,150.739304 105.224426,156.048187 108.247566,160.456650 
	C111.882790,165.757660 116.786545,170.188751 121.108307,175.360291 
	C123.772041,180.481140 126.468536,185.238205 129.181580,190.463821 
	C129.095810,197.308929 128.993484,203.685486 128.523224,210.148804 
	C123.601120,211.957413 117.629227,212.425491 114.776184,215.651688 
	C108.007889,223.305283 102.597321,232.186447 96.923149,240.760193 
	C95.640533,242.698227 95.519798,245.405212 94.879616,247.786591 
	C94.895004,247.814926 94.856873,247.803833 94.486465,247.823975 
	C76.092995,258.303894 58.069935,268.763672 40.046867,279.223419 
	C29.808350,264.763428 22.122370,248.989685 17.513584,231.945938 
	C14.846710,222.083588 13.352601,211.840439 12.124387,201.672791 
	C11.134947,193.481827 11.223758,185.149628 11.033318,176.875504 
	C10.679714,161.512299 13.649870,146.564377 18.127340,132.033997 
	C22.485712,117.890129 28.629343,104.274498 37.070198,92.115677 
	C46.927891,77.915947 57.742184,64.557137 71.475227,53.457733 
	C82.511795,44.537689 94.286789,37.073975 106.835709,31.018993 
	C116.189842,26.505539 126.589851,24.104673 136.611755,21.050707 
	C142.661682,19.207121 148.864105,17.849428 155.027527,16.398767 
	C158.349045,15.616990 161.732712,15.099311 165.797318,14.587893 
	C177.387665,14.837982 188.269058,14.962655 199.150436,15.087328 
z" data-index="1" style="opacity: 1;"></path>
<path fill="#B69E7D" opacity="1.000000" stroke="none" d="
M94.864227,247.758240 
	C95.519798,245.405212 95.640533,242.698227 96.923149,240.760193 
	C102.597321,232.186447 108.007889,223.305283 114.776184,215.651688 
	C117.629227,212.425491 123.601120,211.957413 128.540482,210.577042 
	C125.914856,221.969116 130.442093,230.508041 136.891525,239.239227 
	C145.851196,251.368729 153.563782,264.419434 162.121857,277.197754 
	C162.640625,277.236908 162.847778,277.154022 163.054962,277.026001 
	C163.054993,276.980896 162.964722,276.980469 162.816544,277.326996 
	C163.441635,278.936768 164.255554,280.177155 164.981522,281.467041 
	C169.519547,289.529938 174.918228,297.246368 178.372513,305.751495 
	C184.797958,321.572144 190.086624,337.854492 195.848526,353.944641 
	C182.157745,356.865906 168.543839,354.055115 155.011612,352.793396 
	C146.935181,352.040405 139.106735,348.704071 131.147217,346.603271 
	C118.681252,343.313110 107.178467,337.790192 96.331955,331.000824 
	C88.600220,326.161163 80.964561,321.030365 73.939186,315.237396 
	C66.461349,309.071289 59.514252,302.201233 52.791782,295.200348 
	C48.241356,290.461456 44.479416,284.965424 40.205849,279.515747 
	C58.069935,268.763672 76.092995,258.303894 94.532181,248.245102 
	C95.916565,251.992813 96.559204,255.477081 97.905457,258.664154 
	C107.288345,280.877014 116.784966,303.042114 126.324280,325.188385 
	C128.395584,329.997101 129.953323,330.539459 134.311737,327.636841 
	C143.436951,321.559631 152.277100,315.047729 161.499527,309.127533 
	C164.057648,307.485413 167.524323,307.192566 170.621765,306.490845 
	C171.777817,306.228943 173.069763,306.566833 174.908646,306.663086 
	C169.950165,302.587463 165.566711,302.186035 160.854080,305.257629 
	C152.494705,310.706055 144.195450,316.248169 135.924622,321.830444 
	C130.849350,325.255951 130.544968,325.358368 127.973106,319.784180 
	C118.705345,299.697266 109.573601,279.547607 100.370544,259.430786 
	C98.580971,255.518951 96.701973,251.648026 94.864227,247.758240 
z" data-index="2" style="opacity: 1;"></path>
<path fill="#B69D7E" opacity="1.000000" stroke="none" d="
M204.041626,235.082733 
	C209.114517,241.003754 214.106430,246.997131 219.300674,252.809723 
	C221.343094,255.095276 223.599792,257.354889 226.170364,258.972473 
	C234.475555,264.198669 242.965820,269.131256 251.396164,274.157898 
	C261.049042,279.913513 267.531738,288.485413 272.401703,298.327911 
	C275.494812,304.579254 277.993439,311.122894 280.854462,317.492462 
	C281.421692,318.755371 282.425415,319.822235 283.578430,321.065308 
	C278.394043,324.534485 272.924469,328.031189 267.306244,331.270050 
	C261.445404,334.648804 255.609116,338.153198 249.453217,340.913849 
	C243.178192,343.727844 236.600006,345.939911 230.016190,347.965851 
	C225.408585,349.383728 220.568451,350.045898 215.264008,350.756104 
	C212.469849,331.998840 210.500946,313.495056 207.921661,295.076782 
	C206.368805,283.987946 207.018417,272.354462 200.876312,261.812317 
	C201.131729,255.916199 201.463364,250.404343 201.886917,244.514435 
	C202.666428,241.118515 203.354034,238.100632 204.041626,235.082733 
M244.189148,294.318512 
	C239.652191,285.382568 235.300903,276.336273 229.258682,268.271820 
	C229.178772,269.985931 229.685303,271.368042 230.334900,272.679291 
	C234.912537,281.919647 239.575592,291.118408 244.055588,300.405609 
	C244.711197,301.764709 244.539810,303.522736 244.751083,305.096161 
	C243.164566,305.272278 241.522629,305.796204 240.002792,305.553955 
	C236.563080,305.005676 233.214493,303.874817 229.772324,303.355530 
	C224.742279,302.596680 221.082733,304.869232 218.451706,309.235413 
	C225.174225,305.621277 231.801620,307.752991 238.438400,308.987213 
	C241.214996,309.503540 244.023270,309.857391 246.824081,310.233337 
	C250.145264,310.679138 251.311081,309.148285 250.008789,306.172180 
	C248.345230,302.370575 246.367599,298.706421 244.189148,294.318512 
M225.765335,263.712402 
	C226.162323,264.085236 226.559326,264.458099 226.956329,264.830933 
	C227.032791,264.551941 227.242950,264.082092 227.163132,264.026154 
	C226.763977,263.746460 226.288788,263.575348 225.765335,263.712402 
z" data-index="3" style="opacity: 1;"></path>
<path fill="#333230" opacity="1.000000" stroke="none" d="
M200.952560,262.196564 
	C207.018417,272.354462 206.368805,283.987946 207.921661,295.076782 
	C210.500946,313.495056 212.469849,331.998840 214.842834,350.860779 
	C208.852631,352.177612 202.715454,353.100250 196.213409,353.983765 
	C190.086624,337.854492 184.797958,321.572144 178.372513,305.751495 
	C174.918228,297.246368 169.519547,289.529938 164.981522,281.467041 
	C164.255554,280.177155 163.441635,278.936768 163.201019,277.333160 
	C171.566589,280.187714 179.683746,281.640564 188.145615,280.964325 
	C195.974060,280.338776 199.923462,276.380188 200.473022,268.628540 
	C200.625061,266.484009 200.792297,264.340515 200.952560,262.196564 
z" data-index="4" style="opacity: 1;"></path>
<path fill="#B194BF" opacity="1.000000" stroke="none" d="
M198.928070,14.694661 
	C188.269058,14.962655 177.387665,14.837982 166.160049,14.448718 
	C176.777771,14.223416 187.741730,14.262705 198.928070,14.694661 
z" data-index="5"></path>
<path fill="#A87F63" opacity="1.000000" stroke="none" d="
M200.876312,261.812317 
	C200.792297,264.340515 200.625061,266.484009 200.473022,268.628540 
	C199.923462,276.380188 195.974060,280.338776 188.145615,280.964325 
	C179.683746,281.640564 171.566589,280.187714 163.349197,276.986633 
	C162.964722,276.980469 163.054993,276.980896 162.932220,276.887085 
	C162.476379,276.887421 162.143295,276.981598 161.810226,277.075775 
	C153.563782,264.419434 145.851196,251.368729 136.891525,239.239227 
	C130.442093,230.508041 125.914856,221.969116 128.908417,210.490265 
	C128.993484,203.685486 129.095810,197.308929 129.305405,190.082550 
	C129.505615,187.442337 129.698929,185.650574 129.674240,183.861832 
	C129.563660,175.854599 129.213379,175.514984 121.141083,174.996490 
	C116.786545,170.188751 111.882790,165.757660 108.247566,160.456650 
	C105.224426,156.048187 102.364128,150.739304 101.892357,145.603241 
	C101.464638,140.946732 104.359436,135.985046 106.299591,130.740662 
	C111.944298,127.427849 117.248703,126.346977 123.194534,129.014038 
	C124.405579,129.572830 125.307808,129.935440 126.410629,130.535767 
	C129.531403,135.448303 132.778671,139.959000 135.240097,144.864029 
	C136.561050,147.496338 138.196396,148.667175 140.543259,147.727875 
	C141.916000,147.178436 143.331497,145.180389 143.566208,143.655273 
	C144.114349,140.093323 143.961197,136.423416 144.474396,132.649963 
	C152.804642,132.622330 160.755142,132.652893 168.699875,132.882919 
	C180.013046,133.210495 179.774765,133.301620 181.132111,144.534851 
	C181.821259,150.238266 182.680908,156.362411 189.969528,158.574158 
	C196.050125,162.844910 202.271561,162.677429 206.022568,158.270447 
	C206.216614,157.959473 206.401276,157.899155 206.912079,158.120850 
	C209.488525,157.279388 212.166092,156.715363 213.981110,155.150757 
	C219.198929,150.652847 221.711639,144.547089 222.972122,137.873856 
	C223.748322,133.764465 225.985489,132.128922 229.954727,134.140594 
	C230.893036,137.301865 231.966827,140.152344 233.013367,142.995544 
	C232.986115,142.988297 233.025345,142.947784 233.055695,143.322937 
	C235.130051,148.341248 237.378342,152.907394 239.165207,157.647491 
	C241.287842,163.278320 239.996094,166.370636 234.613846,168.916534 
	C230.325180,168.094070 226.358612,166.947632 222.823654,170.489502 
	C223.473297,171.100525 223.763504,171.608139 224.152267,171.700378 
	C226.369141,172.226303 228.609512,172.653259 231.153336,173.259552 
	C236.357788,174.102478 239.105759,170.879013 241.322891,167.450775 
	C242.791061,165.180588 243.307922,162.295181 244.619598,159.711319 
	C246.613678,160.153107 248.238800,160.568771 250.014008,161.090927 
	C250.354614,161.346832 250.558594,161.474869 250.775986,161.581528 
	C250.332092,176.015198 246.790421,189.774063 241.771912,203.222870 
	C240.439270,206.794113 239.213593,210.410812 238.088287,214.052841 
	C234.964996,224.161148 230.098495,228.149277 219.503189,228.964066 
	C216.696320,229.179886 213.867096,229.104736 210.270706,228.950714 
	C208.324051,228.500275 207.154831,228.262299 205.586716,227.988113 
	C191.407547,223.104019 177.441452,218.716766 163.907959,213.257172 
	C153.751511,209.159927 146.107910,201.731598 141.637436,191.413101 
	C140.918060,189.752716 139.752808,188.285507 138.793655,186.728989 
	C138.286240,186.993881 137.778809,187.258774 137.271378,187.523666 
	C139.198761,192.009125 141.126144,196.494583 143.132019,201.328766 
	C150.346298,217.175522 162.281219,228.154984 176.613586,236.751373 
	C184.332062,241.380829 192.413666,245.239883 201.795013,244.892471 
	C201.463364,250.404343 201.131729,255.916199 200.876312,261.812317 
M124.156502,158.697617 
	C125.431168,160.079956 126.705833,161.462311 127.980492,162.844650 
	C128.426437,162.313843 128.872391,161.783035 129.318329,161.252228 
	C127.565071,160.150360 125.811821,159.048477 124.044922,157.164978 
	C124.541702,155.455002 124.572411,153.345245 125.627991,152.114563 
	C128.173157,149.147202 128.000778,146.257751 125.881165,143.531372 
	C123.878448,140.955353 121.711510,138.084503 118.940025,136.660706 
	C116.672318,135.495712 112.919846,135.299774 110.702454,136.416031 
	C107.514664,138.020813 105.843689,141.487503 106.838814,146.574219 
	C107.833824,144.782272 108.433876,143.896790 108.844040,142.930664 
	C111.163246,137.467865 113.655693,136.066147 117.698586,138.019302 
	C122.935822,140.549454 125.948761,147.243805 123.524605,151.084198 
	C121.967827,153.550461 121.140434,155.897568 124.156502,158.697617 
M215.825790,190.076355 
	C214.021133,190.512100 212.216476,190.947845 210.411819,191.383591 
	C210.491196,191.773209 210.570572,192.162842 210.649948,192.552460 
	C219.276001,191.891708 227.902054,191.230972 236.528091,190.570221 
	C229.970993,187.953644 223.313141,189.070694 215.825790,190.076355 
z" data-index="6" style="opacity: 1;"></path>
<path fill="#252424" opacity="1.000000" stroke="none" d="
M122.885727,128.817886 
	C117.248703,126.346977 111.944298,127.427849 106.442543,130.451202 
	C102.360825,114.332817 100.974892,97.962997 105.410278,81.713318 
	C106.512703,77.674423 109.919044,74.176361 112.594292,70.680656 
	C115.052269,67.468842 118.396271,64.882568 120.573273,61.518154 
	C126.981476,51.614666 136.158630,45.470417 147.167526,42.508049 
	C158.702133,39.404221 170.449799,36.503548 182.288040,35.253178 
	C200.568771,33.322342 217.975571,36.775684 231.725052,50.185429 
	C241.470093,59.689682 244.337662,71.734711 241.669525,85.228241 
	C239.290421,81.967506 237.435226,78.404564 235.113327,75.177399 
	C234.253250,73.982002 232.011276,72.622086 230.885712,72.959427 
	C221.712326,75.708771 212.755798,73.276520 203.667694,72.613174 
	C193.762100,71.890152 183.660049,71.289909 173.849335,72.420731 
	C158.059830,74.240700 156.112839,76.761581 159.821686,92.110916 
	C162.163025,101.800659 159.689636,108.237106 152.599579,114.266594 
	C148.252304,117.963593 144.907608,122.606163 144.234055,128.811066 
	C136.835175,128.858627 129.860443,128.838257 122.885727,128.817886 
z" data-index="7"></path>
<path fill="#A67E62" opacity="1.000000" stroke="none" d="
M144.658218,128.743149 
	C144.907608,122.606163 148.252304,117.963593 152.599579,114.266594 
	C159.689636,108.237106 162.163025,101.800659 159.821686,92.110916 
	C156.112839,76.761581 158.059830,74.240700 173.849335,72.420731 
	C183.660049,71.289909 193.762100,71.890152 203.667694,72.613174 
	C212.755798,73.276520 221.712326,75.708771 230.885712,72.959427 
	C232.011276,72.622086 234.253250,73.982002 235.113327,75.177399 
	C237.435226,78.404564 239.290421,81.967506 241.565399,85.622055 
	C244.763596,95.097908 247.727173,104.348923 250.276031,113.967529 
	C247.071915,114.554230 244.285843,114.883163 241.492386,114.967766 
	C236.810623,115.109558 234.078735,117.138306 233.611328,122.107971 
	C227.151993,122.360023 221.160767,122.590431 215.236267,122.484879 
	C217.601303,116.177147 217.381973,115.328232 211.091980,114.122261 
	C203.921356,112.747437 196.655624,111.725403 189.384537,111.061852 
	C183.297562,110.506386 179.496460,114.952789 175.282379,118.647949 
	C184.903763,116.241707 194.195938,116.537910 203.113571,120.202583 
	C200.575256,121.076004 198.274002,121.644516 195.580963,122.212936 
	C190.239380,122.568451 186.009171,124.191711 182.311874,127.817635 
	C180.800842,129.299500 177.802368,129.868439 175.496628,129.832230 
	C165.214005,129.670654 154.937149,129.140274 144.658218,128.743149 
z" data-index="8"></path>
<path fill="#996F54" opacity="1.000000" stroke="none" d="
M201.886917,244.514435 
	C192.413666,245.239883 184.332062,241.380829 176.613586,236.751373 
	C162.281219,228.154984 150.346298,217.175522 143.438202,201.454407 
	C146.722443,204.003220 149.471588,207.248856 152.888168,209.465988 
	C168.702454,219.728607 186.053802,226.172043 204.624115,229.357620 
	C204.438156,230.989517 204.252197,232.621429 204.053940,234.668030 
	C203.354034,238.100632 202.666428,241.118515 201.886917,244.514435 
z" data-index="9"></path>
<path fill="#A39993" opacity="1.000000" stroke="none" d="
M215.169556,122.820839 
	C221.160767,122.590431 227.151993,122.360023 233.882141,122.351456 
	C236.720947,122.359581 238.818115,122.113121 240.921295,121.939560 
	C244.334518,121.657883 247.751663,121.423981 251.167160,121.169907 
	C251.366867,121.678131 251.566589,122.186348 251.881378,123.252441 
	C251.980026,124.242889 251.963577,124.675453 251.575958,125.166016 
	C250.458496,125.299599 249.712204,125.375191 248.573563,125.389717 
	C246.861877,125.409401 245.528076,125.392944 244.225571,125.586792 
	C236.270279,126.770760 234.680786,128.632309 234.737991,136.642838 
	C234.753403,138.797089 234.847626,140.950790 234.593246,143.063400 
	C233.862320,142.997299 233.443832,142.972534 233.025345,142.947784 
	C233.025345,142.947784 232.986115,142.988297 233.009033,142.612289 
	C232.051376,139.434113 231.070801,136.631958 230.090210,133.829803 
	C225.985489,132.128922 223.748322,133.764465 222.972122,137.873856 
	C221.711639,144.547089 219.198929,150.652847 213.981110,155.150757 
	C212.166092,156.715363 209.488525,157.279388 207.176590,157.872070 
	C208.744080,156.267487 210.562485,155.300415 211.897766,153.879364 
	C218.199982,147.172256 222.959702,139.863815 219.931244,129.653778 
	C217.932663,128.104584 216.034302,126.884621 213.798248,125.480209 
	C211.679276,125.016891 209.898010,124.738022 207.733505,124.351227 
	C204.891418,124.301170 202.432556,124.359039 199.580292,124.346298 
	C198.127029,124.179985 197.067184,124.084297 196.002594,123.691895 
	C195.989502,123.001129 195.981125,122.607071 195.972748,122.213028 
	C198.274002,121.644516 200.575256,121.076004 203.459213,120.219948 
	C207.751129,120.895210 211.460342,121.858025 215.169556,122.820839 
M233.956757,127.770691 
	C233.603378,123.098488 229.960754,125.428268 227.839935,125.200722 
	C226.124741,125.016685 224.222061,126.093750 222.529434,126.883392 
	C222.345535,126.969170 223.062195,129.787033 223.261948,129.774353 
	C226.763382,129.552185 230.766617,132.631348 233.956757,127.770691 
z" data-index="10"></path>
<path fill="#91684C" opacity="1.000000" stroke="none" d="
M204.853485,229.376816 
	C186.053802,226.172043 168.702454,219.728607 152.888168,209.465988 
	C149.471588,207.248856 146.722443,204.003220 143.359695,201.105682 
	C141.126144,196.494583 139.198761,192.009125 137.271378,187.523666 
	C137.778809,187.258774 138.286240,186.993881 138.793655,186.728989 
	C139.752808,188.285507 140.918060,189.752716 141.637436,191.413101 
	C146.107910,201.731598 153.751511,209.159927 163.907959,213.257172 
	C177.441452,218.716766 191.407547,223.104019 205.590576,228.296631 
	C205.996674,228.847183 206.000031,229.053009 206.003403,229.258850 
	C205.702377,229.343750 205.395538,229.389465 204.853485,229.376816 
z" data-index="11"></path>
<path fill="#9E90A4" opacity="1.000000" stroke="none" d="
M251.947128,125.108025 
	C251.963577,124.675453 251.980026,124.242889 252.020569,123.488426 
	C253.034683,123.299988 254.024857,123.432198 255.014679,123.567070 
	C267.533905,125.272926 270.112671,128.295471 268.906525,140.911255 
	C268.549103,144.650055 267.303101,148.369476 266.024902,151.940536 
	C263.631348,158.627686 258.189392,161.038483 251.166626,161.529526 
	C250.558594,161.474869 250.354614,161.346832 250.174255,160.806091 
	C250.794373,160.218597 251.404312,160.022415 252.382416,159.874176 
	C257.958893,158.354507 263.015564,156.075790 264.520111,150.480911 
	C265.949036,145.167145 266.134125,139.518875 266.887756,133.682404 
	C266.063873,131.849854 265.218445,130.352585 264.194397,128.559128 
	C262.351532,127.598877 260.687225,126.934814 258.638306,126.133018 
	C256.151489,125.699532 254.049301,125.403778 251.947128,125.108025 
z" data-index="12"></path>
<path fill="#332D2B" opacity="1.000000" stroke="none" d="
M251.368408,120.866936 
	C247.751663,121.423981 244.334518,121.657883 240.921295,121.939560 
	C238.818115,122.113121 236.720947,122.359581 234.350266,122.329811 
	C234.078735,117.138306 236.810623,115.109558 241.492386,114.967766 
	C244.285843,114.883163 247.071915,114.554230 250.268951,114.385040 
	C250.974274,116.477943 251.271973,118.520950 251.368408,120.866936 
z" data-index="13"></path>
<path fill="#372C30" opacity="1.000000" stroke="none" d="
M121.108307,175.360291 
	C129.213379,175.514984 129.563660,175.854599 129.674240,183.861832 
	C129.698929,185.650574 129.505615,187.442337 129.288849,189.613983 
	C126.468536,185.238205 123.772041,180.481140 121.108307,175.360291 
z" data-index="14"></path>
<path fill="#996F54" opacity="1.000000" stroke="none" d="
M206.286133,229.361542 
	C206.000031,229.053009 205.996674,228.847183 205.989456,228.332855 
	C207.154831,228.262299 208.324051,228.500275 209.818146,228.905624 
	C208.951645,229.203415 207.760254,229.333817 206.286133,229.361542 
z" data-index="15"></path>
<path fill="#9E8665" opacity="1.000000" stroke="none" d="
M94.879623,247.786591 
	C96.701973,251.648026 98.580971,255.518951 100.370544,259.430786 
	C109.573601,279.547607 118.705345,299.697266 127.973106,319.784180 
	C130.544968,325.358368 130.849350,325.255951 135.924622,321.830444 
	C144.195450,316.248169 152.494705,310.706055 160.854080,305.257629 
	C165.566711,302.186035 169.950165,302.587463 174.908646,306.663086 
	C173.069763,306.566833 171.777817,306.228943 170.621765,306.490845 
	C167.524323,307.192566 164.057648,307.485413 161.499527,309.127533 
	C152.277100,315.047729 143.436951,321.559631 134.311737,327.636841 
	C129.953323,330.539459 128.395584,329.997101 126.324280,325.188385 
	C116.784966,303.042114 107.288345,280.877014 97.905457,258.664154 
	C96.559204,255.477081 95.916565,251.992813 94.902588,248.224945 
	C94.856873,247.803833 94.895004,247.814926 94.879623,247.786591 
z" data-index="16"></path>
<path fill="#333230" opacity="1.000000" stroke="none" d="
M162.121857,277.197754 
	C162.143295,276.981598 162.476379,276.887421 162.932190,276.932190 
	C162.847778,277.154022 162.640625,277.236908 162.121857,277.197754 
z" data-index="17"></path>
<path fill="#9F8666" opacity="1.000000" stroke="none" d="
M244.357239,294.650757 
	C246.367599,298.706421 248.345230,302.370575 250.008789,306.172180 
	C251.311081,309.148285 250.145264,310.679138 246.824081,310.233337 
	C244.023270,309.857391 241.214996,309.503540 238.438400,308.987213 
	C231.801620,307.752991 225.174225,305.621277 218.451706,309.235413 
	C221.082733,304.869232 224.742279,302.596680 229.772324,303.355530 
	C233.214493,303.874817 236.563080,305.005676 240.002792,305.553955 
	C241.522629,305.796204 243.164566,305.272278 244.751083,305.096191 
	C244.539810,303.522736 244.711197,301.764709 244.055588,300.405609 
	C239.575592,291.118408 234.912537,281.919647 230.334900,272.679291 
	C229.685303,271.368042 229.178772,269.985931 229.258682,268.271820 
	C235.300903,276.336273 239.652191,285.382568 244.357239,294.650757 
z" data-index="18"></path>
<path fill="#9F8666" opacity="1.000000" stroke="none" d="
M225.802826,263.539246 
	C226.288788,263.575348 226.763977,263.746460 227.163132,264.026154 
	C227.242950,264.082092 227.032791,264.551941 226.956329,264.830933 
	C226.559326,264.458099 226.162323,264.085236 225.802826,263.539246 
z" data-index="19"></path>
<path fill="#2F2F2F" opacity="1.000000" stroke="none" d="
M220.031433,129.983032 
	C222.959702,139.863815 218.199982,147.172256 211.897766,153.879364 
	C210.562485,155.300415 208.744080,156.267487 206.883759,157.692505 
	C206.401276,157.899155 206.216614,157.959473 205.649414,158.305359 
	C204.496109,158.571594 203.758682,158.654724 203.076294,158.439056 
	C203.629211,154.634583 201.051117,155.182663 199.205719,154.736542 
	C201.928619,150.303665 204.460602,146.150986 207.260208,142.078110 
	C209.055374,140.884430 210.686127,139.714386 212.088425,138.315353 
	C214.804077,135.606049 217.391098,132.767822 220.031433,129.983032 
z" data-index="20"></path>
<path fill="#A69F99" opacity="1.000000" stroke="none" d="
M195.580963,122.212936 
	C195.981125,122.607071 195.989502,123.001129 195.629089,123.812500 
	C184.290253,126.670563 182.946793,128.294998 183.038666,139.063751 
	C183.061264,141.711853 183.126144,144.359604 183.177765,147.249207 
	C183.345139,147.815125 183.606766,147.975769 184.053925,148.310486 
	C184.196579,149.108749 184.254120,149.569382 184.279816,150.257172 
	C184.414673,150.789703 184.671158,150.925507 185.033142,150.940277 
	C185.048889,150.988800 185.146271,150.958313 185.216034,151.290588 
	C187.227982,153.737534 189.170181,155.852203 190.771362,158.041367 
	C190.206314,158.178680 189.982254,158.241501 189.758194,158.304337 
	C182.680908,156.362411 181.821259,150.238266 181.132111,144.534851 
	C179.774765,133.301620 180.013046,133.210495 168.699875,132.882919 
	C160.755142,132.652893 152.804642,132.622330 144.349060,132.285492 
	C137.964294,131.478241 132.087173,130.888153 126.210045,130.298065 
	C125.307808,129.935440 124.405579,129.572830 123.194534,129.014038 
	C129.860443,128.838257 136.835175,128.858627 144.234055,128.811066 
	C154.937149,129.140274 165.214005,129.670654 175.496628,129.832230 
	C177.802368,129.868439 180.800842,129.299500 182.311874,127.817635 
	C186.009171,124.191711 190.239380,122.568451 195.580963,122.212936 
z" data-index="21"></path>
<path fill="#312D2A" opacity="1.000000" stroke="none" d="
M126.410629,130.535767 
	C132.087173,130.888153 137.964294,131.478241 143.966736,132.432785 
	C143.961197,136.423416 144.114349,140.093323 143.566208,143.655273 
	C143.331497,145.180389 141.916000,147.178436 140.543259,147.727875 
	C138.196396,148.667175 136.561050,147.496338 135.240097,144.864029 
	C132.778671,139.959000 129.531403,135.448303 126.410629,130.535767 
z" data-index="22"></path>
<path fill="#353535" opacity="1.000000" stroke="none" d="
M264.372986,128.855316 
	C265.218445,130.352585 266.063873,131.849854 266.603241,133.847763 
	C261.536194,142.841019 256.775208,151.333618 252.014236,159.826233 
	C251.404312,160.022415 250.794373,160.218597 250.024200,160.699615 
	C248.238800,160.568771 246.613678,160.153107 244.637375,159.420410 
	C244.220856,158.721329 244.155502,158.339264 244.459137,157.928497 
	C246.775864,156.375259 249.420395,155.243881 250.543152,153.253891 
	C254.193878,146.783386 257.206085,139.955994 260.652557,133.364532 
	C261.535980,131.674942 263.114044,130.348572 264.372986,128.855316 
z" data-index="23"></path>
<path fill="#8F6A51" opacity="1.000000" stroke="none" d="
M244.090134,157.957199 
	C244.155502,158.339264 244.220856,158.721329 244.268433,159.394287 
	C243.307922,162.295181 242.791061,165.180588 241.322891,167.450775 
	C239.105759,170.879013 236.357788,174.102478 231.414978,173.039886 
	C232.579224,171.453690 233.793274,170.232880 235.007324,169.012054 
	C239.996094,166.370636 241.287842,163.278320 239.165207,157.647491 
	C237.378342,152.907394 235.130051,148.341248 233.055695,143.322937 
	C233.443832,142.972534 233.862320,142.997299 234.719971,143.375183 
	C236.038300,145.556503 236.917450,147.384705 237.906342,149.540680 
	C239.686752,152.240189 241.357422,154.611908 243.140381,157.207916 
	C243.531830,157.607178 243.810974,157.782196 244.090134,157.957199 
z" data-index="24"></path>
<path fill="#966D51" opacity="1.000000" stroke="none" d="
M123.931503,158.074814 
	C121.140434,155.897568 121.967827,153.550461 123.524605,151.084198 
	C125.948761,147.243805 122.935822,140.549454 117.698586,138.019302 
	C113.655693,136.066147 111.163246,137.467865 108.844040,142.930664 
	C108.433876,143.896790 107.833824,144.782272 106.838814,146.574219 
	C105.843689,141.487503 107.514664,138.020813 110.702454,136.416031 
	C112.919846,135.299774 116.672318,135.495712 118.940025,136.660706 
	C121.711510,138.084503 123.878448,140.955353 125.881165,143.531372 
	C128.000778,146.257751 128.173157,149.147202 125.627991,152.114563 
	C124.572411,153.345245 124.541702,155.455002 124.019707,157.587585 
	C123.994492,158.010178 123.931503,158.074814 123.931503,158.074814 
z" data-index="25"></path>
<path fill="#946B50" opacity="1.000000" stroke="none" d="
M216.243011,190.034683 
	C223.313141,189.070694 229.970993,187.953644 236.528091,190.570221 
	C227.902054,191.230972 219.276001,191.891708 210.649948,192.552460 
	C210.570572,192.162842 210.491196,191.773209 210.411819,191.383591 
	C212.216476,190.947845 214.021133,190.512100 216.243011,190.034683 
z" data-index="26"></path>
<path fill="#997054" opacity="1.000000" stroke="none" d="
M234.613831,168.916519 
	C233.793274,170.232880 232.579224,171.453690 231.103531,172.894180 
	C228.609512,172.653259 226.369141,172.226303 224.152267,171.700378 
	C223.763504,171.608139 223.473297,171.100525 222.823654,170.489502 
	C226.358612,166.947632 230.325180,168.094070 234.613831,168.916519 
z" data-index="27"></path>
<path fill="#9E9289" opacity="1.000000" stroke="none" d="
M189.969528,158.574158 
	C189.982254,158.241501 190.206314,158.178680 191.001724,158.013718 
	C191.573090,157.911560 192.030243,157.831314 192.371796,158.008270 
	C194.474640,158.452774 196.235931,158.720322 198.412735,159.069794 
	C200.225906,159.013763 201.623581,158.875809 203.021240,158.737854 
	C203.758682,158.654724 204.496109,158.571594 205.606689,158.453568 
	C202.271561,162.677429 196.050125,162.844910 189.969528,158.574158 
z" data-index="28"></path>
<path fill="#966D51" opacity="1.000000" stroke="none" d="
M124.026535,157.978394 
	C125.811821,159.048477 127.565071,160.150360 129.318329,161.252228 
	C128.872391,161.783035 128.426437,162.313843 127.980492,162.844650 
	C126.705833,161.462311 125.431168,160.079956 124.044006,158.386215 
	C123.931503,158.074814 123.994492,158.010178 124.026535,157.978394 
z" data-index="29"></path>
<path fill="#8F6A51" opacity="1.000000" stroke="none" d="
M229.954742,134.140594 
	C231.070801,136.631958 232.051376,139.434113 233.036285,142.619537 
	C231.966827,140.152344 230.893036,137.301865 229.954742,134.140594 
z" data-index="30"></path>
<path fill="#312C29" opacity="1.000000" stroke="none" d="
M215.236267,122.484879 
	C211.460342,121.858025 207.751129,120.895210 203.696274,119.915031 
	C194.195938,116.537910 184.903763,116.241707 175.282379,118.647949 
	C179.496460,114.952789 183.297562,110.506386 189.384537,111.061852 
	C196.655624,111.725403 203.921356,112.747437 211.091980,114.122261 
	C217.381973,115.328232 217.601303,116.177147 215.236267,122.484879 
z" data-index="31"></path>
<path fill="#363636" opacity="1.000000" stroke="none" d="
M192.030243,157.831314 
	C192.030243,157.831314 191.573090,157.911560 191.342728,157.939209 
	C189.170181,155.852203 187.227982,153.737534 185.539246,151.201981 
	C190.519699,141.993027 195.246689,133.204971 199.973694,124.416916 
	C202.432556,124.359039 204.891418,124.301170 207.678894,124.768524 
	C207.340637,127.518608 207.003372,129.915085 205.949768,131.938583 
	C201.424774,140.629288 196.689133,149.210312 192.030243,157.831314 
z" data-index="32"></path>
<path fill="#2D2E2E" opacity="1.000000" stroke="none" d="
M199.580292,124.346298 
	C195.246689,133.204971 190.519699,141.993027 185.469482,150.869690 
	C185.146271,150.958313 185.048889,150.988800 184.933945,150.782501 
	C184.671341,150.374207 184.502228,150.192154 184.311676,150.030014 
	C184.254120,149.569382 184.196579,149.108749 183.937012,148.137772 
	C183.560974,147.408264 183.373169,147.201630 183.171585,147.007507 
	C183.126144,144.359604 183.061264,141.711853 183.038666,139.063751 
	C182.946793,128.294998 184.290253,126.670563 195.633820,124.109207 
	C197.067184,124.084297 198.127029,124.179985 199.580292,124.346298 
z" data-index="33"></path>
<path fill="#363535" opacity="1.000000" stroke="none" d="
M243.028091,156.983643 
	C241.357422,154.611908 239.686752,152.240189 238.137741,149.267532 
	C242.651276,141.307571 248.645233,134.687363 248.965912,125.450783 
	C249.712204,125.375191 250.458496,125.299599 251.575958,125.166016 
	C254.049301,125.403778 256.151489,125.699532 258.536804,126.465302 
	C253.555969,136.951416 248.292023,146.967529 243.028091,156.983643 
z" data-index="34"></path>
<path fill="#2D2D2D" opacity="1.000000" stroke="none" d="
M248.573563,125.389717 
	C248.645233,134.687363 242.651276,141.307571 238.028000,148.939758 
	C236.917450,147.384705 236.038300,145.556503 235.032410,143.416534 
	C234.847626,140.950790 234.753403,138.797089 234.737991,136.642838 
	C234.680786,128.632309 236.270279,126.770760 244.225571,125.586792 
	C245.528076,125.392944 246.861877,125.409401 248.573563,125.389717 
z" data-index="35"></path>
<path fill="#2C2D2C" opacity="1.000000" stroke="none" d="
M192.371796,158.008270 
	C196.689133,149.210312 201.424774,140.629288 205.949768,131.938583 
	C207.003372,129.915085 207.340637,127.518608 208.062103,124.876450 
	C209.898010,124.738022 211.679276,125.016891 213.726196,125.858597 
	C211.658737,131.613724 209.325653,136.806000 206.992584,141.998291 
	C204.460602,146.150986 201.928619,150.303665 199.124695,155.067963 
	C198.567596,156.782318 198.282410,157.885101 197.997223,158.987869 
	C196.235931,158.720322 194.474640,158.452774 192.371796,158.008270 
z" data-index="36"></path>
<path fill="#333433" opacity="1.000000" stroke="none" d="
M207.260193,142.078110 
	C209.325653,136.806000 211.658737,131.613724 214.063873,126.043045 
	C216.034302,126.884621 217.932663,128.104584 219.931229,129.653778 
	C217.391098,132.767822 214.804077,135.606049 212.088425,138.315353 
	C210.686127,139.714386 209.055374,140.884430 207.260193,142.078110 
z" data-index="37"></path>
<path fill="#A7836B" opacity="1.000000" stroke="none" d="
M233.827103,128.080780 
	C230.766617,132.631348 226.763382,129.552185 223.261948,129.774353 
	C223.062195,129.787033 222.345535,126.969170 222.529434,126.883392 
	C224.222061,126.093750 226.124741,125.016685 227.839935,125.200722 
	C229.960754,125.428268 233.603378,123.098488 233.827103,128.080780 
z" data-index="38"></path>
<path fill="#2C2C2C" opacity="1.000000" stroke="none" d="
M243.140381,157.207916 
	C248.292023,146.967529 253.555969,136.951416 258.921448,126.603035 
	C260.687225,126.934814 262.351532,127.598877 264.194397,128.559128 
	C263.114044,130.348572 261.535980,131.674942 260.652557,133.364532 
	C257.206085,139.955994 254.193878,146.783386 250.543152,153.253891 
	C249.420395,155.243881 246.775864,156.375259 244.459137,157.928497 
	C243.810974,157.782196 243.531830,157.607178 243.140381,157.207916 
z" data-index="39"></path>
<path fill="#2E2E2E" opacity="1.000000" stroke="none" d="
M252.382416,159.874176 
	C256.775208,151.333618 261.536194,142.841019 266.581665,134.183044 
	C266.134125,139.518875 265.949036,145.167145 264.520111,150.480911 
	C263.015564,156.075790 257.958893,158.354507 252.382416,159.874176 
z" data-index="40"></path>
<path fill="#333433" opacity="1.000000" stroke="none" d="
M198.412735,159.069794 
	C198.282410,157.885101 198.567596,156.782318 198.933807,155.348145 
	C201.051117,155.182663 203.629211,154.634583 203.076294,158.439072 
	C201.623581,158.875809 200.225906,159.013763 198.412735,159.069794 
z" data-index="41"></path>
<path fill="#363636" opacity="1.000000" stroke="none" d="
M184.279816,150.257172 
	C184.502228,150.192154 184.671341,150.374207 184.918213,150.733978 
	C184.671158,150.925507 184.414673,150.789703 184.279816,150.257172 
z" data-index="42"></path>
<path fill="#363636" opacity="1.000000" stroke="none" d="
M183.177765,147.249207 
	C183.373169,147.201630 183.560974,147.408264 183.851898,147.800140 
	C183.606766,147.975769 183.345139,147.815125 183.177765,147.249207 
z" data-index="43"></path>
</svg>