<?xml version="1.0" encoding="UTF-8"?>
<svg xmlns="http://www.w3.org/2000/svg" xmlns:xlink="http://www.w3.org/1999/xlink" viewBox="0 0 697 789.44">
  <defs>
    <style>
      .cls-1 {
        fill: url(#linear-gradient-4);
      }

      .cls-1, .cls-2, .cls-3, .cls-4, .cls-5, .cls-6, .cls-7, .cls-8, .cls-9, .cls-10, .cls-11, .cls-12, .cls-13, .cls-14, .cls-15, .cls-16, .cls-17, .cls-18, .cls-19, .cls-20, .cls-21, .cls-22, .cls-23, .cls-24, .cls-25, .cls-26, .cls-27, .cls-28, .cls-29, .cls-30, .cls-31, .cls-32, .cls-33, .cls-34, .cls-35, .cls-36, .cls-37, .cls-38, .cls-39, .cls-40, .cls-41, .cls-42, .cls-43, .cls-44, .cls-45, .cls-46, .cls-47, .cls-48, .cls-49, .cls-50, .cls-51, .cls-52, .cls-53, .cls-54, .cls-55, .cls-56, .cls-57, .cls-58, .cls-59, .cls-60, .cls-61, .cls-62, .cls-63, .cls-64, .cls-65, .cls-66, .cls-67, .cls-68, .cls-69, .cls-70, .cls-71, .cls-72, .cls-73, .cls-74 {
        fill-rule: evenodd;
      }

      .cls-2 {
        fill: #f2f4ff;
      }

      .cls-3 {
        fill: #1c236c;
      }

      .cls-75 {
        fill: url(#linear-gradient-51);
      }

      .cls-4 {
        fill: url(#linear-gradient-12);
      }

      .cls-5, .cls-7, .cls-11, .cls-15, .cls-18, .cls-23, .cls-24, .cls-37, .cls-42, .cls-46, .cls-48, .cls-57, .cls-58, .cls-60, .cls-70 {
        opacity: .5;
      }

      .cls-5, .cls-8, .cls-12 {
        fill: #fff;
      }

      .cls-6 {
        fill: #4a9ff8;
      }

      .cls-7 {
        fill: url(#linear-gradient-33);
      }

      .cls-9 {
        fill: url(#linear-gradient-38);
      }

      .cls-10 {
        fill: url(#linear-gradient-21);
      }

      .cls-11 {
        fill: url(#linear-gradient-15);
      }

      .cls-12 {
        opacity: .7;
      }

      .cls-76 {
        isolation: isolate;
      }

      .cls-13 {
        fill: url(#linear-gradient-48);
      }

      .cls-14 {
        fill: url(#linear-gradient-44);
      }

      .cls-15 {
        fill: url(#linear-gradient-37);
      }

      .cls-15, .cls-24, .cls-60, .cls-64, .cls-65 {
        mix-blend-mode: multiply;
      }

      .cls-16 {
        fill: url(#linear-gradient-36);
      }

      .cls-17 {
        fill: url(#linear-gradient-2);
      }

      .cls-18 {
        fill: url(#linear-gradient-18);
      }

      .cls-19 {
        fill: url(#linear-gradient);
      }

      .cls-20 {
        fill: #1466a0;
      }

      .cls-21 {
        fill: #3e4794;
      }

      .cls-22 {
        fill: url(#linear-gradient-24);
      }

      .cls-23 {
        fill: url(#linear-gradient-34);
      }

      .cls-77 {
        fill: url(#linear-gradient-50);
      }

      .cls-24 {
        fill: url(#linear-gradient-27);
      }

      .cls-25 {
        fill: url(#linear-gradient-9);
      }

      .cls-26 {
        fill: url(#linear-gradient-40);
      }

      .cls-27 {
        fill: url(#linear-gradient-6);
      }

      .cls-28 {
        fill: #147cf0;
      }

      .cls-29 {
        fill: url(#linear-gradient-29);
      }

      .cls-30 {
        fill: url(#linear-gradient-39);
      }

      .cls-31 {
        fill: url(#linear-gradient-26);
      }

      .cls-32 {
        fill: #ffa698;
      }

      .cls-33 {
        fill: #ff89db;
      }

      .cls-78 {
        fill: url(#linear-gradient-49);
      }

      .cls-34 {
        fill: url(#linear-gradient-5);
      }

      .cls-35 {
        fill: url(#linear-gradient-23);
      }

      .cls-36 {
        fill: url(#linear-gradient-28);
      }

      .cls-37 {
        fill: url(#linear-gradient-35);
      }

      .cls-38 {
        fill: url(#linear-gradient-10);
      }

      .cls-39 {
        fill: url(#linear-gradient-41);
      }

      .cls-40 {
        fill: url(#linear-gradient-32);
      }

      .cls-41 {
        fill: #c5dbf1;
      }

      .cls-42 {
        fill: url(#linear-gradient-17);
      }

      .cls-43 {
        fill: #273087;
      }

      .cls-44 {
        fill: url(#linear-gradient-11);
      }

      .cls-45 {
        fill: #daeafa;
      }

      .cls-46 {
        fill: url(#linear-gradient-3);
      }

      .cls-47 {
        fill: url(#linear-gradient-30);
      }

      .cls-48 {
        fill: #7e41df;
      }

      .cls-49 {
        fill: #22043d;
      }

      .cls-50 {
        fill: url(#linear-gradient-45);
      }

      .cls-51 {
        fill: #ff8f7f;
      }

      .cls-52 {
        fill: url(#linear-gradient-20);
      }

      .cls-53 {
        fill: url(#linear-gradient-47);
      }

      .cls-54 {
        fill: #894ee8;
      }

      .cls-55 {
        fill: #0a3c5f;
      }

      .cls-56 {
        fill: url(#linear-gradient-31);
      }

      .cls-57 {
        fill: url(#linear-gradient-19);
      }

      .cls-58 {
        fill: url(#linear-gradient-16);
      }

      .cls-59 {
        fill: #ff8978;
      }

      .cls-60 {
        fill: url(#linear-gradient-25);
      }

      .cls-61 {
        fill: #d0e7ff;
      }

      .cls-62 {
        fill: #b4cce5;
      }

      .cls-63 {
        fill: #00cedc;
      }

      .cls-64 {
        fill: #1e2353;
      }

      .cls-64, .cls-65 {
        opacity: .3;
      }

      .cls-65 {
        fill: #1994f0;
      }

      .cls-66 {
        fill: url(#linear-gradient-22);
      }

      .cls-67 {
        fill: url(#linear-gradient-13);
      }

      .cls-68 {
        fill: url(#linear-gradient-7);
      }

      .cls-69 {
        fill: url(#linear-gradient-8);
      }

      .cls-70 {
        fill: url(#linear-gradient-14);
      }

      .cls-71 {
        fill: url(#linear-gradient-46);
      }

      .cls-72 {
        fill: url(#linear-gradient-43);
      }

      .cls-73 {
        fill: #dce8f8;
      }

      .cls-74 {
        fill: url(#linear-gradient-42);
      }
    </style>
    <linearGradient id="linear-gradient" x1="319.92" y1="652.11" x2="384.6" y2="519.11" gradientUnits="userSpaceOnUse">
      <stop offset="0" stop-color="#1c8ef4"/>
      <stop offset="1" stop-color="#00cfdd"/>
    </linearGradient>
    <linearGradient id="linear-gradient-2" x1="420.36" y1="521.14" x2="296.01" y2="247.76" gradientUnits="userSpaceOnUse">
      <stop offset="0" stop-color="#965cf2"/>
      <stop offset="1" stop-color="#ff8adc"/>
    </linearGradient>
    <linearGradient id="linear-gradient-3" x1="326" y1="213.82" x2="385.16" y2="127.04" xlink:href="#linear-gradient"/>
    <linearGradient id="linear-gradient-4" x1="427.93" y1="238.22" x2="445.57" y2="379.36" gradientUnits="userSpaceOnUse">
      <stop offset="0" stop-color="#5a2d68"/>
      <stop offset="1" stop-color="#22043d"/>
    </linearGradient>
    <linearGradient id="linear-gradient-5" x1="227.35" y1="307.38" x2="214.84" y2="311.28" gradientUnits="userSpaceOnUse">
      <stop offset="0" stop-color="#ff8a78"/>
      <stop offset="1" stop-color="#ffa799"/>
    </linearGradient>
    <linearGradient id="linear-gradient-6" x1="247.56" y1="336.9" x2="342.8" y2="296.27" xlink:href="#linear-gradient-2"/>
    <linearGradient id="linear-gradient-7" x1="255.43" y1="496.37" x2="282.75" y2="554.89" gradientUnits="userSpaceOnUse">
      <stop offset="0" stop-color="#3e4795"/>
      <stop offset="1" stop-color="#273088"/>
    </linearGradient>
    <linearGradient id="linear-gradient-8" x1="364.92" y1="456.77" x2="384.74" y2="350.04" xlink:href="#linear-gradient-2"/>
    <linearGradient id="linear-gradient-9" x1="264.7" y1="546.66" x2="276.89" y2="570.77" xlink:href="#linear-gradient-7"/>
    <linearGradient id="linear-gradient-10" x1="285.87" y1="372.51" x2="290.68" y2="366.1" xlink:href="#linear-gradient-5"/>
    <linearGradient id="linear-gradient-11" x1="363.69" y1="423.18" x2="381.37" y2="335.74" xlink:href="#linear-gradient-2"/>
    <linearGradient id="linear-gradient-12" x1="388.11" y1="316.47" x2="387.75" y2="329.07" xlink:href="#linear-gradient-5"/>
    <linearGradient id="linear-gradient-13" x1="364.51" y1="275.91" x2="373.37" y2="302.03" gradientUnits="userSpaceOnUse">
      <stop offset="0" stop-color="#ffb89e"/>
      <stop offset="1" stop-color="#ffa799"/>
    </linearGradient>
    <linearGradient id="linear-gradient-14" x1="585.92" y1="545.84" x2="560.3" y2="447.12" xlink:href="#linear-gradient"/>
    <linearGradient id="linear-gradient-15" x1="74.4" y1="264.86" x2="95.25" y2="187.96" gradientUnits="userSpaceOnUse">
      <stop offset="0" stop-color="#6d6afe"/>
      <stop offset="1" stop-color="#3fb0f7"/>
    </linearGradient>
    <linearGradient id="linear-gradient-16" x1="618.19" y1="238.13" x2="631.76" y2="167.77" xlink:href="#linear-gradient-15"/>
    <linearGradient id="linear-gradient-17" x1="21.26" y1="326.71" x2="-19.31" y2="229.45" xlink:href="#linear-gradient-15"/>
    <linearGradient id="linear-gradient-18" x1="324.24" y1="527.59" x2="-51.74" y2="395.95" xlink:href="#linear-gradient-15"/>
    <linearGradient id="linear-gradient-19" x1="17.98" y1="497.5" x2="53.37" y2="364.06" xlink:href="#linear-gradient"/>
    <linearGradient id="linear-gradient-20" x1="572.22" y1="465.58" x2="543.56" y2="439.69" xlink:href="#linear-gradient"/>
    <linearGradient id="linear-gradient-21" x1="621.88" y1="508.64" x2="587.19" y2="432.1" xlink:href="#linear-gradient"/>
    <linearGradient id="linear-gradient-22" x1="304.55" y1="762.28" x2="313.14" y2="732.35" xlink:href="#linear-gradient"/>
    <linearGradient id="linear-gradient-23" x1="675.6" y1="345" x2="687.15" y2="320.31" xlink:href="#linear-gradient-15"/>
    <linearGradient id="linear-gradient-24" x1="114.4" y1="180.05" x2="130.62" y2="35.16" xlink:href="#linear-gradient"/>
    <linearGradient id="linear-gradient-25" x1="99.87" y1="141.2" x2="85.03" y2="68.68" xlink:href="#linear-gradient-15"/>
    <linearGradient id="linear-gradient-26" x1="592.85" y1="188.22" x2="572.39" y2="41.97" xlink:href="#linear-gradient-2"/>
    <linearGradient id="linear-gradient-27" x1="609.44" y1="136.86" x2="624.28" y2="64.34" xlink:href="#linear-gradient-15"/>
    <linearGradient id="linear-gradient-28" x1="505.43" y1="100.4" x2="514.04" y2="79.37" xlink:href="#linear-gradient-15"/>
    <linearGradient id="linear-gradient-29" x1="221.79" y1="120.67" x2="128.25" y2="163.7" xlink:href="#linear-gradient-15"/>
    <linearGradient id="linear-gradient-30" x1="188.47" y1="191.4" x2="255.3" y2="90.73" xlink:href="#linear-gradient-15"/>
    <linearGradient id="linear-gradient-31" x1="63.1" y1="157.5" x2="38.69" y2="121.46" xlink:href="#linear-gradient-15"/>
    <linearGradient id="linear-gradient-32" x1="49" y1="169.03" x2="53" y2="105.78" xlink:href="#linear-gradient-2"/>
    <linearGradient id="linear-gradient-33" x1="622.66" y1="606.9" x2="645.54" y2="552.04" xlink:href="#linear-gradient-15"/>
    <linearGradient id="linear-gradient-34" x1="490.67" y1="771.01" x2="549.21" y2="628.3" xlink:href="#linear-gradient-15"/>
    <linearGradient id="linear-gradient-35" x1="624.51" y1="703.24" x2="604.55" y2="627.97" xlink:href="#linear-gradient"/>
    <linearGradient id="linear-gradient-36" x1="520.43" y1="732.55" x2="566.61" y2="624.67" xlink:href="#linear-gradient-15"/>
    <linearGradient id="linear-gradient-37" x1="522.88" y1="685.91" x2="511.69" y2="631.22" xlink:href="#linear-gradient-15"/>
    <linearGradient id="linear-gradient-38" x1="119.41" y1="626.2" x2="129.47" y2="608.14" xlink:href="#linear-gradient-15"/>
    <linearGradient id="linear-gradient-39" x1="67.5" y1="652.51" x2="103.03" y2="616.43" xlink:href="#linear-gradient-15"/>
    <linearGradient id="linear-gradient-40" x1="88.66" y1="669.54" x2="124.18" y2="633.45" xlink:href="#linear-gradient-15"/>
    <linearGradient id="linear-gradient-41" x1="109.82" y1="686.57" x2="145.34" y2="650.49" xlink:href="#linear-gradient-15"/>
    <linearGradient id="linear-gradient-42" x1="72.43" y1="668.62" x2="107.96" y2="632.54" xlink:href="#linear-gradient-15"/>
    <linearGradient id="linear-gradient-43" x1="93.59" y1="685.65" x2="129.11" y2="649.57" xlink:href="#linear-gradient-15"/>
    <linearGradient id="linear-gradient-44" x1="114.75" y1="702.68" x2="150.27" y2="666.6" xlink:href="#linear-gradient-15"/>
    <linearGradient id="linear-gradient-45" x1="77.16" y1="684.47" x2="112.68" y2="648.39" xlink:href="#linear-gradient-15"/>
    <linearGradient id="linear-gradient-46" x1="98.31" y1="701.5" x2="133.84" y2="665.42" xlink:href="#linear-gradient-15"/>
    <linearGradient id="linear-gradient-47" x1="119.47" y1="718.53" x2="154.99" y2="682.45" xlink:href="#linear-gradient-15"/>
    <linearGradient id="linear-gradient-48" x1="112.25" y1="256.15" x2="106.45" y2="234.52" xlink:href="#linear-gradient-2"/>
    <linearGradient id="linear-gradient-49" x1="470.81" y1="158.17" x2="491.92" y2="158.17" gradientTransform="translate(120.33 -235.61) rotate(27.18) scale(.89 1.12) skewX(27.18)" xlink:href="#linear-gradient-15"/>
    <linearGradient id="linear-gradient-50" x1="492.81" y1="157.28" x2="514.17" y2="157.28" gradientTransform="translate(120.33 -235.61) rotate(27.18) scale(.89 1.12) skewX(27.18)" xlink:href="#linear-gradient-15"/>
    <linearGradient id="linear-gradient-51" x1="514.64" y1="158.17" x2="535.75" y2="158.17" gradientTransform="translate(120.33 -235.61) rotate(27.18) scale(.89 1.12) skewX(27.18)" xlink:href="#linear-gradient-15"/>
  </defs>
  <g class="cls-76">
    <g id="Layer_2" data-name="Layer 2">
      <g id="Layer_1-2" data-name="Layer 1">
        <g>
          <g>
            <path class="cls-19" d="M345.88,414.92c-3.4,.06-6.8,.16-10.2,.3l.21,5.07c3.36-.14,6.73-.24,10.09-.3l-.1-5.07h0Zm17.16,.08c-3.4-.07-6.81-.09-10.21-.08l.02,5.07c3.36-.01,6.73,.02,10.09,.08l.09-5.07h0Zm-32.47,.46c-3.4,.18-6.79,.39-10.19,.65l.39,5.06c3.35-.25,6.71-.46,10.07-.64l-.27-5.07h0Zm-15.28,1.06c-3.39,.29-6.78,.63-10.16,1l.57,5.04c3.34-.37,6.69-.7,10.04-.99l-.45-5.06h0Zm-15.23,1.59c-3.38,.41-6.75,.86-10.12,1.36l.74,5.02c3.33-.49,6.66-.93,10-1.34l-.62-5.04h0Zm-15.17,2.13c-3.36,.53-6.72,1.11-10.06,1.72l.92,4.99c3.31-.6,6.62-1.18,9.95-1.7l-.8-5.01h0Zm-15.09,2.68c-3.34,.66-6.67,1.36-9.99,2.1l1.12,4.95c3.28-.74,6.57-1.42,9.87-2.07l-1-4.98h0Zm-14.97,3.24c-3.32,.78-6.62,1.62-9.92,2.49l1.32,4.9c3.23-.87,6.52-1.68,9.78-2.45l-1.18-4.94h0Zm-14.84,3.83c-3.28,.92-6.54,1.88-9.8,2.88l1.5,4.85c3.22-.99,6.44-1.94,9.68-2.85l-1.38-4.88h0Zm-14.68,4.43c-3.24,1.06-6.46,2.16-9.67,3.3l1.71,4.78c3.17-1.13,6.35-2.21,9.54-3.25l-1.58-4.82h0Zm-14.48,5.06c-3.19,1.2-6.37,2.44-9.52,3.73l1.94,4.69c3.1-1.28,6.24-2.49,9.38-3.67l-1.79-4.75h0Zm-14.24,5.71c-3.14,1.34-6.25,2.74-9.34,4.19l2.16,4.59c3.04-1.42,6.1-2.8,9.19-4.12l-2.01-4.66h0Zm-13.96,6.4c-3.07,1.5-6.1,3.05-9.11,4.66l2.4,4.47c2.96-1.58,5.94-3.11,8.96-4.58l-2.25-4.55h0Zm-13.61,7.12c-2.98,1.67-5.92,3.39-8.84,5.17l2.65,4.33c2.86-1.75,5.75-3.43,8.68-5.07l-2.49-4.42h0Zm-13.19,7.89c-2.88,1.84-5.73,3.75-8.53,5.71l2.93,4.14c2.73-1.92,5.52-3.78,8.34-5.58l-2.74-4.27h0Zm-12.7,8.71c-2.75,2.03-5.47,4.12-8.13,6.28l3.22,3.93c2.59-2.11,5.25-4.15,7.94-6.13l-3.03-4.08h0Zm-12.08,9.57c-2.61,2.23-5.15,4.52-7.64,6.88l3.51,3.67c2.42-2.3,4.9-4.53,7.44-6.71l-3.31-3.84h0Zm-11.31,10.48c-2.42,2.42-4.78,4.96-7.04,7.53l3.82,3.34c2.19-2.49,4.48-4.95,6.82-7.29l-3.61-3.57h0Zm-10.38,11.45c-2.19,2.65-4.29,5.39-6.29,8.19l4.14,2.94c1.94-2.7,3.96-5.34,6.08-7.91l-3.92-3.22h0Zm-9.22,12.45c-1.9,2.89-3.68,5.82-5.36,8.84l4.45,2.44c1.61-2.91,3.34-5.73,5.17-8.51l-4.25-2.77h0Zm-7.79,13.43c-1.54,3.11-2.95,6.23-4.24,9.45l4.73,1.85c1.23-3.1,2.59-6.08,4.07-9.07l-4.56-2.24h0Zm-6.04,14.32c-1.13,3.3-2.08,6.57-2.92,9.95l4.93,1.19c.8-3.24,1.71-6.36,2.79-9.52l-4.81-1.63h0Zm-4.02,15.04c-.65,3.4-1.13,6.86-1.44,10.31l5.06,.42c.29-3.28,.75-6.56,1.37-9.79l-4.99-.94h0Zm-1.77,15.5c-.13,3.49-.08,6.9,.12,10.39l5.07-.32c-.19-3.32-.23-6.58-.11-9.91l-5.07-.16h0Zm.57,15.57c.38,3.43,.95,6.9,1.68,10.27l4.96-1.09c-.7-3.2-1.23-6.51-1.59-9.76l-5.04,.58h0Zm2.89,15.33c.9,3.36,1.94,6.61,3.13,9.88l4.76-1.76c-1.14-3.13-2.13-6.24-3-9.46l-4.9,1.34h0Zm5.04,14.71c1.32,3.15,2.82,6.38,4.44,9.38l4.47-2.4c-1.5-3-2.94-5.86-4.24-8.97l-4.67,1.99h0Zm6.93,13.9c1.73,2.99,3.58,5.89,5.52,8.74l4.18-2.87c-1.87-2.75-3.65-5.54-5.32-8.42l-4.39,2.55h0Zm8.52,12.96c2.04,2.76,4.19,5.47,6.42,8.08l3.85-3.31c-2.16-2.53-4.22-5.15-6.2-7.82l-4.07,3.04h0Zm9.81,11.95c2.3,2.54,4.69,5.04,7.14,7.43l3.53-3.64c-2.38-2.34-4.69-4.73-6.92-7.2l-3.75,3.42h0Zm10.86,10.98c2.52,2.33,5.09,4.59,7.72,6.79l3.24-3.91c-2.57-2.14-5.07-4.35-7.52-6.62l-3.44,3.74h0Zm11.7,10.03c2.68,2.13,5.42,4.19,8.2,6.19l2.95-4.13c-2.71-1.95-5.38-3.97-8-6.05l-3.15,3.98h0Zm12.39,9.14c2.82,1.93,5.68,3.82,8.58,5.62l2.67-4.31c-2.84-1.77-5.64-3.61-8.4-5.5l-2.86,4.19h0Zm12.94,8.3c2.94,1.75,5.9,3.45,8.9,5.09l2.42-4.46c-2.94-1.61-5.84-3.27-8.72-4.99l-2.6,4.36h0Zm13.42,7.51c3.03,1.58,6.07,3.11,9.15,4.59l2.18-4.58c-3.03-1.46-6.02-2.96-9-4.51l-2.33,4.51h0Zm13.78,6.76c3.1,1.42,6.22,2.79,9.37,4.11l1.96-4.68c-3.09-1.31-6.17-2.65-9.22-4.05l-2.11,4.61h0Zm14.1,6.06c3.17,1.27,6.35,2.5,9.55,3.66l1.73-4.77c-3.15-1.16-6.28-2.36-9.4-3.61l-1.88,4.72h0Zm14.36,5.39c3.22,1.13,6.45,2.2,9.7,3.24l1.52-4.84c-3.2-1.02-6.39-2.08-9.56-3.19l-1.67,4.79h0Zm14.58,4.75c3.26,.99,6.54,1.93,9.83,2.82l1.32-4.9c-3.24-.89-6.47-1.81-9.68-2.78l-1.46,4.86h0Zm14.76,4.13c3.3,.85,6.6,1.65,9.92,2.42l1.14-4.95c-3.28-.76-6.54-1.55-9.8-2.39l-1.26,4.92h0Zm14.91,3.54c3.33,.72,6.66,1.4,10.01,2.04l.94-4.99c-3.31-.63-6.6-1.31-9.89-2.01l-1.06,4.96h0Zm15.03,2.96c3.35,.6,6.71,1.15,10.07,1.67l.76-5.02c-3.33-.51-6.64-1.06-9.96-1.65l-.88,5h0Zm15.12,2.41c3.37,.48,6.75,.9,10.13,1.3l.58-5.04c-3.34-.4-6.68-.82-10.01-1.29l-.7,5.03h0Zm15.2,1.86c3.38,.36,6.77,.66,10.17,.94l.41-5.06c-3.35-.28-6.7-.58-10.05-.93l-.53,5.05h0Zm15.26,1.33c3.4,.24,6.79,.43,10.19,.59l.23-5.07c-3.36-.16-6.72-.35-10.07-.59l-.35,5.06h0Zm15.29,.8c3.4,.12,6.8,.2,10.21,.25l.06-5.07c-3.36-.05-6.73-.12-10.09-.25l-.17,5.07h0Zm15.31,.29v-5.08c3.36,0,6.73-.02,10.09-.09l.12,5.07c-3.4,.07-6.81,.1-10.21,.09h0Zm15.31-.23c3.4-.11,6.81-.24,10.2-.44l-.29-5.07c-3.36,.19-6.72,.32-10.08,.43l.17,5.07h0Zm15.3-.74c3.39-.23,6.8-.46,10.18-.78l-.47-5.05c-3.35,.29-6.7,.55-10.06,.77l.35,5.06h0Zm15.26-1.26c3.38-.35,6.78-.7,10.15-1.14l-.64-5.04c-3.33,.44-6.69,.78-10.03,1.13l.52,5.05h0Zm15.21-1.8c3.37-.46,6.74-.96,10.1-1.5l-.82-5.01c-3.32,.54-6.65,1.02-9.98,1.48l.7,5.03h0Zm15.13-2.34c3.35-.58,6.7-1.2,10.04-1.87l-1-4.98c-3.3,.66-6.6,1.27-9.92,1.85l.88,5h0Zm15.04-2.9c3.33-.7,6.67-1.45,9.97-2.25l-1.2-4.93c-3.27,.78-6.55,1.53-9.83,2.22l1.06,4.96h0Zm14.93-3.47c3.3-.84,6.59-1.72,9.87-2.64l-1.38-4.88c-3.24,.91-6.48,1.78-9.74,2.61l1.26,4.92h0Zm14.78-4.06c3.27-.98,6.51-1.99,9.75-3.04l-1.58-4.82c-3.2,1.05-6.4,2.04-9.63,3.01l1.46,4.86h0Zm14.6-4.67c3.22-1.11,6.42-2.27,9.61-3.46l-1.79-4.75c-3.15,1.18-6.31,2.32-9.49,3.42l1.67,4.79h0Zm14.39-5.31c3.17-1.25,6.33-2.55,9.45-3.91l-2.03-4.65c-3.08,1.33-6.18,2.61-9.31,3.85l1.88,4.72h0Zm14.13-5.97c3.1-1.4,6.22-2.85,9.27-4.38l-2.27-4.54c-3.01,1.48-6.03,2.92-9.09,4.29l2.09,4.62h0Zm13.83-6.68c3.04-1.56,6.03-3.19,9.01-4.86l-2.49-4.42c-2.93,1.64-5.87,3.24-8.86,4.77l2.33,4.51h0Zm13.46-7.42c2.95-1.73,5.86-3.53,8.73-5.38l-2.77-4.26c-2.8,1.82-5.67,3.58-8.55,5.27l2.58,4.37h0Zm13.02-8.21c2.84-1.92,5.61-3.89,8.37-5.92l-3.03-4.08c-2.7,1.99-5.42,3.92-8.2,5.8l2.86,4.19h0Zm12.46-9.03c2.69-2.07,5.4-4.29,7.96-6.52l-3.34-3.82c-2.51,2.17-5.11,4.32-7.74,6.34l3.12,4h0Zm11.81-9.93c2.54-2.32,5-4.68,7.41-7.13l-3.63-3.55c-2.34,2.39-4.75,4.69-7.22,6.94l3.44,3.74h0Zm10.96-10.85c2.34-2.52,4.6-5.12,6.77-7.79l-3.95-3.19c-2.1,2.58-4.29,5.1-6.55,7.53l3.73,3.44h0Zm9.96-11.85c2.06-2.73,4.11-5.57,5.95-8.45l-4.27-2.74c-1.84,2.8-3.72,5.47-5.74,8.15l4.07,3.04h0Zm8.68-12.83c1.78-2.97,3.4-5.99,4.95-9.09l-4.56-2.24c-1.48,2.98-3.05,5.88-4.76,8.74l4.37,2.59h0Zm7.14-13.79c1.4-3.17,2.64-6.4,3.75-9.69l-4.82-1.58c-1.04,3.12-2.25,6.23-3.58,9.24l4.65,2.03h0Zm5.29-14.65c.94-3.36,1.72-6.68,2.35-10.11l-5-.89c-.6,3.28-1.35,6.45-2.25,9.66l4.9,1.34h0Zm3.15-15.25c.45-3.44,.73-6.91,.83-10.38l-5.07-.11c-.1,3.3-.37,6.58-.79,9.85l5.04,.63h0Zm.85-15.56c0-3.36-.34-7.04-.74-10.38l-5.04,.63c.39,3.16,.7,6.68,.7,9.86l5.07-.11h0Zm-1.49-15.53c-.58-3.4-1.34-6.83-2.27-10.15l-4.88,1.39c.89,3.15,1.6,6.43,2.15,9.65l5-.89h0Zm-3.76-15.11c-1.05-3.27-2.31-6.56-3.67-9.72l-4.65,2.03c1.3,3.01,2.5,6.14,3.5,9.27l4.82-1.58h0Zm-5.83-14.44c-1.51-3.11-3.13-6.14-4.88-9.12l-4.36,2.59c1.69,2.87,3.24,5.78,4.69,8.77l4.56-2.24h0Zm-7.6-13.54c-1.87-2.89-3.82-5.74-5.9-8.48l-4.04,3.07c2,2.64,3.89,5.4,5.68,8.19l4.25-2.77h0Zm-9.06-12.55c-2.15-2.68-4.4-5.29-6.72-7.83l-3.73,3.44c2.25,2.44,4.43,4.99,6.5,7.57l3.95-3.19h0Zm-10.25-11.57c-2.38-2.45-4.86-4.88-7.39-7.18l-3.41,3.76c2.45,2.26,4.85,4.57,7.17,6.97l3.63-3.55h0Zm-11.22-10.6c-2.59-2.25-5.22-4.43-7.92-6.55l-3.12,4c2.63,2.06,5.2,4.2,7.72,6.39l3.31-3.84h0Zm-11.99-9.67c-2.75-2.05-5.52-4.04-8.36-5.96l-2.84,4.21c2.77,1.87,5.49,3.83,8.17,5.83l3.03-4.08h0Zm-12.63-8.81c-2.87-1.86-5.76-3.66-8.7-5.4l-2.58,4.37c2.89,1.72,5.72,3.48,8.54,5.31l2.74-4.27h0Zm-13.14-7.98c-2.97-1.68-5.97-3.31-9-4.89l-2.33,4.51c2.98,1.55,5.92,3.15,8.84,4.8l2.49-4.42h0Zm-13.57-7.21c-3.06-1.52-6.13-2.98-9.24-4.4l-2.09,4.62c3.06,1.39,6.08,2.83,9.09,4.33l2.24-4.55h0Zm-13.92-6.48c-3.13-1.36-6.27-2.66-9.43-3.93l-1.88,4.71c3.12,1.25,6.22,2.54,9.31,3.88l2.01-4.66h0Zm-14.21-5.79c-3.19-1.21-6.39-2.38-9.61-3.49l-1.65,4.8c3.17,1.1,6.32,2.25,9.47,3.44l1.79-4.75h0Zm-14.45-5.13c-3.24-1.07-6.49-2.09-9.75-3.07l-1.44,4.87c3.22,.96,6.42,1.97,9.61,3.03l1.58-4.82h0Zm-14.66-4.5c-3.28-.93-6.57-1.82-9.87-2.67l-1.24,4.92c3.25,.85,6.49,1.71,9.73,2.63l1.38-4.88h0Zm-14.83-3.9c-3.31-.8-6.63-1.55-9.96-2.27l-1.06,4.96c3.29,.71,6.56,1.46,9.84,2.24l1.18-4.94h0Zm-14.95-3.31c-3.35-.67-6.69-1.28-10.04-1.89l-.86,5c3.31,.58,6.61,1.21,9.91,1.87l1-4.98h0Zm-15.08-2.74c-3.36-.54-6.72-1.06-10.1-1.52l-.68,5.03c3.33,.46,6.66,.97,9.98,1.5l.8-5.01h0Zm-15.16-2.19c-3.38-.42-6.76-.81-10.14-1.16l-.51,5.05c3.35,.34,6.69,.73,10.03,1.15l.62-5.04h0Zm-15.22-1.65c-3.39-.3-6.78-.57-10.18-.8l-.33,5.06c3.36,.23,6.71,.49,10.06,.8l.45-5.06h0Zm-15.27-1.12c-3.4-.19-6.8-.35-10.2-.46l-.16,5.07c3.36,.11,6.72,.27,10.08,.45l.27-5.07Z"/>
            <path class="cls-17" d="M346.14,175.19c-4.2,.07-8.39,.2-12.58,.37l.26,6.25c4.14-.17,8.29-.29,12.44-.37l-.12-6.26h0Zm21.16,.1c-4.2-.08-8.39-.11-12.59-.1l.03,6.26c4.15-.01,8.3,.02,12.44,.1l.11-6.26h0Zm-40.03,.56c-4.19,.22-8.38,.48-12.56,.8l.48,6.24c4.14-.31,8.28-.57,12.42-.79l-.34-6.25h0Zm-18.84,1.3c-4.18,.36-8.36,.77-12.53,1.23l.7,6.22c4.12-.46,8.25-.86,12.38-1.22l-.55-6.23h0Zm-18.78,1.96c-4.17,.51-8.33,1.07-12.48,1.67l.91,6.19c4.1-.6,8.21-1.15,12.33-1.65l-.77-6.21h0Zm-18.7,2.62c-4.15,.65-8.28,1.37-12.41,2.12l1.13,6.15c4.08-.74,8.17-1.45,12.26-2.1l-.99-6.18h0Zm-18.61,3.3c-4.12,.82-8.22,1.67-12.32,2.59l1.38,6.1c4.05-.91,8.11-1.75,12.17-2.56l-1.23-6.14h0Zm-18.46,4c-4.09,.96-8.16,2-12.23,3.07l1.63,6.04c3.98-1.08,8.03-2.07,12.05-3.02l-1.45-6.09h0Zm-18.3,4.72c-4.05,1.13-8.06,2.32-12.08,3.55l1.85,5.98c3.97-1.22,7.94-2.39,11.93-3.51l-1.7-6.02h0Zm-18.1,5.46c-4,1.3-7.96,2.66-11.92,4.07l2.11,5.89c3.91-1.39,7.82-2.73,11.77-4.01l-1.95-5.95h0Zm-17.85,6.24c-3.94,1.48-7.85,3-11.74,4.6l2.39,5.78c3.82-1.58,7.69-3.08,11.56-4.53l-2.21-5.85h0Zm-17.55,7.04c-3.87,1.65-7.71,3.38-11.51,5.16l2.66,5.66c3.75-1.75,7.52-3.45,11.33-5.08l-2.47-5.75h0Zm-17.21,7.89c-3.78,1.85-7.53,3.76-11.24,5.75l2.96,5.51c3.65-1.95,7.33-3.83,11.05-5.65l-2.77-5.61h0Zm-16.78,8.78c-3.68,2.06-7.3,4.18-10.91,6.37l3.27,5.34c3.53-2.15,7.1-4.23,10.71-6.25l-3.07-5.45h0Zm-16.27,9.72c-3.55,2.27-7.06,4.62-10.51,7.04l3.61,5.11c3.37-2.37,6.81-4.67,10.28-6.89l-3.38-5.27h0Zm-15.66,10.73c-3.4,2.51-6.75,5.08-10.02,7.74l3.96,4.84c3.2-2.6,6.47-5.11,9.79-7.56l-3.73-5.02h0Zm-14.89,11.8c-3.21,2.75-6.35,5.57-9.42,8.49l4.32,4.52c2.99-2.84,6.05-5.59,9.18-8.27l-4.09-4.74h0Zm-13.95,12.92c-2.99,2.99-5.89,6.11-8.68,9.28l4.72,4.11c2.7-3.07,5.52-6.1,8.41-9l-4.45-4.4h0Zm-12.8,14.12c-2.7,3.27-5.29,6.65-7.76,10.09l5.1,3.63c2.39-3.33,4.88-6.59,7.49-9.75l-4.84-3.97h0Zm-11.37,15.36c-2.34,3.56-4.54,7.17-6.62,10.9l5.49,3.01c1.99-3.59,4.12-7.06,6.37-10.49l-5.24-3.42h0Zm-9.6,16.56c-1.9,3.83-3.64,7.68-5.23,11.65l5.83,2.29c1.52-3.82,3.19-7.5,5.02-11.18l-5.62-2.76h0Zm-7.45,17.66c-1.39,4.07-2.56,8.1-3.6,12.27l6.08,1.47c.99-3.99,2.11-7.85,3.44-11.74l-5.93-2h0Zm-4.95,18.54c-.8,4.19-1.4,8.46-1.77,12.71l6.24,.52c.36-4.04,.92-8.09,1.69-12.07l-6.15-1.16h0Zm-2.18,19.12c-.15,4.3-.1,8.51,.15,12.81l6.25-.39c-.24-4.1-.29-8.11-.14-12.22l-6.25-.2h0Zm.71,19.2c.46,4.23,1.17,8.51,2.07,12.66l6.11-1.35c-.86-3.94-1.52-8.02-1.96-12.03l-6.22,.72h0Zm3.56,18.9c1.11,4.14,2.39,8.16,3.86,12.19l5.87-2.17c-1.41-3.86-2.63-7.7-3.7-11.67l-6.04,1.66h0Zm6.22,18.14c1.62,3.88,3.48,7.87,5.47,11.57l5.51-2.96c-1.85-3.7-3.62-7.23-5.22-11.06l-5.76,2.45h0Zm8.55,17.14c2.13,3.69,4.41,7.26,6.8,10.78l5.16-3.55c-2.31-3.39-4.51-6.83-6.55-10.38l-5.41,3.15h0Zm10.51,15.98c2.52,3.4,5.16,6.75,7.91,9.97l4.75-4.08c-2.66-3.12-5.21-6.34-7.65-9.64l-5.01,3.75h0Zm12.1,14.74c2.83,3.13,5.78,6.22,8.81,9.16l4.36-4.49c-2.93-2.88-5.78-5.84-8.54-8.88l-4.63,4.21h0Zm13.4,13.54c3.11,2.87,6.27,5.66,9.52,8.37l4-4.82c-3.17-2.64-6.25-5.36-9.28-8.16l-4.24,4.61h0Zm14.43,12.37c3.31,2.62,6.68,5.17,10.11,7.63l3.64-5.09c-3.35-2.41-6.64-4.89-9.87-7.45l-3.88,4.91h0Zm15.28,11.27c3.48,2.38,7,4.7,10.58,6.93l3.3-5.32c-3.5-2.18-6.95-4.45-10.35-6.79l-3.52,5.17h0Zm15.96,10.23c3.62,2.16,7.27,4.26,10.97,6.28l2.99-5.5c-3.62-1.99-7.2-4.04-10.75-6.15l-3.21,5.37h0Zm16.55,9.26c3.73,1.95,7.48,3.84,11.28,5.66l2.69-5.65c-3.73-1.79-7.42-3.65-11.1-5.56l-2.88,5.56h0Zm16.99,8.33c3.83,1.76,7.67,3.44,11.55,5.07l2.42-5.77c-3.82-1.61-7.6-3.26-11.37-4.99l-2.6,5.69h0Zm17.39,7.47c3.9,1.56,7.83,3.08,11.78,4.52l2.13-5.88c-3.89-1.43-7.75-2.91-11.59-4.45l-2.32,5.81h0Zm17.71,6.64c3.97,1.39,7.96,2.72,11.96,3.99l1.88-5.97c-3.94-1.26-7.88-2.56-11.78-3.93l-2.06,5.91h0Zm17.98,5.85c4.02,1.22,8.06,2.37,12.12,3.48l1.63-6.04c-4-1.09-7.98-2.23-11.94-3.43l-1.8,5.99h0Zm18.2,5.1c4.07,1.05,8.14,2.04,12.23,2.99l1.4-6.1c-4.04-.94-8.07-1.92-12.08-2.95l-1.55,6.06h0Zm18.39,4.37c4.11,.88,8.21,1.73,12.34,2.51l1.16-6.15c-4.08-.78-8.13-1.61-12.19-2.48l-1.3,6.12h0Zm18.53,3.65c4.13,.73,8.27,1.42,12.42,2.05l.94-6.19c-4.1-.63-8.19-1.3-12.28-2.03l-1.08,6.16h0Zm18.65,2.97c4.16,.59,8.32,1.11,12.49,1.6l.72-6.22c-4.12-.49-8.23-1.01-12.34-1.59l-.87,6.2h0Zm18.74,2.29c4.17,.44,8.35,.82,12.53,1.16l.5-6.24c-4.13-.34-8.27-.71-12.39-1.15l-.65,6.22h0Zm18.81,1.64c4.19,.29,8.37,.53,12.57,.73l.29-6.25c-4.14-.2-8.28-.44-12.42-.72l-.43,6.24h0Zm18.86,.99c4.19,.15,8.39,.25,12.58,.31l.07-6.26c-4.15-.06-8.3-.15-12.44-.3l-.22,6.25h0Zm18.88,.35v-6.26c4.15,0,8.3-.02,12.44-.11l.14,6.26c-4.19,.09-8.39,.12-12.59,.12h0Zm18.88-.28c4.19-.14,8.39-.29,12.58-.54l-.36-6.25c-4.14,.24-8.29,.4-12.43,.53l.22,6.26h0Zm18.86-.91c4.17-.28,8.39-.56,12.55-.97l-.58-6.23c-4.14,.36-8.26,.68-12.41,.95l.43,6.24h0Zm18.82-1.56c4.16-.43,8.36-.86,12.51-1.4l-.79-6.21c-4.1,.54-8.25,.97-12.37,1.39l.65,6.22h0Zm18.75-2.22c4.16-.57,8.31-1.18,12.45-1.85l-1.01-6.18c-4.09,.67-8.2,1.26-12.31,1.83l.87,6.2h0Zm18.66-2.89c4.14-.72,8.26-1.48,12.38-2.3l-1.23-6.14c-4.07,.81-8.14,1.57-12.23,2.28l1.08,6.16h0Zm18.55-3.57c4.1-.87,8.22-1.79,12.29-2.78l-1.48-6.08c-4.03,.96-8.07,1.88-12.12,2.74l1.31,6.12h0Zm18.41-4.28c4.07-1.03,8.12-2.12,12.17-3.25l-1.7-6.02c-3.99,1.12-7.99,2.19-12.02,3.21l1.55,6.06h0Zm18.23-5.01c4.03-1.2,8.03-2.45,12.02-3.75l-1.95-5.95c-3.94,1.29-7.9,2.52-11.87,3.71l1.8,5.99h0Zm18.01-5.76c3.97-1.37,7.92-2.79,11.85-4.27l-2.21-5.85c-3.88,1.46-7.77,2.86-11.7,4.22l2.06,5.91h0Zm17.74-6.55c3.91-1.55,7.8-3.15,11.66-4.82l-2.5-5.74c-3.8,1.65-7.63,3.22-11.47,4.74l2.32,5.81h0Zm17.42-7.37c3.83-1.72,7.67-3.52,11.42-5.4l-2.79-5.6c-3.71,1.82-7.44,3.6-11.21,5.29l2.58,5.7h0Zm17.05-8.23c3.75-1.93,7.44-3.93,11.12-5.99l-3.07-5.45c-3.61,2.02-7.24,3.99-10.92,5.88l2.88,5.56h0Zm16.59-9.15c3.63-2.13,7.23-4.35,10.77-6.64l-3.41-5.25c-3.45,2.24-6.99,4.41-10.54,6.5l3.18,5.39h0Zm16.05-10.12c3.5-2.37,6.92-4.79,10.32-7.3l-3.73-5.02c-3.33,2.46-6.69,4.83-10.11,7.16l3.53,5.17h0Zm15.36-11.13c3.32-2.55,6.65-5.29,9.81-8.04l-4.12-4.71c-3.1,2.67-6.3,5.33-9.55,7.82l3.85,4.93h0Zm14.56-12.25c3.13-2.86,6.17-5.77,9.14-8.79l-4.48-4.37c-2.89,2.94-5.86,5.78-8.9,8.56l4.24,4.61h0Zm13.52-13.38c2.88-3.1,5.67-6.32,8.34-9.6l-4.87-3.93c-2.59,3.18-5.28,6.29-8.07,9.29l4.6,4.25h0Zm12.28-14.62c2.54-3.36,5.07-6.86,7.33-10.42l-5.27-3.37c-2.28,3.45-4.59,6.74-7.08,10.04l5.01,3.75h0Zm10.7-15.82c2.2-3.66,4.2-7.39,6.1-11.21l-5.62-2.76c-1.83,3.67-3.76,7.25-5.87,10.77l5.38,3.19h0Zm8.8-17.01c1.72-3.91,3.26-7.89,4.63-11.94l-5.95-1.95c-1.28,3.85-2.78,7.68-4.41,11.39l5.74,2.5h0Zm6.52-18.07c1.16-4.14,2.12-8.23,2.89-12.46l-6.16-1.1c-.74,4.04-1.66,7.95-2.77,11.91l6.04,1.66h0Zm3.88-18.81c.55-4.25,.9-8.52,1.02-12.8l-6.26-.13c-.12,4.07-.45,8.11-.97,12.15l6.21,.78h0Zm1.05-19.19c0-4.14-.41-8.69-.91-12.8l-6.21,.78c.47,3.9,.86,8.24,.86,12.16l6.26-.13h0Zm-1.84-19.15c-.72-4.19-1.65-8.43-2.79-12.52l-6.02,1.71c1.09,3.88,1.97,7.93,2.65,11.9l6.16-1.1h0Zm-4.63-18.63c-1.29-4.03-2.85-8.09-4.53-11.98l-5.74,2.5c1.6,3.72,3.08,7.57,4.32,11.43l5.95-1.95h0Zm-7.19-17.8c-1.87-3.84-3.86-7.57-6.02-11.25l-5.38,3.19c2.08,3.54,3.99,7.13,5.78,10.82l5.62-2.76h0Zm-9.36-16.69c-2.3-3.56-4.71-7.08-7.27-10.46l-4.98,3.79c2.47,3.26,4.79,6.66,7.01,10.09l5.24-3.42h0Zm-11.17-15.48c-2.65-3.3-5.43-6.53-8.29-9.65l-4.6,4.25c2.77,3,5.46,6.15,8.02,9.34l4.87-3.94h0Zm-12.64-14.26c-2.93-3.03-6-6.01-9.11-8.85l-4.2,4.64c3.02,2.79,5.98,5.64,8.84,8.59l4.48-4.37h0Zm-13.84-13.07c-3.19-2.77-6.44-5.47-9.76-8.07l-3.85,4.93c3.25,2.54,6.41,5.18,9.53,7.88l4.09-4.74h0Zm-14.79-11.93c-3.38-2.53-6.81-4.98-10.3-7.35l-3.5,5.19c3.41,2.31,6.77,4.72,10.07,7.19l3.73-5.02h0Zm-15.57-10.86c-3.54-2.29-7.1-4.51-10.73-6.66l-3.18,5.39c3.56,2.12,7.05,4.29,10.53,6.54l3.38-5.27h0Zm-16.2-9.84c-3.67-2.08-7.36-4.08-11.09-6.03l-2.88,5.56c3.67,1.91,7.3,3.88,10.9,5.92l3.07-5.45h0Zm-16.73-8.89c-3.77-1.87-7.56-3.68-11.4-5.42l-2.58,5.7c3.77,1.72,7.5,3.5,11.21,5.33l2.77-5.61h0Zm-17.16-7.99c-3.86-1.67-7.73-3.28-11.63-4.85l-2.32,5.81c3.85,1.54,7.67,3.13,11.47,4.78l2.47-5.75h0Zm-17.51-7.14c-3.93-1.49-7.88-2.93-11.85-4.31l-2.03,5.92c3.91,1.36,7.8,2.77,11.67,4.24l2.21-5.85h0Zm-17.82-6.33c-3.99-1.32-8-2.58-12.03-3.79l-1.78,6c3.97,1.18,7.92,2.43,11.85,3.73l1.95-5.95h0Zm-18.07-5.55c-4.04-1.15-8.1-2.24-12.17-3.29l-1.53,6.07c4.01,1.04,8,2.11,11.99,3.24l1.7-6.02h0Zm-18.28-4.81c-4.08-.98-8.17-1.92-12.28-2.8l-1.31,6.12c4.06,.87,8.1,1.79,12.13,2.77l1.45-6.09h0Zm-18.44-4.08c-4.13-.83-8.25-1.58-12.38-2.33l-1.06,6.17c4.08,.72,8.15,1.49,12.21,2.3l1.23-6.14h0Zm-18.59-3.38c-4.14-.67-8.29-1.3-12.45-1.88l-.84,6.2c4.11,.57,8.21,1.19,12.3,1.85l.99-6.18h0Zm-18.69-2.7c-4.16-.52-8.33-1-12.51-1.43l-.62,6.23c4.13,.42,8.25,.9,12.36,1.41l.77-6.21h0Zm-18.77-2.03c-4.18-.38-8.36-.71-12.55-.99l-.41,6.24c4.14,.28,8.27,.61,12.41,.98l.55-6.23h0Zm-18.83-1.38c-4.19-.23-8.38-.43-12.58-.56l-.19,6.26c4.15,.14,8.29,.33,12.43,.56l.34-6.25Z"/>
            <path class="cls-46" d="M550.62,112.48v126.76c-143.25-56.37-254.23-56.37-397.48,0V112.48c58.26-31.7,127.3-45.27,197.38-45.85,71.17-.59,142.49,13.61,200.1,45.85Z"/>
            <g>
              <g>
                <g>
                  <path class="cls-21" d="M276.19,666.88c.79,1.06,.85,3.92,.58,5.25-2.06,10.18-5.42,10.23-7.41,13.14-2.71,3.96-1.2,11.89-2.68,17.01-3.06,12.98-11.01,24.76-22.7,29.32-2.76,1.08-5.81,1.88-8.75,2.24-3.16,.39-12.52,.23-14.07-5.31,1.07-5.85,7.37-11.16,9.42-16.79,3.06-8.41,2.58-14.8,2.7-22.49,.06-3.61,.62-9.73,.68-15.23,.02-1.51-.03-3.03-.05-4.52,19.57,1.49,22.91-17.28,26.66-15.83,2.19,.85,4.14,1.94,5.8,3.21,3.67,1.68,8.93,7.15,9.81,10.01Z"/>
                  <path class="cls-59" d="M259.25,653.24c-3.58-3.25-5.1-6.71-4.87-11.01l-22.65,.29,.98,25.51c15.27,23.39,46.08,4.4,26.54-14.79Z"/>
                  <path class="cls-3" d="M273.14,663.82c.79,1.06,.85,3.91,.58,5.25-2.53,12.96-5.55,9.48-8.13,16.62-2.51,6.94-.11,8.86-1.53,13.8-3.06,12.98-11.01,24.76-22.7,29.32-6.68,2.6-15.16,3.8-19.44,.57-.91-.68-.76-.82-.74-1.1,6.52-13.59,9.25-26.91,9.48-41.82,.06-3.61,.62-9.73,.68-15.23,.02-1.51-.03-3.03-.05-4.52,10.33,.79,24.68-10.48,25.32-18.85,.62,.77,.29,2.62,1.34,3.02,2.19,.85,4.14,1.94,5.8,3.21,3.67,1.68,8.52,6.87,9.39,9.73Z"/>
                </g>
                <g>
                  <path class="cls-1" d="M397.99,228.69c-27.12,4.6-35.93,17.22-37.59,47.66-.42,7.76-13.9,30.78-6.42,50.87,8.37,22.48,22.23,17.44,27.06,34.84,6.63,23.87-2.7,32.92,3.42,47.02,2.68,6.18,6.84,7.24,15.69,19.18,.58,.78,1.08,1.54,1.59,2.28,6.48-.42,13.28-.67,22.23,1.83,12.65,3.53,33.64,9.23,48.97,3.17,13.77-5.44,13.72-20.2,19.46-25.94,7.22-7.23,13.88-7.35,19.46-9.72,16.44-6.98,23.35-29.93,14.19-45.94-10.89-3.12-21.79-7.04-20.12-14.34,3.37-14.71,6.4-30.64-8.53-40.73-10.39-7.02-26.42-7.24-31.27-20.32-5.05-13.65-8.77-23.33-16.43-32.64-10.74-13.06-27.22-21.37-51.71-17.21Z"/>
                  <path class="cls-49" d="M379.31,245.06c-7.89,2.56-12.53,11.58-14.88,21.3-5.39,22.31-20.84,32.98-10.45,60.86,8.37,22.48,22.23,17.44,27.06,34.84,5.6,20.17-.19,29.76,1.57,40.76,13.83,5.22,10.09,27.78,42.2,22.23,13.93-2.41,8.83-17.52,28.21-16.82,12.74,.46,16.78-5.84,17.57-13.03,2.68-24.35-12.67-14.98-12.34-32.23,.33-17.47-15.29-18.18-15.62-22.2-.28-3.38,2.51-12.98-18.06-17.17-9.45-1.93-17.04-7.02-14.45-13.79,3.62-9.48-3.09-16.39-4.21-17.12-4.55-2.95-8.54,.17-10.68-2.4,0,0-9.76-21.21-11.03-24.46-3.15-8.04-6.06-14.01-4.89-20.76Z"/>
                </g>
                <g>
                  <path class="cls-34" d="M214.72,261.02c4.39,3.04,7.02,4.85,9.84,14.84,1.9,6.73,5.44,9.61,10.04,13.71,7.68,6.52,17,10.88,24.36,15.45,9.52,5.91,19.13,11.92,26.3,19.23,8.25-1.21,20.33-2.4,32.9-4.64,22.12-3.95,45.77-9.82,53.34-.89l12.2,14.25-3.45,9.41c-17.97,2.37-33.05,5.73-49.15,7.62-13.1,1.53-26.94,2.26-42.05,1.23-2.64-.18-5,.04-6.79-.08-.9,.05-2.76-.73-3.53-1.16-2.02-.77-4.23-1.98-6.55-3.47-8.98-5.56-20.22-15.19-27.87-23.08-7.06-7.27-14.54-17.5-21.97-27.36-1.97-2.62-6.28-5.24-11.56-8.05-8.15-4.33-15.4-11.72-17.23-14.99-1.78-3.18-8.78-19.27-9.3-28.93-.19-3.54,3.01-6.22,4.06-7.1,1.08-.9,14.07,15.13,14.9,15.58,.19,.09,9.78,7.16,11.51,8.45Z"/>
                  <path class="cls-27" d="M228.62,282.94c.96,1.23,2.04,2.34,3.23,3.45,.97,.92,3.77,1.04,4.87,2.03,7.68,6.52,15.14,11.82,22.5,16.39,9.51,5.91,19.05,11.55,26.22,18.86,8.25-1.21,20.56-2.06,33.13-4.31,22.12-3.95,45.75-10.28,53.32-1.36l11.8,14.95-3.45,9.41c-13.87,1.83-25.21,5.47-37.44,7.35-3.61,.55-8.42,.93-12.09,1.36-13.11,1.54-27.07,1.67-42.18,.63-2.64-.18-5,.04-6.79-.08-.9,.05-2.76-.73-3.53-1.16-2.02-.77-4.24-1.98-6.55-3.47-8.97-5.56-20.68-15.17-28.33-23.05-6.1-6.28-12.23-12.89-18.71-21.39-1.02-1.34-1.94-4.65-2.96-5.99-.95-1.26-1.83-2.12-2.71-2.8,1.66-4.2,5.41-9.35,9.66-10.82Z"/>
                  <path class="cls-48" d="M355.22,314.6c6.62-.68,13.75-.01,16.67,3.42l11.8,14.95-3.45,9.41c-13.87,1.83-25.21,5.47-37.44,7.35-3.61,.55-8.42,.93-12.09,1.36-13.11,1.54-27.07,1.66-42.18,.63-2.64-.18-5,.05-6.8-.08l-3.52-1.16c29.96-1.4,36.63-10.13,59.2-25.06,9.86-6.52,16.95-10.72,17.81-10.81Z"/>
                </g>
                <path class="cls-68" d="M255.2,642.01c-3.59-27.4,18.51-67.42,10.86-95.52-1.97-7.23-7.08-14.47-11.73-24.09,12.18-2.54,27.61-.82,44.3,5.18l28.01-3.45,24.26-22.53-7.14-32.34-18.99-1.57c-33.81,1.84-56.96,3.85-91.83,15.17-6.36,2.37-13.62,6.23-17.01,9.68-2.37,2.09-4.07,4.63-5.1,7.8-3.47,10.7,1.12,23.59,5.54,38.35,10.49,35.1,13.78,68.59,15.13,103.82l.44,19.57c.22,5.62,21.84-4,23.24-20.07Z"/>
                <path class="cls-64" d="M255.2,642.01c-3.59-27.4,18.51-67.43,10.86-95.52-1.97-7.23-7.08-14.47-11.73-24.09,12.18-2.54,27.61-.82,44.3,5.18l28.01-3.45,24.26-22.53-7.14-32.34-18.99-1.57-3.06,.17c-1.35,8.53-1.63,18.93-1.76,30.38-21.06,1.9-71.56,5.81-78.46,13.77-1.57,3.68,3.14,10.03,3.98,22.91-8.77,4.91-16.75,10.58-24.76,19.77,7.13,29.38,9.66,57.97,10.8,87.81l.44,19.57c.22,5.62,21.84-4,23.24-20.07Z"/>
                <path class="cls-69" d="M326.04,462.99c.5-2.91,1.15-5.56,1.8-8.37,.46-1.99-.44-5.36-.46-7.7-.09-14.46,2.63-14.35,1.19-27.93-.65-6.14,.16-12.01,1.02-17.01-24.04-28.27,2.99-42.42,7.56-54.27,2.84-7.35,5.9-24.23,13.78-30.28,5.11-3.92,18.53-5.74,28.89,5.91,3.81,2.05,7.82-.34,10.56,.86,9.82,4.32,14.86,9.55,19.94,13.22,11.06,8.01,22.15,7.28,29.04,19.1,8.98,15.39-11.79,31.34-21.5,52.38-5.15,11.15-14.4,29.54-20.58,54.82-.04,2.35,.81,4.38,1.82,7.16,2.85,15.01-67.75,20.3-73.06-7.89Z"/>
                <path class="cls-48" d="M326.04,462.99c.16-.92,.33-1.81,.51-2.69,10.21,16.14,41.32,17.15,53.86,9.5-1.81-9.42-2-15.46-.56-25.01-21.01-7.85-32.69-15.89-51.35-26.38-.55-5.93,.25-11.59,1.08-16.44-7.77-9.13-10.2-16.79-9.78-23.38,19.09,4.36,35.38,10.31,54.08,16.17,31.03-39.85,40.46-48.31,57.14-44.17,12.72,3.16,7.23,26.08,2.85,32.73-5.11,7.78-11.67,16.17-16.01,25.57-5.15,11.15-14.4,29.54-20.58,54.82-.04,2.35,.81,4.38,1.82,7.16,2.85,15-67.75,20.3-73.06-7.89Z"/>
                <g>
                  <path class="cls-21" d="M208.18,737.41c.26,1.29-.93,3.89-1.74,4.99-7.88,10.59-10.07,5.25-14.58,10.71-4.7,5.69-3.86,8.71-7.28,12.55-5.58,6.92-12.89,12.43-20.85,15.05-9.58,3.15-30.18,1.19-31.85-11.05,3.49-4.81,11.78-6.87,16.06-11.07,6.4-6.27,8.73-12.23,12.15-19.11,1.61-3.23,4.76-8.51,7.19-13.44,.67-1.35,1.29-2.74,1.91-4.1,17.46,10.07,27.33-6.54,30.88-2.75,1.61,1.72,2.9,3.54,3.85,5.4,2.58,3.1,4.71,9.87,4.26,12.83Z"/>
                  <path class="cls-32" d="M164.22,727.23c4.67,25.36,37.83,.99,34.54-8.17-1.37-3.81-1.04-7.68,.4-12.04l-20.53-9.58c-3.36,7.37-7.2,13.88-10.71,21.1-1.33,2.73-2.41,5.77-3.7,8.69Z"/>
                  <path class="cls-43" d="M206.51,733.93c.26,1.29-.93,3.89-1.74,4.99-7.88,10.59-10.98,6.01-14.72,11.4-4.21,6.06-3.72,8.01-7.14,11.85-6.42,7.96-15.13,14.05-24.48,16.03-8.33,1.76-22.89,0-26.61-8.6,5.3-4.26,9.76-8.78,14.46-14.51,5.68-6.92,8.73-12.23,12.16-19.11,1.61-3.23,4.76-8.51,7.19-13.44,.67-1.35,1.29-2.74,1.91-4.1,8.97,5.17,26.78,1.21,30.98-6.06,.22,.96-.87,2.49-.1,3.31,1.61,1.72,2.9,3.54,3.84,5.4,2.58,3.1,4.71,9.87,4.26,12.83Z"/>
                  <path class="cls-25" d="M330.41,571.72c-23.54,3.9-42.58,7.3-62.67,11.97-5.85,1.36-9.18,3.71-11.14,7.08-4.13,7.09-2.27,18.69-5.31,35.1-5.31,28.63-34.76,57.54-52.11,83.01-7.7,7.87-26.75,7.21-27.52-2.72,14.62-32.08,32.48-72.72,38.28-108.89,3.79-23.66,11.04-39.39,29.78-49.03,32.55-20.31,56.69-34.69,90.01-49.42-3.31-7.93-5-19.73-5.33-25.01-.39-6.33,1.25-6.4,1.95-10.49,12.06,17.71,49.69,18.07,72.31,7.84,5.03,8.17,12.13,16.59,14.26,26.09,4.93,21.95-2.45,39.47-16.34,50.91-15.41,12.69-46.87,20.35-66.17,23.55Z"/>
                </g>
                <g>
                  <path class="cls-38" d="M292.11,358.37c5.14,1.97,5.44,3.79,10.7,13.1,3.54,6.27,7.79,8.28,13.39,11.26l-10.68,9.48c-4.38-3.59-6.66-2.39-12.5-6.21-2.77-1.81-9.6-5.51-12.24-12.3-2.71-6.96-10.98-9.97-16.57-14.82-2.81-2.43,2.1-10.15,1.81-10.52,4.07,.27,20.38,7.6,26.1,10.01Z"/>
                  <path class="cls-44" d="M309.17,377.59c1.06,1.03,2.66,2.16,4.39,2.44,1.26,.14,3.52-.36,5.25,.78,9.27,4.64,16.31,6.02,24.79,8.79,10.11,3.31,22.3,7.85,31.15,12.91,8.75-16.9,26.5-36.26,40.14-49.94,10.92-9.65,21.21-3.29,25.14,2.09,7.23,9.89,3.99,21.64-2.84,29.88-11.61,13.99-32.14,28.85-45.56,42.08-1.97,1.94-3.9,3.48-5.76,4.6-2.57,2.1-6.18,2.93-10.09,1.83-2.21-.28-5.52-1.16-8.2-2.09-10.33-3.37-24.25-10.35-33.83-16.36-8.08-5.08-18.31-10.04-26.48-18.08-.77-.76-1.42-2.86-2.26-3.54-1.1-.9-2.06-1.5-2.98-1.95-3.19-2.69,3.56-13.32,7.13-13.42Z"/>
                </g>
                <g>
                  <path class="cls-32" d="M403.6,304.89c-4.41,10.42-5.77,20.94-4.83,32.26-10.79,6.19-25.8-.95-27.75-9.26,1.89-4.65,3.81-8.87,5.47-13.71l27.11-9.3Z"/>
                  <path class="cls-4" d="M403.6,304.89c-2.12,5-3.53,10.03-4.32,15.15-5.04,9.95-26.4,12.52-26.52,3.67,1.31-3.11,2.58-6.17,3.74-9.52l27.11-9.3Z"/>
                  <path class="cls-32" d="M377.44,250.48c-6.05,6.02-10.04,12.55-11.32,22.8-.32,2.61-1.06,4.12-2.15,5.57-6.3,8.4-6.6,11.39-6.27,19.36,.32,7.75-.69,11.53,1.22,14.61,1.96,3.16,5.65,4.63,8.84,5.58,6.54,1.95,18.94,.19,26.4-1.91,5.53-1.56,5.76-3.44,8.91-7.61,8.32-4.43,4.84-9.87,2.62-10.85-6.36-2.83-9.21,4.6-13.54,5.39,3.76-13.33-16.7-42-14.7-52.94Z"/>
                  <path class="cls-67" d="M373.25,255.2c-3.71,4.84-6.18,10.42-7.13,18.08-.32,2.61-1.06,4.12-2.15,5.57-6.3,8.4-6.6,11.39-6.27,19.36,.14,3.48,.02,6.15,.01,8.33,1.04,2.74,3.92,4.66,7.23,4.02,3.05-.59,6.53-3.25,8.48-8.55,1.38-3.77,9.92-4.5,12.47-8.06,2.11-2.96-.72-7.45-2.51-9.85-6.27-8.39-9.06-18.45-10.12-28.91Z"/>
                  <path class="cls-51" d="M377.44,250.48c-.08,17.41,18.66,34.92,14.7,52.94-1.61-20.05-19.64-37.67-14.7-52.94Z"/>
                </g>
              </g>
              <path class="cls-32" d="M212.37,256.75c-4.73-3.07-6.66-4.45-10.15-6.27,.15,6.32,2.58,9.38,6.42,11.43,3.03,3.77,4.55,9.23,7.55,12.1,4.52,4.33,9.3,2.9,6.06-5.13-2.15-5.32-7.83-10.8-9.88-12.12Z"/>
            </g>
            <path class="cls-70" d="M442.84,615.49c127.71-19.66,224.53-78.76,254.16-158.48v-104.13c-29.64,79.71-126.45,138.8-254.16,158.46v104.15Z"/>
            <path class="cls-11" d="M149.44,200.06C68.26,231.55,14.51,286.4,14.5,348.79v-60.51c0-62.4,53.75-117.24,134.94-148.74v60.51Z"/>
            <path class="cls-58" d="M569.42,105.07c64.69,32.03,104.74,76.37,104.74,125.37,0,24.22,.02,72.41,.04,103.22-18.17-29.06-47.05-70.87-104.77-100.61V105.07Z"/>
            <g>
              <g>
                <path class="cls-42" d="M.99,179.48H0v169.47H.12c1.18,32.22,12.51,62.93,32.12,91.03v-181.02C14.99,234.24,4.15,207.5,.99,179.48Z"/>
                <path class="cls-18" d="M345.74,650.32c-131.13-14.05-240.99-65.01-298.79-134.38v-218.2c57.8,69.36,167.66,120.33,298.79,134.37v218.2Z"/>
                <path class="cls-57" d="M76.03,494.48c-30-26.24-51.89-56.1-63.49-88.26v-104.13c11.6,32.16,33.49,62.01,63.49,88.25v104.14Z"/>
              </g>
              <g>
                <g>
                  <polygon class="cls-5" points="162.83 447.39 157.37 508.77 209.51 511.02 162.83 447.39"/>
                  <path class="cls-5" d="M174.63,533.6c-21-12.82-36.99-43.31-35.72-68.12,1.28-24.81,19.34-34.53,40.33-21.72,21,12.82,36.99,43.31,35.72,68.12-1.27,24.8-19.33,34.53-40.33,21.72h0Zm-.54,10.51c25.92,15.81,48.2,3.81,49.77-26.8,1.57-30.62-18.16-68.24-44.08-84.06-25.91-15.81-48.2-3.81-49.77,26.8-1.57,30.61,18.16,68.24,44.08,84.06Z"/>
                </g>
                <g>
                  <path class="cls-5" d="M327.05,623.35c2.29,.24,3.94,2.29,3.7,4.58-.24,2.29-2.29,3.94-4.58,3.7-57.84-6.19-111.04-20.47-156.28-40.81-46.2-20.78-84.15-47.93-110.31-79.33-1.47-1.76-1.23-4.38,.54-5.85,1.76-1.47,4.38-1.23,5.85,.54,25.33,30.4,62.26,56.77,107.35,77.05,44.46,19.99,96.8,34.03,153.73,40.13Z"/>
                  <path class="cls-5" d="M150.53,573.8c1.42,.75,1.97,2.51,1.22,3.93-.75,1.42-2.51,1.97-3.93,1.22-18.09-9.52-34.6-20.09-49.28-31.56-14.61-11.42-27.37-23.71-38.02-36.71-1.02-1.25-.84-3.09,.41-4.11,1.25-1.02,3.09-.84,4.11,.41,10.41,12.71,22.86,24.7,37.09,35.82,14.38,11.24,30.6,21.62,48.41,30.99Z"/>
                </g>
              </g>
            </g>
            <g>
              <g>
                <path class="cls-52" d="M533.93,567.49l114.26-66.4-26.53-125.9v-.03s0-.02,0-.02v-.02s0-.03,0-.03h0s0-.04,0-.04h0s0-.04,0-.04v-.03s0-.01,0-.01v-.04s-.01,0-.01,0v-.04s-.01-.02-.01-.02v-.02s-.02-.04-.02-.04h0s-.01-.05-.01-.05h0s0-.05,0-.05v-.03s-.01-.01-.01-.01v-.05s-.02,0-.02,0v-.04s-.02-.03-.02-.03v-.02s-.02-.05-.02-.05h0l-.02-.05v-.02s-.02-.03-.02-.03v-.04s-.02,0-.02,0l-.02-.05h0s-.01-.05-.01-.05v-.03s-.02-.02-.02-.02l-.02-.05h0s-.02-.05-.02-.05v-.03s-.02-.03-.02-.03l-.02-.05h0s-.02-.06-.02-.06v-.02s-.03-.04-.03-.04l-.02-.04h0s-.03-.07-.03-.07h0s-.02-.05-.02-.05l-.02-.03v-.02s-.04-.05-.04-.05h0l-.03-.05v-.02s-.03-.03-.03-.03l-.03-.04h0s-.03-.06-.03-.06h0s-.02-.05-.02-.05l-.02-.03v-.02s-.04-.05-.04-.05h0s-.03-.05-.03-.05l-.02-.02-.02-.02-.03-.05h0s-.04-.05-.04-.05v-.02s-.04-.03-.04-.03l-.04-.05-.04-.05h0s-.03-.05-.03-.05l-.02-.03-.02-.02-.04-.04-.04-.04-.02-.02-.02-.02-.04-.03h0s-.04-.05-.04-.05h-.01s-.03-.04-.03-.04l-.03-.03h-.02s-.05-.05-.05-.05h0s-.04-.03-.04-.03l-.02-.02-.02-.02-.04-.03h0s-.05-.03-.05-.03h-.02s-.03-.03-.03-.03c-.46-.27-1.03-.34-1.7-.08l-114.25,66.4c3.74-2.05,18.94,91.77,29.93,128.89Z"/>
                <path class="cls-65" d="M621.66,375.18c-47.99,54.99-105.23,88.96-99.63,136.68l11.9,55.62,114.26-66.4-26.53-125.9Z"/>
              </g>
              <g>
                <polygon class="cls-2" points="535.51 427.01 538.09 554.7 657.93 485.52 657.57 358.94 535.51 427.01"/>
                <polygon class="cls-41" points="537.74 428.12 535.23 426.66 535.59 553.25 538.09 554.7 537.74 428.12"/>
                <polygon class="cls-73" points="657.57 358.94 655.06 357.48 535.23 426.66 537.74 428.12 657.57 358.94"/>
                <path class="cls-41" d="M542.3,527.31l.02,7.98,110.92-64.04-.02-7.98-110.91,64.03h0Zm-.25-91.78v7.98s110.93-64.04,110.93-64.04l-.02-7.98-110.9,64.03h0Zm.04,13.11l110.9-64.03,.02,7.98-110.9,64.03-.02-7.98h0Zm.04,13.12l110.91-64.03v7.98s-110.89,64.03-110.89,64.03l-.02-7.98h0Zm.03,13.11l110.91-64.03,.02,7.98-110.92,64.04-.02-7.98h0Zm.04,13.11l110.92-64.04,.02,7.98-110.92,64.03-.02-7.98h0Zm.03,13.12l110.92-64.04,.02,7.98-110.92,64.03-.02-7.98h0Zm.04,13.12l110.92-64.03,.02,7.98-110.92,64.03-.02-7.98Z"/>
              </g>
              <path class="cls-10" d="M564.84,475.98l-27.24,95.78h0c-.37,.99-1.13,2.47-1.68,3.05l114.25-66.39c1-.57,1.54-2.12,1.68-3.05l27.24-95.79h-.02s5.11-17.94,5.11-17.94c.26-1.37-.71-2.96-.98-3.25-4.74,4.32-30.08,19.83-34.75,22.58-7.82,6.13-8.09,13.7-19.94,26.27-2.27,2.41-3.05,3.04-5.86,4.7l-57.79,34.04Z"/>
              <path class="cls-28" d="M563.43,472.29c-.19-.17-.38-.31-.56-.41-.89-.51-1.69-.29-1.96,.59l-26.98,95.01-26.52-125.9c-.23-1.18-1.05-2.33-1.94-2.84-.19-.1-.37-.19-.55-.23-1.09-.29-1.73,.64-1.43,2.05l26.68,126.74c.46,2.2,1.02,3.85,1.62,4.96,.6,1.16,1.33,1.95,2.15,2.42,.81,.47,1.51,.46,2.12,.05,.6-.45,1.12-1.44,1.55-2.96l27.24-95.8c.29-1.07-.34-2.73-1.41-3.69Z"/>
              <path class="cls-63" d="M619.07,438.25l-57.63,33.49c1.5-.73,3.8,2.64,3.4,4.24l58.21-33.82c1.94-1.13,3.14-1.79,4.85-3.14,8.27-6.53,12.18-15.49,17.58-22.73,1.54-2.06,3.09-3.51,4.63-4.69,1.44-.78,2.2-1.2,1.94-1.07l32.12-18.91c.24-1.36-.72-2.93-.99-3.22-.61-.65-1.56-1.44-2.42-.99l-32.18,18.94c.25-.12-.51,.29-1.94,1.07-1.55,1.18-3.09,2.63-4.63,4.69-5.72,7.66-9.81,16.28-19.09,23.59-1.32,1.04-2.41,1.71-3.86,2.55Z"/>
            </g>
            <path class="cls-66" d="M309.56,727.17c9.45,0,17.11,7.91,17.11,17.66s-7.66,17.66-17.11,17.66-17.11-7.91-17.11-17.66,7.66-17.66,17.11-17.66Z"/>
            <path class="cls-35" d="M681.56,317.44c7.93,0,14.36,6.64,14.36,14.83s-6.43,14.83-14.36,14.83-14.36-6.64-14.36-14.83,6.43-14.83,14.36-14.83Z"/>
            <g>
              <path class="cls-22" d="M66.58,105.86l.26,93.03c.02,6.79,4.87,9.56,10.78,6.14l87-50.23c5.91-3.41,10.73-11.76,10.71-18.55l-.36-128.66c-.02-6.79-4.87-9.55-10.78-6.14l-56.83,32.81-40.78,71.59Z"/>
              <g>
                <path class="cls-8" d="M148.8,116.96c-2.42,.82-4.83,2.87-7.05,5.39-4.22,4.79-6.76,12.23-9.23,19.53-3.9,11.34-7.66,22.33-17.11,28.38-.32,.21-.64,.41-.96,.59-8.97,5.18-15.72,1.07-23.1-3.4-4.7-2.84-9.68-5.89-15.31-6.23-2.98-.17-2.52-4.87,.46-6.58,.62-.36,1.25-.55,1.83-.51,6.59,.39,11.99,3.63,17.07,6.74,18.55,11.05,25.29-3.91,30.46-18.94,3.14-9.21,5.59-18.45,11.61-25.37,2.97-3.41,6.67-5.55,10.45-6.21,.56-6.1,4.81-10.83,9.97-10.83,5.54,0,10.03,5.47,10.03,12.21s-4.49,12.21-10.03,12.21c-4,0-7.46-2.85-9.07-6.98Z"/>
                <g>
                  <path class="cls-8" d="M160.79,51.94l-42.3,24.42c-1.79,1.04-3.21,.23-3.22-1.78l-.02-6.24c0-2.01,1.41-4.51,3.2-5.54l42.3-24.42c1.74-1.01,3.17-.15,3.17,1.86l.02,6.24c0,2-1.41,4.45-3.15,5.46Z"/>
                  <path class="cls-8" d="M80.92,118.04c-1.23,.71-2.22,.14-2.23-1.27v-4.39c-.02-1.41,.97-3.13,2.2-3.83l80.87-46.69c1.23-.71,2.22-.14,2.23,1.27v4.4c.02,1.41-.97,3.12-2.2,3.83l-80.87,46.69Z"/>
                </g>
              </g>
              <g>
                <path class="cls-60" d="M66.62,124.57c6.21-5.75,21.47-17.45,33.44-28.45,10.69-9.83,10.7-15.05,9.94-27.06l-2.22-35.06-.48,.28-40.71,71.54,.03,18.75Z"/>
                <path class="cls-63" d="M66.58,105.86l30.13-17.4c5.95-3.44,10.77-11.79,10.75-18.58l-.1-35.62-40.78,71.59Z"/>
              </g>
            </g>
            <g>
              <path class="cls-31" d="M639.51,117.27l-.27,93.03c-.02,6.79-4.87,9.56-10.78,6.14l-87-50.23c-5.91-3.41-10.73-11.76-10.71-18.55l.36-128.66c.02-6.79,4.87-9.55,10.78-6.14l56.83,32.81,40.78,71.59Z"/>
              <g>
                <path class="cls-12" d="M545.3,63.34l42.3,24.42c1.79,1.04,3.21,.23,3.22-1.78l.02-6.24c0-2.01-1.41-4.51-3.2-5.54l-42.3-24.42c-1.75-1.01-3.17-.15-3.17,1.86l-.02,6.24c0,2,1.41,4.45,3.15,5.46Z"/>
                <path class="cls-12" d="M625.23,131.95c1.23,.71,2.22,.14,2.23-1.27v-4.39c.02-1.41-.97-3.13-2.2-3.83l-80.87-46.69c-1.23-.71-2.22-.14-2.23,1.27v4.4c-.02,1.41,.97,3.12,2.2,3.83l80.87,46.69Z"/>
                <path class="cls-12" d="M625.23,153.87c1.23,.71,2.22,.14,2.23-1.27v-4.39c.02-1.41-.97-3.13-2.2-3.83l-80.87-46.69c-1.23-.71-2.22-.14-2.23,1.27v4.4c-.02,1.41,.97,3.12,2.2,3.83l80.87,46.69Z"/>
                <path class="cls-12" d="M625.23,175.79c1.23,.71,2.22,.14,2.23-1.27v-4.39c.02-1.41-.97-3.12-2.2-3.83l-80.87-46.69c-1.23-.71-2.22-.14-2.23,1.27v4.4c-.02,1.41,.97,3.12,2.2,3.83l80.87,46.69Z"/>
                <path class="cls-12" d="M625.23,198.55c1.23,.71,2.22,.14,2.23-1.27v-4.39c.02-1.41-.97-3.13-2.2-3.83l-80.87-46.69c-1.23-.71-2.22-.14-2.23,1.27v4.4c-.02,1.41,.97,3.12,2.2,3.83l80.87,46.69Z"/>
              </g>
              <g>
                <path class="cls-24" d="M639.47,135.98c-6.2-5.75-21.47-17.45-33.44-28.45-10.69-9.83-10.7-15.05-9.94-27.06l2.22-35.07,.48,.28,40.71,71.54-.03,18.75Z"/>
                <path class="cls-33" d="M639.51,117.27l-30.13-17.4c-5.95-3.44-10.77-11.79-10.75-18.58l.1-35.62,40.78,71.59Z"/>
              </g>
            </g>
            <g>
              <path class="cls-61" d="M444.52,72.02c0-1.2,2.68-14.3,4.07-15.27,1.99-1.39,4.2-3.01,5.47-3.62,4.39-2.12,9.93-2.17,15.97,.49l77.35,35.06c14.06,6.18,25.47,24.46,25.45,40.8l-.45,82.04c0,5.06-1.04,11.7-4.87,15.8-2.73,2.92-7.48,5.74-11.04,6.55-3.66,.83-5.12-1.98-9.6-3.95l-77.35-35.06c-14.08-6.19-25.47-24.46-25.45-40.79l.46-82.04Z"/>
              <path class="cls-8" d="M441.05,74.5c.02-16.33,11.43-24.59,25.51-18.4l77.34,35.06c14.06,6.18,25.47,24.46,25.45,40.8l-.45,82.04c-.02,16.33-11.45,24.58-25.51,18.4l-77.34-35.06c-14.08-6.18-25.47-24.46-25.45-40.8l.46-82.04Z"/>
              <path class="cls-36" d="M441.05,74.5c.02-16.34,11.43-24.59,25.51-18.4l77.35,35.06c14.06,6.18,25.47,24.46,25.45,40.79v1.19c-1.25-.68-2.51-1.3-3.78-1.86l-124.53-56.45v-.33Z"/>
              <g>
                <path class="cls-8" d="M454.73,60.7c2.72,.33,5.16,3.24,5.45,6.49,.29,3.25-1.68,5.61-4.41,5.27-2.72-.34-5.16-3.24-5.45-6.49-.29-3.25,1.68-5.61,4.41-5.27Z"/>
                <path class="cls-8" d="M467.66,66.33c2.72,.33,5.16,3.24,5.45,6.49,.29,3.25-1.68,5.61-4.41,5.27-2.72-.34-5.16-3.24-5.45-6.49-.29-3.25,1.68-5.61,4.41-5.27Z"/>
                <path class="cls-8" d="M481.66,72.53c2.72,.33,5.16,3.24,5.45,6.49,.29,3.25-1.68,5.61-4.41,5.27-2.72-.34-5.16-3.24-5.45-6.49-.29-3.25,1.68-5.61,4.41-5.27Z"/>
              </g>
            </g>
            <g>
              <g>
                <path class="cls-29" d="M268.34,81.01c-8.12,1.99-12.87,5.54-18.14,10.99,.06-1.17,.13,3.2,.08-3.54-.02-2.39-5.51-26.82-8.59-28.85-3.71-2.45-7.72-4.82-9.2-5.54-5.16-2.53-11.15-3.26-17.54-1.73-9.72,2.33-18.52,9.46-24.91,19.11-6.4,9.67-10.38,27.51-10.37,34.33,0,6.82,.04,2.37,.11,3.53-5.41-2.87-10.27-4.09-18.62-2.05-8.36,2.05-18.88,9.7-25.41,19.52-6.54,9.84-10.65,22.3-10.68,34.87-.02,9.82,2.44,18.25,6.64,24.73,4.23,6.53,12.41,11.85,18.2,15.08,16.62,9.51,48.66-12.85,65.57-17.19,17.94-4.61,35.8-9.19,53.54-13.74,9.68-2.48,18.35-9.73,24.56-19.44,6.2-9.69,9.94-21.88,9.81-34.18-.03-2.53-4.71-25.75-5.97-26.77-10.33-8.39-20.81-11.16-29.09-9.13Z"/>
                <path class="cls-47" d="M274.46,84.78c-8.12,1.99-12.87,5.54-18.14,10.99,.06-1.17,.13,3.2,.08-3.54-.04-6.75-4.06-22.49-10.44-29.02-6.38-6.53-15.17-9.42-24.89-7.1-9.72,2.33-18.52,9.46-24.91,19.11-6.4,9.68-10.38,27.51-10.37,34.33,0,6.82,.04,2.37,.11,3.53-5.41-2.87-10.27-4.09-18.62-2.05-8.36,2.05-18.88,9.7-25.41,19.52-6.54,9.84-10.65,22.24-10.68,34.87-.03,12.63,4.03,23.08,10.57,29.72,6.53,6.62,15.58,9.41,25.52,6.85,18.18-4.67,36.31-9.32,54.32-13.95,17.94-4.61,35.8-9.19,53.55-13.74,9.68-2.48,18.35-9.73,24.56-19.44,6.2-9.69,9.94-21.88,9.81-34.18-.13-12.29-4.09-22.42-10.41-28.91-6.34-6.5-16.53-8.99-24.65-6.99Z"/>
              </g>
              <g>
                <polygon class="cls-8" points="255.7 140.71 272.35 136.27 246.16 170.72 219.81 150.31 236.45 145.86 236.4 107.07 255.65 101.93 255.7 140.71"/>
                <polygon class="cls-8" points="198 142.68 181.34 147.13 207.53 112.68 233.89 133.09 217.24 137.54 217.29 176.33 198.04 181.47 198 142.68"/>
              </g>
            </g>
            <g>
              <path class="cls-8" d="M54.53,177.21c-18.01,11.34-35.28,2.23-38.58-20.33-3.3-22.56,8.62-50.04,26.63-61.38,18.01-11.33,35.28-2.24,38.58,20.33,3.3,22.56-8.63,50.04-26.64,61.38Z"/>
              <path class="cls-54" d="M51.81,168.8c14.59-9.19,24.26-31.46,21.58-49.74-2.67-18.28-16.67-25.65-31.26-16.47-14.59,9.19-24.26,31.45-21.58,49.74,2.67,18.28,16.67,25.66,31.26,16.47h0Zm1.13,7.75c-6.5,4.09-10.2,7.38-15.89,6.48-3.18-.51-8.85-3.61-11.48-5.53-5.67-4.14-9.77-11.42-11.21-21.28-3.3-22.56,8.63-50.04,26.63-61.38,8.76-5.52,17.35-6.19,24.24-2.83,1.28,.62,4.33,2.1,5.48,3,5.39,4.2,7.46,10.62,8.86,20.16,3.3,22.56-8.63,50.04-26.64,61.38Z"/>
              <path class="cls-56" d="M26.08,150.14l3.94-2.84,.34,2.31-4.03,2.18c-.04-.26-.08-.53-.13-.79-.04-.29-.08-.57-.11-.86h0Zm7.71-23.02l-1.07,2.45-3.17-2.1c.25-.59,.5-1.18,.77-1.76l3.47,1.4h0Zm35.01-14.04l-3.26,4.46-1.02-1.69,3.54-3.98c.26,.39,.5,.79,.73,1.21h0Zm-1.19,10.56l4.03-2.18c.05,.28,.09,.56,.14,.85,.04,.27,.07,.53,.11,.8l-3.94,2.84-.34-2.31h0Zm4.17,9.75c-.08,.61-.17,1.23-.28,1.84l-4.03,.77,.39-2.58,3.92-.04h0Zm-9.66,23.45c-.37,.48-.74,.94-1.12,1.4l-2.44-3.4,1.58-1.96,1.99,3.96h0Zm-16.24,5.97l-1.12,5.64c-.44,.06-.88,.11-1.31,.13l.6-5.59,1.83-.19h0Zm-6.98-.77l-2.53,5.21c-.37-.18-.74-.37-1.1-.58l2.09-5.44,1.54,.81h0Zm9.22-25.09l-9.99,23.79,.66,.35,9.69-21.13,.07,.6,1.84-1.16-.45-2.62,1.53-3.33-.72-.39,8.74-20.86-.22-.12-8.96,20.74-.37-.2-.5,1.2-2.83-16.39-.79,.5,2.3,19.03h0Zm-12.25-20.51c.37-.48,.74-.95,1.13-1.4l2.41,3.36-1.57,1.96-1.97-3.92h0Zm8.29-7.92c.22-.15,.44-.29,.66-.43,.22-.14,.44-.27,.66-.4l.99,4.8-1.84,1.16-.47-5.13h0Zm7.94,1.91l1.11-5.58c.44-.06,.88-.11,1.32-.14l-.59,5.53-1.83,.18h0Zm6.97,.77l2.51-5.17c.38,.18,.74,.37,1.11,.58l-2.07,5.4-1.55-.81h0Zm9.37,34.59c-.24,.59-.5,1.18-.76,1.76l-3.5-1.41,1.06-2.45,3.2,2.11h0Zm-14.62,18.98c-.22,.15-.44,.29-.66,.43-.22,.14-.44,.27-.66,.4l-1-4.86,1.84-1.16,.47,5.19h0Zm-27.61-24.93c.08-.61,.17-1.23,.28-1.84l4.02-.77-.4,2.58-3.9,.04h0Zm7.24,17.55l-3.56,4c-.25-.39-.5-.79-.73-1.21l3.27-4.48,1.02,1.69Z"/>
              <path class="cls-40" d="M55.81,170.94c14.59-9.19,24.26-31.46,21.58-49.74-2.67-18.28-16.67-25.66-31.26-16.47-14.59,9.19-24.26,31.45-21.58,49.74,2.67,18.28,16.67,25.66,31.26,16.47h0Zm1.13,7.75c-18.01,11.34-35.28,2.23-38.58-20.33-3.3-22.56,8.62-50.04,26.63-61.38,18.01-11.33,35.28-2.24,38.58,20.33,3.3,22.56-8.63,50.04-26.64,61.38Z"/>
            </g>
            <g>
              <path class="cls-7" d="M634.09,523.86h.56v95.59h-.07c-.67,18.17-7.06,35.49-18.12,51.35v-102.1c9.73-13.95,15.84-29.03,17.63-44.84Z"/>
              <path class="cls-23" d="M439.63,789.44c73.97-7.92,135.93-36.67,168.54-75.8v-123.08c-32.6,39.12-94.57,67.87-168.54,75.79v123.08Z"/>
              <path class="cls-37" d="M591.76,701.54c16.92-14.8,29.27-31.64,35.81-49.78v-58.73c-6.54,18.14-18.89,34.98-35.81,49.78v58.74Z"/>
            </g>
            <g>
              <path class="cls-16" d="M500.21,671.14l.2,70.15c.01,5.12,3.67,7.21,8.13,4.63l65.6-37.88c4.46-2.57,8.09-8.87,8.08-13.99l-.27-97.01c-.01-5.12-3.67-7.2-8.13-4.63l-42.85,24.74-30.75,53.99Z"/>
              <g>
                <path class="cls-61" d="M571.25,630.47l-31.9,18.41c-1.35,.78-2.42,.17-2.43-1.34v-4.7c-.02-1.51,1.05-3.4,2.4-4.18l31.9-18.42c1.32-.76,2.39-.11,2.39,1.41v4.71c.02,1.51-1.05,3.36-2.36,4.12Z"/>
                <path class="cls-61" d="M511.03,680.32c-.93,.54-1.68,.11-1.68-.96v-3.31c-.01-1.06,.73-2.36,1.66-2.89l60.98-35.21c.93-.53,1.68-.11,1.68,.96v3.32c.01,1.06-.73,2.35-1.66,2.89l-60.98,35.21Z"/>
              </g>
              <g>
                <path class="cls-15" d="M500.24,685.25c4.68-4.34,16.19-13.16,25.21-21.45,8.06-7.41,8.07-11.35,7.49-20.4l-1.67-26.44-.36,.21-30.7,53.95,.02,14.14Z"/>
                <path class="cls-6" d="M500.21,671.14l22.72-13.12c4.49-2.59,8.12-8.89,8.11-14.01l-.08-26.86-30.75,53.99Z"/>
              </g>
              <g>
                <path class="cls-61" d="M549.84,716.16c9.37-7.72,14.97-23.76,12.52-35.83-2.45-12.07-12.04-15.6-21.41-7.88-9.36,7.72-14.97,23.77-12.51,35.84,2.46,12.08,12.04,15.6,21.41,7.88Z"/>
                <polygon class="cls-6" points="536.07 686.69 533.52 688.52 551.95 706.2 558.88 687.99 555.48 689.94 550.94 696.39 536.07 686.69"/>
              </g>
            </g>
            <g>
              <path class="cls-61" d="M80.51,597.98c.53-4.06-.57-6.52,1.44-8.82,1.28-1.46,5.33-3.35,7.03-3.98,3.28-1.23,7.19-.85,11.2,1.47l51.21,30.47c9.32,5.4,15.66,19.24,14.13,30.89l-7.94,58.49c-.47,3.61-1.82,8.27-4.9,10.93-2.19,1.89-5.87,3.86-8.45,4.18-2.65,.33-3.35-2.06-6.33-3.78l-51.2-30.46c-9.34-5.41-15.66-19.25-14.13-30.9l7.94-58.49Z"/>
              <path class="cls-8" d="M77.37,599.83c1.53-11.65,10.33-16.73,19.67-11.33l51.2,30.46c9.33,5.4,15.66,19.24,14.13,30.9l-7.94,58.49c-1.53,11.65-10.35,16.73-19.67,11.33l-51.2-30.47c-9.34-5.41-15.66-19.25-14.14-30.9l7.94-58.49Z"/>
              <path class="cls-9" d="M77.37,599.83c1.53-11.65,10.33-16.73,19.67-11.33l51.21,30.46c9.32,5.4,15.66,19.25,14.13,30.9l-.75,5.49c-1.01-.77-2.05-1.47-3.12-2.09l-81.83-48.36,.69-5.07Z"/>
              <g>
                <g>
                  <path class="cls-55" d="M135.09,622.93c1.87,.93,2.72,3.04,1.89,4.7-.83,1.66-3.02,2.25-4.89,1.32-1.87-.93-2.72-3.04-1.89-4.7,.83-1.66,3.02-2.25,4.89-1.32Z"/>
                  <path class="cls-20" d="M135.29,623.88c2.24,2.37-.37,5.65-3.34,4.22,1.86,1.38,3.89,.57,4.56-.83,.49-1.03,.22-2.39-1.21-3.39Z"/>
                  <path class="cls-45" d="M146.96,601.33c4.94,2.32,6.18,8.81,3.67,15.46l-3.24-1.91c1.32-4.36,1.34-8.23-2.19-9.89-3.52-1.66-9.95,1.3-12.71,6.51-2.76,5.21-2.29,10.54,1.59,12.37,1.07,.5,1.31,1.48,.99,2.47-.37,1.13-1.6,1.42-2.52,1.07-.18-.07-.36-.15-.54-.23-5.6-2.63-6.84-9.75-2.87-17.26,3.97-7.51,12.2-11.22,17.8-8.59Z"/>
                  <path class="cls-62" d="M149.88,616.34l-2.49-1.47c1.32-4.36,1.34-8.23-2.19-9.89-3.52-1.66-9.95,1.3-12.71,6.51-2.76,5.21-2.29,10.54,1.59,12.37,.71,.33,1.05,.87,1.11,1.49-1.58-.08-4.13-1.66-5.13-4.94-1.7-5.55,1.5-11.38,5.74-14.81,4.11-3.32,8.75-3.44,11.11-2.13,5.72,3.16,3.79,10.3,2.95,12.86Z"/>
                </g>
                <g>
                  <path class="cls-55" d="M116.09,611.57c1.87,.93,2.72,3.04,1.89,4.7-.83,1.66-3.02,2.25-4.89,1.32-1.87-.93-2.72-3.04-1.89-4.7,.83-1.66,3.02-2.25,4.89-1.32Z"/>
                  <path class="cls-20" d="M116.3,612.52c2.24,2.37-.37,5.65-3.34,4.22,1.86,1.38,3.89,.57,4.56-.83,.49-1.03,.22-2.39-1.21-3.39Z"/>
                  <path class="cls-45" d="M127.97,589.97c4.94,2.32,6.18,8.81,3.67,15.46l-3.24-1.91c1.32-4.36,1.34-8.23-2.19-9.89-3.52-1.66-9.95,1.3-12.71,6.52-2.76,5.21-2.29,10.54,1.59,12.37,1.07,.5,1.31,1.48,.99,2.47-.37,1.13-1.6,1.42-2.52,1.07-.18-.07-.36-.15-.54-.23-5.6-2.63-6.84-9.75-2.87-17.26,3.97-7.51,12.21-11.22,17.8-8.59Z"/>
                  <path class="cls-62" d="M130.88,604.98l-2.49-1.47c1.32-4.36,1.34-8.23-2.19-9.89-3.52-1.66-9.95,1.3-12.71,6.52-2.76,5.21-2.29,10.54,1.59,12.37,.71,.33,1.05,.87,1.11,1.49-1.58-.08-4.13-1.66-5.13-4.94-1.7-5.55,1.5-11.38,5.74-14.81,4.11-3.32,8.75-3.44,11.11-2.13,5.72,3.16,3.79,10.3,2.95,12.86Z"/>
                </g>
                <g>
                  <path class="cls-55" d="M97.33,600.41c1.87,.93,2.72,3.04,1.89,4.7-.83,1.66-3.02,2.25-4.89,1.32-1.87-.93-2.72-3.04-1.89-4.7,.83-1.66,3.02-2.25,4.89-1.32Z"/>
                  <path class="cls-20" d="M97.53,601.36c2.24,2.37-.37,5.65-3.34,4.22,1.86,1.38,3.89,.57,4.56-.84,.49-1.03,.22-2.39-1.21-3.39Z"/>
                  <path class="cls-45" d="M109.2,578.81c4.94,2.32,6.18,8.81,3.67,15.46l-3.24-1.91c1.32-4.36,1.34-8.23-2.19-9.89-3.52-1.66-9.95,1.3-12.71,6.52-2.76,5.21-2.29,10.54,1.59,12.37,1.07,.5,1.31,1.48,.99,2.47-.37,1.13-1.6,1.42-2.52,1.07-.18-.07-.36-.15-.54-.23-5.6-2.63-6.84-9.75-2.87-17.26,3.97-7.51,12.21-11.23,17.8-8.59Z"/>
                  <path class="cls-62" d="M112.12,593.82l-2.49-1.47c1.32-4.36,1.34-8.23-2.19-9.89-3.52-1.66-9.95,1.3-12.71,6.52-2.76,5.21-2.29,10.54,1.59,12.37,.71,.33,1.05,.87,1.11,1.49-1.58-.08-4.13-1.66-5.13-4.94-1.7-5.55,1.5-11.38,5.74-14.81,4.11-3.32,8.75-3.44,11.11-2.13,5.72,3.16,3.79,10.3,2.95,12.86Z"/>
                </g>
              </g>
              <g>
                <path class="cls-30" d="M84.92,617.2c.29-2.2,1.95-3.16,3.71-2.14l9.66,5.75c1.76,1.02,2.95,3.63,2.67,5.83l-1.5,11.03c-.29,2.2-1.95,3.16-3.71,2.14l-9.66-5.75c-1.76-1.02-2.96-3.63-2.67-5.83l1.5-11.03Z"/>
                <path class="cls-26" d="M108.89,631.36c.29-2.2,1.95-3.16,3.71-2.14l9.66,5.75c1.76,1.02,2.95,3.63,2.67,5.83l-1.5,11.03c-.29,2.2-1.95,3.16-3.71,2.14l-9.66-5.75c-1.76-1.02-2.95-3.63-2.67-5.83l1.5-11.03Z"/>
                <path class="cls-39" d="M132.87,645.53c.29-2.2,1.95-3.16,3.71-2.14l9.66,5.75c1.76,1.02,2.96,3.63,2.67,5.83l-1.5,11.03c-.29,2.2-1.95,3.16-3.71,2.14l-9.66-5.75c-1.76-1.02-2.95-3.63-2.67-5.83l1.5-11.03Z"/>
                <path class="cls-74" d="M81.49,641.8c.29-2.2,1.95-3.16,3.71-2.14l9.66,5.75c1.76,1.02,2.95,3.63,2.67,5.83l-1.5,11.03c-.29,2.2-1.95,3.16-3.71,2.14l-9.66-5.75c-1.76-1.02-2.95-3.63-2.67-5.83l1.5-11.03Z"/>
                <path class="cls-72" d="M105.47,655.96c.29-2.2,1.95-3.16,3.71-2.14l9.66,5.75c1.76,1.02,2.95,3.63,2.67,5.83l-1.5,11.03c-.29,2.2-1.95,3.16-3.71,2.14l-9.66-5.75c-1.76-1.02-2.95-3.63-2.67-5.83l1.5-11.03Z"/>
                <path class="cls-14" d="M129.44,670.13c.29-2.2,1.95-3.16,3.71-2.14l9.66,5.75c1.76,1.02,2.95,3.63,2.67,5.83l-1.5,11.03c-.29,2.2-1.95,3.16-3.71,2.14l-9.66-5.75c-1.76-1.02-2.96-3.63-2.67-5.83l1.5-11.03Z"/>
                <path class="cls-50" d="M77.91,666.08c.29-2.2,1.95-3.16,3.71-2.14l9.66,5.75c1.76,1.02,2.95,3.63,2.67,5.83l-1.5,11.03c-.29,2.2-1.95,3.16-3.71,2.14l-9.66-5.75c-1.76-1.02-2.95-3.63-2.67-5.83l1.5-11.03Z"/>
                <path class="cls-71" d="M101.89,680.25c.29-2.2,1.95-3.16,3.71-2.14l9.66,5.75c1.76,1.02,2.95,3.63,2.67,5.83l-1.5,11.03c-.29,2.2-1.95,3.16-3.71,2.14l-9.66-5.75c-1.76-1.02-2.95-3.63-2.67-5.83l1.5-11.03Z"/>
                <path class="cls-53" d="M125.86,694.42c.29-2.2,1.95-3.16,3.71-2.14l9.66,5.75c1.76,1.02,2.95,3.63,2.67,5.83l-1.5,11.03c-.29,2.2-1.95,3.16-3.71,2.14l-9.66-5.75c-1.76-1.02-2.96-3.63-2.67-5.83l1.5-11.03Z"/>
              </g>
            </g>
            <path class="cls-13" d="M109.21,234.52c5.49,0,9.95,4.6,9.95,10.27s-4.45,10.27-9.95,10.27-9.95-4.6-9.95-10.27,4.45-10.27,9.95-10.27Z"/>
          </g>
          <g>
            <polygon class="cls-78" points="476.19 150.94 492.08 168.93 492.75 161.39 482.43 149.98 493.77 149.7 494.44 142.15 476.89 142.98 476.19 150.94"/>
            <polygon class="cls-77" points="491.93 179.17 497.66 182.12 513.13 139.16 507.4 136.22 491.93 179.17"/>
            <polygon class="cls-75" points="512.44 151.4 511.78 158.95 522.09 170.35 510.75 170.63 510.09 178.18 527.63 177.35 528.33 169.39 512.44 151.4"/>
          </g>
        </g>
      </g>
    </g>
  </g>
</svg>