<svg width="766" height="334" viewBox="0 0 766 334" fill="none" xmlns="http://www.w3.org/2000/svg">
<path d="M144.049 45.4V36.44H146.929C146.715 36.44 153.862 36.6533 168.369 37.08C180.955 37.2933 194.715 37.2933 209.649 37.08L235.249 36.44H238.769V45.4V54.36H230.769C219.249 54.7867 213.169 55.64 212.529 56.92L267.249 208.92L293.169 137.24C310.235 90.0933 318.769 65.88 318.769 64.6C318.769 63.32 318.129 61.9333 316.849 60.44C313.435 57.0267 307.462 55 298.929 54.36H295.729V45.4V36.44H298.609L319.729 37.08C342.342 37.5067 358.875 37.2933 369.329 36.44H371.569V45.4V54.36H368.689C364.849 54.36 360.369 54.7867 355.249 55.64C346.929 57.3467 341.489 60.2267 338.929 64.28C338.715 64.4933 326.769 97.1333 303.089 162.2C280.262 226.627 268.529 259.16 267.889 259.8C267.675 260.44 267.035 260.973 265.969 261.4C265.115 261.827 262.449 262.04 257.969 262.04C253.275 262.04 250.502 261.827 249.649 261.4C248.582 260.973 247.942 260.44 247.729 259.8C247.302 259.373 235.035 225.56 210.929 158.36C186.822 91.16 174.555 57.3467 174.129 56.92C173.275 55.64 170.182 54.8933 164.849 54.68C162.929 54.4667 158.555 54.36 151.729 54.36H144.049V45.4ZM385.009 45.4V36.44H388.529L414.129 37.08C428.849 37.2933 443.569 37.2933 458.289 37.08L483.889 36.44H487.409V45.4V54.36H478.449C463.515 54.36 455.622 55.1067 454.769 56.6C454.555 56.8133 454.449 72.92 454.449 104.92L454.769 152.6L497.969 109.4C526.982 80.8133 541.702 66.0933 542.129 65.24C543.195 63.1067 543.195 61.1867 542.129 59.48C540.849 56.92 537.542 55.2133 532.209 54.36H529.969V45.4V36.44H533.489L557.809 37.08C571.889 37.2933 583.302 37.2933 592.049 37.08L607.089 36.44H609.009V45.4V54.36H603.249C585.115 55 572.209 58.84 564.529 65.88L535.409 94.68L509.169 120.92L544.049 174.36C567.089 209.773 579.569 228.44 581.489 230.36C584.262 233.133 587.569 234.947 591.409 235.8C596.529 236.653 602.289 237.08 608.689 237.08H613.489V246.04V255H610.609L591.089 254.36C579.995 254.147 566.769 254.147 551.409 254.36L525.169 255H521.649V246.04V237.08H525.809C529.222 236.653 531.355 236.44 532.209 236.44C535.195 235.373 537.009 234.2 537.649 232.92C538.715 231.213 538.715 229.293 537.649 227.16C537.435 226.093 528.475 212.12 510.769 185.24L484.849 145.24L469.489 160.28L454.449 175V204.76C454.449 224.6 454.555 234.627 454.769 234.84C455.622 236.333 463.515 237.08 478.449 237.08H487.409V246.04V255H483.889L458.289 254.36C443.569 254.147 428.849 254.147 414.129 254.36L388.529 255H385.009V246.04V237.08H393.969C408.902 237.08 416.795 236.333 417.649 234.84V56.6C416.795 55.1067 408.902 54.36 393.969 54.36H385.009V45.4Z" fill="#CE5FF8"/>
</svg>
