<svg
  data-v-70b83f88=""
  version="1.0"
  xmlns="http://www.w3.org/2000/svg"
  xmlns:xlink="http://www.w3.org/1999/xlink"
  width="100%"
  height="100%"
  viewBox="0 0 340.000000 250.000000"
  preserveAspectRatio="xMidYMid meet"
  color-interpolation-filters="sRGB"
  style="margin: auto"
>
  <g
    data-v-70b83f88=""
    fill="#C770F0"
    class="bordersvg b-d1"
    transform="translate(47.73500061035156,89.18999862670898)"
  >
    <polyline
      stroke="#C770F0"
      stroke-width="3"
      fill-opacity="0"
      points="122.26499938964844,20 122.26499938964844,0 0,0 0,71.6200008392334 122.26499938964844,71.6200008392334 122.26499938964844,51.6200008392334"
    ></polyline>
    <g transform="translate(0,20)">
      <g>
        <rect
          data-gra="graph-name-bg"
          stroke-width="2"
          class="i-icon-bg"
          x="0"
          y="0"
          width="244.52999877929688"
          height="31.6200008392334"
          fill-opacity="0"
        ></rect>
        <!---->
        <!---->
      </g>
      <g transform="translate(10,3)">
        <g data-gra="path-name" fill-rule="" class="tp-name">
          <g transform="scale(1)">
            <g>
              <path
                d="M19.97-22.85L19.97-24.42Q19.97-24.93 19.63-25.26L19.63-25.26Q19.27-25.62 18.79-25.62L18.79-25.62 3.42-25.62Q2.94-25.62 2.58-25.26L2.58-25.26Q2.25-24.93 2.25-24.42L2.25-24.42 2.25-1.18Q2.25-0.69 2.58-0.36L2.58-0.36Q2.94 0 3.42 0L3.42 0 18.79 0Q19.27 0 19.63-0.36L19.63-0.36Q19.97-0.69 19.97-1.18L19.97-1.18 19.97-2.75Q19.97-3.26 19.63-3.59L19.63-3.59Q19.27-3.95 18.79-3.95L18.79-3.95 7.37-3.95Q6.89-3.95 6.53-4.29L6.53-4.29Q6.19-4.64 6.19-5.13L6.19-5.13 6.19-20.49Q6.19-20.98 6.53-21.31L6.53-21.31Q6.89-21.67 7.37-21.67L7.37-21.67 18.79-21.67Q19.27-21.67 19.63-22.01L19.63-22.01Q19.97-22.36 19.97-22.85L19.97-22.85ZM35.05-11.32L35.05-14.3Q35.05-14.78 34.56-14.78L34.56-14.78 32.56-14.78Q32.09-14.78 32.09-14.3L32.09-14.3 32.09-11.32Q32.09-10.83 32.56-10.83L32.56-10.83 34.56-10.83Q35.05-10.83 35.05-11.32L35.05-11.32ZM37.31-3.95L29.83-3.95Q29.34-3.95 28.99-4.29L28.99-4.29Q28.65-4.64 28.65-5.13L28.65-5.13 28.65-20.49Q28.65-20.98 28.99-21.31L28.99-21.31Q29.34-21.67 29.83-21.67L29.83-21.67 37.31-21.67Q37.8-21.67 38.14-21.31L38.14-21.31Q38.49-20.98 38.49-20.49L38.49-20.49 38.49-5.13Q38.49-4.64 38.14-4.29L38.14-4.29Q37.8-3.95 37.31-3.95L37.31-3.95ZM41.24-25.62L25.88-25.62Q25.39-25.62 25.06-25.26L25.06-25.26Q24.7-24.93 24.7-24.42L24.7-24.42 24.7-1.18Q24.7-0.69 25.06-0.36L25.06-0.36Q25.39 0 25.88 0L25.88 0 41.24 0Q41.73 0 42.09-0.36L42.09-0.36Q42.42-0.69 42.42-1.18L42.42-1.18 42.42-24.42Q42.42-24.93 42.09-25.26L42.09-25.26Q41.73-25.62 41.24-25.62L41.24-25.62ZM52.99-5.13L52.99-24.42Q52.99-24.93 52.64-25.26L52.64-25.26Q52.3-25.62 51.8-25.62L51.8-25.62 50.23-25.62Q49.74-25.62 49.4-25.26L49.4-25.26Q49.05-24.93 49.05-24.42L49.05-24.42 49.05-1.18Q49.05-0.69 49.4-0.36L49.4-0.36Q49.74 0 50.23 0L50.23 0 65.59 0Q66.08 0 66.43-0.36L66.43-0.36Q66.77-0.69 66.77-1.18L66.77-1.18 66.77-2.75Q66.77-3.26 66.43-3.59L66.43-3.59Q66.08-3.95 65.59-3.95L65.59-3.95 54.17-3.95Q53.69-3.95 53.33-4.29L53.33-4.29Q52.99-4.64 52.99-5.13L52.99-5.13ZM87.13-3.95L71.76-3.95Q71.28-3.95 70.94-3.59L70.94-3.59Q70.58-3.26 70.58-2.75L70.58-2.75 70.58-1.18Q70.58-0.69 70.94-0.36L70.94-0.36Q71.28 0 71.76 0L71.76 0 87.13 0Q87.61 0 87.97-0.36L87.97-0.36Q88.31-0.69 88.31-1.18L88.31-1.18 88.31-2.75Q88.31-3.26 87.97-3.59L87.97-3.59Q87.61-3.95 87.13-3.95L87.13-3.95ZM87.13-14.78L71.76-14.78Q71.28-14.78 70.94-14.43L70.94-14.43Q70.58-14.09 70.58-13.59L70.58-13.59 70.58-12.01Q70.58-11.53 70.94-11.17L70.94-11.17Q71.28-10.83 71.76-10.83L71.76-10.83 87.13-10.83Q87.61-10.83 87.97-11.17L87.97-11.17Q88.31-11.53 88.31-12.01L88.31-12.01 88.31-13.59Q88.31-14.09 87.97-14.43L87.97-14.43Q87.61-14.78 87.13-14.78L87.13-14.78ZM87.13-25.62L71.76-25.62Q71.28-25.62 70.94-25.26L70.94-25.26Q70.58-24.93 70.58-24.42L70.58-24.42 70.58-22.85Q70.58-22.36 70.94-22.01L70.94-22.01Q71.28-21.67 71.76-21.67L71.76-21.67 87.13-21.67Q87.61-21.67 87.97-22.01L87.97-22.01Q88.31-22.36 88.31-22.85L88.31-22.85 88.31-24.42Q88.31-24.93 87.97-25.26L87.97-25.26Q87.61-25.62 87.13-25.62L87.13-25.62ZM106.68-5.13L106.68-20.49Q106.68-20.98 107.02-21.31L107.02-21.31Q107.37-21.67 107.86-21.67L107.86-21.67 119.28-21.67Q119.76-21.67 120.12-22.01L120.12-22.01Q120.45-22.36 120.45-22.85L120.45-22.85 120.45-24.42Q120.45-24.93 120.12-25.26L120.12-25.26Q119.76-25.62 119.28-25.62L119.28-25.62 103.91-25.62Q103.43-25.62 103.09-25.26L103.09-25.26Q102.73-24.93 102.73-24.42L102.73-24.42 102.73-1.18Q102.73-0.69 103.09-0.36L103.09-0.36Q103.43 0 103.91 0L103.91 0 119.28 0Q119.76 0 120.12-0.36L120.12-0.36Q120.45-0.69 120.45-1.18L120.45-1.18 120.45-13.59Q120.45-14.09 120.12-14.43L120.12-14.43Q119.76-14.78 119.28-14.78L119.28-14.78 112.78-14.78Q112.3-14.78 111.94-14.43L111.94-14.43Q111.6-14.09 111.6-13.59L111.6-13.59 111.6-12.01Q111.6-11.53 111.94-11.17L111.94-11.17Q112.3-10.83 112.78-10.83L112.78-10.83 115.35-10.83Q115.83-10.83 116.17-10.48L116.17-10.48Q116.53-10.14 116.53-9.66L116.53-9.66 116.53-5.13Q116.53-4.64 116.17-4.29L116.17-4.29Q115.83-3.95 115.35-3.95L115.35-3.95 107.86-3.95Q107.37-3.95 107.02-4.29L107.02-4.29Q106.68-4.64 106.68-5.13L106.68-5.13ZM136.42-11.32L136.42-14.3Q136.42-14.78 135.93-14.78L135.93-14.78 133.93-14.78Q133.46-14.78 133.46-14.3L133.46-14.3 133.46-11.32Q133.46-10.83 133.93-10.83L133.93-10.83 135.93-10.83Q136.42-10.83 136.42-11.32L136.42-11.32ZM138.68-3.95L131.2-3.95Q130.71-3.95 130.35-4.29L130.35-4.29Q130.02-4.64 130.02-5.13L130.02-5.13 130.02-20.49Q130.02-20.98 130.35-21.31L130.35-21.31Q130.71-21.67 131.2-21.67L131.2-21.67 138.68-21.67Q139.17-21.67 139.5-21.31L139.5-21.31Q139.86-20.98 139.86-20.49L139.86-20.49 139.86-5.13Q139.86-4.64 139.5-4.29L139.5-4.29Q139.17-3.95 138.68-3.95L138.68-3.95ZM142.61-25.62L127.25-25.62Q126.76-25.62 126.42-25.26L126.42-25.26Q126.07-24.93 126.07-24.42L126.07-24.42 126.07-1.18Q126.07-0.69 126.42-0.36L126.42-0.36Q126.76 0 127.25 0L127.25 0 142.61 0Q143.1 0 143.45-0.36L143.45-0.36Q143.79-0.69 143.79-1.18L143.79-1.18 143.79-24.42Q143.79-24.93 143.45-25.26L143.45-25.26Q143.1-25.62 142.61-25.62L142.61-25.62ZM155.49-21.67L161.74-21.67Q162.22-21.67 162.58-21.31L162.58-21.31Q162.91-20.98 162.91-20.49L162.91-20.49 162.91-15.96Q162.91-15.48 162.58-15.12L162.58-15.12Q162.22-14.78 161.74-14.78L161.74-14.78 155.49-14.78Q155-14.78 154.64-15.12L154.64-15.12Q154.31-15.48 154.31-15.96L154.31-15.96 154.31-20.49Q154.31-20.98 154.64-21.31L154.64-21.31Q155-21.67 155.49-21.67L155.49-21.67ZM166.66-0.6L168.02-1.37Q168.43-1.63 168.57-2.1L168.57-2.1Q168.7-2.56 168.45-2.99L168.45-2.99 164.19-10.39Q164.11-10.54 164.19-10.69L164.19-10.69Q164.28-10.83 164.45-10.83L164.45-10.83 165.68-10.83Q166.17-10.83 166.51-11.17L166.51-11.17Q166.86-11.53 166.86-12.01L166.86-12.01 166.86-24.42Q166.86-24.93 166.51-25.26L166.51-25.26Q166.17-25.62 165.68-25.62L165.68-25.62 151.54-25.62Q151.05-25.62 150.71-25.26L150.71-25.26Q150.36-24.93 150.36-24.42L150.36-24.42 150.36-1.18Q150.36-0.69 150.71-0.36L150.71-0.36Q151.05 0 151.54 0L151.54 0 153.11 0Q153.61 0 153.95-0.36L153.95-0.36Q154.31-0.69 154.31-1.18L154.31-1.18 154.31-9.66Q154.31-10.14 154.64-10.48L154.64-10.48Q155-10.83 155.49-10.83L155.49-10.83 159.23-10.83Q159.4-10.83 159.47-10.69L159.47-10.69 165.03-1.03Q165.29-0.6 165.76-0.47L165.76-0.47Q166.23-0.34 166.66-0.6L166.66-0.6ZM191.32-22.85L191.32-24.42Q191.32-24.93 190.98-25.26L190.98-25.26Q190.63-25.62 190.14-25.62L190.14-25.62 174.78-25.62Q174.29-25.62 173.94-25.26L173.94-25.26Q173.6-24.93 173.6-24.42L173.6-24.42 173.6-12.01Q173.6-11.53 173.94-11.17L173.94-11.17Q174.29-10.83 174.78-10.83L174.78-10.83 186.21-10.83Q186.7-10.83 187.04-10.48L187.04-10.48Q187.39-10.14 187.39-9.66L187.39-9.66 187.39-5.13Q187.39-4.64 187.04-4.29L187.04-4.29Q186.7-3.95 186.21-3.95L186.21-3.95 174.78-3.95Q174.29-3.95 173.94-3.59L173.94-3.59Q173.6-3.26 173.6-2.75L173.6-2.75 173.6-1.18Q173.6-0.69 173.94-0.36L173.94-0.36Q174.29 0 174.78 0L174.78 0 190.14 0Q190.63 0 190.98-0.36L190.98-0.36Q191.32-0.69 191.32-1.18L191.32-1.18 191.32-13.59Q191.32-14.09 190.98-14.43L190.98-14.43Q190.63-14.78 190.14-14.78L190.14-14.78 178.73-14.78Q178.24-14.78 177.88-15.12L177.88-15.12Q177.55-15.48 177.55-15.96L177.55-15.96 177.55-20.49Q177.55-20.98 177.88-21.31L177.88-21.31Q178.24-21.67 178.73-21.67L178.73-21.67 190.14-21.67Q190.63-21.67 190.98-22.01L190.98-22.01Q191.32-22.36 191.32-22.85L191.32-22.85ZM209.64-13.42L216.12-23.8Q216.47-24.38 216.13-25L216.13-25Q215.8-25.62 215.1-25.62L215.1-25.62 213.25-25.62Q212.6-25.62 212.24-25.06L212.24-25.06 206.2-15.33Q205.84-14.75 205.17-14.75L205.17-14.75 202.53-14.75Q202.04-14.75 201.69-15.08L201.69-15.08Q201.35-15.44 201.35-15.92L201.35-15.92 201.35-24.4Q201.35-24.89 201-25.22L201-25.22Q200.66-25.58 200.15-25.58L200.15-25.58 198.58-25.58Q198.09-25.58 197.76-25.22L197.76-25.22Q197.4-24.89 197.4-24.4L197.4-24.4 197.4-1.14Q197.4-0.21 198.32 0L198.32 0 200.43 0Q201.35-0.21 201.35-1.14L201.35-1.14 201.35-9.62Q201.35-10.1 201.69-10.46L201.69-10.46Q202.04-10.8 202.53-10.8L202.53-10.8 205.24-10.8Q205.92-10.8 206.27-10.22L206.27-10.22 212.22-0.56Q212.58 0 213.23 0L213.23 0 215.09 0Q215.78 0 216.12-0.6L216.12-0.6Q216.45-1.22 216.1-1.8L216.1-1.8 209.64-12.24Q209.3-12.84 209.64-13.42L209.64-13.42ZM226.78-22.16L226.78-25.11Q226.78-25.62 226.28-25.62L226.28-25.62 221.35-25.62Q220.87-25.62 220.87-25.11L220.87-25.11 220.87-22.16Q220.87-21.67 221.35-21.67L221.35-21.67Q221.86-21.67 221.86-21.18L221.86-21.18 221.86-4.43Q221.86-3.95 221.35-3.95L221.35-3.95Q220.87-3.95 220.87-3.44L220.87-3.44 220.87-0.49Q220.87 0 221.35 0L221.35 0 226.28 0Q226.78 0 226.78-0.49L226.78-0.49 226.78-3.44Q226.78-3.95 226.28-3.95L226.28-3.95Q225.79-3.95 225.79-4.43L225.79-4.43 225.79-21.18Q225.79-21.67 226.28-21.67L226.28-21.67Q226.78-21.67 226.78-22.16L226.78-22.16Z"
                transform="translate(-2.25, 25.6200008392334)"
              ></path>
            </g>
            <!---->
            <!---->
            <!---->
            <!---->
            <!---->
            <!---->
            <!---->
          </g>
        </g>
        <!---->
      </g>
    </g>
  </g>
  <defs v-gra="od"></defs>
</svg>
