<svg xmlns="http://www.w3.org/2000/svg" data-name="Layer 3" viewBox="0 0 64 64"><path fill="#203a49" d="M54.8,35.865q.186-1.9.189-3.865c0-16.569-10.3-30-23-30s-23,13.431-23,30q0,1.963.189,3.864Z"/><path fill="#2d4e65" d="M38.423,3.2c-.475-.038-.953-.064-1.437-.064-12.7,0-23,13.431-23,30,0,.921.043,1.829.106,2.729H54.8q.186-1.9.189-3.865C54.988,18.346,47.992,6.831,38.423,3.2Z"/><path fill="#996945" d="M31.988,62h0a20,20,0,0,0,20-20V37.657a57.116,57.116,0,0,0-1.11-11.2h0A5.539,5.539,0,0,0,45.446,22h0a5.55,5.55,0,0,0-.91.075h0A67.993,67.993,0,0,1,33.365,23H30.611a67.984,67.984,0,0,1-11.171-.925h0A5.562,5.562,0,0,0,18.529,22h0A5.54,5.54,0,0,0,13.1,26.453h0a57.115,57.115,0,0,0-1.109,11.2V42a20,20,0,0,0,20,20Z"/><path fill="#84583a" d="M12.05 35h-.063a5 5 0 00-5 5h0a5 5 0 005 5h.223M51.926 35h.061a5 5 0 015 5h0a5 5 0 01-5 5h-.222"/><path fill="#b07a4e" d="M51.988,37.656a57.113,57.113,0,0,0-1.11-11.2,5.541,5.541,0,0,0-6.342-4.378A67.993,67.993,0,0,1,33.365,23H30.611a67.984,67.984,0,0,1-11.171-.925,5.518,5.518,0,0,0-4.5,1.251,57.092,57.092,0,0,0-.957,10.33V38A19.992,19.992,0,0,0,50.735,48.915,19.924,19.924,0,0,0,51.988,42Z"/><path fill="#f2f2f2" d="M35 34a6 6 0 0012 0zM29 34H17a6 6 0 0012 0z"/><path fill="#84583a" d="M32 47a3.389 3.389 0 01-2.414-1l-1.293-1.293 1.414-1.414L31 44.586a1.465 1.465 0 002 0l1.293-1.293 1.414 1.414L34.414 46A3.389 3.389 0 0132 47zM26.516 54.857l-1.03-1.714A22.051 22.051 0 0136.832 50H38v2H36.832A20.057 20.057 0 0026.516 54.857zM28.2 30.6L27 29a5.022 5.022 0 00-4-2h0a5.025 5.025 0 00-4 2l-1.2 1.6-1.6-1.2 1.2-1.6A7.028 7.028 0 0123 25h0a7.032 7.032 0 015.6 2.8l1.2 1.6zM46.445 31.832l-.5-.336a9.051 9.051 0 00-9.882 0l-.5.336-1.11-1.664.5-.336a11.082 11.082 0 0112.1 0l.5.336z"/><path fill="#707070" d="M23 35a2 2 0 004 0 1.969 1.969 0 00-.279-1H23.277A1.968 1.968 0 0023 35zM41 35a2 2 0 004 0 1.969 1.969 0 00-.279-1H41.277A1.968 1.968 0 0041 35z"/><path d="M6,40a6,6,0,0,0,5.388,5.968,20.988,20.988,0,0,0,41.224,0A5.994,5.994,0,0,0,55.847,35.4c.095-1.128.153-2.268.153-3.4C56,14.907,45.233,1,32,1S8,14.907,8,32c0,1.135.058,2.275.153,3.4A5.985,5.985,0,0,0,6,40Zm45,2a19,19,0,0,1-38,0V37.657a56.281,56.281,0,0,1,1.09-11.008,4.538,4.538,0,0,1,5.2-3.587A69.165,69.165,0,0,0,30.623,24h2.754a69.144,69.144,0,0,0,11.334-.938,4.54,4.54,0,0,1,5.2,3.587A56.281,56.281,0,0,1,51,37.657Zm3.827.828A3.966,3.966,0,0,1,52.9,43.886c.056-.622.1-1.249.1-1.886V37.657c0-.509-.024-1.018-.038-1.526a3.988,3.988,0,0,1,1.865,6.7ZM10,32C10,16.009,19.869,3,32,3S54,16.009,54,32c0,.774-.031,1.549-.078,2.322a6.066,6.066,0,0,0-1.046-.251,58.244,58.244,0,0,0-1-7.814,6.54,6.54,0,0,0-7.488-5.168A67.147,67.147,0,0,1,33.377,22H30.623a67.168,67.168,0,0,1-11.007-.911,6.539,6.539,0,0,0-7.487,5.168,58.08,58.08,0,0,0-1,7.814,5.963,5.963,0,0,0-1.047.25C10.031,33.549,10,32.773,10,32Zm1.038,4.13c-.014.509-.038,1.018-.038,1.527V42c0,.637.04,1.264.1,1.887a3.986,3.986,0,0,1-.058-7.757Z"/><path d="M28.293 44.707L29.586 46a3.414 3.414 0 004.828 0l1.293-1.293-1.414-1.414L33 44.586a1.465 1.465 0 01-2 0l-1.293-1.293zM47 33H35a1 1 0 00-1 1 7 7 0 0014 0A1 1 0 0047 33zm-6 6a5.009 5.009 0 01-4.9-4H41a2 2 0 004 0h.9A5.009 5.009 0 0141 39zM30 34a1 1 0 00-1-1H17a1 1 0 00-1 1 7 7 0 0014 0zm-7 5a5.009 5.009 0 01-4.9-4H23a2 2 0 004 0h.9A5.009 5.009 0 0123 39zM25.486 53.143l1.03 1.714A20.057 20.057 0 0136.832 52H38V50H36.832A22.051 22.051 0 0025.486 53.143zM19 29a5.025 5.025 0 014-2h0a5.022 5.022 0 014 2l1.2 1.6 1.6-1.2-1.2-1.6A7.032 7.032 0 0023 25h0a7.028 7.028 0 00-5.6 2.8l-1.2 1.6 1.6 1.2zM36.059 31.5a9.051 9.051 0 019.882 0l.5.336 1.11-1.664-.5-.336a11.082 11.082 0 00-12.1 0l-.5.336 1.11 1.664z"/></svg>