<svg id="svg" version="1.1" xmlns="http://www.w3.org/2000/svg" xmlns:xlink="http://www.w3.org/1999/xlink" width="400" height="409.04761904761904" viewBox="0, 0, 400,409.04761904761904"><g id="svgg"><path id="path0" d="M309.068 109.066 C 308.890 109.244,308.171 109.412,307.472 109.439 C 305.833 109.503,304.770 109.788,303.259 110.569 C 302.588 110.916,301.853 111.200,301.624 111.200 C 299.081 111.200,288.400 121.579,288.400 124.051 C 288.400 124.544,288.017 125.357,287.548 125.855 C 286.747 126.708,286.336 128.582,286.357 131.287 C 286.362 131.885,286.193 132.480,285.983 132.611 C 285.484 132.919,285.484 137.881,285.983 138.189 C 286.193 138.320,286.369 138.915,286.373 139.513 C 286.391 142.133,286.719 143.695,287.467 144.710 C 287.908 145.310,288.402 146.337,288.565 146.993 C 289.326 150.052,297.591 158.800,299.721 158.800 C 300.033 158.800,300.924 159.231,301.701 159.758 C 302.477 160.285,303.897 160.836,304.856 160.983 C 305.815 161.129,307.050 161.315,307.600 161.397 C 312.930 162.186,319.311 161.557,322.356 159.943 C 323.542 159.314,324.763 158.800,325.069 158.800 C 325.375 158.800,325.729 158.530,325.855 158.200 C 325.982 157.870,326.318 157.600,326.602 157.600 C 327.546 157.600,333.118 152.023,334.005 150.189 C 334.482 149.205,335.013 148.400,335.187 148.400 C 335.544 148.400,336.322 146.665,336.587 145.277 C 336.684 144.770,337.126 143.766,337.571 143.047 C 338.015 142.328,338.385 141.213,338.393 140.570 C 338.401 139.926,338.513 138.243,338.643 136.830 C 338.949 133.488,338.495 129.352,337.739 128.596 C 337.373 128.230,337.319 128.000,337.600 128.000 C 337.870 128.000,337.800 127.743,337.429 127.371 C 337.083 127.026,336.778 126.576,336.750 126.371 C 336.555 124.920,335.555 122.400,335.174 122.400 C 334.974 122.400,334.560 121.815,334.254 121.100 C 333.543 119.438,327.806 113.667,326.552 113.352 C 326.029 113.221,325.600 112.994,325.600 112.848 C 325.600 112.192,322.461 110.906,320.676 110.831 C 320.278 110.814,320.047 110.647,320.163 110.460 C 320.420 110.043,317.846 109.231,316.200 109.210 C 315.540 109.201,313.738 109.092,312.196 108.968 C 310.653 108.844,309.246 108.888,309.068 109.066 M231.810 121.184 C 231.679 121.395,231.604 122.430,231.642 123.484 C 231.719 125.607,231.352 127.598,230.776 128.180 C 230.569 128.389,230.400 128.884,230.400 129.280 C 230.400 129.676,230.243 130.000,230.051 130.000 C 229.859 130.000,229.593 130.675,229.460 131.500 C 229.326 132.325,228.763 133.487,228.209 134.083 C 227.654 134.678,227.200 135.294,227.200 135.451 C 227.200 135.608,226.909 136.058,226.554 136.451 C 225.854 137.224,226.114 137.680,227.801 138.634 C 228.648 139.112,230.163 141.570,229.822 141.911 C 229.704 142.030,229.765 142.323,229.959 142.563 C 230.153 142.803,230.704 144.620,231.184 146.600 C 231.664 148.580,232.380 150.920,232.774 151.800 C 233.168 152.680,233.718 154.120,233.997 155.000 C 234.276 155.880,234.645 156.780,234.816 157.000 C 234.988 157.220,235.449 158.210,235.841 159.200 C 236.233 160.190,237.155 161.945,237.890 163.101 C 238.625 164.257,239.338 165.517,239.475 165.901 C 241.014 170.224,252.391 180.314,260.197 184.279 C 261.148 184.762,262.044 185.347,262.187 185.579 C 262.330 185.810,262.757 186.000,263.135 186.000 C 263.513 186.000,265.137 186.630,266.744 187.400 C 268.351 188.170,270.178 188.800,270.804 188.800 C 271.430 188.800,272.211 189.068,272.538 189.395 C 272.865 189.722,274.029 190.060,275.124 190.145 C 276.220 190.231,277.315 190.424,277.558 190.574 C 277.801 190.724,278.180 190.736,278.400 190.600 C 278.620 190.464,278.800 190.529,278.800 190.745 C 278.800 191.318,281.048 191.967,283.800 192.188 C 288.754 192.586,288.589 192.404,288.905 197.807 C 288.987 199.216,289.357 200.742,289.796 201.486 C 290.440 202.576,290.481 202.972,290.085 204.262 C 289.759 205.326,289.749 205.845,290.052 206.032 C 290.702 206.434,290.671 222.385,290.020 222.787 C 289.632 223.028,289.640 223.275,290.060 223.948 C 290.489 224.634,290.496 224.941,290.096 225.501 C 289.201 226.756,288.862 227.861,288.662 230.168 C 288.554 231.418,288.215 232.836,287.909 233.320 C 287.603 233.804,287.025 235.100,286.624 236.200 C 285.685 238.775,283.095 240.249,282.162 238.739 C 282.046 238.552,280.973 238.514,279.776 238.654 C 278.332 238.824,277.600 238.765,277.600 238.480 C 277.600 238.213,277.076 238.135,276.220 238.274 C 275.248 238.432,274.649 238.306,274.192 237.849 C 273.306 236.964,269.499 236.958,268.617 237.840 C 268.206 238.251,267.631 238.394,267.013 238.239 C 266.483 238.106,265.937 238.178,265.801 238.399 C 265.509 238.870,263.347 238.884,262.200 238.421 C 261.750 238.240,261.187 238.269,260.913 238.487 C 260.646 238.701,259.534 238.937,258.442 239.013 C 257.350 239.088,255.859 239.465,255.128 239.850 C 254.398 240.235,253.350 240.509,252.800 240.459 C 252.250 240.409,250.900 240.801,249.800 241.330 C 248.700 241.860,247.378 242.425,246.862 242.586 C 246.347 242.746,245.151 243.400,244.204 244.039 C 243.258 244.677,242.303 245.200,242.082 245.200 C 240.700 245.200,232.246 253.200,229.800 256.823 C 229.140 257.800,228.465 258.660,228.300 258.733 C 228.135 258.807,228.000 259.107,228.000 259.400 C 228.000 259.693,227.860 259.993,227.689 260.067 C 227.518 260.140,226.876 261.370,226.262 262.800 C 225.648 264.230,224.818 266.030,224.417 266.800 C 223.759 268.063,223.549 268.758,223.029 271.400 C 222.943 271.840,222.587 272.740,222.238 273.400 C 221.484 274.830,221.405 277.245,222.090 277.930 C 222.477 278.317,222.477 278.585,222.090 279.205 C 220.730 281.383,222.022 284.406,225.180 286.434 C 230.949 290.138,231.860 290.679,232.700 290.894 C 233.194 291.021,233.700 290.961,233.824 290.761 C 233.955 290.548,234.370 290.570,234.824 290.813 C 235.358 291.099,235.600 291.099,235.600 290.814 C 235.600 290.586,235.918 290.400,236.307 290.400 C 237.380 290.400,241.111 286.937,242.058 285.060 C 242.519 284.147,243.235 282.734,243.648 281.919 C 244.062 281.105,244.400 280.142,244.400 279.780 C 244.400 279.417,244.659 278.554,244.975 277.860 C 245.291 277.167,245.829 275.970,246.169 275.200 C 246.510 274.430,247.409 272.990,248.168 272.000 C 248.926 271.010,249.559 270.074,249.573 269.921 C 249.757 267.987,259.394 262.199,263.711 261.429 C 264.542 261.281,265.117 260.989,264.988 260.780 C 264.858 260.571,265.078 260.372,265.476 260.338 C 265.874 260.303,266.650 260.217,267.200 260.147 C 274.131 259.257,279.131 259.045,279.812 259.610 C 280.182 259.917,281.054 259.985,282.345 259.808 C 283.513 259.647,284.413 259.697,284.557 259.931 C 284.691 260.148,285.167 260.229,285.614 260.112 C 286.080 259.990,286.748 260.191,287.183 260.585 C 287.677 261.032,289.313 261.449,291.896 261.786 C 294.073 262.071,296.471 262.624,297.227 263.015 C 297.982 263.406,299.125 263.788,299.767 263.863 C 301.354 264.049,302.019 266.352,300.973 268.043 C 300.789 268.342,300.613 268.921,300.583 269.330 C 300.553 269.739,300.322 270.201,300.069 270.357 C 299.678 270.599,299.033 273.139,298.841 275.200 C 298.728 276.399,298.463 278.200,298.399 278.200 C 298.363 278.200,298.287 278.622,298.231 279.137 C 298.174 279.652,297.941 280.192,297.713 280.337 C 297.073 280.742,296.666 284.602,297.164 285.533 C 297.484 286.131,297.467 286.378,297.097 286.501 C 296.609 286.664,296.391 288.913,296.420 293.466 C 296.427 294.603,296.291 295.620,296.117 295.728 C 295.800 295.923,295.915 309.849,296.267 314.000 C 296.370 315.210,296.487 316.972,296.527 317.915 C 296.567 318.858,296.844 319.780,297.143 319.965 C 297.546 320.214,297.565 320.375,297.214 320.591 C 296.563 320.994,297.092 323.892,297.979 324.779 C 298.368 325.168,298.784 326.404,298.924 327.592 C 299.062 328.757,299.446 330.009,299.777 330.375 C 300.108 330.740,300.639 331.777,300.957 332.678 C 301.715 334.825,304.016 338.076,305.199 338.671 C 305.714 338.929,306.294 339.424,306.488 339.771 C 306.681 340.117,307.095 340.400,307.406 340.400 C 307.717 340.400,309.535 341.435,311.445 342.700 C 313.355 343.965,315.657 345.478,316.559 346.062 C 317.462 346.647,318.510 347.438,318.889 347.821 C 319.452 348.389,319.689 348.424,320.184 348.013 C 320.517 347.737,321.074 347.619,321.420 347.752 C 322.380 348.121,323.996 347.105,326.260 344.711 L 328.309 342.545 328.170 339.572 C 328.093 337.938,327.977 336.240,327.912 335.800 C 327.772 334.862,325.713 331.313,324.749 330.349 C 324.382 329.982,323.963 329.142,323.818 328.482 C 323.673 327.823,323.205 326.966,322.777 326.579 C 322.350 326.193,322.000 325.448,322.000 324.925 C 322.000 324.402,321.739 323.350,321.420 322.587 C 321.102 321.824,320.958 321.200,321.100 321.200 C 321.243 321.200,321.144 320.984,320.880 320.720 C 320.616 320.456,320.400 319.916,320.400 319.520 C 320.400 319.124,320.214 318.800,319.986 318.800 C 319.712 318.800,319.725 318.514,320.023 317.957 C 320.349 317.347,320.353 316.993,320.037 316.677 C 319.797 316.437,319.600 315.676,319.600 314.987 C 319.600 314.297,319.496 313.630,319.370 313.503 C 318.814 312.948,319.324 291.622,319.918 290.561 C 320.188 290.078,320.169 289.617,319.857 289.114 C 319.526 288.579,319.521 288.296,319.840 288.088 C 320.083 287.930,320.391 287.350,320.527 286.800 C 321.281 283.731,322.027 280.231,322.127 279.284 C 322.191 278.688,322.551 277.496,322.928 276.636 C 323.305 275.775,323.701 274.335,323.810 273.436 C 323.918 272.536,324.455 270.914,325.003 269.832 C 325.551 268.750,326.000 267.436,326.000 266.912 C 326.000 265.797,327.055 263.600,327.590 263.600 C 327.794 263.600,328.082 262.523,328.231 261.207 C 328.380 259.890,328.749 258.608,329.051 258.358 C 329.353 258.107,329.600 257.575,329.600 257.175 C 329.600 256.775,329.780 256.336,330.000 256.200 C 330.220 256.064,330.400 255.443,330.400 254.820 C 330.400 254.197,330.756 252.903,331.191 251.944 C 331.626 250.985,331.986 249.716,331.991 249.124 C 331.996 248.532,332.150 247.955,332.333 247.842 C 332.516 247.729,332.644 246.998,332.618 246.218 C 332.592 245.438,332.699 244.800,332.855 244.800 C 333.241 244.800,334.005 242.398,334.005 241.186 C 334.004 240.644,334.096 239.480,334.209 238.600 C 334.322 237.720,334.414 236.604,334.413 236.120 C 334.413 235.636,334.573 235.141,334.769 235.019 C 334.965 234.898,335.032 234.446,334.920 234.014 C 334.805 233.577,335.005 232.938,335.370 232.573 C 335.771 232.171,336.023 231.272,336.017 230.258 C 336.012 229.346,336.012 224.190,336.015 218.800 C 336.023 207.518,335.944 206.060,335.299 205.661 C 334.836 205.375,334.531 203.947,334.174 200.400 C 333.976 198.422,333.278 196.400,332.794 196.400 C 332.624 196.400,332.511 195.947,332.542 195.394 L 332.600 194.388 333.333 195.394 C 333.737 195.947,334.322 196.400,334.633 196.400 C 334.945 196.400,335.200 196.589,335.200 196.820 C 335.200 197.051,336.436 198.536,337.946 200.120 C 343.401 205.842,347.200 210.307,347.200 210.996 C 347.200 211.223,347.560 211.632,348.000 211.907 C 348.440 212.182,348.800 212.651,348.800 212.948 C 348.800 213.246,349.344 214.175,350.009 215.011 C 350.674 215.848,351.325 216.958,351.455 217.477 C 351.585 217.996,352.017 218.595,352.413 218.807 C 352.810 219.020,353.251 219.722,353.393 220.369 C 353.535 221.016,353.922 221.769,354.252 222.043 C 355.055 222.709,356.000 224.582,356.000 225.505 C 356.000 225.914,356.349 226.624,356.776 227.082 C 357.203 227.540,357.458 228.008,357.344 228.123 C 357.230 228.237,357.421 228.766,357.769 229.297 C 358.118 229.829,358.287 230.380,358.144 230.522 C 358.002 230.664,358.071 231.010,358.297 231.290 C 358.523 231.571,358.841 232.430,359.004 233.200 C 359.167 233.970,359.474 234.711,359.687 234.846 C 359.925 234.998,359.874 235.413,359.555 235.924 C 359.111 236.634,359.144 236.875,359.783 237.582 C 360.422 238.287,360.458 238.545,360.028 239.349 C 359.688 239.983,359.647 240.535,359.903 241.045 C 361.107 243.443,361.626 244.750,361.865 245.983 C 362.119 247.294,363.832 250.147,365.255 251.628 C 365.615 252.003,366.065 252.565,366.255 252.877 C 367.237 254.490,372.740 256.268,373.408 255.187 C 373.566 254.931,374.109 254.841,374.661 254.980 C 378.966 256.060,383.624 243.595,379.846 241.106 C 379.531 240.898,379.545 240.810,379.893 240.806 C 380.234 240.802,380.156 240.391,379.641 239.472 C 379.230 238.742,378.764 237.347,378.605 236.372 C 378.446 235.397,377.966 234.025,377.539 233.323 C 376.735 231.999,376.451 231.119,376.110 228.890 C 375.999 228.162,375.570 227.398,375.144 227.170 C 374.722 226.944,374.476 226.601,374.595 226.408 C 374.715 226.214,374.630 225.942,374.407 225.804 C 374.183 225.666,374.000 225.216,374.000 224.804 C 374.000 224.043,372.374 220.218,370.511 216.600 C 369.945 215.500,369.142 213.880,368.726 213.000 C 368.310 212.120,367.697 210.950,367.363 210.400 C 367.029 209.850,366.489 208.803,366.162 208.074 C 365.835 207.345,365.035 206.013,364.384 205.114 C 363.733 204.215,363.200 203.231,363.200 202.927 C 363.200 202.624,362.930 202.271,362.600 202.145 C 362.270 202.018,362.000 201.691,362.000 201.418 C 362.000 201.144,360.920 199.470,359.600 197.697 C 358.280 195.924,357.200 194.352,357.200 194.205 C 357.200 193.903,354.256 190.393,350.486 186.200 C 347.443 182.816,347.875 183.247,345.198 180.917 C 341.345 177.562,339.331 176.000,338.859 176.000 C 338.606 176.000,338.400 175.823,338.400 175.606 C 338.400 175.389,337.365 174.668,336.100 174.003 C 334.835 173.338,333.530 172.620,333.200 172.407 C 332.870 172.194,331.970 171.739,331.200 171.395 C 330.430 171.052,329.345 170.517,328.790 170.207 C 327.783 169.644,324.538 169.152,322.130 169.197 C 321.432 169.210,320.740 169.026,320.592 168.787 C 320.440 168.542,319.846 168.458,319.226 168.594 C 318.487 168.757,317.960 168.633,317.615 168.218 C 317.190 167.706,315.955 167.600,310.400 167.600 C 304.845 167.600,303.610 167.706,303.185 168.218 C 302.831 168.644,302.316 168.757,301.520 168.582 C 300.886 168.443,300.150 168.506,299.884 168.721 C 299.495 169.036,294.748 169.504,291.129 169.585 C 290.759 169.593,290.144 169.913,289.761 170.296 C 289.260 170.797,289.018 170.853,288.899 170.496 C 288.777 170.132,287.198 170.000,282.943 170.000 C 279.185 170.000,277.240 170.140,277.400 170.400 C 277.769 170.997,277.226 170.883,276.568 170.225 C 276.250 169.907,275.279 169.660,274.397 169.672 C 273.506 169.685,271.873 169.265,270.700 168.722 C 269.545 168.187,268.023 167.554,267.317 167.316 C 263.419 165.999,254.400 158.290,254.400 156.275 C 254.400 156.082,253.995 155.356,253.501 154.662 C 253.006 153.968,252.585 153.310,252.564 153.200 C 252.544 153.090,252.196 152.280,251.791 151.400 C 251.386 150.520,251.019 149.260,250.976 148.600 C 250.740 144.989,250.318 142.660,249.806 142.149 C 249.271 141.614,248.407 139.162,248.402 138.164 C 248.400 137.768,246.334 133.223,245.674 132.160 C 241.535 125.501,233.213 118.913,231.810 121.184 " stroke="none" fill="#8c04fc" fill-rule="evenodd"></path><path id="path1" d="M132.600 6.416 C 131.940 6.633,130.995 6.715,130.500 6.598 C 130.005 6.481,129.600 6.553,129.600 6.759 C 129.600 6.965,128.792 7.133,127.805 7.133 C 126.700 7.133,125.766 7.377,125.376 7.767 C 125.028 8.115,124.492 8.400,124.185 8.400 C 123.395 8.400,120.800 9.683,120.800 10.074 C 120.800 10.253,120.540 10.400,120.223 10.400 C 119.356 10.400,114.661 14.530,112.580 17.121 C 111.574 18.374,110.455 19.760,110.094 20.200 C 109.732 20.640,109.477 21.047,109.526 21.104 C 109.576 21.161,109.364 21.701,109.056 22.304 C 108.748 22.907,108.361 24.030,108.195 24.800 C 108.029 25.570,107.560 26.822,107.153 27.583 C 106.584 28.646,106.468 29.442,106.655 31.029 C 106.813 32.369,106.740 33.190,106.449 33.370 C 105.893 33.713,105.854 36.262,106.399 36.600 C 106.619 36.735,106.769 37.961,106.734 39.323 C 106.692 40.908,106.894 42.234,107.295 43.005 C 107.640 43.668,108.223 45.243,108.590 46.505 C 108.956 47.767,109.514 49.057,109.828 49.371 C 110.143 49.686,110.400 50.112,110.400 50.320 C 110.400 50.919,117.199 57.978,118.354 58.580 C 118.929 58.879,119.838 59.506,120.374 59.973 C 120.909 60.440,121.809 60.932,122.374 61.066 C 122.938 61.200,123.580 61.445,123.800 61.610 C 124.020 61.775,125.010 62.045,126.000 62.210 C 127.397 62.444,127.621 62.576,127.000 62.800 C 125.668 63.282,130.059 63.725,135.600 63.669 C 140.475 63.620,142.794 63.367,143.200 62.840 C 143.310 62.697,144.708 62.158,146.306 61.643 C 147.905 61.127,149.345 60.498,149.506 60.243 C 149.942 59.557,151.880 58.400,152.595 58.400 C 152.937 58.400,153.422 57.950,153.673 57.400 C 153.923 56.850,154.263 56.400,154.427 56.400 C 154.978 56.400,158.400 52.837,158.400 52.264 C 158.400 51.953,158.670 51.474,159.000 51.200 C 159.330 50.926,159.600 50.473,159.600 50.194 C 159.600 49.914,159.858 49.587,160.172 49.466 C 160.487 49.345,161.057 48.254,161.440 47.041 C 161.822 45.828,162.264 44.916,162.422 45.014 C 162.580 45.111,162.803 44.833,162.917 44.395 C 163.032 43.957,162.962 43.700,162.763 43.823 C 162.563 43.946,162.400 43.857,162.400 43.624 C 162.400 43.391,162.559 43.200,162.753 43.200 C 163.930 43.200,164.341 32.428,163.336 27.899 C 162.916 26.004,162.525 24.993,162.330 25.299 C 162.125 25.623,162.010 25.440,162.006 24.780 C 162.003 24.219,161.849 23.589,161.664 23.380 C 161.479 23.171,161.084 22.370,160.786 21.600 C 159.758 18.945,153.679 12.388,150.925 10.963 C 150.115 10.543,149.135 9.894,148.747 9.521 C 148.359 9.148,147.268 8.634,146.321 8.380 C 145.374 8.125,144.484 7.730,144.341 7.502 C 144.199 7.273,143.389 7.047,142.541 6.999 C 141.694 6.951,140.955 6.864,140.900 6.806 C 140.845 6.748,140.305 6.656,139.700 6.602 C 139.095 6.549,137.520 6.396,136.200 6.263 C 134.880 6.130,133.260 6.199,132.600 6.416 M104.400 68.868 C 102.970 69.066,101.395 69.223,100.900 69.218 C 100.405 69.213,100.000 69.400,100.000 69.633 C 100.000 69.866,99.595 70.013,99.100 69.959 C 98.605 69.905,97.554 70.140,96.765 70.483 C 95.976 70.825,94.896 71.231,94.365 71.386 C 92.658 71.884,86.620 74.488,86.000 74.994 C 85.156 75.682,82.778 76.800,82.158 76.800 C 81.873 76.800,81.496 77.035,81.320 77.321 C 81.144 77.608,80.051 78.331,78.892 78.929 C 77.732 79.527,76.427 80.373,75.992 80.808 C 75.556 81.244,74.934 81.600,74.609 81.600 C 74.284 81.600,73.724 82.050,73.363 82.600 C 73.003 83.150,72.476 83.600,72.192 83.600 C 71.690 83.600,69.588 85.181,66.863 87.609 C 66.127 88.264,65.366 88.800,65.170 88.800 C 64.975 88.800,63.645 89.925,62.215 91.300 C 60.786 92.675,58.712 94.597,57.608 95.570 C 56.504 96.544,55.600 97.536,55.600 97.776 C 55.600 98.015,55.198 98.388,54.707 98.605 C 54.216 98.822,53.608 99.418,53.356 99.928 C 53.104 100.438,52.516 101.123,52.049 101.451 C 51.582 101.778,51.200 102.305,51.200 102.623 C 51.200 102.940,51.010 103.200,50.777 103.200 C 50.307 103.200,48.000 105.600,48.000 106.089 C 48.000 106.260,47.685 106.723,47.300 107.118 C 46.101 108.348,43.007 112.078,42.859 112.471 C 42.782 112.677,42.287 113.277,41.759 113.805 C 41.232 114.332,40.800 115.021,40.800 115.336 C 40.800 115.651,40.350 116.203,39.800 116.563 C 39.250 116.924,38.800 117.450,38.800 117.734 C 38.800 118.017,38.442 118.634,38.004 119.104 C 37.565 119.574,36.729 120.823,36.144 121.879 C 35.560 122.936,34.838 123.944,34.541 124.120 C 34.243 124.296,34.000 124.614,34.000 124.826 C 34.000 125.039,33.190 126.326,32.200 127.686 C 31.210 129.047,30.400 130.335,30.400 130.549 C 30.400 130.762,30.132 131.233,29.805 131.595 C 29.477 131.957,29.151 132.789,29.079 133.444 C 29.007 134.100,28.848 134.808,28.726 135.018 C 28.403 135.573,28.560 139.312,28.931 139.900 C 29.105 140.175,29.129 140.591,28.984 140.825 C 28.840 141.059,29.037 141.599,29.423 142.025 C 29.808 142.451,29.972 142.800,29.787 142.800 C 29.602 142.800,29.968 143.340,30.600 144.000 C 31.232 144.660,31.986 145.200,32.275 145.200 C 32.564 145.200,32.800 145.410,32.800 145.667 C 32.800 145.923,32.911 146.022,33.048 145.886 C 33.184 145.750,33.581 145.924,33.930 146.273 C 34.369 146.712,34.612 146.763,34.721 146.437 C 34.836 146.092,35.019 146.084,35.410 146.408 C 36.023 146.917,38.490 147.020,40.345 146.612 C 42.390 146.163,48.400 141.656,48.400 140.571 C 48.400 140.430,49.120 139.410,50.000 138.305 C 50.880 137.200,51.600 136.075,51.600 135.806 C 51.600 135.537,52.065 134.815,52.633 134.202 C 53.392 133.383,53.534 133.006,53.168 132.780 C 52.782 132.542,52.806 132.337,53.274 131.869 C 53.606 131.537,54.109 130.440,54.391 129.433 C 54.673 128.425,55.029 127.600,55.181 127.600 C 55.333 127.600,55.883 126.745,56.401 125.700 C 57.724 123.034,60.132 119.573,62.007 117.640 C 62.883 116.738,63.600 115.842,63.600 115.651 C 63.600 115.122,72.094 106.593,72.938 106.275 C 73.344 106.121,73.768 105.643,73.881 105.211 C 73.994 104.780,74.418 104.321,74.823 104.193 C 75.228 104.064,75.658 103.647,75.779 103.266 C 75.900 102.885,76.497 102.279,77.106 101.919 C 77.714 101.560,78.677 100.846,79.246 100.333 C 79.814 99.820,80.717 99.040,81.253 98.600 C 84.781 95.703,87.040 93.762,87.294 93.409 C 87.471 93.162,87.595 93.238,87.607 93.600 C 87.621 94.034,87.834 93.951,88.377 93.300 C 89.718 91.693,92.000 92.724,92.000 94.936 C 92.000 96.006,90.313 100.800,89.937 100.800 C 89.765 100.800,89.740 101.100,89.881 101.466 C 90.052 101.913,89.983 102.036,89.668 101.842 C 89.411 101.683,89.186 101.698,89.169 101.876 C 89.111 102.489,88.839 103.404,88.238 105.000 C 87.906 105.880,87.627 106.990,87.618 107.467 C 87.608 107.943,87.416 108.395,87.191 108.470 C 86.966 108.545,86.694 109.095,86.585 109.693 C 86.477 110.290,86.222 111.217,86.018 111.752 C 85.815 112.287,85.519 113.863,85.362 115.253 C 85.205 116.643,84.834 118.023,84.538 118.319 C 84.242 118.615,83.969 119.339,83.930 119.929 C 83.581 125.309,82.682 131.099,82.367 130.000 C 82.083 129.011,82.023 129.545,81.742 135.600 C 81.696 136.590,81.625 137.490,81.585 137.600 C 81.157 138.764,80.908 168.137,81.296 171.800 C 81.389 172.680,81.617 174.930,81.803 176.800 C 82.030 179.081,82.226 179.871,82.397 179.200 C 82.840 177.460,83.198 184.484,83.151 194.000 C 83.110 202.311,82.679 209.859,82.409 207.000 C 82.297 205.822,81.904 207.998,81.431 212.400 C 81.173 214.808,80.553 217.207,80.062 217.698 C 79.842 217.918,79.759 218.348,79.876 218.654 C 79.993 218.960,79.874 219.470,79.610 219.788 C 79.347 220.105,79.260 220.573,79.417 220.827 C 79.574 221.081,79.495 221.418,79.242 221.574 C 78.989 221.731,78.711 222.206,78.626 222.629 C 78.541 223.053,78.297 223.850,78.083 224.400 C 77.870 224.950,77.642 225.580,77.576 225.800 C 77.511 226.020,77.219 226.438,76.929 226.729 C 76.638 227.019,76.400 227.523,76.400 227.848 C 76.400 228.492,75.264 230.877,74.803 231.200 C 74.647 231.310,74.187 232.120,73.782 233.000 C 73.377 233.880,72.406 235.393,71.623 236.363 C 70.840 237.333,70.245 238.188,70.300 238.263 C 70.604 238.679,70.304 239.132,69.605 239.315 C 69.167 239.429,68.641 239.965,68.435 240.507 C 68.230 241.048,67.780 241.599,67.435 241.731 C 67.091 241.863,66.413 242.878,65.930 243.986 C 65.446 245.094,64.909 246.000,64.738 246.000 C 64.566 246.000,64.529 246.270,64.655 246.600 C 64.782 246.930,64.722 247.200,64.522 247.200 C 63.613 247.200,64.315 253.184,65.371 254.438 C 65.937 255.111,66.400 255.918,66.400 256.231 C 66.400 256.544,66.645 256.800,66.945 256.800 C 67.245 256.800,68.166 257.337,68.993 257.994 C 69.819 258.651,70.674 259.078,70.892 258.943 C 71.111 258.808,71.430 258.925,71.601 259.202 C 72.028 259.892,79.264 260.002,79.492 259.322 C 79.580 259.060,79.881 258.933,80.162 259.041 C 80.442 259.148,80.903 258.958,81.185 258.618 C 81.467 258.278,81.921 258.000,82.194 258.000 C 83.965 258.000,93.952 249.691,94.573 247.700 C 94.728 247.205,95.016 246.800,95.213 246.800 C 95.649 246.800,98.976 241.759,99.371 240.500 C 99.527 240.005,99.822 239.600,100.027 239.600 C 100.232 239.600,100.400 239.335,100.400 239.012 C 100.400 238.689,100.757 237.789,101.193 237.012 C 101.629 236.235,101.893 235.600,101.779 235.600 C 101.665 235.600,101.797 235.195,102.072 234.700 C 102.347 234.205,102.601 233.665,102.636 233.500 C 102.671 233.335,102.744 233.065,102.797 232.900 C 102.851 232.735,102.864 232.436,102.826 232.237 C 102.789 232.037,102.911 231.767,103.099 231.637 C 103.478 231.374,104.800 227.423,104.800 226.554 C 104.800 226.249,104.992 226.000,105.227 226.000 C 105.480 226.000,105.544 225.654,105.384 225.150 C 105.236 224.683,105.287 224.188,105.497 224.050 C 105.912 223.779,107.200 217.819,107.200 216.168 C 107.200 215.528,107.363 215.254,107.643 215.426 C 107.951 215.617,108.001 215.316,107.807 214.434 C 107.648 213.709,107.708 212.952,107.947 212.664 C 108.289 212.252,108.668 209.771,109.211 204.400 C 109.244 204.070,109.336 197.439,109.416 189.664 C 109.593 172.357,109.866 171.670,114.936 175.800 C 116.152 176.790,117.234 177.600,117.342 177.600 C 117.526 177.600,118.864 178.790,121.204 181.036 C 121.757 181.566,122.354 182.000,122.531 182.000 C 123.341 182.000,134.097 192.725,137.374 196.800 C 139.859 199.888,140.972 201.237,141.800 202.159 C 142.240 202.649,142.855 203.533,143.168 204.125 C 143.480 204.716,143.879 205.200,144.055 205.200 C 144.231 205.200,144.277 205.456,144.156 205.769 C 144.033 206.090,144.282 206.523,144.727 206.761 C 145.161 206.993,145.705 207.725,145.935 208.387 C 146.166 209.049,146.905 210.390,147.578 211.367 C 148.250 212.345,148.800 213.312,148.800 213.518 C 148.800 213.724,149.143 214.328,149.561 214.860 C 149.980 215.393,150.525 216.579,150.772 217.496 C 151.019 218.413,151.498 219.441,151.836 219.779 C 152.174 220.117,152.326 220.595,152.174 220.842 C 152.022 221.088,152.085 221.405,152.313 221.546 C 152.542 221.688,153.057 223.063,153.459 224.602 C 153.860 226.141,154.345 227.513,154.537 227.650 C 154.728 227.788,154.757 228.485,154.600 229.200 C 154.415 230.043,154.457 230.412,154.720 230.250 C 155.245 229.925,155.784 236.901,155.469 239.947 C 155.216 242.396,155.889 248.000,156.436 248.000 C 156.622 248.000,156.674 248.264,156.550 248.586 C 156.101 249.756,159.093 253.862,161.626 255.554 C 163.890 257.065,164.742 257.327,168.841 257.770 C 172.824 258.199,177.954 253.311,179.075 248.017 C 179.376 246.596,179.772 245.336,179.955 245.217 C 180.334 244.969,180.265 234.911,179.877 234.000 C 179.517 233.153,178.720 228.379,178.759 227.300 C 178.776 226.805,178.610 226.400,178.388 226.400 C 178.163 226.400,178.090 225.979,178.224 225.447 C 178.368 224.874,178.132 223.768,177.632 222.669 C 177.174 221.665,176.800 220.485,176.800 220.046 C 176.800 219.606,176.617 219.134,176.393 218.996 C 176.170 218.858,176.091 218.576,176.219 218.370 C 176.503 217.910,175.563 215.200,175.120 215.200 C 174.944 215.200,174.800 214.926,174.800 214.590 C 174.800 213.631,173.255 209.481,172.791 209.194 C 172.561 209.052,172.488 208.635,172.629 208.268 C 172.770 207.901,172.720 207.600,172.517 207.600 C 172.134 207.600,170.800 205.083,170.800 204.360 C 170.800 204.133,170.343 203.348,169.785 202.616 C 169.227 201.885,168.689 200.862,168.590 200.343 C 168.491 199.824,168.172 199.220,167.882 199.000 C 167.591 198.780,166.943 197.745,166.441 196.700 C 165.939 195.655,165.385 194.800,165.210 194.800 C 165.035 194.800,164.609 194.206,164.264 193.479 C 163.919 192.752,163.269 191.824,162.819 191.417 C 162.368 191.009,162.000 190.498,162.000 190.281 C 162.000 190.064,161.190 188.938,160.200 187.779 C 159.210 186.621,158.400 185.547,158.400 185.393 C 158.400 185.240,157.410 184.170,156.200 183.017 C 154.990 181.864,154.000 180.778,154.000 180.605 C 154.000 180.200,148.171 174.400,147.764 174.400 C 147.595 174.400,146.900 173.815,146.219 173.100 C 145.538 172.385,144.006 170.990,142.814 170.000 C 138.841 166.700,138.000 165.761,138.000 164.629 C 138.000 164.037,137.845 163.649,137.655 163.766 C 137.465 163.884,137.196 163.039,137.058 161.890 C 136.499 157.240,136.982 139.545,137.600 142.000 C 137.821 142.877,138.160 140.080,138.617 133.600 C 138.672 132.830,138.912 130.940,139.150 129.400 C 139.389 127.860,139.588 126.454,139.592 126.276 C 139.596 126.098,139.780 126.064,140.000 126.200 C 140.381 126.435,140.584 124.112,140.412 121.500 C 140.372 120.895,140.531 120.400,140.765 120.400 C 140.999 120.400,141.153 120.085,141.106 119.700 C 140.983 118.677,141.932 114.416,142.634 112.845 C 143.008 112.007,143.139 111.034,142.977 110.295 C 142.833 109.638,142.869 108.988,143.057 108.850 C 143.246 108.713,143.720 107.348,144.111 105.817 C 144.502 104.286,145.042 102.894,145.311 102.723 C 146.104 102.219,147.936 102.355,148.695 102.974 C 151.009 104.859,153.502 106.567,154.618 107.033 C 155.325 107.329,156.009 107.847,156.139 108.185 C 156.269 108.523,156.624 108.800,156.929 108.800 C 157.234 108.800,157.921 109.205,158.457 109.700 C 158.992 110.195,159.873 110.824,160.415 111.097 C 161.837 111.815,162.922 112.532,163.391 113.065 C 163.616 113.320,164.430 113.860,165.200 114.265 C 165.970 114.669,167.247 115.495,168.038 116.100 C 168.829 116.705,169.677 117.200,169.922 117.200 C 170.168 117.200,170.746 117.605,171.207 118.100 C 171.668 118.595,172.170 119.005,172.323 119.010 C 172.940 119.033,175.200 120.217,175.200 120.518 C 175.200 120.696,175.792 121.088,176.515 121.390 C 177.692 121.882,181.494 124.223,182.644 125.164 C 183.291 125.693,186.484 127.232,187.290 127.404 C 187.670 127.484,188.382 127.925,188.873 128.382 C 189.364 128.839,190.427 129.392,191.236 129.610 C 192.045 129.828,192.921 130.264,193.183 130.579 C 193.444 130.894,193.915 131.054,194.229 130.933 C 194.543 130.813,194.800 130.878,194.800 131.077 C 194.800 131.276,195.475 131.678,196.300 131.969 C 197.125 132.260,198.104 132.764,198.475 133.088 C 198.846 133.413,199.361 133.548,199.620 133.388 C 199.878 133.228,200.223 133.314,200.386 133.578 C 200.664 134.027,202.338 134.583,204.900 135.078 C 205.505 135.195,206.000 135.462,206.000 135.671 C 206.000 135.879,206.315 136.012,206.700 135.965 C 207.085 135.918,207.850 136.070,208.400 136.304 C 210.297 137.110,218.815 136.554,219.132 135.604 C 219.206 135.382,219.480 135.200,219.740 135.200 C 220.418 135.200,224.400 131.637,224.400 131.030 C 224.400 130.751,224.760 130.107,225.200 129.600 C 225.640 129.093,226.000 128.333,226.000 127.912 C 226.000 127.492,226.187 126.798,226.416 126.371 C 228.362 122.735,226.178 115.648,223.100 115.613 C 222.495 115.606,222.000 115.420,222.000 115.200 C 222.000 114.980,221.370 114.800,220.600 114.800 C 219.830 114.800,219.200 114.980,219.200 115.200 C 219.200 115.433,217.867 115.600,216.000 115.600 C 214.240 115.600,212.800 115.440,212.800 115.244 C 212.800 115.049,211.585 114.581,210.100 114.205 C 208.615 113.828,206.465 113.072,205.321 112.523 C 204.178 111.975,203.053 111.644,202.821 111.787 C 202.590 111.930,202.400 111.884,202.400 111.684 C 202.400 111.275,199.196 109.742,198.687 109.907 C 198.505 109.966,198.075 109.732,197.730 109.388 C 197.386 109.043,196.585 108.657,195.952 108.530 C 195.318 108.404,194.800 108.140,194.800 107.945 C 194.800 107.749,193.765 107.106,192.500 106.515 C 191.235 105.924,190.110 105.314,190.000 105.161 C 189.890 105.008,188.830 104.437,187.645 103.893 C 186.349 103.298,185.711 102.816,186.045 102.683 C 186.425 102.533,186.364 102.453,185.854 102.432 C 184.988 102.395,182.149 100.910,181.043 99.915 C 180.624 99.538,179.499 98.908,178.542 98.515 C 177.586 98.122,176.802 97.667,176.801 97.505 C 176.801 97.343,176.215 96.958,175.500 96.648 C 174.785 96.339,173.840 95.796,173.400 95.441 C 172.960 95.087,171.340 94.003,169.800 93.033 C 168.260 92.063,166.674 90.973,166.276 90.611 C 165.878 90.248,164.711 89.505,163.683 88.958 C 162.655 88.411,161.450 87.634,161.007 87.231 C 160.563 86.827,159.717 86.250,159.127 85.949 C 158.537 85.647,156.647 84.050,154.927 82.400 C 153.207 80.750,151.125 79.044,150.300 78.609 C 149.475 78.174,148.800 77.684,148.800 77.519 C 148.800 77.355,147.945 76.832,146.900 76.359 C 145.855 75.885,144.910 75.368,144.800 75.209 C 144.375 74.594,142.828 74.014,142.229 74.244 C 141.883 74.377,141.600 74.286,141.600 74.043 C 141.600 73.799,141.253 73.600,140.829 73.600 C 140.404 73.600,139.774 73.317,139.429 72.971 C 139.083 72.626,138.800 72.450,138.800 72.582 C 138.800 72.713,138.251 72.537,137.580 72.190 C 136.909 71.843,136.009 71.670,135.580 71.806 C 135.151 71.943,134.800 71.899,134.800 71.709 C 134.800 71.520,133.716 71.125,132.392 70.831 C 131.067 70.537,129.886 70.139,129.767 69.947 C 129.649 69.755,128.843 69.712,127.976 69.850 C 127.022 70.003,126.400 69.944,126.400 69.701 C 126.400 69.481,125.635 69.304,124.700 69.308 C 123.765 69.312,121.740 69.115,120.200 68.871 C 116.935 68.352,108.148 68.351,104.400 68.868 " stroke="none" fill="#53048b" fill-rule="evenodd"></path><path id="path2" d="M180.093 237.600 C 180.093 238.370,180.175 238.685,180.276 238.300 C 180.376 237.915,180.376 237.285,180.276 236.900 C 180.175 236.515,180.093 236.830,180.093 237.600 M11.200 263.300 C 11.200 263.465,10.850 263.600,10.423 263.600 C 9.679 263.600,6.800 265.081,6.800 265.463 C 6.800 265.564,6.980 265.536,7.200 265.400 C 7.819 265.018,7.674 265.505,6.900 266.408 C 5.532 268.006,5.958 271.451,7.782 273.535 C 9.697 275.723,4.349 275.600,97.216 275.600 C 144.470 275.600,183.193 275.742,183.267 275.914 C 183.522 276.517,185.929 278.000,186.662 278.006 C 187.155 278.010,187.241 278.114,186.920 278.317 C 186.608 278.515,187.095 278.970,188.306 279.611 C 189.333 280.155,190.598 280.994,191.118 281.475 C 191.638 281.956,192.589 282.466,193.232 282.607 C 193.874 282.748,194.400 283.119,194.400 283.432 C 194.400 283.744,194.596 284.000,194.836 284.000 C 195.076 284.000,196.299 284.720,197.554 285.600 C 198.808 286.480,200.042 287.200,200.295 287.200 C 200.548 287.200,200.990 287.515,201.277 287.900 C 201.565 288.285,202.496 288.955,203.347 289.388 C 204.198 289.822,205.458 290.674,206.147 291.282 C 206.836 291.890,207.705 292.390,208.077 292.394 C 208.450 292.397,208.990 292.724,209.277 293.120 C 209.565 293.515,210.655 294.236,211.700 294.722 C 212.745 295.207,213.600 295.781,213.600 295.997 C 213.600 296.213,214.212 296.645,214.959 296.957 C 215.707 297.269,216.472 297.767,216.659 298.063 C 216.847 298.358,217.855 299.046,218.900 299.592 C 219.945 300.137,220.800 300.694,220.800 300.829 C 220.800 300.964,221.655 301.501,222.700 302.023 C 223.745 302.545,225.200 303.481,225.933 304.103 C 226.666 304.724,227.805 305.341,228.465 305.473 C 229.179 305.616,229.476 305.829,229.200 306.000 C 228.916 306.175,229.333 306.529,230.268 306.908 C 231.110 307.249,232.417 308.084,233.172 308.764 C 233.927 309.444,234.773 310.000,235.052 310.000 C 235.332 310.000,235.704 310.234,235.880 310.520 C 236.056 310.806,237.100 311.555,238.200 312.185 C 239.300 312.815,240.290 313.457,240.400 313.612 C 240.510 313.766,241.390 314.293,242.356 314.783 C 243.322 315.273,244.450 315.988,244.863 316.373 C 245.276 316.757,246.105 317.326,246.707 317.635 C 247.308 317.945,247.932 318.379,248.094 318.599 C 248.277 318.848,248.390 318.853,248.394 318.611 C 248.397 318.397,248.680 318.622,249.023 319.111 C 249.365 319.600,249.905 320.000,250.223 320.000 C 250.540 320.000,251.121 320.321,251.513 320.713 C 251.906 321.106,252.906 321.749,253.737 322.143 C 254.568 322.538,255.342 323.105,255.457 323.405 C 255.572 323.704,255.898 323.861,256.181 323.752 C 256.465 323.643,256.804 323.834,256.936 324.177 C 257.067 324.520,257.440 324.800,257.765 324.800 C 258.089 324.800,258.590 325.115,258.877 325.500 C 259.165 325.885,260.088 326.551,260.930 326.979 C 261.771 327.407,262.941 328.175,263.530 328.685 C 264.118 329.194,265.185 329.825,265.900 330.086 C 266.615 330.347,267.202 330.750,267.205 330.980 C 267.207 331.211,267.966 331.760,268.890 332.200 C 269.815 332.640,270.925 333.405,271.358 333.900 C 271.790 334.395,272.462 334.800,272.849 334.800 C 273.237 334.800,273.790 335.124,274.077 335.520 C 274.365 335.916,275.230 336.481,276.000 336.775 C 276.770 337.069,277.693 337.638,278.050 338.038 C 278.408 338.438,278.801 338.665,278.924 338.543 C 279.047 338.420,279.653 338.787,280.270 339.360 C 280.887 339.932,281.501 340.400,281.634 340.400 C 281.767 340.400,282.393 340.844,283.025 341.388 C 283.657 341.931,284.675 342.583,285.287 342.836 C 285.899 343.090,286.400 343.433,286.400 343.599 C 286.400 343.765,287.300 344.289,288.400 344.762 C 289.500 345.235,290.400 345.806,290.400 346.032 C 290.400 346.257,290.985 346.688,291.700 346.989 C 292.415 347.291,293.377 347.893,293.838 348.326 C 294.298 348.760,295.226 349.400,295.900 349.748 C 296.573 350.096,297.375 350.632,297.682 350.939 C 297.988 351.245,298.860 351.809,299.620 352.191 C 300.379 352.574,301.311 353.272,301.691 353.743 C 302.086 354.233,302.386 354.379,302.391 354.084 C 302.396 353.780,302.851 353.986,303.496 354.584 C 304.099 355.143,304.737 355.600,304.913 355.600 C 305.090 355.600,305.713 356.044,306.298 356.586 C 306.883 357.128,307.865 357.683,308.481 357.818 C 309.096 357.953,309.600 358.302,309.600 358.593 C 309.600 358.884,310.126 359.305,310.768 359.529 C 311.410 359.753,312.306 360.306,312.759 360.759 C 313.211 361.211,314.218 361.848,314.996 362.173 C 315.775 362.498,316.518 363.042,316.648 363.382 C 316.779 363.722,317.101 364.000,317.364 364.000 C 317.627 364.000,318.598 364.556,319.521 365.235 C 320.445 365.914,321.206 366.319,321.213 366.135 C 321.220 365.951,321.445 366.070,321.713 366.401 C 321.981 366.731,322.875 367.357,323.700 367.792 C 324.525 368.226,325.200 368.693,325.200 368.828 C 325.200 368.963,326.010 369.491,327.000 370.000 C 327.990 370.509,328.800 371.065,328.800 371.235 C 328.800 371.405,329.655 371.961,330.700 372.472 C 331.745 372.982,332.744 373.624,332.920 373.900 C 333.096 374.175,333.501 374.400,333.820 374.400 C 334.139 374.400,334.400 374.580,334.400 374.800 C 334.400 375.020,334.661 375.200,334.980 375.200 C 335.299 375.200,335.704 375.434,335.880 375.720 C 336.056 376.006,337.100 376.759,338.200 377.394 C 339.300 378.028,340.442 378.789,340.738 379.083 C 341.034 379.378,341.844 379.912,342.538 380.271 C 343.232 380.629,344.019 381.210,344.287 381.561 C 344.586 381.952,344.779 382.013,344.787 381.718 C 344.794 381.453,345.242 381.678,345.782 382.218 C 346.322 382.758,346.943 383.200,347.161 383.200 C 347.380 383.200,348.032 383.639,348.611 384.175 C 349.190 384.711,350.189 385.266,350.832 385.407 C 351.474 385.548,352.000 385.892,352.000 386.171 C 352.000 386.450,352.721 387.004,353.602 387.401 C 354.484 387.798,355.421 388.385,355.686 388.703 C 355.951 389.022,356.535 389.444,356.984 389.641 C 358.038 390.102,359.161 390.829,360.124 391.672 C 360.546 392.042,361.455 392.623,362.145 392.963 C 362.835 393.303,363.221 393.586,363.003 393.591 C 362.785 393.596,363.505 394.073,364.603 394.651 C 365.701 395.230,366.909 396.026,367.286 396.420 C 367.664 396.815,368.384 397.262,368.886 397.414 C 369.389 397.566,370.250 398.094,370.800 398.589 C 371.350 399.083,372.385 399.737,373.100 400.042 C 373.815 400.346,374.400 400.777,374.400 400.998 C 374.400 401.220,375.255 401.848,376.300 402.395 C 377.345 402.941,378.449 403.627,378.754 403.919 C 379.058 404.211,380.183 404.833,381.254 405.300 C 382.324 405.767,383.200 406.310,383.200 406.507 C 383.200 406.703,383.740 406.745,384.400 406.600 C 385.254 406.412,385.663 406.500,385.818 406.903 C 386.090 407.612,388.461 407.579,389.335 406.854 C 389.681 406.567,390.151 406.446,390.377 406.586 C 390.604 406.726,391.017 406.646,391.295 406.407 C 391.573 406.168,392.160 405.723,392.600 405.418 C 394.004 404.444,393.780 397.857,392.300 396.584 C 391.695 396.064,391.200 395.450,391.200 395.219 C 391.200 394.989,391.031 394.800,390.825 394.800 C 390.618 394.800,389.869 394.270,389.159 393.621 C 388.449 392.973,387.313 392.218,386.634 391.945 C 385.955 391.671,385.256 391.211,385.080 390.923 C 384.904 390.636,384.201 390.111,383.518 389.757 C 382.834 389.404,381.909 388.774,381.462 388.357 C 381.015 387.941,380.405 387.600,380.106 387.600 C 379.808 387.600,379.150 387.195,378.643 386.700 C 378.137 386.205,377.052 385.449,376.232 385.021 C 375.412 384.593,374.259 383.828,373.670 383.322 C 373.082 382.815,372.409 382.401,372.175 382.400 C 371.942 382.400,371.362 382.038,370.886 381.595 C 370.411 381.151,369.180 380.341,368.151 379.795 C 367.123 379.248,366.443 378.795,366.640 378.790 C 366.838 378.784,366.116 378.325,365.034 377.770 C 363.953 377.215,362.545 376.320,361.904 375.780 C 361.263 375.241,360.493 374.800,360.192 374.800 C 359.891 374.800,359.394 374.441,359.087 374.003 C 358.780 373.564,358.400 373.334,358.242 373.491 C 358.085 373.648,357.831 373.593,357.678 373.367 C 357.133 372.565,354.525 370.808,354.265 371.069 C 354.119 371.214,354.000 371.120,354.000 370.860 C 354.000 370.600,353.370 370.087,352.600 369.719 C 351.830 369.352,351.200 368.918,351.200 368.755 C 351.200 368.592,350.210 367.990,349.000 367.417 C 347.790 366.845,346.800 366.197,346.800 365.978 C 346.800 365.759,346.385 365.423,345.879 365.230 C 345.372 365.037,344.517 364.504,343.979 364.046 C 342.501 362.786,338.157 360.000,337.672 360.000 C 337.437 360.000,337.010 359.673,336.723 359.273 C 336.435 358.873,335.165 358.026,333.900 357.389 C 332.635 356.753,331.600 356.090,331.600 355.916 C 331.600 355.742,331.330 355.600,331.000 355.600 C 330.670 355.600,330.400 355.442,330.400 355.249 C 330.400 355.055,329.860 354.673,329.200 354.400 C 328.540 354.127,328.000 353.777,328.000 353.622 C 328.000 353.468,327.190 352.937,326.200 352.443 C 325.210 351.948,324.400 351.406,324.400 351.237 C 324.400 351.069,323.365 350.436,322.100 349.830 C 319.010 348.351,319.507 348.655,313.533 344.600 C 310.616 342.620,307.886 340.863,307.466 340.695 C 306.654 340.371,304.199 338.501,302.263 336.733 C 301.620 336.146,300.857 335.757,300.567 335.868 C 300.017 336.079,299.870 335.984,297.600 333.945 C 295.988 332.497,292.805 330.361,290.405 329.116 C 289.859 328.832,289.094 328.285,288.705 327.900 C 288.317 327.515,287.740 327.200,287.423 327.200 C 287.105 327.200,286.610 326.874,286.323 326.475 C 286.035 326.077,284.945 325.341,283.900 324.840 C 282.855 324.339,282.000 323.766,282.000 323.566 C 282.000 323.367,281.190 322.823,280.200 322.358 C 279.210 321.893,278.400 321.365,278.400 321.185 C 278.400 320.890,277.534 320.360,274.903 319.048 C 274.410 318.801,274.005 318.454,274.003 318.276 C 274.001 318.098,273.819 318.065,273.597 318.202 C 273.376 318.339,273.086 318.169,272.954 317.825 C 272.822 317.481,272.498 317.200,272.233 317.200 C 271.968 317.200,271.367 316.842,270.898 316.405 C 270.429 315.968,269.315 315.230,268.422 314.765 C 267.530 314.300,266.800 313.786,266.800 313.623 C 266.800 313.459,265.969 312.899,264.954 312.376 C 263.939 311.854,263.020 311.196,262.911 310.914 C 262.803 310.631,262.477 310.400,262.188 310.400 C 261.898 310.400,260.836 309.770,259.827 309.000 C 258.818 308.230,257.747 307.600,257.446 307.600 C 257.144 307.600,256.674 307.330,256.400 307.000 C 256.126 306.670,255.654 306.400,255.351 306.400 C 255.048 306.400,254.800 306.262,254.800 306.094 C 254.800 305.758,251.582 303.505,249.152 302.139 C 248.309 301.665,247.328 300.985,246.970 300.627 C 246.613 300.270,245.708 299.722,244.960 299.409 C 244.212 299.097,243.600 298.647,243.600 298.411 C 243.600 298.174,243.145 297.807,242.588 297.595 C 241.451 297.163,236.673 293.965,236.466 293.498 C 236.392 293.331,236.167 293.297,235.966 293.421 C 235.765 293.545,235.600 293.457,235.600 293.224 C 235.600 292.991,235.352 292.800,235.049 292.800 C 234.746 292.800,234.274 292.530,234.000 292.200 C 233.726 291.870,233.247 291.600,232.935 291.600 C 232.623 291.600,231.880 291.266,231.284 290.857 C 229.839 289.867,228.160 288.775,226.585 287.800 C 224.024 286.215,222.062 284.825,221.810 284.416 C 221.669 284.187,221.237 284.000,220.852 284.000 C 220.466 284.000,219.751 283.460,219.263 282.800 C 218.775 282.140,218.133 281.600,217.837 281.600 C 217.541 281.600,217.066 281.321,216.784 280.980 C 216.501 280.639,215.489 280.005,214.535 279.570 C 213.581 279.136,212.800 278.618,212.800 278.419 C 212.800 278.221,211.810 277.574,210.600 276.982 C 209.390 276.390,208.400 275.765,208.400 275.593 C 208.400 275.421,207.670 274.900,206.778 274.435 C 205.885 273.970,204.771 273.232,204.302 272.795 C 203.833 272.358,203.246 272.000,202.997 272.000 C 202.748 272.000,202.153 271.550,201.675 271.000 C 201.197 270.450,200.560 270.000,200.261 270.000 C 199.962 270.000,199.278 269.595,198.741 269.100 C 198.204 268.605,196.759 267.710,195.530 267.111 C 194.300 266.511,193.198 265.773,193.082 265.469 C 192.965 265.165,191.594 264.585,190.035 264.181 C 188.476 263.777,187.200 263.345,187.200 263.223 C 187.200 263.100,147.600 263.000,99.200 263.000 C 50.800 263.000,11.200 263.135,11.200 263.300 " stroke="none" fill="#340464" fill-rule="evenodd"></path><path id="path3" d="M310.512 161.895 C 311.564 161.977,313.184 161.976,314.112 161.892 C 315.040 161.808,314.180 161.741,312.200 161.742 C 310.220 161.743,309.460 161.812,310.512 161.895 M297.100 169.082 C 297.595 169.178,298.405 169.178,298.900 169.082 C 299.395 168.987,298.990 168.909,298.000 168.909 C 297.010 168.909,296.605 168.987,297.100 169.082 M289.628 203.700 C 289.650 205.017,289.734 205.220,290.000 204.600 C 290.479 203.484,290.479 202.000,290.000 202.000 C 289.780 202.000,289.613 202.765,289.628 203.700 M336.153 218.200 C 336.153 220.840,336.218 221.868,336.297 220.484 C 336.375 219.101,336.374 216.941,336.295 215.684 C 336.216 214.428,336.152 215.560,336.153 218.200 M289.600 224.576 C 289.600 225.139,289.780 225.600,290.000 225.600 C 290.220 225.600,290.400 225.251,290.400 224.824 C 290.400 224.397,290.220 223.936,290.000 223.800 C 289.773 223.660,289.600 223.996,289.600 224.576 M334.800 233.600 C 334.800 234.040,334.980 234.400,335.200 234.400 C 335.420 234.400,335.600 234.040,335.600 233.600 C 335.600 233.160,335.420 232.800,335.200 232.800 C 334.980 232.800,334.800 233.160,334.800 233.600 M266.600 238.000 C 266.736 238.220,267.197 238.400,267.624 238.400 C 268.051 238.400,268.400 238.220,268.400 238.000 C 268.400 237.780,267.939 237.600,267.376 237.600 C 266.796 237.600,266.460 237.773,266.600 238.000 M274.400 238.000 C 274.400 238.220,274.940 238.400,275.600 238.400 C 276.260 238.400,276.800 238.220,276.800 238.000 C 276.800 237.780,276.260 237.600,275.600 237.600 C 274.940 237.600,274.400 237.780,274.400 238.000 M262.200 238.400 C 263.317 238.880,265.503 238.880,265.800 238.400 C 265.955 238.150,265.177 238.011,263.724 238.028 C 262.056 238.048,261.626 238.153,262.200 238.400 M277.600 238.400 C 277.600 238.911,280.009 238.911,280.800 238.400 C 281.234 238.120,280.874 238.011,279.500 238.006 C 278.455 238.003,277.600 238.180,277.600 238.400 M359.600 238.824 C 359.600 239.277,359.780 239.536,360.000 239.400 C 360.220 239.264,360.400 238.893,360.400 238.576 C 360.400 238.259,360.220 238.000,360.000 238.000 C 359.780 238.000,359.600 238.371,359.600 238.824 M380.924 246.200 C 380.926 247.520,381.001 248.012,381.090 247.293 C 381.179 246.574,381.177 245.494,381.086 244.893 C 380.995 244.292,380.922 244.880,380.924 246.200 M274.100 259.494 C 275.145 259.576,276.855 259.576,277.900 259.494 C 278.945 259.412,278.090 259.344,276.000 259.344 C 273.910 259.344,273.055 259.412,274.100 259.494 M11.800 262.800 C 12.142 263.354,185.858 263.354,186.200 262.800 C 186.365 262.534,157.196 262.400,99.000 262.400 C 40.804 262.400,11.635 262.534,11.800 262.800 M11.600 276.000 C 11.600 276.265,40.467 276.400,97.400 276.400 C 154.333 276.400,183.200 276.265,183.200 276.000 C 183.200 275.735,154.333 275.600,97.400 275.600 C 40.467 275.600,11.600 275.735,11.600 276.000 M221.600 278.600 C 221.600 279.196,221.772 279.541,222.000 279.400 C 222.220 279.264,222.400 278.904,222.400 278.600 C 222.400 278.296,222.220 277.936,222.000 277.800 C 221.772 277.659,221.600 278.004,221.600 278.600 M319.600 288.576 C 319.600 288.893,319.780 289.264,320.000 289.400 C 320.220 289.536,320.400 289.277,320.400 288.824 C 320.400 288.371,320.220 288.000,320.000 288.000 C 319.780 288.000,319.600 288.259,319.600 288.576 M231.800 291.200 C 231.936 291.420,232.307 291.600,232.624 291.600 C 232.941 291.600,233.200 291.420,233.200 291.200 C 233.200 290.980,232.829 290.800,232.376 290.800 C 231.923 290.800,231.664 290.980,231.800 291.200 M296.101 294.200 C 296.105 295.080,296.187 295.393,296.283 294.895 C 296.379 294.398,296.375 293.678,296.275 293.295 C 296.175 292.913,296.096 293.320,296.101 294.200 M295.758 304.200 C 295.758 307.280,295.821 308.487,295.897 306.882 C 295.973 305.278,295.973 302.758,295.896 301.282 C 295.819 299.807,295.757 301.120,295.758 304.200 M296.101 313.800 C 296.105 314.680,296.187 314.993,296.283 314.495 C 296.379 313.998,296.375 313.278,296.275 312.895 C 296.175 312.513,296.096 312.920,296.101 313.800 M320.184 348.027 C 319.728 348.764,320.332 348.925,321.010 348.248 C 321.569 347.688,321.575 347.600,321.052 347.600 C 320.719 347.600,320.329 347.792,320.184 348.027 M393.548 401.800 C 393.342 405.126,393.413 405.393,393.953 403.340 C 394.184 402.462,394.221 401.198,394.040 400.400 C 393.757 399.156,393.702 399.312,393.548 401.800 M384.242 406.732 C 384.114 406.939,384.464 407.196,385.021 407.302 C 385.658 407.424,385.977 407.330,385.883 407.048 C 385.689 406.466,384.542 406.246,384.242 406.732 M389.149 407.075 C 388.666 407.669,388.688 407.717,389.333 407.475 C 389.736 407.324,390.241 407.200,390.456 407.200 C 390.671 407.200,390.736 407.020,390.600 406.800 C 390.241 406.219,389.773 406.308,389.149 407.075 " stroke="none" fill="#a05a88" fill-rule="evenodd"></path><path id="path4" d="M130.400 6.400 C 130.400 6.861,131.361 6.861,132.800 6.400 C 133.650 6.128,133.544 6.074,132.100 6.040 C 131.165 6.018,130.400 6.180,130.400 6.400 M138.171 6.449 C 139.199 6.690,139.884 6.676,140.151 6.409 C 140.430 6.130,139.928 6.013,138.580 6.040 L 136.600 6.080 138.171 6.449 M128.000 6.800 C 128.000 7.020,128.360 7.200,128.800 7.200 C 129.240 7.200,129.600 7.020,129.600 6.800 C 129.600 6.580,129.240 6.400,128.800 6.400 C 128.360 6.400,128.000 6.580,128.000 6.800 M141.000 6.800 C 141.136 7.020,141.496 7.200,141.800 7.200 C 142.104 7.200,142.464 7.020,142.600 6.800 C 142.741 6.572,142.396 6.400,141.800 6.400 C 141.204 6.400,140.859 6.572,141.000 6.800 M106.000 32.024 C 106.000 33.004,106.158 33.549,106.400 33.400 C 106.620 33.264,106.800 32.533,106.800 31.776 C 106.800 31.019,106.620 30.400,106.400 30.400 C 106.180 30.400,106.000 31.131,106.000 32.024 M163.991 31.700 C 163.802 33.767,163.873 38.521,164.095 38.659 C 164.263 38.762,164.400 37.217,164.400 35.224 C 164.400 32.553,164.128 30.206,163.991 31.700 M106.000 38.176 C 106.000 39.179,106.180 40.000,106.400 40.000 C 106.620 40.000,106.800 39.291,106.800 38.424 C 106.800 37.557,106.620 36.736,106.400 36.600 C 106.156 36.449,106.000 37.063,106.000 38.176 M131.833 63.946 C 131.716 64.136,133.129 64.325,134.974 64.366 C 136.965 64.409,138.434 64.269,138.588 64.020 C 138.761 63.739,137.719 63.600,135.447 63.600 C 133.577 63.600,131.951 63.756,131.833 63.946 M100.977 69.162 C 101.100 69.362,101.561 69.431,102.000 69.316 C 103.101 69.028,103.002 68.800,101.776 68.800 C 101.213 68.800,100.854 68.963,100.977 69.162 M122.600 69.200 C 123.712 69.678,125.105 69.678,125.400 69.200 C 125.553 68.953,124.910 68.811,123.724 68.828 C 122.281 68.849,122.000 68.942,122.600 69.200 M98.400 69.600 C 98.400 69.820,98.760 70.000,99.200 70.000 C 99.640 70.000,100.000 69.820,100.000 69.600 C 100.000 69.380,99.640 69.200,99.200 69.200 C 98.760 69.200,98.400 69.380,98.400 69.600 M126.400 69.600 C 126.400 69.820,126.850 70.000,127.400 70.000 C 127.950 70.000,128.400 69.820,128.400 69.600 C 128.400 69.380,127.950 69.200,127.400 69.200 C 126.850 69.200,126.400 69.380,126.400 69.600 M87.093 106.900 C 86.908 108.117,87.015 108.749,87.343 108.367 C 87.695 107.955,87.944 105.600,87.635 105.600 C 87.446 105.600,87.202 106.185,87.093 106.900 M142.800 109.576 C 142.800 110.003,142.980 110.464,143.200 110.600 C 143.427 110.740,143.600 110.404,143.600 109.824 C 143.600 109.261,143.420 108.800,143.200 108.800 C 142.980 108.800,142.800 109.149,142.800 109.576 M212.800 115.200 C 212.800 115.420,213.160 115.600,213.600 115.600 C 214.040 115.600,214.400 115.420,214.400 115.200 C 214.400 114.980,214.040 114.800,213.600 114.800 C 213.160 114.800,212.800 114.980,212.800 115.200 M216.400 115.200 C 216.400 115.420,217.030 115.600,217.800 115.600 C 218.570 115.600,219.200 115.420,219.200 115.200 C 219.200 114.980,218.570 114.800,217.800 114.800 C 217.030 114.800,216.400 114.980,216.400 115.200 M84.400 117.000 C 84.400 117.550,84.580 118.000,84.800 118.000 C 85.020 118.000,85.200 117.550,85.200 117.000 C 85.200 116.450,85.020 116.000,84.800 116.000 C 84.580 116.000,84.400 116.450,84.400 117.000 M141.108 118.383 C 140.831 119.367,140.997 119.937,141.432 119.501 C 141.560 119.373,141.601 118.848,141.524 118.334 L 141.384 117.400 141.108 118.383 M226.893 120.000 C 226.893 120.770,226.975 121.085,227.076 120.700 C 227.176 120.315,227.176 119.685,227.076 119.300 C 226.975 118.915,226.893 119.230,226.893 120.000 M140.400 121.400 C 140.400 121.950,140.580 122.400,140.800 122.400 C 141.020 122.400,141.200 121.950,141.200 121.400 C 141.200 120.850,141.020 120.400,140.800 120.400 C 140.580 120.400,140.400 120.850,140.400 121.400 M83.225 123.220 C 83.249 124.517,83.274 124.542,83.638 123.632 C 83.894 122.991,83.885 122.525,83.612 122.252 C 83.329 121.969,83.208 122.273,83.225 123.220 M226.901 123.400 C 226.905 124.280,226.987 124.593,227.083 124.095 C 227.179 123.598,227.175 122.878,227.075 122.495 C 226.975 122.113,226.896 122.520,226.901 123.400 M82.909 126.400 C 82.909 127.390,82.987 127.795,83.082 127.300 C 83.178 126.805,83.178 125.995,83.082 125.500 C 82.987 125.005,82.909 125.410,82.909 126.400 M138.677 131.900 C 138.559 132.505,138.628 133.171,138.831 133.380 C 139.058 133.614,139.200 133.192,139.200 132.280 C 139.200 130.528,138.978 130.367,138.677 131.900 M204.400 135.600 C 204.400 135.820,204.760 136.000,205.200 136.000 C 205.640 136.000,206.000 135.820,206.000 135.600 C 206.000 135.380,205.640 135.200,205.200 135.200 C 204.760 135.200,204.400 135.380,204.400 135.600 M28.000 137.600 C 28.000 138.330,28.166 138.745,28.400 138.600 C 28.620 138.464,28.800 138.014,28.800 137.600 C 28.800 137.186,28.620 136.736,28.400 136.600 C 28.166 136.455,28.000 136.870,28.000 137.600 M28.400 140.400 C 28.400 141.147,28.507 141.253,28.880 140.880 C 29.253 140.507,29.253 140.293,28.880 139.920 C 28.507 139.547,28.400 139.653,28.400 140.400 M80.846 143.076 C 80.885 146.031,80.945 146.342,81.223 145.000 C 81.687 142.757,81.675 140.094,81.200 139.800 C 80.944 139.642,80.817 140.818,80.846 143.076 M137.234 142.580 C 137.212 143.605,137.337 144.023,137.590 143.770 C 137.831 143.529,137.844 142.927,137.624 142.190 C 137.273 141.014,137.268 141.019,137.234 142.580 M136.967 153.600 C 136.967 157.890,137.026 159.645,137.098 157.500 C 137.170 155.355,137.170 151.845,137.098 149.700 C 137.026 147.555,136.967 149.310,136.967 153.600 M80.573 159.000 C 80.573 164.280,80.630 166.385,80.699 163.677 C 80.768 160.969,80.768 156.649,80.699 154.077 C 80.629 151.505,80.572 153.720,80.573 159.000 M137.200 163.200 C 137.200 163.947,137.307 164.053,137.680 163.680 C 138.053 163.307,138.053 163.093,137.680 162.720 C 137.307 162.347,137.200 162.453,137.200 163.200 M80.806 170.700 C 80.803 171.415,80.980 172.000,81.200 172.000 C 81.708 172.000,81.708 170.786,81.200 170.000 C 80.906 169.545,80.811 169.714,80.806 170.700 M82.277 179.500 C 82.159 180.105,82.228 180.771,82.431 180.980 C 82.658 181.214,82.800 180.792,82.800 179.880 C 82.800 178.128,82.578 177.967,82.277 179.500 M109.600 188.576 C 109.600 194.325,109.745 197.600,110.000 197.600 C 110.255 197.600,110.400 194.408,110.400 188.824 C 110.400 183.404,110.247 179.953,110.000 179.800 C 109.738 179.638,109.600 182.663,109.600 188.576 M82.944 186.400 C 82.944 188.490,83.012 189.345,83.094 188.300 C 83.176 187.255,83.176 185.545,83.094 184.500 C 83.012 183.455,82.944 184.310,82.944 186.400 M82.940 200.400 C 82.940 202.270,83.009 203.035,83.093 202.100 C 83.177 201.165,83.177 199.635,83.093 198.700 C 83.009 197.765,82.940 198.530,82.940 200.400 M109.139 202.438 C 109.062 203.559,109.135 204.560,109.300 204.662 C 109.465 204.764,109.600 203.847,109.600 202.624 C 109.600 199.839,109.323 199.728,109.139 202.438 M107.867 212.667 C 107.452 213.082,107.553 214.400,108.000 214.400 C 108.220 214.400,108.400 213.950,108.400 213.400 C 108.400 212.353,108.308 212.226,107.867 212.667 M80.812 213.820 C 80.823 214.854,80.877 214.909,81.254 214.261 C 81.561 213.732,81.558 213.398,81.241 213.081 C 80.920 212.760,80.803 212.959,80.812 213.820 M107.200 216.176 C 107.200 216.739,107.380 217.200,107.600 217.200 C 107.820 217.200,108.000 216.851,108.000 216.424 C 108.000 215.997,107.820 215.536,107.600 215.400 C 107.373 215.260,107.200 215.596,107.200 216.176 M105.200 224.600 C 105.200 224.930,105.380 225.200,105.600 225.200 C 105.820 225.200,106.000 224.930,106.000 224.600 C 106.000 224.270,105.820 224.000,105.600 224.000 C 105.380 224.000,105.200 224.270,105.200 224.600 M104.800 226.600 C 104.800 226.930,104.980 227.200,105.200 227.200 C 105.420 227.200,105.600 226.930,105.600 226.600 C 105.600 226.270,105.420 226.000,105.200 226.000 C 104.980 226.000,104.800 226.270,104.800 226.600 M178.674 227.500 C 178.578 227.665,178.645 228.160,178.822 228.600 C 179.103 229.298,179.147 229.260,179.172 228.300 C 179.200 227.215,179.012 226.914,178.674 227.500 M154.000 228.400 C 154.000 228.840,154.180 229.200,154.400 229.200 C 154.620 229.200,154.800 228.840,154.800 228.400 C 154.800 227.960,154.620 227.600,154.400 227.600 C 154.180 227.600,154.000 227.960,154.000 228.400 M154.667 230.267 C 154.248 230.685,154.355 232.400,154.800 232.400 C 155.020 232.400,155.200 231.860,155.200 231.200 C 155.200 229.957,155.119 229.815,154.667 230.267 M63.600 250.000 C 63.600 251.263,63.753 251.953,64.000 251.800 C 64.220 251.664,64.400 250.854,64.400 250.000 C 64.400 249.146,64.220 248.336,64.000 248.200 C 63.753 248.047,63.600 248.737,63.600 250.000 M166.900 257.876 C 167.285 257.976,167.915 257.976,168.300 257.876 C 168.685 257.775,168.370 257.693,167.600 257.693 C 166.830 257.693,166.515 257.775,166.900 257.876 M228.200 288.607 C 228.640 288.966,229.360 289.435,229.800 289.651 L 230.600 290.044 229.800 289.393 C 229.360 289.034,228.640 288.565,228.200 288.349 L 227.400 287.956 228.200 288.607 M309.504 341.685 C 309.976 342.253,313.200 344.173,313.200 343.885 C 313.200 343.794,312.267 343.140,311.127 342.431 C 309.987 341.722,309.257 341.387,309.504 341.685 M317.144 346.776 C 317.664 347.229,318.279 347.600,318.511 347.600 C 319.003 347.600,318.979 347.580,317.400 346.655 L 316.200 345.953 317.144 346.776 " stroke="none" fill="#736b98" fill-rule="evenodd"></path></g></svg>